<?xml version="1.0" encoding="UTF-8" standalone="no"?>
<!-- Created with Inkscape (http://www.inkscape.org/) -->

<svg
   width="79.375mm"
   height="79.375mm"
   viewBox="0 0 79.375 79.375"
   version="1.1"
   id="svg5"
   sodipodi:docname="avatar-10.svg"
   inkscape:version="1.1.1 (3bf5ae0d25, 2021-09-20)"
   xmlns:inkscape="http://www.inkscape.org/namespaces/inkscape"
   xmlns:sodipodi="http://sodipodi.sourceforge.net/DTD/sodipodi-0.dtd"
   xmlns="http://www.w3.org/2000/svg"
   xmlns:svg="http://www.w3.org/2000/svg">
  <sodipodi:namedview
     id="namedview7"
     pagecolor="#ffffff"
     bordercolor="#999999"
     borderopacity="1"
     inkscape:pageshadow="0"
     inkscape:pageopacity="0"
     inkscape:pagecheckerboard="0"
     inkscape:document-units="mm"
     showgrid="false"
     inkscape:zoom="0.72337262"
     inkscape:cx="-216.3477"
     inkscape:cy="20.044994"
     inkscape:window-width="1920"
     inkscape:window-height="1001"
     inkscape:window-x="-9"
     inkscape:window-y="-9"
     inkscape:window-maximized="1"
     inkscape:current-layer="layer1" />
  <defs
     id="defs2">
    <clipPath
       id="clip0_421_1274">
      <rect
         width="300"
         height="300"
         fill="#ffffff"
         id="rect903"
         x="0"
         y="0" />
    </clipPath>
    <clipPath
       id="clip0_421_1274-3">
      <rect
         width="300"
         height="300"
         fill="#ffffff"
         id="rect1539"
         x="0"
         y="0" />
    </clipPath>
    <clipPath
       id="clip0_421_1274-35">
      <rect
         width="300"
         height="300"
         fill="#ffffff"
         id="rect1928"
         x="0"
         y="0" />
    </clipPath>
    <clipPath
       id="clip0_421_1274-8">
      <rect
         width="300"
         height="300"
         fill="#ffffff"
         id="rect2361"
         x="0"
         y="0" />
    </clipPath>
    <linearGradient
       id="paint0_linear_421_1274"
       x1="121.039"
       y1="222.77901"
       x2="121.039"
       y2="132.015"
       gradientUnits="userSpaceOnUse">
      <stop
         stop-color="#FF7300"
         id="stop2716" />
      <stop
         offset="0.1086"
         stop-color="#FF8D08"
         id="stop2718" />
      <stop
         offset="0.2899"
         stop-color="#FFB214"
         id="stop2720" />
      <stop
         offset="0.4716"
         stop-color="#FFCF1E"
         id="stop2722" />
      <stop
         offset="0.6514"
         stop-color="#FFE325"
         id="stop2724" />
      <stop
         offset="0.8286"
         stop-color="#FFF029"
         id="stop2726" />
      <stop
         offset="1"
         stop-color="#FFF42A"
         id="stop2728" />
    </linearGradient>
    <linearGradient
       id="paint1_linear_421_1274"
       x1="121.04"
       y1="129.14799"
       x2="121.04"
       y2="139.46899"
       gradientUnits="userSpaceOnUse">
      <stop
         stop-color="#FF7300"
         id="stop2731" />
      <stop
         offset="0.1086"
         stop-color="#FF8D08"
         id="stop2733" />
      <stop
         offset="0.2899"
         stop-color="#FFB214"
         id="stop2735" />
      <stop
         offset="0.4716"
         stop-color="#FFCF1E"
         id="stop2737" />
      <stop
         offset="0.6514"
         stop-color="#FFE325"
         id="stop2739" />
      <stop
         offset="0.8286"
         stop-color="#FFF029"
         id="stop2741" />
      <stop
         offset="1"
         stop-color="#FFF42A"
         id="stop2743" />
    </linearGradient>
    <linearGradient
       id="paint2_linear_421_1274"
       x1="226.423"
       y1="222.77901"
       x2="226.423"
       y2="132.015"
       gradientUnits="userSpaceOnUse">
      <stop
         stop-color="#FF7300"
         id="stop2746" />
      <stop
         offset="0.1086"
         stop-color="#FF8D08"
         id="stop2748" />
      <stop
         offset="0.2899"
         stop-color="#FFB214"
         id="stop2750" />
      <stop
         offset="0.4716"
         stop-color="#FFCF1E"
         id="stop2752" />
      <stop
         offset="0.6514"
         stop-color="#FFE325"
         id="stop2754" />
      <stop
         offset="0.8286"
         stop-color="#FFF029"
         id="stop2756" />
      <stop
         offset="1"
         stop-color="#FFF42A"
         id="stop2758" />
    </linearGradient>
    <clipPath
       id="clip0_421_1274-6">
      <rect
         width="300"
         height="300"
         fill="#ffffff"
         id="rect2761"
         x="0"
         y="0" />
    </clipPath>
    <clipPath
       id="clip0_421_1274-9">
      <rect
         width="300"
         height="300"
         fill="#ffffff"
         id="rect3154"
         x="0"
         y="0" />
    </clipPath>
    <clipPath
       id="clip0_421_1274-61">
      <rect
         width="300"
         height="300"
         fill="#ffffff"
         id="rect3560"
         x="0"
         y="0" />
    </clipPath>
    <linearGradient
       id="paint0_linear_421_1274-3"
       x1="118.039"
       y1="225.166"
       x2="118.039"
       y2="137.532"
       gradientUnits="userSpaceOnUse">
      <stop
         stop-color="#FF7300"
         id="stop4079" />
      <stop
         offset="0.1086"
         stop-color="#FF8D08"
         id="stop4081" />
      <stop
         offset="0.2899"
         stop-color="#FFB214"
         id="stop4083" />
      <stop
         offset="0.4716"
         stop-color="#FFCF1E"
         id="stop4085" />
      <stop
         offset="0.6514"
         stop-color="#FFE325"
         id="stop4087" />
      <stop
         offset="0.8286"
         stop-color="#FFF029"
         id="stop4089" />
      <stop
         offset="1"
         stop-color="#FFF42A"
         id="stop4091" />
    </linearGradient>
    <linearGradient
       id="paint1_linear_421_1274-7"
       x1="118.04"
       y1="134.76401"
       x2="118.04"
       y2="144.729"
       gradientUnits="userSpaceOnUse">
      <stop
         stop-color="#FF7300"
         id="stop4094" />
      <stop
         offset="0.1086"
         stop-color="#FF8D08"
         id="stop4096" />
      <stop
         offset="0.2899"
         stop-color="#FFB214"
         id="stop4098" />
      <stop
         offset="0.4716"
         stop-color="#FFCF1E"
         id="stop4100" />
      <stop
         offset="0.6514"
         stop-color="#FFE325"
         id="stop4102" />
      <stop
         offset="0.8286"
         stop-color="#FFF029"
         id="stop4104" />
      <stop
         offset="1"
         stop-color="#FFF42A"
         id="stop4106" />
    </linearGradient>
    <linearGradient
       id="paint2_linear_421_1274-8"
       x1="223.423"
       y1="225.166"
       x2="223.423"
       y2="137.532"
       gradientUnits="userSpaceOnUse">
      <stop
         stop-color="#FF7300"
         id="stop4109" />
      <stop
         offset="0.1086"
         stop-color="#FF8D08"
         id="stop4111" />
      <stop
         offset="0.2899"
         stop-color="#FFB214"
         id="stop4113" />
      <stop
         offset="0.4716"
         stop-color="#FFCF1E"
         id="stop4115" />
      <stop
         offset="0.6514"
         stop-color="#FFE325"
         id="stop4117" />
      <stop
         offset="0.8286"
         stop-color="#FFF029"
         id="stop4119" />
      <stop
         offset="1"
         stop-color="#FFF42A"
         id="stop4121" />
    </linearGradient>
    <clipPath
       id="clip0_421_1274-4">
      <rect
         width="300"
         height="300"
         fill="#ffffff"
         id="rect4124"
         x="0"
         y="0" />
    </clipPath>
    <clipPath
       id="clip0_421_1274-2">
      <rect
         width="300"
         height="300"
         fill="#ffffff"
         id="rect4458"
         x="0"
         y="0" />
    </clipPath>
    <clipPath
       id="clip0_421_1274-1">
      <rect
         width="300"
         height="300"
         fill="#ffffff"
         id="rect4979"
         x="0"
         y="0" />
    </clipPath>
    <clipPath
       id="clip0_421_1274-24">
      <rect
         width="300"
         height="300"
         fill="#ffffff"
         id="rect5434"
         x="0"
         y="0" />
    </clipPath>
    <clipPath
       id="clip0_421_1274-46">
      <rect
         width="300"
         height="300"
         fill="#ffffff"
         id="rect5850"
         x="0"
         y="0" />
    </clipPath>
    <clipPath
       id="clip0_421_1274-5">
      <rect
         width="300"
         height="300"
         fill="#ffffff"
         id="rect6329"
         x="0"
         y="0" />
    </clipPath>
    <clipPath
       id="clip0_421_1274-38">
      <rect
         width="300"
         height="300"
         fill="#ffffff"
         id="rect6804"
         x="0"
         y="0" />
    </clipPath>
  </defs>
  <g
     inkscape:label="Layer 1"
     inkscape:groupmode="layer"
     id="layer1"
     transform="translate(-196.93567,-47.70413)">
    <g
       style="fill:none"
       id="g6864"
       transform="matrix(0.26458333,0,0,0.26458333,196.93567,47.70413)">
      <g
         clip-path="url(#clip0_421_1274-38)"
         id="g6802">
        <rect
           width="300"
           height="300"
           fill="#f4da92"
           fill-opacity="0.968627"
           id="rect6706"
           x="0"
           y="0" />
        <path
           d="m 250.705,265.099 c -0.775,0.553 -1.66,1.107 -2.435,1.66 -0.885,0.553 -1.659,1.106 -2.544,1.549 -0.775,0.443 -1.439,0.885 -2.213,1.328 -0.111,0.11 -0.222,0.11 -0.332,0.221 -2.545,1.549 -5.201,2.987 -7.856,4.315 -0.775,0.443 -1.66,0.885 -2.434,1.217 0,0 -0.111,0.111 -0.222,0.111 -0.885,0.443 -1.77,0.885 -2.655,1.328 -1.771,0.885 -3.652,1.659 -5.422,2.434 -0.885,0.443 -1.881,0.774 -2.766,1.106 -0.885,0.332 -1.881,0.775 -2.766,1.107 -0.886,0.332 -1.881,0.774 -2.766,1.106 0,0 -0.001,0 -0.111,0 -0.885,0.332 -1.881,0.664 -2.766,0.996 -1.992,0.664 -4.094,1.328 -6.086,1.992 -0.664,0.221 -1.438,0.442 -2.102,0.664 -2.102,0.664 -4.205,1.217 -6.307,1.659 -0.775,0.222 -1.549,0.332 -2.434,0.554 -1.992,0.442 -4.094,0.885 -6.086,1.327 -0.442,0.111 -0.774,0.111 -1.217,0.222 -0.664,0.11 -1.438,0.221 -2.102,0.332 -0.996,0.11 -1.881,0.332 -2.877,0.442 -0.443,0.111 -0.885,0.111 -1.328,0.222 -0.553,0.11 -1.217,0.221 -1.881,0.221 -1.77,0.221 -3.651,0.442 -5.422,0.664 -0.553,0.11 -1.217,0.11 -1.77,0.221 h -0.11 c -0.775,0.111 -1.55,0.111 -2.324,0.221 -0.775,0.111 -1.549,0.111 -2.324,0.111 -0.442,0 -0.995,0.111 -1.438,0.111 -0.885,0 -1.66,0.11 -2.434,0.11 -1.107,0 -2.103,0.111 -3.209,0.111 -1.107,0 -2.102,0 -3.209,0 -0.774,0 -1.549,0 -2.323,0 -46.583,-0.664 -88.6284,-20.47 -118.503,-51.893 0,0 0,-0.111 -0.1107,-0.111 3.4301,-6.75 16.1544,-18.921 29.432,-28.99 16.8183,-12.724 40.6077,-20.58 40.6077,-20.58 0,0 15.601,-2.545 73.469,9.516 44.148,9.294 62.958,47.025 69.376,64.396 z"
           fill="#c99589"
           id="path6708" />
        <path
           d="m 193.611,231.352 c -2.324,11.397 -17.372,18.146 -42.71,7.966 -31.092,-12.613 -43.042,-48.131 -43.042,-48.131 -1.659,-25.449 -5.532,-47.246 -5.532,-47.246 35.96,-3.098 78.449,38.948 78.449,38.948 l 4.868,20.801 c 0.443,1.771 1.328,3.32 2.656,4.426 2.323,3.983 6.86,15.933 5.311,23.236 z"
           fill="#c99589"
           id="path6710" />
        <path
           d="m 188.3,208.227 c -21.134,-1.107 -36.735,-4.205 -53.443,-34.19 14.163,12.503 30.871,17.261 48.464,19.474 l 2.323,10.179 c 0.443,1.881 1.328,3.43 2.656,4.537 z"
           fill="#a56663"
           id="path6712" />
        <path
           d="m 232.005,74.8974 c 1.992,9.2944 2.988,16.8183 -2.434,41.6036 -5.422,24.784 4.979,49.569 -21.134,72.252 -17.592,15.269 -48.352,18.146 -72.916,1.438 -8.298,-5.643 -15.933,-13.499 -22.129,-23.789 C 108.523,158.325 102.88,150.69 96.5735,143.72 87.8324,134.204 77.321,115.062 82.5214,81.2043 90.9306,26.1022 145.479,19.7954 177.678,25.8809 c 32.198,6.0856 48.905,24.453 54.327,49.0165 z"
           fill="#c99589"
           id="path6714" />
        <path
           d="m 126.116,118.16 c 0,0 -3.43,-16.597 -19.584,-14.605 -13.9415,1.77 -18.81,35.186 12.835,44.48"
           fill="#c99589"
           id="path6716" />
        <path
           d="m 118.371,132.876 c 0,0 -3.983,-2.545 -3.54,-6.97 0.664,-5.201 0,-8.41 -2.434,-9.405 -6.086,-2.545 -7.303,4.536 -7.082,5.421"
           stroke="#423232"
           stroke-width="3"
           stroke-miterlimit="10"
           stroke-linecap="round"
           stroke-linejoin="round"
           id="path6718" />
        <path
           d="m 202.795,143.609 c 0,0 4.204,0.221 8.188,-4.536 2.212,-2.656 4.093,-5.975 2.876,-6.971 -1.217,-1.107 -21.244,1.991 -22.572,4.647 -1.327,2.655 6.418,6.86 11.508,6.86 z"
           fill="#a56663"
           id="path6720" />
        <path
           d="m 206.114,106.432 c 0,0 0.222,10.511 6.971,22.24 2.988,5.2 -1.549,13.72 -11.397,15.158"
           stroke="#423232"
           stroke-width="3"
           stroke-miterlimit="10"
           stroke-linecap="round"
           stroke-linejoin="round"
           id="path6722" />
        <path
           d="m 232.45,80.0042 c -0.223,-1.3344 -0.556,-2.6688 -0.779,-4.1144 -1.223,-5.4488 -3.002,-10.564 -5.337,-15.3456 l -13.122,5.4488 c -3.781,1.5568 -8.006,2.0016 -12.121,1.3344 L 149.05,58.3202 c -6.339,-1.112 -12.455,2.5576 -14.567,8.5624 -1.557,4.3368 -3.448,9.3408 -5.449,13.5664 -15.791,2.5576 -31.1361,-0.7784 -45.7033,-7.0056 -1.112,-0.4448 -2.1129,-0.8896 -3.2249,-1.4456 2.0016,-10.1192 -5.6712,-52.3752 3.892,-63.384 3.2248,-3.6696 6.4496,-4.1144 9.5632,-3.0024 7.228,2.5576 15.346,1.112 20.572,-4.448 4.226,-4.3368 9.563,-8.11761 16.124,-8.22881 3.225,-0.1112 5.782,0.55601 7.895,1.77921 6.672,3.6696 14.79,2.4464 20.795,-2.1128 1.89,-1.3344 3.892,-2.224 6.116,-2.224 3.224,0 6.116,1.33439 8.451,3.11359 4.448,3.336 10.341,4.11441 15.79,3.00241 0.334,-0.1112 0.667,-0.1112 1.001,-0.1112 1.334,0 2.78,0.3336 4.003,0.8896 4.671,2.001595 9.897,2.224 14.567,0.2224 2.224,-0.8896 4.893,-0.8896 7.562,1.668001 3.336,3.224799 7.673,5.337589 12.343,5.448789 1.223,0 2.78,0.55601 4.671,1.77921 0.889,0.6672 1.668,1.8904 2.224,3.5584 0.889,2.5576 3.002,4.448 5.671,5.2264 1.668,0.556 2.891,2.224 3.225,6.0048 1.112,12.0096 -9.341,49.1504 -12.121,58.8248 z"
           fill="#423232"
           id="path6724" />
        <path
           d="m 241.123,15.0634 c -4.893,1.7792 -5.782,0.7784 -11.342,-0.6672 -5.56,-1.4456 -10.453,4.7816 -14.456,-1.668 -5.783,-9.452 -16.458,-3.00241 -18.571,-4.78161 -2.112,-1.7792 -8.673,-7.672792 -17.903,-1.44559 -6.116,4.1144 -13.9,-3.2248 -23.685,-3.2248 -19.572,0 -23.13,14.3448 -29.913,7.784 C 118.47,4.6106 111.242,8.94739 101.234,10.7266 91.2255,12.5058 86.1104,6.501 86.1104,6.501 c 2.4464,-1.668 4.8928,-1.66801 7.228,-0.88961 7.2276,2.5576 15.3456,1.112 20.5716,-4.448 4.226,-4.3368 9.564,-8.1176 16.124,-8.2288 3.225,-0.1112 5.783,0.55601 7.896,1.77921 6.672,3.6696 14.789,2.4464 20.794,-2.1128 1.89,-1.3344 3.892,-2.224 6.116,-2.224 3.225,0 6.116,1.33439 8.451,3.11359 4.448,3.336 10.342,4.11441 15.791,3.00241 0.333,-0.1112 0.667,-0.1112 1,-0.1112 1.335,0 2.78,0.33359 4.004,0.88959 4.67,2.001604 9.896,2.224009 14.567,0.22241 2.224,-0.8896 4.893,-0.8896 7.561,1.668 3.336,3.2248 7.673,5.33759 12.344,5.44879 1.223,0 2.78,0.55601 4.67,1.77921 0.89,0.6672 1.668,1.8904 2.224,3.55839 0.89,2.44641 3.114,4.33681 5.671,5.11521 z"
           fill="#5e4949"
           id="path6726" />
        <path
           d="m 124.364,116.478 c -1.891,-4.671 -6.895,-13.233 -18.682,-11.676 -11.7872,1.445 -17.1248,25.353 0.222,38.475 5.004,3.67 10.231,5.449 10.231,5.449 l -13.455,4.67 c 0,0 -24.4644,-13.9 -25.354,-45.703 -0.4448,-14.7896 1.112,-26.7992 2.78,-35.584 15.4568,7.1168 31.914,11.2312 48.928,8.4512 -1.89,3.892 -4.003,7.1168 -6.005,8.6736 -6.116,4.448 2.113,16.3462 1.335,27.2442 z"
           fill="#99807f"
           id="path6728" />
        <path
           d="m 124.585,87.677 c -0.556,0.556 -1.001,1.112 -1.557,1.4456 -1.334,1.0008 -2.001,2.4464 -2.224,4.1144 -6.894,0.3336 -16.791,-2.5576 -20.238,-3.6696 -0.7784,-0.2224 -1.2232,-0.8896 -1.2232,-1.668 v -0.556 c 0,-1.2232 1.1122,-2.0016 2.2242,-1.7792 7.673,2.1128 22.462,2.1128 23.018,2.1128 z"
           fill="#423232"
           id="path6730" />
        <path
           d="m 122.25,102.578 c -6.116,-0.445 -12.01,-1.557 -14.678,-2.113 -0.89,-0.222 -1.446,-0.8895 -1.446,-1.7791 0,-1.112 1.001,-1.8905 2.113,-1.7793 5.004,0.7784 10.341,0.6672 12.899,0.556 0.222,1.5568 0.667,3.2244 1.112,5.1154 z"
           fill="#423232"
           id="path6732" />
        <path
           d="m 118.358,201.411 c 0,0 -2.241,-13.897 -6.052,-13.113 C 94.5994,192.333 42.9356,207.35 24.8925,246.35 7.85803,283.445 6.28906,335.445 6.28906,335.445 H 289.711 c 0,0 -5.155,-79.009 -34.068,-103.216 -17.147,-14.456 -32.613,-23.31 -45.276,-28.689 -16.811,-7.173 -33.733,7.845 -38.552,7.508 -8.629,-0.448 -53.457,-9.637 -53.457,-9.637 z"
           fill="#544d4d"
           id="path6734" />
        <path
           d="M 61.7628,335.445 56.7197,293.867"
           stroke="#ffffff"
           stroke-width="3"
           stroke-miterlimit="10"
           stroke-linecap="round"
           stroke-linejoin="round"
           id="path6736" />
        <path
           d="m 257.436,279.747 c 0,0 -3.362,8.181 -2.353,16.362 1.008,8.181 3.922,20.172 -0.225,39.336"
           stroke="#ffffff"
           stroke-width="3"
           stroke-miterlimit="10"
           stroke-linecap="round"
           stroke-linejoin="round"
           id="path6738" />
        <path
           d="m 105.471,176.979 c 0,0 -8.0694,2.914 -9.5263,4.483 -1.4569,1.569 -2.1293,2.578 -2.1293,2.578 0,0 -4.0345,4.483 -6.2759,15.353 -1.0086,4.595 1.3448,12.104 -0.4483,18.043 -5.1552,16.475 19.2758,41.802 59.6208,56.707 30.595,11.319 64.327,1.009 69.034,-20.284 4.483,-20.509 1.793,-29.811 -0.336,-36.423 -4.258,-12.775 -5.603,-16.362 -11.319,-21.293 -3.586,-3.138 -6.052,3.362 -19.5,7.061 -4.146,1.12 -9.189,2.017 -15.689,2.241 -38.664,1.457 -55.026,-20.509 -60.854,-26.784 -1.457,-1.233 -2.129,-1.906 -2.577,-1.682 z"
           fill="#ffffff"
           id="path6740" />
        <path
           d="m 184.255,203.092 c -4.147,1.12 -9.19,2.017 -15.69,2.241 -38.663,1.457 -55.026,-20.509 -60.853,-26.785"
           stroke="#cccccc"
           stroke-width="3"
           stroke-miterlimit="10"
           stroke-linecap="round"
           stroke-linejoin="round"
           id="path6742" />
        <path
           d="m 204.764,192.109 c 10.198,8.517 27.905,30.819 23.646,80.689 -2.129,24.656 9.862,34.854 7.173,38.776 -0.449,0.673 -1.009,1.009 -1.457,1.121 -1.906,0.448 -3.699,1.345 -4.595,3.138 -0.336,0.784 -0.897,1.345 -1.681,1.793 -0.673,0.448 -1.457,0.448 -2.13,0.336 -2.353,-0.56 -4.931,0.785 -6.387,2.802 -0.561,0.784 -1.233,1.345 -2.242,1.569 -0.672,0.224 -1.345,0.112 -1.793,0 -1.905,-0.56 -4.034,0 -5.715,1.345 -0.449,0.336 -0.897,0.56 -1.457,0.56 -1.009,0 -1.793,-0.448 -2.466,-1.121 -1.569,-1.456 -3.81,-2.017 -6.052,-1.232 -0.224,0.112 -0.336,0.112 -0.56,0.112 -1.569,0.224 -2.802,-1.009 -3.698,-3.138 -0.897,-2.017 -3.026,-2.914 -5.267,-2.69 -0.449,0 -0.897,0 -1.457,-0.112 -4.371,-1.009 -9.974,-7.06 -10.087,-14.457 -0.112,-7.284 1.569,-19.948 4.371,-25.888 8.629,-18.267 11.767,-31.379 12.216,-41.241 0.896,-18.043 -10.535,-34.181 -9.414,-34.517 11.431,-2.354 19.052,-7.845 19.052,-7.845 z"
           fill="#ffffff"
           id="path6744" />
        <path
           d="m 182.798,275.712 c 8.629,-18.267 11.767,-31.379 12.215,-41.241 0.673,-13.897 -6.051,-26.785 -8.517,-32.052"
           stroke="#cccccc"
           stroke-width="3"
           stroke-miterlimit="10"
           stroke-linecap="round"
           stroke-linejoin="round"
           id="path6746" />
        <path
           d="m 178.427,301.6 c -0.112,-7.284 1.569,-19.948 4.371,-25.888 8.629,-18.267 11.767,-31.379 12.215,-41.241"
           stroke="#cccccc"
           stroke-width="3"
           stroke-miterlimit="10"
           stroke-linecap="round"
           stroke-linejoin="round"
           id="path6748" />
        <path
           d="m 188.402,262.488 c 0,0 -34.069,3.362 -56.483,-13.56"
           stroke="#cccccc"
           stroke-width="3"
           stroke-miterlimit="10"
           stroke-linecap="round"
           stroke-linejoin="round"
           id="path6750" />
        <path
           d="m 197.591,203.428 c 3.138,4.595 6.724,11.319 7.62,19.612"
           stroke="#cccccc"
           stroke-width="3"
           stroke-miterlimit="10"
           stroke-linecap="round"
           stroke-linejoin="round"
           id="path6752" />
        <path
           d="m 211.824,322.333 c 0,0 -5.715,-12.103 0,-38.44 6.052,-28.017 3.25,-41.801 3.25,-41.801"
           stroke="#cccccc"
           stroke-width="3"
           stroke-miterlimit="10"
           stroke-linecap="round"
           stroke-linejoin="round"
           id="path6754" />
        <path
           d="m 87.3154,204.997 c 0,0 7.5087,15.465 16.5866,22.638"
           stroke="#cccccc"
           stroke-width="3"
           stroke-miterlimit="10"
           stroke-linecap="round"
           stroke-linejoin="round"
           id="path6756" />
        <path
           d="m 194.117,242.092 c 0,0 -21.293,1.456 -36.31,-4.371"
           stroke="#cccccc"
           stroke-width="3"
           stroke-miterlimit="10"
           stroke-linecap="round"
           stroke-linejoin="round"
           id="path6758" />
        <path
           d="m 171.433,116.047 c -2.4,-0.1 -4.2,-2.1 -4,-4.5 l 0.1,-2.8 c 0.1,-2.4 2.1,-4.2 4.5,-4 2.4,0.1 4.2,2.1 4,4.5 l -0.1,2.8 c -0.1,2.3 -2.1,4.1 -4.5,4 z"
           fill="#423232"
           id="path6760" />
        <path
           d="m 213.533,117.547 c -2.2,-0.1 -3.9,-2 -3.8,-4.2 l 0.1,-2.6 c 0.1,-2.2 2,-3.9 4.2,-3.8 2.2,0.1 3.9,2 3.8,4.2 l -0.1,2.6 c -0.1,2.2 -2,3.9 -4.2,3.8 z"
           fill="#423232"
           id="path6762" />
        <path
           d="m 181.133,110.247 c 0,0 -2.6,-3.7 -7.1,-4.4 -3.7,-0.6 -7.8,1.2 -8.4,3.3"
           stroke="#423232"
           stroke-width="3"
           stroke-miterlimit="10"
           stroke-linecap="round"
           stroke-linejoin="round"
           id="path6764" />
        <path
           d="m 210.633,111.148 c 0,0 0,-3.2 4.6,-3.2 3.8,0 5.4,3.5 5.4,3.5"
           stroke="#423232"
           stroke-width="3"
           stroke-miterlimit="10"
           stroke-linecap="round"
           stroke-linejoin="round"
           id="path6766" />
        <path
           d="m 185.233,94.1474 c 2.1,0.7 4.2,-1.2 3.8,-3.5 -0.2,-1.2 -0.7,-2.4 -1.7,-3.3 -3,-2.7 -15.4,-5.1 -22.9,-1.6 -6.6,3.2 11.2,5.2 20.8,8.4 z"
           fill="#423232"
           id="path6768" />
        <path
           d="m 215.132,95.7475 c -1.7,0.6 -3.5,-1.2 -3.2,-3.3 0.1,-1.1 0.5,-2.2 1.3,-3 2.4,-2.4 10.6,-4.3 15.8,-0.6 4.5,3.1 -6.1,4 -13.9,6.9 z"
           fill="#423232"
           id="path6770" />
        <path
           d="m 196.958,159.25 c 0.1,1.6 -1.1,4.4 -3.3,6.4 -11.3,-6.9 -16.4,-3.3 -16.4,-3.3 -4,-6.1 -3.1,-14.4 6.6,-8.1 6.8,4.3 10.9,5 13.1,5 z"
           fill="#423232"
           id="path6772" />
        <path
           d="m 193.658,165.65 c -2.4,2.1 -6,3.4 -10.9,1.4 -2.3,-0.9 -4.1,-2.7 -5.5,-4.7 0,0 5.1,-3.6 16.4,3.3 z"
           fill="#fe9dab"
           id="path6774" />
        <path
           d="m 198.858,158.85 c 0,0 -4.2,2.3 -15,-4.6 -12.9,-8.3 -10.3,9.1 -1.2,12.8 9.5,3.9 14.4,-4.6 14.3,-7.8"
           stroke="#423232"
           stroke-width="3"
           stroke-miterlimit="10"
           stroke-linecap="round"
           stroke-linejoin="round"
           id="path6776" />
        <path
           d="m 177.258,162.35 c 0,0 5.1,-3.6 16.4,3.3"
           stroke="#423232"
           stroke-width="3"
           stroke-miterlimit="10"
           stroke-linecap="round"
           stroke-linejoin="round"
           id="path6778" />
        <path
           opacity="0.6"
           d="m 213.172,127.903 c 0,0 1.243,7.043 9.425,10.564 2.071,0.829 4.246,-0.518 4.246,-2.796 -0.103,0 -13.153,-6.939 -13.671,-7.768 z"
           fill="#b7aea9"
           id="path6780" />
        <path
           opacity="0.6"
           d="m 193.493,110.917 c 0,0 6.629,-6.628 9.943,-7.353 l -8.804,2.071 z"
           fill="#b7aea9"
           id="path6782" />
        <path
           opacity="0.6"
           d="m 149.268,127.903 c 0,0 3.832,8.7 15.328,10.772 11.497,2.175 21.957,-6.111 26.825,-19.99 0,0 -3.936,12.843 -19.678,15.225 -15.64,2.59 -22.475,-6.007 -22.475,-6.007 z"
           fill="#b7aea9"
           id="path6784" />
        <path
           opacity="0.29"
           d="m 167.807,81.3996 c -14.603,0 -26.514,12.2214 -26.618,27.1354 0,7.043 2.59,13.465 6.836,18.125 l 37.597,-38.0104 c -4.661,-4.5572 -10.875,-7.25 -17.815,-7.25 z"
           fill="#dbc3ed"
           id="path6786" />
        <path
           opacity="0.23"
           d="M 185.622,88.6496 148.025,126.66 c 4.765,5.282 11.497,8.493 18.954,8.493 14.396,0 26.204,-11.911 26.618,-26.721 0.207,-7.768 -2.9,-14.811 -7.975,-19.7824 z"
           fill="#c4add8"
           id="path6788" />
        <path
           opacity="0.29"
           d="m 228.396,81.3996 c -11.082,0 -20.403,12.2214 -20.817,27.1354 -0.208,6.007 1.139,11.497 3.417,15.95 l 32.833,-32.5211 c -3.418,-6.4215 -9.011,-10.5643 -15.433,-10.5643 z"
           fill="#dbc3ed"
           id="path6790" />
        <path
           opacity="0.23"
           d="m 243.828,91.8601 -32.832,32.5219 c 3.418,6.525 9.011,10.771 15.536,10.771 10.875,0 20.196,-11.911 20.818,-26.721 0.207,-6.111 -1.14,-11.9111 -3.522,-16.5719 z"
           fill="#c4add8"
           id="path6792" />
        <path
           d="m 193.597,108.535 c -0.311,14.811 -12.222,26.722 -26.618,26.722 -14.397,0 -25.893,-11.911 -25.893,-26.722 0.104,-14.914 12.014,-27.1354 26.618,-27.1354 14.603,0 26.307,12.2214 25.893,27.1354 z"
           stroke="#4ec2dd"
           stroke-width="3"
           stroke-miterlimit="10"
           stroke-linecap="round"
           stroke-linejoin="round"
           id="path6794" />
        <path
           d="m 247.35,108.535 c -0.621,14.811 -9.942,26.722 -20.817,26.722 -10.875,0 -19.368,-11.911 -18.954,-26.722 0.414,-14.914 9.736,-27.1354 20.818,-27.1354 11.082,0 19.575,12.2214 18.953,27.1354 z"
           stroke="#4ec2dd"
           stroke-width="3"
           stroke-miterlimit="10"
           stroke-linecap="round"
           stroke-linejoin="round"
           id="path6796" />
        <path
           d="M 141.397,105.635 H 126.689"
           stroke="#4ec2dd"
           stroke-width="3"
           stroke-miterlimit="10"
           stroke-linecap="round"
           stroke-linejoin="round"
           id="path6798" />
        <path
           d="m 193.7,105.635 c 0,0 12.325,-4.764 13.879,0"
           stroke="#4ec2dd"
           stroke-width="3"
           stroke-miterlimit="10"
           stroke-linecap="round"
           stroke-linejoin="round"
           id="path6800" />
      </g>
    </g>
  </g>
</svg>
