<?xml version="1.0" encoding="UTF-8" standalone="no"?>
<!-- Created with Inkscape (http://www.inkscape.org/) -->

<svg
   width="79.375mm"
   height="79.375mm"
   viewBox="0 0 79.375 79.375"
   version="1.1"
   id="svg5"
   xmlns="http://www.w3.org/2000/svg"
   xmlns:svg="http://www.w3.org/2000/svg">
  <defs
     id="defs2">
    <clipPath
       id="clip0_421_1274">
      <rect
         width="300"
         height="300"
         fill="#ffffff"
         id="rect903"
         x="0"
         y="0" />
    </clipPath>
    <clipPath
       id="clip0_421_1274-3">
      <rect
         width="300"
         height="300"
         fill="#ffffff"
         id="rect1539"
         x="0"
         y="0" />
    </clipPath>
    <clipPath
       id="clip0_421_1274-35">
      <rect
         width="300"
         height="300"
         fill="#ffffff"
         id="rect1928"
         x="0"
         y="0" />
    </clipPath>
    <clipPath
       id="clip0_421_1274-8">
      <rect
         width="300"
         height="300"
         fill="#ffffff"
         id="rect2361"
         x="0"
         y="0" />
    </clipPath>
    <linearGradient
       id="paint0_linear_421_1274"
       x1="121.039"
       y1="222.77901"
       x2="121.039"
       y2="132.015"
       gradientUnits="userSpaceOnUse">
      <stop
         stop-color="#FF7300"
         id="stop2716" />
      <stop
         offset="0.1086"
         stop-color="#FF8D08"
         id="stop2718" />
      <stop
         offset="0.2899"
         stop-color="#FFB214"
         id="stop2720" />
      <stop
         offset="0.4716"
         stop-color="#FFCF1E"
         id="stop2722" />
      <stop
         offset="0.6514"
         stop-color="#FFE325"
         id="stop2724" />
      <stop
         offset="0.8286"
         stop-color="#FFF029"
         id="stop2726" />
      <stop
         offset="1"
         stop-color="#FFF42A"
         id="stop2728" />
    </linearGradient>
    <linearGradient
       id="paint1_linear_421_1274"
       x1="121.04"
       y1="129.14799"
       x2="121.04"
       y2="139.46899"
       gradientUnits="userSpaceOnUse">
      <stop
         stop-color="#FF7300"
         id="stop2731" />
      <stop
         offset="0.1086"
         stop-color="#FF8D08"
         id="stop2733" />
      <stop
         offset="0.2899"
         stop-color="#FFB214"
         id="stop2735" />
      <stop
         offset="0.4716"
         stop-color="#FFCF1E"
         id="stop2737" />
      <stop
         offset="0.6514"
         stop-color="#FFE325"
         id="stop2739" />
      <stop
         offset="0.8286"
         stop-color="#FFF029"
         id="stop2741" />
      <stop
         offset="1"
         stop-color="#FFF42A"
         id="stop2743" />
    </linearGradient>
    <linearGradient
       id="paint2_linear_421_1274"
       x1="226.423"
       y1="222.77901"
       x2="226.423"
       y2="132.015"
       gradientUnits="userSpaceOnUse">
      <stop
         stop-color="#FF7300"
         id="stop2746" />
      <stop
         offset="0.1086"
         stop-color="#FF8D08"
         id="stop2748" />
      <stop
         offset="0.2899"
         stop-color="#FFB214"
         id="stop2750" />
      <stop
         offset="0.4716"
         stop-color="#FFCF1E"
         id="stop2752" />
      <stop
         offset="0.6514"
         stop-color="#FFE325"
         id="stop2754" />
      <stop
         offset="0.8286"
         stop-color="#FFF029"
         id="stop2756" />
      <stop
         offset="1"
         stop-color="#FFF42A"
         id="stop2758" />
    </linearGradient>
    <clipPath
       id="clip0_421_1274-6">
      <rect
         width="300"
         height="300"
         fill="#ffffff"
         id="rect2761"
         x="0"
         y="0" />
    </clipPath>
    <clipPath
       id="clip0_421_1274-9">
      <rect
         width="300"
         height="300"
         fill="#ffffff"
         id="rect3154"
         x="0"
         y="0" />
    </clipPath>
    <clipPath
       id="clip0_421_1274-61">
      <rect
         width="300"
         height="300"
         fill="#ffffff"
         id="rect3560"
         x="0"
         y="0" />
    </clipPath>
    <linearGradient
       id="paint0_linear_421_1274-3"
       x1="118.039"
       y1="225.166"
       x2="118.039"
       y2="137.532"
       gradientUnits="userSpaceOnUse">
      <stop
         stop-color="#FF7300"
         id="stop4079" />
      <stop
         offset="0.1086"
         stop-color="#FF8D08"
         id="stop4081" />
      <stop
         offset="0.2899"
         stop-color="#FFB214"
         id="stop4083" />
      <stop
         offset="0.4716"
         stop-color="#FFCF1E"
         id="stop4085" />
      <stop
         offset="0.6514"
         stop-color="#FFE325"
         id="stop4087" />
      <stop
         offset="0.8286"
         stop-color="#FFF029"
         id="stop4089" />
      <stop
         offset="1"
         stop-color="#FFF42A"
         id="stop4091" />
    </linearGradient>
    <linearGradient
       id="paint1_linear_421_1274-7"
       x1="118.04"
       y1="134.76401"
       x2="118.04"
       y2="144.729"
       gradientUnits="userSpaceOnUse">
      <stop
         stop-color="#FF7300"
         id="stop4094" />
      <stop
         offset="0.1086"
         stop-color="#FF8D08"
         id="stop4096" />
      <stop
         offset="0.2899"
         stop-color="#FFB214"
         id="stop4098" />
      <stop
         offset="0.4716"
         stop-color="#FFCF1E"
         id="stop4100" />
      <stop
         offset="0.6514"
         stop-color="#FFE325"
         id="stop4102" />
      <stop
         offset="0.8286"
         stop-color="#FFF029"
         id="stop4104" />
      <stop
         offset="1"
         stop-color="#FFF42A"
         id="stop4106" />
    </linearGradient>
    <linearGradient
       id="paint2_linear_421_1274-8"
       x1="223.423"
       y1="225.166"
       x2="223.423"
       y2="137.532"
       gradientUnits="userSpaceOnUse">
      <stop
         stop-color="#FF7300"
         id="stop4109" />
      <stop
         offset="0.1086"
         stop-color="#FF8D08"
         id="stop4111" />
      <stop
         offset="0.2899"
         stop-color="#FFB214"
         id="stop4113" />
      <stop
         offset="0.4716"
         stop-color="#FFCF1E"
         id="stop4115" />
      <stop
         offset="0.6514"
         stop-color="#FFE325"
         id="stop4117" />
      <stop
         offset="0.8286"
         stop-color="#FFF029"
         id="stop4119" />
      <stop
         offset="1"
         stop-color="#FFF42A"
         id="stop4121" />
    </linearGradient>
    <clipPath
       id="clip0_421_1274-4">
      <rect
         width="300"
         height="300"
         fill="#ffffff"
         id="rect4124"
         x="0"
         y="0" />
    </clipPath>
  </defs>
  <g
     id="layer1"
     transform="translate(-71.857464,-65.639473)">
    <g
       style="fill:none"
       id="g4189"
       transform="matrix(0.26458333,0,0,0.26458333,71.857464,65.639473)">
      <g
         clip-path="url(#clip0_421_1274-4)"
         id="g4077">
        <path
           id="rect4019"
           style="fill:#b5e2c9;fill-opacity:0.968627"
           d="M 0,0 H 300 V 300 H 0 Z" />
        <path
           d="m 251.148,266.099 c -0.775,0.553 -1.66,1.107 -2.434,1.66 -0.885,0.553 -1.66,1.106 -2.545,1.549 -0.775,0.443 -1.439,0.885 -2.213,1.328 -0.111,0.11 -0.221,0.11 -0.332,0.221 -2.545,1.549 -5.2,2.987 -7.856,4.315 -0.774,0.443 -1.66,0.885 -2.434,1.217 0,0 -0.111,0.111 -0.221,0.111 -0.886,0.443 -1.771,0.885 -2.656,1.328 -1.77,0.885 -3.651,1.659 -5.422,2.434 -0.885,0.443 -1.881,0.774 -2.766,1.106 -0.885,0.332 -1.881,0.775 -2.766,1.107 -0.885,0.332 -1.881,0.774 -2.766,1.106 0,0 0,0 -0.111,0 -0.885,0.332 -1.881,0.664 -2.766,0.996 -1.992,0.664 -4.094,1.328 -6.086,1.992 -0.663,0.221 -1.438,0.442 -2.102,0.664 -2.102,0.664 -4.204,1.217 -6.307,1.659 -0.774,0.222 -1.549,0.332 -2.434,0.554 -1.992,0.442 -4.094,0.885 -6.085,1.327 -0.443,0.111 -0.775,0.111 -1.218,0.222 -0.663,0.11 -1.438,0.221 -2.102,0.332 -0.996,0.11 -1.881,0.332 -2.877,0.442 -0.442,0.111 -0.885,0.111 -1.327,0.222 -0.554,0.11 -1.218,0.221 -1.881,0.221 -1.771,0.221 -3.652,0.442 -5.422,0.664 -0.553,0.11 -1.217,0.11 -1.77,0.221 h -0.111 c -0.775,0.111 -1.549,0.111 -2.324,0.221 -0.774,0.111 -1.549,0.111 -2.323,0.111 -0.443,0 -0.996,0.111 -1.439,0.111 -0.885,0 -1.659,0.11 -2.434,0.11 -1.106,0 -2.102,0.111 -3.209,0.111 -1.106,0 -2.102,0 -3.208,0 -0.775,0 -1.55,0 -2.324,0 -46.582,-0.664 -88.6281,-20.47 -118.5027,-51.893 0,0 0,-0.111 -0.1106,-0.111 3.43,-6.75 16.1544,-18.921 29.432,-28.99 16.8183,-12.724 40.6073,-20.58 40.6073,-20.58 0,0 15.601,-2.545 73.469,9.516 44.149,9.294 62.958,47.025 69.376,64.396 z"
           fill="#f7d3b5"
           id="path4021" />
        <path
           d="m 194.054,232.352 c -2.324,11.397 -17.371,18.146 -42.71,7.966 -31.091,-12.613 -43.041,-48.131 -43.041,-48.131 -1.66,-25.449 -5.532,-47.246 -5.532,-47.246 35.96,-3.098 78.448,38.948 78.448,38.948 l 4.869,20.801 c 0.442,1.771 1.327,3.32 2.655,4.426 2.324,3.983 6.86,15.933 5.311,23.236 z"
           fill="#f7d3b5"
           id="path4023" />
        <path
           d="m 188.743,209.227 c -21.133,-1.107 -36.735,-4.205 -53.442,-34.19 14.163,12.503 30.87,17.261 48.463,19.474 l 2.324,10.179 c 0.442,1.881 1.327,3.43 2.655,4.537 z"
           fill="#efbda5"
           id="path4025" />
        <path
           d="m 232.449,75.8974 c 1.991,9.2944 2.987,16.8183 -2.435,41.6036 -5.421,24.784 4.979,49.569 -21.133,72.252 -17.593,15.269 -48.353,18.146 -72.916,1.438 -8.299,-5.643 -15.934,-13.499 -22.13,-23.789 C 108.967,159.325 103.324,151.69 97.0169,144.72 88.2758,135.204 77.7644,116.062 82.9648,82.2043 91.3739,27.1022 145.923,20.7954 178.121,26.8809 c 32.198,6.0856 48.906,24.453 54.328,49.0165 z"
           fill="#f7d3b5"
           id="path4027" />
        <path
           d="m 126.56,119.16 c 0,0 -3.43,-16.597 -19.585,-14.605 -13.9411,1.77 -18.8096,35.186 12.835,44.48"
           fill="#f7d3b5"
           id="path4029" />
        <path
           style="color:#000000;fill:#423232;stroke-linecap:round;stroke-linejoin:round;stroke-miterlimit:10;-inkscape-stroke:none"
           d="m 110.88672,115.47656 c -0.79876,-0.0615 -1.54581,0.026 -2.22266,0.25 -1.3537,0.44791 -2.33004,1.3892 -2.98047,2.36914 -0.65042,0.97995 -1.01635,2.01625 -1.22656,2.90039 -0.1051,0.44208 -0.16984,0.84509 -0.20117,1.20313 -0.0313,0.35804 -0.0757,0.59147 0.0488,1.08789 a 1.5,1.5 0 0 0 1.81836,1.08984 1.5,1.5 0 0 0 1.09179,-1.82031 c 0.069,0.27517 0.0128,0.093 0.0293,-0.0957 0.0165,-0.18866 0.058,-0.46307 0.13086,-0.76953 0.14573,-0.61292 0.42177,-1.3547 0.80859,-1.9375 0.38683,-0.5828 0.84265,-0.98804 1.42188,-1.17969 0.57923,-0.19166 1.37958,-0.22332 2.65625,0.31055 a 1.50015,1.50015 0 0 0 0.01,0.004 c 0.73841,0.30186 1.17666,0.8189 1.49024,2.09571 0.31358,1.2768 0.34257,3.23267 0.0234,5.73242 a 1.50015,1.50015 0 0 0 -0.004,0.041 c -0.53623,5.3684 4.22656,8.38281 4.22656,8.38281 a 1.5,1.5 0 0 0 2.07032,-0.45703 1.5,1.5 0 0 0 -0.45508,-2.07226 c 0,0 -3.20519,-2.07505 -2.85742,-5.55664 0.33949,-2.68138 0.36852,-4.92077 -0.0898,-6.78711 -0.46068,-1.87573 -1.57151,-3.45864 -3.26562,-4.15235 -0.88024,-0.36719 -1.72715,-0.57737 -2.52344,-0.63867 z"
           id="path4031" />
        <path
           d="m 203.238,144.609 c 0,0 4.205,0.221 8.188,-4.536 2.213,-2.656 4.094,-5.975 2.877,-6.971 -1.217,-1.107 -21.244,1.991 -22.572,4.647 -1.328,2.655 6.417,6.86 11.507,6.86 z"
           fill="#efbda5"
           id="path4033" />
        <path
           style="color:#000000;fill:#423232;stroke-linecap:round;stroke-linejoin:round;stroke-miterlimit:10;-inkscape-stroke:none"
           d="m 206.52734,105.93164 a 1.5,1.5 0 0 0 -1.46875,1.53125 c 0,0 0.23478,10.90454 7.16993,22.95703 h -0.002 c 1.15429,2.0088 0.91411,4.81516 -0.82812,7.4043 -1.74224,2.58913 -4.94547,4.85893 -9.48242,5.52148 a 1.5,1.5 0 0 0 -1.26758,1.70117 1.5,1.5 0 0 0 1.70117,1.26758 c 5.31004,-0.77545 9.2961,-3.48409 11.53711,-6.81445 2.24101,-3.33036 2.77512,-7.38497 0.9414,-10.57617 -6.56284,-11.40549 -6.76953,-21.52344 -6.76953,-21.52344 a 1.5,1.5 0 0 0 -1.53125,-1.46875 z"
           id="path4035" />
        <path
           opacity="0.42"
           d="m 146.587,150.252 c 6.294,0 11.397,-4.211 11.397,-9.405 0,-5.194 -5.103,-9.405 -11.397,-9.405 -6.294,0 -11.397,4.211 -11.397,9.405 0,5.194 5.103,9.405 11.397,9.405 z"
           fill="#ed938a"
           id="path4037" />
        <path
           opacity="0.42"
           d="m 228.244,131.663 c -0.332,6.197 -0.221,12.282 -0.664,18.368 -4.868,-1.107 -8.409,-4.758 -8.409,-9.073 0,-4.647 3.873,-8.409 9.073,-9.295 z"
           fill="#ed938a"
           id="path4039" />
        <path
           d="m 233.428,105.285 c 3.024,-17.0236 2.128,-23.7436 0.336,-31.6956 -0.56,-2.464 -1.232,-4.816 -2.016,-7.168 -5.936,-4.704 -12.208,-7.728 -21.728,-9.072 -25.648,-3.472 -45.92,-1.12 -67.536,3.584 -13.552,2.912 -10.752,49.7276 -16.016,55.8876 -0.896,-3.136 -5.264,-15.904 -19.6,-14.112 -13.5518,1.68 -18.7038,33.04 9.296,43.792 -0.224,6.16 -5.936,17.584 -10.528,20.16 0,0 -0.784,-8.176 -9.7438,-18.928 -8.96,-10.752 -26.88,-38.64 -14.784,-79.4076 12.096,-40.768 66.8638,-62.04799 117.8238,-41.328 8.736,3.584 15.904,8.624 21.616,13.888 13.44,12.32 20.608,30.24 18.48,48.272 -0.56,6.048 -2.24,11.8716 -5.6,16.1276 z"
           fill="#423232"
           id="path4041" />
        <path
           d="m 215.956,54.3255 c 0,0 -33.04,50.6235 -94.64,34.944 0,0 -11.984,-30.128 14.112,-41.664 26.208,-11.424 74.256,-3.36 80.528,6.72 z"
           fill="#423232"
           id="path4043" />
        <path
           d="m 212.484,54.9975 c 0,0 4.256,11.76 12.656,21.28 5.488,6.16 12.656,11.312 21.616,11.536 0,0 2.8,-30.464 -17.136,-42.336 -19.936,-11.984 -17.136,9.52 -17.136,9.52 z"
           fill="#423232"
           id="path4045" />
        <path
           d="m 130.612,35.6214 c 0,0 -36.064,-56.112 -67.76,-15.456 -31.696,40.656 2.912,146.8316 -16.352,178.7516 0,0 22.064,-16.016 27.888,-47.376 0,0 0.672,12.992 -3.248,31.136 0,0 23.408,-26.992 23.408,-59.36 0,-32.3676 23.408,-79.4076 36.064,-87.6956 z"
           fill="#423232"
           id="path4047" />
        <path
           d="m 235.444,98.7894 c 4.032,17.1356 0,46.8156 0,46.8156 0,0 49.28,-78.2876 9.408,-107.9676 -33.6,-25.088 -106.064,0.448 -106.064,0.448 0,0 67.984,-16.352 81.2,14.896 12.096,28.224 13.44,18.48 17.248,35.28 0.56,1.68 -2.352,8.176 -1.792,10.528 z"
           fill="#423232"
           id="path4049" />
        <path
           d="m 58.6355,216.174 c 0,0 -21.7414,11.991 -33.6207,46.172 -11.8793,34.181 -11.5431,85.061 -11.5431,85.061 H 269.213 c 0,0 -7.172,-83.94 -32.5,-111.957 0,0 1.681,25.103 -47.965,27.681 C 139.101,265.708 79.3682,249.907 77.9113,240.717 76.5665,231.303 58.6355,216.174 58.6355,216.174 Z"
           fill="#ffffff"
           id="path4051" />
        <path
           d="m 247.136,349.424 c -70.38,32.5 -186.2589,3.138 -186.2589,3.138 0,0 -2.3534,-28.578 6.1638,-80.017 0.3362,-2.354 0.6724,-4.707 0.8966,-6.837 2.4655,-23.31 -3.25,-39.336 -9.3018,-49.422 0,-2.578 2.6897,-4.371 5.7156,-6.948 1.2327,-1.009 2.9137,-1.121 3.8103,-0.449 1.569,2.242 3.0259,4.483 4.2586,6.837 12.5517,23.198 37.2068,35.525 63.4308,38.103 35.75,3.586 50.655,3.026 68.474,-0.897 17.147,-3.81 24.88,-13.896 20.061,-30.706 -0.112,-0.225 -0.112,-0.561 -0.224,-0.897 3.025,-0.224 10.086,5.603 12.439,14.233 2.466,10.646 4.371,22.638 5.828,34.629 4.819,39.112 4.707,79.233 4.707,79.233 z"
           fill="#444444"
           id="path4053" />
        <path
           d="m 182.92,270.191 c 2.104,0 3.81,-1.706 3.81,-3.81 0,-2.105 -1.706,-3.811 -3.81,-3.811 -2.105,0 -3.811,1.706 -3.811,3.811 0,2.104 1.706,3.81 3.811,3.81 z"
           fill="#ffffff"
           id="path4055" />
        <path
           d="m 183.816,284.312 c 2.105,0 3.811,-1.706 3.811,-3.811 0,-2.104 -1.706,-3.81 -3.811,-3.81 -2.104,0 -3.81,1.706 -3.81,3.81 0,2.105 1.706,3.811 3.81,3.811 z"
           fill="#ffffff"
           id="path4057" />
        <path
           d="m 184.709,98.6113 c 2.172,0.3 3.851,-2 3.061,-4.2 -0.395,-1.2 -1.086,-2.3 -2.172,-3 -3.358,-2.1 -15.899,-2.3 -22.515,2.5 -5.827,4.4 11.751,3.3 21.626,4.7 z"
           fill="#423232"
           id="path4059" />
        <path
           d="m 212.062,99.7113 c -1.778,0 -2.864,-2.3 -1.975,-4.2 0.494,-1 1.185,-1.9 2.172,-2.4 3.062,-1.5 11.258,-0.6 14.912,4.5 3.258,4.4997 -6.913,2 -15.109,2.1 z"
           fill="#423232"
           id="path4061" />
        <path
           style="color:#000000;fill:#423232;stroke-linecap:round;stroke-linejoin:round;stroke-miterlimit:10;-inkscape-stroke:none"
           d="m 170.64453,108.11328 c -3.41922,0.20827 -6.03711,0.83985 -6.03711,0.83985 a 1.5,1.5 0 0 0 -1.10742,1.80859 1.5,1.5 0 0 0 1.80859,1.10742 c 0,0 2.36981,-0.56999 5.51758,-0.76172 3.14778,-0.19173 7.0066,0.0533 9.74805,1.44141 a 1.5,1.5 0 0 0 2.01562,-0.66016 1.5,1.5 0 0 0 -0.66015,-2.01562 c -3.57854,-1.81192 -7.86594,-1.96804 -11.28516,-1.75977 z"
           id="path4063" />
        <path
           style="color:#000000;fill:#423232;stroke-linecap:round;stroke-linejoin:round;stroke-miterlimit:10;-inkscape-stroke:none"
           d="m 214.05078,110.27734 c -1.68802,0.0501 -3.72692,0.30384 -6.17969,0.87305 a 1.5,1.5 0 0 0 -1.12109,1.79883 1.5,1.5 0 0 0 1.80078,1.12305 c 4.57445,-1.06159 7.35023,-0.88559 8.89844,-0.52539 0.7741,0.18009 1.24466,0.40486 1.5,0.55468 0.25534,0.14983 0.20312,0.12305 0.20312,0.12305 a 1.5,1.5 0 0 0 2.11914,0.0918 1.5,1.5 0 0 0 0.0918,-2.11914 c 0,0 -0.37231,-0.37717 -0.89453,-0.6836 -0.52222,-0.30642 -1.2872,-0.64377 -2.33984,-0.88867 -1.05265,-0.2449 -2.39011,-0.39778 -4.07813,-0.34766 z"
           id="path4065" />
        <path
           style="color:#000000;fill:#423232;stroke-linecap:round;stroke-linejoin:round;stroke-miterlimit:10;-inkscape-stroke:none"
           d="m 181.05859,154.15234 a 1.5,1.5 0 0 0 -2.00586,0.68946 1.5,1.5 0 0 0 0.6875,2.00586 c 4.81295,2.35299 10.46441,3.12786 14.71485,0.64843 a 1.5,1.5 0 0 0 0.54101,-2.05273 1.5,1.5 0 0 0 -2.05273,-0.53906 c -2.94955,1.72057 -7.69772,1.29504 -11.88477,-0.75196 z"
           id="path4067" />
        <path
           style="color:#000000;fill:#423232;stroke-linecap:round;stroke-linejoin:round;stroke-miterlimit:10;-inkscape-stroke:none"
           d="m 180.90039,150.5 a 1.5,1.5 0 0 0 -1.5,1.5 c 0,0 0.005,0.75694 -0.47461,1.79492 -0.47982,1.03798 -1.36469,2.23446 -3.44336,2.99805 a 1.5,1.5 0 0 0 -0.89062,1.92383 1.5,1.5 0 0 0 1.92578,0.89062 c 2.82133,-1.03641 4.38568,-2.94072 5.13086,-4.55273 C 182.39361,153.44267 182.40039,152 182.40039,152 a 1.5,1.5 0 0 0 -1.5,-1.5 z"
           id="path4069" />
        <path
           d="m 142.5,167.1 c 0,6.2 -2.589,12.4 -7.146,16.7 -4.558,4.4 -10.875,6.9 -17.297,6.9 -6.421,0 -12.843,-2.5 -17.296,-6.9 -4.5575,-4.4 -7.1467,-10.5 -7.1467,-16.7 0,-6.2 2.5892,-12.4 7.1467,-16.7 4.557,-4.4 10.875,-6.9 17.296,-6.9 6.422,0 12.843,2.5 17.297,6.9 4.557,4.4 7.25,10.5 7.146,16.7 z m -3.107,0 c 0.311,-5.4 -1.761,-11 -5.697,-15.2 -1.967,-2.1 -4.453,-3.7 -7.146,-4.9 -2.693,-1.1 -5.593,-1.7 -8.596,-1.7 -2.9,0 -5.904,0.6 -8.597,1.7 -2.693,1.2 -5.178,2.8 -7.146,4.9 -3.936,4.2 -6.0075,9.7 -5.6967,15.2 0.1035,0.7 0.3107,1.3 0.5178,2 0.3107,0.6 0.8286,1.2 1.3464,1.8 0.3108,0.3 0.6215,0.5 1.0358,0.7 0.4142,0.2 0.7247,0.4 1.1397,0.6 0.414,0.2 0.828,0.3 1.346,0.4 0.518,0.1 0.932,0.2 1.45,0.3 0.518,0.1 1.036,0.1 1.657,0.1 0.518,0 1.139,0 1.761,-0.1 0.621,-0.1 1.243,-0.2 1.864,-0.4 0.622,-0.2 1.243,-0.3 1.761,-0.6 0.621,-0.2 1.243,-0.5 1.864,-0.8 0.622,-0.3 1.243,-0.6 1.761,-1 1.139,-0.7 2.278,-1.6 3.211,-2.5 1.035,-0.9 1.864,-1.9 2.692,-3 0.415,-0.6 0.725,-1.1 1.14,-1.7 0.31,-0.6 0.621,-1.2 0.828,-1.7 0.207,-0.6 0.415,-1.1 0.622,-1.7 0.103,-0.3 0.207,-0.6 0.207,-0.9 l 0.207,-0.8 c 0.104,-0.6 0.207,-1.1 0.207,-1.6 0,-0.5 0,-1 0,-1.5 0,-0.5 -0.103,-1 -0.207,-1.4 -0.104,-0.5 -0.207,-0.8 -0.414,-1.2 -0.311,-0.9 -0.725,-1.5 -1.243,-2 -0.518,-0.6 -1.036,-1 -1.657,-1.2 -0.622,-0.3 -1.243,-0.4 -1.865,-0.4 -0.621,0 -1.242,0.1 -1.864,0.4 -0.621,0.2 -1.139,0.6 -1.657,1.2 -0.518,0.5 -0.932,1.2 -1.243,2 -0.207,0.4 -0.311,0.8 -0.414,1.2 -0.104,0.4 -0.207,0.9 -0.207,1.4 0,0.5 -0.104,1 0,1.5 0,0.5 0.103,1.1 0.207,1.6 l 0.207,0.8 c 0.104,0.3 0.207,0.6 0.207,0.9 0.207,0.6 0.414,1.1 0.622,1.7 0.207,0.5 0.517,1.1 0.828,1.7 0.311,0.6 0.725,1.1 1.139,1.7 0.725,1.1 1.658,2.1 2.693,3 0.932,0.9 2.072,1.7 3.211,2.5 0.518,0.3 1.139,0.7 1.761,1 0.621,0.3 1.243,0.6 1.864,0.8 0.621,0.2 1.139,0.4 1.761,0.6 0.621,0.2 1.243,0.3 1.864,0.4 0.621,0.1 1.139,0.1 1.761,0.1 0.621,0 1.139,0 1.657,-0.1 0.518,-0.1 1.036,-0.2 1.45,-0.3 0.518,-0.1 0.932,-0.3 1.346,-0.4 0.415,-0.2 0.829,-0.4 1.14,-0.6 0.414,-0.2 0.725,-0.5 1.035,-0.7 0.518,-0.5 1.036,-1.1 1.347,-1.8 0.725,-0.6 0.932,-1.3 0.932,-2 z"
           fill="url(#paint0_linear_421_1274)"
           id="path4071"
           style="fill:url(#paint0_linear_421_1274-3)" />
        <path
           d="m 118.057,146.5 c -0.828,0 -1.553,-0.7 -1.553,-1.5 v -3.2 c 0,-0.8 0.725,-1.5 1.553,-1.5 0.829,0 1.554,0.7 1.554,1.5 v 3.2 c 0,0.8 -0.725,1.5 -1.554,1.5 z"
           fill="url(#paint1_linear_421_1274)"
           id="path4073"
           style="fill:url(#paint1_linear_421_1274-7)" />
        <path
           d="m 238.614,167.1 c 0,6.2 -2.589,12.4 -7.146,16.7 -4.558,4.4 -10.875,7 -17.297,6.9 -1.968,0 -4.039,-0.2 -6.007,-0.7 0.311,-0.3 0.725,-0.6 1.036,-0.9 6.628,-5.5 10.771,-11.2 13.36,-17 0.208,0.1 0.518,0.1 0.725,0.2 0.622,0.2 1.243,0.3 1.865,0.4 0.621,0.1 1.139,0.1 1.76,0.1 0.622,0 1.14,0 1.658,-0.1 0.517,0 1.035,-0.2 1.45,-0.3 0.517,-0.1 0.932,-0.2 1.346,-0.4 0.414,-0.2 0.829,-0.4 1.139,-0.6 0.415,-0.2 0.725,-0.5 1.036,-0.7 0.518,-0.5 1.036,-1.1 1.346,-1.8 0.311,-0.6 0.518,-1.3 0.518,-2 0.311,-5.4 -1.76,-11 -5.696,-15.2 -0.829,-0.9 -1.864,-1.7 -2.9,-2.5 0,-0.8 0.103,-1.6 0.103,-2.5 1.554,1 3.108,2.1 4.35,3.4 4.765,4.7 7.458,10.8 7.354,17 z"
           fill="url(#paint2_linear_421_1274)"
           id="path4075"
           style="fill:url(#paint2_linear_421_1274-8)" />
      </g>
    </g>
  </g>
</svg>
