<?xml version="1.0" encoding="UTF-8" standalone="no"?>
<!-- Created with Inkscape (http://www.inkscape.org/) -->

<svg
   width="79.375mm"
   height="79.375mm"
   viewBox="0 0 79.375 79.375"
   version="1.1"
   id="svg5"
   sodipodi:docname="avatar-19.svg"
   inkscape:version="1.1.1 (3bf5ae0d25, 2021-09-20)"
   xmlns:inkscape="http://www.inkscape.org/namespaces/inkscape"
   xmlns:sodipodi="http://sodipodi.sourceforge.net/DTD/sodipodi-0.dtd"
   xmlns="http://www.w3.org/2000/svg"
   xmlns:svg="http://www.w3.org/2000/svg">
  <sodipodi:namedview
     id="namedview7"
     pagecolor="#ffffff"
     bordercolor="#999999"
     borderopacity="1"
     inkscape:pageshadow="0"
     inkscape:pageopacity="0"
     inkscape:pagecheckerboard="0"
     inkscape:document-units="mm"
     showgrid="false"
     inkscape:zoom="1.4467452"
     inkscape:cx="-106.79144"
     inkscape:cy="80.525581"
     inkscape:window-width="1920"
     inkscape:window-height="1001"
     inkscape:window-x="-9"
     inkscape:window-y="-9"
     inkscape:window-maximized="1"
     inkscape:current-layer="layer1" />
  <defs
     id="defs2">
    <clipPath
       id="clip0_421_1274">
      <rect
         width="300"
         height="300"
         fill="#ffffff"
         id="rect903"
         x="0"
         y="0" />
    </clipPath>
    <clipPath
       id="clip0_421_1274-3">
      <rect
         width="300"
         height="300"
         fill="#ffffff"
         id="rect1539"
         x="0"
         y="0" />
    </clipPath>
    <clipPath
       id="clip0_421_1274-35">
      <rect
         width="300"
         height="300"
         fill="#ffffff"
         id="rect1928"
         x="0"
         y="0" />
    </clipPath>
    <clipPath
       id="clip0_421_1274-8">
      <rect
         width="300"
         height="300"
         fill="#ffffff"
         id="rect2361"
         x="0"
         y="0" />
    </clipPath>
    <linearGradient
       id="paint0_linear_421_1274"
       x1="121.039"
       y1="222.77901"
       x2="121.039"
       y2="132.015"
       gradientUnits="userSpaceOnUse">
      <stop
         stop-color="#FF7300"
         id="stop2716" />
      <stop
         offset="0.1086"
         stop-color="#FF8D08"
         id="stop2718" />
      <stop
         offset="0.2899"
         stop-color="#FFB214"
         id="stop2720" />
      <stop
         offset="0.4716"
         stop-color="#FFCF1E"
         id="stop2722" />
      <stop
         offset="0.6514"
         stop-color="#FFE325"
         id="stop2724" />
      <stop
         offset="0.8286"
         stop-color="#FFF029"
         id="stop2726" />
      <stop
         offset="1"
         stop-color="#FFF42A"
         id="stop2728" />
    </linearGradient>
    <linearGradient
       id="paint1_linear_421_1274"
       x1="121.04"
       y1="129.14799"
       x2="121.04"
       y2="139.46899"
       gradientUnits="userSpaceOnUse">
      <stop
         stop-color="#FF7300"
         id="stop2731" />
      <stop
         offset="0.1086"
         stop-color="#FF8D08"
         id="stop2733" />
      <stop
         offset="0.2899"
         stop-color="#FFB214"
         id="stop2735" />
      <stop
         offset="0.4716"
         stop-color="#FFCF1E"
         id="stop2737" />
      <stop
         offset="0.6514"
         stop-color="#FFE325"
         id="stop2739" />
      <stop
         offset="0.8286"
         stop-color="#FFF029"
         id="stop2741" />
      <stop
         offset="1"
         stop-color="#FFF42A"
         id="stop2743" />
    </linearGradient>
    <linearGradient
       id="paint2_linear_421_1274"
       x1="226.423"
       y1="222.77901"
       x2="226.423"
       y2="132.015"
       gradientUnits="userSpaceOnUse">
      <stop
         stop-color="#FF7300"
         id="stop2746" />
      <stop
         offset="0.1086"
         stop-color="#FF8D08"
         id="stop2748" />
      <stop
         offset="0.2899"
         stop-color="#FFB214"
         id="stop2750" />
      <stop
         offset="0.4716"
         stop-color="#FFCF1E"
         id="stop2752" />
      <stop
         offset="0.6514"
         stop-color="#FFE325"
         id="stop2754" />
      <stop
         offset="0.8286"
         stop-color="#FFF029"
         id="stop2756" />
      <stop
         offset="1"
         stop-color="#FFF42A"
         id="stop2758" />
    </linearGradient>
    <clipPath
       id="clip0_421_1274-6">
      <rect
         width="300"
         height="300"
         fill="#ffffff"
         id="rect2761"
         x="0"
         y="0" />
    </clipPath>
    <clipPath
       id="clip0_421_1274-9">
      <rect
         width="300"
         height="300"
         fill="#ffffff"
         id="rect3154"
         x="0"
         y="0" />
    </clipPath>
    <clipPath
       id="clip0_421_1274-61">
      <rect
         width="300"
         height="300"
         fill="#ffffff"
         id="rect3560"
         x="0"
         y="0" />
    </clipPath>
    <linearGradient
       id="paint0_linear_421_1274-3"
       x1="118.039"
       y1="225.166"
       x2="118.039"
       y2="137.532"
       gradientUnits="userSpaceOnUse">
      <stop
         stop-color="#FF7300"
         id="stop4079" />
      <stop
         offset="0.1086"
         stop-color="#FF8D08"
         id="stop4081" />
      <stop
         offset="0.2899"
         stop-color="#FFB214"
         id="stop4083" />
      <stop
         offset="0.4716"
         stop-color="#FFCF1E"
         id="stop4085" />
      <stop
         offset="0.6514"
         stop-color="#FFE325"
         id="stop4087" />
      <stop
         offset="0.8286"
         stop-color="#FFF029"
         id="stop4089" />
      <stop
         offset="1"
         stop-color="#FFF42A"
         id="stop4091" />
    </linearGradient>
    <linearGradient
       id="paint1_linear_421_1274-7"
       x1="118.04"
       y1="134.76401"
       x2="118.04"
       y2="144.729"
       gradientUnits="userSpaceOnUse">
      <stop
         stop-color="#FF7300"
         id="stop4094" />
      <stop
         offset="0.1086"
         stop-color="#FF8D08"
         id="stop4096" />
      <stop
         offset="0.2899"
         stop-color="#FFB214"
         id="stop4098" />
      <stop
         offset="0.4716"
         stop-color="#FFCF1E"
         id="stop4100" />
      <stop
         offset="0.6514"
         stop-color="#FFE325"
         id="stop4102" />
      <stop
         offset="0.8286"
         stop-color="#FFF029"
         id="stop4104" />
      <stop
         offset="1"
         stop-color="#FFF42A"
         id="stop4106" />
    </linearGradient>
    <linearGradient
       id="paint2_linear_421_1274-8"
       x1="223.423"
       y1="225.166"
       x2="223.423"
       y2="137.532"
       gradientUnits="userSpaceOnUse">
      <stop
         stop-color="#FF7300"
         id="stop4109" />
      <stop
         offset="0.1086"
         stop-color="#FF8D08"
         id="stop4111" />
      <stop
         offset="0.2899"
         stop-color="#FFB214"
         id="stop4113" />
      <stop
         offset="0.4716"
         stop-color="#FFCF1E"
         id="stop4115" />
      <stop
         offset="0.6514"
         stop-color="#FFE325"
         id="stop4117" />
      <stop
         offset="0.8286"
         stop-color="#FFF029"
         id="stop4119" />
      <stop
         offset="1"
         stop-color="#FFF42A"
         id="stop4121" />
    </linearGradient>
    <clipPath
       id="clip0_421_1274-4">
      <rect
         width="300"
         height="300"
         fill="#ffffff"
         id="rect4124"
         x="0"
         y="0" />
    </clipPath>
    <clipPath
       id="clip0_421_1274-2">
      <rect
         width="300"
         height="300"
         fill="#ffffff"
         id="rect4458"
         x="0"
         y="0" />
    </clipPath>
    <clipPath
       id="clip0_421_1274-1">
      <rect
         width="300"
         height="300"
         fill="#ffffff"
         id="rect4979"
         x="0"
         y="0" />
    </clipPath>
    <clipPath
       id="clip0_421_1274-24">
      <rect
         width="300"
         height="300"
         fill="#ffffff"
         id="rect5434"
         x="0"
         y="0" />
    </clipPath>
    <clipPath
       id="clip0_421_1274-46">
      <rect
         width="300"
         height="300"
         fill="#ffffff"
         id="rect5850"
         x="0"
         y="0" />
    </clipPath>
    <clipPath
       id="clip0_421_1274-5">
      <rect
         width="300"
         height="300"
         fill="#ffffff"
         id="rect6329"
         x="0"
         y="0" />
    </clipPath>
    <clipPath
       id="clip0_421_1274-38">
      <rect
         width="300"
         height="300"
         fill="#ffffff"
         id="rect6804"
         x="0"
         y="0" />
    </clipPath>
    <clipPath
       id="clip0_421_1274-44">
      <rect
         width="300"
         height="300"
         fill="#ffffff"
         id="rect7152"
         x="0"
         y="0" />
    </clipPath>
    <clipPath
       id="clip0_421_1274-94">
      <rect
         width="300"
         height="300"
         fill="#ffffff"
         id="rect7595"
         x="0"
         y="0" />
    </clipPath>
    <clipPath
       id="clip0_421_1274-10">
      <rect
         width="300"
         height="300"
         fill="#ffffff"
         id="rect8065"
         x="0"
         y="0" />
    </clipPath>
    <clipPath
       id="clip0_421_1274-87">
      <rect
         width="300"
         height="300"
         fill="#ffffff"
         id="rect8554"
         x="0"
         y="0" />
    </clipPath>
    <clipPath
       id="clip0_421_1274-19">
      <rect
         width="300"
         height="300"
         fill="#ffffff"
         id="rect9033"
         x="0"
         y="0" />
    </clipPath>
    <clipPath
       id="clip0_421_1274-49">
      <rect
         width="300"
         height="300"
         fill="#ffffff"
         id="rect9515"
         x="0"
         y="0" />
    </clipPath>
  </defs>
  <g
     inkscape:label="Layer 1"
     inkscape:groupmode="layer"
     id="layer1"
     transform="translate(-239.3513,-68.722605)">
    <g
       style="fill:none"
       id="g9580"
       transform="matrix(0.26458333,0,0,0.26458333,239.3513,68.722605)">
      <g
         clip-path="url(#clip0_421_1274-49)"
         id="g9513">
        <path
           id="rect9408"
           style="fill:#f7c0b5;fill-opacity:0.968627"
           d="M 0,0 H 300 V 300 H 0 Z" />
        <path
           d="m 251.148,257.099 c -0.775,0.553 -1.66,1.107 -2.434,1.66 -0.885,0.553 -1.66,1.106 -2.545,1.549 -0.775,0.443 -1.439,0.885 -2.213,1.328 -0.111,0.11 -0.221,0.11 -0.332,0.221 -2.545,1.549 -5.2,2.987 -7.856,4.315 -0.774,0.443 -1.66,0.885 -2.434,1.217 0,0 -0.111,0.111 -0.221,0.111 -0.886,0.443 -1.771,0.885 -2.656,1.328 -1.77,0.885 -3.651,1.659 -5.422,2.434 -0.885,0.443 -1.881,0.774 -2.766,1.106 -0.885,0.332 -1.881,0.775 -2.766,1.107 -0.885,0.332 -1.881,0.774 -2.766,1.106 0,0 0,0 -0.111,0 -0.885,0.332 -1.881,0.664 -2.766,0.996 -1.992,0.664 -4.094,1.328 -6.086,1.992 -0.663,0.221 -1.438,0.442 -2.102,0.664 -2.102,0.664 -4.204,1.217 -6.307,1.659 -0.774,0.222 -1.549,0.332 -2.434,0.554 -1.992,0.442 -4.094,0.885 -6.085,1.327 -0.443,0.111 -0.775,0.111 -1.218,0.222 -0.663,0.11 -1.438,0.221 -2.102,0.332 -0.996,0.11 -1.881,0.332 -2.877,0.442 -0.442,0.111 -0.885,0.111 -1.327,0.222 -0.554,0.11 -1.218,0.221 -1.881,0.221 -1.771,0.221 -3.652,0.442 -5.422,0.664 -0.553,0.11 -1.217,0.11 -1.77,0.221 h -0.111 c -0.775,0.111 -1.549,0.111 -2.324,0.221 -0.774,0.111 -1.549,0.111 -2.323,0.111 -0.443,0 -0.996,0.111 -1.439,0.111 -0.885,0 -1.659,0.11 -2.434,0.11 -1.106,0 -2.102,0.111 -3.209,0.111 -1.106,0 -2.102,0 -3.208,0 -0.775,0 -1.55,0 -2.324,0 -46.582,-0.664 -88.6281,-20.47 -118.5027,-51.893 0,0 0,-0.111 -0.1106,-0.111 3.43,-6.75 16.1544,-18.921 29.432,-28.99 16.8183,-12.724 40.6073,-20.58 40.6073,-20.58 0,0 15.601,-2.545 73.469,9.516 44.149,9.294 62.958,47.025 69.376,64.396 z"
           fill="#f5d4b8"
           id="path9410" />
        <path
           d="m 194.054,223.352 c -2.324,11.397 -17.371,18.146 -42.71,7.966 -31.091,-12.613 -43.041,-48.131 -43.041,-48.131 -1.66,-25.449 -5.532,-47.246 -5.532,-47.246 35.96,-3.098 78.448,38.948 78.448,38.948 l 4.869,20.801 c 0.442,1.771 1.327,3.32 2.655,4.426 2.324,3.983 6.86,15.933 5.311,23.236 z"
           fill="#f5d4b8"
           id="path9412" />
        <path
           d="m 188.743,200.227 c -21.133,-1.107 -36.735,-4.205 -53.442,-34.19 14.163,12.503 30.87,17.261 48.463,19.474 l 2.324,10.179 c 0.442,1.881 1.327,3.43 2.655,4.537 z"
           fill="#efbda5"
           id="path9414" />
        <path
           d="m 232.449,66.8974 c 1.991,9.2944 2.987,16.8183 -2.435,41.6036 -5.421,24.784 4.979,49.569 -21.133,72.252 -17.593,15.269 -48.353,18.146 -72.916,1.438 -8.299,-5.643 -15.934,-13.499 -22.13,-23.789 C 108.967,150.325 103.324,142.69 97.0169,135.72 88.2758,126.204 77.7644,107.062 82.9648,73.2043 91.3739,18.1022 145.923,11.7954 178.121,17.8809 c 32.198,6.0856 48.906,24.453 54.328,49.0165 z"
           fill="#f5d4b8"
           id="path9416" />
        <path
           d="m 126.56,110.16 c 0,0 -3.43,-16.5967 -19.585,-14.6051 -13.9411,1.7704 -18.8096,35.1861 12.835,44.4801"
           fill="#f5d4b8"
           id="path9418" />
        <path
           style="color:#000000;fill:#423232;stroke-linecap:round;stroke-linejoin:round;stroke-miterlimit:10;-inkscape-stroke:none"
           d="m 110.88672,106.47656 c -0.79876,-0.0615 -1.54581,0.026 -2.22266,0.25 -1.3537,0.44791 -2.33004,1.3892 -2.98047,2.36914 -0.65042,0.97995 -1.01635,2.01625 -1.22656,2.90039 -0.1051,0.44208 -0.16984,0.84509 -0.20117,1.20313 -0.0313,0.35804 -0.0757,0.59147 0.0488,1.08789 a 1.5,1.5 0 0 0 1.81836,1.08984 1.5,1.5 0 0 0 1.09179,-1.82031 c 0.069,0.27517 0.0128,0.093 0.0293,-0.0957 0.0165,-0.18866 0.058,-0.46307 0.13086,-0.76953 0.14573,-0.61292 0.42177,-1.3547 0.80859,-1.9375 0.38683,-0.5828 0.84265,-0.98804 1.42188,-1.17969 0.57923,-0.19166 1.37958,-0.22332 2.65625,0.31055 a 1.50015,1.50015 0 0 0 0.01,0.004 c 0.73841,0.30186 1.17666,0.8189 1.49024,2.09571 0.31358,1.2768 0.34257,3.23267 0.0234,5.73242 a 1.50015,1.50015 0 0 0 -0.004,0.041 c -0.53623,5.3684 4.22656,8.38281 4.22656,8.38282 a 1.5,1.5 0 0 0 2.07032,-0.45704 1.5,1.5 0 0 0 -0.45508,-2.07226 c 0,0 -3.20519,-2.07505 -2.85742,-5.55664 0.33949,-2.68138 0.36852,-4.92077 -0.0898,-6.78711 -0.46068,-1.87573 -1.57151,-3.45864 -3.26562,-4.15235 -0.88024,-0.36719 -1.72715,-0.57737 -2.52344,-0.63867 z"
           id="path9420" />
        <path
           d="m 203.238,135.609 c 0,0 4.205,0.221 8.188,-4.536 2.213,-2.656 4.094,-5.975 2.877,-6.971 -1.217,-1.107 -21.244,1.991 -22.572,4.647 -1.328,2.655 6.417,6.86 11.507,6.86 z"
           fill="#efbda5"
           id="path9422" />
        <path
           style="color:#000000;fill:#423232;stroke-linecap:round;stroke-linejoin:round;stroke-miterlimit:10;-inkscape-stroke:none"
           d="m 206.52734,96.931641 a 1.5,1.5 0 0 0 -1.46875,1.53125 c 0,0 0.23478,10.904529 7.16993,22.957029 h -0.002 c 1.15429,2.0088 0.91411,4.81516 -0.82812,7.4043 -1.74224,2.58913 -4.94547,4.85893 -9.48242,5.52148 a 1.5,1.5 0 0 0 -1.26758,1.70117 1.5,1.5 0 0 0 1.70117,1.26758 c 5.31004,-0.77545 9.2961,-3.48409 11.53711,-6.81445 2.24101,-3.33036 2.77512,-7.38497 0.9414,-10.57617 -6.56283,-11.40548 -6.76953,-21.523439 -6.76953,-21.523439 a 1.5,1.5 0 0 0 -1.53125,-1.46875 z"
           id="path9424" />
        <path
           opacity="0.42"
           d="m 146.587,141.252 c 6.294,0 11.397,-4.211 11.397,-9.405 0,-5.194 -5.103,-9.405 -11.397,-9.405 -6.294,0 -11.397,4.211 -11.397,9.405 0,5.194 5.103,9.405 11.397,9.405 z"
           fill="#ed938a"
           id="path9426" />
        <path
           opacity="0.42"
           d="m 228.244,122.663 c -0.332,6.197 -0.221,12.282 -0.664,18.368 -4.868,-1.107 -8.409,-4.758 -8.409,-9.073 0,-4.647 3.873,-8.409 9.073,-9.295 z"
           fill="#ed938a"
           id="path9428" />
        <path
           d="m 241.906,42.3828 c -7.895,28.5784 -30.469,22.9072 -52.264,16.0128 -76.839,-24.3528 -63.607,50.0404 -64.607,48.7054 -2.447,-4.67 -7.673,-10.4526 -17.57,-9.2294 -12.8992,1.668 -18.1256,30.2464 6.005,42.0334 -0.556,5.115 -4.226,9.452 -8.451,12.566 C 93.6762,142.908 76.1066,124.448 69.5458,97.7604 67.0994,87.9748 68.1002,79.8572 69.101,73.5188 72.3258,53.8364 84.5578,49.722 84.5578,49.722 85.0026,28.9276 106.687,6.02037 143.16,6.79877 c 36.585,0.556 106.641,7.00563 98.746,35.58403 z"
           fill="#423232"
           id="path9430" />
        <path
           d="m 242.795,76.7436 c -1.112,7.228 -4.225,12.788 -8.562,16.9024 1.668,-12.1208 0.778,-17.9032 -0.667,-24.6864 -3.114,-13.9 -9.786,-25.9096 -20.906,-34.8056 5.56,-0.4448 11.231,0.7784 16.347,4.0032 0,0 7.339,5.1152 10.119,21.5728 0.889,4.7816 4.67,9.8968 3.669,17.0136 z"
           fill="#423232"
           id="path9432" />
        <path
           d="m 152.057,6.91002 c 0,0 42.256,-16.4576 57.156,-11.0088 12.344,4.559195 7.896,17.23598 7.896,17.23598 0,0 21.128,-5.33758 32.581,8.4512 11.454,13.7888 -1.779,31.692 -9.341,38.2528 0,0 11.899,3.1136 10.676,13.2328 -1.446,12.6768 -16.903,20.4608 -16.903,20.4608 0,0 5.338,-10.8976 4.559,-21.3504 -0.778,-10.4528 0.445,-17.9032 -7.228,-25.4648 C 223.781,39.0468 205.544,46.2748 185.861,36.4892 166.29,26.7036 152.057,6.91002 152.057,6.91002 Z"
           fill="#423232"
           id="path9434" />
        <path
           d="m 168.159,108.791 c -2.616,-0.109 -4.577,-2.289 -4.359,-4.904 l 0.109,-3.052 c 0.109,-2.6149 2.288,-4.5764 4.904,-4.3585 2.615,0.109 4.576,2.2885 4.359,4.9035 l -0.109,3.052 c -0.109,2.506 -2.289,4.468 -4.904,4.359 z"
           fill="#423232"
           id="path9436" />
        <path
           d="m 214.037,110.425 c -2.397,-0.109 -4.25,-2.179 -4.141,-4.577 l 0.109,-2.833 c 0.109,-2.397 2.18,-4.2501 4.577,-4.1411 2.397,0.109 4.25,2.1791 4.141,4.5771 l -0.109,2.833 c -0.109,2.398 -2.179,4.25 -4.577,4.141 z"
           fill="#423232"
           id="path9438" />
        <path
           style="color:#000000;fill:#423232;stroke-linecap:round;stroke-linejoin:round;stroke-miterlimit:10;-inkscape-stroke:none"
           d="m 167.76562,96.146484 c -1.12625,0.144306 -2.20634,0.435303 -3.18359,0.833985 -1.95449,0.797363 -3.64162,1.975898 -4.18555,3.878911 a 1.5,1.5 0 0 0 1.03125,1.85351 1.5,1.5 0 0 0 1.85352,-1.0293 c 0.11007,-0.38509 0.98454,-1.33382 2.43555,-1.925778 1.45101,-0.59196 3.33952,-0.876513 5.03515,-0.601562 a 1.50015,1.50015 0 0 0 0.01,0.002 c 4.19746,0.652901 6.74023,4.17383 6.74023,4.17383 a 1.5,1.5 0 0 0 2.08985,0.36524 1.5,1.5 0 0 0 0.36523,-2.08985 c 0,0 -3.12075,-4.535346 -8.72461,-5.412111 -0.001,-2.13e-4 -0.003,2.13e-4 -0.004,0 -1.16688,-0.18879 -2.33791,-0.192971 -3.4629,-0.04883 z"
           id="path9440" />
        <path
           style="color:#000000;fill:#423232;stroke-linecap:round;stroke-linejoin:round;stroke-miterlimit:10;-inkscape-stroke:none"
           d="m 215.89062,98.462891 c -2.85433,0 -4.70225,1.11246 -5.60546,2.369139 -0.90322,1.25668 -0.90821,2.61914 -0.90821,2.61914 a 1.5,1.5 0 0 0 1.5,1.5 1.5,1.5 0 0 0 1.5,-1.5 c 0,0 -0.006,-0.38212 0.34375,-0.86914 0.35004,-0.48702 1.01126,-1.11914 3.16992,-1.11914 3.21987,0 4.51954,2.93945 4.51954,2.93945 a 1.5,1.5 0 0 0 1.98632,0.74024 1.5,1.5 0 0 0 0.74219,-1.98828 c 0,0 -2.18592,-4.691409 -7.24805,-4.691409 z"
           id="path9442" />
        <path
           d="m 184.941,83.5085 c 2.397,-0.2179 3.596,-3.0513 2.288,-5.2307 -0.763,-1.0898 -1.743,-2.0706 -3.16,-2.6154 -4.141,-1.3077 -17.654,1.6346 -23.539,8.391 -5.23,6.2115 13.513,0.4359 24.411,-0.5449 z"
           fill="#423232"
           id="path9444" />
        <path
           d="m 213.71,85.2521 c -1.853,-0.5448 -2.398,-3.2692 -0.872,-5.0128 0.763,-0.8718 1.853,-1.6346 3.051,-1.8526 3.705,-0.6538 12.205,2.7244 14.603,9.1539 2.179,5.5577 -7.955,-0.109 -16.782,-2.2885 z"
           fill="#423232"
           id="path9446" />
        <path
           d="m 88.2588,183.645 c 0,0 16.1102,-6.4 19.0892,-6.621 l 0.221,2.538 c 0,0 -12.7999,5.517 -13.5723,6.4 -0.7724,0.883 -5.7379,-2.317 -5.7379,-2.317 z"
           fill="#7e5d6d"
           id="path9448" />
        <path
           d="M 287.1,326.872 H 8.14844 c 0,0 1.65517,-51.2 18.42756,-87.724 12.6897,-27.586 43.1448,-45.793 65.3242,-53.738 6.2896,-2.207 11.1448,-4.635 15.6688,-5.848 0,0.551 0.331,4.634 0.331,5.076 0,0 18.317,25.269 59.145,24.937 24.497,-0.11 17.655,-16 17.655,-16 2.097,-0.441 4.083,-0.993 6.069,-1.655 0.662,-0.22 5.297,-2.096 5.848,-2.317 14.235,3.752 31.669,14.345 56.938,35.531 28.469,23.945 33.545,101.738 33.545,101.738 z"
           fill="#000000"
           id="path9450" />
        <mask
           id="mask0_421_1274"
           maskUnits="userSpaceOnUse"
           x="8"
           y="179"
           width="280"
           height="148">
          <path
             d="M 287.1,326.872 H 8.14844 c 0,0 1.65517,-51.2 18.42756,-87.724 12.6897,-27.586 43.1448,-45.793 65.3242,-53.738 6.2896,-2.207 11.1448,-4.635 15.6688,-5.848 0,0.551 0.331,4.634 0.331,5.076 0,0 18.317,25.269 59.145,24.937 24.497,-0.11 17.655,-16 17.655,-16 2.097,-0.441 4.083,-0.993 6.069,-1.655 0.662,-0.22 5.297,-2.096 5.848,-2.317 14.235,3.752 31.669,14.345 56.938,35.531 28.469,23.945 33.545,101.738 33.545,101.738 z"
             fill="#e89d6b"
             id="path9452" />
        </mask>
        <g
           mask="url(#mask0_421_1274)"
           id="g9469">
          <path
             d="m 65.418,177.134 c 6.0689,0.221 9.1586,0.331 15.2276,0.221 5.4069,3.2 8.0551,4.745 13.5724,7.724 5.6276,-0.331 8.497,-0.552 14.124,-1.214 5.628,2.648 8.386,3.973 14.014,6.511 5.738,-0.883 8.607,-1.435 14.234,-2.538 5.738,2.206 8.718,3.2 14.456,5.075 5.738,-1.434 8.606,-2.317 14.344,-3.972 5.959,1.545 8.938,2.317 14.897,3.641 5.738,-2.096 8.607,-3.089 14.345,-5.406 6.069,0.993 9.158,1.434 15.227,2.206 5.628,-2.648 8.497,-3.972 14.125,-6.841 6.179,0.331 9.268,0.441 15.448,0.552 5.517,-3.311 8.276,-4.966 13.793,-8.386 6.952,-0.552 10.372,-0.883 17.324,-1.656 -0.552,2.649 -0.772,3.973 -1.214,6.621 -5.738,0.662 -8.717,0.993 -14.455,1.435 -5.628,3.531 -8.386,5.296 -14.124,8.606 -6.29,0 -9.379,-0.11 -15.669,-0.441 -5.738,2.869 -8.607,4.304 -14.345,6.952 -6.179,-0.773 -9.269,-1.214 -15.448,-2.097 -5.738,2.317 -8.717,3.421 -14.455,5.407 -6.069,-1.324 -9.049,-2.096 -15.007,-3.641 -5.738,1.655 -8.717,2.538 -14.455,3.972 -5.849,-1.986 -8.828,-2.979 -14.676,-5.186 -5.738,1.103 -8.607,1.655 -14.455,2.538 -5.738,-2.538 -8.497,-3.752 -14.235,-6.51 -5.738,0.551 -8.6068,0.772 -14.2344,1.103 -5.5172,-2.979 -8.2759,-4.524 -13.6828,-7.835 -5.0758,0 -7.6138,0.001 -12.6896,-0.22 -0.7724,-2.538 -1.1035,-3.862 -1.9862,-6.621 z"
             fill="#787878"
             id="path9455" />
          <path
             d="m 63.873,205.162 c 6.069,0.11 9.0483,0.11 15.2276,-0.111 5.5173,3.09 8.2759,4.525 13.7931,7.393 5.6276,-0.441 8.3863,-0.772 14.0143,-1.544 5.627,2.538 8.496,3.751 14.234,6.069 5.628,-0.993 8.386,-1.656 14.124,-2.869 5.848,1.986 8.828,2.979 14.676,4.744 5.628,-1.655 8.497,-2.427 14.124,-4.303 5.959,1.435 9.048,2.097 15.007,3.31 5.628,-2.207 8.386,-3.31 14.014,-5.738 6.179,0.883 9.158,1.214 15.338,1.766 5.517,-2.759 8.276,-4.193 13.793,-7.172 6.179,0.22 9.379,0.22 15.559,0.11 5.406,-3.31 8.055,-5.076 13.462,-8.607 6.951,-0.662 10.482,-0.993 17.434,-1.986 -0.441,2.648 -0.552,3.972 -0.993,6.51 -5.848,0.773 -8.717,1.104 -14.455,1.655 -5.517,3.642 -8.166,5.407 -13.683,8.828 -6.29,0.11 -9.49,0.11 -15.779,-0.11 -5.628,2.979 -8.386,4.413 -14.014,7.282 -6.179,-0.551 -9.379,-0.882 -15.559,-1.765 -5.627,2.427 -8.496,3.531 -14.234,5.738 -6.069,-1.214 -9.159,-1.876 -15.228,-3.311 -5.738,1.876 -8.496,2.649 -14.234,4.304 -5.959,-1.766 -8.938,-2.759 -14.786,-4.745 -5.738,1.214 -8.497,1.876 -14.235,2.869 -5.738,-2.317 -8.717,-3.531 -14.455,-6.179 -5.628,0.662 -8.4967,0.993 -14.1243,1.544 -5.6275,-2.868 -8.3862,-4.413 -13.9034,-7.503 -5.0759,0.11 -7.6138,0.221 -12.5793,0.11 -1.1035,-2.427 -1.5448,-3.751 -2.538,-6.289 z"
             fill="#787878"
             id="path9457" />
          <path
             d="m 62.3281,232.748 c 5.9586,-0.11 9.0483,-0.221 15.1173,-0.441 5.5172,2.979 8.3862,4.413 14.0138,7.062 5.5172,-0.662 8.2758,-0.994 13.7928,-1.876 5.738,2.427 8.607,3.531 14.455,5.738 5.518,-1.214 8.276,-1.766 13.904,-3.2 5.958,1.876 8.938,2.758 14.896,4.413 5.518,-1.765 8.276,-2.648 13.794,-4.524 6.068,1.324 9.158,1.876 15.227,2.98 5.517,-2.318 8.276,-3.421 13.683,-5.959 6.179,0.662 9.269,0.993 15.448,1.434 5.407,-2.868 8.166,-4.303 13.462,-7.393 6.29,0 9.38,0 15.669,-0.22 5.297,-3.421 7.945,-5.187 13.131,-8.718 6.952,-0.772 10.483,-1.213 17.435,-2.317 -0.331,2.538 -0.442,3.862 -0.662,6.511 -5.849,0.882 -8.718,1.324 -14.566,1.986 -5.296,3.641 -8.055,5.517 -13.352,8.938 -6.4,0.22 -9.6,0.331 -15.889,0.22 -5.517,3.09 -8.166,4.525 -13.683,7.504 -6.29,-0.442 -9.379,-0.662 -15.669,-1.435 -5.517,2.538 -8.276,3.752 -13.903,6.069 -6.18,-0.993 -9.269,-1.655 -15.338,-2.979 -5.628,1.986 -8.387,2.869 -14.014,4.634 -6.069,-1.655 -9.048,-2.537 -15.007,-4.413 -5.628,1.434 -8.386,2.096 -14.014,3.2 -5.848,-2.207 -8.827,-3.421 -14.565,-5.849 -5.628,0.883 -8.3866,1.214 -14.0142,1.876 -5.7379,-2.758 -8.4965,-4.193 -14.1241,-7.172 -4.9655,0.221 -7.5034,0.331 -12.469,0.441 -1.1034,-2.538 -1.6551,-3.862 -2.7586,-6.51 z"
             fill="#787878"
             id="path9459" />
          <path
             d="m 60.6729,260.224 c 5.9586,-0.221 8.9379,-0.442 14.8965,-0.883 5.6276,2.869 8.4965,4.193 14.2345,6.731 5.4069,-0.772 8.1655,-1.214 13.6831,-2.207 5.848,2.317 8.827,3.421 14.675,5.407 5.407,-1.324 8.166,-1.986 13.683,-3.531 5.959,1.766 9.049,2.538 15.007,3.972 5.407,-1.875 8.166,-2.869 13.573,-4.855 6.179,1.104 9.158,1.655 15.337,2.538 5.407,-2.427 8.056,-3.641 13.463,-6.179 6.289,0.552 9.379,0.772 15.669,1.103 5.296,-2.869 7.944,-4.413 13.241,-7.503 6.29,-0.11 9.49,-0.221 15.779,-0.552 5.186,-3.421 7.724,-5.186 12.8,-8.827 7.062,-0.883 10.593,-1.435 17.545,-2.649 -0.221,2.538 -0.221,3.862 -0.441,6.4 -5.849,0.993 -8.718,1.435 -14.566,2.207 -5.186,3.752 -7.834,5.517 -13.021,9.048 -6.4,0.332 -9.6,0.442 -16,0.552 -5.296,3.2 -8.055,4.745 -13.351,7.614 -6.29,-0.331 -9.49,-0.441 -15.78,-0.993 -5.406,2.648 -8.165,3.862 -13.572,6.29 -6.29,-0.883 -9.379,-1.435 -15.559,-2.538 -5.517,2.096 -8.275,3.089 -13.793,4.965 -6.069,-1.434 -9.158,-2.317 -15.227,-3.972 -5.518,1.545 -8.276,2.207 -13.793,3.531 -5.959,-2.097 -8.938,-3.09 -14.897,-5.407 -5.5172,0.993 -8.2758,1.434 -13.793,2.207 -5.8483,-2.648 -8.7173,-3.973 -14.3449,-6.842 -4.9655,0.442 -7.3931,0.552 -12.3586,0.773 -1.2138,-2.538 -1.8759,-3.862 -3.0896,-6.4 z"
             fill="#787878"
             id="path9461" />
          <path
             d="m 59.1279,287.369 c 5.8483,-0.442 8.8276,-0.662 14.7862,-1.325 5.738,2.649 8.6069,3.973 14.4552,6.401 5.4069,-0.883 8.0552,-1.435 13.4617,-2.538 5.959,2.096 8.938,3.2 14.897,5.075 5.407,-1.434 8.055,-2.206 13.352,-3.862 6.069,1.545 9.158,2.318 15.227,3.642 5.297,-1.986 7.945,-2.98 13.352,-5.186 6.179,0.993 9.269,1.434 15.559,2.206 5.296,-2.537 7.834,-3.751 13.131,-6.4 6.289,0.442 9.489,0.552 15.779,0.773 5.186,-2.979 7.724,-4.524 12.91,-7.724 6.4,-0.221 9.49,-0.331 15.89,-0.773 4.965,-3.531 7.503,-5.296 12.469,-8.938 7.062,-0.993 10.593,-1.544 17.655,-2.869 -0.11,2.538 -0.11,3.752 -0.221,6.29 -5.848,1.104 -8.717,1.545 -14.565,2.428 -5.076,3.751 -7.614,5.627 -12.69,9.158 -6.4,0.552 -9.71,0.662 -16.11,0.883 -5.186,3.2 -7.835,4.855 -13.021,7.835 -6.4,-0.111 -9.6,-0.221 -16,-0.663 -5.296,2.759 -7.945,3.973 -13.241,6.511 -6.29,-0.773 -9.49,-1.214 -15.78,-2.207 -5.406,2.207 -8.055,3.2 -13.462,5.186 -6.179,-1.324 -9.269,-2.096 -15.448,-3.641 -5.407,1.655 -8.165,2.427 -13.572,3.862 -6.069,-1.876 -9.049,-2.869 -15.118,-5.076 -5.4064,1.103 -8.165,1.655 -13.5719,2.538 -5.8483,-2.428 -8.8276,-3.752 -14.6759,-6.4 -4.8552,0.552 -7.2828,0.772 -12.1379,1.103 -1.3242,-2.427 -1.9862,-3.751 -3.3104,-6.289 z"
             fill="#787878"
             id="path9463" />
          <path
             d="m 57.4727,314.293 c 5.8482,-0.552 8.7172,-0.883 14.5655,-1.655 5.8482,2.538 8.8276,3.751 14.6758,6.069 5.2966,-1.104 7.9449,-1.656 13.2414,-2.869 6.0686,1.986 9.0486,2.979 15.1176,4.744 5.296,-1.544 7.834,-2.427 13.131,-4.193 6.179,1.435 9.269,2.097 15.448,3.311 5.186,-2.097 7.834,-3.2 13.021,-5.407 6.289,0.883 9.379,1.214 15.669,1.876 5.186,-2.538 7.724,-3.862 12.8,-6.621 6.4,0.331 9.489,0.331 15.889,0.441 5.076,-3.089 7.504,-4.634 12.58,-7.834 6.4,-0.331 9.6,-0.552 16,-1.104 4.855,-3.531 7.282,-5.406 12.138,-9.048 7.062,-1.103 10.703,-1.655 17.765,-3.09 0,2.428 0,3.752 0.11,6.18 -5.848,1.103 -8.717,1.655 -14.565,2.538 -4.966,3.751 -7.393,5.627 -12.359,9.269 -6.51,0.662 -9.71,0.882 -16.22,1.213 -5.076,3.311 -7.614,4.856 -12.69,8.056 -6.4,0 -9.71,-0.111 -16.11,-0.331 -5.187,2.758 -7.725,4.193 -13.021,6.731 -6.4,-0.552 -9.6,-0.993 -15.89,-1.766 -5.296,2.317 -7.945,3.421 -13.131,5.517 -6.289,-1.213 -9.379,-1.876 -15.669,-3.31 -5.296,1.766 -7.945,2.648 -13.241,4.193 -6.179,-1.765 -9.159,-2.648 -15.338,-4.634 -5.2966,1.324 -8.0553,1.875 -13.3518,2.979 -5.9586,-2.317 -8.938,-3.531 -14.8966,-6.069 -4.8552,0.662 -7.1724,0.993 -12.0276,1.434 -1.4344,-2.758 -2.2069,-4.082 -3.6413,-6.62 z"
             fill="#787878"
             id="path9465" />
          <path
             d="m 103.376,194.9 c 0,0 5.959,21.958 51.972,27.475 46.125,5.407 46.566,-23.613 36.414,-39.944 -10.152,-16.331 -80.22,-12.359 -87.724,-4.525 -7.5034,7.835 -0.662,16.994 -0.662,16.994 z"
             fill="#ffffff"
             id="path9467" />
        </g>
        <path
           style="color:#000000;fill:#544d4d;stroke-linecap:round;stroke-linejoin:round;stroke-miterlimit:10;-inkscape-stroke:none"
           d="m 57.623047,284.44531 a 1.5,1.5 0 0 0 -1.308594,1.66992 l 4.964844,40.9375 a 1.5,1.5 0 0 0 1.669922,1.3086 1.5,1.5 0 0 0 1.308593,-1.66992 l -4.964843,-40.9375 a 1.5,1.5 0 0 0 -1.669922,-1.3086 z"
           id="path9471" />
        <path
           style="color:#000000;fill:#544d4d;stroke-linecap:round;stroke-linejoin:round;stroke-miterlimit:10;-inkscape-stroke:none"
           d="m 256.00195,270.64453 a 1.5,1.5 0 0 0 -1.95898,0.81641 c 0,0 -3.47537,8.28591 -2.41797,16.86328 1.01415,8.22654 3.82668,19.62984 -0.19727,38.23047 a 1.5,1.5 0 0 0 1.14844,1.7832 1.5,1.5 0 0 0 1.7832,-1.14844 c 4.14006,-19.13734 1.21404,-31.34898 0.24219,-39.23242 -0.9286,-7.53262 2.2168,-15.35547 2.2168,-15.35547 a 1.5,1.5 0 0 0 -0.81641,-1.95703 z"
           id="path9473" />
        <path
           d="m 88.2586,183.645 c 2.0966,-0.663 5.7379,0 6.8414,1.875 4.3034,7.062 14.676,27.697 18.979,68.635 3.421,32 -1.765,89.6 -1.765,89.6 L 5.2793,338.679 c 0,0 3.2,-54.4 12.5793,-90.924 9.1586,-35.421 33.2138,-51.31 70.4,-64.11 z"
           fill="#232750"
           id="path9475" />
        <path
           d="m 199.266,190.376 c 0,0 34.096,64.11 24.165,149.737 h 73.71 c 0,0 -0.441,-58.151 -16.993,-95.006 -16.551,-36.856 -74.482,-57.49 -74.482,-57.49 0,0 -3.642,1.765 -6.4,2.759 z"
           fill="#232750"
           id="path9477" />
        <path
           d="m 199.265,190.376 -2.648,-0.773 c 0,0 3.862,-1.876 5.517,-2.979 l 0.994,-0.552 c 0,0 5.296,2.428 7.172,3.311 1.876,0.882 -6.51,4.965 -6.51,4.965 0,0 -4.193,-3.862 -4.525,-3.972 z"
           fill="#7e5d6d"
           id="path9479" />
        <path
           d="m 112.866,243.893 c 0,0 -3.752,-10.704 -12.249,-20.193 -7.8342,-8.828 -22.179,-22.511 -23.1721,-25.6 -1.8759,-6.29 9.8206,-30.014 28.1381,-38.29 0,0.11 0,0.221 0,0.331 0,0.11 0,0.221 0,0.441 0,0.221 0,0.442 0.11,0.663 0,0.331 0.11,0.662 0.11,0.993 0,0.22 0,0.331 0.111,0.551 0.772,6.621 1.434,14.014 1.986,21.849 v 0.11 c 0,0 -5.076,1.655 -1.434,26.924 0.993,6.069 4.744,16.883 6.4,32.221 z"
           fill="#4b3c4f"
           id="path9481" />
        <path
           d="m 218.576,247.313 c 0,0 -7.393,-28.689 -11.035,-37.848 -3.641,-9.048 -10.482,-19.31 -10.813,-19.862 4.303,-1.986 8.165,-4.524 11.586,-7.503 3.42,-2.98 6.179,-5.959 8.496,-8.938 2.759,3.089 19.2,21.627 20.966,31.779 1.986,11.255 -12.359,16.11 -19.2,42.372 z"
           fill="#4b3c4f"
           id="path9483" />
        <path
           d="m 196.997,154.218 c 0.1,3.3 -4.8,11.7 -14.3,7.8 -9.1,-3.7 -11.8,-21.1 1.2,-12.8 6.8,4.3 10.9,5 13.1,5 z"
           fill="#ffffff"
           id="path9485" />
        <path
           style="color:#000000;fill:#423232;stroke-linecap:round;stroke-linejoin:round;stroke-miterlimit:10;-inkscape-stroke:none"
           d="m 178.19922,145.48242 c -0.60811,0.005 -1.18195,0.10567 -1.72656,0.30469 -1.08924,0.39803 -1.92748,1.24869 -2.38282,2.22266 -0.45534,0.97396 -0.59296,2.05704 -0.54101,3.17773 0.20779,4.48232 3.31917,10.07999 8.58203,12.2207 5.18607,2.12732 9.53599,0.85121 12.28711,-1.48437 1.37594,-1.16812 2.38653,-2.56391 3.06445,-3.91797 0.42823,-0.85533 0.67937,-1.66784 0.83789,-2.46289 0.008,-0.001 0.0255,0.001 0.0332,0 0.71986,-0.13797 1.26367,-0.41016 1.26367,-0.41016 a 1.5,1.5 0 0 0 0.5957,-2.03515 1.5,1.5 0 0 0 -2.03711,-0.59571 c 0,0 0.0184,0.0161 -0.38672,0.0937 -0.40514,0.0777 -1.10697,0.14616 -2.16406,0.0195 -2.11418,-0.25326 -5.65799,-1.30032 -10.91992,-4.66211 l 0.004,0.004 c -2.5547,-1.64372 -4.68543,-2.4901 -6.50976,-2.47461 z m -0.69727,3.12305 c 0.67778,-0.24768 2.54026,-0.0853 5.58399,1.87305 a 1.50015,1.50015 0 0 0 0.004,0.004 c 5.45633,3.48599 9.34809,4.72986 12.03125,5.07422 -0.1131,0.40104 -0.087,0.63754 -0.32226,1.10742 -0.50958,1.01781 -1.29821,2.10328 -2.32227,2.97266 -2.04811,1.73876 -4.89697,2.76434 -9.20898,0.99414 a 1.50015,1.50015 0 0 0 -0.006,-0.002 c -3.83618,-1.55977 -6.57461,-6.51286 -6.7168,-9.58008 -0.0356,-0.76681 0.0839,-1.38491 0.26367,-1.76953 0.17982,-0.38463 0.35447,-0.54999 0.69336,-0.67383 z"
           id="path9487" />
        <path
           style="color:#000000;fill:#423232;stroke-linecap:round;stroke-linejoin:round;stroke-miterlimit:10;-inkscape-stroke:none"
           d="m 174.79687,150.24805 a 1.5,1.5 0 0 0 -0.95117,0.64257 1.5,1.5 0 0 0 0.42383,2.07813 c 0,0 1.73922,1.15301 3.75391,2.26367 1.00734,0.55533 2.08298,1.10324 3.09961,1.50781 1.01663,0.40458 1.87771,0.78696 3.06836,0.54883 l -0.082,0.0137 c 0.19502,-0.0279 0.0891,-0.0514 0.36719,0.10547 0.27814,0.15685 0.80433,0.54367 1.59571,0.96094 1.58275,0.83454 4.17522,1.69283 9.07812,1.84766 a 1.5,1.5 0 0 0 1.54492,-1.45118 1.5,1.5 0 0 0 -1.45117,-1.54687 c -4.59709,-0.14517 -6.6062,-0.8865 -7.77344,-1.50195 -0.58362,-0.30773 -0.96837,-0.60997 -1.52148,-0.92188 -0.55312,-0.31191 -1.40869,-0.58308 -2.26367,-0.46094 a 1.50015,1.50015 0 0 0 -0.082,0.0137 c 0.19064,-0.0381 -0.55023,-0.0679 -1.3711,-0.39454 -0.82087,-0.32667 -1.81906,-0.82994 -2.76172,-1.3496 -1.88531,-1.03934 -3.54687,-2.13672 -3.54687,-2.13672 a 1.5,1.5 0 0 0 -1.12696,-0.21875 z"
           id="path9489" />
        <path
           opacity="0.6"
           d="m 213.172,118.903 c 0,0 1.243,7.043 9.425,10.564 2.071,0.829 4.246,-0.518 4.246,-2.796 -0.103,0 -13.153,-6.939 -13.671,-7.768 z"
           fill="#b7aea9"
           id="path9491" />
        <path
           opacity="0.6"
           d="m 193.493,101.917 c 0,0 6.629,-6.6282 9.943,-7.3532 l -8.804,2.0714 z"
           fill="#b7aea9"
           id="path9493" />
        <path
           opacity="0.6"
           d="m 149.268,118.903 c 0,0 3.832,8.7 15.328,10.772 11.497,2.175 21.957,-6.111 26.825,-19.99 0,0 -3.936,12.843 -19.678,15.225 -15.64,2.59 -22.475,-6.007 -22.475,-6.007 z"
           fill="#b7aea9"
           id="path9495" />
        <path
           opacity="0.29"
           d="m 167.807,72.3996 c -14.603,0 -26.514,12.2214 -26.618,27.1357 0,7.0427 2.59,13.4647 6.836,18.1247 l 37.597,-38.0104 c -4.661,-4.5572 -10.875,-7.25 -17.815,-7.25 z"
           fill="#dbc3ed"
           id="path9497" />
        <path
           opacity="0.23"
           d="M 185.622,79.6496 148.025,117.66 c 4.765,5.282 11.497,8.493 18.954,8.493 14.396,0 26.204,-11.911 26.618,-26.7213 0.207,-7.7678 -2.9,-14.8107 -7.975,-19.7821 z"
           fill="#c4add8"
           id="path9499" />
        <path
           opacity="0.29"
           d="m 228.396,72.3996 c -11.082,0 -20.403,12.2214 -20.817,27.1357 -0.208,6.0067 1.139,11.4967 3.417,15.9497 l 32.833,-32.5211 c -3.418,-6.4215 -9.011,-10.5643 -15.433,-10.5643 z"
           fill="#dbc3ed"
           id="path9501" />
        <path
           opacity="0.23"
           d="m 243.828,82.8601 -32.832,32.5219 c 3.418,6.525 9.011,10.771 15.536,10.771 10.875,0 20.196,-11.911 20.818,-26.7214 0.207,-6.1107 -1.14,-11.9107 -3.522,-16.5715 z"
           fill="#c4add8"
           id="path9503" />
        <path
           style="color:#000000;fill:#4ec2dd;stroke-linecap:round;stroke-linejoin:round;stroke-miterlimit:10;-inkscape-stroke:none"
           d="m 167.70312,70.900391 c -15.44083,0 -28.00765,12.917925 -28.11718,28.625 a 1.50015,1.50015 0 0 0 0,0.0098 c 0,15.586879 12.16827,28.222659 27.39258,28.222659 15.22207,0 27.78762,-12.59183 28.11718,-28.187503 0.43308,-15.718153 -11.95464,-28.669921 -27.39258,-28.669921 z m 0,3 c 13.76608,0 24.78615,11.486028 24.39454,25.59375 a 1.50015,1.50015 0 0 0 0,0.0098 c -0.29448,14.023879 -11.55054,25.253909 -25.11914,25.253909 -13.56646,0 -24.38746,-11.18306 -24.39258,-25.212893 v -0.0039 c 0,-0.002 0,-0.0039 0,-0.0059 0.10367,-14.116972 11.35328,-25.634765 25.11718,-25.634766 z"
           id="path9505" />
        <path
           style="color:#000000;fill:#4ec2dd;stroke-linecap:round;stroke-linejoin:round;stroke-miterlimit:10;-inkscape-stroke:none"
           d="m 228.39648,70.900391 c -6.0924,0 -11.61701,3.361989 -15.59961,8.5625 -3.98259,5.20051 -6.50144,12.27331 -6.71679,20.03125 -0.21532,7.702949 1.87135,14.689269 5.51953,19.824219 3.64818,5.13495 8.94847,8.43945 14.93359,8.43945 5.98513,0 11.45245,-3.27899 15.43555,-8.38476 3.9831,-5.10578 6.55791,-12.07302 6.88086,-19.775394 0.32355,-7.75817 -1.71053,-14.852445 -5.35742,-20.082031 -3.6469,-5.229586 -9.0033,-8.615234 -15.09571,-8.615234 z m 0,3 c 4.98959,0 9.42017,2.722351 12.63477,7.332031 3.2146,4.609679 5.11876,11.08412 4.82031,18.240234 -0.29804,7.108314 -2.69665,13.502294 -6.24804,18.054684 -3.5514,4.55239 -8.18045,7.23047 -13.07032,7.23047 -4.88986,0 -9.27471,-2.65256 -12.48828,-7.17578 -3.21356,-4.52322 -5.16548,-10.89617 -4.9668,-18.003905 a 1.50015,1.50015 0 0 0 0,-0.002 c 0.19866,-7.156345 2.54722,-13.650308 6.09961,-18.289063 3.5524,-4.638754 8.22917,-7.386718 13.21875,-7.386718 z"
           id="path9507" />
        <path
           style="color:#000000;fill:#4ec2dd;stroke-linecap:round;stroke-linejoin:round;stroke-miterlimit:10;-inkscape-stroke:none"
           d="m 126.68945,95.134766 a 1.5,1.5 0 0 0 -1.5,1.5 1.5,1.5 0 0 0 1.5,1.5 h 14.70703 a 1.5,1.5 0 0 0 1.5,-1.5 1.5,1.5 0 0 0 -1.5,-1.5 z"
           id="path9509" />
        <path
           style="color:#000000;fill:#4ec2dd;stroke-linecap:round;stroke-linejoin:round;stroke-miterlimit:10;-inkscape-stroke:none"
           d="m 202.41406,93.039062 c -0.87682,0.05165 -1.76027,0.176763 -2.625,0.333985 -3.45892,0.628887 -6.63086,1.863281 -6.63086,1.863281 a 1.5,1.5 0 0 0 -0.85742,1.939453 1.5,1.5 0 0 0 1.93945,0.859375 c 0,0 2.99192,-1.14875 6.08399,-1.710937 1.54603,-0.281094 3.11149,-0.39396 4.18945,-0.21875 1.07797,0.17521 1.4543,0.428867 1.63867,0.99414 a 1.5,1.5 0 0 0 1.89258,0.960938 1.5,1.5 0 0 0 0.96094,-1.890625 c -0.59262,-1.816874 -2.33974,-2.753948 -4.00977,-3.025391 -0.83501,-0.135721 -1.70521,-0.157116 -2.58203,-0.105469 z"
           id="path9511" />
      </g>
    </g>
  </g>
</svg>
