<?xml version="1.0" encoding="UTF-8" standalone="no"?>
<!-- Created with Inkscape (http://www.inkscape.org/) -->

<svg
   width="79.375mm"
   height="79.375mm"
   viewBox="0 0 79.375 79.375"
   version="1.1"
   id="svg5"
   sodipodi:docname="avatar-26.svg"
   inkscape:version="1.1.1 (3bf5ae0d25, 2021-09-20)"
   xmlns:inkscape="http://www.inkscape.org/namespaces/inkscape"
   xmlns:sodipodi="http://sodipodi.sourceforge.net/DTD/sodipodi-0.dtd"
   xmlns="http://www.w3.org/2000/svg"
   xmlns:svg="http://www.w3.org/2000/svg">
  <sodipodi:namedview
     id="namedview7"
     pagecolor="#ffffff"
     bordercolor="#999999"
     borderopacity="1"
     inkscape:pageshadow="0"
     inkscape:pageopacity="0"
     inkscape:pagecheckerboard="0"
     inkscape:document-units="mm"
     showgrid="false"
     inkscape:zoom="1.4467452"
     inkscape:cx="-63.93662"
     inkscape:cy="97.114542"
     inkscape:window-width="1920"
     inkscape:window-height="1001"
     inkscape:window-x="-9"
     inkscape:window-y="-9"
     inkscape:window-maximized="1"
     inkscape:current-layer="layer1" />
  <defs
     id="defs2">
    <clipPath
       id="clip0_421_1274">
      <rect
         width="300"
         height="300"
         fill="#ffffff"
         id="rect903"
         x="0"
         y="0" />
    </clipPath>
    <clipPath
       id="clip0_421_1274-3">
      <rect
         width="300"
         height="300"
         fill="#ffffff"
         id="rect1539"
         x="0"
         y="0" />
    </clipPath>
    <clipPath
       id="clip0_421_1274-35">
      <rect
         width="300"
         height="300"
         fill="#ffffff"
         id="rect1928"
         x="0"
         y="0" />
    </clipPath>
    <clipPath
       id="clip0_421_1274-8">
      <rect
         width="300"
         height="300"
         fill="#ffffff"
         id="rect2361"
         x="0"
         y="0" />
    </clipPath>
    <linearGradient
       id="paint0_linear_421_1274"
       x1="121.039"
       y1="222.77901"
       x2="121.039"
       y2="132.015"
       gradientUnits="userSpaceOnUse">
      <stop
         stop-color="#FF7300"
         id="stop2716" />
      <stop
         offset="0.1086"
         stop-color="#FF8D08"
         id="stop2718" />
      <stop
         offset="0.2899"
         stop-color="#FFB214"
         id="stop2720" />
      <stop
         offset="0.4716"
         stop-color="#FFCF1E"
         id="stop2722" />
      <stop
         offset="0.6514"
         stop-color="#FFE325"
         id="stop2724" />
      <stop
         offset="0.8286"
         stop-color="#FFF029"
         id="stop2726" />
      <stop
         offset="1"
         stop-color="#FFF42A"
         id="stop2728" />
    </linearGradient>
    <linearGradient
       id="paint1_linear_421_1274"
       x1="121.04"
       y1="129.14799"
       x2="121.04"
       y2="139.46899"
       gradientUnits="userSpaceOnUse">
      <stop
         stop-color="#FF7300"
         id="stop2731" />
      <stop
         offset="0.1086"
         stop-color="#FF8D08"
         id="stop2733" />
      <stop
         offset="0.2899"
         stop-color="#FFB214"
         id="stop2735" />
      <stop
         offset="0.4716"
         stop-color="#FFCF1E"
         id="stop2737" />
      <stop
         offset="0.6514"
         stop-color="#FFE325"
         id="stop2739" />
      <stop
         offset="0.8286"
         stop-color="#FFF029"
         id="stop2741" />
      <stop
         offset="1"
         stop-color="#FFF42A"
         id="stop2743" />
    </linearGradient>
    <linearGradient
       id="paint2_linear_421_1274"
       x1="226.423"
       y1="222.77901"
       x2="226.423"
       y2="132.015"
       gradientUnits="userSpaceOnUse">
      <stop
         stop-color="#FF7300"
         id="stop2746" />
      <stop
         offset="0.1086"
         stop-color="#FF8D08"
         id="stop2748" />
      <stop
         offset="0.2899"
         stop-color="#FFB214"
         id="stop2750" />
      <stop
         offset="0.4716"
         stop-color="#FFCF1E"
         id="stop2752" />
      <stop
         offset="0.6514"
         stop-color="#FFE325"
         id="stop2754" />
      <stop
         offset="0.8286"
         stop-color="#FFF029"
         id="stop2756" />
      <stop
         offset="1"
         stop-color="#FFF42A"
         id="stop2758" />
    </linearGradient>
    <clipPath
       id="clip0_421_1274-6">
      <rect
         width="300"
         height="300"
         fill="#ffffff"
         id="rect2761"
         x="0"
         y="0" />
    </clipPath>
    <clipPath
       id="clip0_421_1274-9">
      <rect
         width="300"
         height="300"
         fill="#ffffff"
         id="rect3154"
         x="0"
         y="0" />
    </clipPath>
    <clipPath
       id="clip0_421_1274-61">
      <rect
         width="300"
         height="300"
         fill="#ffffff"
         id="rect3560"
         x="0"
         y="0" />
    </clipPath>
    <linearGradient
       id="paint0_linear_421_1274-3"
       x1="118.039"
       y1="225.166"
       x2="118.039"
       y2="137.532"
       gradientUnits="userSpaceOnUse">
      <stop
         stop-color="#FF7300"
         id="stop4079" />
      <stop
         offset="0.1086"
         stop-color="#FF8D08"
         id="stop4081" />
      <stop
         offset="0.2899"
         stop-color="#FFB214"
         id="stop4083" />
      <stop
         offset="0.4716"
         stop-color="#FFCF1E"
         id="stop4085" />
      <stop
         offset="0.6514"
         stop-color="#FFE325"
         id="stop4087" />
      <stop
         offset="0.8286"
         stop-color="#FFF029"
         id="stop4089" />
      <stop
         offset="1"
         stop-color="#FFF42A"
         id="stop4091" />
    </linearGradient>
    <linearGradient
       id="paint1_linear_421_1274-7"
       x1="118.04"
       y1="134.76401"
       x2="118.04"
       y2="144.729"
       gradientUnits="userSpaceOnUse">
      <stop
         stop-color="#FF7300"
         id="stop4094" />
      <stop
         offset="0.1086"
         stop-color="#FF8D08"
         id="stop4096" />
      <stop
         offset="0.2899"
         stop-color="#FFB214"
         id="stop4098" />
      <stop
         offset="0.4716"
         stop-color="#FFCF1E"
         id="stop4100" />
      <stop
         offset="0.6514"
         stop-color="#FFE325"
         id="stop4102" />
      <stop
         offset="0.8286"
         stop-color="#FFF029"
         id="stop4104" />
      <stop
         offset="1"
         stop-color="#FFF42A"
         id="stop4106" />
    </linearGradient>
    <linearGradient
       id="paint2_linear_421_1274-8"
       x1="223.423"
       y1="225.166"
       x2="223.423"
       y2="137.532"
       gradientUnits="userSpaceOnUse">
      <stop
         stop-color="#FF7300"
         id="stop4109" />
      <stop
         offset="0.1086"
         stop-color="#FF8D08"
         id="stop4111" />
      <stop
         offset="0.2899"
         stop-color="#FFB214"
         id="stop4113" />
      <stop
         offset="0.4716"
         stop-color="#FFCF1E"
         id="stop4115" />
      <stop
         offset="0.6514"
         stop-color="#FFE325"
         id="stop4117" />
      <stop
         offset="0.8286"
         stop-color="#FFF029"
         id="stop4119" />
      <stop
         offset="1"
         stop-color="#FFF42A"
         id="stop4121" />
    </linearGradient>
    <clipPath
       id="clip0_421_1274-4">
      <rect
         width="300"
         height="300"
         fill="#ffffff"
         id="rect4124"
         x="0"
         y="0" />
    </clipPath>
    <clipPath
       id="clip0_421_1274-2">
      <rect
         width="300"
         height="300"
         fill="#ffffff"
         id="rect4458"
         x="0"
         y="0" />
    </clipPath>
    <clipPath
       id="clip0_421_1274-1">
      <rect
         width="300"
         height="300"
         fill="#ffffff"
         id="rect4979"
         x="0"
         y="0" />
    </clipPath>
    <clipPath
       id="clip0_421_1274-24">
      <rect
         width="300"
         height="300"
         fill="#ffffff"
         id="rect5434"
         x="0"
         y="0" />
    </clipPath>
    <clipPath
       id="clip0_421_1274-46">
      <rect
         width="300"
         height="300"
         fill="#ffffff"
         id="rect5850"
         x="0"
         y="0" />
    </clipPath>
    <clipPath
       id="clip0_421_1274-5">
      <rect
         width="300"
         height="300"
         fill="#ffffff"
         id="rect6329"
         x="0"
         y="0" />
    </clipPath>
    <clipPath
       id="clip0_421_1274-38">
      <rect
         width="300"
         height="300"
         fill="#ffffff"
         id="rect6804"
         x="0"
         y="0" />
    </clipPath>
    <clipPath
       id="clip0_421_1274-44">
      <rect
         width="300"
         height="300"
         fill="#ffffff"
         id="rect7152"
         x="0"
         y="0" />
    </clipPath>
    <clipPath
       id="clip0_421_1274-94">
      <rect
         width="300"
         height="300"
         fill="#ffffff"
         id="rect7595"
         x="0"
         y="0" />
    </clipPath>
    <clipPath
       id="clip0_421_1274-10">
      <rect
         width="300"
         height="300"
         fill="#ffffff"
         id="rect8065"
         x="0"
         y="0" />
    </clipPath>
    <clipPath
       id="clip0_421_1274-87">
      <rect
         width="300"
         height="300"
         fill="#ffffff"
         id="rect8554"
         x="0"
         y="0" />
    </clipPath>
    <clipPath
       id="clip0_421_1274-19">
      <rect
         width="300"
         height="300"
         fill="#ffffff"
         id="rect9033"
         x="0"
         y="0" />
    </clipPath>
    <clipPath
       id="clip0_421_1274-49">
      <rect
         width="300"
         height="300"
         fill="#ffffff"
         id="rect9515"
         x="0"
         y="0" />
    </clipPath>
    <clipPath
       id="clip0_421_1274-69">
      <rect
         width="300"
         height="300"
         fill="#ffffff"
         id="rect10033"
         x="0"
         y="0" />
    </clipPath>
    <clipPath
       id="clip0_421_1274-40">
      <rect
         width="300"
         height="300"
         fill="#ffffff"
         id="rect10502"
         x="0"
         y="0" />
    </clipPath>
    <clipPath
       id="clip0_421_1274-242">
      <rect
         width="300"
         height="300"
         fill="#ffffff"
         id="rect10955"
         x="0"
         y="0" />
    </clipPath>
    <linearGradient
       id="paint0_linear_421_1274-36"
       x1="120.777"
       y1="221.77"
       x2="120.777"
       y2="135.345"
       gradientUnits="userSpaceOnUse">
      <stop
         stop-color="#FF7300"
         id="stop11413" />
      <stop
         offset="0.1086"
         stop-color="#FF8D08"
         id="stop11415" />
      <stop
         offset="0.2899"
         stop-color="#FFB214"
         id="stop11417" />
      <stop
         offset="0.4716"
         stop-color="#FFCF1E"
         id="stop11419" />
      <stop
         offset="0.6514"
         stop-color="#FFE325"
         id="stop11421" />
      <stop
         offset="0.8286"
         stop-color="#FFF029"
         id="stop11423" />
      <stop
         offset="1"
         stop-color="#FFF42A"
         id="stop11425" />
    </linearGradient>
    <linearGradient
       id="paint1_linear_421_1274-4"
       x1="120.776"
       y1="132.616"
       x2="120.776"
       y2="142.44299"
       gradientUnits="userSpaceOnUse">
      <stop
         stop-color="#FF7300"
         id="stop11428" />
      <stop
         offset="0.1086"
         stop-color="#FF8D08"
         id="stop11430" />
      <stop
         offset="0.2899"
         stop-color="#FFB214"
         id="stop11432" />
      <stop
         offset="0.4716"
         stop-color="#FFCF1E"
         id="stop11434" />
      <stop
         offset="0.6514"
         stop-color="#FFE325"
         id="stop11436" />
      <stop
         offset="0.8286"
         stop-color="#FFF029"
         id="stop11438" />
      <stop
         offset="1"
         stop-color="#FFF42A"
         id="stop11440" />
    </linearGradient>
    <linearGradient
       id="paint2_linear_421_1274-4"
       x1="224.707"
       y1="221.77"
       x2="224.707"
       y2="135.345"
       gradientUnits="userSpaceOnUse">
      <stop
         stop-color="#FF7300"
         id="stop11443" />
      <stop
         offset="0.1086"
         stop-color="#FF8D08"
         id="stop11445" />
      <stop
         offset="0.2899"
         stop-color="#FFB214"
         id="stop11447" />
      <stop
         offset="0.4716"
         stop-color="#FFCF1E"
         id="stop11449" />
      <stop
         offset="0.6514"
         stop-color="#FFE325"
         id="stop11451" />
      <stop
         offset="0.8286"
         stop-color="#FFF029"
         id="stop11453" />
      <stop
         offset="1"
         stop-color="#FFF42A"
         id="stop11455" />
    </linearGradient>
    <clipPath
       id="clip0_421_1274-0">
      <rect
         width="300"
         height="300"
         fill="#ffffff"
         id="rect11458"
         x="0"
         y="0" />
    </clipPath>
    <clipPath
       id="clip0_421_1274-93">
      <rect
         width="300"
         height="300"
         fill="#ffffff"
         id="rect12087"
         x="0"
         y="0" />
    </clipPath>
    <clipPath
       id="clip0_421_1274-612">
      <rect
         width="300"
         height="300"
         fill="#ffffff"
         id="rect12582"
         x="0"
         y="0" />
    </clipPath>
  </defs>
  <g
     inkscape:label="Layer 1"
     inkscape:groupmode="layer"
     id="layer1"
     transform="translate(-287.98493,-71.635786)">
    <g
       style="fill:none"
       id="g12624"
       transform="matrix(0.26458333,0,0,0.26458333,287.98493,71.635786)">
      <g
         clip-path="url(#clip0_421_1274-612)"
         id="g12580">
        <path
           id="rect12520"
           style="fill:#b5e2c9;fill-opacity:0.968627"
           d="M 0,0 H 300 V 300 H 0 Z" />
        <path
           d="m 251.148,266.099 c -0.775,0.553 -1.66,1.107 -2.434,1.66 -0.885,0.553 -1.66,1.106 -2.545,1.549 -0.775,0.443 -1.439,0.885 -2.213,1.328 -0.111,0.11 -0.221,0.11 -0.332,0.221 -2.545,1.549 -5.2,2.987 -7.856,4.315 -0.774,0.443 -1.66,0.885 -2.434,1.217 0,0 -0.111,0.111 -0.221,0.111 -0.886,0.443 -1.771,0.885 -2.656,1.328 -1.77,0.885 -3.651,1.659 -5.422,2.434 -0.885,0.443 -1.881,0.774 -2.766,1.106 -0.885,0.332 -1.881,0.775 -2.766,1.107 -0.885,0.332 -1.881,0.774 -2.766,1.106 0,0 0,0 -0.111,0 -0.885,0.332 -1.881,0.664 -2.766,0.996 -1.992,0.664 -4.094,1.328 -6.086,1.992 -0.663,0.221 -1.438,0.442 -2.102,0.664 -2.102,0.664 -4.204,1.217 -6.307,1.659 -0.774,0.222 -1.549,0.332 -2.434,0.554 -1.992,0.442 -4.094,0.885 -6.085,1.327 -0.443,0.111 -0.775,0.111 -1.218,0.222 -0.663,0.11 -1.438,0.221 -2.102,0.332 -0.996,0.11 -1.881,0.332 -2.877,0.442 -0.442,0.111 -0.885,0.111 -1.327,0.222 -0.554,0.11 -1.218,0.221 -1.881,0.221 -1.771,0.221 -3.652,0.442 -5.422,0.664 -0.553,0.11 -1.217,0.11 -1.77,0.221 h -0.111 c -0.775,0.111 -1.549,0.111 -2.324,0.221 -0.774,0.111 -1.549,0.111 -2.323,0.111 -0.443,0 -0.996,0.111 -1.439,0.111 -0.885,0 -1.659,0.11 -2.434,0.11 -1.106,0 -2.102,0.111 -3.209,0.111 -1.106,0 -2.102,0 -3.208,0 -0.775,0 -1.55,0 -2.324,0 -46.582,-0.664 -88.6281,-20.47 -118.5027,-51.893 0,0 0,-0.111 -0.1106,-0.111 3.43,-6.75 16.1544,-18.921 29.432,-28.99 16.8183,-12.724 40.6073,-20.58 40.6073,-20.58 0,0 15.601,-2.545 73.469,9.516 44.149,9.294 62.958,47.025 69.376,64.396 z"
           fill="#f7d3b5"
           id="path12522" />
        <path
           d="m 194.054,232.352 c -2.324,11.397 -17.371,18.146 -42.71,7.966 -31.091,-12.613 -43.041,-48.131 -43.041,-48.131 -1.66,-25.449 -5.532,-47.246 -5.532,-47.246 35.96,-3.098 78.448,38.948 78.448,38.948 l 4.869,20.801 c 0.442,1.771 1.327,3.32 2.655,4.426 2.324,3.983 6.86,15.933 5.311,23.236 z"
           fill="#f7d3b5"
           id="path12524" />
        <path
           d="m 188.743,209.227 c -21.133,-1.107 -36.735,-4.205 -53.442,-34.19 14.163,12.503 30.87,17.261 48.463,19.474 l 2.324,10.179 c 0.442,1.881 1.327,3.43 2.655,4.537 z"
           fill="#efbda5"
           id="path12526" />
        <path
           d="m 232.449,75.8974 c 1.991,9.2944 2.987,16.8183 -2.435,41.6036 -5.421,24.784 4.979,49.569 -21.133,72.252 -17.593,15.269 -48.353,18.146 -72.916,1.438 -8.299,-5.643 -15.934,-13.499 -22.13,-23.789 C 108.967,159.325 103.324,151.69 97.0169,144.72 88.2758,135.204 77.7644,116.062 82.9648,82.2043 91.3739,27.1022 145.923,20.7954 178.121,26.8809 c 32.198,6.0856 48.906,24.453 54.328,49.0165 z"
           fill="#f7d3b5"
           id="path12528" />
        <path
           d="m 126.56,119.16 c 0,0 -3.43,-16.597 -19.585,-14.605 -13.9411,1.77 -18.8096,35.186 12.835,44.48"
           fill="#f7d3b5"
           id="path12530" />
        <path
           style="color:#000000;fill:#423232;stroke-linecap:round;stroke-linejoin:round;stroke-miterlimit:10;-inkscape-stroke:none"
           d="m 110.88672,115.47656 c -0.79876,-0.0615 -1.54581,0.026 -2.22266,0.25 -1.3537,0.44791 -2.33004,1.3892 -2.98047,2.36914 -0.65042,0.97995 -1.01635,2.01625 -1.22656,2.90039 -0.1051,0.44208 -0.16984,0.84509 -0.20117,1.20313 -0.0313,0.35804 -0.0757,0.59147 0.0488,1.08789 a 1.5,1.5 0 0 0 1.81836,1.08984 1.5,1.5 0 0 0 1.09179,-1.82031 c 0.069,0.27517 0.0128,0.093 0.0293,-0.0957 0.0165,-0.18866 0.058,-0.46307 0.13086,-0.76953 0.14573,-0.61292 0.42177,-1.3547 0.80859,-1.9375 0.38683,-0.5828 0.84265,-0.98804 1.42188,-1.17969 0.57923,-0.19166 1.37958,-0.22332 2.65625,0.31055 a 1.50015,1.50015 0 0 0 0.01,0.004 c 0.73841,0.30186 1.17666,0.8189 1.49024,2.09571 0.31358,1.2768 0.34257,3.23267 0.0234,5.73242 a 1.50015,1.50015 0 0 0 -0.004,0.041 c -0.53623,5.3684 4.22656,8.38281 4.22656,8.38281 a 1.5,1.5 0 0 0 2.07032,-0.45703 1.5,1.5 0 0 0 -0.45508,-2.07226 c 0,0 -3.20519,-2.07505 -2.85742,-5.55664 0.33949,-2.68138 0.36852,-4.92077 -0.0898,-6.78711 -0.46068,-1.87573 -1.57151,-3.45864 -3.26562,-4.15235 -0.88024,-0.36719 -1.72715,-0.57737 -2.52344,-0.63867 z"
           id="path12532" />
        <path
           d="m 203.238,144.609 c 0,0 4.205,0.221 8.188,-4.536 2.213,-2.656 4.094,-5.975 2.877,-6.971 -1.217,-1.107 -21.244,1.991 -22.572,4.647 -1.328,2.655 6.417,6.86 11.507,6.86 z"
           fill="#efbda5"
           id="path12534" />
        <path
           style="color:#000000;fill:#423232;stroke-linecap:round;stroke-linejoin:round;stroke-miterlimit:10;-inkscape-stroke:none"
           d="m 206.52734,105.93164 a 1.5,1.5 0 0 0 -1.46875,1.53125 c 0,0 0.23478,10.90454 7.16993,22.95703 h -0.002 c 1.15429,2.0088 0.91411,4.81516 -0.82812,7.4043 -1.74224,2.58913 -4.94547,4.85893 -9.48242,5.52148 a 1.5,1.5 0 0 0 -1.26758,1.70117 1.5,1.5 0 0 0 1.70117,1.26758 c 5.31004,-0.77545 9.2961,-3.48409 11.53711,-6.81445 2.24101,-3.33036 2.77512,-7.38497 0.9414,-10.57617 -6.56284,-11.40549 -6.76953,-21.52344 -6.76953,-21.52344 a 1.5,1.5 0 0 0 -1.53125,-1.46875 z"
           id="path12536" />
        <path
           opacity="0.42"
           d="m 146.587,150.252 c 6.294,0 11.397,-4.211 11.397,-9.405 0,-5.194 -5.103,-9.405 -11.397,-9.405 -6.294,0 -11.397,4.211 -11.397,9.405 0,5.194 5.103,9.405 11.397,9.405 z"
           fill="#ed938a"
           id="path12538" />
        <path
           opacity="0.42"
           d="m 228.244,131.663 c -0.332,6.197 -0.221,12.282 -0.664,18.368 -4.868,-1.107 -8.409,-4.758 -8.409,-9.073 0,-4.647 3.873,-8.409 9.073,-9.295 z"
           fill="#ed938a"
           id="path12540" />
        <path
           d="m 246.574,82.54 c -3.113,9.6744 -9.897,18.682 -14.678,24.019 3.002,-16.9022 2.113,-23.5742 0.333,-31.4694 -0.556,-2.4464 -1.223,-4.7817 -2.001,-7.1169 -17.459,17.0136 -47.371,0.2225 -47.371,0.2225 0,0 -6.339,5.2263 -17.459,4.0031 -11.898,-1.2232 -15.123,-8.5624 -15.123,-8.5624 -3.225,22.4624 -24.464,13.9001 -20.572,36.2513 1.112,6.1158 1.112,12.0098 -4.114,18.1258 -0.89,-3.114 -5.227,-15.791 -19.46,-14.011 -13.4557,1.668 -18.5709,32.804 9.229,43.479 -0.333,10.341 -16.7911,36.251 -16.2351,7.339 0.1112,-5.894 -16.7912,-5.449 -26.0208,-24.909 -4.0032,-8.451 -2.8912,-16.346 -1.112,-22.017 1.7792,-5.449 1.668,-11.3429 -0.1112,-16.7917 C 69.8773,84.764 68.3205,75.2007 71.9901,63.6359 78.2173,43.8424 91.5613,39.2831 95.0085,36.9479 98.4557,34.6127 97.3437,17.488 126.589,7.92475 c 18.904,-6.2272 39.143,4.55925 43.368,3.78085 4.226,-0.7784 33.805,-20.23845 56.601,-1.89045 22.018,17.79195 13.789,38.80875 13.789,38.80875 0,0 13.789,10.5641 6.227,33.9161 z"
           fill="#423232"
           id="path12542" />
        <path
           d="m 173.433,117.047 c -2.4,-0.1 -4.2,-2.1 -4,-4.5 l 0.1,-2.8 c 0.1,-2.4 2.1,-4.2 4.5,-4 2.4,0.1 4.2,2.1 4,4.5 l -0.1,2.8 c -0.1,2.3 -2.1,4.1 -4.5,4 z"
           fill="#423232"
           id="path12544" />
        <path
           d="m 215.533,118.547 c -2.2,-0.1 -3.9,-2 -3.8,-4.2 l 0.1,-2.6 c 0.1,-2.2 2,-3.9 4.2,-3.8 2.2,0.1 3.9,2 3.8,4.2 l -0.1,2.6 c -0.1,2.2 -2,3.9 -4.2,3.8 z"
           fill="#423232"
           id="path12546" />
        <path
           style="color:#000000;fill:#423232;stroke-linecap:round;stroke-linejoin:round;stroke-miterlimit:10;-inkscape-stroke:none"
           d="m 173.05469,105.32227 c -1.04424,0.13379 -2.04404,0.40332 -2.95117,0.77343 -1.81427,0.74022 -3.39527,1.82974 -3.91211,3.63868 a 1.5,1.5 0 0 0 1.02929,1.85546 1.5,1.5 0 0 0 1.85547,-1.03125 c 0.0832,-0.29106 0.84943,-1.15077 2.16016,-1.68554 1.31073,-0.53478 3.02701,-0.79297 4.55664,-0.54492 a 1.50015,1.50015 0 0 0 0.01,0.002 c 3.79345,0.59009 6.10352,3.77929 6.10352,3.7793 a 1.5,1.5 0 0 0 2.08984,0.36523 1.5,1.5 0 0 0 0.36328,-2.08984 c 0,0 -2.88608,-4.20361 -8.08593,-5.01758 -0.001,-2.2e-4 -0.003,2.1e-4 -0.004,0 -1.08387,-0.17534 -2.17188,-0.17855 -3.21484,-0.0449 z"
           id="path12548" />
        <path
           style="color:#000000;fill:#423232;stroke-linecap:round;stroke-linejoin:round;stroke-miterlimit:10;-inkscape-stroke:none"
           d="m 217.23242,107.44727 c -2.64782,0 -4.39059,1.03977 -5.24219,2.22461 -0.85159,1.18483 -0.85742,2.47656 -0.85742,2.47656 a 1.5,1.5 0 0 0 1.5,1.5 1.5,1.5 0 0 0 1.5,-1.5 c 0,0 -0.005,-0.30944 0.29297,-0.72461 0.2984,-0.41517 0.85447,-0.97656 2.80664,-0.97656 2.87895,0 4.03711,2.625 4.03711,2.625 a 1.5,1.5 0 0 0 1.98633,0.74023 1.5,1.5 0 0 0 0.74219,-1.98828 c 0,0 -2.04458,-4.37695 -6.76563,-4.37695 z"
           id="path12550" />
        <path
           d="m 187.233,95.1474 c 2.1,0.7 4.2,-1.2 3.8,-3.5 -0.2,-1.2 -0.7,-2.4 -1.7,-3.3 -3,-2.7 -15.4,-5.1 -22.9,-1.6 -6.6,3.2 11.2,5.2 20.8,8.4 z"
           fill="#423232"
           id="path12552" />
        <path
           d="m 217.132,96.7475 c -1.7,0.6 -3.5,-1.2 -3.2,-3.3 0.1,-1.1 0.5,-2.2 1.3,-3 2.4,-2.4 10.6,-4.3 15.8,-0.6 4.5,3.1 -6.1,4 -13.9,6.9 z"
           fill="#423232"
           id="path12554" />
        <path
           d="m 202.409,156.226 c -0.2,1.7 -0.3,2.9 -0.6,3.9 -1.2,5.3 -3.6,2.7 -8,2.8 -5.5,0.1 -14.9,5.4 -16.9,-1.7 -0.4,-1.3 -0.6,-2.5 -0.7,-3.6 -1,-10 8.8,-6.7 18.6,-2.9 3.8,1.6 6.2,1.7 7.6,1.5 z"
           fill="#ffffff"
           id="path12556" />
        <path
           style="color:#000000;fill:#423232;stroke-linecap:round;stroke-linejoin:round;stroke-miterlimit:10;-inkscape-stroke:none"
           d="m 199.35352,158.52148 a 1.3132499,1.3132499 0 0 0 -1.44922,1.16016 1.3132499,1.3132499 0 0 0 1.16015,1.44922 l 2.69922,0.30078 a 1.3132499,1.3132499 0 0 0 1.45117,-1.16016 1.3132499,1.3132499 0 0 0 -1.16015,-1.45117 z"
           id="path12558" />
        <path
           style="color:#000000;fill:#423232;stroke-linecap:round;stroke-linejoin:round;stroke-miterlimit:10;-inkscape-stroke:none"
           d="m 180.02344,149.79492 c -2.11218,0.2185 -4.06286,1.33184 -4.86133,3.40625 -0.79847,2.07441 -0.60366,4.78298 0.48633,8.49414 a 1.3133813,1.3133813 0 0 0 0.002,0.008 c 0.61452,2.0484 1.93782,3.44712 3.5293,4.07618 1.59148,0.62905 3.33249,0.59452 5.07812,0.36132 3.49126,-0.46638 7.22444,-1.75805 9.57422,-1.80078 a 1.3133813,1.3133813 0 0 0 0.002,0 c 1.14662,-0.0221 2.16636,0.15973 3.15235,0.32618 0.98598,0.16644 1.96678,0.36713 3.05469,0.0605 1.0879,-0.30659 2.01396,-1.25079 2.55078,-2.57031 0.45904,-1.12835 0.72293,-2.84435 0.96289,-4.875 0.89158,-0.28928 1.53994,-0.73328 1.9414,-1.14648 0.40988,-0.42187 0.63282,-0.92188 0.63282,-0.92188 a 1.3132499,1.3132499 0 0 0 -0.73243,-1.70703 1.3132499,1.3132499 0 0 0 -1.70703,0.73242 c 0,0 0.0483,-0.0617 -0.0762,0.0664 -0.12449,0.12813 -0.36861,0.33061 -0.88476,0.49218 -1.03232,0.32316 -3.25595,0.44234 -7.44141,-1.19335 -5.52697,-2.16055 -11.03933,-4.2456 -15.26367,-3.8086 z m 0.27148,2.61328 c 3.02565,-0.31299 8.56214,1.50118 14.03516,3.64063 2.84305,1.11108 4.84563,1.4133 6.52539,1.4414 -0.21438,1.50877 -0.43319,3.02863 -0.69727,3.67774 -0.35693,0.87735 -0.54298,0.95034 -0.83008,1.03125 -0.28709,0.0809 -0.94653,0.0386 -1.90429,-0.12305 -0.95726,-0.16159 -2.1863,-0.39094 -3.63867,-0.36328 h -0.002 c -3.1498,0.0578 -6.81489,1.41569 -9.87304,1.82422 -1.52937,0.2043 -2.85086,0.16235 -3.76563,-0.19922 -0.91298,-0.36087 -1.53923,-0.93743 -1.97461,-2.38281 -1.01,-3.43883 -1.00192,-5.65371 -0.55664,-6.81055 0.44528,-1.15683 1.16882,-1.57983 2.68164,-1.73633 z"
           id="path12560" />
        <path
           style="color:#000000;fill:#423232;stroke-linecap:round;stroke-linejoin:round;stroke-miterlimit:10;-inkscape-stroke:none"
           d="m 182.61523,155.63281 c -0.91721,-0.10499 -1.85334,-0.021 -2.75195,0.10547 -0.8986,0.12647 -1.75694,0.30323 -2.42578,0.42969 -0.33442,0.0632 -0.62186,0.11354 -0.82031,0.13867 -0.19845,0.0251 -0.34733,-0.008 -0.15039,0.0312 a 1.3132499,1.3132499 0 0 0 -1.54493,1.03125 1.3132499,1.3132499 0 0 0 1.0293,1.54492 c 0.44694,0.0894 0.69181,0.0366 0.9961,-0.002 0.30428,-0.0385 0.62699,-0.0957 0.97851,-0.16211 0.70304,-0.13292 1.51579,-0.29913 2.30469,-0.41016 0.78889,-0.11103 1.55824,-0.15828 2.08789,-0.0977 0.52965,0.0606 0.69079,0.20086 0.70703,0.22461 0.44743,0.65393 1.04532,1.13521 1.69141,1.3457 0.64608,0.21049 1.25622,0.14965 1.71875,0.0449 0.46252,-0.10472 0.82029,-0.24979 1.02929,-0.31445 0.209,-0.0647 0.19937,0.0308 -0.11718,-0.0879 0.7818,0.29317 1.73211,0.41467 2.75,0.58008 1.01789,0.1654 1.93164,0.29101 1.93164,0.29101 a 1.3132499,1.3132499 0 0 0 1.48047,-1.11914 1.3132499,1.3132499 0 0 0 -1.11915,-1.48242 c 0,0 -0.88898,-0.12361 -1.87109,-0.2832 -0.98211,-0.1596 -2.2318,-0.43849 -2.25,-0.44532 -0.71656,-0.26871 -1.2254,-0.0732 -1.58203,0.0371 -0.35663,0.11034 -0.63011,0.21645 -0.83008,0.26172 -0.19997,0.0453 -0.28358,0.034 -0.32812,0.0195 -0.0445,-0.0145 -0.13337,-0.034 -0.33594,-0.33008 -0.63375,-0.92625 -1.66091,-1.24656 -2.57813,-1.35156 z"
           id="path12562" />
        <path
           d="M 288.954,335.277 H 7.38672 c 0,0 1.67069,-51.68 18.60038,-88.546 12.8086,-27.845 42.9924,-43.327 65.491,-51.346 6.3486,-2.228 12.1399,-3.898 16.5959,-5.123 0,0.557 0.111,1.002 0.111,1.559 0,0 12.029,35.753 43.327,48.45 25.505,10.358 40.653,3.453 42.992,-8.019 1.448,-7.351 -3.119,-19.38 -5.458,-23.279 -1.336,-1.113 -2.227,-2.784 -2.673,-4.455 l -0.891,-3.675 c 2.116,-0.446 4.121,-1.003 6.126,-1.671 0.668,-0.223 1.225,-0.446 1.894,-0.668 14.367,3.787 35.975,12.808 61.481,34.193 28.847,24.058 33.971,102.58 33.971,102.58 z"
           fill="#bee3eb"
           id="path12564" />
        <path
           d="m 141.821,251.854 c -38.425,-17.263 -53.3503,-48.116 -50.4545,-56.469 0,0 1e-4,-0.111 0.1114,-0.223 2.0049,-4.121 5.2349,-7.462 9.2441,-9.801 2.228,-1.337 4.678,-2.562 6.683,-3.23 0.112,1.559 0.557,6.46 0.668,8.131 0,0.556 0.112,1.002 0.112,1.559 0,0 7.128,26.62 38.426,39.317 25.506,10.358 41.321,3.564 42.992,-8.02 1.894,-12.808 -5.346,-22.053 -5.346,-22.053 2.116,-0.445 5.457,-1.225 7.462,-1.893 4.901,5.903 9.913,11.806 11.807,27.399 2.673,22.387 -21.942,43.215 -61.705,25.283 z"
           fill="#ffffff"
           id="path12566" />
        <path
           style="color:#000000;fill:#544d4d;stroke-linecap:round;stroke-linejoin:round;stroke-miterlimit:10;-inkscape-stroke:none"
           d="m 57.328125,292.4668 a 1.5,1.5 0 0 0 -1.308594,1.66992 l 5.011719,41.32031 a 1.5,1.5 0 0 0 1.669922,1.30859 1.5,1.5 0 0 0 1.308594,-1.66992 l -5.013672,-41.32031 a 1.5,1.5 0 0 0 -1.667969,-1.30859 z"
           id="path12568" />
        <path
           style="color:#000000;fill:#544d4d;stroke-linecap:round;stroke-linejoin:round;stroke-miterlimit:10;-inkscape-stroke:none"
           d="m 257.55859,278.53516 a 1.5,1.5 0 0 0 -1.95703,0.8164 c 0,0 -3.50886,8.36315 -2.4414,17.01563 1.02314,8.30261 3.86174,19.81521 -0.20118,38.59179 a 1.5,1.5 0 0 0 1.15039,1.78321 1.5,1.5 0 0 0 1.78321,-1.14844 c 4.17907,-19.31338 1.22694,-31.63437 0.24609,-39.59375 -0.93854,-7.60751 2.23633,-15.50781 2.23633,-15.50781 a 1.5,1.5 0 0 0 -0.81641,-1.95703 z"
           id="path12570" />
        <path
           style="color:#000000;fill:#423232;stroke-linecap:round;stroke-linejoin:round;stroke-miterlimit:10;-inkscape-stroke:none"
           d="m 159.34961,92.822266 c -7.12125,0 -12.89258,5.771673 -12.89258,12.892574 v 9.83985 c 0,7.12038 5.77133,12.89062 12.89258,12.89062 h 24.13281 c 7.0307,0 12.89258,-5.75378 12.89258,-12.89062 v -9.83985 c 0,-7.120901 -5.77132,-12.892574 -12.89258,-12.892574 z m 0,3 h 24.13281 c 5.51474,0 9.89258,4.378294 9.89258,9.892574 v 9.83985 c 0,5.49714 -4.49529,9.89062 -9.89258,9.89062 h -24.13281 c -5.51473,0 -9.89258,-4.37702 -9.89258,-9.89062 v -9.83985 c 0,-5.51428 4.37785,-9.892574 9.89258,-9.892574 z"
           id="path12572" />
        <path
           style="color:#000000;fill:#423232;stroke-linecap:round;stroke-linejoin:round;stroke-miterlimit:10;-inkscape-stroke:none"
           d="m 213.20703,92.822266 c -4.96798,0 -9.06055,4.092786 -9.06055,9.060544 v 9.00977 a 1.50015,1.50015 0 0 0 0.0547,0.4043 c 1.48282,5.2952 3.61601,10.43058 6.84375,15.05664 a 1.50015,1.50015 0 0 0 1.23047,0.64257 c -0.0234,0 0.28624,0.10352 0.93164,0.10352 h 11.91016 c 4.968,0 9.0625,-4.09255 9.0625,-9.06055 v -16.15625 l -0.002,0.0352 c 0.12297,-5.069438 -4.03398,-9.095704 -9.06054,-9.095704 z m 0,3 h 11.91016 c 3.46542,0 6.14553,2.600283 6.0625,6.023434 a 1.50015,1.50015 0 0 0 0,0.0371 v 16.15625 c 0,3.31799 -2.74451,6.06055 -6.0625,6.06055 h -11.91016 c 5e-5,0 -0.002,0 -0.002,0 -2.76278,-4.10328 -4.70064,-8.65103 -6.0586,-13.45117 v -8.76563 c 0,-3.317628 2.74254,-6.060544 6.06055,-6.060544 z"
           id="path12574" />
        <path
           style="color:#000000;fill:#423232;stroke-linecap:round;stroke-linejoin:round;stroke-miterlimit:10;-inkscape-stroke:none"
           d="m 200.58789,101.7793 c -2.07107,0.08 -4.09858,0.26608 -5.88867,0.47656 a 1.5,1.5 0 0 0 -1.31445,1.66602 1.5,1.5 0 0 0 1.66601,1.31445 c 3.46182,-0.40704 7.84666,-0.69996 11.36328,-0.3086 a 1.5,1.5 0 0 0 1.65625,-1.32617 1.5,1.5 0 0 0 -1.32617,-1.65625 c -1.97068,-0.21931 -4.08518,-0.24599 -6.15625,-0.16601 z"
           id="path12576" />
        <path
           style="color:#000000;fill:#423232;stroke-linecap:round;stroke-linejoin:round;stroke-miterlimit:10;-inkscape-stroke:none"
           d="m 147.90625,102.97266 -24.0293,0.82812 a 1.5,1.5 0 0 0 -1.44726,1.55078 1.5,1.5 0 0 0 1.55078,1.44727 l 24.02734,-0.82813 a 1.5,1.5 0 0 0 1.44922,-1.55078 1.5,1.5 0 0 0 -1.55078,-1.44726 z"
           id="path12578" />
      </g>
    </g>
  </g>
</svg>
