<?xml version="1.0" encoding="UTF-8" standalone="no"?>
<!-- Created with Inkscape (http://www.inkscape.org/) -->

<svg
   width="79.375mm"
   height="79.375mm"
   viewBox="0 0 79.375 79.375"
   version="1.1"
   id="svg5"
   sodipodi:docname="avatar-14.svg"
   inkscape:version="1.1.1 (3bf5ae0d25, 2021-09-20)"
   xmlns:inkscape="http://www.inkscape.org/namespaces/inkscape"
   xmlns:sodipodi="http://sodipodi.sourceforge.net/DTD/sodipodi-0.dtd"
   xmlns="http://www.w3.org/2000/svg"
   xmlns:svg="http://www.w3.org/2000/svg">
  <sodipodi:namedview
     id="namedview7"
     pagecolor="#ffffff"
     bordercolor="#999999"
     borderopacity="1"
     inkscape:pageshadow="0"
     inkscape:pageopacity="0"
     inkscape:pagecheckerboard="0"
     inkscape:document-units="mm"
     showgrid="false"
     inkscape:zoom="1.4467452"
     inkscape:cx="36.288352"
     inkscape:cy="158.63194"
     inkscape:window-width="1920"
     inkscape:window-height="1001"
     inkscape:window-x="-9"
     inkscape:window-y="-9"
     inkscape:window-maximized="1"
     inkscape:current-layer="layer1" />
  <defs
     id="defs2">
    <clipPath
       id="clip0_421_1274">
      <rect
         width="300"
         height="300"
         fill="#ffffff"
         id="rect903"
         x="0"
         y="0" />
    </clipPath>
    <clipPath
       id="clip0_421_1274-3">
      <rect
         width="300"
         height="300"
         fill="#ffffff"
         id="rect1539"
         x="0"
         y="0" />
    </clipPath>
    <clipPath
       id="clip0_421_1274-35">
      <rect
         width="300"
         height="300"
         fill="#ffffff"
         id="rect1928"
         x="0"
         y="0" />
    </clipPath>
    <clipPath
       id="clip0_421_1274-8">
      <rect
         width="300"
         height="300"
         fill="#ffffff"
         id="rect2361"
         x="0"
         y="0" />
    </clipPath>
    <linearGradient
       id="paint0_linear_421_1274"
       x1="121.039"
       y1="222.77901"
       x2="121.039"
       y2="132.015"
       gradientUnits="userSpaceOnUse">
      <stop
         stop-color="#FF7300"
         id="stop2716" />
      <stop
         offset="0.1086"
         stop-color="#FF8D08"
         id="stop2718" />
      <stop
         offset="0.2899"
         stop-color="#FFB214"
         id="stop2720" />
      <stop
         offset="0.4716"
         stop-color="#FFCF1E"
         id="stop2722" />
      <stop
         offset="0.6514"
         stop-color="#FFE325"
         id="stop2724" />
      <stop
         offset="0.8286"
         stop-color="#FFF029"
         id="stop2726" />
      <stop
         offset="1"
         stop-color="#FFF42A"
         id="stop2728" />
    </linearGradient>
    <linearGradient
       id="paint1_linear_421_1274"
       x1="121.04"
       y1="129.14799"
       x2="121.04"
       y2="139.46899"
       gradientUnits="userSpaceOnUse">
      <stop
         stop-color="#FF7300"
         id="stop2731" />
      <stop
         offset="0.1086"
         stop-color="#FF8D08"
         id="stop2733" />
      <stop
         offset="0.2899"
         stop-color="#FFB214"
         id="stop2735" />
      <stop
         offset="0.4716"
         stop-color="#FFCF1E"
         id="stop2737" />
      <stop
         offset="0.6514"
         stop-color="#FFE325"
         id="stop2739" />
      <stop
         offset="0.8286"
         stop-color="#FFF029"
         id="stop2741" />
      <stop
         offset="1"
         stop-color="#FFF42A"
         id="stop2743" />
    </linearGradient>
    <linearGradient
       id="paint2_linear_421_1274"
       x1="226.423"
       y1="222.77901"
       x2="226.423"
       y2="132.015"
       gradientUnits="userSpaceOnUse">
      <stop
         stop-color="#FF7300"
         id="stop2746" />
      <stop
         offset="0.1086"
         stop-color="#FF8D08"
         id="stop2748" />
      <stop
         offset="0.2899"
         stop-color="#FFB214"
         id="stop2750" />
      <stop
         offset="0.4716"
         stop-color="#FFCF1E"
         id="stop2752" />
      <stop
         offset="0.6514"
         stop-color="#FFE325"
         id="stop2754" />
      <stop
         offset="0.8286"
         stop-color="#FFF029"
         id="stop2756" />
      <stop
         offset="1"
         stop-color="#FFF42A"
         id="stop2758" />
    </linearGradient>
    <clipPath
       id="clip0_421_1274-6">
      <rect
         width="300"
         height="300"
         fill="#ffffff"
         id="rect2761"
         x="0"
         y="0" />
    </clipPath>
    <clipPath
       id="clip0_421_1274-9">
      <rect
         width="300"
         height="300"
         fill="#ffffff"
         id="rect3154"
         x="0"
         y="0" />
    </clipPath>
    <clipPath
       id="clip0_421_1274-61">
      <rect
         width="300"
         height="300"
         fill="#ffffff"
         id="rect3560"
         x="0"
         y="0" />
    </clipPath>
    <linearGradient
       id="paint0_linear_421_1274-3"
       x1="118.039"
       y1="225.166"
       x2="118.039"
       y2="137.532"
       gradientUnits="userSpaceOnUse">
      <stop
         stop-color="#FF7300"
         id="stop4079" />
      <stop
         offset="0.1086"
         stop-color="#FF8D08"
         id="stop4081" />
      <stop
         offset="0.2899"
         stop-color="#FFB214"
         id="stop4083" />
      <stop
         offset="0.4716"
         stop-color="#FFCF1E"
         id="stop4085" />
      <stop
         offset="0.6514"
         stop-color="#FFE325"
         id="stop4087" />
      <stop
         offset="0.8286"
         stop-color="#FFF029"
         id="stop4089" />
      <stop
         offset="1"
         stop-color="#FFF42A"
         id="stop4091" />
    </linearGradient>
    <linearGradient
       id="paint1_linear_421_1274-7"
       x1="118.04"
       y1="134.76401"
       x2="118.04"
       y2="144.729"
       gradientUnits="userSpaceOnUse">
      <stop
         stop-color="#FF7300"
         id="stop4094" />
      <stop
         offset="0.1086"
         stop-color="#FF8D08"
         id="stop4096" />
      <stop
         offset="0.2899"
         stop-color="#FFB214"
         id="stop4098" />
      <stop
         offset="0.4716"
         stop-color="#FFCF1E"
         id="stop4100" />
      <stop
         offset="0.6514"
         stop-color="#FFE325"
         id="stop4102" />
      <stop
         offset="0.8286"
         stop-color="#FFF029"
         id="stop4104" />
      <stop
         offset="1"
         stop-color="#FFF42A"
         id="stop4106" />
    </linearGradient>
    <linearGradient
       id="paint2_linear_421_1274-8"
       x1="223.423"
       y1="225.166"
       x2="223.423"
       y2="137.532"
       gradientUnits="userSpaceOnUse">
      <stop
         stop-color="#FF7300"
         id="stop4109" />
      <stop
         offset="0.1086"
         stop-color="#FF8D08"
         id="stop4111" />
      <stop
         offset="0.2899"
         stop-color="#FFB214"
         id="stop4113" />
      <stop
         offset="0.4716"
         stop-color="#FFCF1E"
         id="stop4115" />
      <stop
         offset="0.6514"
         stop-color="#FFE325"
         id="stop4117" />
      <stop
         offset="0.8286"
         stop-color="#FFF029"
         id="stop4119" />
      <stop
         offset="1"
         stop-color="#FFF42A"
         id="stop4121" />
    </linearGradient>
    <clipPath
       id="clip0_421_1274-4">
      <rect
         width="300"
         height="300"
         fill="#ffffff"
         id="rect4124"
         x="0"
         y="0" />
    </clipPath>
    <clipPath
       id="clip0_421_1274-2">
      <rect
         width="300"
         height="300"
         fill="#ffffff"
         id="rect4458"
         x="0"
         y="0" />
    </clipPath>
    <clipPath
       id="clip0_421_1274-1">
      <rect
         width="300"
         height="300"
         fill="#ffffff"
         id="rect4979"
         x="0"
         y="0" />
    </clipPath>
    <clipPath
       id="clip0_421_1274-24">
      <rect
         width="300"
         height="300"
         fill="#ffffff"
         id="rect5434"
         x="0"
         y="0" />
    </clipPath>
    <clipPath
       id="clip0_421_1274-46">
      <rect
         width="300"
         height="300"
         fill="#ffffff"
         id="rect5850"
         x="0"
         y="0" />
    </clipPath>
    <clipPath
       id="clip0_421_1274-5">
      <rect
         width="300"
         height="300"
         fill="#ffffff"
         id="rect6329"
         x="0"
         y="0" />
    </clipPath>
    <clipPath
       id="clip0_421_1274-38">
      <rect
         width="300"
         height="300"
         fill="#ffffff"
         id="rect6804"
         x="0"
         y="0" />
    </clipPath>
    <clipPath
       id="clip0_421_1274-44">
      <rect
         width="300"
         height="300"
         fill="#ffffff"
         id="rect7152"
         x="0"
         y="0" />
    </clipPath>
    <clipPath
       id="clip0_421_1274-94">
      <rect
         width="300"
         height="300"
         fill="#ffffff"
         id="rect7595"
         x="0"
         y="0" />
    </clipPath>
    <clipPath
       id="clip0_421_1274-10">
      <rect
         width="300"
         height="300"
         fill="#ffffff"
         id="rect8065"
         x="0"
         y="0" />
    </clipPath>
  </defs>
  <g
     inkscape:label="Layer 1"
     inkscape:groupmode="layer"
     id="layer1"
     transform="translate(-201.50124,-48.063429)">
    <g
       style="fill:none"
       id="g8124"
       transform="matrix(0.26458333,0,0,0.26458333,201.50124,48.063429)">
      <g
         clip-path="url(#clip0_421_1274-10)"
         id="g8063">
        <path
           id="rect7970"
           style="fill:#b5e2c9;fill-opacity:0.968627"
           d="M 0,0 H 300 V 300 H 0 Z" />
        <path
           d="m 251.589,257.099 c -0.774,0.553 -1.659,1.107 -2.434,1.66 -0.885,0.553 -1.66,1.106 -2.545,1.549 -0.774,0.443 -1.438,0.885 -2.213,1.328 -0.11,0.11 -0.221,0.11 -0.332,0.221 -2.544,1.549 -5.2,2.987 -7.855,4.315 -0.775,0.443 -1.66,0.885 -2.435,1.217 0,0 -0.11,0.111 -0.221,0.111 -0.885,0.443 -1.77,0.885 -2.656,1.328 -1.77,0.885 -3.651,1.659 -5.421,2.434 -0.885,0.443 -1.881,0.774 -2.766,1.106 -0.886,0.332 -1.881,0.775 -2.767,1.107 -0.885,0.332 -1.881,0.774 -2.766,1.106 0,0 0,0 -0.11,0 -0.886,0.332 -1.881,0.664 -2.767,0.996 -1.991,0.664 -4.093,1.328 -6.085,1.992 -0.664,0.221 -1.439,0.442 -2.102,0.664 -2.103,0.664 -4.205,1.217 -6.307,1.659 -0.775,0.222 -1.549,0.332 -2.435,0.554 -1.991,0.442 -4.093,0.885 -6.085,1.327 -0.443,0.111 -0.775,0.111 -1.217,0.222 -0.664,0.11 -1.439,0.221 -2.102,0.332 -0.996,0.11 -1.881,0.332 -2.877,0.442 -0.443,0.111 -0.885,0.111 -1.328,0.222 -0.553,0.11 -1.217,0.221 -1.881,0.221 -1.77,0.221 -3.651,0.442 -5.422,0.664 -0.553,0.11 -1.217,0.11 -1.77,0.221 h -0.111 c -0.774,0.111 -1.549,0.111 -2.323,0.221 -0.775,0.111 -1.549,0.111 -2.324,0.111 -0.442,0 -0.996,0.111 -1.438,0.111 -0.885,0 -1.66,0.11 -2.435,0.11 -1.106,0 -2.102,0.111 -3.208,0.111 -1.107,0 -2.103,0 -3.209,0 -0.775,0 -1.549,0 -2.324,0 -46.582,-0.664 -88.6277,-20.47 -118.5023,-51.893 0,0 0,-0.111 -0.1106,-0.111 3.43,-6.75 16.1544,-18.921 29.432,-28.99 16.8183,-12.724 40.6069,-20.58 40.6069,-20.58 0,0 15.602,-2.545 73.47,9.516 44.148,9.294 62.958,47.025 69.375,64.396 z"
           fill="#fee4bf"
           id="path7972" />
        <path
           d="m 194.495,223.352 c -2.323,11.397 -17.371,18.146 -42.709,7.966 -31.092,-12.613 -43.042,-48.131 -43.042,-48.131 -1.659,-25.449 -5.532,-47.246 -5.532,-47.246 35.96,-3.098 78.448,38.948 78.448,38.948 l 4.869,20.801 c 0.442,1.771 1.328,3.32 2.655,4.426 2.324,3.983 6.861,15.933 5.311,23.236 z"
           fill="#fee4bf"
           id="path7974" />
        <path
           d="m 189.185,200.227 c -21.134,-1.107 -36.735,-4.205 -53.443,-34.19 14.163,12.503 30.871,17.261 48.463,19.474 l 2.324,10.179 c 0.443,1.881 1.328,3.43 2.656,4.537 z"
           fill="#efbda5"
           id="path7976" />
        <path
           d="m 232.89,66.8974 c 1.992,9.2944 2.987,16.8183 -2.434,41.6036 -5.422,24.784 4.979,49.569 -21.134,72.252 -17.593,15.269 -48.352,18.146 -72.916,1.438 -8.299,-5.643 -15.933,-13.499 -22.129,-23.789 C 109.408,150.325 103.765,142.69 97.4583,135.72 88.7172,126.204 78.2058,107.062 83.4062,73.2043 91.8153,18.1022 146.364,11.7954 178.562,17.8809 c 32.199,6.0856 48.906,24.453 54.328,49.0165 z"
           fill="#fee4bf"
           id="path7978" />
        <path
           d="m 127.001,110.16 c 0,0 -3.43,-16.5967 -19.584,-14.6051 -13.9417,1.7704 -18.8102,35.1861 12.835,44.4801"
           fill="#fee4bf"
           id="path7980" />
        <path
           style="color:#000000;fill:#423232;stroke-linecap:round;stroke-linejoin:round;stroke-miterlimit:10;-inkscape-stroke:none"
           d="m 111.32813,106.47656 c -0.7987,-0.0615 -1.54586,0.026 -2.22266,0.25 -1.35361,0.44794 -2.32812,1.38924 -2.97852,2.36914 -0.65039,0.9799 -1.01818,2.01637 -1.22851,2.90039 -0.10517,0.44201 -0.16974,0.84524 -0.20117,1.20313 -0.0314,0.35789 -0.0769,0.59024 0.0469,1.08594 a 1.5,1.5 0 0 0 1.81836,1.09179 1.5,1.5 0 0 0 1.09375,-1.81836 c 0.0685,0.27445 0.0127,0.0911 0.0293,-0.0977 0.0166,-0.1888 0.0579,-0.46301 0.13086,-0.76953 0.14585,-0.61304 0.42173,-1.35466 0.80859,-1.9375 0.38686,-0.58285 0.84279,-0.98806 1.42188,-1.17969 0.57908,-0.19163 1.37985,-0.2233 2.65625,0.31055 a 1.50015,1.50015 0 0 0 0.01,0.004 c 0.73893,0.30195 1.17665,0.8189 1.49024,2.09571 0.31358,1.2768 0.34406,3.23252 0.0254,5.73242 a 1.50015,1.50015 0 0 0 -0.006,0.0391 c -0.53746,5.36847 4.22656,8.38477 4.22656,8.38477 a 1.5,1.5 0 0 0 2.07031,-0.45704 1.5,1.5 0 0 0 -0.45508,-2.07226 c 0,0 -3.20401,-2.07512 -2.85547,-5.55664 l -0.006,0.041 c 0.34432,-2.7011 0.37497,-4.95143 -0.0859,-6.82812 -0.46068,-1.87573 -1.57299,-3.45873 -3.26758,-4.15235 -0.87944,-0.36671 -1.72584,-0.57742 -2.52148,-0.63867 z"
           id="path7982" />
        <path
           d="m 203.679,135.609 c 0,0 4.205,0.221 8.188,-4.536 2.213,-2.656 4.094,-5.975 2.877,-6.971 -1.217,-1.107 -21.244,1.991 -22.572,4.647 -1.328,2.655 6.418,6.86 11.507,6.86 z"
           fill="#efbda5"
           id="path7984" />
        <path
           style="color:#000000;fill:#423232;stroke-linecap:round;stroke-linejoin:round;stroke-miterlimit:10;-inkscape-stroke:none"
           d="m 206.9668,96.931641 a 1.5,1.5 0 0 0 -1.4668,1.53125 c 0,0 0.23374,10.904519 7.16992,22.957029 1.15391,2.00881 0.91216,4.81516 -0.83008,7.4043 -1.74223,2.58913 -4.9469,4.85892 -9.48437,5.52148 a 1.5,1.5 0 0 0 -1.26758,1.70117 1.5,1.5 0 0 0 1.70117,1.26758 c 5.31052,-0.77544 9.30001,-3.48409 11.54102,-6.81445 2.24101,-3.33036 2.77449,-7.38304 0.9414,-10.57422 a 1.50015,1.50015 0 0 0 -0.002,-0.002 C 208.70568,108.51832 208.498,98.400341 208.498,98.400341 a 1.5,1.5 0 0 0 -1.53125,-1.46875 z"
           id="path7986" />
        <path
           opacity="0.42"
           d="m 147.028,141.252 c 6.295,0 11.397,-4.211 11.397,-9.405 0,-5.194 -5.102,-9.405 -11.397,-9.405 -6.294,0 -11.396,4.211 -11.396,9.405 0,5.194 5.102,9.405 11.396,9.405 z"
           fill="#f2a5b2"
           id="path7988" />
        <path
           opacity="0.42"
           d="m 228.685,122.663 c -0.332,6.197 -0.221,12.282 -0.664,18.368 -4.868,-1.107 -8.409,-4.758 -8.409,-9.073 0,-4.647 3.873,-8.409 9.073,-9.295 z"
           fill="#f2a5b2"
           id="path7990" />
        <path
           d="m 91.1465,184.248 c 0,0 15.8585,-6.3 18.7915,-6.517 l 0.217,2.498 c 0,0 -12.5999,5.431 -13.3602,6.3 -0.6518,0.761 -5.6483,-2.281 -5.6483,-2.281 z"
           fill="#7e5d6d"
           id="path7992" />
        <path
           d="M 286.773,325.129 H 12.1797 c 0,0 1.6293,-50.4 18.1396,-86.353 12.4914,-27.155 42.4707,-45.078 64.3035,-52.898 6.1912,-2.173 10.9702,-4.562 15.4242,-5.757 0,0.543 0.326,4.562 0.326,4.996 0,0 17.162,16.836 55.831,18.9 17.922,0.978 19.66,-10.21 19.66,-10.21 2.064,-0.435 4.019,-0.978 5.974,-1.629 0.652,-0.218 5.214,-2.064 5.757,-2.281 14.012,3.693 31.174,14.12 56.048,34.975 28.133,23.788 33.13,100.257 33.13,100.257 z"
           fill="#423232"
           id="path7994" />
        <mask
           id="mask0_421_1274"
           maskUnits="userSpaceOnUse"
           x="12"
           y="180"
           width="275"
           height="146">
          <path
             d="M 286.772,325.129 H 12.1787 c 0,0 1.6293,-50.4 18.1397,-86.353 12.4913,-27.155 42.4707,-45.078 64.3034,-52.898 6.1912,-2.173 10.9712,-4.562 15.4242,-5.757 0,0.543 0.326,4.562 0.326,4.996 0,0 17.162,16.836 55.831,18.9 17.922,0.978 19.66,-10.21 19.66,-10.21 2.064,-0.435 4.019,-0.978 5.974,-1.629 0.652,-0.218 5.214,-2.064 5.757,-2.281 14.012,3.693 31.174,14.12 56.048,34.975 28.133,23.788 33.13,100.257 33.13,100.257 z"
             fill="#423232"
             id="path7996" />
        </mask>
        <g
           mask="url(#mask0_421_1274)"
           id="g8001">
          <path
             style="color:#000000;fill:#ffff8d;stroke-miterlimit:10;-inkscape-stroke:none"
             d="m 126.52344,173.25391 c -6.75306,0.31115 -11.86992,0.90075 -15.16602,3.16992 -5.9071,3.94687 -7.89396,9.05736 -7.47851,13.41211 0.4158,4.3585 2.75772,7.82315 4.24804,9.88672 4.2e-4,5.7e-4 0.002,0.001 0.002,0.002 11.9318,16.8067 42.16864,41.38274 67.70507,46.28516 l 0.006,0.002 h 0.006 c 4.36882,0.81678 8.26554,-2.10085 11.48828,-6.11524 3.22275,-4.01438 6.00555,-9.52252 7.94532,-15.625 3.87923,-12.20404 4.55899,-27.06991 -4.00782,-36.19336 l -0.002,-0.002 c -3.79891,-4.05342 -9.97096,-6.87493 -17.28516,-9.11914 -7.31535,-2.24457 -15.79788,-3.81217 -24.14648,-4.75586 -8.3486,-0.94369 -16.5506,-1.25892 -23.31445,-0.94726 z m 0.23047,4.99414 c 6.42004,-0.29582 14.41593,0.005 22.52343,0.92187 8.10751,0.91644 16.33995,2.45115 23.24024,4.56836 6.90028,2.11721 12.44174,4.91674 15.10547,7.75977 h 0.002 v 0.002 c 6.53018,6.95272 6.45159,20.05503 2.89062,31.25781 -1.78048,5.60139 -4.38963,10.65649 -7.08007,14.00781 -2.68839,3.34877 -5.22473,4.59923 -6.66797,4.33204 -23.11624,-4.44182 -53.6891,-28.94196 -64.57422,-44.28516 l -0.006,-0.008 -0.006,-0.008 c -1.33373,-1.84663 -3.06334,-4.68247 -3.32617,-7.4375 -0.26283,-2.75502 0.46278,-5.56878 5.29297,-8.78906 l 0.0176,-0.0117 0.0176,-0.0117 c 1.10347,-0.76281 6.15028,-2.00301 12.57032,-2.29882 z"
             id="path7999" />
        </g>
        <path
           d="m 233.875,214.662 c 7.018,0 12.708,-5.69 12.708,-12.709 0,-7.018 -5.69,-12.708 -12.708,-12.708 -7.019,0 -12.709,5.69 -12.709,12.708 0,7.019 5.69,12.709 12.709,12.709 z"
           fill="#ffff8d"
           id="path8003" />
        <path
           style="color:#000000;fill:#544d4d;stroke-linecap:round;stroke-linejoin:round;stroke-miterlimit:10;-inkscape-stroke:none"
           d="m 60.876953,283.45117 a 1.5,1.5 0 0 0 -1.306641,1.66992 l 4.886719,40.18946 a 1.5,1.5 0 0 0 1.669922,1.30664 1.5,1.5 0 0 0 1.308594,-1.66992 l -4.888672,-40.1875 a 1.5,1.5 0 0 0 -1.669922,-1.3086 z"
           id="path8005" />
        <path
           style="color:#000000;fill:#544d4d;stroke-linecap:round;stroke-linejoin:round;stroke-miterlimit:10;-inkscape-stroke:none"
           d="m 256.16992,269.75781 a 1.5,1.5 0 0 0 -1.95898,0.81641 c 0,0 -3.4233,8.16189 -2.38086,16.61328 0.99834,8.10161 3.76532,19.32074 -0.19531,37.625 a 1.5,1.5 0 0 0 1.14843,1.7832 1.5,1.5 0 0 0 1.78321,-1.15039 c 4.07707,-18.84239 1.19607,-30.86676 0.24023,-38.625 -0.91356,-7.40659 2.17969,-15.10547 2.17969,-15.10547 a 1.5,1.5 0 0 0 -0.81641,-1.95703 z"
           id="path8007" />
        <path
           d="m 91.1468,184.248 c 2.0638,-0.651 5.6483,0 6.7345,1.847 4.2367,6.952 14.4467,27.264 18.6827,67.562 3.367,31.5 -1.738,88.2 -1.738,88.2 L 9.35547,336.86 c 0,0 3.15003,-53.55 12.38273,-89.503 9.0155,-34.867 32.6949,-50.509 69.4086,-63.109 z"
           fill="#ffffff"
           id="path8009" />
        <path
           d="m 200.311,190.874 c 0,0 33.563,63.109 23.787,147.398 h 72.45 c 0,0 -0.325,-66.91 -16.618,-103.298 -16.294,-36.279 -73.319,-46.924 -73.319,-46.924 0,0 -3.585,1.738 -6.3,2.824 z"
           fill="#ffffff"
           id="path8011" />
        <path
           d="m 200.311,190.874 -2.607,-0.76 c 0,0 3.802,-1.847 5.431,-2.933 l 0.978,-0.543 c 0,0 5.214,2.39 7.06,3.259 1.847,0.869 -6.409,4.887 -6.409,4.887 0,0 -4.127,-3.91 -4.453,-3.91 z"
           fill="#7e5d6d"
           id="path8013" />
        <path
           d="m 82.1314,221.505 c 0,0 -14.9897,10.536 -13.5776,21.724 1.4121,11.188 47.5762,81.249 47.5762,81.249 0,0 5.431,-38.018 -0.761,-81.031 0,0 -4.453,-5.975 -12.6,-11.949 -5.4307,-3.801 -12.3824,-7.82 -20.6376,-9.993 z"
           fill="#ad7e5a"
           id="path8015" />
        <path
           d="m 257.445,243.229 c 0.435,-6.951 -15.641,-18.248 -15.641,-18.248 -6.409,1.847 -10.971,4.779 -14.229,7.929 -7.278,6.843 -8.256,14.556 -8.256,14.556 l 0.435,1.955 c 7.712,33.563 5.431,77.229 5.431,77.229 0,0 31.826,-76.469 32.26,-83.421 z"
           fill="#ad7e5a"
           id="path8017" />
        <path
           d="m 115.261,243.447 c 0,0 -7.604,-8.038 -16.7277,-13.687 -20.2034,-12.491 -49.8569,-18.248 -50.1827,-27.915 -0.2173,-10.862 35.8448,-33.564 59.7414,-41.276 0,0.109 0,0.217 0,0.326 0,0.108 0,0.217 0,0.434 0,0.218 0,0.435 0.109,0.652 0,0.326 0.108,0.652 0.108,0.978 0,0.217 0,0.325 0.109,0.543 0.76,6.517 1.412,13.795 1.955,21.507 v 0.108 c 0,0 -4.997,1.63 -1.412,26.504 0.978,6.082 4.671,16.727 6.3,31.826 z"
           fill="#ad7e5a"
           id="path8019" />
        <path
           d="m 219.319,246.922 c 0,0 -7.277,-28.241 -10.862,-37.256 -3.584,-8.907 -10.319,-19.009 -10.645,-19.552 4.237,-1.955 8.038,-4.454 11.406,-7.386 3.367,-2.933 6.082,-5.866 8.363,-8.799 12.166,6.409 47.033,26.612 48.771,36.714 1.955,10.971 -40.298,10.319 -47.033,36.279 z"
           fill="#ad7e5a"
           id="path8021" />
        <path
           d="m 180.107,262.781 c 7.019,0 12.709,-5.69 12.709,-12.709 0,-7.018 -5.69,-12.708 -12.709,-12.708 -7.019,0 -12.709,5.69 -12.709,12.708 0,7.019 5.69,12.709 12.709,12.709 z"
           fill="#ffff8d"
           id="path8023" />
        <path
           d="m 180.107,256.59 c 3.599,0 6.517,-2.918 6.517,-6.518 0,-3.599 -2.918,-6.517 -6.517,-6.517 -3.599,0 -6.517,2.918 -6.517,6.517 0,3.6 2.918,6.518 6.517,6.518 z"
           fill="#ffbe71"
           id="path8025" />
        <path
           style="color:#000000;fill:#894b33;stroke-linecap:round;stroke-linejoin:round;stroke-miterlimit:10;-inkscape-stroke:none"
           d="m 241.38867,223.53906 c -6.63165,1.91117 -11.42699,4.97866 -14.85351,8.29102 -6.4e-4,6.1e-4 -10e-4,10e-4 -0.002,0.002 -7.62381,7.17872 -8.70312,15.44531 -8.70312,15.44531 a 1.5,1.5 0 0 0 1.30078,1.67578 1.5,1.5 0 0 0 1.67578,-1.29882 c 0,0 0.87788,-7.14873 7.79492,-13.65235 a 1.50015,1.50015 0 0 0 0.0156,-0.0137 c 3.08934,-2.98693 7.41645,-5.78393 13.60156,-7.56641 a 1.5,1.5 0 0 0 1.02734,-1.85546 1.5,1.5 0 0 0 -1.85742,-1.02735 z"
           id="path8027" />
        <path
           style="color:#000000;fill:#894b33;stroke-linecap:round;stroke-linejoin:round;stroke-miterlimit:10;-inkscape-stroke:none"
           d="m 82.417969,219.94922 a 1.5,1.5 0 0 0 -1.841797,1.05273 1.5,1.5 0 0 0 1.050781,1.8418 c 8.147548,2.22202 14.940285,6.03979 20.144527,9.86328 a 1.50015,1.50015 0 0 0 0.002,0 c 7.97256,5.84609 12.2832,11.63672 12.2832,11.63672 a 1.5,1.5 0 0 0 2.09961,0.30664 1.5,1.5 0 0 0 0.30664,-2.09961 c 0,0 -4.59348,-6.16014 -12.91406,-12.26172 h -0.002 c -5.43959,-3.9962 -12.549522,-8.00005 -21.128911,-10.33984 z"
           id="path8029" />
        <path
           d="m 253.45,155.249 c -8.512,-16.688 0.448,-19.936 -4.704,-32.704 -7.616,-18.816 -7.056,-21.504 -6.16,-25.7603 6.72,-31.696 11.088,-65.968 -28.112,-86.24 -44.128,-22.848 -105.84,-13.55206 -128.8002,14.6719 -19.488,23.744 -13.776,36.1761 -18.704,52.9761 -4.816,16.24 -26.544,16.688 -16.576,50.2883 5.04,17.024 -15.232,25.984 -10.752,54.656 31.248,14 63.8402,20.608 97.1042,22.624 9.072,-22.288 -18.928,-27.328 -19.264,-60.592 0,-2.24 0.112,-4.368 0.336,-6.384 -31.0242,-9.744 -25.9842,-42.8964 -11.984,-44.6884 9.744,-1.232 14.896,4.2561 17.472,8.8484 0.224,0.672 0.56,1.232 0.896,1.904 4.256,7.28 26.768,0.672 41.888,-16.9124 16.24,-18.816 15.008,-17.3599 23.184,-28.6719 16.464,-22.624 16.016,0.6719 20.16,3.8079 5.824,4.368 2.128,7.616 11.2,22.624 4.032,6.72 11.424,13.328 9.632,21.2804 -5.488,24.976 5.04,50.176 -21.392,73.136 -5.936,5.152 -14.224,9.632 -23.968,11.536 0.448,3.36 1.792,8.288 4.816,13.552 22.96,-1.568 46.032,-4.816 69.104,-8.736 3.584,-12.432 1.792,-27.216 -5.376,-41.216 z"
           fill="#f1d778"
           id="path8031" />
        <path
           d="m 124.314,104.737 c -0.336,-0.56 -0.672,-1.232 -0.896,-1.904 0.336,0.672 0.672,1.344 0.896,1.904 z"
           fill="#fee4bf"
           id="path8033" />
        <path
           d="m 233.626,106.529 c 0,0 29.568,-9.6324 18.368,-38.0804 -6.16,-15.68 -6.496,-33.488 -12.88,-44.912 C 230.266,7.74459 216.154,3.04059 195.322,7.40859 159.482,14.9126 217.61,6.2886 221.194,32.1606 c 3.472,25.872 12.432,74.3684 12.432,74.3684 z"
           fill="#f1d778"
           id="path8035" />
        <path
           d="m 176.072,101.311 c 0,0.1 0,0.2 0,0.2 l -0.1,2.8 c -0.1,2.4 -2.1,4.2 -4.5,4.1 -2.4,-0.1 -4.2,-2.2 -4,-4.5 l 0.1,-2.8 c 0,-0.5 0.2,-1.1 0.4,-1.4997 l 8,0.3997 c 0,0.4 0.1,0.8 0.1,1.3 z"
           fill="#0500ff"
           id="path8037" />
        <path
           d="m 217.871,103.511 -0.1,2.6 c -0.1,2.2 -2,3.9 -4.2,3.8 -2.2,-0.1 -3.9,-2 -3.8,-4.2 l 0.1,-2.6 c 0,-0.5 0.1,-1 0.3,-1.4 l 7.5,0.3 c 0.2,0.5 0.2,1 0.2,1.5 z"
           fill="#0500ff"
           id="path8039" />
        <path
           d="m 186.071,87.6113 c 2.2,0.3 3.9,-2 3.1,-4.2 -0.4,-1.2 -1.1,-2.3 -2.2,-3 -3.4,-2.1 -16.1,-2.3 -22.8,2.5 -5.9,4.4 11.9,3.3 21.9,4.7 z"
           fill="#f1d778"
           id="path8041" />
        <path
           d="m 213.771,88.7113 c -1.8,0 -2.9,-2.3 -2,-4.2 0.5,-1 1.2,-1.9 2.2,-2.4 3.1,-1.5 11.4,-0.6 15.1,4.5 3.3,4.5 -7,2 -15.3,2.1 z"
           fill="#f1d778"
           id="path8043" />
        <path
           style="color:#000000;fill:#423232;stroke-linecap:round;stroke-linejoin:round;stroke-miterlimit:10;-inkscape-stroke:none"
           d="m 166.1543,98.013672 a 1.5,1.5 0 0 0 -1.58008,1.414062 1.5,1.5 0 0 0 1.41406,1.582036 l 1.79883,0.0996 a 1.50015,1.50015 0 0 0 0.0273,0 l 7.99414,0.30078 6.69532,0.29882 a 1.5,1.5 0 0 0 1.5664,-1.43164 1.5,1.5 0 0 0 -1.43164,-1.564449 l -6.70117,-0.300782 a 1.50015,1.50015 0 0 0 -0.01,0 l -7.98632,-0.298828 z"
           id="path8045" />
        <path
           style="color:#000000;fill:#423232;stroke-linecap:round;stroke-linejoin:round;stroke-miterlimit:10;-inkscape-stroke:none"
           d="m 209.87109,100.21094 a 1.5,1.5 0 0 0 -1.5,1.5 1.5,1.5 0 0 0 1.5,1.5 h 0.26953 l 7.4668,0.29883 4.39453,0.19921 a 1.5,1.5 0 0 0 1.56836,-1.42968 1.5,1.5 0 0 0 -1.43164,-1.56641 l -4.40039,-0.20117 a 1.50015,1.50015 0 0 0 -0.008,0 l -7.5,-0.29883 a 1.50015,1.50015 0 0 0 -0.0586,-0.002 z"
           id="path8047" />
        <path
           style="color:#000000;fill:#423232;stroke-linecap:round;stroke-linejoin:round;stroke-miterlimit:10;-inkscape-stroke:none"
           d="m 186.57617,147.48047 c -2.21469,-0.1156 -4.39091,0.15502 -6.27344,1.14258 a 1.5,1.5 0 0 0 -0.63086,2.02539 1.5,1.5 0 0 0 2.0254,0.63086 c 2.33493,-1.22489 6.79687,-0.76761 10.5957,0.26953 3.79883,1.03714 6.875,2.46289 6.875,2.46289 a 1.5,1.5 0 0 0 1.99219,-0.72852 1.5,1.5 0 0 0 -0.72852,-1.99218 c 0,0 -3.27345,-1.52387 -7.34961,-2.63672 -2.03808,-0.55643 -4.29117,-1.05823 -6.50586,-1.17383 z"
           id="path8049" />
        <path
           style="color:#000000;fill:#ffde55;stroke-linecap:round;stroke-linejoin:round;stroke-miterlimit:10;-inkscape-stroke:none"
           d="m 119.1543,133.40039 a 1.5,1.5 0 0 0 -1.5,1.5 v 17 a 1.5,1.5 0 0 0 1.5,1.5 1.5,1.5 0 0 0 1.5,-1.5 v -17 a 1.5,1.5 0 0 0 -1.5,-1.5 z"
           id="path8051" />
        <path
           d="m 133.137,174.7 c -2.796,2.7 -6.628,4.4 -10.978,4.4 -8.39,0 -15.329,-6.6 -15.329,-14.8 0,-8.1 6.836,-14.8 15.329,-14.8 4.246,0 8.182,1.7 10.978,4.4 -1.864,-1 -3.935,-1.6 -6.214,-1.6 -6.836,0 -12.429,5.4 -12.429,12 0,6.6 5.593,12 12.429,12 2.279,0.1 4.35,-0.5 6.214,-1.6 z"
           fill="#ffde55"
           id="path8053" />
        <path
           d="m 119.156,170.3 c 3.374,0 6.11,-2.641 6.11,-5.9 0,-3.258 -2.736,-5.9 -6.11,-5.9 -3.375,0 -6.111,2.642 -6.111,5.9 0,3.259 2.736,5.9 6.111,5.9 z"
           fill="#ff6b57"
           id="path8055" />
        <path
           d="m 237.331,154.1 c -1.864,-1 -3.936,-1.6 -6.214,-1.6 -1.657,0 -3.107,0.3 -4.557,0.9 0.207,-1.2 0.517,-2.4 0.621,-3.6 4.039,0.1 7.561,1.7 10.15,4.3 z"
           fill="#ffde55"
           id="path8057" />
        <path
           d="m 237.434,174.7 c -2.797,2.7 -6.629,4.4 -10.979,4.4 -4.35,0 -8.389,-1.8 -11.185,-4.7 1.657,-1.8 3.107,-3.6 4.453,-5.4 1.864,4.3 6.318,7.2 11.393,7.2 2.279,0.2 4.454,-0.4 6.318,-1.5 z"
           fill="#ffde55"
           id="path8059" />
        <path
           d="m 229.563,164.4 c 0,3.3 -2.693,5.9 -6.111,5.9 -1.346,0 -2.589,-0.4 -3.625,-1.2 2.382,-3.4 4.143,-6.9 5.282,-10.3 2.486,0.6 4.454,2.9 4.454,5.6 z"
           fill="#ff6b57"
           id="path8061" />
      </g>
    </g>
  </g>
</svg>
