<?xml version="1.0" encoding="UTF-8" standalone="no"?>
<!-- Created with Inkscape (http://www.inkscape.org/) -->

<svg
   width="79.375mm"
   height="79.375mm"
   viewBox="0 0 79.375 79.375"
   version="1.1"
   id="svg5"
   xmlns="http://www.w3.org/2000/svg"
   xmlns:svg="http://www.w3.org/2000/svg">
  <defs
     id="defs2">
    <clipPath
       id="clip0_421_1274">
      <rect
         width="300"
         height="300"
         fill="#ffffff"
         id="rect903"
         x="0"
         y="0" />
    </clipPath>
    <clipPath
       id="clip0_421_1274-3">
      <rect
         width="300"
         height="300"
         fill="#ffffff"
         id="rect1539"
         x="0"
         y="0" />
    </clipPath>
    <clipPath
       id="clip0_421_1274-35">
      <rect
         width="300"
         height="300"
         fill="#ffffff"
         id="rect1928"
         x="0"
         y="0" />
    </clipPath>
    <clipPath
       id="clip0_421_1274-8">
      <rect
         width="300"
         height="300"
         fill="#ffffff"
         id="rect2361"
         x="0"
         y="0" />
    </clipPath>
    <linearGradient
       id="paint0_linear_421_1274"
       x1="121.039"
       y1="222.77901"
       x2="121.039"
       y2="132.015"
       gradientUnits="userSpaceOnUse">
      <stop
         stop-color="#FF7300"
         id="stop2716" />
      <stop
         offset="0.1086"
         stop-color="#FF8D08"
         id="stop2718" />
      <stop
         offset="0.2899"
         stop-color="#FFB214"
         id="stop2720" />
      <stop
         offset="0.4716"
         stop-color="#FFCF1E"
         id="stop2722" />
      <stop
         offset="0.6514"
         stop-color="#FFE325"
         id="stop2724" />
      <stop
         offset="0.8286"
         stop-color="#FFF029"
         id="stop2726" />
      <stop
         offset="1"
         stop-color="#FFF42A"
         id="stop2728" />
    </linearGradient>
    <linearGradient
       id="paint1_linear_421_1274"
       x1="121.04"
       y1="129.14799"
       x2="121.04"
       y2="139.46899"
       gradientUnits="userSpaceOnUse">
      <stop
         stop-color="#FF7300"
         id="stop2731" />
      <stop
         offset="0.1086"
         stop-color="#FF8D08"
         id="stop2733" />
      <stop
         offset="0.2899"
         stop-color="#FFB214"
         id="stop2735" />
      <stop
         offset="0.4716"
         stop-color="#FFCF1E"
         id="stop2737" />
      <stop
         offset="0.6514"
         stop-color="#FFE325"
         id="stop2739" />
      <stop
         offset="0.8286"
         stop-color="#FFF029"
         id="stop2741" />
      <stop
         offset="1"
         stop-color="#FFF42A"
         id="stop2743" />
    </linearGradient>
    <linearGradient
       id="paint2_linear_421_1274"
       x1="226.423"
       y1="222.77901"
       x2="226.423"
       y2="132.015"
       gradientUnits="userSpaceOnUse">
      <stop
         stop-color="#FF7300"
         id="stop2746" />
      <stop
         offset="0.1086"
         stop-color="#FF8D08"
         id="stop2748" />
      <stop
         offset="0.2899"
         stop-color="#FFB214"
         id="stop2750" />
      <stop
         offset="0.4716"
         stop-color="#FFCF1E"
         id="stop2752" />
      <stop
         offset="0.6514"
         stop-color="#FFE325"
         id="stop2754" />
      <stop
         offset="0.8286"
         stop-color="#FFF029"
         id="stop2756" />
      <stop
         offset="1"
         stop-color="#FFF42A"
         id="stop2758" />
    </linearGradient>
    <clipPath
       id="clip0_421_1274-6">
      <rect
         width="300"
         height="300"
         fill="#ffffff"
         id="rect2761"
         x="0"
         y="0" />
    </clipPath>
    <clipPath
       id="clip0_421_1274-9">
      <rect
         width="300"
         height="300"
         fill="#ffffff"
         id="rect3154"
         x="0"
         y="0" />
    </clipPath>
    <clipPath
       id="clip0_421_1274-61">
      <rect
         width="300"
         height="300"
         fill="#ffffff"
         id="rect3560"
         x="0"
         y="0" />
    </clipPath>
    <linearGradient
       id="paint0_linear_421_1274-3"
       x1="118.039"
       y1="225.166"
       x2="118.039"
       y2="137.532"
       gradientUnits="userSpaceOnUse">
      <stop
         stop-color="#FF7300"
         id="stop4079" />
      <stop
         offset="0.1086"
         stop-color="#FF8D08"
         id="stop4081" />
      <stop
         offset="0.2899"
         stop-color="#FFB214"
         id="stop4083" />
      <stop
         offset="0.4716"
         stop-color="#FFCF1E"
         id="stop4085" />
      <stop
         offset="0.6514"
         stop-color="#FFE325"
         id="stop4087" />
      <stop
         offset="0.8286"
         stop-color="#FFF029"
         id="stop4089" />
      <stop
         offset="1"
         stop-color="#FFF42A"
         id="stop4091" />
    </linearGradient>
    <linearGradient
       id="paint1_linear_421_1274-7"
       x1="118.04"
       y1="134.76401"
       x2="118.04"
       y2="144.729"
       gradientUnits="userSpaceOnUse">
      <stop
         stop-color="#FF7300"
         id="stop4094" />
      <stop
         offset="0.1086"
         stop-color="#FF8D08"
         id="stop4096" />
      <stop
         offset="0.2899"
         stop-color="#FFB214"
         id="stop4098" />
      <stop
         offset="0.4716"
         stop-color="#FFCF1E"
         id="stop4100" />
      <stop
         offset="0.6514"
         stop-color="#FFE325"
         id="stop4102" />
      <stop
         offset="0.8286"
         stop-color="#FFF029"
         id="stop4104" />
      <stop
         offset="1"
         stop-color="#FFF42A"
         id="stop4106" />
    </linearGradient>
    <linearGradient
       id="paint2_linear_421_1274-8"
       x1="223.423"
       y1="225.166"
       x2="223.423"
       y2="137.532"
       gradientUnits="userSpaceOnUse">
      <stop
         stop-color="#FF7300"
         id="stop4109" />
      <stop
         offset="0.1086"
         stop-color="#FF8D08"
         id="stop4111" />
      <stop
         offset="0.2899"
         stop-color="#FFB214"
         id="stop4113" />
      <stop
         offset="0.4716"
         stop-color="#FFCF1E"
         id="stop4115" />
      <stop
         offset="0.6514"
         stop-color="#FFE325"
         id="stop4117" />
      <stop
         offset="0.8286"
         stop-color="#FFF029"
         id="stop4119" />
      <stop
         offset="1"
         stop-color="#FFF42A"
         id="stop4121" />
    </linearGradient>
    <clipPath
       id="clip0_421_1274-4">
      <rect
         width="300"
         height="300"
         fill="#ffffff"
         id="rect4124"
         x="0"
         y="0" />
    </clipPath>
    <clipPath
       id="clip0_421_1274-2">
      <rect
         width="300"
         height="300"
         fill="#ffffff"
         id="rect4458"
         x="0"
         y="0" />
    </clipPath>
    <clipPath
       id="clip0_421_1274-1">
      <rect
         width="300"
         height="300"
         fill="#ffffff"
         id="rect4979"
         x="0"
         y="0" />
    </clipPath>
  </defs>
  <g
     id="layer1"
     transform="translate(-215.96399,-42.592059)">
    <g
       style="fill:none"
       id="g5036"
       transform="matrix(0.26458333,0,0,0.26458333,215.96399,42.592059)">
      <g
         clip-path="url(#clip0_421_1274-1)"
         id="g4977">
        <path
           id="rect4887"
           style="fill:#b5e2c9;fill-opacity:0.968627"
           d="M 0,0 H 300 V 300 H 0 Z" />
        <path
           d="m 251.148,266.099 c -0.775,0.553 -1.66,1.107 -2.434,1.66 -0.885,0.553 -1.66,1.106 -2.545,1.549 -0.775,0.443 -1.439,0.885 -2.213,1.328 -0.111,0.11 -0.221,0.11 -0.332,0.221 -2.545,1.549 -5.2,2.987 -7.856,4.315 -0.774,0.443 -1.66,0.885 -2.434,1.217 0,0 -0.111,0.111 -0.221,0.111 -0.886,0.443 -1.771,0.885 -2.656,1.328 -1.77,0.885 -3.651,1.659 -5.422,2.434 -0.885,0.443 -1.881,0.774 -2.766,1.106 -0.885,0.332 -1.881,0.775 -2.766,1.107 -0.885,0.332 -1.881,0.774 -2.766,1.106 0,0 0,0 -0.111,0 -0.885,0.332 -1.881,0.664 -2.766,0.996 -1.992,0.664 -4.094,1.328 -6.086,1.992 -0.663,0.221 -1.438,0.442 -2.102,0.664 -2.102,0.664 -4.204,1.217 -6.307,1.659 -0.774,0.222 -1.549,0.332 -2.434,0.554 -1.992,0.442 -4.094,0.885 -6.085,1.327 -0.443,0.111 -0.775,0.111 -1.218,0.222 -0.663,0.11 -1.438,0.221 -2.102,0.332 -0.996,0.11 -1.881,0.332 -2.877,0.442 -0.442,0.111 -0.885,0.111 -1.327,0.222 -0.554,0.11 -1.218,0.221 -1.881,0.221 -1.771,0.221 -3.652,0.442 -5.422,0.664 -0.553,0.11 -1.217,0.11 -1.77,0.221 h -0.111 c -0.775,0.111 -1.549,0.111 -2.324,0.221 -0.774,0.111 -1.549,0.111 -2.323,0.111 -0.443,0 -0.996,0.111 -1.439,0.111 -0.885,0 -1.659,0.11 -2.434,0.11 -1.106,0 -2.102,0.111 -3.209,0.111 -1.106,0 -2.102,0 -3.208,0 -0.775,0 -1.55,0 -2.324,0 -46.582,-0.664 -88.6281,-20.47 -118.5027,-51.893 0,0 0,-0.111 -0.1106,-0.111 3.43,-6.75 16.1544,-18.921 29.432,-28.99 16.8183,-12.724 40.6073,-20.58 40.6073,-20.58 0,0 15.601,-2.545 73.469,9.516 44.149,9.294 62.958,47.025 69.376,64.396 z"
           fill="#f7d3b5"
           id="path4889" />
        <path
           d="m 194.054,232.352 c -2.324,11.397 -17.371,18.146 -42.71,7.966 -31.091,-12.613 -43.041,-48.131 -43.041,-48.131 -1.66,-25.449 -5.532,-47.246 -5.532,-47.246 35.96,-3.098 78.448,38.948 78.448,38.948 l 4.869,20.801 c 0.442,1.771 1.327,3.32 2.655,4.426 2.324,3.983 6.86,15.933 5.311,23.236 z"
           fill="#f7d3b5"
           id="path4891" />
        <path
           d="m 188.743,209.227 c -21.133,-1.107 -36.735,-4.205 -53.442,-34.19 14.163,12.503 30.87,17.261 48.463,19.474 l 2.324,10.179 c 0.442,1.881 1.327,3.43 2.655,4.537 z"
           fill="#efbda5"
           id="path4893" />
        <path
           d="m 232.449,75.8974 c 1.991,9.2944 2.987,16.8183 -2.435,41.6036 -5.421,24.784 4.979,49.569 -21.133,72.252 -17.593,15.269 -48.353,18.146 -72.916,1.438 -8.299,-5.643 -15.934,-13.499 -22.13,-23.789 C 108.967,159.325 103.324,151.69 97.0169,144.72 88.2758,135.204 77.7644,116.062 82.9648,82.2043 91.3739,27.1022 145.923,20.7954 178.121,26.8809 c 32.198,6.0856 48.906,24.453 54.328,49.0165 z"
           fill="#f7d3b5"
           id="path4895" />
        <path
           d="m 126.56,119.16 c 0,0 -3.43,-16.597 -19.585,-14.605 -13.9411,1.77 -18.8096,35.186 12.835,44.48"
           fill="#f7d3b5"
           id="path4897" />
        <path
           style="color:#000000;fill:#423232;stroke-linecap:round;stroke-linejoin:round;stroke-miterlimit:10;-inkscape-stroke:none"
           d="m 110.88672,115.47656 c -0.79876,-0.0615 -1.54581,0.026 -2.22266,0.25 -1.3537,0.44791 -2.33004,1.3892 -2.98047,2.36914 -0.65042,0.97995 -1.01635,2.01625 -1.22656,2.90039 -0.1051,0.44208 -0.16984,0.84509 -0.20117,1.20313 -0.0313,0.35804 -0.0757,0.59147 0.0488,1.08789 a 1.5,1.5 0 0 0 1.81836,1.08984 1.5,1.5 0 0 0 1.09179,-1.82031 c 0.069,0.27517 0.0128,0.093 0.0293,-0.0957 0.0165,-0.18866 0.058,-0.46307 0.13086,-0.76953 0.14573,-0.61292 0.42177,-1.3547 0.80859,-1.9375 0.38683,-0.5828 0.84265,-0.98804 1.42188,-1.17969 0.57923,-0.19166 1.37958,-0.22332 2.65625,0.31055 a 1.50015,1.50015 0 0 0 0.01,0.004 c 0.73841,0.30186 1.17666,0.8189 1.49024,2.09571 0.31358,1.2768 0.34257,3.23267 0.0234,5.73242 a 1.50015,1.50015 0 0 0 -0.004,0.041 c -0.53623,5.3684 4.22656,8.38281 4.22656,8.38281 a 1.5,1.5 0 0 0 2.07032,-0.45703 1.5,1.5 0 0 0 -0.45508,-2.07226 c 0,0 -3.20519,-2.07505 -2.85742,-5.55664 0.33949,-2.68138 0.36852,-4.92077 -0.0898,-6.78711 -0.46068,-1.87573 -1.57151,-3.45864 -3.26562,-4.15235 -0.88024,-0.36719 -1.72715,-0.57737 -2.52344,-0.63867 z"
           id="path4899" />
        <path
           d="m 203.238,144.609 c 0,0 4.205,0.221 8.188,-4.536 2.213,-2.656 4.094,-5.975 2.877,-6.971 -1.217,-1.107 -21.244,1.991 -22.572,4.647 -1.328,2.655 6.417,6.86 11.507,6.86 z"
           fill="#efbda5"
           id="path4901" />
        <path
           style="color:#000000;fill:#423232;stroke-linecap:round;stroke-linejoin:round;stroke-miterlimit:10;-inkscape-stroke:none"
           d="m 206.52734,105.93164 a 1.5,1.5 0 0 0 -1.46875,1.53125 c 0,0 0.23478,10.90454 7.16993,22.95703 h -0.002 c 1.15429,2.0088 0.91411,4.81516 -0.82812,7.4043 -1.74224,2.58913 -4.94547,4.85893 -9.48242,5.52148 a 1.5,1.5 0 0 0 -1.26758,1.70117 1.5,1.5 0 0 0 1.70117,1.26758 c 5.31004,-0.77545 9.2961,-3.48409 11.53711,-6.81445 2.24101,-3.33036 2.77512,-7.38497 0.9414,-10.57617 -6.56284,-11.40549 -6.76953,-21.52344 -6.76953,-21.52344 a 1.5,1.5 0 0 0 -1.53125,-1.46875 z"
           id="path4903" />
        <path
           opacity="0.42"
           d="m 146.587,150.252 c 6.294,0 11.397,-4.211 11.397,-9.405 0,-5.194 -5.103,-9.405 -11.397,-9.405 -6.294,0 -11.397,4.211 -11.397,9.405 0,5.194 5.103,9.405 11.397,9.405 z"
           fill="#ed938a"
           id="path4905" />
        <path
           opacity="0.42"
           d="m 228.244,131.663 c -0.332,6.197 -0.221,12.282 -0.664,18.368 -4.868,-1.107 -8.409,-4.758 -8.409,-9.073 0,-4.647 3.873,-8.409 9.073,-9.295 z"
           fill="#ed938a"
           id="path4907" />
        <path
           d="M 290.162,335.431 H 6.85156 c 0,0 1.68104,-52 18.71554,-89.095 12.8879,-28.017 43.2586,-43.595 65.8965,-51.664 6.388,-2.241 12.2154,-3.922 16.6984,-5.155 0,0.561 0.112,1.009 0.112,1.569 0,0 12.103,35.974 43.595,48.75 25.664,10.423 40.905,3.474 43.258,-8.069 1.457,-7.396 -3.138,-19.5 -5.491,-23.422 -1.345,-1.121 -2.241,-2.802 -2.69,-4.483 l -0.896,-3.698 c 2.129,-0.448 4.146,-1.009 6.164,-1.681 0.672,-0.224 1.232,-0.449 1.905,-0.673 14.457,3.811 36.198,12.888 61.862,34.405 29.026,24.319 34.181,103.216 34.181,103.216 z"
           fill="#444444"
           id="path4909" />
        <path
           d="m 142.118,251.603 c -38.663,-17.37 -53.6807,-48.413 -50.7669,-56.819 0,0 0,-0.112 0.1121,-0.224 2.0172,-4.146 5.2672,-7.508 9.3018,-9.862 2.241,-1.345 4.707,-2.577 6.724,-3.25 0.112,1.569 0.56,6.5 0.672,8.181 0,0.561 7.285,28.242 38.776,41.018 25.664,10.422 41.13,3.81 42.811,-7.845 1.905,-12.888 -4.931,-22.414 -4.931,-22.414 2.129,-0.448 5.491,-1.233 7.508,-1.905 4.931,5.939 9.974,11.879 11.88,27.569 2.689,22.526 -22.078,43.482 -62.087,25.551 z"
           fill="#444444"
           id="path4911" />
        <path
           style="color:#000000;fill:#544d4d;stroke-linecap:round;stroke-linejoin:round;stroke-miterlimit:10;-inkscape-stroke:none"
           d="m 57.101562,292.47656 a 1.5,1.5 0 0 0 -1.308593,1.66992 l 5.042968,41.46485 a 1.5,1.5 0 0 0 1.669922,1.30859 1.5,1.5 0 0 0 1.308594,-1.66992 l -5.042969,-41.46484 a 1.5,1.5 0 0 0 -1.669922,-1.3086 z"
           id="path4913" />
        <path
           style="color:#000000;fill:#544d4d;stroke-linecap:round;stroke-linejoin:round;stroke-miterlimit:10;-inkscape-stroke:none"
           d="m 258.56836,278.3457 a 1.5,1.5 0 0 0 -1.95703,0.81641 c 0,0 -3.5285,8.41387 -2.45508,17.11719 1.03013,8.35236 3.88678,19.93831 -0.20117,38.83398 a 1.5,1.5 0 0 0 1.14844,1.7832 1.5,1.5 0 0 0 1.7832,-1.14843 c 4.20404,-19.4323 1.23396,-31.82632 0.24609,-39.83594 -0.94458,-7.65867 2.25196,-15.60938 2.25196,-15.60938 a 1.5,1.5 0 0 0 -0.81641,-1.95703 z"
           id="path4915" />
        <path
           style="color:#000000;fill:#ffffff;stroke-linecap:round;stroke-linejoin:round;stroke-miterlimit:10;-inkscape-stroke:none"
           d="m 111.38672,198.33984 c -3.47882,2.23195 -5.85561,6.49715 -7.54492,10.19336 -1.50629,3.29574 -2.15334,5.56494 -2.33008,6.15625 -1.774599,0.62189 -10.964281,4.12981 -20.357423,13.83399 -10.40134,10.74575 -20.61593,28.97091 -20.105469,58.4082 1.008011,58.13001 0,113.80859 0,113.80859 a 1.5,1.5 0 0 0 1.472656,1.52735 1.5,1.5 0 0 0 1.527344,-1.47266 c 0,0 1.009187,-55.71814 0,-113.91601 -0.498138,-28.72665 9.348726,-46.02836 19.259766,-56.26758 9.91104,-10.23922 19.810546,-13.32617 19.810546,-13.32617 a 1.50015,1.50015 0 0 0 0.99219,-1.01758 c 0,0 0.8703,-3.0103 2.45898,-6.48633 1.58868,-3.47603 3.97438,-7.33697 6.43555,-8.91602 a 1.5,1.5 0 0 0 0.45312,-2.07226 1.5,1.5 0 0 0 -2.07226,-0.45313 z"
           id="path4917" />
        <path
           style="color:#000000;fill:#ffffff;stroke-linecap:round;stroke-linejoin:round;stroke-miterlimit:10;-inkscape-stroke:none"
           d="m 133.60156,221.59961 a 1.5,1.5 0 0 0 -2.09961,0.30469 c -5.28789,7.08449 -5.85743,13.56547 -5.95117,14.96289 -0.12877,0.0668 -0.22698,0.0909 -0.36914,0.18164 -0.75757,0.48384 -1.68589,1.32546 -2.70703,2.78711 -2.04229,2.9233 -4.49186,8.33018 -6.73047,18.72265 -4.47722,20.78494 -8.07488,61.5711 -4.82226,142.26953 a 1.5,1.5 0 0 0 1.55859,1.4375 1.5,1.5 0 0 0 1.4375,-1.55859 c -3.24738,-80.5684 0.3835,-121.20131 4.75976,-141.51758 2.18814,-10.15813 4.57184,-15.22428 6.25586,-17.63476 0.84201,-1.20524 1.50016,-1.74465 1.86329,-1.97657 0.18156,-0.11595 0.28981,-0.1571 0.32226,-0.16796 0.0324,-0.0109 -0.13086,0.0176 -0.13086,0.0176 a 1.50015,1.50015 0 0 0 1.38867,-1.45312 c 0,0 0.20488,-7.14197 5.5293,-14.27539 a 1.5,1.5 0 0 0 -0.30469,-2.09961 z"
           id="path4919" />
        <path
           style="color:#000000;fill:#ffffff;stroke-linecap:round;stroke-linejoin:round;stroke-miterlimit:10;-inkscape-stroke:none"
           d="m 159.01172,233.08984 a 1.5,1.5 0 0 0 -1.22461,1.73243 c 1.14522,6.66682 -0.88281,16.23242 -0.88281,16.23242 a 1.50015,1.50015 0 0 0 -0.0352,0.38086 c 0,0 1.0366,27.72227 1.55469,60.24609 0.51808,32.52382 0.50439,69.91038 -1.54688,88.92383 a 1.5,1.5 0 0 0 1.33203,1.65234 1.5,1.5 0 0 0 1.65039,-1.33008 c 2.09573,-19.42551 2.08312,-56.7326 1.56446,-89.29296 -0.51736,-32.47813 -1.54752,-60.02047 -1.55274,-60.16016 0.0837,-0.36964 2.16592,-9.63384 0.87305,-17.16016 a 1.5,1.5 0 0 0 -1.73242,-1.22461 z"
           id="path4921" />
        <path
           style="color:#000000;fill:#ffffff;stroke-linecap:round;stroke-linejoin:round;stroke-miterlimit:10;-inkscape-stroke:none"
           d="m 185.32617,229.17187 a 1.5,1.5 0 0 0 -0.96094,0.62696 1.5,1.5 0 0 0 0.38868,2.08594 c 2.60394,1.78415 4.3989,5.06504 5.46289,7.95117 1.06399,2.88613 1.4082,5.25781 1.4082,5.25781 a 1.50015,1.50015 0 0 0 0.19922,0.55664 c 0,0 5.50593,9.11947 10.5332,33.18359 5.02728,24.06412 9.4776,62.91325 7.07227,121.8711 a 1.5,1.5 0 0 0 1.4375,1.56054 1.5,1.5 0 0 0 1.56054,-1.4375 c 2.41367,-59.16203 -2.04584,-98.25759 -7.13281,-122.60742 -4.99986,-23.93291 -10.58363,-33.51179 -10.77734,-33.84179 -0.0365,-0.24243 -0.36437,-2.54201 -1.48438,-5.58008 -1.17725,-3.19337 -3.13693,-7.02683 -6.58398,-9.38867 a 1.5,1.5 0 0 0 -1.12305,-0.23829 z"
           id="path4923" />
        <path
           style="color:#000000;fill:#ffffff;stroke-linecap:round;stroke-linejoin:round;stroke-miterlimit:10;-inkscape-stroke:none"
           d="m 189.0957,208.97656 a 1.5,1.5 0 0 0 -1.40429,1.58985 1.5,1.5 0 0 0 1.58789,1.40429 c 2.92051,-0.17962 5.94762,1.90507 8.23242,4.25586 2.2848,2.3508 3.72265,4.76367 3.72265,4.76367 a 1.50015,1.50015 0 0 0 0.72852,0.625 c 0,0 8.96659,3.5947 19.4707,14.49805 10.50411,10.90335 22.42343,29.04653 27.91797,58.13086 11.04024,58.43517 2.24024,106.25195 2.24024,106.25195 a 1.5,1.5 0 0 0 1.20312,1.7461 1.5,1.5 0 0 0 1.74805,-1.20313 c 0,0 8.90559,-48.33684 -2.24414,-107.35156 -5.59945,-29.63962 -17.83221,-48.36817 -28.70508,-59.6543 -10.44122,-10.83806 -19.29555,-14.62803 -20.01758,-14.93164 -0.29679,-0.48466 -1.62352,-2.61211 -3.91211,-4.96679 -2.56219,-2.6362 -6.20488,-5.42658 -10.56836,-5.15821 z"
           id="path4925" />
        <path
           style="color:#000000;fill:#ffffff;stroke-linecap:round;stroke-linejoin:round;stroke-miterlimit:10;-inkscape-stroke:none"
           d="m 45.677734,218.72461 a 1.5,1.5 0 0 0 -1.4375,1.56055 c 0,0 0.230217,5.89974 3.927735,11.78906 3.605042,5.74202 10.716278,11.44584 23.509765,11.7832 0.520267,1.27458 3.337339,7.95353 9.789063,14.73438 6.942226,7.29636 17.935978,13.91073 33.197263,11.4082 0.75589,1.15636 4.81924,7.20635 12.20117,11.83008 7.94125,4.97405 19.51624,7.36575 32.39258,-1.94727 1.16965,0.67183 7.3383,4.12715 15.82031,5.42383 9.08583,1.38899 20.32925,-0.33119 27.88477,-11.68359 1.39766,0.33428 7.42593,1.67524 14.65039,0.0801 4.05347,-0.895 8.29033,-2.77629 11.68945,-6.39648 3.24324,-3.45416 5.61984,-8.51441 6.49024,-15.49023 1.21463,-0.34414 4.20886,-1.31822 7.47265,-4.47071 4.0058,-3.86918 7.52865,-10.7522 6.02149,-21.94336 a 1.5,1.5 0 0 0 -1.6875,-1.28515 1.5,1.5 0 0 0 -1.28711,1.68554 c 1.40584,10.43882 -1.73991,16.10946 -5.13086,19.38477 -3.39095,3.27531 -7.0332,4.05273 -7.0332,4.05273 a 1.50015,1.50015 0 0 0 -1.17774,1.31641 c -0.70268,7.00174 -2.95094,11.60188 -5.85547,14.69531 -2.90452,3.09343 -6.52723,4.72149 -10.15039,5.52149 -7.2463,1.59998 -14.28125,-0.22266 -14.28125,-0.22266 a 1.50015,1.50015 0 0 0 -1.6582,0.6582 c -6.90742,11.1373 -16.85767,12.45115 -25.49414,11.13086 -8.63647,-1.32029 -15.60938,-5.46289 -15.60938,-5.46289 a 1.50015,1.50015 0 0 0 -1.67578,0.0918 c -12.3506,9.37123 -22.3753,6.96397 -29.78906,2.32031 -7.41376,-4.64366 -11.85156,-11.67187 -11.85156,-11.67187 a 1.50015,1.50015 0 0 0 -1.54883,-0.67774 C 100.34492,269.69766 90.279664,263.50115 83.640625,256.52344 77.001586,249.54572 74.035156,241.875 74.035156,241.875 a 1.50015,1.50015 0 0 0 -1.392578,-0.96094 c -12.575496,-0.0542 -18.684821,-5.25787 -21.935547,-10.43554 -3.250725,-5.17768 -3.46875,-10.31446 -3.46875,-10.31446 a 1.5,1.5 0 0 0 -1.560547,-1.43945 z"
           id="path4927" />
        <path
           style="color:#000000;fill:#ffffff;stroke-linecap:round;stroke-linejoin:round;stroke-miterlimit:10;-inkscape-stroke:none"
           d="m 72.642578,201.62891 a 1.5,1.5 0 0 0 -2.017578,0.6582 c 0,0 -2.001724,3.95237 -1.296875,9.25391 0.689068,5.18284 4.127095,11.64973 13.679687,17.01757 0.172999,1.00202 1.068938,5.65174 5.423829,11.22071 4.791315,6.12705 13.629549,12.75323 29.298829,15.22461 1.12466,1.33818 16.98366,19.59976 41.1289,12.83203 0.70914,0.27999 7.85186,3.06391 16.54493,3.6289 4.56624,0.29678 9.47725,-0.0434 13.92187,-1.85156 4.20293,-1.70986 7.91889,-4.86313 10.31445,-9.77344 1.2448,-0.0394 6.36081,-0.29429 11.81055,-3.41797 6.04571,-3.46527 11.56392,-10.70529 9.75977,-23.80078 0.55817,-0.68905 2.12086,-2.73505 3.18164,-6.49804 1.2638,-4.48318 1.48477,-10.95963 -2.3711,-18.67188 a 1.5,1.5 0 0 0 -2.01367,-0.67187 1.5,1.5 0 0 0 -0.66992,2.01172 c 3.54013,7.08073 3.25571,12.65201 2.16602,16.51757 -1.0897,3.86556 -2.94727,5.90039 -2.94727,5.90039 a 1.50015,1.50015 0 0 0 -0.36914,1.23438 c 1.94608,12.59427 -2.88889,18.31444 -8.22852,21.375 -5.33962,3.06056 -11.25195,3.12109 -11.25195,3.12109 a 1.50015,1.50015 0 0 0 -1.36914,0.90039 c -2.06267,4.72599 -5.29578,7.42996 -9.14062,8.99414 -3.84485,1.56419 -8.32649,1.91445 -12.59961,1.63672 -8.54625,-0.55545 -16.10938,-3.57812 -16.10938,-3.57812 a 1.50015,1.50015 0 0 0 -0.98242,-0.0469 c -23.54364,6.91247 -38.86719,-12.16797 -38.86719,-12.16797 a 1.50015,1.50015 0 0 0 -0.94336,-0.54101 c -15.36801,-2.30525 -23.501421,-8.57975 -27.900388,-14.20508 -4.398967,-5.62533 -5.017578,-10.50586 -5.017578,-10.50586 a 1.50015,1.50015 0 0 0 -0.773438,-1.125 c -9.435756,-5.09773 -12.119175,-10.76405 -12.703125,-15.15625 -0.58395,-4.3922 1,-7.5 1,-7.5 a 1.5,1.5 0 0 0 -0.658203,-2.01562 z"
           id="path4929" />
        <path
           style="color:#000000;fill:#ffffff;stroke-linecap:round;stroke-linejoin:round;stroke-miterlimit:10;-inkscape-stroke:none"
           d="m 91.740234,193.19727 a 1.5,1.5 0 0 0 -1.75,1.19921 c 0,0 -0.645001,3.49451 0.556641,8.01563 1.166146,4.38756 4.183981,9.84494 10.888675,14.28711 0.10664,0.96838 0.55982,4.22226 3.40429,8.50195 3.25426,4.89623 9.54754,10.53532 21.15235,13.9961 0.8914,1.22723 11.68624,15.45779 32.25976,13.67578 0.43036,0.15774 6.56673,2.38524 14.1211,2.76367 3.91127,0.19593 8.16248,-0.11525 12.11132,-1.57422 3.83816,-1.41807 7.36846,-3.9993 9.81446,-8.11328 0.49217,-0.29159 3.88493,-2.34723 6.87695,-6.48047 3.15515,-4.3586 5.51683,-11.04083 2.74609,-19.4082 0.16649,-0.94676 2.06202,-12.84424 -7.39648,-22.30274 a 1.5,1.5 0 0 0 -2.12109,0 1.5,1.5 0 0 0 0,2.1211 c 8.75676,8.75676 6.53515,19.94336 6.53515,19.94336 a 1.50015,1.50015 0 0 0 0.0566,0.7871 c 2.69536,7.66262 0.55969,13.21825 -2.25,17.09961 -2.80969,3.88137 -6.26757,5.86719 -6.26757,5.86719 a 1.50015,1.50015 0 0 0 -0.56055,0.56445 c -2.0887,3.68733 -5.05633,5.84521 -8.47266,7.10743 -3.41633,1.26222 -7.28241,1.57489 -10.92187,1.39257 -7.27894,-0.36463 -13.51953,-2.66796 -13.51953,-2.66796 a 1.50015,1.50015 0 0 0 -0.66602,-0.0859 c -20.1809,1.94327 -30.22461,-12.80664 -30.22461,-12.80664 a 1.50015,1.50015 0 0 0 -0.82031,-0.58985 c -11.36767,-3.27897 -17.03846,-8.56099 -19.95508,-12.94921 -2.91661,-4.38823 -3.05664,-7.76368 -3.05664,-7.76368 a 1.50015,1.50015 0 0 0 -0.69727,-1.19336 c -6.525784,-4.11856 -9.098887,-9.03123 -10.138668,-12.94336 -1.03978,-3.91212 -0.507812,-6.6914 -0.507812,-6.6914 a 1.5,1.5 0 0 0 -1.197266,-1.75195 z"
           id="path4931" />
        <path
           d="m 187.544,265.326 c 0.037,-3.218 -2.491,-5.857 -5.648,-5.893 -3.156,-0.037 -5.745,2.542 -5.782,5.76 -0.038,3.218 2.491,5.857 5.647,5.894 3.156,0.036 5.745,-2.543 5.783,-5.761 z"
           fill="#ffffff"
           id="path4933" />
        <path
           d="m 194.118,280.517 c 0.785,5.94 -3.138,11.431 -8.741,12.104 -5.603,0.784 -10.759,-3.474 -11.543,-9.526 -0.785,-5.94 2.802,-14.121 8.405,-14.905 5.604,-0.785 11.095,6.388 11.879,12.327 z"
           fill="#ffffff"
           id="path4935" />
        <path
           d="m 179.549,273.457 c -0.224,0.224 -0.336,0.336 -0.448,0.448 -0.112,0.112 -0.336,0.112 -0.448,0.224 -0.336,0.112 -0.561,0.224 -0.897,0.337 -0.56,0.224 -1.121,0.336 -1.793,0.448 -1.121,0.224 -2.353,0.336 -3.474,0.448 -1.121,0 -2.354,0 -3.586,-0.224 -0.673,-0.112 -1.233,-0.224 -2.018,-0.56 -0.336,-0.112 -0.784,-0.337 -1.344,-0.785 -0.224,-0.112 -0.337,-0.336 -0.561,-0.448 -0.224,-0.224 -0.448,-0.673 -0.672,-0.897 -0.112,-0.448 -0.336,-0.784 -0.336,-1.232 -0.112,-0.897 0,-1.569 0,-2.242 0.112,-0.672 0.112,-1.233 0.224,-1.793 0.224,-1.121 0.56,-2.241 0.896,-3.25 0.785,-2.129 1.793,-4.259 3.362,-6.164 v -0.112 c 0,-0.112 0.113,-0.112 0.225,0 l 0.112,0.112 -1.009,6.5 c -0.224,2.13 -0.672,4.371 -0.448,6.388 0,0.112 0,0.224 0.112,0.336 0,0 0.112,0.112 0.112,0.225 0.224,0.112 0.448,0.224 0.672,0.336 0.449,0.224 1.009,0.336 1.457,0.56 1.009,0.336 2.13,0.448 3.138,0.672 1.121,0.225 2.129,0.337 3.25,0.449 0.56,0.112 1.121,0.112 1.569,0.112 0.224,0 0.56,0 0.785,0 0.224,0 0.56,0 0.672,-0.112 h 0.112 c 0.112,0 0.224,0 0.224,0.112 0.112,0 0.112,0 0.112,0.112 z"
           fill="#ffffff"
           id="path4937" />
        <path
           d="m 178.653,279.957 c -2.017,1.569 -4.371,2.577 -6.724,3.25 -2.354,0.672 -4.819,1.009 -7.509,0.672 h -0.224 l -0.336,-0.112 -0.673,-0.224 c -0.448,-0.112 -0.896,-0.336 -1.345,-0.56 l -0.56,-0.336 -0.448,-0.449 c -0.336,-0.224 -0.673,-0.56 -0.897,-0.784 -1.12,-1.121 -1.793,-2.466 -2.241,-3.698 -0.897,-2.466 -1.121,-5.044 -0.56,-7.621 v -0.112 c 0,-0.112 0.112,-0.112 0.224,-0.112 0.112,0 0.112,0.112 0.112,0.112 0.336,1.12 0.672,2.241 1.12,3.25 0.449,1.12 0.897,2.129 1.457,3.138 1.121,1.905 2.69,3.81 4.931,4.146 2.242,0.336 4.595,0.224 6.837,0 2.241,-0.224 4.594,-0.448 6.836,-0.896 0.112,0 0.224,0 0.224,0.112 0,0.112 -0.112,0.112 -0.224,0.224 z"
           fill="#ffffff"
           id="path4939" />
        <path
           d="m 177.196,285.56 c -2.465,1.121 -4.707,2.018 -6.5,3.138 -0.896,0.561 -1.569,1.121 -2.017,1.681 -0.112,0.112 -0.224,0.337 -0.336,0.449 -0.112,0.112 -0.112,0.336 -0.224,0.448 -0.113,0.112 -0.113,0.336 -0.225,0.448 l -0.112,0.224 c 0,0.112 0,0.224 -0.112,0.336 -0.448,1.569 -0.448,3.587 -0.336,5.828 0.224,2.241 0.56,4.595 0.672,7.285 v 0.112 c 0,0.112 -0.112,0.112 -0.112,0.224 -0.112,0 -0.112,0 -0.112,-0.112 -1.345,-2.13 -2.353,-4.371 -3.026,-6.837 -0.672,-2.353 -1.008,-4.931 -0.336,-7.508 0.336,-1.233 1.009,-2.466 2.017,-3.25 1.009,-0.897 2.13,-1.457 3.25,-1.905 2.354,-0.785 4.932,-1.009 7.397,-0.897 0.112,0 0.112,0.112 0.112,0.112 0.112,0.112 0.112,0.112 0,0.224 z"
           fill="#ffffff"
           id="path4941" />
        <path
           d="m 179.997,289.034 c -0.336,2.018 -0.784,3.587 -0.896,4.932 -0.112,0.672 0,1.232 0.112,1.568 0,0.113 0,0.225 0.112,0.225 0,0.112 0,0.112 0.112,0.224 0,0.112 0,0.112 0.112,0.224 l 0.224,0.448 c 0.673,1.345 1.233,2.914 1.793,4.483 0.449,1.681 0.897,3.362 1.009,5.491 v 0.112 c 0,0.112 -0.112,0.112 -0.112,0.112 0,0 -0.112,0 -0.112,-0.112 -1.009,-1.344 -2.017,-2.801 -3.026,-4.258 -0.897,-1.457 -1.793,-2.914 -2.578,-4.483 -0.336,-0.784 -0.672,-1.681 -0.56,-2.578 0,-0.896 0.224,-1.793 0.672,-2.577 0.785,-1.569 1.906,-3.026 3.138,-4.147 0.112,0 0.112,0 0.224,0 v 0.112 z"
           fill="#ffffff"
           id="path4943" />
        <path
           d="m 186.386,272.336 c 0.112,-0.112 0.336,-0.336 0.56,-0.56 l 0.672,-0.56 1.233,-1.121 c 0.897,-0.673 1.681,-1.345 2.578,-2.017 l 2.465,-1.794 c 0.336,-0.224 0.785,-0.56 1.009,-0.784 0.112,-0.112 0.224,-0.224 0.112,0 0,0 -0.112,0.112 -0.112,0.224 0,0 -0.112,0.112 -0.112,0.224 0,0.112 -0.112,0.224 -0.112,0.336 -0.112,0.225 -0.112,0.337 0,0.561 0,-0.112 -0.112,-0.561 -0.224,-1.009 l -0.337,-1.457 c -0.224,-1.008 -0.56,-2.017 -0.784,-3.138 -0.448,-2.129 -0.785,-4.37 -0.673,-6.836 v -0.112 c 0,-0.112 0.113,-0.112 0.113,-0.112 0.112,0 0.112,0 0.112,0.112 1.008,1.905 1.905,3.923 2.801,5.94 0.449,1.008 0.897,2.017 1.233,3.026 0.336,1.008 0.785,2.017 1.009,3.25 0,0.224 0,0.336 0,0.56 -0.112,0.224 -0.112,0.336 -0.224,0.448 -0.225,0.224 -0.449,0.449 -0.673,0.561 -0.448,0.336 -0.896,0.672 -1.457,0.896 -1.008,0.56 -1.905,1.009 -2.914,1.457 -1.008,0.448 -2.017,0.897 -3.025,1.233 -0.561,0.224 -1.009,0.336 -1.569,0.448 -0.225,0.112 -0.561,0.112 -0.785,0.224 -0.112,0 -0.224,0 -0.448,0.112 -0.112,0 -0.224,0.112 -0.56,-0.112 -0.113,-0.112 -0.113,-0.112 0,-0.224 -0.113,0.112 -0.001,0.112 0.112,0.224 z"
           fill="#ffffff"
           id="path4945" />
        <path
           d="m 188.627,278.276 c 2.242,-1.345 4.371,-2.242 6.5,-3.026 2.13,-0.785 4.259,-1.457 5.94,-2.129 l 0.112,-0.112 h 0.112 c 0,0 0.112,0 0.112,-0.112 0.112,0 0.224,-0.113 0.224,-0.225 l 0.112,-0.112 0.112,-0.224 c 0.112,-0.112 0.224,-0.224 0.337,-0.336 0.448,-0.56 1.008,-1.345 1.456,-2.353 0.897,-1.794 1.794,-4.035 2.914,-6.276 v -0.112 c 0,-0.112 0.112,-0.112 0.224,-0.112 l 0.112,0.112 c 0.113,2.353 0,4.706 -0.672,6.948 -0.336,1.121 -0.672,2.241 -1.345,3.25 -0.56,1.009 -1.569,1.905 -2.689,2.465 -2.242,0.897 -4.483,1.345 -6.837,1.794 -2.353,0.336 -4.594,0.672 -6.948,0.784 -0.112,0 -0.112,-0.112 -0.112,-0.112 0.224,0 0.224,0 0.336,-0.112 z"
           fill="#ffffff"
           id="path4947" />
        <path
           d="m 191.429,283.319 c 2.017,-1.905 4.595,-2.914 7.508,-3.138 1.457,-0.112 3.026,0.112 4.707,0.784 0.449,0.225 0.785,0.449 1.121,0.673 0.336,0.224 0.672,0.56 1.121,0.896 0.336,0.337 0.672,0.673 0.896,1.009 l 0.449,0.56 c 0.112,0.225 0.224,0.337 0.336,0.561 0.896,1.457 1.232,2.914 1.457,4.37 0.224,1.457 0.112,2.914 -0.112,4.259 -0.449,2.69 -1.457,5.267 -3.25,7.285 -0.113,0.112 -0.113,0.112 -0.225,0 0,0 -0.112,-0.113 0,-0.113 0.337,-1.232 0.561,-2.353 0.673,-3.586 0.112,-1.232 0.224,-2.465 0.224,-3.698 0,-2.466 -0.336,-4.931 -1.569,-6.948 -0.56,-1.009 -1.345,-1.905 -2.466,-2.466 -1.008,-0.56 -2.241,-0.784 -3.474,-0.896 -1.232,-0.112 -2.465,0 -3.586,0.112 -1.233,0.112 -2.465,0.336 -3.586,0.672 -0.112,0 -0.224,0 -0.224,-0.112 -0.112,-0.112 -0.112,-0.224 0,-0.224 z"
           fill="#ffffff"
           id="path4949" />
        <path
           d="m 189.859,287.466 c 2.13,-0.225 4.035,0.448 5.828,1.793 0.897,0.672 1.681,1.681 2.129,3.025 0.112,0.337 0.224,0.673 0.224,1.009 0.113,0.336 0.113,0.672 0.113,1.009 0,0.336 0,0.784 0,1.008 l -0.113,0.785 c -0.336,1.905 -1.008,3.586 -1.905,5.155 -1.008,1.569 -2.129,3.026 -3.81,4.259 h -0.112 c -0.112,0 -0.112,0 -0.224,0 v -0.112 c 0.56,-1.569 1.12,-3.25 1.569,-4.932 0.448,-1.681 0.896,-3.249 1.232,-4.931 0.225,-0.896 0.225,-1.569 0,-2.353 -0.224,-0.784 -0.56,-1.569 -1.12,-2.129 -1.009,-1.233 -2.354,-2.354 -3.811,-3.25 -0.112,0 -0.112,-0.112 0,-0.224 -0.112,-0.113 -0.112,-0.112 0,-0.112 z"
           fill="#ffffff"
           id="path4951" />
        <path
           d="m 77.4974,83.1313 c -4.448,32.4707 10.1192,54.8217 17.9032,64.1627 8.8964,10.675 9.6744,18.793 9.6744,18.793 4.559,-2.558 10.342,-14.012 10.453,-20.016 -27.8002,-10.676 -22.7962,-41.7 -9.23,-43.48 14.234,-1.779 18.682,10.898 19.46,14.012 3.559,-4.226 3.336,-28.2453 7.451,-43.2573 -17.904,6.4496 -36.8076,9.8968 -55.7116,9.7856 z"
           fill="#99807f"
           id="path4953" />
        <path
           d="M 219.167,41.3202 C 212.272,37.9842 206.379,30.9786 197.705,27.5314 146.998,6.95945 92.6212,27.9762 80.7228,68.5642 c -1.5568,5.1152 -2.5576,10.008 -3.2248,14.6784 18.904,0.1112 37.919,-3.4472 55.711,-9.7856 1.779,-6.4496 4.337,-11.3424 8.451,-12.232 21.462,-4.6704 41.589,-7.0056 67.054,-3.5584 9.452,1.3344 16.68,-3.0024 21.573,9.0072 0.778,2.3352 1.445,4.6704 2.001,7.1168 1.78,7.8952 2.669,14.5672 -0.333,31.4694 2.001,-3.225 4.559,-10.119 5.671,-16.0126 3.558,-20.7944 1.89,-38.1416 -18.459,-47.9272 z"
           fill="#423232"
           id="path4955" />
        <path
           d="m 233.289,78.461 c 1.112,5.3376 7.895,4.8928 8.896,-0.4448 1.445,-7.784 2.112,-17.1248 0.889,-27.6888 -5.782,-49.372817 -54.821,-66.0528 -45.369,-33.1376 0,0 -12.9,-20.68322 -41.923,-21.79522 -24.909,-0.8896 -9.785,16.79122 -9.785,16.79122 0,0 -30.469,-11.12002 -63.2732,5.56 C 54.1454,32.313 80.611,45.101 80.611,45.101 c 0,0 -21.684,11.4536 -22.0176,36.14 -0.2224,18.4592 59.4916,19.238 82.1766,5.7824 11.787,-7.0056 17.347,-19.1264 29.357,-26.2432 21.017,-12.5656 26.466,15.7904 37.697,5.3376 13.121,-12.0096 22.573,-2.4464 25.465,12.3432 z"
           fill="#423232"
           id="path4957" />
        <path
           d="m 170.433,116.047 c -2.4,-0.1 -4.2,-2.1 -4,-4.5 l 0.1,-2.8 c 0.1,-2.4 2.1,-4.2 4.5,-4 2.4,0.1 4.2,2.1 4,4.5 l -0.1,2.8 c -0.1,2.3 -2.1,4.1 -4.5,4 z"
           fill="#423232"
           id="path4959" />
        <path
           d="m 212.533,117.547 c -2.2,-0.1 -3.9,-2 -3.8,-4.2 l 0.1,-2.6 c 0.1,-2.2 2,-3.9 4.2,-3.8 2.2,0.1 3.9,2 3.8,4.2 l -0.1,2.6 c -0.1,2.2 -2,3.9 -4.2,3.8 z"
           fill="#423232"
           id="path4961" />
        <path
           style="color:#000000;fill:#423232;stroke-linecap:round;stroke-linejoin:round;stroke-miterlimit:10;-inkscape-stroke:none"
           d="m 170.05469,104.32227 c -1.04424,0.13379 -2.04404,0.40332 -2.95117,0.77343 -1.81427,0.74022 -3.39527,1.82974 -3.91211,3.63868 a 1.5,1.5 0 0 0 1.02929,1.85546 1.5,1.5 0 0 0 1.85547,-1.03125 c 0.0832,-0.29106 0.84943,-1.15077 2.16016,-1.68554 1.31073,-0.53478 3.02701,-0.79297 4.55664,-0.54492 a 1.50015,1.50015 0 0 0 0.01,0.002 c 3.79345,0.59009 6.10352,3.77929 6.10352,3.7793 a 1.5,1.5 0 0 0 2.08984,0.36523 1.5,1.5 0 0 0 0.36328,-2.08984 c 0,0 -2.88608,-4.20361 -8.08593,-5.01758 -0.001,-2.2e-4 -0.003,2.1e-4 -0.004,0 -1.08387,-0.17534 -2.17188,-0.17855 -3.21484,-0.0449 z"
           id="path4963" />
        <path
           style="color:#000000;fill:#423232;stroke-linecap:round;stroke-linejoin:round;stroke-miterlimit:10;-inkscape-stroke:none"
           d="m 214.23242,106.44727 c -2.64782,0 -4.39059,1.03977 -5.24219,2.22461 -0.85159,1.18483 -0.85742,2.47656 -0.85742,2.47656 a 1.5,1.5 0 0 0 1.5,1.5 1.5,1.5 0 0 0 1.5,-1.5 c 0,0 -0.005,-0.30944 0.29297,-0.72461 0.2984,-0.41517 0.85447,-0.97656 2.80664,-0.97656 2.87895,0 4.03711,2.625 4.03711,2.625 a 1.5,1.5 0 0 0 1.98633,0.74023 1.5,1.5 0 0 0 0.74219,-1.98828 c 0,0 -2.04458,-4.37695 -6.76563,-4.37695 z"
           id="path4965" />
        <path
           d="m 184.233,94.1474 c 2.1,0.7 4.2,-1.2 3.8,-3.5 -0.2,-1.2 -0.7,-2.4 -1.7,-3.3 -3,-2.7 -15.4,-5.1 -22.9,-1.6 -6.6,3.2 11.2,5.2 20.8,8.4 z"
           fill="#423232"
           id="path4967" />
        <path
           d="m 214.132,95.7475 c -1.7,0.6 -3.5,-1.2 -3.2,-3.3 0.1,-1.1 0.5,-2.2 1.3,-3 2.4,-2.4 10.6,-4.3 15.8,-0.6 4.5,3.1 -6.1,4 -13.9,6.9 z"
           fill="#423232"
           id="path4969" />
        <path
           d="m 199.997,159.218 c 0.1,3.3 -4.8,11.7 -14.3,7.8 -9.1,-3.7 -11.8,-21.1 1.2,-12.8 6.8,4.3 10.9,5 13.1,5 z"
           fill="#ffffff"
           id="path4971" />
        <path
           style="color:#000000;fill:#423232;stroke-linecap:round;stroke-linejoin:round;stroke-miterlimit:10;-inkscape-stroke:none"
           d="m 181.19922,150.48242 c -0.60811,0.005 -1.18195,0.10567 -1.72656,0.30469 -1.08924,0.39803 -1.92748,1.24869 -2.38282,2.22266 -0.45534,0.97396 -0.59296,2.05704 -0.54101,3.17773 0.20779,4.48232 3.31917,10.07999 8.58203,12.2207 5.18607,2.12732 9.53599,0.85121 12.28711,-1.48437 1.37594,-1.16812 2.38653,-2.56391 3.06445,-3.91797 0.42823,-0.85533 0.67937,-1.66784 0.83789,-2.46289 0.008,-0.001 0.0255,0.001 0.0332,0 0.71986,-0.13797 1.26367,-0.41016 1.26367,-0.41016 a 1.5,1.5 0 0 0 0.5957,-2.03515 1.5,1.5 0 0 0 -2.03711,-0.59571 c 0,0 0.0184,0.0161 -0.38672,0.0937 -0.40514,0.0777 -1.10697,0.14616 -2.16406,0.0195 -2.11418,-0.25326 -5.65799,-1.30032 -10.91992,-4.66211 l 0.004,0.004 c -2.5547,-1.64372 -4.68543,-2.4901 -6.50976,-2.47461 z m -0.69727,3.12305 c 0.67778,-0.24768 2.54026,-0.0853 5.58399,1.87305 a 1.50015,1.50015 0 0 0 0.004,0.004 c 5.45633,3.48599 9.34809,4.72986 12.03125,5.07422 -0.1131,0.40104 -0.087,0.63754 -0.32226,1.10742 -0.50958,1.01781 -1.29821,2.10328 -2.32227,2.97266 -2.04811,1.73876 -4.89697,2.76434 -9.20898,0.99414 a 1.50015,1.50015 0 0 0 -0.006,-0.002 c -3.83618,-1.55977 -6.57461,-6.51286 -6.7168,-9.58008 -0.0356,-0.76681 0.0839,-1.38491 0.26367,-1.76953 0.17982,-0.38463 0.35447,-0.54999 0.69336,-0.67383 z"
           id="path4973" />
        <path
           style="color:#000000;fill:#423232;stroke-linecap:round;stroke-linejoin:round;stroke-miterlimit:10;-inkscape-stroke:none"
           d="m 177.79687,155.24805 a 1.5,1.5 0 0 0 -0.95117,0.64257 1.5,1.5 0 0 0 0.42383,2.07813 c 0,0 1.73922,1.15301 3.75391,2.26367 1.00734,0.55533 2.08298,1.10324 3.09961,1.50781 1.01663,0.40458 1.87771,0.78696 3.06836,0.54883 l -0.082,0.0137 c 0.19502,-0.0279 0.0891,-0.0514 0.36719,0.10547 0.27814,0.15685 0.80433,0.54367 1.59571,0.96094 1.58275,0.83454 4.17522,1.69283 9.07812,1.84766 a 1.5,1.5 0 0 0 1.54492,-1.45118 1.5,1.5 0 0 0 -1.45117,-1.54687 c -4.59709,-0.14517 -6.6062,-0.8865 -7.77344,-1.50195 -0.58362,-0.30773 -0.96837,-0.60997 -1.52148,-0.92188 -0.55312,-0.31191 -1.40869,-0.58308 -2.26367,-0.46094 a 1.50015,1.50015 0 0 0 -0.082,0.0137 c 0.19064,-0.0381 -0.55023,-0.0679 -1.3711,-0.39454 -0.82087,-0.32667 -1.81906,-0.82994 -2.76172,-1.3496 -1.88531,-1.03934 -3.54687,-2.13672 -3.54687,-2.13672 a 1.5,1.5 0 0 0 -1.12696,-0.21875 z"
           id="path4975" />
      </g>
    </g>
  </g>
</svg>
