<?xml version="1.0" encoding="UTF-8" standalone="no"?>
<!-- Created with Inkscape (http://www.inkscape.org/) -->

<svg
   width="79.375mm"
   height="79.375mm"
   viewBox="0 0 79.375 79.375"
   version="1.1"
   id="svg5"
   sodipodi:docname="avatar-13.svg"
   inkscape:version="1.1.1 (3bf5ae0d25, 2021-09-20)"
   xmlns:inkscape="http://www.inkscape.org/namespaces/inkscape"
   xmlns:sodipodi="http://sodipodi.sourceforge.net/DTD/sodipodi-0.dtd"
   xmlns="http://www.w3.org/2000/svg"
   xmlns:svg="http://www.w3.org/2000/svg">
  <sodipodi:namedview
     id="namedview7"
     pagecolor="#ffffff"
     bordercolor="#999999"
     borderopacity="1"
     inkscape:pageshadow="0"
     inkscape:pageopacity="0"
     inkscape:pagecheckerboard="0"
     inkscape:document-units="mm"
     showgrid="false"
     inkscape:zoom="0.36168631"
     inkscape:cx="659.41119"
     inkscape:cy="-6.912067"
     inkscape:window-width="1920"
     inkscape:window-height="1001"
     inkscape:window-x="-9"
     inkscape:window-y="-9"
     inkscape:window-maximized="1"
     inkscape:current-layer="layer1" />
  <defs
     id="defs2">
    <clipPath
       id="clip0_421_1274">
      <rect
         width="300"
         height="300"
         fill="#ffffff"
         id="rect903"
         x="0"
         y="0" />
    </clipPath>
    <clipPath
       id="clip0_421_1274-3">
      <rect
         width="300"
         height="300"
         fill="#ffffff"
         id="rect1539"
         x="0"
         y="0" />
    </clipPath>
    <clipPath
       id="clip0_421_1274-35">
      <rect
         width="300"
         height="300"
         fill="#ffffff"
         id="rect1928"
         x="0"
         y="0" />
    </clipPath>
    <clipPath
       id="clip0_421_1274-8">
      <rect
         width="300"
         height="300"
         fill="#ffffff"
         id="rect2361"
         x="0"
         y="0" />
    </clipPath>
    <linearGradient
       id="paint0_linear_421_1274"
       x1="121.039"
       y1="222.77901"
       x2="121.039"
       y2="132.015"
       gradientUnits="userSpaceOnUse">
      <stop
         stop-color="#FF7300"
         id="stop2716" />
      <stop
         offset="0.1086"
         stop-color="#FF8D08"
         id="stop2718" />
      <stop
         offset="0.2899"
         stop-color="#FFB214"
         id="stop2720" />
      <stop
         offset="0.4716"
         stop-color="#FFCF1E"
         id="stop2722" />
      <stop
         offset="0.6514"
         stop-color="#FFE325"
         id="stop2724" />
      <stop
         offset="0.8286"
         stop-color="#FFF029"
         id="stop2726" />
      <stop
         offset="1"
         stop-color="#FFF42A"
         id="stop2728" />
    </linearGradient>
    <linearGradient
       id="paint1_linear_421_1274"
       x1="121.04"
       y1="129.14799"
       x2="121.04"
       y2="139.46899"
       gradientUnits="userSpaceOnUse">
      <stop
         stop-color="#FF7300"
         id="stop2731" />
      <stop
         offset="0.1086"
         stop-color="#FF8D08"
         id="stop2733" />
      <stop
         offset="0.2899"
         stop-color="#FFB214"
         id="stop2735" />
      <stop
         offset="0.4716"
         stop-color="#FFCF1E"
         id="stop2737" />
      <stop
         offset="0.6514"
         stop-color="#FFE325"
         id="stop2739" />
      <stop
         offset="0.8286"
         stop-color="#FFF029"
         id="stop2741" />
      <stop
         offset="1"
         stop-color="#FFF42A"
         id="stop2743" />
    </linearGradient>
    <linearGradient
       id="paint2_linear_421_1274"
       x1="226.423"
       y1="222.77901"
       x2="226.423"
       y2="132.015"
       gradientUnits="userSpaceOnUse">
      <stop
         stop-color="#FF7300"
         id="stop2746" />
      <stop
         offset="0.1086"
         stop-color="#FF8D08"
         id="stop2748" />
      <stop
         offset="0.2899"
         stop-color="#FFB214"
         id="stop2750" />
      <stop
         offset="0.4716"
         stop-color="#FFCF1E"
         id="stop2752" />
      <stop
         offset="0.6514"
         stop-color="#FFE325"
         id="stop2754" />
      <stop
         offset="0.8286"
         stop-color="#FFF029"
         id="stop2756" />
      <stop
         offset="1"
         stop-color="#FFF42A"
         id="stop2758" />
    </linearGradient>
    <clipPath
       id="clip0_421_1274-6">
      <rect
         width="300"
         height="300"
         fill="#ffffff"
         id="rect2761"
         x="0"
         y="0" />
    </clipPath>
  </defs>
  <g
     inkscape:label="Layer 1"
     inkscape:groupmode="layer"
     id="layer1"
     transform="translate(-70.583757,-67.657637)">
    <g
       style="fill:none"
       id="g2830"
       transform="matrix(0.26458333,0,0,0.26458333,70.583757,67.657637)">
      <g
         clip-path="url(#clip0_421_1274-6)"
         id="g2714">
        <path
           id="rect2648"
           style="fill:#f7c0b5;fill-opacity:0.968627"
           d="M 0,0 H 300 V 300 H 0 Z" />
        <path
           d="m 253.592,257.177 c -0.774,0.514 -1.659,1.029 -2.434,1.543 -0.885,0.515 -1.66,1.029 -2.545,1.44 -0.774,0.412 -1.438,0.823 -2.213,1.235 -0.11,0.103 -0.221,0.103 -0.332,0.206 -2.545,1.44 -5.2,2.778 -7.856,4.012 -0.774,0.412 -1.659,0.823 -2.434,1.132 0,0 -0.111,0.103 -0.221,0.103 -0.885,0.411 -1.771,0.823 -2.656,1.234 -1.77,0.823 -3.651,1.543 -5.422,2.264 -0.885,0.411 -1.881,0.72 -2.766,1.028 -0.885,0.309 -1.881,0.721 -2.766,1.029 -0.885,0.309 -1.881,0.72 -2.766,1.029 0,0 0,0 -0.111,0 -0.885,0.309 -1.881,0.617 -2.766,0.926 -1.992,0.617 -4.094,1.235 -6.086,1.852 -0.664,0.206 -1.438,0.411 -2.102,0.617 -2.102,0.617 -4.205,1.132 -6.307,1.543 -0.775,0.206 -1.549,0.309 -2.434,0.515 -1.992,0.411 -4.094,0.823 -6.086,1.234 -0.443,0.103 -0.774,0.103 -1.217,0.206 -0.664,0.103 -1.439,0.206 -2.102,0.309 -0.996,0.103 -1.881,0.308 -2.877,0.411 -0.443,0.103 -0.885,0.103 -1.328,0.206 -0.553,0.103 -1.217,0.206 -1.881,0.206 -1.77,0.206 -3.651,0.411 -5.422,0.617 -0.553,0.103 -1.217,0.103 -1.77,0.206 h -0.111 c -0.774,0.103 -1.549,0.103 -2.323,0.206 -0.775,0.102 -1.55,0.102 -2.324,0.102 -0.443,0 -0.996,0.103 -1.438,0.103 -0.886,0 -1.66,0.103 -2.435,0.103 -1.106,0 -2.102,0.103 -3.209,0.103 -1.106,0 -2.102,0 -3.208,0 -0.775,0 -1.549,0 -2.324,0 -46.583,-0.617 -88.6292,-19.033 -118.5043,-48.251 0,0 0,-0.103 -0.1106,-0.103 3.4301,-6.276 16.1546,-17.592 29.4324,-26.955 16.8186,-11.831 40.6075,-19.135 40.6075,-19.135 0,0 15.602,-2.367 73.471,8.847 44.149,8.642 62.959,43.725 69.376,59.877 z"
           fill="#fee4bf"
           id="path2650" />
        <path
           d="m 196.498,225.798 c -2.324,10.597 -17.372,16.873 -42.711,7.408 -31.092,-11.729 -43.042,-44.753 -43.042,-44.753 -1.659,-23.663 -5.532,-43.93 -5.532,-43.93 35.961,-2.881 78.45,36.214 78.45,36.214 l 4.868,19.341 c 0.443,1.646 1.328,3.087 2.656,4.115 2.323,3.704 6.86,14.815 5.311,21.605 z"
           fill="#fee4bf"
           id="path2652" />
        <path
           d="m 191.186,204.296 c -21.134,-1.029 -36.735,-3.909 -53.443,-31.79 14.163,11.626 30.871,16.049 48.464,18.107 l 2.324,9.465 c 0.442,1.749 1.328,3.189 2.655,4.218 z"
           fill="#efbda5"
           id="path2654" />
        <path
           d="m 234.893,80.325 c 1.992,8.642 2.987,15.6379 -2.434,38.683 -5.422,23.045 4.979,46.091 -21.134,67.181 -17.593,14.198 -48.353,16.873 -72.917,1.338 -8.299,-5.247 -15.934,-12.552 -22.13,-22.12 -4.868,-7.51 -10.512,-14.609 -16.8185,-21.09 -8.7412,-8.848 -19.2528,-26.646 -14.0523,-58.1278 8.4092,-51.2345 62.9588,-57.0987 95.1578,-51.4403 32.198,5.6584 48.906,22.7366 54.328,45.5761 z"
           fill="#fee4bf"
           id="path2656" />
        <path
           d="m 129.003,120.551 c 0,0 -3.43,-15.432 -19.585,-13.58 -13.9418,1.646 -18.8103,32.716 12.835,41.358"
           fill="#fee4bf"
           id="path2658" />
        <path
           style="color:#000000;fill:#423232;stroke-linecap:round;stroke-linejoin:round;stroke-miterlimit:10;-inkscape-stroke:none"
           d="m 113.32227,117.01953 c -0.78613,-0.0564 -1.51868,0.0233 -2.18555,0.22852 -1.33375,0.41046 -2.31977,1.28729 -2.98047,2.21289 -0.6607,0.92559 -1.03509,1.90813 -1.25,2.74804 -0.10746,0.41996 -0.17445,0.80351 -0.20703,1.14844 -0.0326,0.34494 -0.0846,0.5688 0.0527,1.08008 a 1.5,1.5 0 0 0 1.83789,1.06055 1.5,1.5 0 0 0 1.06055,-1.83789 c 0.082,0.30553 0.0197,0.14388 0.0352,-0.0195 0.0154,-0.16342 0.0563,-0.41145 0.12695,-0.6875 0.14127,-0.55212 0.4086,-1.22248 0.78516,-1.75 0.37655,-0.52753 0.82293,-0.90357 1.42187,-1.0879 0.59894,-0.18432 1.43225,-0.20921 2.71875,0.29102 a 1.50015,1.50015 0 0 0 0.01,0.004 c 0.75948,0.28882 1.15963,0.73895 1.46289,1.88672 0.30326,1.14776 0.3367,2.94243 0.0195,5.25195 a 1.50015,1.50015 0 0 0 -0.004,0.043 c -0.55197,5.12719 4.26367,7.93359 4.26367,7.93359 a 1.5,1.5 0 0 0 2.05665,-0.52344 1.5,1.5 0 0 0 -0.52344,-2.05664 c 0,0 -3.14849,-1.92845 -2.81446,-5.03125 l -0.006,0.043 c 0.34682,-2.52547 0.37969,-4.6413 -0.0918,-6.42578 -0.47125,-1.78355 -1.62084,-3.28608 -3.29492,-3.92383 -0.8743,-0.33892 -1.71106,-0.53169 -2.49414,-0.58789 z"
           id="path2660" />
        <path
           d="m 205.682,144.214 c 0,0 4.204,0.206 8.188,-4.218 2.212,-2.469 4.094,-5.556 2.876,-6.482 -1.217,-1.028 -21.244,1.852 -22.572,4.321 -1.328,2.469 6.418,6.379 11.508,6.379 z"
           fill="#efbda5"
           id="path2662" />
        <path
           style="color:#000000;fill:#423232;stroke-linecap:round;stroke-linejoin:round;stroke-miterlimit:10;-inkscape-stroke:none"
           d="m 208.9668,108.14648 a 1.5,1.5 0 0 0 -1.46485,1.53321 c 0,0 0.24193,10.20196 7.19532,21.43554 1.12101,1.81685 0.89623,4.30935 -0.82618,6.68946 -1.72309,2.38106 -4.93493,4.50894 -9.49804,5.1289 a 1.5,1.5 0 0 0 -1.28516,1.6875 1.5,1.5 0 0 0 1.68945,1.28516 c 5.28488,-0.71803 9.26525,-3.22057 11.52539,-6.34375 2.26015,-3.12318 2.80977,-7.00743 0.94532,-10.02539 a 1.50015,1.50015 0 0 0 0,-0.002 C 210.70145,118.95876 210.5,109.61133 210.5,109.61133 a 1.5,1.5 0 0 0 -1.5332,-1.46485 z"
           id="path2664" />
        <path
           opacity="0.42"
           d="m 149.03,149.461 c 6.294,0 11.396,-3.915 11.396,-8.745 0,-4.83 -5.102,-8.745 -11.396,-8.745 -6.295,0 -11.397,3.915 -11.397,8.745 0,4.83 5.102,8.745 11.397,8.745 z"
           fill="#f2a5b2"
           id="path2666" />
        <path
           opacity="0.42"
           d="m 230.688,132.177 c -0.332,5.761 -0.221,11.42 -0.663,17.078 -4.869,-1.029 -8.41,-4.424 -8.41,-8.436 0,-4.321 3.873,-7.819 9.073,-8.642 z"
           fill="#f2a5b2"
           id="path2668" />
        <path
           style="color:#000000;fill:#423232;stroke-linecap:round;stroke-linejoin:round;stroke-miterlimit:10;-inkscape-stroke:none"
           d="m 180.14453,152.50781 a 1.5,1.5 0 0 0 -1.09961,0.33399 1.5,1.5 0 0 0 -0.20312,2.11328 c 2.58416,3.13399 6.48851,5.58972 10.58007,6.88672 4.09157,1.297 8.45537,1.46957 11.84571,-0.55274 a 1.5,1.5 0 0 0 0.52148,-2.05664 1.5,1.5 0 0 0 -2.05664,-0.52148 c -2.30965,1.37769 -5.84587,1.39948 -9.4043,0.27148 -3.55842,-1.128 -7.05409,-3.37149 -9.16992,-5.9375 a 1.5,1.5 0 0 0 -1.01367,-0.53711 z"
           id="path2670" />
        <path
           d="m 170.433,119.047 c -2.4,-0.1 -4.2,-2.1 -4,-4.5 l 0.1,-2.8 c 0.1,-2.4 2.1,-4.2 4.5,-4 2.4,0.1 4.2,2.1 4,4.5 l -0.1,2.8 c -0.1,2.3 -2.1,4.1 -4.5,4 z"
           fill="#423232"
           id="path2672" />
        <path
           d="m 212.533,120.547 c -2.2,-0.1 -3.9,-2 -3.8,-4.2 l 0.1,-2.6 c 0.1,-2.2 2,-3.9 4.2,-3.8 2.2,0.1 3.9,2 3.8,4.2 l -0.1,2.6 c -0.1,2.2 -2,3.9 -4.2,3.8 z"
           fill="#423232"
           id="path2674" />
        <path
           style="color:#000000;fill:#423232;stroke-linecap:round;stroke-linejoin:round;stroke-miterlimit:10;-inkscape-stroke:none"
           d="m 170.05469,107.32227 c -1.04424,0.13379 -2.04404,0.40332 -2.95117,0.77343 -1.81427,0.74022 -3.39527,1.82974 -3.91211,3.63868 a 1.5,1.5 0 0 0 1.02929,1.85546 1.5,1.5 0 0 0 1.85547,-1.03125 c 0.0832,-0.29106 0.84943,-1.15077 2.16016,-1.68554 1.31073,-0.53478 3.02701,-0.79297 4.55664,-0.54492 a 1.50015,1.50015 0 0 0 0.01,0.002 c 3.79345,0.59009 6.10352,3.77929 6.10352,3.7793 a 1.5,1.5 0 0 0 2.08984,0.36523 1.5,1.5 0 0 0 0.36328,-2.08984 c 0,0 -2.88608,-4.20361 -8.08593,-5.01758 -0.001,-2.2e-4 -0.003,2.1e-4 -0.004,0 -1.08387,-0.17534 -2.17188,-0.17855 -3.21484,-0.0449 z"
           id="path2676" />
        <path
           style="color:#000000;fill:#423232;stroke-linecap:round;stroke-linejoin:round;stroke-miterlimit:10;-inkscape-stroke:none"
           d="m 214.23242,109.44727 c -2.64782,0 -4.39059,1.03977 -5.24219,2.22461 -0.85159,1.18483 -0.85742,2.47656 -0.85742,2.47656 a 1.5,1.5 0 0 0 1.5,1.5 1.5,1.5 0 0 0 1.5,-1.5 c 0,0 -0.005,-0.30944 0.29297,-0.72461 0.2984,-0.41517 0.85447,-0.97656 2.80664,-0.97656 2.87895,0 4.03711,2.625 4.03711,2.625 a 1.5,1.5 0 0 0 1.98633,0.74023 1.5,1.5 0 0 0 0.74219,-1.98828 c 0,0 -2.04458,-4.37695 -6.76563,-4.37695 z"
           id="path2678" />
        <path
           d="m 184.233,97.1474 c 2.1,0.7 4.2,-1.2 3.8,-3.5 -0.2,-1.2 -0.7,-2.4 -1.7,-3.3 -3,-2.7 -15.4,-5.1 -22.9,-1.6 -6.6,3.2 11.2,5.2 20.8,8.4 z"
           fill="#423232"
           id="path2680" />
        <path
           d="m 214.132,98.7475 c -1.7,0.6 -3.5,-1.2 -3.2,-3.3 0.1,-1.1 0.5,-2.2 1.3,-3 2.4,-2.4 10.6,-4.3 15.8,-0.6 4.5,3.1 -6.1,4 -13.9,6.9 z"
           fill="#423232"
           id="path2682" />
        <path
           d="m 101.457,233.484 c 0,0 46.733,20.621 88.198,18.379 14.457,-0.784 28.242,-4.258 39.224,-12.439 0,0 2.466,22.526 -29.922,35.75 -32.388,13.336 -87.638,-22.862 -97.5,-41.69 z"
           fill="#fff573"
           id="path2684" />
        <path
           d="m 181.922,252.088 c 0,0 -9.974,30.819 -19.612,32.051 -9.638,1.233 -58.163,-39.56 -62.31,-51.776 0,-0.112 40.905,18.38 81.922,19.725 z"
           fill="#ffffff"
           id="path2686" />
        <path
           d="m 181.923,252.088 c 0,0 15.465,23.758 22.302,24.991 6.836,1.233 20.732,-20.621 23.87,-37.207 0.112,0 -13.56,11.767 -46.172,12.216 z"
           fill="#ffffff"
           id="path2688" />
        <path
           d="M 273.259,339.389 H 17.9658 c 0.2242,-13 1.6811,-52.448 11.5431,-80.689 4.2586,-12.328 10.1983,-22.302 16.138,-30.147 0.6724,-0.896 1.4568,-1.905 2.1293,-2.802 9.862,-12.215 19.2758,-18.715 21.181,-20.172 1.2328,-1.009 2.9138,-1.121 3.8103,-0.448 113.9745,124.508 166.5345,47.181 156.3365,13.336 -0.112,-0.224 -0.112,-0.56 -0.224,-0.897 1.457,-0.112 11.319,8.069 21.405,26.897 2.353,4.371 4.707,9.302 6.948,14.793 0,0.112 0.112,0.224 0.112,0.336 5.604,13.785 10.647,31.267 13.673,53.009 0.896,8.405 1.793,17.258 2.241,26.784 z"
           fill="#bf76ff"
           id="path2690" />
        <path
           style="color:#000000;fill:#a164dd;stroke-linecap:round;stroke-linejoin:round;stroke-miterlimit:10;-inkscape-stroke:none"
           d="m 72.720703,203.51953 a 1.5,1.5 0 0 0 -1.078125,0.39258 1.5,1.5 0 0 0 -0.09375,2.11914 c 57.168762,62.45273 99.345452,74.72326 126.279292,66.47266 13.46693,-4.12531 22.958,-13.37684 28.39454,-23.75 5.43653,-10.37317 6.90304,-21.87892 4.20507,-30.83204 a 1.50015,1.50015 0 0 0 -0.0957,-0.23828 c 0.15633,0.31266 0.0655,-0.0791 -0.14062,-0.69922 a 1.5,1.5 0 0 0 -1.89844,-0.94921 1.5,1.5 0 0 0 -0.94922,1.89648 c 0.0179,0.0538 -0.0756,0.3331 0.30469,1.09375 l -0.0937,-0.23828 c 2.40152,7.96937 1.12161,18.82056 -3.99024,28.57422 -5.11185,9.75365 -13.97009,18.39987 -26.61523,22.27344 -25.29027,7.74713 -66.38268,-3.57376 -123.187501,-65.62891 a 1.5,1.5 0 0 0 -1.041016,-0.48633 z"
           id="path2692" />
        <path
           d="M 96.302,339.389 H 17.9658 c 0.2242,-13 1.6811,-52.448 11.5431,-80.689 4.2586,-12.328 10.1983,-22.302 16.138,-30.147 0.6724,-0.896 39.2241,-7.508 49.0862,66.233 2.6896,20.845 1.7931,30.371 1.5689,44.603 z"
           fill="#a164dd"
           id="path2694" />
        <path
           d="m 252.415,339.389 c 4.146,-78.896 -6.725,-102.431 -6.725,-102.431 1.906,2.13 3.699,4.595 5.38,7.509 2.465,4.259 4.819,9.302 6.948,14.793 0,0.112 0.112,0.224 0.112,0.336 6.052,16.026 10.535,35.974 13.673,53.009 1.12,8.293 2.017,17.146 2.353,26.672 h -21.741 z"
           fill="#a164dd"
           id="path2696" />
        <path
           d="m 65.1465,212.751 c -0.4483,0 -0.8965,-0.224 -1.2327,-0.56 -0.4483,-0.56 -0.7845,-0.896 -0.7845,-0.896 -0.5604,-0.673 -0.4483,-1.794 0.2241,-2.354 0.6724,-0.56 1.7931,-0.448 2.3535,0.224 0,0 0.2241,0.336 0.6724,0.785 0.5603,0.672 0.5603,1.793 -0.2242,2.353 -0.2241,0.336 -0.6724,0.448 -1.0086,0.448 z"
           fill="#a164dd"
           id="path2698" />
        <path
           d="m 181.362,285.596 c -0.784,0 -1.569,0 -2.353,-0.112 -0.897,0 -1.681,-0.784 -1.569,-1.793 0,-0.896 0.784,-1.681 1.793,-1.569 0.784,0 1.457,0 2.241,0.112 0.897,0 1.681,0.785 1.681,1.681 -0.112,0.897 -0.896,1.681 -1.793,1.681 z m 13.449,-1.233 c -0.785,0 -1.457,-0.56 -1.681,-1.344 -0.225,-0.897 0.448,-1.793 1.344,-2.018 0.673,-0.112 1.457,-0.336 2.13,-0.448 0.896,-0.224 1.793,0.336 2.017,1.233 0.224,0.896 -0.336,1.793 -1.233,2.017 -0.784,0.224 -1.457,0.336 -2.241,0.448 -0.224,0.112 -0.336,0.112 -0.336,0.112 z m -29.026,-0.56 c -0.112,0 -0.224,0 -0.336,0 -0.785,-0.112 -1.457,-0.336 -2.242,-0.56 -0.896,-0.224 -1.457,-1.121 -1.233,-2.017 0.224,-0.897 1.121,-1.457 2.018,-1.233 0.672,0.224 1.456,0.336 2.129,0.448 0.896,0.224 1.457,1.121 1.345,2.017 -0.224,0.785 -1.009,1.345 -1.681,1.345 z m 43.819,-4.483 c -0.561,0 -1.233,-0.336 -1.457,-0.896 -0.449,-0.785 -0.112,-1.793 0.784,-2.242 0.673,-0.336 1.345,-0.672 1.905,-1.008 0.785,-0.448 1.794,-0.112 2.242,0.672 0.448,0.785 0.112,1.793 -0.673,2.242 -0.672,0.336 -1.344,0.784 -2.017,1.12 -0.224,0.112 -0.56,0.112 -0.784,0.112 z m -58.949,-0.112 c -0.224,0 -0.448,0 -0.56,-0.112 -0.672,-0.224 -1.457,-0.56 -2.129,-0.784 -0.897,-0.336 -1.233,-1.345 -0.897,-2.242 0.336,-0.896 1.345,-1.232 2.242,-0.896 0.672,0.224 1.344,0.56 2.017,0.784 0.896,0.336 1.345,1.345 1.008,2.13 -0.336,0.784 -1.008,1.12 -1.681,1.12 z m -14.344,-6.5 c -0.225,0 -0.561,-0.112 -0.785,-0.224 -0.672,-0.336 -1.345,-0.672 -2.017,-1.121 -0.785,-0.448 -1.121,-1.456 -0.673,-2.241 0.449,-0.784 1.457,-1.121 2.242,-0.672 0.672,0.336 1.345,0.672 1.905,1.008 0.784,0.449 1.121,1.457 0.672,2.242 -0.112,0.672 -0.672,1.008 -1.344,1.008 z m 86.069,-2.465 c -0.449,0 -0.897,-0.112 -1.233,-0.449 -0.673,-0.672 -0.673,-1.681 0,-2.353 0.56,-0.56 1.008,-1.009 1.457,-1.569 0.672,-0.672 1.681,-0.784 2.353,-0.112 0.673,0.672 0.785,1.681 0.112,2.353 -0.56,0.561 -1.008,1.121 -1.569,1.681 -0.336,0.225 -0.784,0.449 -1.12,0.449 z m -99.518,-5.604 c -0.336,0 -0.672,-0.112 -0.896,-0.336 -0.673,-0.448 -1.233,-0.896 -1.905,-1.233 -0.785,-0.56 -1.009,-1.569 -0.449,-2.353 0.561,-0.785 1.569,-1.009 2.354,-0.448 0.56,0.448 1.232,0.784 1.905,1.232 0.784,0.561 1.009,1.569 0.448,2.354 -0.336,0.448 -0.896,0.784 -1.457,0.784 z m 108.483,-7.284 c -0.224,0 -0.448,0 -0.784,-0.224 -0.785,-0.449 -1.233,-1.457 -0.785,-2.242 0.336,-0.672 0.673,-1.344 0.897,-2.017 0.336,-0.896 1.344,-1.233 2.241,-0.896 0.897,0.336 1.233,1.344 0.897,2.241 -0.337,0.672 -0.673,1.457 -1.009,2.129 -0.224,0.673 -0.785,1.009 -1.457,1.009 z m -121.259,-2.017 c -0.336,0 -0.672,-0.112 -1.008,-0.337 -0.561,-0.448 -1.233,-0.896 -1.793,-1.344 -0.673,-0.561 -0.897,-1.681 -0.224,-2.354 0.56,-0.672 1.681,-0.896 2.353,-0.224 0.56,0.448 1.121,0.897 1.793,1.345 0.785,0.56 0.897,1.681 0.336,2.353 -0.448,0.336 -0.896,0.561 -1.457,0.561 z m -12.103,-9.975 c -0.4483,0 -0.7845,-0.112 -1.1207,-0.448 -0.5604,-0.448 -1.1207,-1.008 -1.681,-1.457 -0.6725,-0.56 -0.7845,-1.681 -0.1121,-2.353 0.5603,-0.673 1.681,-0.785 2.3534,-0.112 0.5604,0.448 1.1207,1.008 1.6811,1.457 0.6724,0.56 0.7845,1.681 0.112,2.353 -0.3362,0.336 -0.7844,0.56 -1.2327,0.56 z m 138.069,-2.913 c -0.112,0 -0.224,0 -0.224,0 -0.897,-0.112 -1.569,-1.009 -1.345,-1.905 0.112,-0.785 0.224,-1.457 0.336,-2.13 0.112,-0.896 0.897,-1.569 1.905,-1.457 0.897,0.112 1.569,0.897 1.457,1.905 -0.112,0.785 -0.224,1.457 -0.336,2.242 -0.224,0.672 -1.009,1.345 -1.793,1.345 z M 86.3278,234.717 c -0.4483,0 -0.8965,-0.112 -1.1207,-0.448 -0.5603,-0.561 -1.1207,-1.009 -1.5689,-1.569 -0.6725,-0.673 -0.6725,-1.681 0,-2.354 0.6724,-0.672 1.681,-0.672 2.3534,0 0.5603,0.561 1.1207,1.009 1.569,1.569 0.6724,0.673 0.6724,1.681 0,2.354 -0.3362,0.224 -0.7845,0.448 -1.2328,0.448 z M 75.233,223.51 c -0.4483,0 -0.8966,-0.224 -1.2328,-0.56 -0.5603,-0.561 -1.0086,-1.121 -1.5689,-1.681 -0.6725,-0.673 -0.5604,-1.793 0.112,-2.354 0.6724,-0.56 1.7931,-0.56 2.3535,0.112 0.4483,0.561 1.0086,1.121 1.5689,1.681 0.6724,0.673 0.5604,1.681 -0.112,2.354 -0.2242,0.224 -0.6724,0.448 -1.1207,0.448 z"
           fill="#a164dd"
           id="path2700" />
        <path
           d="m 236.276,227.881 c -0.784,0 -1.569,-0.561 -1.681,-1.457 -0.112,-0.673 -0.112,-1.009 -0.112,-1.009 -0.224,-0.896 0.448,-1.793 1.345,-2.017 0.896,-0.224 1.793,0.448 2.017,1.345 0,0 0.112,0.448 0.224,1.233 0.112,0.896 -0.56,1.793 -1.457,1.905 -0.224,0 -0.336,0 -0.336,0 z"
           fill="#a164dd"
           id="path2702" />
        <path
           d="m 264.41,195.504 c -6.272,-13.888 -11.088,-11.984 -6.72,-24.528 4.368,-12.432 -1.232,-21.28 -12.768,-33.04 -10.976,-11.2 -12.096,-23.408 -11.76,-25.2 -1.008,4.704 -1.456,9.52 -1.68,14.224 -0.336,6.272 -0.224,12.432 -0.672,18.592 -0.896,13.776 -4.144,27.328 -18.928,40.096 -6.496,5.6 -14.784,9.632 -23.968,11.536 -2.464,7.504 1.232,12.88 9.296,13.776 8.064,0.896 11.424,12.992 29.68,18.704 27.328,8.848 43.792,-20.272 37.52,-34.16 z"
           fill="#423232"
           id="path2704" />
        <path
           d="m 213.338,59.984 c 2.352,1.232 4.368,0.112 5.6,-2.352 12.992,-2.016 16.016,23.968 16.464,25.536 0.448,1.68 0.672,6.384 -0.224,19.264 -0.56,7.168 41.104,-43.6799 3.024,-65.184 2.8,-4.144 0.784,-24.752 -22.624,-29.79196 -8.4,-1.792 -19.376,6.04796 -33.152,3.02396 C 128.554,-1.50396 72.6659,9.92004 77.0339,81.04 c 1.008,15.568 2.016,32.368 -24.416,43.568 -30.688,12.992 -29.12,46.928 -7.504,53.872 8.96,2.912 -20.608,23.072 -3.36,40.992 8.96,9.408 24.976,-9.632 41.216,0.672 24.5281,15.568 36.7361,8.512 41.5521,2.352 9.856,-12.544 -2.352,-37.744 -2.352,-37.744 0,0 4.816,-7.728 6.384,-11.872 7.616,-20.384 -10.528,-29.568 -10.528,-29.568 -28.0001,-10.752 -22.9601,-42 -9.296,-43.792 14.336,-1.792 18.816,10.976 19.6,14.112 0,0 12.656,17.472 37.072,-22.4 24.192,-39.872 37.408,-36.96 47.936,-31.248 z"
           fill="#423232"
           id="path2706" />
        <path
           d="m 145.5,162.639 c 0,6.422 -2.589,12.843 -7.146,17.297 -4.558,4.557 -10.875,7.146 -17.297,7.146 -6.421,0 -12.843,-2.589 -17.296,-7.146 -4.5575,-4.557 -7.1467,-10.875 -7.1467,-17.297 0,-6.421 2.5892,-12.843 7.1467,-17.296 4.557,-4.557 10.875,-7.147 17.296,-7.147 6.422,0 12.843,2.59 17.297,7.147 4.557,4.557 7.25,10.875 7.146,17.296 z m -3.107,0 c 0.311,-5.593 -1.761,-11.393 -5.697,-15.743 -1.967,-2.175 -4.453,-3.832 -7.146,-5.075 -2.693,-1.139 -5.593,-1.76 -8.596,-1.76 -2.9,0 -5.904,0.621 -8.597,1.76 -2.693,1.243 -5.178,2.9 -7.146,5.075 -3.936,4.35 -6.0075,10.047 -5.6967,15.743 0.1035,0.725 0.3107,1.347 0.5177,2.072 0.311,0.621 0.829,1.243 1.347,1.864 0.31,0.311 0.621,0.518 1.035,0.725 0.415,0.207 0.725,0.414 1.14,0.621 0.414,0.208 0.828,0.311 1.346,0.415 0.518,0.103 0.932,0.207 1.45,0.31 0.518,0.104 1.036,0.104 1.657,0.104 0.518,0 1.139,0 1.761,-0.104 0.621,-0.103 1.243,-0.207 1.864,-0.414 0.622,-0.207 1.243,-0.311 1.761,-0.621 0.621,-0.207 1.243,-0.518 1.864,-0.829 0.622,-0.311 1.243,-0.621 1.761,-1.036 1.139,-0.725 2.278,-1.657 3.211,-2.589 1.035,-0.932 1.864,-1.968 2.692,-3.107 0.415,-0.621 0.725,-1.139 1.14,-1.761 0.31,-0.621 0.621,-1.243 0.828,-1.76 0.207,-0.622 0.415,-1.14 0.622,-1.761 0.103,-0.311 0.207,-0.622 0.207,-0.932 l 0.207,-0.829 c 0.104,-0.621 0.207,-1.139 0.207,-1.657 0,-0.518 0,-1.036 0,-1.554 0,-0.517 -0.103,-1.035 -0.207,-1.45 -0.104,-0.517 -0.207,-0.828 -0.414,-1.242 -0.311,-0.933 -0.725,-1.554 -1.243,-2.072 -0.518,-0.621 -1.036,-1.036 -1.657,-1.243 -0.622,-0.31 -1.243,-0.414 -1.865,-0.414 -0.621,0 -1.242,0.104 -1.864,0.414 -0.621,0.207 -1.139,0.622 -1.657,1.243 -0.518,0.518 -0.932,1.243 -1.243,2.072 -0.207,0.414 -0.311,0.828 -0.414,1.242 -0.104,0.415 -0.207,0.933 -0.207,1.45 0,0.518 -0.104,1.036 0,1.554 0,0.518 0.103,1.139 0.207,1.657 l 0.207,0.829 c 0.104,0.31 0.207,0.621 0.207,0.932 0.207,0.621 0.414,1.139 0.622,1.761 0.207,0.517 0.517,1.139 0.828,1.76 0.311,0.622 0.725,1.14 1.139,1.761 0.725,1.139 1.658,2.175 2.693,3.107 0.932,0.932 2.072,1.761 3.211,2.589 0.518,0.311 1.139,0.725 1.761,1.036 0.621,0.311 1.243,0.622 1.864,0.829 0.621,0.207 1.139,0.414 1.761,0.621 0.621,0.207 1.243,0.311 1.864,0.414 0.621,0.104 1.139,0.104 1.761,0.104 0.621,0 1.139,0 1.657,-0.104 0.518,-0.103 1.036,-0.207 1.45,-0.31 0.518,-0.104 0.932,-0.311 1.346,-0.415 0.415,-0.207 0.829,-0.414 1.14,-0.621 0.414,-0.207 0.725,-0.518 1.035,-0.725 0.518,-0.518 1.036,-1.139 1.347,-1.864 0.725,-0.622 0.932,-1.347 0.932,-2.072 z"
           fill="url(#paint0_linear_421_1274)"
           id="path2708"
           style="fill:url(#paint0_linear_421_1274)" />
        <path
           d="m 121.057,141.304 c -0.828,0 -1.553,-0.725 -1.553,-1.554 v -3.314 c 0,-0.829 0.725,-1.554 1.553,-1.554 0.829,0 1.554,0.725 1.554,1.554 v 3.314 c 0,0.829 -0.725,1.554 -1.554,1.554 z"
           fill="url(#paint1_linear_421_1274)"
           id="path2710"
           style="fill:url(#paint1_linear_421_1274)" />
        <path
           d="m 241.614,162.639 c 0,6.422 -2.589,12.843 -7.146,17.297 -4.558,4.557 -10.875,7.25 -17.297,7.146 -1.968,0 -4.039,-0.207 -6.007,-0.725 0.311,-0.311 0.725,-0.621 1.036,-0.932 6.628,-5.696 10.771,-11.6 13.36,-17.607 0.208,0.103 0.518,0.103 0.725,0.207 0.622,0.207 1.243,0.311 1.865,0.414 0.621,0.104 1.139,0.104 1.76,0.104 0.622,0 1.14,0 1.658,-0.104 0.517,0 1.035,-0.207 1.45,-0.31 0.517,-0.104 0.932,-0.208 1.346,-0.415 0.414,-0.207 0.829,-0.414 1.139,-0.621 0.415,-0.207 0.725,-0.518 1.036,-0.725 0.518,-0.518 1.036,-1.139 1.346,-1.864 0.311,-0.622 0.518,-1.347 0.518,-2.072 0.311,-5.593 -1.76,-11.393 -5.696,-15.743 -0.829,-0.932 -1.864,-1.76 -2.9,-2.589 0,-0.829 0.103,-1.657 0.103,-2.589 1.554,1.035 3.108,2.175 4.35,3.521 4.765,4.868 7.458,11.186 7.354,17.607 z"
           fill="url(#paint2_linear_421_1274)"
           id="path2712"
           style="fill:url(#paint2_linear_421_1274)" />
      </g>
    </g>
  </g>
</svg>
