<?xml version="1.0" encoding="UTF-8" standalone="no"?>
<!-- Created with Inkscape (http://www.inkscape.org/) -->

<svg
   width="79.375mm"
   height="79.375mm"
   viewBox="0 0 79.375 79.375"
   version="1.1"
   id="svg5"
   xmlns="http://www.w3.org/2000/svg"
   xmlns:svg="http://www.w3.org/2000/svg">
  <defs
     id="defs2">
    <clipPath
       id="clip0_421_1274">
      <rect
         width="300"
         height="300"
         fill="#ffffff"
         id="rect903"
         x="0"
         y="0" />
    </clipPath>
    <clipPath
       id="clip0_421_1274-3">
      <rect
         width="300"
         height="300"
         fill="#ffffff"
         id="rect1539"
         x="0"
         y="0" />
    </clipPath>
    <clipPath
       id="clip0_421_1274-35">
      <rect
         width="300"
         height="300"
         fill="#ffffff"
         id="rect1928"
         x="0"
         y="0" />
    </clipPath>
    <clipPath
       id="clip0_421_1274-8">
      <rect
         width="300"
         height="300"
         fill="#ffffff"
         id="rect2361"
         x="0"
         y="0" />
    </clipPath>
    <linearGradient
       id="paint0_linear_421_1274"
       x1="121.039"
       y1="222.77901"
       x2="121.039"
       y2="132.015"
       gradientUnits="userSpaceOnUse">
      <stop
         stop-color="#FF7300"
         id="stop2716" />
      <stop
         offset="0.1086"
         stop-color="#FF8D08"
         id="stop2718" />
      <stop
         offset="0.2899"
         stop-color="#FFB214"
         id="stop2720" />
      <stop
         offset="0.4716"
         stop-color="#FFCF1E"
         id="stop2722" />
      <stop
         offset="0.6514"
         stop-color="#FFE325"
         id="stop2724" />
      <stop
         offset="0.8286"
         stop-color="#FFF029"
         id="stop2726" />
      <stop
         offset="1"
         stop-color="#FFF42A"
         id="stop2728" />
    </linearGradient>
    <linearGradient
       id="paint1_linear_421_1274"
       x1="121.04"
       y1="129.14799"
       x2="121.04"
       y2="139.46899"
       gradientUnits="userSpaceOnUse">
      <stop
         stop-color="#FF7300"
         id="stop2731" />
      <stop
         offset="0.1086"
         stop-color="#FF8D08"
         id="stop2733" />
      <stop
         offset="0.2899"
         stop-color="#FFB214"
         id="stop2735" />
      <stop
         offset="0.4716"
         stop-color="#FFCF1E"
         id="stop2737" />
      <stop
         offset="0.6514"
         stop-color="#FFE325"
         id="stop2739" />
      <stop
         offset="0.8286"
         stop-color="#FFF029"
         id="stop2741" />
      <stop
         offset="1"
         stop-color="#FFF42A"
         id="stop2743" />
    </linearGradient>
    <linearGradient
       id="paint2_linear_421_1274"
       x1="226.423"
       y1="222.77901"
       x2="226.423"
       y2="132.015"
       gradientUnits="userSpaceOnUse">
      <stop
         stop-color="#FF7300"
         id="stop2746" />
      <stop
         offset="0.1086"
         stop-color="#FF8D08"
         id="stop2748" />
      <stop
         offset="0.2899"
         stop-color="#FFB214"
         id="stop2750" />
      <stop
         offset="0.4716"
         stop-color="#FFCF1E"
         id="stop2752" />
      <stop
         offset="0.6514"
         stop-color="#FFE325"
         id="stop2754" />
      <stop
         offset="0.8286"
         stop-color="#FFF029"
         id="stop2756" />
      <stop
         offset="1"
         stop-color="#FFF42A"
         id="stop2758" />
    </linearGradient>
    <clipPath
       id="clip0_421_1274-6">
      <rect
         width="300"
         height="300"
         fill="#ffffff"
         id="rect2761"
         x="0"
         y="0" />
    </clipPath>
    <clipPath
       id="clip0_421_1274-9">
      <rect
         width="300"
         height="300"
         fill="#ffffff"
         id="rect3154"
         x="0"
         y="0" />
    </clipPath>
    <clipPath
       id="clip0_421_1274-61">
      <rect
         width="300"
         height="300"
         fill="#ffffff"
         id="rect3560"
         x="0"
         y="0" />
    </clipPath>
    <linearGradient
       id="paint0_linear_421_1274-3"
       x1="118.039"
       y1="225.166"
       x2="118.039"
       y2="137.532"
       gradientUnits="userSpaceOnUse">
      <stop
         stop-color="#FF7300"
         id="stop4079" />
      <stop
         offset="0.1086"
         stop-color="#FF8D08"
         id="stop4081" />
      <stop
         offset="0.2899"
         stop-color="#FFB214"
         id="stop4083" />
      <stop
         offset="0.4716"
         stop-color="#FFCF1E"
         id="stop4085" />
      <stop
         offset="0.6514"
         stop-color="#FFE325"
         id="stop4087" />
      <stop
         offset="0.8286"
         stop-color="#FFF029"
         id="stop4089" />
      <stop
         offset="1"
         stop-color="#FFF42A"
         id="stop4091" />
    </linearGradient>
    <linearGradient
       id="paint1_linear_421_1274-7"
       x1="118.04"
       y1="134.76401"
       x2="118.04"
       y2="144.729"
       gradientUnits="userSpaceOnUse">
      <stop
         stop-color="#FF7300"
         id="stop4094" />
      <stop
         offset="0.1086"
         stop-color="#FF8D08"
         id="stop4096" />
      <stop
         offset="0.2899"
         stop-color="#FFB214"
         id="stop4098" />
      <stop
         offset="0.4716"
         stop-color="#FFCF1E"
         id="stop4100" />
      <stop
         offset="0.6514"
         stop-color="#FFE325"
         id="stop4102" />
      <stop
         offset="0.8286"
         stop-color="#FFF029"
         id="stop4104" />
      <stop
         offset="1"
         stop-color="#FFF42A"
         id="stop4106" />
    </linearGradient>
    <linearGradient
       id="paint2_linear_421_1274-8"
       x1="223.423"
       y1="225.166"
       x2="223.423"
       y2="137.532"
       gradientUnits="userSpaceOnUse">
      <stop
         stop-color="#FF7300"
         id="stop4109" />
      <stop
         offset="0.1086"
         stop-color="#FF8D08"
         id="stop4111" />
      <stop
         offset="0.2899"
         stop-color="#FFB214"
         id="stop4113" />
      <stop
         offset="0.4716"
         stop-color="#FFCF1E"
         id="stop4115" />
      <stop
         offset="0.6514"
         stop-color="#FFE325"
         id="stop4117" />
      <stop
         offset="0.8286"
         stop-color="#FFF029"
         id="stop4119" />
      <stop
         offset="1"
         stop-color="#FFF42A"
         id="stop4121" />
    </linearGradient>
    <clipPath
       id="clip0_421_1274-4">
      <rect
         width="300"
         height="300"
         fill="#ffffff"
         id="rect4124"
         x="0"
         y="0" />
    </clipPath>
    <clipPath
       id="clip0_421_1274-2">
      <rect
         width="300"
         height="300"
         fill="#ffffff"
         id="rect4458"
         x="0"
         y="0" />
    </clipPath>
    <clipPath
       id="clip0_421_1274-1">
      <rect
         width="300"
         height="300"
         fill="#ffffff"
         id="rect4979"
         x="0"
         y="0" />
    </clipPath>
    <clipPath
       id="clip0_421_1274-24">
      <rect
         width="300"
         height="300"
         fill="#ffffff"
         id="rect5434"
         x="0"
         y="0" />
    </clipPath>
    <clipPath
       id="clip0_421_1274-46">
      <rect
         width="300"
         height="300"
         fill="#ffffff"
         id="rect5850"
         x="0"
         y="0" />
    </clipPath>
    <clipPath
       id="clip0_421_1274-5">
      <rect
         width="300"
         height="300"
         fill="#ffffff"
         id="rect6329"
         x="0"
         y="0" />
    </clipPath>
    <clipPath
       id="clip0_421_1274-38">
      <rect
         width="300"
         height="300"
         fill="#ffffff"
         id="rect6804"
         x="0"
         y="0" />
    </clipPath>
    <clipPath
       id="clip0_421_1274-44">
      <rect
         width="300"
         height="300"
         fill="#ffffff"
         id="rect7152"
         x="0"
         y="0" />
    </clipPath>
    <clipPath
       id="clip0_421_1274-94">
      <rect
         width="300"
         height="300"
         fill="#ffffff"
         id="rect7595"
         x="0"
         y="0" />
    </clipPath>
    <clipPath
       id="clip0_421_1274-10">
      <rect
         width="300"
         height="300"
         fill="#ffffff"
         id="rect8065"
         x="0"
         y="0" />
    </clipPath>
    <clipPath
       id="clip0_421_1274-87">
      <rect
         width="300"
         height="300"
         fill="#ffffff"
         id="rect8554"
         x="0"
         y="0" />
    </clipPath>
    <clipPath
       id="clip0_421_1274-19">
      <rect
         width="300"
         height="300"
         fill="#ffffff"
         id="rect9033"
         x="0"
         y="0" />
    </clipPath>
  </defs>
  <g
     id="layer1"
     transform="translate(-223.25986,-54.2771)">
    <g
       style="fill:none"
       id="g9081"
       transform="matrix(0.26458333,0,0,0.26458333,223.25986,54.2771)">
      <g
         clip-path="url(#clip0_421_1274-19)"
         id="g9031">
        <path
           id="rect8959"
           style="fill:#f7c0b5;fill-opacity:0.968627"
           d="M 0,0 H 300 V 300 H 0 Z" />
        <path
           d="m 251.148,257.099 c -0.775,0.553 -1.66,1.107 -2.434,1.66 -0.885,0.553 -1.66,1.106 -2.545,1.549 -0.775,0.443 -1.439,0.885 -2.213,1.328 -0.111,0.11 -0.221,0.11 -0.332,0.221 -2.545,1.549 -5.2,2.987 -7.856,4.315 -0.774,0.443 -1.66,0.885 -2.434,1.217 0,0 -0.111,0.111 -0.221,0.111 -0.886,0.443 -1.771,0.885 -2.656,1.328 -1.77,0.885 -3.651,1.659 -5.422,2.434 -0.885,0.443 -1.881,0.774 -2.766,1.106 -0.885,0.332 -1.881,0.775 -2.766,1.107 -0.885,0.332 -1.881,0.774 -2.766,1.106 0,0 0,0 -0.111,0 -0.885,0.332 -1.881,0.664 -2.766,0.996 -1.992,0.664 -4.094,1.328 -6.086,1.992 -0.663,0.221 -1.438,0.442 -2.102,0.664 -2.102,0.664 -4.204,1.217 -6.307,1.659 -0.774,0.222 -1.549,0.332 -2.434,0.554 -1.992,0.442 -4.094,0.885 -6.085,1.327 -0.443,0.111 -0.775,0.111 -1.218,0.222 -0.663,0.11 -1.438,0.221 -2.102,0.332 -0.996,0.11 -1.881,0.332 -2.877,0.442 -0.442,0.111 -0.885,0.111 -1.327,0.222 -0.554,0.11 -1.218,0.221 -1.881,0.221 -1.771,0.221 -3.652,0.442 -5.422,0.664 -0.553,0.11 -1.217,0.11 -1.77,0.221 h -0.111 c -0.775,0.111 -1.549,0.111 -2.324,0.221 -0.774,0.111 -1.549,0.111 -2.323,0.111 -0.443,0 -0.996,0.111 -1.439,0.111 -0.885,0 -1.659,0.11 -2.434,0.11 -1.106,0 -2.102,0.111 -3.209,0.111 -1.106,0 -2.102,0 -3.208,0 -0.775,0 -1.55,0 -2.324,0 -46.582,-0.664 -88.6281,-20.47 -118.5027,-51.893 0,0 0,-0.111 -0.1106,-0.111 3.43,-6.75 16.1544,-18.921 29.432,-28.99 16.8183,-12.724 40.6073,-20.58 40.6073,-20.58 0,0 15.601,-2.545 73.469,9.516 44.149,9.294 62.958,47.025 69.376,64.396 z"
           fill="#f7d3b5"
           id="path8961" />
        <path
           d="m 194.054,223.352 c -2.324,11.397 -17.371,18.146 -42.71,7.966 -31.091,-12.613 -43.041,-48.131 -43.041,-48.131 -1.66,-25.449 -5.532,-47.246 -5.532,-47.246 35.96,-3.098 78.448,38.948 78.448,38.948 l 4.869,20.801 c 0.442,1.771 1.327,3.32 2.655,4.426 2.324,3.983 6.86,15.933 5.311,23.236 z"
           fill="#f7d3b5"
           id="path8963" />
        <path
           d="m 188.743,200.227 c -21.133,-1.107 -36.735,-4.205 -53.442,-34.19 14.163,12.503 30.87,17.261 48.463,19.474 l 2.324,10.179 c 0.442,1.881 1.327,3.43 2.655,4.537 z"
           fill="#efbda5"
           id="path8965" />
        <path
           d="m 232.449,66.8974 c 1.991,9.2944 2.987,16.8183 -2.435,41.6036 -5.421,24.784 4.979,49.569 -21.133,72.252 -17.593,15.269 -48.353,18.146 -72.916,1.438 -8.299,-5.643 -15.934,-13.499 -22.13,-23.789 C 108.967,150.325 103.324,142.69 97.0169,135.72 88.2758,126.204 77.7644,107.062 82.9648,73.2043 91.3739,18.1022 145.923,11.7954 178.121,17.8809 c 32.198,6.0856 48.906,24.453 54.328,49.0165 z"
           fill="#f7d3b5"
           id="path8967" />
        <path
           d="m 126.56,110.16 c 0,0 -3.43,-16.5967 -19.585,-14.6051 -13.9411,1.7704 -18.8096,35.1861 12.835,44.4801"
           fill="#f7d3b5"
           id="path8969" />
        <path
           style="color:#000000;fill:#423232;stroke-linecap:round;stroke-linejoin:round;stroke-miterlimit:10;-inkscape-stroke:none"
           d="m 110.88672,106.47656 c -0.79876,-0.0615 -1.54581,0.026 -2.22266,0.25 -1.3537,0.44791 -2.33004,1.3892 -2.98047,2.36914 -0.65042,0.97995 -1.01635,2.01625 -1.22656,2.90039 -0.1051,0.44208 -0.16984,0.84509 -0.20117,1.20313 -0.0313,0.35804 -0.0757,0.59147 0.0488,1.08789 a 1.5,1.5 0 0 0 1.81836,1.08984 1.5,1.5 0 0 0 1.09179,-1.82031 c 0.069,0.27517 0.0128,0.093 0.0293,-0.0957 0.0165,-0.18866 0.058,-0.46307 0.13086,-0.76953 0.14573,-0.61292 0.42177,-1.3547 0.80859,-1.9375 0.38683,-0.5828 0.84265,-0.98804 1.42188,-1.17969 0.57923,-0.19166 1.37958,-0.22332 2.65625,0.31055 a 1.50015,1.50015 0 0 0 0.01,0.004 c 0.73841,0.30186 1.17666,0.8189 1.49024,2.09571 0.31358,1.2768 0.34257,3.23267 0.0234,5.73242 a 1.50015,1.50015 0 0 0 -0.004,0.041 c -0.53623,5.3684 4.22656,8.38281 4.22656,8.38282 a 1.5,1.5 0 0 0 2.07032,-0.45704 1.5,1.5 0 0 0 -0.45508,-2.07226 c 0,0 -3.20519,-2.07505 -2.85742,-5.55664 0.33949,-2.68138 0.36852,-4.92077 -0.0898,-6.78711 -0.46068,-1.87573 -1.57151,-3.45864 -3.26562,-4.15235 -0.88024,-0.36719 -1.72715,-0.57737 -2.52344,-0.63867 z"
           id="path8971" />
        <path
           d="m 203.238,135.609 c 0,0 4.205,0.221 8.188,-4.536 2.213,-2.656 4.094,-5.975 2.877,-6.971 -1.217,-1.107 -21.244,1.991 -22.572,4.647 -1.328,2.655 6.417,6.86 11.507,6.86 z"
           fill="#efbda5"
           id="path8973" />
        <path
           style="color:#000000;fill:#423232;stroke-linecap:round;stroke-linejoin:round;stroke-miterlimit:10;-inkscape-stroke:none"
           d="m 206.52734,96.931641 a 1.5,1.5 0 0 0 -1.46875,1.53125 c 0,0 0.23478,10.904529 7.16993,22.957029 h -0.002 c 1.15429,2.0088 0.91411,4.81516 -0.82812,7.4043 -1.74224,2.58913 -4.94547,4.85893 -9.48242,5.52148 a 1.5,1.5 0 0 0 -1.26758,1.70117 1.5,1.5 0 0 0 1.70117,1.26758 c 5.31004,-0.77545 9.2961,-3.48409 11.53711,-6.81445 2.24101,-3.33036 2.77512,-7.38497 0.9414,-10.57617 -6.56283,-11.40548 -6.76953,-21.523439 -6.76953,-21.523439 a 1.5,1.5 0 0 0 -1.53125,-1.46875 z"
           id="path8975" />
        <path
           opacity="0.42"
           d="m 146.587,141.252 c 6.294,0 11.397,-4.211 11.397,-9.405 0,-5.194 -5.103,-9.405 -11.397,-9.405 -6.294,0 -11.397,4.211 -11.397,9.405 0,5.194 5.103,9.405 11.397,9.405 z"
           fill="#ed938a"
           id="path8977" />
        <path
           opacity="0.42"
           d="m 228.244,122.663 c -0.332,6.197 -0.221,12.282 -0.664,18.368 -4.868,-1.107 -8.409,-4.758 -8.409,-9.073 0,-4.647 3.873,-8.409 9.073,-9.295 z"
           fill="#ed938a"
           id="path8979" />
        <path
           d="m 233.428,98.2854 c 3.024,-17.024 2.128,-23.744 0.336,-31.696 -0.56,-2.464 -1.232,-4.816 -2.016,-7.168 -5.936,-4.704 -12.208,-7.728 -21.728,-9.072 -25.648,-3.472 -45.92,-1.12 -67.536,3.584 -13.552,2.912 -10.752,49.7276 -16.016,55.8876 -0.896,-3.136 -5.264,-15.9036 -19.6,-14.1116 -13.5518,1.68 -18.7038,33.0396 9.296,43.7916 -0.224,6.16 -5.936,17.584 -10.528,20.16 0,0 -0.784,-8.176 -9.7438,-18.928 -8.96,-10.752 -26.88,-38.64 -14.784,-79.4076 12.096,-40.768 66.8638,-62.047993 117.8238,-41.328 8.736,3.584 15.904,8.624 21.616,13.888 13.44,12.32 20.608,30.24 18.48,48.272 -0.56,6.048 -2.24,11.872 -5.6,16.128 z"
           fill="#423232"
           id="path8981" />
        <path
           d="m 215.956,47.3255 c 0,0 -33.04,50.624 -94.64,34.944 0,0 -11.984,-30.128 14.112,-41.664 26.208,-11.424 74.256,-3.36 80.528,6.72 z"
           fill="#423232"
           id="path8983" />
        <path
           d="m 212.484,47.9975 c 0,0 4.256,11.76 12.656,21.28 5.488,6.16 12.656,11.312 21.616,11.536 0,0 2.8,-30.464 -17.136,-42.336 -19.936,-11.984 -17.136,9.52 -17.136,9.52 z"
           fill="#423232"
           id="path8985" />
        <path
           d="m 130.612,28.6214 c 0,0 -36.064,-56.112 -67.76,-15.456 -31.696,40.656 2.912,146.8316 -16.352,178.7516 0,0 22.064,-16.016 27.888,-47.376 0,0 0.672,12.992 -3.248,31.136 0,0 23.408,-26.992 23.408,-59.36 0,-32.3676 23.408,-79.4076 36.064,-87.6956 z"
           fill="#423232"
           id="path8987" />
        <path
           d="m 235.444,91.7894 c 4.032,17.1356 0,46.8156 0,46.8156 0,0 49.28,-78.2876 9.408,-107.9676 -33.6,-25.088 -106.064,0.448 -106.064,0.448 0,0 67.984,-16.352 81.2,14.896 12.096,28.224 13.44,18.48 17.248,35.28 0.56,1.68 -2.352,8.176 -1.792,10.528 z"
           fill="#423232"
           id="path8989" />
        <path
           d="m 263.547,237.079 c -15.913,-20.508 -40.569,-29.026 -54.129,-34.069 -1.121,-5.603 -3.25,-11.767 -6.612,-17.707 -5.155,3.138 -11.095,5.492 -17.259,6.724 l 0.897,3.699 c 0.448,1.793 2.69,10.086 -0.785,20.732 -2.913,8.966 -14.681,13 -34.629,3.923 -38.888,-17.595 -43.371,-37.431 -43.371,-37.431 -0.672,-10.759 -1.793,-20.845 -2.801,-29.026 -12.1037,2.69 -26.1123,8.181 -33.733,19.724 -9.4138,14.121 -12.888,28.466 -11.9914,39.897 C 42.7715,223.967 17.4439,239.769 9.15083,268.01 -1.60779,304.769 0.185311,327.295 0.185311,327.295 H 289.772 c -0.337,0.112 -4.595,-62.311 -26.225,-90.216 z"
           fill="#0c8209"
           id="path8991" />
        <path
           style="color:#000000;fill:#423232;stroke-linecap:round;stroke-linejoin:round;stroke-miterlimit:10;-inkscape-stroke:none"
           d="m 90.027344,198.86914 a 1.5,1.5 0 0 0 -1.078125,1.82617 c 0,0 7.041065,27.18079 37.425781,45.84375 a 1.5,1.5 0 0 0 2.0625,-0.49414 1.5,1.5 0 0 0 -0.49219,-2.0625 C 98.485289,225.88742 91.853516,199.94727 91.853516,199.94727 a 1.5,1.5 0 0 0 -1.826172,-1.07813 z"
           id="path8993" />
        <path
           style="color:#000000;fill:#423232;stroke-linecap:round;stroke-linejoin:round;stroke-miterlimit:10;-inkscape-stroke:none"
           d="m 208.96875,201.54883 a 1.5,1.5 0 0 0 -1.125,1.79883 c 0,0 1.94806,8.43995 1.76953,18.81445 -0.17852,10.3745 -2.53065,22.48569 -10.73047,29.94531 a 1.5,1.5 0 0 0 -0.0996,2.11914 1.5,1.5 0 0 0 2.11914,0.0996 c 9.17017,-8.34236 11.52547,-21.3348 11.71094,-32.11328 0.18548,-10.77848 -1.8457,-19.54102 -1.8457,-19.54102 a 1.5,1.5 0 0 0 -1.79883,-1.12304 z"
           id="path8995" />
        <path
           style="color:#000000;fill:#423232;stroke-linecap:round;stroke-linejoin:round;stroke-miterlimit:10;-inkscape-stroke:none"
           d="m 155.77539,246.53125 a 1.5,1.5 0 0 0 -1.90625,0.93359 c 0,0 -1.4842,4.33638 -2.76367,10.15039 -1.27947,5.81402 -2.39168,13.11681 -1.5625,19.33594 a 1.5,1.5 0 0 0 1.68555,1.28711 1.5,1.5 0 0 0 1.28906,-1.68359 c -0.73982,-5.54886 0.2753,-12.64995 1.51758,-18.29492 1.24227,-5.64498 2.67382,-9.82422 2.67382,-9.82422 a 1.5,1.5 0 0 0 -0.93359,-1.9043 z"
           id="path8997" />
        <path
           style="color:#000000;fill:#423232;stroke-linecap:round;stroke-linejoin:round;stroke-miterlimit:10;-inkscape-stroke:none"
           d="m 190.41406,245.57812 a 1.5,1.5 0 0 0 -0.73828,1.98829 c 0,0 4.29713,9.35362 7.4043,24.33398 a 1.5,1.5 0 0 0 1.77344,1.16406 1.5,1.5 0 0 0 1.16406,-1.77343 c -3.16883,-15.27761 -7.61524,-24.97461 -7.61524,-24.97461 a 1.5,1.5 0 0 0 -1.98828,-0.73829 z"
           id="path8999" />
        <path
           style="color:#000000;fill:#423232;stroke-linecap:round;stroke-linejoin:round;stroke-miterlimit:10;-inkscape-stroke:none"
           d="m 58.552734,212.20117 a 1.5,1.5 0 0 0 -1.099609,1.8125 c 0,0 2.414035,9.73928 11.746094,20.70313 9.332059,10.96384 25.643741,23.27115 53.294921,28.82422 a 1.5,1.5 0 0 0 1.76563,-1.17383 1.5,1.5 0 0 0 -1.17579,-1.76758 C 96.04602,255.16969 80.419398,243.27082 71.484375,232.77344 62.549352,222.27605 60.367187,213.29883 60.367187,213.29883 a 1.5,1.5 0 0 0 -1.814453,-1.09766 z"
           id="path9001" />
        <path
           d="m 152.039,279.329 -4.931,-0.448 c -1.793,-0.224 -3.138,-1.905 -2.801,-3.698 l 1.681,-8.405 c 0.448,-2.354 2.689,-4.035 5.043,-3.699 2.353,0.224 4.258,2.242 4.258,4.707 l 0.112,8.629 c 0,1.681 -1.569,3.138 -3.362,2.914 z"
           fill="#ffffff"
           id="path9003" />
        <path
           d="m 203.479,274.174 -4.707,1.681 c -1.793,0.672 -3.699,-0.448 -4.035,-2.241 l -2.017,-8.294 c -0.56,-2.353 0.672,-4.706 3.026,-5.603 2.241,-0.784 4.819,0.224 5.827,2.354 l 3.699,7.732 c 0.784,1.681 0,3.699 -1.793,4.371 z"
           fill="#ffffff"
           id="path9005" />
        <path
           style="color:#000000;fill:#544d4d;stroke-linecap:round;stroke-linejoin:round;stroke-miterlimit:10;-inkscape-stroke:none"
           d="m 50.058594,294.34961 a 1.5,1.5 0 0 0 -0.671875,2.01172 c 0.687712,1.37538 1.407857,4.14847 1.964843,7.37695 0.556987,3.22849 0.996121,6.95406 1.330079,10.47461 0.667915,7.04109 0.917968,13.25391 0.917968,13.25391 a 1.5,1.5 0 0 0 1.560547,1.43945 1.5,1.5 0 0 0 1.4375,-1.56055 c 0,0 -0.252779,-6.28012 -0.929687,-13.41601 -0.338454,-3.56795 -0.78166,-7.35254 -1.359375,-10.70117 -0.577715,-3.34864 -1.244945,-6.22238 -2.238282,-8.20899 a 1.5,1.5 0 0 0 -2.011718,-0.66992 z"
           id="path9007" />
        <path
           style="color:#000000;fill:#544d4d;stroke-linecap:round;stroke-linejoin:round;stroke-miterlimit:10;-inkscape-stroke:none"
           d="m 252.63672,270.11914 a 1.5,1.5 0 0 0 -1.21289,1.74023 c 0,0 6.20434,35.2458 3.79883,55.36915 a 1.5,1.5 0 0 0 1.31054,1.66796 1.5,1.5 0 0 0 1.66797,-1.31054 c 2.52449,-21.11862 -3.82422,-56.25391 -3.82422,-56.25391 a 1.5,1.5 0 0 0 -1.74023,-1.21289 z"
           id="path9009" />
        <path
           d="m 172.433,108.047 c -2.4,-0.1 -4.2,-2.1 -4,-4.5 l 0.1,-2.8 c 0.1,-2.3995 2.1,-4.1995 4.5,-3.9995 2.4,0.1 4.2,2.1 4,4.4995 l -0.1,2.8 c -0.1,2.3 -2.1,4.1 -4.5,4 z"
           fill="#423232"
           id="path9011" />
        <path
           d="m 214.533,109.547 c -2.2,-0.1 -3.9,-2 -3.8,-4.2 l 0.1,-2.6 c 0.1,-2.2 2,-3.8996 4.2,-3.7996 2.2,0.1 3.9,1.9996 3.8,4.1996 l -0.1,2.6 c -0.1,2.2 -2,3.9 -4.2,3.8 z"
           fill="#423232"
           id="path9013" />
        <path
           style="color:#000000;fill:#423232;stroke-linecap:round;stroke-linejoin:round;stroke-miterlimit:10;-inkscape-stroke:none"
           d="m 172.05469,96.322266 c -1.04423,0.133783 -2.04405,0.403369 -2.95117,0.773437 -1.81424,0.740137 -3.39519,1.829871 -3.91211,3.638677 a 1.5,1.5 0 0 0 1.02929,1.85546 1.5,1.5 0 0 0 1.85547,-1.03125 c 0.0831,-0.29069 0.8494,-1.15081 2.16016,-1.685543 1.31076,-0.534737 3.02701,-0.79297 4.55664,-0.544922 a 1.50015,1.50015 0 0 0 0.01,0.002 c 3.79356,0.590109 6.10352,3.779295 6.10352,3.779305 a 1.5,1.5 0 0 0 2.08984,0.36523 1.5,1.5 0 0 0 0.36328,-2.08984 c 0,0 -2.88618,-4.203634 -8.08593,-5.017586 -0.001,-2.13e-4 -0.003,2.14e-4 -0.004,0 -1.08387,-0.175342 -2.17188,-0.178542 -3.21484,-0.04492 z"
           id="path9015" />
        <path
           style="color:#000000;fill:#423232;stroke-linecap:round;stroke-linejoin:round;stroke-miterlimit:10;-inkscape-stroke:none"
           d="m 216.23242,98.447266 c -2.64788,0 -4.39063,1.039652 -5.24219,2.224614 -0.85155,1.18495 -0.85742,2.47656 -0.85742,2.47656 a 1.5,1.5 0 0 0 1.5,1.5 1.5,1.5 0 0 0 1.5,-1.5 c 0,0 -0.005,-0.30932 0.29297,-0.72461 0.29845,-0.41529 0.85452,-0.97656 2.80664,-0.97656 2.87881,0 4.03711,2.625 4.03711,2.625 a 1.5,1.5 0 0 0 1.98633,0.74023 1.5,1.5 0 0 0 0.74219,-1.98828 c 0,0 -2.04445,-4.376954 -6.76563,-4.376954 z"
           id="path9017" />
        <path
           d="m 186.233,86.1474 c 2.1,0.7 4.2,-1.2 3.8,-3.5 -0.2,-1.2 -0.7,-2.4 -1.7,-3.3 -3,-2.7 -15.4,-5.1 -22.9,-1.6 -6.6,3.2 11.2,5.2 20.8,8.4 z"
           fill="#423232"
           id="path9019" />
        <path
           d="m 216.132,87.7475 c -1.7,0.6 -3.5,-1.2 -3.2,-3.3 0.1,-1.1 0.5,-2.2 1.3,-3 2.4,-2.4 10.6,-4.3 15.8,-0.6 4.5,3.1 -6.1,4 -13.9,6.9 z"
           fill="#423232"
           id="path9021" />
        <path
           style="color:#000000;fill:#423232;stroke-linecap:round;stroke-linejoin:round;stroke-miterlimit:10;-inkscape-stroke:none"
           d="m 185.05859,153.15234 a 1.5,1.5 0 0 0 -2.00586,0.68946 1.5,1.5 0 0 0 0.6875,2.00586 c 4.81295,2.35299 10.46441,3.12786 14.71485,0.64843 a 1.5,1.5 0 0 0 0.54101,-2.05273 1.5,1.5 0 0 0 -2.05273,-0.53906 c -2.94955,1.72057 -7.69772,1.29504 -11.88477,-0.75196 z"
           id="path9023" />
        <path
           style="color:#000000;fill:#423232;stroke-linecap:round;stroke-linejoin:round;stroke-miterlimit:10;-inkscape-stroke:none"
           d="m 184.90039,149.5 a 1.5,1.5 0 0 0 -1.5,1.5 c 0,0 0.005,0.75694 -0.47461,1.79492 -0.47982,1.03798 -1.36469,2.23446 -3.44336,2.99805 a 1.5,1.5 0 0 0 -0.89062,1.92383 1.5,1.5 0 0 0 1.92578,0.89062 c 2.82133,-1.03641 4.38568,-2.94072 5.13086,-4.55273 C 186.39361,152.44267 186.40039,151 186.40039,151 a 1.5,1.5 0 0 0 -1.5,-1.5 z"
           id="path9025" />
        <path
           d="m 119.994,131.644 1.761,3.521 c 0.311,0.622 0.932,1.036 1.554,1.14 l 3.935,0.621 c 1.761,0.207 2.382,2.382 1.14,3.625 l -2.797,2.797 c -0.518,0.517 -0.725,1.139 -0.621,1.864 l 0.621,3.936 c 0.311,1.76 -1.553,3.003 -3.107,2.278 l -3.521,-1.864 c -0.622,-0.311 -1.347,-0.311 -1.968,0 l -3.522,1.864 c -1.553,0.829 -3.418,-0.518 -3.107,-2.278 l 0.622,-3.936 c 0.103,-0.725 -0.104,-1.347 -0.622,-1.864 l -2.796,-2.797 c -1.243,-1.243 -0.518,-3.314 1.139,-3.625 l 3.936,-0.621 c 0.725,-0.104 1.243,-0.518 1.553,-1.14 l 1.761,-3.521 c 1.036,-1.657 3.314,-1.657 4.039,0 z"
           fill="#ffde55"
           id="path9027" />
        <path
           d="m 231.334,143.244 c -0.518,0.518 -0.725,1.243 -0.622,1.864 l 0.622,3.936 c 0.311,1.761 -1.554,3.107 -3.107,2.278 l -2.072,-1.139 c 0.725,-5.075 0.932,-10.253 1.036,-15.432 l 0.207,0.414 c 0.311,0.622 0.932,1.036 1.554,1.14 l 3.935,0.517 c 1.761,0.208 2.486,2.383 1.14,3.625 z"
           fill="#ffde55"
           id="path9029" />
      </g>
    </g>
  </g>
</svg>
