<?xml version="1.0" encoding="UTF-8" standalone="no"?>
<!-- Created with Inkscape (http://www.inkscape.org/) -->

<svg
   width="79.375mm"
   height="79.375mm"
   viewBox="0 0 79.375 79.375"
   version="1.1"
   id="svg5"
   sodipodi:docname="avatar-7.svg"
   inkscape:version="1.1.1 (3bf5ae0d25, 2021-09-20)"
   xmlns:inkscape="http://www.inkscape.org/namespaces/inkscape"
   xmlns:sodipodi="http://sodipodi.sourceforge.net/DTD/sodipodi-0.dtd"
   xmlns="http://www.w3.org/2000/svg"
   xmlns:svg="http://www.w3.org/2000/svg">
  <sodipodi:namedview
     id="namedview7"
     pagecolor="#ffffff"
     bordercolor="#999999"
     borderopacity="1"
     inkscape:pageshadow="0"
     inkscape:pageopacity="0"
     inkscape:pagecheckerboard="0"
     inkscape:document-units="mm"
     showgrid="false"
     inkscape:zoom="0.36168631"
     inkscape:cx="662.17602"
     inkscape:cy="-12.441721"
     inkscape:window-width="1920"
     inkscape:window-height="1001"
     inkscape:window-x="-9"
     inkscape:window-y="-9"
     inkscape:window-maximized="1"
     inkscape:current-layer="layer1" />
  <defs
     id="defs2">
    <clipPath
       id="clip0_421_1274">
      <rect
         width="300"
         height="300"
         fill="#ffffff"
         id="rect903"
         x="0"
         y="0" />
    </clipPath>
    <clipPath
       id="clip0_421_1274-3">
      <rect
         width="300"
         height="300"
         fill="#ffffff"
         id="rect1539"
         x="0"
         y="0" />
    </clipPath>
    <clipPath
       id="clip0_421_1274-35">
      <rect
         width="300"
         height="300"
         fill="#ffffff"
         id="rect1928"
         x="0"
         y="0" />
    </clipPath>
  </defs>
  <g
     inkscape:label="Layer 1"
     inkscape:groupmode="layer"
     id="layer1"
     transform="translate(-70.037264,-69.305728)">
    <g
       style="fill:none"
       id="g1989"
       transform="matrix(0.26458333,0,0,0.26458333,70.037264,69.305728)">
      <g
         clip-path="url(#clip0_421_1274-35)"
         id="g1926">
        <path
           id="rect1828"
           style="fill:#b5e2dc"
           d="M 0,0 H 300 V 300 H 0 Z" />
        <path
           d="m 253.592,257.177 c -0.774,0.514 -1.659,1.029 -2.434,1.543 -0.885,0.515 -1.66,1.029 -2.545,1.44 -0.774,0.412 -1.438,0.823 -2.213,1.235 -0.11,0.103 -0.221,0.103 -0.332,0.206 -2.545,1.44 -5.2,2.778 -7.856,4.012 -0.774,0.412 -1.659,0.823 -2.434,1.132 0,0 -0.111,0.103 -0.221,0.103 -0.885,0.411 -1.771,0.823 -2.656,1.234 -1.77,0.823 -3.651,1.543 -5.422,2.264 -0.885,0.411 -1.881,0.72 -2.766,1.028 -0.885,0.309 -1.881,0.721 -2.766,1.029 -0.885,0.309 -1.881,0.72 -2.766,1.029 0,0 0,0 -0.111,0 -0.885,0.309 -1.881,0.617 -2.766,0.926 -1.992,0.617 -4.094,1.235 -6.086,1.852 -0.664,0.206 -1.438,0.411 -2.102,0.617 -2.102,0.617 -4.205,1.132 -6.307,1.543 -0.775,0.206 -1.549,0.309 -2.434,0.515 -1.992,0.411 -4.094,0.823 -6.086,1.234 -0.443,0.103 -0.774,0.103 -1.217,0.206 -0.664,0.103 -1.439,0.206 -2.102,0.309 -0.996,0.103 -1.881,0.308 -2.877,0.411 -0.443,0.103 -0.885,0.103 -1.328,0.206 -0.553,0.103 -1.217,0.206 -1.881,0.206 -1.77,0.206 -3.651,0.411 -5.422,0.617 -0.553,0.103 -1.217,0.103 -1.77,0.206 h -0.111 c -0.774,0.103 -1.549,0.103 -2.323,0.206 -0.775,0.102 -1.55,0.102 -2.324,0.102 -0.443,0 -0.996,0.103 -1.438,0.103 -0.886,0 -1.66,0.103 -2.435,0.103 -1.106,0 -2.102,0.103 -3.209,0.103 -1.106,0 -2.102,0 -3.208,0 -0.775,0 -1.549,0 -2.324,0 -46.583,-0.617 -88.6292,-19.033 -118.5043,-48.251 0,0 0,-0.103 -0.1106,-0.103 3.4301,-6.276 16.1546,-17.592 29.4324,-26.955 16.8186,-11.831 40.6075,-19.135 40.6075,-19.135 0,0 15.602,-2.367 73.471,8.847 44.149,8.642 62.959,43.725 69.376,59.877 z"
           fill="#fee4bf"
           id="path1830" />
        <path
           d="m 196.498,225.798 c -2.324,10.597 -17.372,16.873 -42.711,7.408 -31.092,-11.729 -43.042,-44.753 -43.042,-44.753 -1.659,-23.663 -5.532,-43.93 -5.532,-43.93 35.961,-2.881 78.45,36.214 78.45,36.214 l 4.868,19.341 c 0.443,1.646 1.328,3.087 2.656,4.115 2.323,3.704 6.86,14.815 5.311,21.605 z"
           fill="#fee4bf"
           id="path1832" />
        <path
           d="m 191.186,204.296 c -21.134,-1.029 -36.735,-3.909 -53.443,-31.79 14.163,11.626 30.871,16.049 48.464,18.107 l 2.324,9.465 c 0.442,1.749 1.328,3.189 2.655,4.218 z"
           fill="#efbda5"
           id="path1834" />
        <path
           d="m 234.893,80.325 c 1.992,8.642 2.987,15.6379 -2.434,38.683 -5.422,23.045 4.979,46.091 -21.134,67.181 -17.593,14.198 -48.353,16.873 -72.917,1.338 -8.299,-5.247 -15.934,-12.552 -22.13,-22.12 -4.868,-7.51 -10.512,-14.609 -16.8185,-21.09 -8.7412,-8.848 -19.2528,-26.646 -14.0523,-58.1278 8.4092,-51.2345 62.9588,-57.0987 95.1578,-51.4403 32.198,5.6584 48.906,22.7366 54.328,45.5761 z"
           fill="#fee4bf"
           id="path1836" />
        <path
           d="m 129.003,120.551 c 0,0 -3.43,-15.432 -19.585,-13.58 -13.9418,1.646 -18.8103,32.716 12.835,41.358"
           fill="#fee4bf"
           id="path1838" />
        <path
           style="color:#000000;fill:#423232;stroke-linecap:round;stroke-linejoin:round;stroke-miterlimit:10;-inkscape-stroke:none"
           d="m 113.32227,117.01953 c -0.78613,-0.0564 -1.51868,0.0233 -2.18555,0.22852 -1.33375,0.41046 -2.31977,1.28729 -2.98047,2.21289 -0.6607,0.92559 -1.03509,1.90813 -1.25,2.74804 -0.10746,0.41996 -0.17445,0.80351 -0.20703,1.14844 -0.0326,0.34494 -0.0846,0.5688 0.0527,1.08008 a 1.5,1.5 0 0 0 1.83789,1.06055 1.5,1.5 0 0 0 1.06055,-1.83789 c 0.082,0.30553 0.0197,0.14388 0.0352,-0.0195 0.0154,-0.16342 0.0563,-0.41145 0.12695,-0.6875 0.14127,-0.55212 0.4086,-1.22248 0.78516,-1.75 0.37655,-0.52753 0.82293,-0.90357 1.42187,-1.0879 0.59894,-0.18432 1.43225,-0.20921 2.71875,0.29102 a 1.50015,1.50015 0 0 0 0.01,0.004 c 0.75948,0.28882 1.15963,0.73895 1.46289,1.88672 0.30326,1.14776 0.3367,2.94243 0.0195,5.25195 a 1.50015,1.50015 0 0 0 -0.004,0.043 c -0.55197,5.12719 4.26367,7.93359 4.26367,7.93359 a 1.5,1.5 0 0 0 2.05665,-0.52344 1.5,1.5 0 0 0 -0.52344,-2.05664 c 0,0 -3.14849,-1.92845 -2.81446,-5.03125 l -0.006,0.043 c 0.34682,-2.52547 0.37969,-4.6413 -0.0918,-6.42578 -0.47125,-1.78355 -1.62084,-3.28608 -3.29492,-3.92383 -0.8743,-0.33892 -1.71106,-0.53169 -2.49414,-0.58789 z"
           id="path1840" />
        <path
           d="m 205.682,144.214 c 0,0 4.204,0.206 8.188,-4.218 2.212,-2.469 4.094,-5.556 2.876,-6.482 -1.217,-1.028 -21.244,1.852 -22.572,4.321 -1.328,2.469 6.418,6.379 11.508,6.379 z"
           fill="#efbda5"
           id="path1842" />
        <path
           style="color:#000000;fill:#423232;stroke-linecap:round;stroke-linejoin:round;stroke-miterlimit:10;-inkscape-stroke:none"
           d="m 208.9668,108.14648 a 1.5,1.5 0 0 0 -1.46485,1.53321 c 0,0 0.24193,10.20196 7.19532,21.43554 1.12101,1.81685 0.89623,4.30935 -0.82618,6.68946 -1.72309,2.38106 -4.93493,4.50894 -9.49804,5.1289 a 1.5,1.5 0 0 0 -1.28516,1.6875 1.5,1.5 0 0 0 1.68945,1.28516 c 5.28488,-0.71803 9.26525,-3.22057 11.52539,-6.34375 2.26015,-3.12318 2.80977,-7.00743 0.94532,-10.02539 a 1.50015,1.50015 0 0 0 0,-0.002 C 210.70145,118.95876 210.5,109.61133 210.5,109.61133 a 1.5,1.5 0 0 0 -1.5332,-1.46485 z"
           id="path1844" />
        <path
           opacity="0.42"
           d="m 149.03,149.461 c 6.294,0 11.396,-3.915 11.396,-8.745 0,-4.83 -5.102,-8.745 -11.396,-8.745 -6.295,0 -11.397,3.915 -11.397,8.745 0,4.83 5.102,8.745 11.397,8.745 z"
           fill="#f2a5b2"
           id="path1846" />
        <path
           opacity="0.42"
           d="m 230.688,132.177 c -0.332,5.761 -0.221,11.42 -0.663,17.078 -4.869,-1.029 -8.41,-4.424 -8.41,-8.436 0,-4.321 3.873,-7.819 9.073,-8.642 z"
           fill="#f2a5b2"
           id="path1848" />
        <path
           d="m 175.459,111.253 c 0,0.096 0,0.192 0,0.192 l -0.102,2.691 c -0.103,2.307 -2.145,4.038 -4.597,3.942 -2.451,-0.097 -4.29,-2.115 -4.085,-4.326 l 0.102,-2.691 c 0,-0.481 0.204,-1.058 0.408,-1.442 l 8.172,0.384 c 0,0.385 0.102,0.769 0.102,1.25 z"
           fill="#423232"
           id="path1850" />
        <path
           d="m 218.153,113.367 -0.103,2.5 c -0.102,2.114 -2.042,3.749 -4.289,3.652 -2.247,-0.096 -3.984,-1.922 -3.882,-4.037 l 0.102,-2.499 c 0,-0.481 0.103,-0.961 0.307,-1.346 l 7.66,0.289 c 0.205,0.48 0.205,0.961 0.205,1.441 z"
           fill="#423232"
           id="path1852" />
        <path
           d="m 185.671,98.0837 c 2.248,0.2884 3.984,-1.9225 3.167,-4.0372 -0.409,-1.1535 -1.124,-2.2109 -2.247,-2.8837 -3.473,-2.0186 -16.445,-2.2109 -23.288,2.4031 -6.026,4.2294 12.155,3.1721 22.368,4.5178 z"
           fill="#423232"
           id="path1854" />
        <path
           d="m 213.964,99.141 c -1.839,0 -2.962,-2.2108 -2.043,-4.0372 0.511,-0.9612 1.226,-1.8263 2.247,-2.3069 3.166,-1.4419 11.644,-0.5768 15.423,4.3256 3.371,4.3255 -7.15,1.9224 -15.627,2.0185 z"
           fill="#423232"
           id="path1856" />
        <path
           style="color:#000000;fill:#423232;stroke-linecap:round;stroke-linejoin:round;stroke-miterlimit:10;-inkscape-stroke:none"
           d="m 165.32227,108.02344 a 1.5,1.5 0 0 0 -1.57618,1.41992 1.5,1.5 0 0 0 1.41797,1.57617 l 1.83985,0.0977 a 1.50015,1.50015 0 0 0 0.0254,0 l 8.16601,0.28906 6.83789,0.28711 a 1.5,1.5 0 0 0 1.5625,-1.43555 1.5,1.5 0 0 0 -1.43554,-1.56054 l -6.84375,-0.28907 a 1.50015,1.50015 0 0 0 -0.01,0 l -8.1582,-0.28711 z"
           id="path1858" />
        <path
           style="color:#000000;fill:#423232;stroke-linecap:round;stroke-linejoin:round;stroke-miterlimit:10;-inkscape-stroke:none"
           d="m 209.98047,110.13672 a 1.5,1.5 0 0 0 -1.5,1.5 1.5,1.5 0 0 0 1.5,1.5 h 0.2793 l 7.6289,0.28711 4.49024,0.19336 a 1.5,1.5 0 0 0 1.5625,-1.43555 1.5,1.5 0 0 0 -1.43555,-1.5625 l -4.49414,-0.19141 a 1.50015,1.50015 0 0 0 -0.008,0 l -7.66016,-0.28906 a 1.50015,1.50015 0 0 0 -0.0566,-0.002 z"
           id="path1860" />
        <path
           d="m 199.997,160.218 c 0.1,3.3 -4.8,11.7 -14.3,7.8 -9.1,-3.7 -11.8,-21.1 1.2,-12.8 6.8,4.3 10.9,5 13.1,5 z"
           fill="#ffffff"
           id="path1862" />
        <path
           style="color:#000000;fill:#423232;stroke-linecap:round;stroke-linejoin:round;stroke-miterlimit:10;-inkscape-stroke:none"
           d="m 181.19922,151.48242 c -0.60811,0.005 -1.18195,0.10567 -1.72656,0.30469 -1.08924,0.39803 -1.92748,1.24869 -2.38282,2.22266 -0.45534,0.97396 -0.59296,2.05704 -0.54101,3.17773 0.20779,4.48232 3.31917,10.07999 8.58203,12.2207 5.18607,2.12732 9.53599,0.85121 12.28711,-1.48437 1.37594,-1.16812 2.38653,-2.56391 3.06445,-3.91797 0.42823,-0.85533 0.67937,-1.66784 0.83789,-2.46289 0.008,-0.001 0.0255,0.001 0.0332,0 0.71986,-0.13797 1.26367,-0.41016 1.26367,-0.41016 a 1.5,1.5 0 0 0 0.5957,-2.03515 1.5,1.5 0 0 0 -2.03711,-0.59571 c 0,0 0.0184,0.0161 -0.38672,0.0937 -0.40514,0.0777 -1.10697,0.14616 -2.16406,0.0195 -2.11418,-0.25326 -5.65799,-1.30032 -10.91992,-4.66211 l 0.004,0.004 c -2.5547,-1.64372 -4.68543,-2.4901 -6.50976,-2.47461 z m -0.69727,3.12305 c 0.67778,-0.24768 2.54026,-0.0853 5.58399,1.87305 a 1.50015,1.50015 0 0 0 0.004,0.004 c 5.45633,3.48599 9.34809,4.72986 12.03125,5.07422 -0.1131,0.40104 -0.087,0.63754 -0.32226,1.10742 -0.50958,1.01781 -1.29821,2.10328 -2.32227,2.97266 -2.04811,1.73876 -4.89697,2.76434 -9.20898,0.99414 a 1.50015,1.50015 0 0 0 -0.006,-0.002 c -3.83618,-1.55977 -6.57461,-6.51286 -6.7168,-9.58008 -0.0356,-0.76681 0.0839,-1.38491 0.26367,-1.76953 0.17982,-0.38463 0.35447,-0.54999 0.69336,-0.67383 z"
           id="path1864" />
        <path
           style="color:#000000;fill:#423232;stroke-linecap:round;stroke-linejoin:round;stroke-miterlimit:10;-inkscape-stroke:none"
           d="m 177.79687,156.24805 a 1.5,1.5 0 0 0 -0.95117,0.64257 1.5,1.5 0 0 0 0.42383,2.07813 c 0,0 1.73922,1.15301 3.75391,2.26367 1.00734,0.55533 2.08298,1.10324 3.09961,1.50781 1.01663,0.40458 1.87771,0.78696 3.06836,0.54883 l -0.082,0.0137 c 0.19502,-0.0279 0.0891,-0.0514 0.36719,0.10547 0.27814,0.15685 0.80433,0.54367 1.59571,0.96094 1.58275,0.83454 4.17522,1.69283 9.07812,1.84766 a 1.5,1.5 0 0 0 1.54492,-1.45118 1.5,1.5 0 0 0 -1.45117,-1.54687 c -4.59709,-0.14517 -6.6062,-0.8865 -7.77344,-1.50195 -0.58362,-0.30773 -0.96837,-0.60997 -1.52148,-0.92188 -0.55312,-0.31191 -1.40869,-0.58308 -2.26367,-0.46094 a 1.50015,1.50015 0 0 0 -0.082,0.0137 c 0.19064,-0.0381 -0.55023,-0.0679 -1.3711,-0.39454 -0.82087,-0.32667 -1.81906,-0.82994 -2.76172,-1.3496 -1.88531,-1.03934 -3.54687,-2.13672 -3.54687,-2.13672 a 1.5,1.5 0 0 0 -1.12696,-0.21875 z"
           id="path1866" />
        <path
           d="m 228.708,81.4957 c -0.312,-1.56 -0.728,-3.224 -1.248,-4.784 -0.52,-1.56 -1.768,-2.912 -3.432,-3.224 -5.408,-0.936 -10.608,-10.296 -18.096,-11.336 -23.816,-3.224 -39.728,-1.248 -62.088,7.488 -23.088,8.944 1.664,41.2883 -14.872,51.8963 -0.832,-2.912 -4.888,-14.768 -18.2,-13.104 -12.5837,1.56 -17.3677,30.68 8.632,40.664 -11.336,18.512 -10.504,11.128 -18.824,1.144 -8.3197,-9.984 -24.9597,-35.88 -13.7277,-73.7363 11.232,-37.856 62.0877,-57.616 109.4077,-38.376 8.112,3.328 13,11.544 20.072,12.896 65.832,12.584 13.936,37.96 12.376,30.472 z"
           fill="#423232"
           id="path1868" />
        <path
           d="m 164.748,61.8397 c 0,0 -8.84,-2.6 -14.144,11.232 -5.304,13.832 -23.816,32.8643 -39.208,10.712 -15.392,-22.048 7.696,-39.728 31.72,-32.552 24.024,7.176 21.32,1.768 21.632,10.608 z"
           fill="#423232"
           id="path1870" />
        <path
           d="m 180.036,51.7517 c 0,0 23.4,14.872 38.792,9.048 9.672,-3.64 20.592,-17.056 13,-27.04 -9.048,-11.96 -37.024,-2.912 -52.624,-7.904 -23.4,-7.488 -59.696,-12.48 -76.752,15.6 -4.264,7.0721 -8.112,14.248 -14.144,19.864 -6.24,5.824 -12.48,15.2881 -13,30.0561 -0.936,29.4322 22.152,55.0162 22.152,55.0162 0,0 -13.728,-50.3362 12.168,-57.8242 25.896,-7.488 33.072,-33.3841 50.232,-33.3841 17.16,0 9.152,-19.344 20.176,-3.432 z"
           fill="#423232"
           id="path1872" />
        <path
           d="m 202.812,64.9598 c 0,0 18.824,23.504 32.968,22.152 14.144,-1.352 30.056,-31.72 -8.84,-42.12 -38.896,-10.4 -24.128,19.968 -24.128,19.968 z"
           fill="#423232"
           id="path1874" />
        <path
           d="m 164.748,61.8397 c 0,0 12.376,30.576 45.24,34.216 32.968,3.744 46.28,-56.576 -4.056,-62.296 -50.336,-5.72 -41.184,28.08 -41.184,28.08 z"
           fill="#423232"
           id="path1876" />
        <path
           d="m 138.436,47.4878 c 0,0 7.696,34.944 23.92,36.504 16.224,1.56 11.856,-43.576 -9.36,-46.696 -21.216,-3.12 -14.56,10.192 -14.56,10.192 z"
           fill="#423232"
           id="path1878" />
        <path
           d="m 122.358,197.411 c 0,0 -2.241,-13.897 -6.052,-13.113 C 98.5994,188.333 46.9356,203.35 28.8925,242.35 11.858,279.445 10.2891,331.445 10.2891,331.445 H 293.711 c 0,0 -5.155,-79.009 -34.068,-103.215 -17.147,-14.457 -32.613,-23.311 -45.276,-28.69 -16.811,-7.173 -33.733,7.845 -38.552,7.508 -8.629,-0.448 -53.457,-9.637 -53.457,-9.637 z"
           fill="#544d4d"
           id="path1880" />
        <path
           style="color:#000000;fill:#ffffff;stroke-linecap:round;stroke-linejoin:round;stroke-miterlimit:10;-inkscape-stroke:none"
           d="m 60.539062,288.37695 a 1.5,1.5 0 0 0 -1.308593,1.66992 l 5.042968,41.57813 a 1.5,1.5 0 0 0 1.669922,1.30859 1.5,1.5 0 0 0 1.308594,-1.66992 l -5.042969,-41.57812 a 1.5,1.5 0 0 0 -1.669922,-1.3086 z"
           id="path1882" />
        <path
           style="color:#000000;fill:#ffffff;stroke-linecap:round;stroke-linejoin:round;stroke-miterlimit:10;-inkscape-stroke:none"
           d="m 262.00586,274.35937 a 1.5,1.5 0 0 0 -1.95703,0.81836 c 0,0 -3.5285,8.41192 -2.45508,17.11524 1.02915,8.35266 3.88775,19.93839 -0.20117,38.83398 a 1.5,1.5 0 0 0 1.14844,1.78321 1.5,1.5 0 0 0 1.7832,-1.14844 c 4.20507,-19.43237 1.23489,-31.82662 0.24805,-39.83594 -0.94458,-7.65867 2.25195,-15.60937 2.25195,-15.60937 a 1.5,1.5 0 0 0 -0.81836,-1.95704 z"
           id="path1884" />
        <path
           d="m 109.471,172.979 c 0,0 -8.069,2.914 -9.5263,4.483 -1.4569,1.569 -2.1293,2.578 -2.1293,2.578 0,0 -4.0345,4.483 -6.2759,15.353 -1.0086,4.595 1.3448,12.104 -0.4483,18.043 -5.1552,16.475 19.2758,41.802 59.6208,56.707 30.595,11.319 64.327,1.009 69.034,-20.284 4.483,-20.509 1.793,-29.811 -0.336,-36.423 -4.258,-12.775 -5.603,-16.362 -11.319,-21.293 -3.586,-3.138 -6.052,3.362 -19.5,7.061 -4.146,1.12 -9.189,2.017 -15.689,2.241 -38.664,1.457 -55.026,-20.509 -60.854,-26.784 -1.457,-1.233 -2.129,-1.906 -2.577,-1.682 z"
           fill="#ffffff"
           id="path1886" />
        <path
           style="color:#000000;fill:#cccccc;stroke-linecap:round;stroke-linejoin:round;stroke-miterlimit:10;-inkscape-stroke:none"
           d="m 111.76758,173.04883 a 1.5,1.5 0 0 0 -1.07617,0.40039 1.5,1.5 0 0 0 -0.0781,2.11914 c 2.79651,3.01148 8.53738,10.30644 18.41211,16.54101 9.87405,6.23415 23.971,11.46127 43.5918,10.72266 6.61106,-0.22783 11.78141,-1.14377 16.02929,-2.29101 a 1.5,1.5 0 0 0 1.05664,-1.83985 1.5,1.5 0 0 0 -1.83984,-1.05664 c -4.04611,1.09275 -8.96068,1.96928 -15.34961,2.18945 a 1.50015,1.50015 0 0 0 -0.006,0 c -19.04006,0.71752 -32.45186,-4.30855 -41.88086,-10.26171 -9.429,-5.95316 -14.78492,-12.78041 -17.8164,-16.04493 a 1.5,1.5 0 0 0 -1.04297,-0.47851 z"
           id="path1888" />
        <path
           d="m 208.764,188.109 c 10.198,8.517 27.905,30.819 23.646,80.689 -2.129,24.656 9.862,34.854 7.173,38.776 -0.449,0.673 -1.009,1.009 -1.457,1.121 -1.906,0.448 -3.699,1.345 -4.595,3.138 -0.336,0.784 -0.897,1.345 -1.681,1.793 -0.673,0.448 -1.457,0.448 -2.13,0.336 -2.353,-0.56 -4.931,0.785 -6.387,2.802 -0.561,0.784 -1.233,1.345 -2.242,1.569 -0.672,0.224 -1.345,0.112 -1.793,0 -1.905,-0.56 -4.034,0 -5.715,1.345 -0.449,0.336 -0.897,0.56 -1.457,0.56 -1.009,0 -1.793,-0.448 -2.466,-1.121 -1.569,-1.456 -3.81,-2.017 -6.052,-1.232 -0.224,0.112 -0.336,0.112 -0.56,0.112 -1.569,0.224 -2.802,-1.009 -3.698,-3.138 -0.897,-2.017 -3.026,-2.914 -5.267,-2.69 -0.449,0 -0.897,0 -1.457,-0.112 -4.371,-1.009 -9.974,-7.06 -10.087,-14.457 -0.112,-7.284 1.569,-19.948 4.371,-25.888 8.629,-18.267 11.767,-31.379 12.216,-41.241 0.896,-18.043 -10.535,-34.181 -9.414,-34.517 11.431,-2.354 19.052,-7.845 19.052,-7.845 z"
           fill="#ffffff"
           id="path1890" />
        <path
           style="color:#000000;fill:#cccccc;stroke-linecap:round;stroke-linejoin:round;stroke-miterlimit:10;-inkscape-stroke:none"
           d="m 191.00781,197.00781 a 1.5,1.5 0 0 0 -1.14844,0.0527 1.5,1.5 0 0 0 -0.72265,1.99414 c 2.51155,5.36428 9.02639,17.97366 8.3789,31.34375 a 1.50015,1.50015 0 0 0 -0.002,0.004 c -0.43632,9.605 -3.50169,22.52661 -12.07226,40.66993 a 1.5,1.5 0 0 0 0.71679,1.99609 1.5,1.5 0 0 0 1.9961,-0.71484 c 8.68639,-18.38849 11.89715,-31.692 12.35742,-41.81055 v -0.004 c 0.69705,-14.42234 -6.23798,-27.58663 -8.6582,-32.75586 a 1.5,1.5 0 0 0 -0.84571,-0.77539 z"
           id="path1892" />
        <path
           style="color:#000000;fill:#cccccc;stroke-linecap:round;stroke-linejoin:round;stroke-miterlimit:10;-inkscape-stroke:none"
           d="m 199.08203,228.97266 a 1.5,1.5 0 0 0 -1.56836,1.42968 c -0.43632,9.605 -3.50169,22.52661 -12.07226,40.66993 -3.05421,6.47465 -4.62963,19.00936 -4.51368,26.55078 a 1.5,1.5 0 0 0 1.52149,1.47656 1.5,1.5 0 0 0 1.47851,-1.52344 c -0.10803,-7.02598 1.67712,-19.81653 4.22657,-25.22265 v -0.002 c 8.68678,-18.38973 11.89776,-31.69383 12.35742,-41.8125 a 1.5,1.5 0 0 0 -1.42969,-1.5664 z"
           id="path1894" />
        <path
           style="color:#000000;fill:#cccccc;stroke-linecap:round;stroke-linejoin:round;stroke-miterlimit:10;-inkscape-stroke:none"
           d="m 136.82227,243.73047 a 1.5,1.5 0 0 0 -2.09961,0.29297 1.5,1.5 0 0 0 0.29296,2.10156 c 23.07358,17.41996 57.53321,13.85547 57.53321,13.85547 a 1.5,1.5 0 0 0 1.3457,-1.64063 1.5,1.5 0 0 0 -1.64062,-1.34375 c 0,0 -33.67726,3.15838 -55.43164,-13.26562 z"
           id="path1896" />
        <path
           style="color:#000000;fill:#cccccc;stroke-linecap:round;stroke-linejoin:round;stroke-miterlimit:10;-inkscape-stroke:none"
           d="m 201.86914,197.95312 a 1.5,1.5 0 0 0 -1.125,0.23633 1.5,1.5 0 0 0 -0.39258,2.08399 c 3.05381,4.47171 6.5078,10.9736 7.36719,18.92773 a 1.5,1.5 0 0 0 1.6543,1.33008 1.5,1.5 0 0 0 1.33007,-1.65234 c -0.93261,-8.63186 -4.65085,-15.5786 -7.87304,-20.29688 a 1.5,1.5 0 0 0 -0.96094,-0.62891 z"
           id="path1898" />
        <path
           style="color:#000000;fill:#cccccc;stroke-linecap:round;stroke-linejoin:round;stroke-miterlimit:10;-inkscape-stroke:none"
           d="m 218.77539,236.62109 a 1.5,1.5 0 0 0 -1.17187,1.76953 c 0,0 0.67039,3.24068 0.61523,10.08399 -0.0552,6.84331 -0.85614,17.1894 -3.86133,31.10156 -2.88913,13.31525 -2.90138,23.09575 -2.16797,29.58203 0.73346,6.48662 2.27735,9.81446 2.27735,9.81446 a 1.5,1.5 0 0 0 1.99804,0.71679 1.5,1.5 0 0 0 0.71485,-1.99609 c 0,0 -1.31252,-2.72392 -2.00782,-8.87305 -0.69529,-6.14912 -0.70823,-15.58868 2.11719,-28.60937 a 1.50015,1.50015 0 0 0 0.002,-0.002 c 3.0468,-14.1048 3.87089,-24.65801 3.92773,-31.71093 0.0568,-7.05293 -0.67578,-10.70508 -0.67578,-10.70508 a 1.5,1.5 0 0 0 -1.76758,-1.17188 z"
           id="path1900" />
        <path
           style="color:#000000;fill:#cccccc;stroke-linecap:round;stroke-linejoin:round;stroke-miterlimit:10;-inkscape-stroke:none"
           d="m 91.806641,199.58008 a 1.5,1.5 0 0 0 -1.146485,0.0684 1.5,1.5 0 0 0 -0.693359,2.0039 c 0,0 7.420775,15.5864 17.005863,23.16016 a 1.5,1.5 0 0 0 2.10547,-0.24805 1.5,1.5 0 0 0 -0.2461,-2.10547 C 100.26133,215.68676 92.664062,200.3418 92.664062,200.3418 a 1.5,1.5 0 0 0 -0.857421,-0.76172 z"
           id="path1902" />
        <path
           style="color:#000000;fill:#cccccc;stroke-linecap:round;stroke-linejoin:round;stroke-miterlimit:10;-inkscape-stroke:none"
           d="m 162.34961,232.32227 a 1.5,1.5 0 0 0 -1.94141,0.85546 1.5,1.5 0 0 0 0.85547,1.94141 c 15.54145,6.03154 36.95508,4.46875 36.95508,4.46875 a 1.5,1.5 0 0 0 1.39453,-1.59766 1.5,1.5 0 0 0 -1.59961,-1.39453 c 0,0 -21.17154,1.35102 -35.66406,-4.27343 z"
           id="path1904" />
        <path
           opacity="0.6"
           d="m 187.2,130.926 c 0,0 -9.4,5.9 -20,5.8 -10.6,-0.1 -11.9,-8.4 -12,-12.9 0,0 1.4,6.5 7.8,8.9 6.3,2.4 24.2,-1.8 24.2,-1.8 z"
           fill="#b7aea9"
           id="path1906" />
        <path
           opacity="0.6"
           d="m 217.4,129.826 c 0,0 2.3,2.8 5.4,4.8 2.1,1.4 4.9,-0.1 4.9,-2.6 0.1,0 -5.8,0.3 -10.3,-2.2 z"
           fill="#b7aea9"
           id="path1908" />
        <path
           opacity="0.43"
           d="m 190.9,102.626 -29.4,29.4 c 2.3,1.4 5.1,2.1 7.9,1.7 l 14,-1.8 c 4.2,-0.6 8.1,-2.7 11.1,-6.2 1.2,-1.3 1.9,-3.1 2,-5 l 0.5,-9.9 c 0.2,-4.3 -2.5,-7.9 -6.1,-8.2 z"
           fill="#fe9dab"
           id="path1910" />
        <path
           opacity="0.3"
           d="m 190.9,102.626 -28.1,-2.6 c -4.7,-0.4002 -8.7,3.9 -8.7,9.3 v 8.5 c 0,6.2 3,11.5 7.4,14.2 z"
           fill="#fe9dab"
           id="path1912" />
        <path
           opacity="0.3"
           d="m 231.9,101.626 -17.6,2.3 c -2.3,0.3 -4,3.6 -3.8,7.4 l 0.3,8.9 c 0.1,1.7 0.5,3.3 1.2,4.5 1.2,2 2.7,3.5 4.3,4.5 l 20.9,-20.9 c -0.4,-4 -2.7,-7 -5.3,-6.7 z"
           fill="#fe9dab"
           id="path1914" />
        <path
           opacity="0.43"
           d="m 216.4,129.326 c 0.9,0.5 1.7,0.9 2.7,1.1 l 8.7,1.7 c 5.1,1 9.6,-5.7 9.6,-14.4 v -7.6 c 0,-0.6 0,-1.1 -0.1,-1.6 z"
           fill="#fe9dab"
           id="path1916" />
        <path
           style="color:#000000;fill:#ffffff;stroke-linecap:round;stroke-linejoin:round;stroke-miterlimit:10;-inkscape-stroke:none"
           d="m 162.9375,98.414062 c -5.75408,-0.489954 -10.45703,4.712738 -10.45703,10.912108 v 8.5 c 0,10.40937 7.95073,18.75139 17.13672,17.50391 l 13.98828,-1.79883 a 1.6189119,1.6189119 0 0 0 0.0234,-0.002 c 4.57203,-0.65315 8.83066,-2.95767 12.07031,-6.72266 1.48359,-1.615 2.30031,-3.76063 2.41797,-5.99609 a 1.6189119,1.6189119 0 0 0 0,-0.002 l 0.5,-9.90039 a 1.6189119,1.6189119 0 0 0 0,-0.008 c 0.23336,-5.0173 -2.98077,-9.50328 -7.58203,-9.88672 h 0.0137 l -28.09961,-2.599608 a 1.6189119,1.6189119 0 0 0 -0.0117,0 z m -0.2793,3.224608 28.0918,2.59961 a 1.6189119,1.6189119 0 0 0 0.0156,0 c 2.59873,0.21656 4.78383,2.92903 4.61719,6.51172 l -0.5,9.89453 c -0.0828,1.55614 -0.66535,3.00189 -1.57226,3.98438 a 1.6189119,1.6189119 0 0 0 -0.0391,0.043 c -2.75469,3.21381 -6.27824,5.10348 -10.08984,5.65039 l -13.98828,1.79882 a 1.6189119,1.6189119 0 0 0 -0.0117,0 c -7.014,0.95252 -13.46289,-5.5043 -13.46289,-14.29492 v -8.5 c 0,-4.59894 3.29512,-7.99514 6.93945,-7.6875 z"
           id="path1918" />
        <path
           style="color:#000000;fill:#ffffff;stroke-linecap:round;stroke-linejoin:round;stroke-miterlimit:10;-inkscape-stroke:none"
           d="m 231.7793,100.12305 -17.58985,2.29687 c -1.85317,0.24252 -3.22769,1.61339 -4.06054,3.26367 -0.83314,1.65084 -1.21475,3.69334 -1.04297,5.86914 l -0.004,-0.0723 0.29883,8.8457 c 0,6.8e-4 0,10e-4 0,0.002 3.8e-4,2.01495 0.57484,3.86042 1.41992,5.31054 2.8e-4,4.8e-4 -2.8e-4,10e-4 0,0.002 4.1e-4,6.9e-4 0.002,0.001 0.002,0.002 1.9749,3.39932 4.79626,5.75844 7.99219,6.37304 l 8.69531,1.69922 a 1.6189119,1.6189119 0 0 0 0.0293,0.006 c 3.30723,0.58363 6.35245,-1.35798 8.33984,-4.33203 1.9874,-2.97404 3.16016,-7.07977 3.16016,-11.66211 v -7.59961 c 0,-2.72529 -0.67003,-5.19553 -1.86914,-7.0625 -1.19911,-1.86696 -3.1533,-3.247305 -5.37109,-2.9414 z m 0.4414,3.20703 c 0.68221,-0.0941 1.42919,0.27439 2.20508,1.48242 0.77589,1.20803 1.35547,3.13975 1.35547,5.31445 v 7.59961 c 0,4.01766 -1.07763,7.56233 -2.61523,9.86328 -1.53761,2.30095 -3.29123,3.25778 -5.08399,2.94141 l -8.67187,-1.69336 a 1.6189119,1.6189119 0 0 0 -0.004,-0.002 c -2.00285,-0.38517 -4.18165,-2.02367 -5.80664,-4.82227 a 1.6189119,1.6189119 0 0 0 -0.002,-0.004 c -0.5535,-0.94885 -0.97852,-2.301 -0.97852,-3.6836 a 1.6189119,1.6189119 0 0 0 -0.002,-0.0547 l -0.29883,-8.90039 a 1.6189119,1.6189119 0 0 0 -0.004,-0.0723 c -0.12822,-1.6242 0.18822,-3.13209 0.70508,-4.15625 0.51687,-1.02416 1.14396,-1.45356 1.58984,-1.51172 l 17.59961,-2.29883 a 1.6189119,1.6189119 0 0 0 0.0117,-0.002 z"
           id="path1920" />
        <path
           style="color:#000000;fill:#ffffff;stroke-linecap:round;stroke-linejoin:round;stroke-miterlimit:10;-inkscape-stroke:none"
           d="m 131.0332,108.32617 a 1.5,1.5 0 0 0 -1.5332,1.4668 1.5,1.5 0 0 0 1.4668,1.5332 l 23.10156,0.5 a 1.5,1.5 0 0 0 1.53125,-1.46679 1.5,1.5 0 0 0 -1.4668,-1.53321 z"
           id="path1922" />
        <path
           style="color:#000000;fill:#ffffff;stroke-linecap:round;stroke-linejoin:round;stroke-miterlimit:10;-inkscape-stroke:none"
           d="m 207.97656,108.40039 c -1.51458,-0.12665 -3.22978,-0.0416 -4.88867,0.11328 -3.31778,0.30983 -6.40234,0.92383 -6.40234,0.92383 a 1.61875,1.61875 0 0 0 -1.27344,1.9043 1.61875,1.61875 0 0 0 1.90234,1.27148 c 0,0 2.96701,-0.58483 6.07422,-0.875 1.55361,-0.14508 3.14233,-0.20967 4.31836,-0.11133 0.58802,0.0492 1.07275,0.14449 1.34961,0.24024 0.27686,0.0957 0.27376,0.18371 0.16992,0.0176 a 1.61875,1.61875 0 0 0 2.23047,0.51367 1.61875,1.61875 0 0 0 0.51563,-2.23047 c -0.47884,-0.76613 -1.18741,-1.12895 -1.85938,-1.36133 -0.67196,-0.23238 -1.37942,-0.34292 -2.13672,-0.40625 z"
           id="path1924" />
      </g>
    </g>
  </g>
</svg>
