<?xml version="1.0" encoding="UTF-8" standalone="no"?>
<!-- Created with Inkscape (http://www.inkscape.org/) -->

<svg
   width="79.375mm"
   height="79.375mm"
   viewBox="0 0 79.375 79.375"
   version="1.1"
   id="svg5"
   xmlns="http://www.w3.org/2000/svg"
   xmlns:svg="http://www.w3.org/2000/svg">
  <defs
     id="defs2">
    <clipPath
       id="clip0_421_1274">
      <rect
         width="300"
         height="300"
         fill="#ffffff"
         id="rect903"
         x="0"
         y="0" />
    </clipPath>
    <clipPath
       id="clip0_421_1274-3">
      <rect
         width="300"
         height="300"
         fill="#ffffff"
         id="rect1539"
         x="0"
         y="0" />
    </clipPath>
    <clipPath
       id="clip0_421_1274-35">
      <rect
         width="300"
         height="300"
         fill="#ffffff"
         id="rect1928"
         x="0"
         y="0" />
    </clipPath>
    <clipPath
       id="clip0_421_1274-8">
      <rect
         width="300"
         height="300"
         fill="#ffffff"
         id="rect2361"
         x="0"
         y="0" />
    </clipPath>
    <linearGradient
       id="paint0_linear_421_1274"
       x1="121.039"
       y1="222.77901"
       x2="121.039"
       y2="132.015"
       gradientUnits="userSpaceOnUse">
      <stop
         stop-color="#FF7300"
         id="stop2716" />
      <stop
         offset="0.1086"
         stop-color="#FF8D08"
         id="stop2718" />
      <stop
         offset="0.2899"
         stop-color="#FFB214"
         id="stop2720" />
      <stop
         offset="0.4716"
         stop-color="#FFCF1E"
         id="stop2722" />
      <stop
         offset="0.6514"
         stop-color="#FFE325"
         id="stop2724" />
      <stop
         offset="0.8286"
         stop-color="#FFF029"
         id="stop2726" />
      <stop
         offset="1"
         stop-color="#FFF42A"
         id="stop2728" />
    </linearGradient>
    <linearGradient
       id="paint1_linear_421_1274"
       x1="121.04"
       y1="129.14799"
       x2="121.04"
       y2="139.46899"
       gradientUnits="userSpaceOnUse">
      <stop
         stop-color="#FF7300"
         id="stop2731" />
      <stop
         offset="0.1086"
         stop-color="#FF8D08"
         id="stop2733" />
      <stop
         offset="0.2899"
         stop-color="#FFB214"
         id="stop2735" />
      <stop
         offset="0.4716"
         stop-color="#FFCF1E"
         id="stop2737" />
      <stop
         offset="0.6514"
         stop-color="#FFE325"
         id="stop2739" />
      <stop
         offset="0.8286"
         stop-color="#FFF029"
         id="stop2741" />
      <stop
         offset="1"
         stop-color="#FFF42A"
         id="stop2743" />
    </linearGradient>
    <linearGradient
       id="paint2_linear_421_1274"
       x1="226.423"
       y1="222.77901"
       x2="226.423"
       y2="132.015"
       gradientUnits="userSpaceOnUse">
      <stop
         stop-color="#FF7300"
         id="stop2746" />
      <stop
         offset="0.1086"
         stop-color="#FF8D08"
         id="stop2748" />
      <stop
         offset="0.2899"
         stop-color="#FFB214"
         id="stop2750" />
      <stop
         offset="0.4716"
         stop-color="#FFCF1E"
         id="stop2752" />
      <stop
         offset="0.6514"
         stop-color="#FFE325"
         id="stop2754" />
      <stop
         offset="0.8286"
         stop-color="#FFF029"
         id="stop2756" />
      <stop
         offset="1"
         stop-color="#FFF42A"
         id="stop2758" />
    </linearGradient>
    <clipPath
       id="clip0_421_1274-6">
      <rect
         width="300"
         height="300"
         fill="#ffffff"
         id="rect2761"
         x="0"
         y="0" />
    </clipPath>
    <clipPath
       id="clip0_421_1274-9">
      <rect
         width="300"
         height="300"
         fill="#ffffff"
         id="rect3154"
         x="0"
         y="0" />
    </clipPath>
    <clipPath
       id="clip0_421_1274-61">
      <rect
         width="300"
         height="300"
         fill="#ffffff"
         id="rect3560"
         x="0"
         y="0" />
    </clipPath>
    <linearGradient
       id="paint0_linear_421_1274-3"
       x1="118.039"
       y1="225.166"
       x2="118.039"
       y2="137.532"
       gradientUnits="userSpaceOnUse">
      <stop
         stop-color="#FF7300"
         id="stop4079" />
      <stop
         offset="0.1086"
         stop-color="#FF8D08"
         id="stop4081" />
      <stop
         offset="0.2899"
         stop-color="#FFB214"
         id="stop4083" />
      <stop
         offset="0.4716"
         stop-color="#FFCF1E"
         id="stop4085" />
      <stop
         offset="0.6514"
         stop-color="#FFE325"
         id="stop4087" />
      <stop
         offset="0.8286"
         stop-color="#FFF029"
         id="stop4089" />
      <stop
         offset="1"
         stop-color="#FFF42A"
         id="stop4091" />
    </linearGradient>
    <linearGradient
       id="paint1_linear_421_1274-7"
       x1="118.04"
       y1="134.76401"
       x2="118.04"
       y2="144.729"
       gradientUnits="userSpaceOnUse">
      <stop
         stop-color="#FF7300"
         id="stop4094" />
      <stop
         offset="0.1086"
         stop-color="#FF8D08"
         id="stop4096" />
      <stop
         offset="0.2899"
         stop-color="#FFB214"
         id="stop4098" />
      <stop
         offset="0.4716"
         stop-color="#FFCF1E"
         id="stop4100" />
      <stop
         offset="0.6514"
         stop-color="#FFE325"
         id="stop4102" />
      <stop
         offset="0.8286"
         stop-color="#FFF029"
         id="stop4104" />
      <stop
         offset="1"
         stop-color="#FFF42A"
         id="stop4106" />
    </linearGradient>
    <linearGradient
       id="paint2_linear_421_1274-8"
       x1="223.423"
       y1="225.166"
       x2="223.423"
       y2="137.532"
       gradientUnits="userSpaceOnUse">
      <stop
         stop-color="#FF7300"
         id="stop4109" />
      <stop
         offset="0.1086"
         stop-color="#FF8D08"
         id="stop4111" />
      <stop
         offset="0.2899"
         stop-color="#FFB214"
         id="stop4113" />
      <stop
         offset="0.4716"
         stop-color="#FFCF1E"
         id="stop4115" />
      <stop
         offset="0.6514"
         stop-color="#FFE325"
         id="stop4117" />
      <stop
         offset="0.8286"
         stop-color="#FFF029"
         id="stop4119" />
      <stop
         offset="1"
         stop-color="#FFF42A"
         id="stop4121" />
    </linearGradient>
    <clipPath
       id="clip0_421_1274-4">
      <rect
         width="300"
         height="300"
         fill="#ffffff"
         id="rect4124"
         x="0"
         y="0" />
    </clipPath>
    <clipPath
       id="clip0_421_1274-2">
      <rect
         width="300"
         height="300"
         fill="#ffffff"
         id="rect4458"
         x="0"
         y="0" />
    </clipPath>
    <clipPath
       id="clip0_421_1274-1">
      <rect
         width="300"
         height="300"
         fill="#ffffff"
         id="rect4979"
         x="0"
         y="0" />
    </clipPath>
    <clipPath
       id="clip0_421_1274-24">
      <rect
         width="300"
         height="300"
         fill="#ffffff"
         id="rect5434"
         x="0"
         y="0" />
    </clipPath>
    <clipPath
       id="clip0_421_1274-46">
      <rect
         width="300"
         height="300"
         fill="#ffffff"
         id="rect5850"
         x="0"
         y="0" />
    </clipPath>
    <clipPath
       id="clip0_421_1274-5">
      <rect
         width="300"
         height="300"
         fill="#ffffff"
         id="rect6329"
         x="0"
         y="0" />
    </clipPath>
    <clipPath
       id="clip0_421_1274-38">
      <rect
         width="300"
         height="300"
         fill="#ffffff"
         id="rect6804"
         x="0"
         y="0" />
    </clipPath>
    <clipPath
       id="clip0_421_1274-44">
      <rect
         width="300"
         height="300"
         fill="#ffffff"
         id="rect7152"
         x="0"
         y="0" />
    </clipPath>
    <clipPath
       id="clip0_421_1274-94">
      <rect
         width="300"
         height="300"
         fill="#ffffff"
         id="rect7595"
         x="0"
         y="0" />
    </clipPath>
    <clipPath
       id="clip0_421_1274-10">
      <rect
         width="300"
         height="300"
         fill="#ffffff"
         id="rect8065"
         x="0"
         y="0" />
    </clipPath>
    <clipPath
       id="clip0_421_1274-87">
      <rect
         width="300"
         height="300"
         fill="#ffffff"
         id="rect8554"
         x="0"
         y="0" />
    </clipPath>
  </defs>
  <g
     id="layer1"
     transform="translate(-213.56928,-49.341447)">
    <g
       style="fill:none"
       id="g8607"
       transform="matrix(0.26458333,0,0,0.26458333,213.56928,49.341447)">
      <g
         clip-path="url(#clip0_421_1274-87)"
         id="g8552">
        <path
           id="rect8470"
           style="fill:#b5e2c9;fill-opacity:0.968627"
           d="M 0,0 H 300 V 300 H 0 Z" />
        <path
           d="m 251.589,257.099 c -0.774,0.553 -1.659,1.107 -2.434,1.66 -0.885,0.553 -1.66,1.106 -2.545,1.549 -0.774,0.443 -1.438,0.885 -2.213,1.328 -0.11,0.11 -0.221,0.11 -0.332,0.221 -2.544,1.549 -5.2,2.987 -7.855,4.315 -0.775,0.443 -1.66,0.885 -2.435,1.217 0,0 -0.11,0.111 -0.221,0.111 -0.885,0.443 -1.77,0.885 -2.656,1.328 -1.77,0.885 -3.651,1.659 -5.421,2.434 -0.885,0.443 -1.881,0.774 -2.766,1.106 -0.886,0.332 -1.881,0.775 -2.767,1.107 -0.885,0.332 -1.881,0.774 -2.766,1.106 0,0 0,0 -0.11,0 -0.886,0.332 -1.881,0.664 -2.767,0.996 -1.991,0.664 -4.093,1.328 -6.085,1.992 -0.664,0.221 -1.439,0.442 -2.102,0.664 -2.103,0.664 -4.205,1.217 -6.307,1.659 -0.775,0.222 -1.549,0.332 -2.435,0.554 -1.991,0.442 -4.093,0.885 -6.085,1.327 -0.443,0.111 -0.775,0.111 -1.217,0.222 -0.664,0.11 -1.439,0.221 -2.102,0.332 -0.996,0.11 -1.881,0.332 -2.877,0.442 -0.443,0.111 -0.885,0.111 -1.328,0.222 -0.553,0.11 -1.217,0.221 -1.881,0.221 -1.77,0.221 -3.651,0.442 -5.422,0.664 -0.553,0.11 -1.217,0.11 -1.77,0.221 h -0.111 c -0.774,0.111 -1.549,0.111 -2.323,0.221 -0.775,0.111 -1.549,0.111 -2.324,0.111 -0.442,0 -0.996,0.111 -1.438,0.111 -0.885,0 -1.66,0.11 -2.435,0.11 -1.106,0 -2.102,0.111 -3.208,0.111 -1.107,0 -2.103,0 -3.209,0 -0.775,0 -1.549,0 -2.324,0 -46.582,-0.664 -88.6277,-20.47 -118.5023,-51.893 0,0 0,-0.111 -0.1106,-0.111 3.43,-6.75 16.1544,-18.921 29.432,-28.99 16.8183,-12.724 40.6069,-20.58 40.6069,-20.58 0,0 15.602,-2.545 73.47,9.516 44.148,9.294 62.958,47.025 69.375,64.396 z"
           fill="#fee4bf"
           id="path8472" />
        <path
           d="m 194.495,223.352 c -2.323,11.397 -17.371,18.146 -42.709,7.966 -31.092,-12.613 -43.042,-48.131 -43.042,-48.131 -1.659,-25.449 -5.532,-47.246 -5.532,-47.246 35.96,-3.098 78.448,38.948 78.448,38.948 l 4.869,20.801 c 0.442,1.771 1.328,3.32 2.655,4.426 2.324,3.983 6.861,15.933 5.311,23.236 z"
           fill="#fee4bf"
           id="path8474" />
        <path
           d="m 189.185,200.227 c -21.134,-1.107 -36.735,-4.205 -53.443,-34.19 14.163,12.503 30.871,17.261 48.463,19.474 l 2.324,10.179 c 0.443,1.881 1.328,3.43 2.656,4.537 z"
           fill="#efbda5"
           id="path8476" />
        <path
           d="m 232.89,66.8974 c 1.992,9.2944 2.987,16.8183 -2.434,41.6036 -5.422,24.784 4.979,49.569 -21.134,72.252 -17.593,15.269 -48.352,18.146 -72.916,1.438 -8.299,-5.643 -15.933,-13.499 -22.129,-23.789 C 109.408,150.325 103.765,142.69 97.4583,135.72 88.7172,126.204 78.2058,107.062 83.4062,73.2043 91.8153,18.1022 146.364,11.7954 178.562,17.8809 c 32.199,6.0856 48.906,24.453 54.328,49.0165 z"
           fill="#fee4bf"
           id="path8478" />
        <path
           d="m 127.001,110.16 c 0,0 -3.43,-16.5967 -19.584,-14.6051 -13.9417,1.7704 -18.8102,35.1861 12.835,44.4801"
           fill="#fee4bf"
           id="path8480" />
        <path
           style="color:#000000;fill:#423232;stroke-linecap:round;stroke-linejoin:round;stroke-miterlimit:10;-inkscape-stroke:none"
           d="m 111.32813,106.47656 c -0.7987,-0.0615 -1.54586,0.026 -2.22266,0.25 -1.35361,0.44794 -2.32812,1.38924 -2.97852,2.36914 -0.65039,0.9799 -1.01818,2.01637 -1.22851,2.90039 -0.10517,0.44201 -0.16974,0.84524 -0.20117,1.20313 -0.0314,0.35789 -0.0769,0.59024 0.0469,1.08594 a 1.5,1.5 0 0 0 1.81836,1.09179 1.5,1.5 0 0 0 1.09375,-1.81836 c 0.0685,0.27445 0.0127,0.0911 0.0293,-0.0977 0.0166,-0.1888 0.0579,-0.46301 0.13086,-0.76953 0.14585,-0.61304 0.42173,-1.35466 0.80859,-1.9375 0.38686,-0.58285 0.84279,-0.98806 1.42188,-1.17969 0.57908,-0.19163 1.37985,-0.2233 2.65625,0.31055 a 1.50015,1.50015 0 0 0 0.01,0.004 c 0.73893,0.30195 1.17665,0.8189 1.49024,2.09571 0.31358,1.2768 0.34406,3.23252 0.0254,5.73242 a 1.50015,1.50015 0 0 0 -0.006,0.0391 c -0.53746,5.36847 4.22656,8.38477 4.22656,8.38477 a 1.5,1.5 0 0 0 2.07031,-0.45704 1.5,1.5 0 0 0 -0.45508,-2.07226 c 0,0 -3.20401,-2.07512 -2.85547,-5.55664 l -0.006,0.041 c 0.34432,-2.7011 0.37497,-4.95143 -0.0859,-6.82812 -0.46068,-1.87573 -1.57299,-3.45873 -3.26758,-4.15235 -0.87944,-0.36671 -1.72584,-0.57742 -2.52148,-0.63867 z"
           id="path8482" />
        <path
           d="m 203.679,135.609 c 0,0 4.205,0.221 8.188,-4.536 2.213,-2.656 4.094,-5.975 2.877,-6.971 -1.217,-1.107 -21.244,1.991 -22.572,4.647 -1.328,2.655 6.418,6.86 11.507,6.86 z"
           fill="#efbda5"
           id="path8484" />
        <path
           style="color:#000000;fill:#423232;stroke-linecap:round;stroke-linejoin:round;stroke-miterlimit:10;-inkscape-stroke:none"
           d="m 206.9668,96.931641 a 1.5,1.5 0 0 0 -1.4668,1.53125 c 0,0 0.23374,10.904519 7.16992,22.957029 1.15391,2.00881 0.91216,4.81516 -0.83008,7.4043 -1.74223,2.58913 -4.9469,4.85892 -9.48437,5.52148 a 1.5,1.5 0 0 0 -1.26758,1.70117 1.5,1.5 0 0 0 1.70117,1.26758 c 5.31052,-0.77544 9.30001,-3.48409 11.54102,-6.81445 2.24101,-3.33036 2.77449,-7.38304 0.9414,-10.57422 a 1.50015,1.50015 0 0 0 -0.002,-0.002 C 208.70568,108.51832 208.498,98.400341 208.498,98.400341 a 1.5,1.5 0 0 0 -1.53125,-1.46875 z"
           id="path8486" />
        <path
           opacity="0.42"
           d="m 147.028,141.252 c 6.295,0 11.397,-4.211 11.397,-9.405 0,-5.194 -5.102,-9.405 -11.397,-9.405 -6.294,0 -11.396,4.211 -11.396,9.405 0,5.194 5.102,9.405 11.396,9.405 z"
           fill="#f2a5b2"
           id="path8488" />
        <path
           opacity="0.42"
           d="m 228.685,122.663 c -0.332,6.197 -0.221,12.282 -0.664,18.368 -4.868,-1.107 -8.409,-4.758 -8.409,-9.073 0,-4.647 3.873,-8.409 9.073,-9.295 z"
           fill="#f2a5b2"
           id="path8490" />
        <path
           d="m 267.641,236.983 c -15.914,-20.509 -40.569,-29.026 -54.129,-34.069 -1.121,-5.604 -17.707,-12.328 -23.871,-10.983 l 0.896,3.698 c 0.449,1.793 2.69,10.086 -0.784,20.733 -2.914,8.966 -14.681,13 -34.629,3.922 -38.888,-17.594 -43.371,-37.431 -43.371,-37.431 -0.56,-9.077 -32.9483,12.44 -45.6121,23.871 -6.2759,5.604 -8.9655,7.957 -15.4655,13 -14.2328,10.871 -31.1552,26.56 -37.5431,48.19 -10.75865,36.758 -8.96554,59.284 -8.96554,59.284 H 293.529 c 0,0.112 -4.259,-62.31 -25.888,-90.215 z"
           fill="#7e5d6d"
           id="path8492" />
        <path
           style="color:#000000;fill:#544d4d;stroke-linecap:round;stroke-linejoin:round;stroke-miterlimit:10;-inkscape-stroke:none"
           d="m 55.296875,294.17187 a 1.5,1.5 0 0 0 -1.144531,0.082 1.5,1.5 0 0 0 -0.671875,2.01171 c 0.687702,1.37541 1.407861,4.14856 1.964843,7.37696 0.556983,3.22839 0.996115,6.95223 1.330079,10.47265 0.667928,7.04085 0.917968,13.25586 0.917968,13.25586 a 1.5,1.5 0 0 0 1.560547,1.4375 1.5,1.5 0 0 0 1.4375,-1.55859 c 0,0 -0.252767,-6.28233 -0.929687,-13.41797 -0.338461,-3.56782 -0.781665,-7.35068 -1.359375,-10.69922 -0.577711,-3.34854 -1.244985,-6.22239 -2.238282,-8.20898 a 1.5,1.5 0 0 0 -0.867187,-0.75196 z"
           id="path8494" />
        <path
           style="color:#000000;fill:#544d4d;stroke-linecap:round;stroke-linejoin:round;stroke-miterlimit:10;-inkscape-stroke:none"
           d="m 256.8418,270.02344 a 1.5,1.5 0 0 0 -1.21289,1.74023 c 0,0 6.20433,35.24683 3.79882,55.36914 a 1.5,1.5 0 0 0 1.31055,1.66602 1.5,1.5 0 0 0 1.66797,-1.31055 c 2.52449,-21.11765 -3.82422,-56.25195 -3.82422,-56.25195 a 1.5,1.5 0 0 0 -1.74023,-1.21289 z"
           id="path8496" />
        <path
           d="m 63.0029,213.56 c 0,0 -7.0604,18.268 2.6896,25.552 9.75,7.172 29.1379,3.586 29.1379,3.586 0,0 1.3449,23.086 19.9486,24.88 18.603,1.793 29.362,-12.216 29.362,-12.216 0,0 15.241,20.621 37.095,19.164 21.853,-1.569 20.844,-27.009 20.844,-27.009 0,0 8.63,5.716 19.052,1.793 12.664,-4.707 8.293,-25.551 0,-31.379 0,0 16.811,2.241 11.655,-7.06 -5.267,-9.302 -28.913,-20.173 -43.37,-18.828 0,0 2.241,17.371 -14.793,20.845 -20.733,4.146 -44.156,-4.707 -56.259,-22.078 -7.733,-11.095 -6.836,-11.543 -13.448,-9.974 -6.6124,1.569 -44.7159,22.19 -41.9141,32.724 z"
           fill="#ffffff"
           id="path8498" />
        <path
           style="color:#000000;fill:#e2e2e2;stroke-linecap:round;stroke-linejoin:round;stroke-miterlimit:10;-inkscape-stroke:none"
           d="M 89.361328,186.7207 A 1.5,1.5 0 0 0 88.5,188.66016 c 0.756287,1.96607 0.572252,2.59317 0.572266,3.90039 1.4e-5,1.30722 0.298727,3.03323 1.902343,5.64648 a 1.50015,1.50015 0 0 0 0.002,0.004 c 0.951017,1.53661 2.38143,2.52492 3.746094,3.50976 1.364665,0.98484 2.692589,1.95145 3.642578,3.13867 0.66807,0.83551 1.225323,2.25581 1.869149,3.84375 0.64381,1.58795 1.39869,3.35903 2.83593,4.79688 a 1.50015,1.50015 0 0 0 0.002,0 c 1.34373,1.34374 3.01933,2.0285 4.57226,2.67773 1.55293,0.64924 3.00041,1.25885 4.04883,2.125 a 1.50015,1.50015 0 0 0 0.0117,0.01 c 0.90782,0.73505 1.76452,2.01269 2.73828,3.41602 0.97329,1.40265 2.08837,2.94607 3.82031,3.98632 8.3e-4,5e-4 0.001,0.001 0.002,0.002 1.60792,0.97611 3.38607,1.28309 5.04296,1.5664 1.65002,0.28214 3.19162,0.54017 4.37696,1.08203 1.04966,0.52925 2.18821,1.56888 3.45507,2.69336 1.27095,1.12811 2.6924,2.34762 4.5586,2.97266 1.81329,0.62625 3.63348,0.52714 5.32226,0.42773 1.68565,-0.0992 3.25855,-0.2036 4.59571,0.0703 3.40707,0.78671 6.73896,3.74067 10.99414,4.27539 4.74043,0.63729 8.84458,-1.44336 11.73633,-1.44336 3.71175,0 7.74296,1.90653 11.83203,1.09179 4.78199,-0.91001 7.76888,-4.50327 10.49609,-5.96875 3.38485,-1.73993 7.85286,-2.22589 10.82617,-5.46679 l 0.002,-0.002 c 3.20533,-3.47419 3.1415,-8.26739 4.32617,-11.33593 1.31683,-3.34224 4.42705,-6.67674 4.69531,-11.10547 a 1.50015,1.50015 0 0 0 0.002,-0.008 c 0.26212,-4.72161 -2.51671,-8.62979 -3.29882,-11.56446 a 1.5,1.5 0 0 0 -1.83594,-1.0625 1.5,1.5 0 0 0 -1.0625,1.83399 c 1.00931,3.78717 3.38403,7.27445 3.20117,10.62109 -0.18073,2.96674 -2.89535,6.13262 -4.49219,10.18555 a 1.50015,1.50015 0 0 0 -0.004,0.008 c -1.50187,3.87917 -1.56838,8.04394 -3.73829,10.39453 a 1.50015,1.50015 0 0 0 -0.004,0.004 c -1.95363,2.13195 -5.99353,2.77102 -10.00195,4.83594 a 1.50015,1.50015 0 0 0 -0.0215,0.01 c -3.5442,1.8986 -6.16,5.01539 -9.6582,5.67774 a 1.50015,1.50015 0 0 0 -0.0137,0.002 c -2.63292,0.52627 -6.67154,-1.15039 -11.25,-1.15039 -4.0546,0 -7.79367,1.94995 -11.3418,1.4707 a 1.50015,1.50015 0 0 0 -0.0156,-0.002 c -2.90763,-0.36315 -6.29399,-3.21955 -10.72265,-4.23242 a 1.50015,1.50015 0 0 0 -0.0293,-0.006 c -1.91027,-0.39499 -3.74924,-0.22369 -5.39258,-0.12696 -1.64333,0.0967 -3.07316,0.11091 -4.17187,-0.26953 a 1.50015,1.50015 0 0 0 -0.0156,-0.006 c -1.15467,-0.38502 -2.30715,-1.29195 -3.52734,-2.375 -1.22019,-1.08305 -2.48519,-2.32914 -4.12109,-3.14648 a 1.50015,1.50015 0 0 0 -0.043,-0.0215 c -1.72601,-0.79666 -3.53391,-1.04357 -5.15235,-1.32031 -1.61844,-0.27673 -3.03,-0.58662 -3.99804,-1.17578 a 1.50015,1.50015 0 0 0 -0.008,-0.006 c -1.06763,-0.64073 -1.96889,-1.78453 -2.90039,-3.12695 -0.9291,-1.33898 -1.86482,-2.8576 -3.30468,-4.02735 -4.5e-4,-3.6e-4 -0.002,3.7e-4 -0.002,0 -1.52826,-1.26213 -3.27216,-1.94295 -4.80078,-2.58203 -1.52907,-0.63926 -2.82216,-1.24403 -3.60742,-2.02929 -0.91576,-0.91615 -1.56258,-2.28068 -2.17969,-3.80274 -0.6171,-1.52205 -1.18006,-3.1853 -2.30469,-4.5918 -1.291307,-1.61377 -2.877484,-2.72085 -4.230467,-3.69726 -1.352983,-0.97641 -2.443337,-1.83691 -2.949219,-2.6543 -1.419041,-2.31351 -1.45702,-3.05502 -1.457031,-4.07226 -1.1e-5,-1.01803 0.151273,-2.5746 -0.773438,-4.97852 a 1.5,1.5 0 0 0 -1.9375,-0.86133 z"
           id="path8500" />
        <path
           d="m 91.581,214.009 c 0,0 -24.2069,0.672 -16.25,11.767 7.9569,10.983 16.25,-11.767 16.25,-11.767 z"
           fill="#7e5d6d"
           id="path8502" />
        <path
           d="m 123.072,237.095 c 0,0 -20.06,12.776 -7.845,18.043 12.216,5.267 7.845,-18.043 7.845,-18.043 z"
           fill="#7e5d6d"
           id="path8504" />
        <path
           d="m 179.106,244.603 c 0,0 -8.293,21.406 4.259,18.492 12.551,-2.802 -4.259,-18.492 -4.259,-18.492 z"
           fill="#7e5d6d"
           id="path8506" />
        <path
           d="m 209.813,227.457 c 0,0 3.25,18.827 10.983,11.431 7.621,-7.509 -10.983,-11.431 -10.983,-11.431 z"
           fill="#7e5d6d"
           id="path8508" />
        <path
           d="m 215.753,202.802 c 0,0 8.405,13.224 11.991,7.62 3.587,-5.715 -11.991,-7.62 -11.991,-7.62 z"
           fill="#7e5d6d"
           id="path8510" />
        <path
           style="color:#000000;fill:#e2e2e2;stroke-linecap:round;stroke-linejoin:round;stroke-miterlimit:10;-inkscape-stroke:none"
           d="m 116.88672,188.13477 c 0,0 -1.99789,1.04185 -4.27149,2.5625 -2.2736,1.52064 -4.8567,3.42684 -6.19531,5.75195 a 1.5,1.5 0 0 0 0.55078,2.04883 1.5,1.5 0 0 0 2.04883,-0.55078 c 0.79039,-1.37289 3.13853,-3.33451 5.26367,-4.75586 2.12515,-1.42136 3.99219,-2.39649 3.99219,-2.39649 a 1.5,1.5 0 0 0 0.63477,-2.02344 1.5,1.5 0 0 0 -2.02344,-0.63671 z"
           id="path8512" />
        <path
           style="color:#000000;fill:#e2e2e2;stroke-linecap:round;stroke-linejoin:round;stroke-miterlimit:10;-inkscape-stroke:none"
           d="m 128.65625,198.95312 a 1.5,1.5 0 0 0 -1.01758,0.53125 c 0,0 -1.61798,1.92823 -3.33984,4.20508 -0.86093,1.13843 -1.74939,2.36641 -2.49024,3.50782 -0.74084,1.1414 -1.33666,2.12578 -1.63281,3.14062 a 1.5,1.5 0 0 0 1.01953,1.86133 1.5,1.5 0 0 0 1.85938,-1.01953 c 0.0963,-0.33016 0.59185,-1.30552 1.26953,-2.34961 0.67768,-1.04409 1.53299,-2.22701 2.36719,-3.33008 1.66839,-2.20615 3.24609,-4.08789 3.24609,-4.08789 a 1.5,1.5 0 0 0 -0.18555,-2.11328 1.5,1.5 0 0 0 -1.0957,-0.34571 z"
           id="path8514" />
        <path
           style="color:#000000;fill:#e2e2e2;stroke-linecap:round;stroke-linejoin:round;stroke-miterlimit:10;-inkscape-stroke:none"
           d="m 142.78125,208.32422 a 1.5,1.5 0 0 0 -0.87305,0.74609 c 0,0 -3.36442,6.5112 -4.47851,10.47071 a 1.5,1.5 0 0 0 1.03711,1.85156 1.5,1.5 0 0 0 1.85156,-1.03906 c 0.9039,-3.21249 4.26367,-9.92383 4.26367,-9.92383 a 1.5,1.5 0 0 0 -0.65625,-2.01758 1.5,1.5 0 0 0 -1.14453,-0.0879 z"
           id="path8516" />
        <path
           style="color:#000000;fill:#e2e2e2;stroke-linecap:round;stroke-linejoin:round;stroke-miterlimit:10;-inkscape-stroke:none"
           d="m 159.93945,212.51367 a 1.5,1.5 0 0 0 -1.60547,1.38672 c 0,0 -0.46603,6.19168 0.004,11.01172 a 1.5,1.5 0 0 0 1.63672,1.34766 1.5,1.5 0 0 0 1.34766,-1.63868 c -0.42606,-4.36994 0.004,-10.5039 0.004,-10.5039 a 1.5,1.5 0 0 0 -1.38672,-1.60352 z"
           id="path8518" />
        <path
           style="color:#000000;fill:#e2e2e2;stroke-linecap:round;stroke-linejoin:round;stroke-miterlimit:10;-inkscape-stroke:none"
           d="m 175.94336,211.35352 a 1.5,1.5 0 0 0 -0.94922,1.89648 c 0,0 2.23497,6.74083 3.09375,10.81836 a 1.5,1.5 0 0 0 1.77539,1.1582 1.5,1.5 0 0 0 1.16016,-1.77734 c -0.93522,-4.44046 -3.1836,-11.14844 -3.1836,-11.14844 a 1.5,1.5 0 0 0 -1.89648,-0.94726 z"
           id="path8520" />
        <path
           style="color:#000000;fill:#e2e2e2;stroke-linecap:round;stroke-linejoin:round;stroke-miterlimit:10;-inkscape-stroke:none"
           d="m 186.94141,202.66406 a 1.5,1.5 0 0 0 -0.97852,0.59961 1.5,1.5 0 0 0 0.33008,2.0957 c 0,0 1.48271,1.07969 3.08203,2.53125 1.59932,1.45157 3.24959,3.41655 3.54492,4.33594 a 1.5,1.5 0 0 0 1.88672,0.96875 1.5,1.5 0 0 0 0.96875,-1.88672 c -0.71267,-2.2186 -2.64813,-4.06424 -4.38281,-5.63867 -1.73468,-1.57443 -3.33399,-2.73633 -3.33399,-2.73633 a 1.5,1.5 0 0 0 -1.11718,-0.26953 z"
           id="path8522" />
        <path
           style="color:#000000;fill:#e2e2e2;stroke-linecap:round;stroke-linejoin:round;stroke-miterlimit:10;-inkscape-stroke:none"
           d="m 189.69922,193.00977 a 1.5,1.5 0 0 0 -1.55664,1.4414 1.5,1.5 0 0 0 1.43945,1.55664 c 0,0 5.11452,0.45589 6.87305,3.13477 a 1.5,1.5 0 0 0 2.07812,0.42969 1.5,1.5 0 0 0 0.43164,-2.07618 c -2.94946,-4.49311 -9.26562,-4.48632 -9.26562,-4.48632 z"
           id="path8524" />
        <path
           d="m 262.41,189.504 c -6.272,-13.888 -11.088,-11.984 -6.72,-24.528 4.368,-12.432 -1.232,-21.28 -12.768,-33.04 -10.976,-11.2 -12.096,-23.408 -11.76,-25.2 -1.008,4.704 -1.456,9.52 -1.68,14.224 -0.336,6.272 -0.224,12.432 -0.672,18.592 -0.896,13.776 -4.144,27.328 -18.928,40.096 -6.496,5.6 -14.784,9.632 -23.968,11.536 -2.464,7.504 1.232,12.88 9.296,13.776 8.064,0.896 11.424,12.992 29.68,18.704 27.328,8.848 43.792,-20.272 37.52,-34.16 z"
           fill="#e75d32"
           id="path8526" />
        <path
           d="m 211.338,53.984 c 2.352,1.232 4.368,0.112 5.6,-2.352 12.992,-2.016 16.016,23.968 16.464,25.536 0.448,1.68 0.672,6.384 -0.224,19.264 -0.56,7.168 41.104,-43.6799 3.024,-65.184 2.8,-4.144 0.784,-24.75196 -22.624,-29.79196 -8.4,-1.791997 -19.376,6.048 -33.152,3.024 -53.872,-11.984 -109.7601,-0.56 -105.3921,70.55996 1.008,15.568 2.016,32.368 -24.416,43.568 -30.688,12.992 -29.12,46.928 -7.504,53.872 8.96,2.912 -20.608,23.072 -3.36,40.992 8.96,9.408 24.976,-9.632 41.216,0.672 24.5281,15.568 36.7361,8.512 41.5521,2.352 9.856,-12.544 -2.352,-37.744 -2.352,-37.744 0,0 4.816,-7.728 6.384,-11.872 7.616,-20.384 -10.528,-29.568 -10.528,-29.568 -28.0001,-10.752 -22.9601,-42 -9.296,-43.792 14.336,-1.792 18.816,10.976 19.6,14.112 0,0 12.656,17.472 37.072,-22.4 24.192,-39.872 37.408,-36.96 47.936,-31.248 z"
           fill="#e75d32"
           id="path8528" />
        <path
           d="m 172.828,108.678 c -2.4,-0.1 -4.2,-2.1 -4,-4.5 l 0.1,-2.8 c 0.1,-2.3995 2.1,-4.1995 4.5,-3.9995 2.4,0.1 4.2,2.1 4,4.4995 l -0.1,2.8 c -0.1,2.3 -2.1,4.1 -4.5,4 z"
           fill="#423232"
           id="path8530" />
        <path
           d="m 214.928,110.178 c -2.2,-0.1 -3.9,-2 -3.8,-4.2 l 0.1,-2.6 c 0.1,-2.2 2,-3.8996 4.2,-3.7996 2.2,0.1 3.9,1.9996 3.8,4.1996 l -0.1,2.6 c -0.1,2.2 -2,3.9 -4.2,3.8 z"
           fill="#423232"
           id="path8532" />
        <path
           style="color:#000000;fill:#423232;stroke-linecap:round;stroke-linejoin:round;stroke-miterlimit:10;-inkscape-stroke:none"
           d="m 172.44922,96.953125 c -1.04423,0.133785 -2.04405,0.403361 -2.95117,0.773437 -1.81425,0.740154 -3.39521,1.829844 -3.91211,3.638668 a 1.5,1.5 0 0 0 1.02929,1.85547 1.5,1.5 0 0 0 1.85547,-1.03125 c 0.0831,-0.29077 0.85136,-1.1508 2.16211,-1.68554 1.31075,-0.534749 3.02506,-0.792973 4.55469,-0.544926 a 1.50015,1.50015 0 0 0 0.01,0.002 c 3.79353,0.590106 6.10351,3.779296 6.10351,3.779296 a 1.5,1.5 0 0 0 2.08984,0.36524 1.5,1.5 0 0 0 0.36524,-2.08984 c 0,0 -2.88811,-4.203633 -8.08789,-5.017586 -0.001,-2.14e-4 -0.003,2.13e-4 -0.004,0 -1.08387,-0.175343 -2.17188,-0.178545 -3.21484,-0.04492 z"
           id="path8534" />
        <path
           style="color:#000000;fill:#423232;stroke-linecap:round;stroke-linejoin:round;stroke-miterlimit:10;-inkscape-stroke:none"
           d="m 216.62891,99.078125 c -2.64783,0 -4.39255,1.039775 -5.24414,2.224605 -0.8516,1.18483 -0.85743,2.47461 -0.85743,2.47461 a 1.5,1.5 0 0 0 1.5,1.5 1.5,1.5 0 0 0 1.5,-1.5 c 0,0 -0.005,-0.30944 0.29297,-0.72461 0.2984,-0.41516 0.85642,-0.9746 2.8086,-0.9746 2.87894,0 4.03515,2.62304 4.03515,2.62304 a 1.5,1.5 0 0 0 1.98828,0.74024 1.5,1.5 0 0 0 0.74024,-1.98633 c 0,0 -2.04263,-4.376955 -6.76367,-4.376955 z"
           id="path8536" />
        <path
           d="m 188.228,85.4784 c 2.2,-0.2 3.3,-2.8 2.1,-4.8 -0.7,-1 -1.6,-1.9 -2.9,-2.4 -3.8,-1.2 -16.2,1.5 -21.6,7.7 -4.8,5.7 12.4,0.4 22.4,-0.5 z"
           fill="#e75d32"
           id="path8538" />
        <path
           d="m 214.628,87.0784 c -1.7,-0.5 -2.2,-3 -0.8,-4.6 0.7,-0.8 1.7,-1.5 2.8,-1.7 3.4,-0.6 11.2,2.5 13.4,8.4 2,5.1 -7.3,-0.1 -15.4,-2.1 z"
           fill="#e75d32"
           id="path8540" />
        <path
           style="color:#000000;fill:#423232;stroke-linecap:round;stroke-linejoin:round;stroke-miterlimit:10;-inkscape-stroke:none"
           d="m 181.27734,146.52539 a 1.5,1.5 0 0 0 -1.125,0.23633 1.5,1.5 0 0 0 -0.39062,2.08594 c 1.50589,2.20092 3.46192,2.96599 4.96289,3.14257 1.50097,0.17659 2.37814,0.0975 2.9707,0.47461 a 1.50015,1.50015 0 0 0 0.0449,0.0273 c 1.82076,1.07103 3.34223,1.61211 4.85157,1.5957 1.50934,-0.0164 2.80074,-0.55822 4.24023,-1.22656 a 1.50015,1.50015 0 0 0 0.0254,-0.0137 c 1.69062,-0.82364 2.44359,-0.7236 3.43164,-0.56641 0.98806,0.15719 2.44684,0.52511 4.11524,-0.20898 a 1.5,1.5 0 0 0 0.76953,-1.97657 1.5,1.5 0 0 0 -1.97852,-0.76953 c -0.8316,0.36591 -1.2236,0.185 -2.43554,-0.008 -1.21195,-0.19281 -3.00742,-0.24238 -5.2168,0.83398 l 0.0254,-0.0137 c -1.3605,0.63166 -2.21911,0.94063 -3.00977,0.94922 -0.79065,0.009 -1.71959,-0.25268 -3.29882,-1.18164 l 0.0449,0.0273 c -1.60744,-1.02291 -3.17949,-0.80041 -4.22852,-0.92382 -1.04902,-0.12342 -1.74379,-0.25835 -2.83789,-1.85743 a 1.5,1.5 0 0 0 -0.96094,-0.62695 z"
           id="path8542" />
        <path
           style="color:#000000;fill:#423232;stroke-linecap:round;stroke-linejoin:round;stroke-miterlimit:10;-inkscape-stroke:none"
           d="m 161.34961,90.822266 c -7.12125,0 -12.89258,5.771673 -12.89258,12.892574 v 9.83985 c 0,7.12038 5.77133,12.89062 12.89258,12.89062 h 24.13281 c 7.0307,0 12.89258,-5.75378 12.89258,-12.89062 v -9.83985 c 0,-7.120901 -5.77132,-12.892574 -12.89258,-12.892574 z m 0,3 h 24.13281 c 5.51474,0 9.89258,4.378295 9.89258,9.892574 v 9.83985 c 0,5.49714 -4.49529,9.89062 -9.89258,9.89062 h -24.13281 c -5.51473,0 -9.89258,-4.37702 -9.89258,-9.89062 v -9.83985 c 0,-5.514279 4.37785,-9.892574 9.89258,-9.892574 z"
           id="path8544" />
        <path
           style="color:#000000;fill:#423232;stroke-linecap:round;stroke-linejoin:round;stroke-miterlimit:10;-inkscape-stroke:none"
           d="m 215.20703,90.822266 c -4.96798,0 -9.06055,4.092706 -9.06055,9.060546 v 9.009768 a 1.50015,1.50015 0 0 0 0.0547,0.4043 c 1.48282,5.2952 3.61601,10.43058 6.84375,15.05664 a 1.50015,1.50015 0 0 0 1.23047,0.64257 c -0.0234,0 0.28624,0.10352 0.93164,0.10352 h 11.91016 c 4.968,0 9.0625,-4.09255 9.0625,-9.06055 V 99.882812 l -0.002,0.03516 c 0.12297,-5.069517 -4.03398,-9.095703 -9.06054,-9.095703 z m 0,3 h 11.91016 c 3.46542,0 6.14553,2.600163 6.0625,6.023437 a 1.50015,1.50015 0 0 0 0,0.03711 v 16.156247 c 0,3.31799 -2.74451,6.06055 -6.0625,6.06055 h -11.91016 c 5e-5,0 -0.002,0 -0.002,0 -2.76278,-4.10328 -4.70064,-8.65103 -6.0586,-13.45117 v -8.765627 c 0,-3.31775 2.74254,-6.060546 6.06055,-6.060546 z"
           id="path8546" />
        <path
           style="color:#000000;fill:#423232;stroke-linecap:round;stroke-linejoin:round;stroke-miterlimit:10;-inkscape-stroke:none"
           d="m 202.58789,99.779297 c -2.07107,0.07997 -4.09858,0.266083 -5.88867,0.476563 a 1.5,1.5 0 0 0 -1.31445,1.66602 1.5,1.5 0 0 0 1.66601,1.31445 c 3.46182,-0.40704 7.84666,-0.69996 11.36328,-0.3086 a 1.5,1.5 0 0 0 1.65625,-1.32617 1.5,1.5 0 0 0 -1.32617,-1.656248 c -1.97068,-0.219317 -4.08518,-0.245989 -6.15625,-0.166015 z"
           id="path8548" />
        <path
           style="color:#000000;fill:#423232;stroke-linecap:round;stroke-linejoin:round;stroke-miterlimit:10;-inkscape-stroke:none"
           d="m 149.90625,100.97266 -24.0293,0.82812 a 1.5,1.5 0 0 0 -1.44726,1.55078 1.5,1.5 0 0 0 1.55078,1.44727 l 24.02734,-0.82813 a 1.5,1.5 0 0 0 1.44922,-1.55078 1.5,1.5 0 0 0 -1.55078,-1.44726 z"
           id="path8550" />
      </g>
    </g>
  </g>
</svg>
