<?xml version="1.0" encoding="UTF-8" standalone="no"?>
<!-- Created with Inkscape (http://www.inkscape.org/) -->

<svg
   width="79.375mm"
   height="79.375mm"
   viewBox="0 0 79.375 79.375"
   version="1.1"
   id="svg5"
   xmlns="http://www.w3.org/2000/svg"
   xmlns:svg="http://www.w3.org/2000/svg">
  <defs
     id="defs2">
    <clipPath
       id="clip0_421_1274">
      <rect
         width="300"
         height="300"
         fill="#ffffff"
         id="rect903"
         x="0"
         y="0" />
    </clipPath>
    <clipPath
       id="clip0_421_1274-3">
      <rect
         width="300"
         height="300"
         fill="#ffffff"
         id="rect1539"
         x="0"
         y="0" />
    </clipPath>
  </defs>
  <g
     id="layer1"
     transform="translate(-69.490771,-69.490765)">
    <g
       style="fill:none"
       id="g1586"
       transform="matrix(0.26458333,0,0,0.26458333,69.490771,69.490765)">
      <g
         clip-path="url(#clip0_421_1274-3)"
         id="g1537">
        <path
           id="rect1467"
           style="fill:#b5e2c9"
           d="M 0,0 H 300 V 300 H 0 Z" />
        <path
           d="m 253.592,257.177 c -0.774,0.514 -1.659,1.029 -2.434,1.543 -0.885,0.515 -1.66,1.029 -2.545,1.44 -0.774,0.412 -1.438,0.823 -2.213,1.235 -0.11,0.103 -0.221,0.103 -0.332,0.206 -2.545,1.44 -5.2,2.778 -7.856,4.012 -0.774,0.412 -1.659,0.823 -2.434,1.132 0,0 -0.111,0.103 -0.221,0.103 -0.885,0.411 -1.771,0.823 -2.656,1.234 -1.77,0.823 -3.651,1.543 -5.422,2.264 -0.885,0.411 -1.881,0.72 -2.766,1.028 -0.885,0.309 -1.881,0.721 -2.766,1.029 -0.885,0.309 -1.881,0.72 -2.766,1.029 0,0 0,0 -0.111,0 -0.885,0.309 -1.881,0.617 -2.766,0.926 -1.992,0.617 -4.094,1.235 -6.086,1.852 -0.664,0.206 -1.438,0.411 -2.102,0.617 -2.102,0.617 -4.205,1.132 -6.307,1.543 -0.775,0.206 -1.549,0.309 -2.434,0.515 -1.992,0.411 -4.094,0.823 -6.086,1.234 -0.443,0.103 -0.774,0.103 -1.217,0.206 -0.664,0.103 -1.439,0.206 -2.102,0.309 -0.996,0.103 -1.881,0.308 -2.877,0.411 -0.443,0.103 -0.885,0.103 -1.328,0.206 -0.553,0.103 -1.217,0.206 -1.881,0.206 -1.77,0.206 -3.651,0.411 -5.422,0.617 -0.553,0.103 -1.217,0.103 -1.77,0.206 h -0.111 c -0.774,0.103 -1.549,0.103 -2.323,0.206 -0.775,0.102 -1.55,0.102 -2.324,0.102 -0.443,0 -0.996,0.103 -1.438,0.103 -0.886,0 -1.66,0.103 -2.435,0.103 -1.106,0 -2.102,0.103 -3.209,0.103 -1.106,0 -2.102,0 -3.208,0 -0.775,0 -1.549,0 -2.324,0 -46.583,-0.617 -88.6292,-19.033 -118.5043,-48.251 0,0 0,-0.103 -0.1106,-0.103 3.4301,-6.276 16.1546,-17.592 29.4324,-26.955 16.8186,-11.831 40.6075,-19.135 40.6075,-19.135 0,0 15.602,-2.367 73.471,8.847 44.149,8.642 62.959,43.725 69.376,59.877 z"
           fill="#fee4bf"
           id="path1469" />
        <path
           d="m 196.498,225.798 c -2.324,10.597 -17.372,16.873 -42.711,7.408 -31.092,-11.729 -43.042,-44.753 -43.042,-44.753 -1.659,-23.663 -5.532,-43.93 -5.532,-43.93 35.961,-2.881 78.45,36.214 78.45,36.214 l 4.868,19.341 c 0.443,1.646 1.328,3.087 2.656,4.115 2.323,3.704 6.86,14.815 5.311,21.605 z"
           fill="#fee4bf"
           id="path1471" />
        <path
           d="m 191.186,204.296 c -21.134,-1.029 -36.735,-3.909 -53.443,-31.79 14.163,11.626 30.871,16.049 48.464,18.107 l 2.324,9.465 c 0.442,1.749 1.328,3.189 2.655,4.218 z"
           fill="#efbda5"
           id="path1473" />
        <path
           d="m 234.893,80.325 c 1.992,8.642 2.987,15.6379 -2.434,38.683 -5.422,23.045 4.979,46.091 -21.134,67.181 -17.593,14.198 -48.353,16.873 -72.917,1.338 -8.299,-5.247 -15.934,-12.552 -22.13,-22.12 -4.868,-7.51 -10.512,-14.609 -16.8185,-21.09 -8.7412,-8.848 -19.2528,-26.646 -14.0523,-58.1278 8.4092,-51.2345 62.9588,-57.0987 95.1578,-51.4403 32.198,5.6584 48.906,22.7366 54.328,45.5761 z"
           fill="#fee4bf"
           id="path1475" />
        <path
           d="m 129.003,120.551 c 0,0 -3.43,-15.432 -19.585,-13.58 -13.9418,1.646 -18.8103,32.716 12.835,41.358"
           fill="#fee4bf"
           id="path1477" />
        <path
           style="color:#000000;fill:#423232;stroke-linecap:round;stroke-linejoin:round;stroke-miterlimit:10;-inkscape-stroke:none"
           d="m 113.32227,117.01953 c -0.78613,-0.0564 -1.51868,0.0233 -2.18555,0.22852 -1.33375,0.41046 -2.31977,1.28729 -2.98047,2.21289 -0.6607,0.92559 -1.03509,1.90813 -1.25,2.74804 -0.10746,0.41996 -0.17445,0.80351 -0.20703,1.14844 -0.0326,0.34494 -0.0846,0.5688 0.0527,1.08008 a 1.5,1.5 0 0 0 1.83789,1.06055 1.5,1.5 0 0 0 1.06055,-1.83789 c 0.082,0.30553 0.0197,0.14388 0.0352,-0.0195 0.0154,-0.16342 0.0563,-0.41145 0.12695,-0.6875 0.14127,-0.55212 0.4086,-1.22248 0.78516,-1.75 0.37655,-0.52753 0.82293,-0.90357 1.42187,-1.0879 0.59894,-0.18432 1.43225,-0.20921 2.71875,0.29102 a 1.50015,1.50015 0 0 0 0.01,0.004 c 0.75948,0.28882 1.15963,0.73895 1.46289,1.88672 0.30326,1.14776 0.3367,2.94243 0.0195,5.25195 a 1.50015,1.50015 0 0 0 -0.004,0.043 c -0.55197,5.12719 4.26367,7.93359 4.26367,7.93359 a 1.5,1.5 0 0 0 2.05665,-0.52344 1.5,1.5 0 0 0 -0.52344,-2.05664 c 0,0 -3.14849,-1.92845 -2.81446,-5.03125 l -0.006,0.043 c 0.34682,-2.52547 0.37969,-4.6413 -0.0918,-6.42578 -0.47125,-1.78355 -1.62084,-3.28608 -3.29492,-3.92383 -0.8743,-0.33892 -1.71106,-0.53169 -2.49414,-0.58789 z"
           id="path1479" />
        <path
           d="m 205.682,144.214 c 0,0 4.204,0.206 8.188,-4.218 2.212,-2.469 4.094,-5.556 2.876,-6.482 -1.217,-1.028 -21.244,1.852 -22.572,4.321 -1.328,2.469 6.418,6.379 11.508,6.379 z"
           fill="#efbda5"
           id="path1481" />
        <path
           style="color:#000000;fill:#423232;stroke-linecap:round;stroke-linejoin:round;stroke-miterlimit:10;-inkscape-stroke:none"
           d="m 208.9668,108.14648 a 1.5,1.5 0 0 0 -1.46485,1.53321 c 0,0 0.24193,10.20196 7.19532,21.43554 1.12101,1.81685 0.89623,4.30935 -0.82618,6.68946 -1.72309,2.38106 -4.93493,4.50894 -9.49804,5.1289 a 1.5,1.5 0 0 0 -1.28516,1.6875 1.5,1.5 0 0 0 1.68945,1.28516 c 5.28488,-0.71803 9.26525,-3.22057 11.52539,-6.34375 2.26015,-3.12318 2.80977,-7.00743 0.94532,-10.02539 a 1.50015,1.50015 0 0 0 0,-0.002 C 210.70145,118.95876 210.5,109.61133 210.5,109.61133 a 1.5,1.5 0 0 0 -1.5332,-1.46485 z"
           id="path1483" />
        <path
           opacity="0.42"
           d="m 149.03,149.461 c 6.294,0 11.396,-3.915 11.396,-8.745 0,-4.83 -5.102,-8.745 -11.396,-8.745 -6.295,0 -11.397,3.915 -11.397,8.745 0,4.83 5.102,8.745 11.397,8.745 z"
           fill="#f2a5b2"
           id="path1485" />
        <path
           opacity="0.42"
           d="m 230.688,132.177 c -0.332,5.761 -0.221,11.42 -0.663,17.078 -4.869,-1.029 -8.41,-4.424 -8.41,-8.436 0,-4.321 3.873,-7.819 9.073,-8.642 z"
           fill="#f2a5b2"
           id="path1487" />
        <path
           d="m 175.459,111.253 c 0,0.096 0,0.192 0,0.192 l -0.102,2.691 c -0.103,2.307 -2.145,4.038 -4.597,3.942 -2.451,-0.097 -4.29,-2.115 -4.085,-4.326 l 0.102,-2.691 c 0,-0.481 0.204,-1.058 0.408,-1.442 l 8.172,0.384 c 0,0.385 0.102,0.769 0.102,1.25 z"
           fill="#423232"
           id="path1489" />
        <path
           d="m 218.153,113.367 -0.103,2.5 c -0.102,2.114 -2.042,3.749 -4.289,3.652 -2.247,-0.096 -3.984,-1.922 -3.882,-4.037 l 0.102,-2.499 c 0,-0.481 0.103,-0.961 0.307,-1.346 l 7.66,0.289 c 0.205,0.48 0.205,0.961 0.205,1.441 z"
           fill="#423232"
           id="path1491" />
        <path
           d="m 185.671,98.0837 c 2.248,0.2884 3.984,-1.9225 3.167,-4.0372 -0.409,-1.1535 -1.124,-2.2109 -2.247,-2.8837 -3.473,-2.0186 -16.445,-2.2109 -23.288,2.4031 -6.026,4.2294 12.155,3.1721 22.368,4.5178 z"
           fill="#423232"
           id="path1493" />
        <path
           d="m 213.964,99.141 c -1.839,0 -2.962,-2.2108 -2.043,-4.0372 0.511,-0.9612 1.226,-1.8263 2.247,-2.3069 3.166,-1.4419 11.644,-0.5768 15.423,4.3256 3.371,4.3255 -7.15,1.9224 -15.627,2.0185 z"
           fill="#423232"
           id="path1495" />
        <path
           style="color:#000000;fill:#423232;stroke-linecap:round;stroke-linejoin:round;stroke-miterlimit:10;-inkscape-stroke:none"
           d="m 165.32227,108.02344 a 1.5,1.5 0 0 0 -1.57618,1.41992 1.5,1.5 0 0 0 1.41797,1.57617 l 1.83985,0.0977 a 1.50015,1.50015 0 0 0 0.0254,0 l 8.16601,0.28906 6.83789,0.28711 a 1.5,1.5 0 0 0 1.5625,-1.43555 1.5,1.5 0 0 0 -1.43554,-1.56054 l -6.84375,-0.28907 a 1.50015,1.50015 0 0 0 -0.01,0 l -8.1582,-0.28711 z"
           id="path1497" />
        <path
           style="color:#000000;fill:#423232;stroke-linecap:round;stroke-linejoin:round;stroke-miterlimit:10;-inkscape-stroke:none"
           d="m 209.98047,110.13672 a 1.5,1.5 0 0 0 -1.5,1.5 1.5,1.5 0 0 0 1.5,1.5 h 0.2793 l 7.6289,0.28711 4.49024,0.19336 a 1.5,1.5 0 0 0 1.5625,-1.43555 1.5,1.5 0 0 0 -1.43555,-1.5625 l -4.49414,-0.19141 a 1.50015,1.50015 0 0 0 -0.008,0 l -7.66016,-0.28906 a 1.50015,1.50015 0 0 0 -0.0566,-0.002 z"
           id="path1499" />
        <path
           style="color:#000000;fill:#423232;stroke-linecap:round;stroke-linejoin:round;stroke-miterlimit:10;-inkscape-stroke:none"
           d="m 165.19922,100.5 c -6.90327,0 -12.5,5.59673 -12.5,12.5 v 9.5 c 0,6.90327 5.59673,12.5 12.5,12.5 H 188.5 c 6.81666,0 12.5,-5.58033 12.5,-12.5 V 113 c 0,-6.90327 -5.59673,-12.5 -12.5,-12.5 z m 0,3 H 188.5 c 5.29672,0 9.5,4.20328 9.5,9.5 v 9.5 c 0,5.28032 -4.31667,9.5 -9.5,9.5 h -23.30078 c -5.29672,0 -9.5,-4.20328 -9.5,-9.5 V 113 c 0,-5.29672 4.20328,-9.5 9.5,-9.5 z"
           id="path1501" />
        <path
           style="color:#000000;fill:#423232;stroke-linecap:round;stroke-linejoin:round;stroke-miterlimit:10;-inkscape-stroke:none"
           d="m 217.19922,100.5 c -4.825,0 -8.79883,3.97579 -8.79883,8.80078 V 118 a 1.50015,1.50015 0 0 0 0.0547,0.4043 c 1.4328,5.11715 3.49451,10.08165 6.61523,14.55468 a 1.50015,1.50015 0 0 0 1.23047,0.64063 c -0.0333,0 0.26511,0.0996 0.89844,0.0996 h 11.5 c 4.82499,0 8.80078,-3.97383 8.80078,-8.79883 V 109.33594 C 237.62008,104.41276 233.5797,100.5 228.69922,100.5 Z m 0,3 h 11.5 c 3.31951,0 5.8807,2.48685 5.80078,5.76367 a 1.50015,1.50015 0 0 0 0,0.0371 v 15.59961 c 0,3.175 -2.62578,5.79883 -5.80078,5.79883 h -11.47266 c -2.65417,-3.94891 -4.51883,-8.32332 -5.82617,-12.94336 v -8.45508 c 0,-3.175 2.62383,-5.80078 5.79883,-5.80078 z"
           id="path1503" />
        <path
           style="color:#000000;fill:#423232;stroke-linecap:round;stroke-linejoin:round;stroke-miterlimit:10;-inkscape-stroke:none"
           d="m 205.01367,109.14844 c -2.0013,0.0774 -3.95979,0.25745 -5.68945,0.46094 a 1.5,1.5 0 0 0 -1.31445,1.66601 1.5,1.5 0 0 0 1.66601,1.31445 c 3.34068,-0.39302 7.5711,-0.67526 10.95899,-0.29882 a 1.5,1.5 0 0 0 1.65625,-1.32618 1.5,1.5 0 0 0 -1.32618,-1.65625 c -1.90605,-0.21178 -3.94987,-0.2375 -5.95117,-0.16015 z"
           id="path1505" />
        <path
           style="color:#000000;fill:#423232;stroke-linecap:round;stroke-linejoin:round;stroke-miterlimit:10;-inkscape-stroke:none"
           d="m 154.14844,110.30078 -23.19922,0.80078 a 1.5,1.5 0 0 0 -1.44922,1.55078 1.5,1.5 0 0 0 1.55078,1.44727 l 23.20117,-0.80078 a 1.5,1.5 0 0 0 1.44727,-1.55078 1.5,1.5 0 0 0 -1.55078,-1.44727 z"
           id="path1507" />
        <path
           d="m 243.391,54.305 c -7.924,26.992 -30.913,22.4758 -52.452,15.1239 -28.681,-9.8726 -53.903,-1.8905 -54.015,22.4759 -0.223,35.7092 -9.709,24.8912 -10.713,23.5262 -2.455,-4.411 -7.701,-9.873 -17.633,-8.717 -13.0571,1.575 -18.1907,28.672 6.138,39.805 4.241,20.27 -7.366,18.38 -7.366,18.38 -3.906,-14.914 -36.7159,-46.632 -36.8275,-67.5328 0,-28.1473 15.066,-36.1294 15.066,-36.1294 0.4464,-19.6401 22.2085,-41.2758 58.8135,-40.5406 36.604,0.6302 59.036,-0.3151 66.178,-8.4022 7.143,-8.29712 40.734,15.0189 32.811,42.011 z"
           fill="#423232"
           id="path1509" />
        <path
           d="m 244.284,86.7584 c -1.116,6.8268 -4.241,12.0782 -8.594,15.9646 1.674,-11.4484 0.782,-16.9098 -0.669,-23.3165 C 231.896,66.2781 225.2,54.9352 214.04,46.533 c 5.58,-0.4201 11.272,0.7352 16.405,3.781 0,-0.1051 18.414,6.9318 13.839,36.4444 z"
           fill="#423232"
           id="path1511" />
        <path
           d="m 199.997,160.218 c 0.1,3.3 -4.8,11.7 -14.3,7.8 -9.1,-3.7 -11.8,-21.1 1.2,-12.8 6.8,4.3 10.9,5 13.1,5 z"
           fill="#ffffff"
           id="path1513" />
        <path
           style="color:#000000;fill:#423232;stroke-linecap:round;stroke-linejoin:round;stroke-miterlimit:10;-inkscape-stroke:none"
           d="m 181.19922,151.48242 c -0.60811,0.005 -1.18195,0.10567 -1.72656,0.30469 -1.08924,0.39803 -1.92748,1.24869 -2.38282,2.22266 -0.45534,0.97396 -0.59296,2.05704 -0.54101,3.17773 0.20779,4.48232 3.31917,10.07999 8.58203,12.2207 5.18607,2.12732 9.53599,0.85121 12.28711,-1.48437 1.37594,-1.16812 2.38653,-2.56391 3.06445,-3.91797 0.42823,-0.85533 0.67937,-1.66784 0.83789,-2.46289 0.008,-0.001 0.0255,0.001 0.0332,0 0.71986,-0.13797 1.26367,-0.41016 1.26367,-0.41016 a 1.5,1.5 0 0 0 0.5957,-2.03515 1.5,1.5 0 0 0 -2.03711,-0.59571 c 0,0 0.0184,0.0161 -0.38672,0.0937 -0.40514,0.0777 -1.10697,0.14616 -2.16406,0.0195 -2.11418,-0.25326 -5.65799,-1.30032 -10.91992,-4.66211 l 0.004,0.004 c -2.5547,-1.64372 -4.68543,-2.4901 -6.50976,-2.47461 z m -0.69727,3.12305 c 0.67778,-0.24768 2.54026,-0.0853 5.58399,1.87305 a 1.50015,1.50015 0 0 0 0.004,0.004 c 5.45633,3.48599 9.34809,4.72986 12.03125,5.07422 -0.1131,0.40104 -0.087,0.63754 -0.32226,1.10742 -0.50958,1.01781 -1.29821,2.10328 -2.32227,2.97266 -2.04811,1.73876 -4.89697,2.76434 -9.20898,0.99414 a 1.50015,1.50015 0 0 0 -0.006,-0.002 c -3.83618,-1.55977 -6.57461,-6.51286 -6.7168,-9.58008 -0.0356,-0.76681 0.0839,-1.38491 0.26367,-1.76953 0.17982,-0.38463 0.35447,-0.54999 0.69336,-0.67383 z"
           id="path1515" />
        <path
           style="color:#000000;fill:#423232;stroke-linecap:round;stroke-linejoin:round;stroke-miterlimit:10;-inkscape-stroke:none"
           d="m 177.79687,156.24805 a 1.5,1.5 0 0 0 -0.95117,0.64257 1.5,1.5 0 0 0 0.42383,2.07813 c 0,0 1.73922,1.15301 3.75391,2.26367 1.00734,0.55533 2.08298,1.10324 3.09961,1.50781 1.01663,0.40458 1.87771,0.78696 3.06836,0.54883 l -0.082,0.0137 c 0.19502,-0.0279 0.0891,-0.0514 0.36719,0.10547 0.27814,0.15685 0.80433,0.54367 1.59571,0.96094 1.58275,0.83454 4.17522,1.69283 9.07812,1.84766 a 1.5,1.5 0 0 0 1.54492,-1.45118 1.5,1.5 0 0 0 -1.45117,-1.54687 c -4.59709,-0.14517 -6.6062,-0.8865 -7.77344,-1.50195 -0.58362,-0.30773 -0.96837,-0.60997 -1.52148,-0.92188 -0.55312,-0.31191 -1.40869,-0.58308 -2.26367,-0.46094 a 1.50015,1.50015 0 0 0 -0.082,0.0137 c 0.19064,-0.0381 -0.55023,-0.0679 -1.3711,-0.39454 -0.82087,-0.32667 -1.81906,-0.82994 -2.76172,-1.3496 -1.88531,-1.03934 -3.54687,-2.13672 -3.54687,-2.13672 a 1.5,1.5 0 0 0 -1.12696,-0.21875 z"
           id="path1517" />
        <path
           d="M 291.498,329.284 13.7417,323.143 c -2.851,-69.96 25.8787,-106.914 37.1732,-114.151 21.1634,-13.707 48.6868,-17.764 61.6261,-18.97 3.29,8.114 15.79,34.76 41.779,45.287 25.111,10.198 40.024,3.4 42.327,-7.895 1.425,-7.237 -3.071,-19.08 -5.374,-22.918 -1.315,-1.096 -2.193,-2.741 -2.631,-4.386 l -0.878,-3.619 c 1.865,-0.438 3.729,-0.877 5.593,-1.535 45.945,5.154 64.587,17.655 75.552,39.037 11.295,22.041 22.589,95.291 22.589,95.291 z"
           fill="#474e51"
           id="path1519" />
        <path
           style="color:#000000;fill:#544d4d;stroke-linecap:round;stroke-linejoin:round;stroke-miterlimit:10;-inkscape-stroke:none"
           d="m 59.259766,285.27148 a 1.5,1.5 0 0 0 -1.148438,1.78321 c 0.308182,1.42223 0.685021,4.92017 1.017578,9.15625 0.332558,4.23607 0.643245,9.28549 0.910156,14.13086 0.533824,9.69073 0.890626,18.5625 0.890625,18.5625 a 1.5,1.5 0 0 0 1.558594,1.43945 1.5,1.5 0 0 0 1.439453,-1.55859 c 0,0 -0.357252,-8.89138 -0.892578,-18.60938 -0.267662,-4.859 -0.580342,-9.92541 -0.916015,-14.20117 -0.335673,-4.27576 -0.671555,-7.68742 -1.076172,-9.55469 a 1.5,1.5 0 0 0 -1.783203,-1.14844 z"
           id="path1521" />
        <path
           style="color:#000000;fill:#544d4d;stroke-linecap:round;stroke-linejoin:round;stroke-miterlimit:10;-inkscape-stroke:none"
           d="m 256.79883,274.71289 a 1.5,1.5 0 0 0 -1.56055,1.4375 c -0.21504,5.26396 -1.02793,10.97274 -1.79297,15.83594 -0.76504,4.8632 -1.49804,8.7337 -1.49804,10.98047 0,1.17361 0.2131,3.21597 0.52343,5.83789 0.31033,2.62192 0.72279,5.74386 1.13477,8.74414 0.82397,6.00056 1.64844,11.51758 1.64844,11.51758 a 1.5,1.5 0 0 0 1.70507,1.26171 1.5,1.5 0 0 0 1.26172,-1.70507 c 0,0 -0.82154,-5.50325 -1.64258,-11.48243 -0.41051,-2.98958 -0.8204,-6.09758 -1.12695,-8.6875 -0.30654,-2.58991 -0.5039,-4.74143 -0.5039,-5.48632 0,-1.48223 0.69073,-5.61764 1.46093,-10.51368 0.77021,-4.89603 1.60417,-10.6996 1.82813,-16.18164 a 1.5,1.5 0 0 0 -1.4375,-1.55859 z"
           id="path1523" />
        <path
           d="m 94.7764,301.212 v -13.049 l 31.4706,12.83 c 0,0 -25.44,0.658 -31.4706,0.219 z"
           fill="#ffffff"
           id="path1525" />
        <path
           style="color:#000000;fill:#544d4d;stroke-linecap:round;stroke-linejoin:round;stroke-miterlimit:10;-inkscape-stroke:none"
           d="m 134.24805,298.84375 c 0,0 -31.10445,2.04384 -47.37305,0.01 a 1.71325,1.71325 0 0 0 -1.912109,1.48828 1.71325,1.71325 0 0 0 1.486328,1.91211 c 17.067161,2.13392 48.027341,0.01 48.027341,0.01 a 1.71325,1.71325 0 0 0 1.59571,-1.82422 1.71325,1.71325 0 0 0 -1.82422,-1.5957 z"
           id="path1527" />
        <path
           d="m 169.781,258.776 -3.948,81.802 c 0,0 34.761,23.686 34.761,23.028 0,-0.658 16.448,-29.388 16.448,-29.388 l -25.659,-78.732 c 0,0 -3.29,3.399 -21.602,3.29 z"
           fill="#d85656"
           id="path1529" />
        <path
           d="m 177.676,232.458 c 0,0 -15.023,14.146 -16.997,17.874 -1.973,3.728 8.444,9.65 8.444,9.65 0,0 16.777,3.509 24.343,-3.29 0,0 4.277,-4.715 3.4,-9.211 -0.768,-4.386 -19.19,-15.023 -19.19,-15.023 z"
           fill="#ea6363"
           id="path1531" />
        <path
           d="m 109.361,177.082 1.425,-0.329 c 4.057,13.049 29.826,43.863 66.89,55.705 l -23.028,29.059 c -1.535,1.974 -4.276,2.303 -6.25,0.877 -9.431,-7.018 -34.651,-27.633 -44.959,-53.95 -2.193,-5.483 -2.632,-11.514 -1.535,-17.216 l 1.425,-7.786 c 0.549,-3.18 2.961,-5.702 6.032,-6.36 z"
           fill="#ffffff"
           id="path1533" />
        <path
           d="m 208.38,251.538 c -0.658,3.619 -4.935,5.044 -7.676,2.522 l -23.138,-21.602 c 0,0 13.488,-12.829 10.198,-36.076 4.496,-0.987 8.773,-2.413 12.72,-4.277 0.11,0.22 1.645,3.18 3.4,8.115 3.728,10.198 8.443,28.949 4.496,51.318 z"
           fill="#ffffff"
           id="path1535" />
      </g>
    </g>
  </g>
</svg>
