<?xml version="1.0" encoding="UTF-8" standalone="no"?>
<!-- Created with Inkscape (http://www.inkscape.org/) -->

<svg
   width="79.375mm"
   height="79.375mm"
   viewBox="0 0 79.375 79.375"
   version="1.1"
   id="svg5"
   xmlns="http://www.w3.org/2000/svg"
   xmlns:svg="http://www.w3.org/2000/svg">
  <defs
     id="defs2">
    <clipPath
       id="clip0_421_1274">
      <rect
         width="300"
         height="300"
         fill="#ffffff"
         id="rect903"
         x="0"
         y="0" />
    </clipPath>
    <clipPath
       id="clip0_421_1274-3">
      <rect
         width="300"
         height="300"
         fill="#ffffff"
         id="rect1539"
         x="0"
         y="0" />
    </clipPath>
    <clipPath
       id="clip0_421_1274-35">
      <rect
         width="300"
         height="300"
         fill="#ffffff"
         id="rect1928"
         x="0"
         y="0" />
    </clipPath>
    <clipPath
       id="clip0_421_1274-8">
      <rect
         width="300"
         height="300"
         fill="#ffffff"
         id="rect2361"
         x="0"
         y="0" />
    </clipPath>
    <linearGradient
       id="paint0_linear_421_1274"
       x1="121.039"
       y1="222.77901"
       x2="121.039"
       y2="132.015"
       gradientUnits="userSpaceOnUse">
      <stop
         stop-color="#FF7300"
         id="stop2716" />
      <stop
         offset="0.1086"
         stop-color="#FF8D08"
         id="stop2718" />
      <stop
         offset="0.2899"
         stop-color="#FFB214"
         id="stop2720" />
      <stop
         offset="0.4716"
         stop-color="#FFCF1E"
         id="stop2722" />
      <stop
         offset="0.6514"
         stop-color="#FFE325"
         id="stop2724" />
      <stop
         offset="0.8286"
         stop-color="#FFF029"
         id="stop2726" />
      <stop
         offset="1"
         stop-color="#FFF42A"
         id="stop2728" />
    </linearGradient>
    <linearGradient
       id="paint1_linear_421_1274"
       x1="121.04"
       y1="129.14799"
       x2="121.04"
       y2="139.46899"
       gradientUnits="userSpaceOnUse">
      <stop
         stop-color="#FF7300"
         id="stop2731" />
      <stop
         offset="0.1086"
         stop-color="#FF8D08"
         id="stop2733" />
      <stop
         offset="0.2899"
         stop-color="#FFB214"
         id="stop2735" />
      <stop
         offset="0.4716"
         stop-color="#FFCF1E"
         id="stop2737" />
      <stop
         offset="0.6514"
         stop-color="#FFE325"
         id="stop2739" />
      <stop
         offset="0.8286"
         stop-color="#FFF029"
         id="stop2741" />
      <stop
         offset="1"
         stop-color="#FFF42A"
         id="stop2743" />
    </linearGradient>
    <linearGradient
       id="paint2_linear_421_1274"
       x1="226.423"
       y1="222.77901"
       x2="226.423"
       y2="132.015"
       gradientUnits="userSpaceOnUse">
      <stop
         stop-color="#FF7300"
         id="stop2746" />
      <stop
         offset="0.1086"
         stop-color="#FF8D08"
         id="stop2748" />
      <stop
         offset="0.2899"
         stop-color="#FFB214"
         id="stop2750" />
      <stop
         offset="0.4716"
         stop-color="#FFCF1E"
         id="stop2752" />
      <stop
         offset="0.6514"
         stop-color="#FFE325"
         id="stop2754" />
      <stop
         offset="0.8286"
         stop-color="#FFF029"
         id="stop2756" />
      <stop
         offset="1"
         stop-color="#FFF42A"
         id="stop2758" />
    </linearGradient>
    <clipPath
       id="clip0_421_1274-6">
      <rect
         width="300"
         height="300"
         fill="#ffffff"
         id="rect2761"
         x="0"
         y="0" />
    </clipPath>
    <clipPath
       id="clip0_421_1274-9">
      <rect
         width="300"
         height="300"
         fill="#ffffff"
         id="rect3154"
         x="0"
         y="0" />
    </clipPath>
    <clipPath
       id="clip0_421_1274-61">
      <rect
         width="300"
         height="300"
         fill="#ffffff"
         id="rect3560"
         x="0"
         y="0" />
    </clipPath>
    <linearGradient
       id="paint0_linear_421_1274-3"
       x1="118.039"
       y1="225.166"
       x2="118.039"
       y2="137.532"
       gradientUnits="userSpaceOnUse">
      <stop
         stop-color="#FF7300"
         id="stop4079" />
      <stop
         offset="0.1086"
         stop-color="#FF8D08"
         id="stop4081" />
      <stop
         offset="0.2899"
         stop-color="#FFB214"
         id="stop4083" />
      <stop
         offset="0.4716"
         stop-color="#FFCF1E"
         id="stop4085" />
      <stop
         offset="0.6514"
         stop-color="#FFE325"
         id="stop4087" />
      <stop
         offset="0.8286"
         stop-color="#FFF029"
         id="stop4089" />
      <stop
         offset="1"
         stop-color="#FFF42A"
         id="stop4091" />
    </linearGradient>
    <linearGradient
       id="paint1_linear_421_1274-7"
       x1="118.04"
       y1="134.76401"
       x2="118.04"
       y2="144.729"
       gradientUnits="userSpaceOnUse">
      <stop
         stop-color="#FF7300"
         id="stop4094" />
      <stop
         offset="0.1086"
         stop-color="#FF8D08"
         id="stop4096" />
      <stop
         offset="0.2899"
         stop-color="#FFB214"
         id="stop4098" />
      <stop
         offset="0.4716"
         stop-color="#FFCF1E"
         id="stop4100" />
      <stop
         offset="0.6514"
         stop-color="#FFE325"
         id="stop4102" />
      <stop
         offset="0.8286"
         stop-color="#FFF029"
         id="stop4104" />
      <stop
         offset="1"
         stop-color="#FFF42A"
         id="stop4106" />
    </linearGradient>
    <linearGradient
       id="paint2_linear_421_1274-8"
       x1="223.423"
       y1="225.166"
       x2="223.423"
       y2="137.532"
       gradientUnits="userSpaceOnUse">
      <stop
         stop-color="#FF7300"
         id="stop4109" />
      <stop
         offset="0.1086"
         stop-color="#FF8D08"
         id="stop4111" />
      <stop
         offset="0.2899"
         stop-color="#FFB214"
         id="stop4113" />
      <stop
         offset="0.4716"
         stop-color="#FFCF1E"
         id="stop4115" />
      <stop
         offset="0.6514"
         stop-color="#FFE325"
         id="stop4117" />
      <stop
         offset="0.8286"
         stop-color="#FFF029"
         id="stop4119" />
      <stop
         offset="1"
         stop-color="#FFF42A"
         id="stop4121" />
    </linearGradient>
    <clipPath
       id="clip0_421_1274-4">
      <rect
         width="300"
         height="300"
         fill="#ffffff"
         id="rect4124"
         x="0"
         y="0" />
    </clipPath>
    <clipPath
       id="clip0_421_1274-2">
      <rect
         width="300"
         height="300"
         fill="#ffffff"
         id="rect4458"
         x="0"
         y="0" />
    </clipPath>
    <clipPath
       id="clip0_421_1274-1">
      <rect
         width="300"
         height="300"
         fill="#ffffff"
         id="rect4979"
         x="0"
         y="0" />
    </clipPath>
    <clipPath
       id="clip0_421_1274-24">
      <rect
         width="300"
         height="300"
         fill="#ffffff"
         id="rect5434"
         x="0"
         y="0" />
    </clipPath>
    <clipPath
       id="clip0_421_1274-46">
      <rect
         width="300"
         height="300"
         fill="#ffffff"
         id="rect5850"
         x="0"
         y="0" />
    </clipPath>
    <clipPath
       id="clip0_421_1274-5">
      <rect
         width="300"
         height="300"
         fill="#ffffff"
         id="rect6329"
         x="0"
         y="0" />
    </clipPath>
    <clipPath
       id="clip0_421_1274-38">
      <rect
         width="300"
         height="300"
         fill="#ffffff"
         id="rect6804"
         x="0"
         y="0" />
    </clipPath>
    <clipPath
       id="clip0_421_1274-44">
      <rect
         width="300"
         height="300"
         fill="#ffffff"
         id="rect7152"
         x="0"
         y="0" />
    </clipPath>
    <clipPath
       id="clip0_421_1274-94">
      <rect
         width="300"
         height="300"
         fill="#ffffff"
         id="rect7595"
         x="0"
         y="0" />
    </clipPath>
    <clipPath
       id="clip0_421_1274-10">
      <rect
         width="300"
         height="300"
         fill="#ffffff"
         id="rect8065"
         x="0"
         y="0" />
    </clipPath>
    <clipPath
       id="clip0_421_1274-87">
      <rect
         width="300"
         height="300"
         fill="#ffffff"
         id="rect8554"
         x="0"
         y="0" />
    </clipPath>
    <clipPath
       id="clip0_421_1274-19">
      <rect
         width="300"
         height="300"
         fill="#ffffff"
         id="rect9033"
         x="0"
         y="0" />
    </clipPath>
    <clipPath
       id="clip0_421_1274-49">
      <rect
         width="300"
         height="300"
         fill="#ffffff"
         id="rect9515"
         x="0"
         y="0" />
    </clipPath>
    <clipPath
       id="clip0_421_1274-69">
      <rect
         width="300"
         height="300"
         fill="#ffffff"
         id="rect10033"
         x="0"
         y="0" />
    </clipPath>
    <clipPath
       id="clip0_421_1274-40">
      <rect
         width="300"
         height="300"
         fill="#ffffff"
         id="rect10502"
         x="0"
         y="0" />
    </clipPath>
    <clipPath
       id="clip0_421_1274-242">
      <rect
         width="300"
         height="300"
         fill="#ffffff"
         id="rect10955"
         x="0"
         y="0" />
    </clipPath>
    <linearGradient
       id="paint0_linear_421_1274-36"
       x1="120.777"
       y1="221.77"
       x2="120.777"
       y2="135.345"
       gradientUnits="userSpaceOnUse">
      <stop
         stop-color="#FF7300"
         id="stop11413" />
      <stop
         offset="0.1086"
         stop-color="#FF8D08"
         id="stop11415" />
      <stop
         offset="0.2899"
         stop-color="#FFB214"
         id="stop11417" />
      <stop
         offset="0.4716"
         stop-color="#FFCF1E"
         id="stop11419" />
      <stop
         offset="0.6514"
         stop-color="#FFE325"
         id="stop11421" />
      <stop
         offset="0.8286"
         stop-color="#FFF029"
         id="stop11423" />
      <stop
         offset="1"
         stop-color="#FFF42A"
         id="stop11425" />
    </linearGradient>
    <linearGradient
       id="paint1_linear_421_1274-4"
       x1="120.776"
       y1="132.616"
       x2="120.776"
       y2="142.44299"
       gradientUnits="userSpaceOnUse">
      <stop
         stop-color="#FF7300"
         id="stop11428" />
      <stop
         offset="0.1086"
         stop-color="#FF8D08"
         id="stop11430" />
      <stop
         offset="0.2899"
         stop-color="#FFB214"
         id="stop11432" />
      <stop
         offset="0.4716"
         stop-color="#FFCF1E"
         id="stop11434" />
      <stop
         offset="0.6514"
         stop-color="#FFE325"
         id="stop11436" />
      <stop
         offset="0.8286"
         stop-color="#FFF029"
         id="stop11438" />
      <stop
         offset="1"
         stop-color="#FFF42A"
         id="stop11440" />
    </linearGradient>
    <linearGradient
       id="paint2_linear_421_1274-4"
       x1="224.707"
       y1="221.77"
       x2="224.707"
       y2="135.345"
       gradientUnits="userSpaceOnUse">
      <stop
         stop-color="#FF7300"
         id="stop11443" />
      <stop
         offset="0.1086"
         stop-color="#FF8D08"
         id="stop11445" />
      <stop
         offset="0.2899"
         stop-color="#FFB214"
         id="stop11447" />
      <stop
         offset="0.4716"
         stop-color="#FFCF1E"
         id="stop11449" />
      <stop
         offset="0.6514"
         stop-color="#FFE325"
         id="stop11451" />
      <stop
         offset="0.8286"
         stop-color="#FFF029"
         id="stop11453" />
      <stop
         offset="1"
         stop-color="#FFF42A"
         id="stop11455" />
    </linearGradient>
    <clipPath
       id="clip0_421_1274-0">
      <rect
         width="300"
         height="300"
         fill="#ffffff"
         id="rect11458"
         x="0"
         y="0" />
    </clipPath>
    <clipPath
       id="clip0_421_1274-93">
      <rect
         width="300"
         height="300"
         fill="#ffffff"
         id="rect12087"
         x="0"
         y="0" />
    </clipPath>
  </defs>
  <g
     id="layer1"
     transform="translate(-286.52403,-66.883015)">
    <g
       style="fill:none"
       id="g12141"
       transform="matrix(0.26458333,0,0,0.26458333,286.52403,66.883015)">
      <g
         clip-path="url(#clip0_421_1274-93)"
         id="g12085">
        <path
           id="rect12001"
           style="fill:#b5e2dc;fill-opacity:0.968627"
           d="M 0,0 H 300 V 300 H 0 Z" />
        <path
           d="m 251.589,264.099 c -0.774,0.553 -1.659,1.107 -2.434,1.66 -0.885,0.553 -1.66,1.106 -2.545,1.549 -0.774,0.443 -1.438,0.885 -2.213,1.328 -0.11,0.11 -0.221,0.11 -0.332,0.221 -2.544,1.549 -5.2,2.987 -7.855,4.315 -0.775,0.443 -1.66,0.885 -2.435,1.217 0,0 -0.11,0.111 -0.221,0.111 -0.885,0.443 -1.77,0.885 -2.656,1.328 -1.77,0.885 -3.651,1.659 -5.421,2.434 -0.885,0.443 -1.881,0.774 -2.766,1.106 -0.886,0.332 -1.881,0.775 -2.767,1.107 -0.885,0.332 -1.881,0.774 -2.766,1.106 0,0 0,0 -0.11,0 -0.886,0.332 -1.881,0.664 -2.767,0.996 -1.991,0.664 -4.093,1.328 -6.085,1.992 -0.664,0.221 -1.439,0.442 -2.102,0.664 -2.103,0.664 -4.205,1.217 -6.307,1.659 -0.775,0.222 -1.549,0.332 -2.435,0.554 -1.991,0.442 -4.093,0.885 -6.085,1.327 -0.443,0.111 -0.775,0.111 -1.217,0.222 -0.664,0.11 -1.439,0.221 -2.102,0.332 -0.996,0.11 -1.881,0.332 -2.877,0.442 -0.443,0.111 -0.885,0.111 -1.328,0.222 -0.553,0.11 -1.217,0.221 -1.881,0.221 -1.77,0.221 -3.651,0.442 -5.422,0.664 -0.553,0.11 -1.217,0.11 -1.77,0.221 h -0.111 c -0.774,0.111 -1.549,0.111 -2.323,0.221 -0.775,0.111 -1.549,0.111 -2.324,0.111 -0.442,0 -0.996,0.111 -1.438,0.111 -0.885,0 -1.66,0.11 -2.435,0.11 -1.106,0 -2.102,0.111 -3.208,0.111 -1.107,0 -2.103,0 -3.209,0 -0.775,0 -1.549,0 -2.324,0 -46.582,-0.664 -88.6277,-20.47 -118.5023,-51.893 0,0 0,-0.111 -0.1106,-0.111 3.43,-6.75 16.1544,-18.921 29.432,-28.99 16.8183,-12.724 40.6069,-20.58 40.6069,-20.58 0,0 15.602,-2.545 73.47,9.516 44.148,9.294 62.958,47.025 69.375,64.396 z"
           fill="#fee4bf"
           id="path12003" />
        <path
           d="m 194.495,230.352 c -2.323,11.397 -17.371,18.146 -42.709,7.966 -31.092,-12.613 -43.042,-48.131 -43.042,-48.131 -1.659,-25.449 -5.532,-47.246 -5.532,-47.246 35.96,-3.098 78.448,38.948 78.448,38.948 l 4.869,20.801 c 0.442,1.771 1.328,3.32 2.655,4.426 2.324,3.983 6.861,15.933 5.311,23.236 z"
           fill="#fee4bf"
           id="path12005" />
        <path
           d="m 189.185,207.227 c -21.134,-1.107 -36.735,-4.205 -53.443,-34.19 14.163,12.503 30.871,17.261 48.463,19.474 l 2.324,10.179 c 0.443,1.881 1.328,3.43 2.656,4.537 z"
           fill="#efbda5"
           id="path12007" />
        <path
           d="m 232.89,73.8974 c 1.992,9.2944 2.987,16.8183 -2.434,41.6036 -5.422,24.784 4.979,49.569 -21.134,72.252 -17.593,15.269 -48.352,18.146 -72.916,1.438 -8.299,-5.643 -15.933,-13.499 -22.129,-23.789 C 109.408,157.325 103.765,149.69 97.4583,142.72 88.7172,133.204 78.2058,114.062 83.4062,80.2043 91.8153,25.1022 146.364,18.7954 178.562,24.8809 c 32.199,6.0856 48.906,24.453 54.328,49.0165 z"
           fill="#fee4bf"
           id="path12009" />
        <path
           d="m 127.001,117.16 c 0,0 -3.43,-16.597 -19.584,-14.605 -13.9417,1.77 -18.8102,35.186 12.835,44.48"
           fill="#fee4bf"
           id="path12011" />
        <path
           style="color:#000000;fill:#423232;stroke-linecap:round;stroke-linejoin:round;stroke-miterlimit:10;-inkscape-stroke:none"
           d="m 111.32813,113.47656 c -0.7987,-0.0615 -1.54586,0.026 -2.22266,0.25 -1.35361,0.44794 -2.32812,1.38924 -2.97852,2.36914 -0.65039,0.9799 -1.01818,2.01637 -1.22851,2.90039 -0.10517,0.44201 -0.16974,0.84524 -0.20117,1.20313 -0.0314,0.35789 -0.0769,0.59024 0.0469,1.08594 a 1.5,1.5 0 0 0 1.81836,1.09179 1.5,1.5 0 0 0 1.09375,-1.81836 c 0.0685,0.27445 0.0127,0.0911 0.0293,-0.0977 0.0166,-0.1888 0.0579,-0.46301 0.13086,-0.76953 0.14585,-0.61304 0.42173,-1.35466 0.80859,-1.9375 0.38686,-0.58285 0.84279,-0.98806 1.42188,-1.17969 0.57908,-0.19163 1.37985,-0.2233 2.65625,0.31055 a 1.50015,1.50015 0 0 0 0.01,0.004 c 0.73893,0.30195 1.17665,0.8189 1.49024,2.09571 0.31358,1.2768 0.34406,3.23252 0.0254,5.73242 a 1.50015,1.50015 0 0 0 -0.006,0.0391 c -0.53746,5.36847 4.22656,8.38477 4.22656,8.38476 a 1.5,1.5 0 0 0 2.07031,-0.45703 1.5,1.5 0 0 0 -0.45508,-2.07226 c 0,0 -3.20401,-2.07512 -2.85547,-5.55664 l -0.006,0.041 c 0.34432,-2.7011 0.37497,-4.95143 -0.0859,-6.82812 -0.46068,-1.87573 -1.57299,-3.45873 -3.26758,-4.15235 -0.87944,-0.36671 -1.72584,-0.57742 -2.52148,-0.63867 z"
           id="path12013" />
        <path
           d="m 203.679,142.609 c 0,0 4.205,0.221 8.188,-4.536 2.213,-2.656 4.094,-5.975 2.877,-6.971 -1.217,-1.107 -21.244,1.991 -22.572,4.647 -1.328,2.655 6.418,6.86 11.507,6.86 z"
           fill="#efbda5"
           id="path12015" />
        <path
           style="color:#000000;fill:#423232;stroke-linecap:round;stroke-linejoin:round;stroke-miterlimit:10;-inkscape-stroke:none"
           d="m 206.9668,103.93164 a 1.5,1.5 0 0 0 -1.4668,1.53125 c 0,0 0.23375,10.90453 7.16992,22.95703 1.15391,2.00881 0.91216,4.81516 -0.83008,7.4043 -1.74223,2.58913 -4.9469,4.85892 -9.48437,5.52148 a 1.5,1.5 0 0 0 -1.26758,1.70117 1.5,1.5 0 0 0 1.70117,1.26758 c 5.31052,-0.77544 9.30001,-3.48409 11.54102,-6.81445 2.24101,-3.33036 2.77449,-7.38304 0.9414,-10.57422 a 1.50015,1.50015 0 0 0 -0.002,-0.002 C 208.70567,115.51831 208.498,105.40034 208.498,105.40034 a 1.5,1.5 0 0 0 -1.53125,-1.46875 z"
           id="path12017" />
        <path
           opacity="0.42"
           d="m 147.028,148.252 c 6.295,0 11.397,-4.211 11.397,-9.405 0,-5.194 -5.102,-9.405 -11.397,-9.405 -6.294,0 -11.396,4.211 -11.396,9.405 0,5.194 5.102,9.405 11.396,9.405 z"
           fill="#f2a5b2"
           id="path12019" />
        <path
           opacity="0.42"
           d="m 228.685,129.663 c -0.332,6.197 -0.221,12.282 -0.664,18.368 -4.868,-1.107 -8.409,-4.758 -8.409,-9.073 0,-4.647 3.873,-8.409 9.073,-9.295 z"
           fill="#f2a5b2"
           id="path12021" />
        <path
           d="m 170.433,114.047 c -2.4,-0.1 -4.2,-2.1 -4,-4.5 l 0.1,-2.8 c 0.1,-2.4 2.1,-4.2 4.5,-4 2.4,0.1 4.2,2.1 4,4.5 l -0.1,2.8 c -0.1,2.3 -2.1,4.1 -4.5,4 z"
           fill="#423232"
           id="path12023" />
        <path
           d="m 212.533,115.547 c -2.2,-0.1 -3.9,-2 -3.8,-4.2 l 0.1,-2.6 c 0.1,-2.2 2,-3.9 4.2,-3.8 2.2,0.1 3.9,2 3.8,4.2 l -0.1,2.6 c -0.1,2.2 -2,3.9 -4.2,3.8 z"
           fill="#423232"
           id="path12025" />
        <path
           style="color:#000000;fill:#423232;stroke-linecap:round;stroke-linejoin:round;stroke-miterlimit:10;-inkscape-stroke:none"
           d="m 170.05469,102.32227 c -1.04424,0.13379 -2.04404,0.40332 -2.95117,0.77343 -1.81427,0.74022 -3.39527,1.82974 -3.91211,3.63868 a 1.5,1.5 0 0 0 1.02929,1.85546 1.5,1.5 0 0 0 1.85547,-1.03125 c 0.0832,-0.29106 0.84943,-1.15077 2.16016,-1.68554 1.31073,-0.53478 3.02701,-0.79297 4.55664,-0.54492 a 1.50015,1.50015 0 0 0 0.01,0.002 c 3.79345,0.59009 6.10352,3.77929 6.10352,3.7793 a 1.5,1.5 0 0 0 2.08984,0.36523 1.5,1.5 0 0 0 0.36328,-2.08984 c 0,0 -2.88608,-4.20361 -8.08593,-5.01758 -0.001,-2.2e-4 -0.003,2.1e-4 -0.004,0 -1.08387,-0.17534 -2.17188,-0.17855 -3.21484,-0.0449 z"
           id="path12027" />
        <path
           style="color:#000000;fill:#423232;stroke-linecap:round;stroke-linejoin:round;stroke-miterlimit:10;-inkscape-stroke:none"
           d="m 214.23242,104.44727 c -2.64782,0 -4.39059,1.03977 -5.24219,2.22461 -0.85159,1.18483 -0.85742,2.47656 -0.85742,2.47656 a 1.5,1.5 0 0 0 1.5,1.5 1.5,1.5 0 0 0 1.5,-1.5 c 0,0 -0.005,-0.30944 0.29297,-0.72461 0.2984,-0.41517 0.85447,-0.97656 2.80664,-0.97656 2.87895,0 4.03711,2.625 4.03711,2.625 a 1.5,1.5 0 0 0 1.98633,0.74023 1.5,1.5 0 0 0 0.74219,-1.98828 c 0,0 -2.04458,-4.37695 -6.76563,-4.37695 z"
           id="path12029" />
        <path
           d="m 184.233,92.1474 c 2.1,0.7 4.2,-1.2 3.8,-3.5 -0.2,-1.2 -0.7,-2.4 -1.7,-3.3 -3,-2.7 -15.4,-5.1 -22.9,-1.6 -6.6,3.2 11.2,5.2 20.8,8.4 z"
           fill="#000000"
           id="path12031" />
        <path
           d="m 214.132,93.7475 c -1.7,0.6 -3.5,-1.2 -3.2,-3.3 0.1,-1.1 0.5,-2.2 1.3,-3 2.4,-2.4 10.6,-4.3 15.8,-0.6 4.5,3.1 -6.1,4 -13.9,6.9 z"
           fill="#000000"
           id="path12033" />
        <path
           style="color:#000000;fill:#423232;stroke-linecap:round;stroke-linejoin:round;stroke-miterlimit:10;-inkscape-stroke:none"
           d="m 181.14453,155.50781 a 1.5,1.5 0 0 0 -1.09961,0.33399 1.5,1.5 0 0 0 -0.20312,2.11328 c 2.58416,3.13399 6.48851,5.58972 10.58007,6.88672 4.09157,1.297 8.45537,1.46957 11.84571,-0.55274 a 1.5,1.5 0 0 0 0.52148,-2.05664 1.5,1.5 0 0 0 -2.05664,-0.52148 c -2.30965,1.37769 -5.84587,1.39948 -9.4043,0.27148 -3.55842,-1.128 -7.05409,-3.37149 -9.16992,-5.9375 a 1.5,1.5 0 0 0 -1.01367,-0.53711 z"
           id="path12035" />
        <path
           d="m 92.6768,197.275 c 0,0 18.2672,27.233 20.9572,55.698 l 13.896,4.707 c 0,0 -9.414,-42.138 -28.2412,-63.767 0.1121,0 -3.1379,-0.448 -6.612,3.362 z"
           fill="#423232"
           id="path12037" />
        <path
           d="m 211.694,253.197 c 0,0 1.905,-28.913 -12.551,-49.31 0,0 0.896,-0.897 5.939,1.569 3.586,1.681 14.121,16.138 15.13,45.388 0.112,0 -7.285,2.465 -8.518,2.353 z"
           fill="#423232"
           id="path12039" />
        <path
           d="m 239.824,236.051 c -2.354,-8.517 -9.414,-14.345 -12.44,-14.233 0.112,0.224 0.112,0.56 0.224,0.897 4.707,16.922 -3.026,27.008 -20.06,30.706 -17.819,3.923 -32.724,4.483 -68.474,0.897 -26.224,-2.578 -50.8797,-14.905 -63.4314,-38.103 -1.2327,-2.354 -2.6896,-4.707 -4.2586,-6.837 -0.8966,-0.672 -2.5776,-0.56 -3.8104,0.449 -3.1379,2.577 -5.7155,4.482 -5.7155,6.948 0,0 -21.7414,11.991 -33.6207,46.172 -9.75,28.242 -11.3189,67.69 -11.5431,80.69 H 271.987 c -1.905,-17.371 -10.198,-83.379 -32.163,-107.586 z"
           fill="#ef0707"
           id="path12041" />
        <path
           d="m 45.7202,258.016 c 6.8083,0 12.3276,-5.519 12.3276,-12.327 0,-6.809 -5.5193,-12.328 -12.3276,-12.328 -6.8084,0 -12.3276,5.519 -12.3276,12.328 0,6.808 5.5192,12.327 12.3276,12.327 z"
           fill="#423232"
           id="path12043" />
        <path
           d="m 97.9447,265.637 c 4.7663,0 8.6293,-3.864 8.6293,-8.629 0,-4.766 -3.863,-8.63 -8.6293,-8.63 -4.7658,0 -8.6293,3.864 -8.6293,8.63 0,4.765 3.8635,8.629 8.6293,8.629 z"
           fill="#423232"
           id="path12045" />
        <path
           d="m 139.41,300.827 c 5.756,0 10.422,-4.667 10.422,-10.423 0,-5.756 -4.666,-10.422 -10.422,-10.422 -5.756,0 -10.423,4.666 -10.423,10.422 0,5.756 4.667,10.423 10.423,10.423 z"
           fill="#423232"
           id="path12047" />
        <path
           d="m 191.298,281.551 c 4.394,0 7.957,-3.563 7.957,-7.957 0,-4.395 -3.563,-7.957 -7.957,-7.957 -4.395,0 -7.957,3.562 -7.957,7.957 0,4.394 3.562,7.957 7.957,7.957 z"
           fill="#423232"
           id="path12049" />
        <path
           d="m 227.833,298.025 c 6.746,0 12.215,-5.469 12.215,-12.216 0,-6.746 -5.469,-12.215 -12.215,-12.215 -6.747,0 -12.216,5.469 -12.216,12.215 0,6.747 5.469,12.216 12.216,12.216 z"
           fill="#423232"
           id="path12051" />
        <path
           d="m 256.297,265.637 c 4.766,0 8.63,-3.864 8.63,-8.629 0,-4.766 -3.864,-8.63 -8.63,-8.63 -4.766,0 -8.629,3.864 -8.629,8.63 0,4.765 3.863,8.629 8.629,8.629 z"
           fill="#423232"
           id="path12053" />
        <path
           d="m 214.384,265.637 c -18.379,7.845 -79.457,8.629 -110.948,-6.612 -19.8362,-9.638 -30.931,-22.19 -36.4224,-31.379 -3.6983,-6.164 -5.0431,-10.535 -5.1552,-10.871 0,-2.466 2.5776,-4.371 5.7155,-6.948 1.2328,-1.009 2.9138,-1.121 3.8104,-0.449 1.5689,2.242 3.0258,4.483 4.2586,6.837 12.5517,23.198 37.2071,35.525 63.4311,38.103 35.75,3.586 50.655,3.026 68.474,-0.897 17.147,-3.81 24.879,-13.896 20.06,-30.706 -0.112,-0.225 -0.112,-0.561 -0.224,-0.897 3.026,-0.224 10.086,5.603 12.44,14.233 0,0 3.362,17.37 -25.44,29.586 z"
           fill="#ffffff"
           id="path12055" />
        <path
           d="m 219.887,12.9629 c 0,0 -5.6,-18.25604 -28.672,-19.82404 -25.536,-1.68 -34.272,13.66401 -34.272,13.66401 0,0 -19.376,-16.24001 -46.928,-3.58401 C 74.9587,19.3469 82.7987,53.0589 82.7987,53.0589 c 0,0 -37.744,52.0801 -24.752,117.9361 0,0 41.888,18.256 57.1203,13.552 l -3.472,-37.408 c -24.3043,-11.872 -19.0403,-40.656 -6.048,-42.336 9.968,-1.232 15.232,4.592 17.696,9.296 0.336,0.448 6.496,-1.344 7.392,-16.3521 1.568,-23.744 7.504,-48.496 57.568,-32.592 4.928,1.568 9.744,4.592 14.56,4.032 8.064,-0.784 26.432,-11.536 30.464,11.088 0.112,0.448 0.112,0.896 0.224,1.456 v 0.112 c 0,0.224 0.112,0.448 0.112,0.672 0,0.112 0,0.336 0.112,0.56 0,0.224 0.112,0.56 0.112,0.784 0,0.224 0,0.448 0.112,0.672 0,0.224 0,0.336 0,0.56 0,0.336 0,0.672 0.112,1.008 0,0.112 0,0.224 0,0.448 0,0.336 0,0.672 0,0.896 0,0.112 0,0.224 0,0.336 0,0.448 0,0.784 0,1.232 0,0.112 0,0.224 0,0.448 0,0.448 0,0.896 0,1.344 v 0.112 c 0,0.448 0,0.896 -0.112,1.456 0,0.112 0,0.224 0,0.336 0,0.56 -0.112,1.008 -0.112,1.568 0,0.112 0,0.224 0,0.336 0,0.56 -0.112,1.12 -0.112,1.68 0,0.112 0,0.112 0,0.224 -0.112,0.56 -0.112,1.232 -0.224,1.904 0,0.112 0,0.224 0,0.336 -0.112,0.672 -0.112,1.3441 -0.224,2.0161 -0.672,4.704 -1.68,10.304 -3.136,17.248 -1.008,4.816 -1.456,9.52 -1.792,14.336 -0.336,6.272 -0.224,12.432 -0.672,18.592 -0.672,10.08 -2.576,20.048 -9.408,29.68 9.968,3.808 26.32,4.928 26.32,4.928 17.472,-29.68 4.928,-89.7121 0.224,-108.8641 0.672,-0.56 19.376,-62.496 -24.976,-63.728 z"
           fill="#4a2f2f"
           id="path12057" />
        <path
           style="color:#000000;fill:#ffde55;stroke-linecap:round;stroke-linejoin:round;stroke-miterlimit:10;-inkscape-stroke:none"
           d="m 119.1543,139.40039 a 1.5,1.5 0 0 0 -1.5,1.5 v 17 a 1.5,1.5 0 0 0 1.5,1.5 1.5,1.5 0 0 0 1.5,-1.5 v -17 a 1.5,1.5 0 0 0 -1.5,-1.5 z"
           id="path12059" />
        <path
           d="m 133.137,180.7 c -2.796,2.7 -6.628,4.4 -10.978,4.4 -8.39,0 -15.329,-6.6 -15.329,-14.8 0,-8.1 6.836,-14.8 15.329,-14.8 4.246,0 8.182,1.7 10.978,4.4 -1.864,-1 -3.935,-1.6 -6.214,-1.6 -6.836,0 -12.429,5.4 -12.429,12 0,6.6 5.593,12 12.429,12 2.279,0.1 4.35,-0.5 6.214,-1.6 z"
           fill="#ffde55"
           id="path12061" />
        <path
           d="m 119.156,176.3 c 3.374,0 6.11,-2.641 6.11,-5.9 0,-3.258 -2.736,-5.9 -6.11,-5.9 -3.375,0 -6.111,2.642 -6.111,5.9 0,3.259 2.736,5.9 6.111,5.9 z"
           fill="#ff6b57"
           id="path12063" />
        <path
           d="m 237.331,160.1 c -1.864,-1 -3.936,-1.6 -6.214,-1.6 -1.657,0 -3.107,0.3 -4.557,0.9 0.207,-1.2 0.517,-2.4 0.621,-3.6 4.039,0.1 7.561,1.7 10.15,4.3 z"
           fill="#ffde55"
           id="path12065" />
        <path
           d="m 237.434,180.7 c -2.797,2.7 -6.629,4.4 -10.979,4.4 -4.35,0 -8.389,-1.8 -11.185,-4.7 1.657,-1.8 3.107,-3.6 4.453,-5.4 1.864,4.3 6.318,7.2 11.393,7.2 2.279,0.2 4.454,-0.4 6.318,-1.5 z"
           fill="#ffde55"
           id="path12067" />
        <path
           d="m 229.563,170.4 c 0,3.3 -2.693,5.9 -6.111,5.9 -1.346,0 -2.589,-0.4 -3.625,-1.2 2.382,-3.4 4.143,-6.9 5.282,-10.3 2.486,0.6 4.454,2.9 4.454,5.6 z"
           fill="#ff6b57"
           id="path12069" />
        <path
           d="m 218.299,127.709 c -2.989,-3.527 -6.864,-5.986 -11.514,-6.093 -4.871,-0.107 -12.511,0.962 -20.15,6.842 -9.964,7.696 -29.893,6.52 -37.754,5.772 -2.214,-0.214 -4.317,0.855 -5.314,2.779 -2.214,4.276 -5.203,13.149 -3.764,27.473 1.882,19.562 18.379,37.307 41.629,35.81 30.557,-1.817 48.382,-25.548 49.489,-57.296 -0.222,-8.766 -5.647,-6.949 -12.622,-15.287 z"
           fill="#ffffff"
           id="path12071" />
        <path
           style="color:#000000;fill:#edf3f4;stroke-linecap:round;stroke-linejoin:round;stroke-miterlimit:10;-inkscape-stroke:none"
           d="m 178.04492,132.85547 a 1.5,1.5 0 0 0 -1.97461,0.77539 1.5,1.5 0 0 0 0.77735,1.97461 c 0,0 11.71783,5.11195 24.01562,8.38476 6.1489,1.63641 12.43683,2.83228 17.64453,2.65235 2.60385,-0.09 4.95656,-0.51707 6.90625,-1.52539 1.94969,-1.00833 3.47061,-2.69633 4.07617,-4.9375 a 1.5,1.5 0 0 0 -1.05664,-1.83789 1.5,1.5 0 0 0 -1.83789,1.05664 c -0.39093,1.44682 -1.19825,2.35015 -2.56054,3.05468 -1.36229,0.70454 -3.30441,1.11103 -5.63086,1.19141 -4.65292,0.16076 -10.76744,-0.95539 -16.76953,-2.55273 -12.00419,-3.19468 -23.58985,-8.23633 -23.58985,-8.23633 z"
           id="path12073" />
        <path
           style="color:#000000;fill:#edf3f4;stroke-linecap:round;stroke-linejoin:round;stroke-miterlimit:10;-inkscape-stroke:none"
           d="m 159.34961,147.45508 a 1.5,1.5 0 0 0 -2.03711,0.58789 1.5,1.5 0 0 0 0.58789,2.03906 c 0,0 11.86434,6.55426 26.42773,11.33594 14.5634,4.78168 31.97629,8.03889 43.33008,0.46289 a 1.5,1.5 0 0 0 0.41407,-2.08008 1.5,1.5 0 0 0 -2.08008,-0.41406 c -9.79219,6.53399 -26.47844,3.85849 -40.72852,-0.82031 -14.25007,-4.67881 -25.91406,-11.11133 -25.91406,-11.11133 z"
           id="path12075" />
        <path
           style="color:#000000;fill:#edf3f4;stroke-linecap:round;stroke-linejoin:round;stroke-miterlimit:10;-inkscape-stroke:none"
           d="m 157.94727,166.02148 a 1.5,1.5 0 0 0 -2.11524,0.14844 1.5,1.5 0 0 0 0.14844,2.11719 c 0,0 24.84436,21.5441 60.42383,13.80078 a 1.5,1.5 0 0 0 1.14648,-1.7832 1.5,1.5 0 0 0 -1.78516,-1.14649 c -34.17045,7.43667 -57.81835,-13.13672 -57.81835,-13.13672 z"
           id="path12077" />
        <path
           style="color:#000000;fill:#edf3f4;stroke-linecap:round;stroke-linejoin:round;stroke-miterlimit:10;-inkscape-stroke:none"
           d="m 164.28516,134.84766 a 1.5,1.5 0 0 0 -2.09961,0.29882 c 0,0 -1.31299,1.78138 -2.75977,5.50196 -1.44677,3.72057 -3.10792,9.48722 -4.0625,17.7832 a 1.50015,1.50015 0 0 0 0,0.004 c -2.27843,20.24137 7.61524,36.95312 7.61524,36.95312 a 1.5,1.5 0 0 0 2.05273,0.53125 1.5,1.5 0 0 0 0.5332,-2.05469 c 0,0 -9.36851,-15.99501 -7.2207,-35.08984 v -0.004 c 0.9275,-8.05756 2.53043,-13.56933 3.87891,-17.03711 1.34872,-3.46841 2.36328,-4.7871 2.36328,-4.7871 a 1.5,1.5 0 0 0 -0.30078,-2.09961 z"
           id="path12079" />
        <path
           style="color:#000000;fill:#ffffff;stroke-linecap:round;stroke-linejoin:round;stroke-miterlimit:10;-inkscape-stroke:none"
           d="m 126.65039,112.14258 a 1.5,1.5 0 0 0 -1.13281,0.17383 1.5,1.5 0 0 0 -0.50391,2.0625 c 9.16168,15.07058 22.14649,23.76953 22.14649,23.76953 a 1.5,1.5 0 0 0 2.08007,-0.40821 1.5,1.5 0 0 0 -0.4082,-2.08203 c 0,0 -12.4796,-8.4045 -21.2539,-22.83789 a 1.5,1.5 0 0 0 -0.92774,-0.67773 z"
           id="path12081" />
        <path
           style="color:#000000;fill:#ffffff;stroke-linecap:round;stroke-linejoin:round;stroke-miterlimit:10;-inkscape-stroke:none"
           d="m 119.31055,145.41406 a 1.5,1.5 0 0 0 -0.97657,1.88477 c 2.6204,8.25125 9.12262,21.61007 25.33985,33.57031 a 1.5,1.5 0 0 0 2.09765,-0.31836 1.5,1.5 0 0 0 -0.3164,-2.09766 c -15.66874,-11.55573 -21.79012,-24.27976 -24.26172,-32.0625 a 1.5,1.5 0 0 0 -1.88281,-0.97656 z"
           id="path12083" />
      </g>
    </g>
  </g>
</svg>
