<?xml version="1.0" encoding="UTF-8" standalone="no"?>
<!-- Created with Inkscape (http://www.inkscape.org/) -->

<svg
   width="79.375mm"
   height="79.375mm"
   viewBox="0 0 79.375 79.375"
   version="1.1"
   id="svg5"
   xmlns="http://www.w3.org/2000/svg"
   xmlns:svg="http://www.w3.org/2000/svg">
  <defs
     id="defs2">
    <clipPath
       id="clip0_421_1274">
      <rect
         width="300"
         height="300"
         fill="#ffffff"
         id="rect903"
         x="0"
         y="0" />
    </clipPath>
    <clipPath
       id="clip0_421_1274-3">
      <rect
         width="300"
         height="300"
         fill="#ffffff"
         id="rect1539"
         x="0"
         y="0" />
    </clipPath>
    <clipPath
       id="clip0_421_1274-35">
      <rect
         width="300"
         height="300"
         fill="#ffffff"
         id="rect1928"
         x="0"
         y="0" />
    </clipPath>
    <clipPath
       id="clip0_421_1274-8">
      <rect
         width="300"
         height="300"
         fill="#ffffff"
         id="rect2361"
         x="0"
         y="0" />
    </clipPath>
    <linearGradient
       id="paint0_linear_421_1274"
       x1="121.039"
       y1="222.77901"
       x2="121.039"
       y2="132.015"
       gradientUnits="userSpaceOnUse">
      <stop
         stop-color="#FF7300"
         id="stop2716" />
      <stop
         offset="0.1086"
         stop-color="#FF8D08"
         id="stop2718" />
      <stop
         offset="0.2899"
         stop-color="#FFB214"
         id="stop2720" />
      <stop
         offset="0.4716"
         stop-color="#FFCF1E"
         id="stop2722" />
      <stop
         offset="0.6514"
         stop-color="#FFE325"
         id="stop2724" />
      <stop
         offset="0.8286"
         stop-color="#FFF029"
         id="stop2726" />
      <stop
         offset="1"
         stop-color="#FFF42A"
         id="stop2728" />
    </linearGradient>
    <linearGradient
       id="paint1_linear_421_1274"
       x1="121.04"
       y1="129.14799"
       x2="121.04"
       y2="139.46899"
       gradientUnits="userSpaceOnUse">
      <stop
         stop-color="#FF7300"
         id="stop2731" />
      <stop
         offset="0.1086"
         stop-color="#FF8D08"
         id="stop2733" />
      <stop
         offset="0.2899"
         stop-color="#FFB214"
         id="stop2735" />
      <stop
         offset="0.4716"
         stop-color="#FFCF1E"
         id="stop2737" />
      <stop
         offset="0.6514"
         stop-color="#FFE325"
         id="stop2739" />
      <stop
         offset="0.8286"
         stop-color="#FFF029"
         id="stop2741" />
      <stop
         offset="1"
         stop-color="#FFF42A"
         id="stop2743" />
    </linearGradient>
    <linearGradient
       id="paint2_linear_421_1274"
       x1="226.423"
       y1="222.77901"
       x2="226.423"
       y2="132.015"
       gradientUnits="userSpaceOnUse">
      <stop
         stop-color="#FF7300"
         id="stop2746" />
      <stop
         offset="0.1086"
         stop-color="#FF8D08"
         id="stop2748" />
      <stop
         offset="0.2899"
         stop-color="#FFB214"
         id="stop2750" />
      <stop
         offset="0.4716"
         stop-color="#FFCF1E"
         id="stop2752" />
      <stop
         offset="0.6514"
         stop-color="#FFE325"
         id="stop2754" />
      <stop
         offset="0.8286"
         stop-color="#FFF029"
         id="stop2756" />
      <stop
         offset="1"
         stop-color="#FFF42A"
         id="stop2758" />
    </linearGradient>
    <clipPath
       id="clip0_421_1274-6">
      <rect
         width="300"
         height="300"
         fill="#ffffff"
         id="rect2761"
         x="0"
         y="0" />
    </clipPath>
    <clipPath
       id="clip0_421_1274-9">
      <rect
         width="300"
         height="300"
         fill="#ffffff"
         id="rect3154"
         x="0"
         y="0" />
    </clipPath>
    <clipPath
       id="clip0_421_1274-61">
      <rect
         width="300"
         height="300"
         fill="#ffffff"
         id="rect3560"
         x="0"
         y="0" />
    </clipPath>
    <linearGradient
       id="paint0_linear_421_1274-3"
       x1="118.039"
       y1="225.166"
       x2="118.039"
       y2="137.532"
       gradientUnits="userSpaceOnUse">
      <stop
         stop-color="#FF7300"
         id="stop4079" />
      <stop
         offset="0.1086"
         stop-color="#FF8D08"
         id="stop4081" />
      <stop
         offset="0.2899"
         stop-color="#FFB214"
         id="stop4083" />
      <stop
         offset="0.4716"
         stop-color="#FFCF1E"
         id="stop4085" />
      <stop
         offset="0.6514"
         stop-color="#FFE325"
         id="stop4087" />
      <stop
         offset="0.8286"
         stop-color="#FFF029"
         id="stop4089" />
      <stop
         offset="1"
         stop-color="#FFF42A"
         id="stop4091" />
    </linearGradient>
    <linearGradient
       id="paint1_linear_421_1274-7"
       x1="118.04"
       y1="134.76401"
       x2="118.04"
       y2="144.729"
       gradientUnits="userSpaceOnUse">
      <stop
         stop-color="#FF7300"
         id="stop4094" />
      <stop
         offset="0.1086"
         stop-color="#FF8D08"
         id="stop4096" />
      <stop
         offset="0.2899"
         stop-color="#FFB214"
         id="stop4098" />
      <stop
         offset="0.4716"
         stop-color="#FFCF1E"
         id="stop4100" />
      <stop
         offset="0.6514"
         stop-color="#FFE325"
         id="stop4102" />
      <stop
         offset="0.8286"
         stop-color="#FFF029"
         id="stop4104" />
      <stop
         offset="1"
         stop-color="#FFF42A"
         id="stop4106" />
    </linearGradient>
    <linearGradient
       id="paint2_linear_421_1274-8"
       x1="223.423"
       y1="225.166"
       x2="223.423"
       y2="137.532"
       gradientUnits="userSpaceOnUse">
      <stop
         stop-color="#FF7300"
         id="stop4109" />
      <stop
         offset="0.1086"
         stop-color="#FF8D08"
         id="stop4111" />
      <stop
         offset="0.2899"
         stop-color="#FFB214"
         id="stop4113" />
      <stop
         offset="0.4716"
         stop-color="#FFCF1E"
         id="stop4115" />
      <stop
         offset="0.6514"
         stop-color="#FFE325"
         id="stop4117" />
      <stop
         offset="0.8286"
         stop-color="#FFF029"
         id="stop4119" />
      <stop
         offset="1"
         stop-color="#FFF42A"
         id="stop4121" />
    </linearGradient>
    <clipPath
       id="clip0_421_1274-4">
      <rect
         width="300"
         height="300"
         fill="#ffffff"
         id="rect4124"
         x="0"
         y="0" />
    </clipPath>
    <clipPath
       id="clip0_421_1274-2">
      <rect
         width="300"
         height="300"
         fill="#ffffff"
         id="rect4458"
         x="0"
         y="0" />
    </clipPath>
    <clipPath
       id="clip0_421_1274-1">
      <rect
         width="300"
         height="300"
         fill="#ffffff"
         id="rect4979"
         x="0"
         y="0" />
    </clipPath>
    <clipPath
       id="clip0_421_1274-24">
      <rect
         width="300"
         height="300"
         fill="#ffffff"
         id="rect5434"
         x="0"
         y="0" />
    </clipPath>
    <clipPath
       id="clip0_421_1274-46">
      <rect
         width="300"
         height="300"
         fill="#ffffff"
         id="rect5850"
         x="0"
         y="0" />
    </clipPath>
    <clipPath
       id="clip0_421_1274-5">
      <rect
         width="300"
         height="300"
         fill="#ffffff"
         id="rect6329"
         x="0"
         y="0" />
    </clipPath>
    <clipPath
       id="clip0_421_1274-38">
      <rect
         width="300"
         height="300"
         fill="#ffffff"
         id="rect6804"
         x="0"
         y="0" />
    </clipPath>
    <clipPath
       id="clip0_421_1274-44">
      <rect
         width="300"
         height="300"
         fill="#ffffff"
         id="rect7152"
         x="0"
         y="0" />
    </clipPath>
    <clipPath
       id="clip0_421_1274-94">
      <rect
         width="300"
         height="300"
         fill="#ffffff"
         id="rect7595"
         x="0"
         y="0" />
    </clipPath>
    <clipPath
       id="clip0_421_1274-10">
      <rect
         width="300"
         height="300"
         fill="#ffffff"
         id="rect8065"
         x="0"
         y="0" />
    </clipPath>
    <clipPath
       id="clip0_421_1274-87">
      <rect
         width="300"
         height="300"
         fill="#ffffff"
         id="rect8554"
         x="0"
         y="0" />
    </clipPath>
    <clipPath
       id="clip0_421_1274-19">
      <rect
         width="300"
         height="300"
         fill="#ffffff"
         id="rect9033"
         x="0"
         y="0" />
    </clipPath>
    <clipPath
       id="clip0_421_1274-49">
      <rect
         width="300"
         height="300"
         fill="#ffffff"
         id="rect9515"
         x="0"
         y="0" />
    </clipPath>
    <clipPath
       id="clip0_421_1274-69">
      <rect
         width="300"
         height="300"
         fill="#ffffff"
         id="rect10033"
         x="0"
         y="0" />
    </clipPath>
    <clipPath
       id="clip0_421_1274-40">
      <rect
         width="300"
         height="300"
         fill="#ffffff"
         id="rect10502"
         x="0"
         y="0" />
    </clipPath>
    <clipPath
       id="clip0_421_1274-242">
      <rect
         width="300"
         height="300"
         fill="#ffffff"
         id="rect10955"
         x="0"
         y="0" />
    </clipPath>
  </defs>
  <g
     id="layer1"
     transform="translate(-293.11208,-61.766634)">
    <g
       style="fill:none"
       id="g10994"
       transform="matrix(0.26458333,0,0,0.26458333,293.11208,61.766634)">
      <g
         clip-path="url(#clip0_421_1274-242)"
         id="g10953">
        <path
           id="rect10899"
           style="fill:#b5e2dc;fill-opacity:0.968627"
           d="M 0,0 H 300 V 300 H 0 Z" />
        <path
           d="m 251.589,264.099 c -0.774,0.553 -1.659,1.107 -2.434,1.66 -0.885,0.553 -1.66,1.106 -2.545,1.549 -0.774,0.443 -1.438,0.885 -2.213,1.328 -0.11,0.11 -0.221,0.11 -0.332,0.221 -2.544,1.549 -5.2,2.987 -7.855,4.315 -0.775,0.443 -1.66,0.885 -2.435,1.217 0,0 -0.11,0.111 -0.221,0.111 -0.885,0.443 -1.77,0.885 -2.656,1.328 -1.77,0.885 -3.651,1.659 -5.421,2.434 -0.885,0.443 -1.881,0.774 -2.766,1.106 -0.886,0.332 -1.881,0.775 -2.767,1.107 -0.885,0.332 -1.881,0.774 -2.766,1.106 0,0 0,0 -0.11,0 -0.886,0.332 -1.881,0.664 -2.767,0.996 -1.991,0.664 -4.093,1.328 -6.085,1.992 -0.664,0.221 -1.439,0.442 -2.102,0.664 -2.103,0.664 -4.205,1.217 -6.307,1.659 -0.775,0.222 -1.549,0.332 -2.435,0.554 -1.991,0.442 -4.093,0.885 -6.085,1.327 -0.443,0.111 -0.775,0.111 -1.217,0.222 -0.664,0.11 -1.439,0.221 -2.102,0.332 -0.996,0.11 -1.881,0.332 -2.877,0.442 -0.443,0.111 -0.885,0.111 -1.328,0.222 -0.553,0.11 -1.217,0.221 -1.881,0.221 -1.77,0.221 -3.651,0.442 -5.422,0.664 -0.553,0.11 -1.217,0.11 -1.77,0.221 h -0.111 c -0.774,0.111 -1.549,0.111 -2.323,0.221 -0.775,0.111 -1.549,0.111 -2.324,0.111 -0.442,0 -0.996,0.111 -1.438,0.111 -0.885,0 -1.66,0.11 -2.435,0.11 -1.106,0 -2.102,0.111 -3.208,0.111 -1.107,0 -2.103,0 -3.209,0 -0.775,0 -1.549,0 -2.324,0 -46.582,-0.664 -88.6277,-20.47 -118.5023,-51.893 0,0 0,-0.111 -0.1106,-0.111 3.43,-6.75 16.1544,-18.921 29.432,-28.99 16.8183,-12.724 40.6069,-20.58 40.6069,-20.58 0,0 15.602,-2.545 73.47,9.516 44.148,9.294 62.958,47.025 69.375,64.396 z"
           fill="#fee4bf"
           id="path10901" />
        <path
           d="m 194.495,230.352 c -2.323,11.397 -17.371,18.146 -42.709,7.966 -31.092,-12.613 -43.042,-48.131 -43.042,-48.131 -1.659,-25.449 -5.532,-47.246 -5.532,-47.246 35.96,-3.098 78.448,38.948 78.448,38.948 l 4.869,20.801 c 0.442,1.771 1.328,3.32 2.655,4.426 2.324,3.983 6.861,15.933 5.311,23.236 z"
           fill="#fee4bf"
           id="path10903" />
        <path
           d="m 189.185,207.227 c -21.134,-1.107 -36.735,-4.205 -53.443,-34.19 14.163,12.503 30.871,17.261 48.463,19.474 l 2.324,10.179 c 0.443,1.881 1.328,3.43 2.656,4.537 z"
           fill="#efbda5"
           id="path10905" />
        <path
           d="m 232.89,73.8974 c 1.992,9.2944 2.987,16.8183 -2.434,41.6036 -5.422,24.784 4.979,49.569 -21.134,72.252 -17.593,15.269 -48.352,18.146 -72.916,1.438 -8.299,-5.643 -15.933,-13.499 -22.129,-23.789 C 109.408,157.325 103.765,149.69 97.4583,142.72 88.7172,133.204 78.2058,114.062 83.4062,80.2043 91.8153,25.1022 146.364,18.7954 178.562,24.8809 c 32.199,6.0856 48.906,24.453 54.328,49.0165 z"
           fill="#fee4bf"
           id="path10907" />
        <path
           d="m 127.001,117.16 c 0,0 -3.43,-16.597 -19.584,-14.605 -13.9417,1.77 -18.8102,35.186 12.835,44.48"
           fill="#fee4bf"
           id="path10909" />
        <path
           style="color:#000000;fill:#423232;stroke-linecap:round;stroke-linejoin:round;stroke-miterlimit:10;-inkscape-stroke:none"
           d="m 111.32813,113.47656 c -0.7987,-0.0615 -1.54586,0.026 -2.22266,0.25 -1.35361,0.44794 -2.32812,1.38924 -2.97852,2.36914 -0.65039,0.9799 -1.01818,2.01637 -1.22851,2.90039 -0.10517,0.44201 -0.16974,0.84524 -0.20117,1.20313 -0.0314,0.35789 -0.0769,0.59024 0.0469,1.08594 a 1.5,1.5 0 0 0 1.81836,1.09179 1.5,1.5 0 0 0 1.09375,-1.81836 c 0.0685,0.27445 0.0127,0.0911 0.0293,-0.0977 0.0166,-0.1888 0.0579,-0.46301 0.13086,-0.76953 0.14585,-0.61304 0.42173,-1.35466 0.80859,-1.9375 0.38686,-0.58285 0.84279,-0.98806 1.42188,-1.17969 0.57908,-0.19163 1.37985,-0.2233 2.65625,0.31055 a 1.50015,1.50015 0 0 0 0.01,0.004 c 0.73893,0.30195 1.17665,0.8189 1.49024,2.09571 0.31358,1.2768 0.34406,3.23252 0.0254,5.73242 a 1.50015,1.50015 0 0 0 -0.006,0.0391 c -0.53746,5.36847 4.22656,8.38477 4.22656,8.38476 a 1.5,1.5 0 0 0 2.07031,-0.45703 1.5,1.5 0 0 0 -0.45508,-2.07226 c 0,0 -3.20401,-2.07512 -2.85547,-5.55664 l -0.006,0.041 c 0.34432,-2.7011 0.37497,-4.95143 -0.0859,-6.82812 -0.46068,-1.87573 -1.57299,-3.45873 -3.26758,-4.15235 -0.87944,-0.36671 -1.72584,-0.57742 -2.52148,-0.63867 z"
           id="path10911" />
        <path
           d="m 203.679,142.609 c 0,0 4.205,0.221 8.188,-4.536 2.213,-2.656 4.094,-5.975 2.877,-6.971 -1.217,-1.107 -21.244,1.991 -22.572,4.647 -1.328,2.655 6.418,6.86 11.507,6.86 z"
           fill="#efbda5"
           id="path10913" />
        <path
           style="color:#000000;fill:#423232;stroke-linecap:round;stroke-linejoin:round;stroke-miterlimit:10;-inkscape-stroke:none"
           d="m 206.9668,103.93164 a 1.5,1.5 0 0 0 -1.4668,1.53125 c 0,0 0.23375,10.90453 7.16992,22.95703 1.15391,2.00881 0.91216,4.81516 -0.83008,7.4043 -1.74223,2.58913 -4.9469,4.85892 -9.48437,5.52148 a 1.5,1.5 0 0 0 -1.26758,1.70117 1.5,1.5 0 0 0 1.70117,1.26758 c 5.31052,-0.77544 9.30001,-3.48409 11.54102,-6.81445 2.24101,-3.33036 2.77449,-7.38304 0.9414,-10.57422 a 1.50015,1.50015 0 0 0 -0.002,-0.002 C 208.70567,115.51831 208.498,105.40034 208.498,105.40034 a 1.5,1.5 0 0 0 -1.53125,-1.46875 z"
           id="path10915" />
        <path
           opacity="0.42"
           d="m 147.028,148.252 c 6.295,0 11.397,-4.211 11.397,-9.405 0,-5.194 -5.102,-9.405 -11.397,-9.405 -6.294,0 -11.396,4.211 -11.396,9.405 0,5.194 5.102,9.405 11.396,9.405 z"
           fill="#f2a5b2"
           id="path10917" />
        <path
           opacity="0.42"
           d="m 228.685,129.663 c -0.332,6.197 -0.221,12.282 -0.664,18.368 -4.868,-1.107 -8.409,-4.758 -8.409,-9.073 0,-4.647 3.873,-8.409 9.073,-9.295 z"
           fill="#f2a5b2"
           id="path10919" />
        <path
           d="m 253.293,62.698 c 0,-13.86 -9.35,-25.41 -22,-29.04 0.66,-2.75 0.77,-5.61 0.11,-8.58 -2.2,-9.57 -10.78,-16.28002 -20.57,-15.62002 -3.85,0.22 -7.48,1.65002 -10.45,3.85002 -4.62,-10.67002 -15.29,-18.15002 -27.61,-18.15002 -13.09,0 -24.2,8.36 -28.38,20.02002 -4.62,-5.50002 -11.55,-9.02002 -19.25,-9.02002 -13.42,0 -24.42,10.56002 -25.08,23.87002 -2.09,-0.66 -4.3999,-0.99 -6.7099,-0.88 -8.91,0.55 -16.1701,7.81 -16.8301,16.72 -0.22,2.97 0.3301,5.83 1.4301,8.47 -12.54,1.32 -22.3301,11.99 -22.3301,24.86 0,9.68 5.5,18.15 13.64,22.33 -3.3,3.3 -5.39,7.81 -5.39,12.76 0,9.24 7.0401,16.94 16.0601,17.93 -0.55,1.76 -0.7701,3.85 -0.1101,5.94 0.99,3.63 3.96,6.49 7.59,7.26 2.2,0.44 4.29,0.22 6.16,-0.55 0.99,1.43 1.9801,2.64 2.8601,3.74 1.1,1.32 1.9799,2.53 2.8599,3.74 5.06,7.26 16.61,4.07 17.05,-4.73 0,-0.11 0,-0.11 0,-0.22 -27.5,-10.56 -22.55,-41.25 -9.13,-43.01 14.08,-1.76 18.48,10.78 19.25,13.86 15.07,-9.68 -6.38,-44.55 15.73,-54.89 19.69,-9.13 40.37,4.73 65.67,8.14 9.35,1.32 18.15,-7.92 22.11,-2.75 0.77,2.31 1.43,4.62 1.98,7.04 1.76,7.81 2.64,14.41 -0.33,31.13 7.26,-3.96 10.78,-9.9 11.44,-15.73 0.22,-1.98 0.22,-4.07 0.11,-6.05 6.16,-5.39 10.12,-13.42 10.12,-22.44 z"
           fill="#423232"
           id="path10921" />
        <path
           d="M 289.678,335.527 H 6.36816 c 0,0 1.23276,-52.224 18.71554,-89.094 12.8879,-27.345 46.0603,-42.923 69.1465,-50.88 5.1552,-1.793 9.8618,-3.138 13.6728,-4.146 1.232,3.362 13.672,36.31 43.482,48.414 25.664,10.422 40.906,3.474 43.259,-8.069 1.457,-7.397 -3.138,-19.5 -5.491,-23.423 -1.345,-1.121 -2.242,-2.802 -2.69,-4.483 l -0.897,-3.698 c 2.018,-0.448 3.923,-1.008 5.94,-1.569 1.009,0.224 2.017,0.448 3.026,0.673 14.457,3.474 35.862,11.879 60.965,33.06 29.026,24.207 34.181,103.215 34.181,103.215 z"
           fill="#a67c3d"
           id="path10923" />
        <path
           d="m 198.679,262.234 c -3.923,1.121 -17.595,-13.112 -20.397,-15.577 -2.578,2.914 -20.733,23.422 -29.698,22.077 -9.862,-1.457 -35.078,-18.379 -47.854,-44.939 -7.0601,-14.569 -7.2842,-23.423 -6.4997,-28.242 0.3362,-2.241 1.0086,-3.698 1.3448,-4.482 1.1207,-2.578 9.1899,-12.552 11.2069,-12.44 v 0.112 c 1.009,10.759 4.483,21.181 10.31,30.259 7.173,11.094 18.492,24.431 34.293,30.819 25.664,10.422 39,0.112 41.242,-11.431 1.457,-7.397 -1.121,-16.138 -3.474,-20.061 -1.345,-1.121 -2.242,-2.802 -2.69,-4.483 l -0.897,-3.698 c 2.018,-0.448 3.923,-1.008 5.94,-1.569 0.561,-0.224 1.233,-0.336 1.793,-0.56 0.336,0.448 0.785,0.896 1.121,1.345 4.707,5.379 9.638,12.775 12.328,25.327 4.594,20.061 -3.699,36.198 -8.069,37.543 z"
           fill="#423232"
           id="path10925" />
        <path
           style="color:#000000;fill:#423232;stroke-linecap:round;stroke-linejoin:round;stroke-miterlimit:10;-inkscape-stroke:none"
           d="m 178.69336,244.68359 a 1.5,1.5 0 0 0 -2.04883,0.55274 1.5,1.5 0 0 0 0.55274,2.04687 c 0,0 1.95481,1.13041 3.85546,2.70117 0.95033,0.78539 1.8742,1.67992 2.4961,2.51954 0.6219,0.83962 0.88087,1.58049 0.85547,2.02539 -0.13421,2.34977 0.43124,6.33859 0.99609,9.96679 0.56485,3.6282 1.1582,6.75977 1.1582,6.75977 a 1.5,1.5 0 0 0 1.75196,1.19336 1.5,1.5 0 0 0 1.19531,-1.75195 c 0,0 -0.58448,-3.08982 -1.14063,-6.66211 -0.55614,-3.5723 -1.05463,-7.76372 -0.96484,-9.33594 0.0866,-1.5166 -0.59237,-2.83614 -1.44141,-3.98242 -0.84903,-1.14629 -1.92917,-2.16319 -2.99609,-3.04493 -2.13384,-1.76347 -4.26953,-2.98828 -4.26953,-2.98828 z"
           id="path10927" />
        <path
           d="m 177.833,260.889 c 1.486,0 2.69,-1.204 2.69,-2.689 0,-1.486 -1.204,-2.69 -2.69,-2.69 -1.485,0 -2.689,1.204 -2.689,2.69 0,1.485 1.204,2.689 2.689,2.689 z"
           fill="#423232"
           id="path10929" />
        <path
           d="m 178.842,271.424 c 1.485,0 2.69,-1.204 2.69,-2.69 0,-1.485 -1.205,-2.689 -2.69,-2.689 -1.485,0 -2.69,1.204 -2.69,2.689 0,1.486 1.205,2.69 2.69,2.69 z"
           fill="#423232"
           id="path10931" />
        <path
           style="color:#000000;fill:#544d4d;stroke-linecap:round;stroke-linejoin:round;stroke-miterlimit:10;-inkscape-stroke:none"
           d="m 56.619141,292.46094 a 1.5,1.5 0 0 0 -1.308594,1.66992 l 5.042969,41.57617 a 1.5,1.5 0 0 0 1.669921,1.30859 1.5,1.5 0 0 0 1.306641,-1.66992 l -5.042969,-41.57617 a 1.5,1.5 0 0 0 -1.667968,-1.30859 z"
           id="path10933" />
        <path
           style="color:#000000;fill:#544d4d;stroke-linecap:round;stroke-linejoin:round;stroke-miterlimit:10;-inkscape-stroke:none"
           d="m 258.08398,278.44141 a 1.5,1.5 0 0 0 -1.95703,0.81836 c 0,0 -3.52849,8.41192 -2.45508,17.11523 1.02915,8.35265 3.88676,19.9394 -0.20117,38.83398 a 1.5,1.5 0 0 0 1.14844,1.78321 1.5,1.5 0 0 0 1.7832,-1.14844 c 4.20407,-19.43137 1.2349,-31.8266 0.24805,-39.83594 -0.94458,-7.65867 2.25195,-15.60937 2.25195,-15.60937 a 1.5,1.5 0 0 0 -0.81836,-1.95703 z"
           id="path10935" />
        <path
           d="m 172.828,114.678 c -2.4,-0.1 -4.2,-2.1 -4,-4.5 l 0.1,-2.8 c 0.1,-2.4 2.1,-4.2 4.5,-4 2.4,0.1 4.2,2.1 4,4.5 l -0.1,2.8 c -0.1,2.3 -2.1,4.1 -4.5,4 z"
           fill="#423232"
           id="path10937" />
        <path
           d="m 214.928,116.178 c -2.2,-0.1 -3.9,-2 -3.8,-4.2 l 0.1,-2.6 c 0.1,-2.2 2,-3.9 4.2,-3.8 2.2,0.1 3.9,2 3.8,4.2 l -0.1,2.6 c -0.1,2.2 -2,3.9 -4.2,3.8 z"
           fill="#423232"
           id="path10939" />
        <path
           style="color:#000000;fill:#423232;stroke-linecap:round;stroke-linejoin:round;stroke-miterlimit:10;-inkscape-stroke:none"
           d="m 172.44922,102.95313 c -1.04423,0.13379 -2.04404,0.40332 -2.95117,0.77343 -1.81427,0.74022 -3.39527,1.82974 -3.91211,3.63867 a 1.5,1.5 0 0 0 1.02929,1.85547 1.5,1.5 0 0 0 1.85547,-1.03125 c 0.0832,-0.29106 0.85138,-1.15077 2.16211,-1.68554 1.31073,-0.53478 3.02506,-0.79297 4.55469,-0.54493 a 1.50015,1.50015 0 0 0 0.01,0.002 c 3.79345,0.59009 6.10351,3.77929 6.10351,3.77929 a 1.5,1.5 0 0 0 2.08984,0.36524 1.5,1.5 0 0 0 0.36524,-2.08984 c 0,0 -2.88803,-4.20362 -8.08789,-5.01758 -0.001,-2.2e-4 -0.003,2.1e-4 -0.004,0 -1.08387,-0.17535 -2.17187,-0.17856 -3.21484,-0.0449 z"
           id="path10941" />
        <path
           style="color:#000000;fill:#423232;stroke-linecap:round;stroke-linejoin:round;stroke-miterlimit:10;-inkscape-stroke:none"
           d="m 216.62891,105.07813 c -2.64783,-1e-5 -4.39255,1.03977 -5.24414,2.2246 -0.8516,1.18483 -0.85743,2.47461 -0.85743,2.47461 a 1.5,1.5 0 0 0 1.5,1.5 1.5,1.5 0 0 0 1.5,-1.5 c 0,0 -0.005,-0.30944 0.29297,-0.72461 0.2984,-0.41516 0.85642,-0.9746 2.8086,-0.9746 2.87894,0 4.03515,2.62304 4.03515,2.62304 a 1.5,1.5 0 0 0 1.98828,0.74024 1.5,1.5 0 0 0 0.74024,-1.98633 c 0,0 -2.04263,-4.37696 -6.76367,-4.37695 z"
           id="path10943" />
        <path
           d="m 188.228,91.4784 c 2.2,-0.2 3.3,-2.8 2.1,-4.8 -0.7,-1 -1.6,-1.9 -2.9,-2.4 -3.8,-1.2 -16.2,1.5 -21.6,7.7 -4.8,5.7 12.4,0.4 22.4,-0.5 z"
           fill="#423232"
           id="path10945" />
        <path
           d="m 214.628,93.0784 c -1.7,-0.5 -2.2,-3 -0.8,-4.6 0.7,-0.8 1.7,-1.5 2.8,-1.7 3.4,-0.6 11.2,2.5 13.4,8.4 2,5.0996 -7.3,-0.1 -15.4,-2.1 z"
           fill="#423232"
           id="path10947" />
        <path
           d="m 202.549,146.603 c 0,0 -3.832,-7.9 -18.021,-3 -9.114,3.2 -18.021,8.2 -22.993,3 0,0 2.589,13 18.747,15.8 19.885,3.3 24.132,-9.9 22.267,-15.8 z"
           fill="#423232"
           id="path10949" />
        <path
           d="m 201.721,145.403 c 0,0 5.904,-5.4 11.6,-0.3 5.179,4.6 7.664,5.3 9.529,2.5 0,0 0.414,11 -8.597,12.4 -9.839,1.6 -13.464,-6 -13.464,-6"
           fill="#423232"
           id="path10951" />
      </g>
    </g>
  </g>
</svg>
