<?xml version="1.0" encoding="UTF-8" standalone="no"?>
<!-- Created with Inkscape (http://www.inkscape.org/) -->

<svg
   width="79.375mm"
   height="79.375mm"
   viewBox="0 0 79.375 79.375"
   version="1.1"
   id="svg5"
   xmlns="http://www.w3.org/2000/svg"
   xmlns:svg="http://www.w3.org/2000/svg">
  <defs
     id="defs2">
    <clipPath
       id="clip0_421_1274">
      <rect
         width="300"
         height="300"
         fill="#ffffff"
         id="rect903"
         x="0"
         y="0" />
    </clipPath>
  </defs>
  <g
     id="layer1"
     transform="translate(-68.21275,-68.212747)">
    <g
       style="fill:none"
       id="g954"
       transform="matrix(0.26458333,0,0,0.26458333,68.21275,68.212747)">
      <g
         clip-path="url(#clip0_421_1274)"
         id="g901">
        <path
           id="path1338"
           style="fill:#b5e2c9"
           d="M 0,0 H 300 V 300 H 0 Z" />
        <path
           d="m 253.592,257.177 c -0.774,0.514 -1.659,1.029 -2.434,1.543 -0.885,0.515 -1.66,1.029 -2.545,1.44 -0.774,0.412 -1.438,0.824 -2.213,1.235 -0.11,0.103 -0.221,0.103 -0.332,0.206 -2.545,1.44 -5.2,2.778 -7.856,4.012 -0.774,0.412 -1.659,0.823 -2.434,1.132 0,0 -0.111,0.103 -0.221,0.103 -0.885,0.411 -1.771,0.823 -2.656,1.234 -1.77,0.823 -3.651,1.544 -5.422,2.264 -0.885,0.411 -1.881,0.72 -2.766,1.028 -0.885,0.309 -1.881,0.721 -2.766,1.029 -0.885,0.309 -1.881,0.72 -2.766,1.029 0,0 0,0 -0.111,0 -0.885,0.309 -1.881,0.617 -2.766,0.926 -1.992,0.617 -4.094,1.235 -6.086,1.852 -0.664,0.206 -1.438,0.411 -2.102,0.617 -2.102,0.617 -4.205,1.132 -6.307,1.543 -0.775,0.206 -1.549,0.309 -2.434,0.515 -1.992,0.411 -4.094,0.823 -6.086,1.234 -0.443,0.103 -0.774,0.103 -1.217,0.206 -0.664,0.103 -1.439,0.206 -2.102,0.309 -0.996,0.103 -1.881,0.308 -2.877,0.411 -0.443,0.103 -0.885,0.103 -1.328,0.206 -0.553,0.103 -1.217,0.206 -1.881,0.206 -1.77,0.206 -3.651,0.411 -5.422,0.617 -0.553,0.103 -1.217,0.103 -1.77,0.206 h -0.111 c -0.774,0.103 -1.549,0.103 -2.323,0.206 -0.775,0.102 -1.55,0.102 -2.324,0.102 -0.443,0 -0.996,0.103 -1.438,0.103 -0.886,0 -1.66,0.103 -2.435,0.103 -1.106,0 -2.102,0.103 -3.209,0.103 -1.106,0 -2.102,0 -3.208,0 -0.775,0 -1.549,0 -2.324,0 -46.583,-0.617 -88.6292,-19.033 -118.5043,-48.251 0,0 0,-0.103 -0.1106,-0.103 3.4301,-6.276 16.1546,-17.592 29.4324,-26.955 16.8186,-11.831 40.6075,-19.135 40.6075,-19.135 0,0 15.602,-2.367 73.471,8.847 44.149,8.642 62.959,43.725 69.376,59.877 z"
           fill="#fee4bf"
           id="path1335" />
        <path
           d="m 196.498,225.798 c -2.324,10.597 -17.372,16.873 -42.711,7.408 -31.092,-11.729 -43.042,-44.753 -43.042,-44.753 -1.659,-23.663 -5.532,-43.93 -5.532,-43.93 35.961,-2.881 78.45,36.214 78.45,36.214 l 4.868,19.341 c 0.443,1.646 1.328,3.087 2.656,4.115 2.323,3.704 6.86,14.815 5.311,21.605 z"
           fill="#fee4bf"
           id="path1332" />
        <path
           d="m 191.187,204.296 c -21.134,-1.029 -36.735,-3.909 -53.443,-31.79 14.163,11.626 30.871,16.049 48.464,18.107 l 2.323,9.465 c 0.443,1.749 1.328,3.189 2.656,4.218 z"
           fill="#efbda5"
           id="path1329" />
        <path
           d="m 234.893,80.3251 c 1.992,8.6419 2.987,15.6378 -2.434,38.6829 -5.422,23.045 4.979,46.091 -21.134,67.181 -17.593,14.198 -48.353,16.873 -72.917,1.338 -8.299,-5.247 -15.934,-12.552 -22.13,-22.12 -4.868,-7.51 -10.512,-14.609 -16.8185,-21.09 -8.7412,-8.848 -19.2528,-26.646 -14.0523,-58.1277 8.4092,-51.2346 62.9588,-57.0988 95.1578,-51.4404 32.198,5.6585 48.906,22.7366 54.328,45.5762 z"
           fill="#fee4bf"
           id="path1326" />
        <path
           d="m 129.003,120.551 c 0,0 -3.43,-15.432 -19.585,-13.58 -13.9418,1.646 -18.8103,32.716 12.835,41.358"
           fill="#fee4bf"
           id="path1323" />
        <path
           style="color:#000000;fill:#423232;stroke-linecap:round;stroke-linejoin:round;stroke-miterlimit:10;-inkscape-stroke:none"
           d="m 113.32227,117.01953 c -0.7862,-0.0564 -1.52058,0.0233 -2.1875,0.22852 -1.33386,0.41043 -2.31969,1.28729 -2.98047,2.21289 -0.66078,0.9256 -1.03507,1.90811 -1.25,2.74804 -0.10747,0.41997 -0.17445,0.8035 -0.20703,1.14844 -0.0326,0.34494 -0.0826,0.5688 0.0547,1.08008 a 1.5,1.5 0 0 0 1.83789,1.06055 1.5,1.5 0 0 0 1.0586,-1.83789 c 0.082,0.30553 0.0217,0.14387 0.0371,-0.0195 0.0154,-0.16341 0.0544,-0.41146 0.125,-0.6875 0.14128,-0.5521 0.41051,-1.22053 0.78711,-1.74805 0.37659,-0.52753 0.8208,-0.9055 1.41992,-1.08985 0.59911,-0.18435 1.43392,-0.20923 2.7207,0.29102 a 1.50015,1.50015 0 0 0 0.01,0.004 c 0.75888,0.28871 1.15971,0.73887 1.46289,1.88672 0.30318,1.14784 0.3367,2.94243 0.0195,5.25195 a 1.50015,1.50015 0 0 0 -0.006,0.0449 c -0.55071,5.12711 4.26562,7.92969 4.26562,7.92969 A 1.5,1.5 0 0 0 122.54688,135 a 1.5,1.5 0 0 0 -0.52344,-2.05469 c 0,0 -3.1497,-1.92837 -2.81641,-5.03125 l -0.006,0.043 c 0.34683,-2.52547 0.38148,-4.64138 -0.0898,-6.42578 -0.47107,-1.78347 -1.62124,-3.28597 -3.29492,-3.92383 -0.87441,-0.33891 -1.71099,-0.53169 -2.49414,-0.58789 z"
           id="path1320" />
        <path
           d="m 205.682,144.214 c 0,0 4.204,0.206 8.188,-4.218 2.212,-2.469 4.094,-5.556 2.876,-6.482 -1.217,-1.028 -21.244,1.852 -22.572,4.321 -1.328,2.469 6.418,6.379 11.508,6.379 z"
           fill="#efbda5"
           id="path1317" />
        <path
           style="color:#000000;fill:#423232;stroke-linecap:round;stroke-linejoin:round;stroke-miterlimit:10;-inkscape-stroke:none"
           d="m 208.9668,108.14648 a 1.5,1.5 0 0 0 -1.46485,1.53321 c 0,0 0.24193,10.20196 7.19532,21.43554 1.12101,1.81685 0.89623,4.30935 -0.82618,6.68946 -1.72309,2.38106 -4.93493,4.50894 -9.49804,5.1289 a 1.5,1.5 0 0 0 -1.28516,1.6875 1.5,1.5 0 0 0 1.68945,1.28516 c 5.28488,-0.71803 9.26525,-3.22057 11.52539,-6.34375 2.26015,-3.12318 2.80977,-7.00743 0.94532,-10.02539 a 1.50015,1.50015 0 0 0 0,-0.002 C 210.70145,118.95876 210.5,109.61133 210.5,109.61133 a 1.5,1.5 0 0 0 -1.5332,-1.46485 z"
           id="path1314" />
        <path
           opacity="0.42"
           d="m 149.03,149.461 c 6.294,0 11.396,-3.915 11.396,-8.745 0,-4.83 -5.102,-8.745 -11.396,-8.745 -6.295,0 -11.397,3.915 -11.397,8.745 0,4.83 5.102,8.745 11.397,8.745 z"
           fill="#f2a5b2"
           id="path1311" />
        <path
           opacity="0.42"
           d="m 230.688,132.177 c -0.332,5.761 -0.221,11.42 -0.663,17.078 -4.869,-1.029 -8.41,-4.424 -8.41,-8.436 0,-4.321 3.873,-7.819 9.073,-8.642 z"
           fill="#f2a5b2"
           id="path1308" />
        <path
           d="m 90.5283,186.466 c 0,0 16.3617,-6.643 19.3877,-6.872 l 0.224,2.634 c 0,0 -12.9996,5.727 -13.7841,6.643 -0.7845,0.916 -5.8276,-2.405 -5.8276,-2.405 z"
           fill="#7e5d6d"
           id="path1305" />
        <path
           d="M 292.477,335.127 H 9.1665 c 0,0 1.681,-53.143 18.7155,-91.052 12.888,-28.633 43.819,-47.531 66.3448,-55.777 6.3882,-2.291 11.3192,-4.81 15.9142,-6.07 0,0.573 0.336,4.81 0.336,5.268 0,0 18.603,26.228 60.069,25.884 24.879,-0.114 17.931,-16.607 17.931,-16.607 2.129,-0.458 4.146,-1.03 6.164,-1.718 0.672,-0.229 5.379,-2.176 5.939,-2.405 14.457,3.894 32.164,14.889 57.828,36.879 28.914,24.853 34.069,105.598 34.069,105.598 z"
           fill="#e89d6b"
           id="path1302" />
        <mask
           id="mask0_421_1274"
           maskUnits="userSpaceOnUse"
           x="9"
           y="182"
           width="284"
           height="154">
          <path
             d="M 292.477,335.127 H 9.1665 c 0,0 1.681,-53.143 18.7155,-91.052 12.888,-28.633 43.819,-47.531 66.3448,-55.777 6.3882,-2.291 11.3192,-4.81 15.9142,-6.07 0,0.573 0.336,4.81 0.336,5.268 0,0 18.603,26.228 60.069,25.884 24.879,-0.114 17.931,-16.607 17.931,-16.607 2.129,-0.458 4.146,-1.03 6.164,-1.718 0.672,-0.229 5.379,-2.176 5.939,-2.405 14.457,3.894 32.164,14.889 57.828,36.879 28.914,24.853 34.069,105.598 34.069,105.598 z"
             fill="#e89d6b"
             id="path850" />
        </mask>
        <g
           mask="url(#mask0_421_1274)"
           id="g867">
          <path
             d="m 67.3301,179.708 c 6.1638,0.229 9.3017,0.344 15.4655,0.229 5.4914,3.322 8.181,4.925 13.7845,8.018 5.7159,-0.344 8.6289,-0.573 14.3449,-1.26 5.715,2.748 8.517,4.123 14.233,6.757 5.827,-0.916 8.741,-1.489 14.457,-2.634 5.827,2.29 8.853,3.321 14.681,5.268 5.827,-1.489 8.741,-2.405 14.569,-4.123 6.051,1.604 9.077,2.405 15.129,3.78 5.827,-2.176 8.741,-3.207 14.569,-5.612 6.164,1.03 9.302,1.489 15.465,2.29 5.716,-2.748 8.63,-4.123 14.345,-7.101 6.276,0.344 9.414,0.458 15.69,0.573 5.603,-3.436 8.405,-5.154 14.008,-8.704 7.061,-0.573 10.535,-0.917 17.595,-1.718 -0.56,2.748 -0.784,4.123 -1.232,6.872 -5.828,0.687 -8.854,1.03 -14.681,1.488 -5.716,3.665 -8.518,5.498 -14.345,8.934 -6.388,0 -9.526,-0.115 -15.914,-0.458 -5.828,2.978 -8.741,4.466 -14.569,7.215 -6.276,-0.802 -9.414,-1.26 -15.69,-2.176 -5.827,2.405 -8.853,3.551 -14.681,5.612 -6.164,-1.374 -9.189,-2.176 -15.241,-3.779 -5.828,1.718 -8.854,2.634 -14.681,4.123 -5.94,-2.062 -8.966,-3.093 -14.905,-5.383 -5.828,1.145 -8.742,1.718 -14.681,2.634 -5.828,-2.634 -8.63,-3.894 -14.457,-6.757 -5.828,0.572 -8.742,0.801 -14.4572,1.145 -5.6034,-3.092 -8.4052,-4.696 -13.8965,-8.132 -5.1552,0 -7.7328,0 -12.888,-0.229 -0.7845,-2.634 -1.1207,-4.008 -2.0172,-6.872 z"
             fill="#ffff8d"
             id="path1299" />
          <path
             d="m 65.7612,208.799 c 6.1638,0.115 9.1897,0.115 15.4656,-0.114 5.6034,3.206 8.4051,4.695 14.0086,7.673 5.7156,-0.458 8.5176,-0.802 14.2326,-1.603 5.716,2.634 8.629,3.894 14.457,6.299 5.716,-1.031 8.517,-1.718 14.345,-2.978 5.94,2.062 8.965,3.092 14.905,4.925 5.716,-1.718 8.629,-2.52 14.345,-4.467 6.052,1.489 9.19,2.176 15.241,3.436 5.716,-2.29 8.517,-3.436 14.233,-5.955 6.276,0.916 9.302,1.259 15.578,1.832 5.603,-2.863 8.405,-4.352 14.008,-7.444 6.276,0.229 9.526,0.229 15.802,0.114 5.491,-3.436 8.181,-5.268 13.672,-8.933 7.061,-0.688 10.647,-1.031 17.707,-2.062 -0.448,2.749 -0.56,4.123 -1.008,6.757 -5.94,0.802 -8.854,1.146 -14.681,1.718 -5.604,3.78 -8.293,5.612 -13.897,9.163 -6.388,0.114 -9.638,0.114 -16.026,-0.115 -5.715,3.093 -8.517,4.582 -14.233,7.559 -6.275,-0.572 -9.525,-0.916 -15.801,-1.832 -5.716,2.52 -8.63,3.665 -14.457,5.955 -6.164,-1.259 -9.302,-1.947 -15.466,-3.435 -5.827,1.947 -8.629,2.748 -14.457,4.466 -6.051,-1.832 -9.077,-2.863 -15.017,-4.925 -5.827,1.26 -8.629,1.947 -14.457,2.978 -5.827,-2.405 -8.853,-3.665 -14.681,-6.413 -5.715,0.687 -8.629,1.03 -14.3446,1.603 -5.7155,-2.978 -8.5173,-4.581 -14.1207,-7.788 -5.1552,0.114 -7.7328,0.229 -12.7759,0.114 -1.1207,-2.519 -1.5689,-3.894 -2.5776,-6.528 z"
             fill="#ffff8d"
             id="path1296" />
          <path
             d="m 64.1924,237.432 c 6.0517,-0.115 9.1896,-0.229 15.3534,-0.458 5.6035,3.092 8.5173,4.581 14.2328,7.33 5.6034,-0.687 8.4054,-1.031 14.0084,-1.947 5.828,2.519 8.742,3.665 14.681,5.955 5.604,-1.26 8.405,-1.832 14.121,-3.321 6.052,1.947 9.077,2.863 15.129,4.581 5.604,-1.832 8.405,-2.749 14.009,-4.696 6.164,1.375 9.302,1.947 15.465,3.093 5.604,-2.405 8.406,-3.551 13.897,-6.185 6.276,0.687 9.414,1.031 15.69,1.489 5.491,-2.978 8.293,-4.467 13.672,-7.674 6.388,0 9.526,0 15.914,-0.229 5.379,-3.55 8.069,-5.383 13.336,-9.048 7.06,-0.801 10.647,-1.259 17.707,-2.405 -0.336,2.634 -0.448,4.009 -0.673,6.758 -5.939,0.916 -8.853,1.374 -14.793,2.061 -5.379,3.78 -8.181,5.727 -13.56,9.277 -6.5,0.229 -9.75,0.344 -16.138,0.229 -5.603,3.207 -8.293,4.696 -13.896,7.788 -6.388,-0.458 -9.526,-0.687 -15.914,-1.489 -5.604,2.635 -8.405,3.894 -14.121,6.3 -6.276,-1.031 -9.414,-1.718 -15.578,-3.093 -5.715,2.062 -8.517,2.978 -14.232,4.811 -6.164,-1.718 -9.19,-2.635 -15.242,-4.582 -5.715,1.489 -8.517,2.176 -14.232,3.322 -5.94,-2.291 -8.966,-3.551 -14.794,-6.07 -5.715,0.916 -8.5168,1.259 -14.2323,1.947 -5.8276,-2.864 -8.6293,-4.353 -14.3448,-7.445 -5.0431,0.229 -7.6207,0.344 -12.6638,0.458 -1.1207,-2.634 -1.681,-4.008 -2.8017,-6.757 z"
             fill="#ffff8d"
             id="path1293" />
          <path
             d="m 62.5112,265.95 c 6.0518,-0.229 9.0776,-0.458 15.1293,-0.916 5.7156,2.978 8.6293,4.352 14.4569,6.986 5.4914,-0.801 8.2936,-1.26 13.8966,-2.29 5.94,2.405 8.966,3.55 14.905,5.612 5.492,-1.375 8.293,-2.062 13.897,-3.665 6.051,1.832 9.189,2.634 15.241,4.123 5.491,-1.947 8.293,-2.978 13.785,-5.04 6.275,1.146 9.301,1.718 15.577,2.635 5.492,-2.52 8.181,-3.78 13.673,-6.414 6.388,0.573 9.525,0.802 15.913,1.145 5.38,-2.978 8.069,-4.581 13.449,-7.788 6.388,-0.114 9.638,-0.229 16.026,-0.573 5.267,-3.55 7.844,-5.382 13,-9.162 7.172,-0.916 10.758,-1.489 17.818,-2.749 -0.224,2.634 -0.224,4.009 -0.448,6.643 -5.939,1.031 -8.853,1.489 -14.793,2.291 -5.267,3.894 -7.957,5.726 -13.224,9.391 -6.5,0.344 -9.75,0.458 -16.25,0.573 -5.379,3.321 -8.181,4.925 -13.56,7.902 -6.388,-0.343 -9.638,-0.458 -16.026,-1.03 -5.492,2.748 -8.293,4.008 -13.785,6.528 -6.388,-0.916 -9.526,-1.489 -15.801,-2.634 -5.604,2.176 -8.406,3.207 -14.009,5.154 -6.164,-1.489 -9.302,-2.406 -15.466,-4.123 -5.603,1.603 -8.405,2.29 -14.008,3.665 -6.052,-2.177 -9.078,-3.207 -15.13,-5.612 -5.603,1.03 -8.4047,1.488 -14.0081,2.29 -5.9397,-2.749 -8.8535,-4.123 -14.569,-7.101 -5.0431,0.458 -7.5086,0.573 -12.5518,0.802 -1.2327,-2.634 -1.9051,-4.009 -3.1379,-6.643 z"
             fill="#ffff8d"
             id="path1290" />
          <path
             d="m 60.9424,294.125 c 5.9396,-0.458 8.9655,-0.688 15.0172,-1.375 5.8276,2.749 8.7414,4.123 14.6811,6.643 5.4913,-0.916 8.181,-1.489 13.6723,-2.634 6.052,2.176 9.078,3.321 15.129,5.268 5.492,-1.489 8.181,-2.29 13.561,-4.008 6.164,1.603 9.301,2.405 15.465,3.779 5.38,-2.061 8.069,-3.092 13.561,-5.383 6.275,1.031 9.413,1.489 15.801,2.291 5.38,-2.634 7.957,-3.894 13.337,-6.643 6.387,0.458 9.637,0.573 16.025,0.802 5.268,-3.093 7.845,-4.696 13.112,-8.017 6.5,-0.229 9.638,-0.344 16.138,-0.802 5.043,-3.665 7.621,-5.498 12.664,-9.277 7.173,-1.031 10.759,-1.603 17.931,-2.978 -0.112,2.634 -0.112,3.894 -0.224,6.528 -5.94,1.146 -8.853,1.604 -14.793,2.52 -5.155,3.894 -7.733,5.841 -12.888,9.506 -6.5,0.573 -9.862,0.687 -16.362,0.916 -5.267,3.322 -7.957,5.04 -13.224,8.132 -6.5,-0.114 -9.75,-0.229 -16.25,-0.687 -5.379,2.863 -8.069,4.123 -13.448,6.757 -6.388,-0.801 -9.638,-1.26 -16.026,-2.29 -5.492,2.29 -8.181,3.321 -13.673,5.383 -6.276,-1.375 -9.414,-2.177 -15.689,-3.78 -5.492,1.718 -8.293,2.52 -13.785,4.009 -6.164,-1.947 -9.19,-2.978 -15.353,-5.269 -5.4917,1.146 -8.2934,1.718 -13.7848,2.634 -5.9396,-2.519 -8.9655,-3.894 -14.9052,-6.642 -4.931,0.572 -7.3965,0.801 -12.3275,1.145 -1.3449,-2.52 -2.0173,-3.894 -3.3621,-6.528 z"
             fill="#ffff8d"
             id="path1287" />
          <path
             d="m 59.2612,322.07 c 5.9397,-0.572 8.8535,-0.916 14.7931,-1.718 5.9397,2.635 8.9656,3.894 14.9052,6.299 5.3793,-1.145 8.069,-1.717 13.4485,-2.977 6.164,2.061 9.189,3.092 15.353,4.925 5.38,-1.604 7.957,-2.52 13.336,-4.353 6.276,1.489 9.414,2.176 15.69,3.436 5.267,-2.176 7.957,-3.321 13.224,-5.612 6.388,0.917 9.526,1.26 15.914,1.947 5.267,-2.634 7.845,-4.008 13,-6.872 6.5,0.344 9.638,0.344 16.138,0.459 5.155,-3.207 7.621,-4.811 12.776,-8.132 6.5,-0.344 9.75,-0.573 16.25,-1.145 4.931,-3.665 7.396,-5.612 12.327,-9.392 7.173,-1.145 10.871,-1.718 18.043,-3.207 0,2.52 0,3.894 0.113,6.414 -5.94,1.145 -8.854,1.718 -14.794,2.634 -5.043,3.894 -7.508,5.841 -12.551,9.621 -6.612,0.687 -9.862,0.916 -16.474,1.26 -5.156,3.435 -7.733,5.039 -12.888,8.36 -6.5,0 -9.862,-0.114 -16.362,-0.343 -5.268,2.863 -7.845,4.352 -13.225,6.986 -6.5,-0.573 -9.75,-1.031 -16.137,-1.832 -5.38,2.405 -8.069,3.55 -13.337,5.726 -6.388,-1.26 -9.526,-1.947 -15.913,-3.436 -5.38,1.833 -8.069,2.749 -13.449,4.352 -6.276,-1.832 -9.301,-2.748 -15.577,-4.81 -5.3796,1.374 -8.1814,1.947 -13.5607,3.092 -6.0517,-2.405 -9.0776,-3.665 -15.1293,-6.299 -4.931,0.687 -7.2845,1.031 -12.2155,1.489 -1.4569,-2.863 -2.2414,-4.238 -3.6983,-6.872 z"
             fill="#ffff8d"
             id="path1284" />
          <path
             d="m 105.882,198.148 c 0,0 6.052,22.791 52.785,28.518 46.844,5.612 47.293,-24.51 36.982,-41.46 -10.31,-16.951 -81.474,-12.828 -89.095,-4.696 -7.6203,8.132 -0.672,17.638 -0.672,17.638 z"
             fill="#ffffff"
             id="path1281" />
        </g>
        <path
           style="color:#000000;fill:#544d4d;stroke-linecap:round;stroke-linejoin:round;stroke-miterlimit:10;-inkscape-stroke:none"
           d="m 59.419922,291.14648 a 1.5,1.5 0 0 0 -1.3125,1.66602 l 5.042969,42.49219 a 1.5,1.5 0 0 0 1.666015,1.3125 1.5,1.5 0 0 0 1.3125,-1.66602 l -5.042969,-42.49219 a 1.5,1.5 0 0 0 -1.666015,-1.3125 z"
           id="path1278" />
        <path
           style="color:#000000;fill:#544d4d;stroke-linecap:round;stroke-linejoin:round;stroke-miterlimit:10;-inkscape-stroke:none"
           d="m 260.87305,276.8125 a 1.5,1.5 0 0 0 -1.95118,0.83203 c 0,0 -3.52192,8.58931 -2.45117,17.46094 1.02827,8.52913 3.88811,20.38933 -0.20312,39.71094 a 1.5,1.5 0 0 0 1.15625,1.77734 1.5,1.5 0 0 0 1.77929,-1.15625 c 4.20277,-19.84835 1.23383,-32.49855 0.2461,-40.69141 -0.94725,-7.84835 2.25586,-15.98242 2.25586,-15.98242 a 1.5,1.5 0 0 0 -0.83203,-1.95117 z"
           id="path1275" />
        <path
           d="m 90.5283,186.466 c 2.1293,-0.687 5.8276,0 6.9483,1.947 4.3704,7.33 14.9054,28.747 19.2754,71.238 3.475,33.214 -1.793,92.999 -1.793,92.999 L 6.25244,347.382 c 0,0 3.25,-56.464 12.77586,-94.374 9.3017,-36.764 33.7328,-53.257 71.5,-66.542 z"
           fill="#755b7a"
           id="path1272" />
        <path
           d="m 203.27,193.452 c 0,0 34.629,66.542 24.543,155.418 h 74.862 c 0,0 -0.449,-60.357 -17.259,-98.611 -16.81,-38.253 -75.646,-59.67 -75.646,-59.67 0,0 -3.699,1.832 -6.5,2.863 z"
           fill="#755b7a"
           id="path1269" />
        <path
           d="m 203.27,193.452 -2.69,-0.802 c 0,0 3.922,-1.947 5.604,-3.092 l 1.008,-0.573 c 0,0 5.379,2.52 7.285,3.436 1.905,0.917 -6.612,5.154 -6.612,5.154 0,0 -4.259,-4.008 -4.595,-4.123 z"
           fill="#7e5d6d"
           id="path1266" />
        <path
           d="m 115.52,248.999 c 0,0 -3.811,-11.109 -12.44,-20.959 -7.9568,-9.162 -22.5258,-23.364 -23.5344,-26.571 -1.9052,-6.528 9.9741,-31.152 28.5774,-39.742 0,0.114 0,0.229 0,0.344 0,0.114 0,0.229 0,0.458 0,0.229 0,0.458 0.112,0.687 0,0.343 0.112,0.687 0.112,1.031 0,0.229 0,0.343 0.112,0.572 0.785,6.872 1.457,14.546 2.018,22.677 v 0.115 c 0,0 -5.156,1.718 -1.457,27.945 1.008,6.3 4.819,17.524 6.5,33.443 z"
           fill="#4b3c4f"
           id="path1263" />
        <path
           d="m 222.882,252.55 c 0,0 -7.509,-29.778 -11.207,-39.284 -3.699,-9.392 -10.647,-20.043 -10.983,-20.616 4.371,-2.061 8.293,-4.695 11.767,-7.788 3.474,-3.092 6.276,-6.184 8.629,-9.277 2.802,3.207 19.5,22.448 21.294,32.985 2.017,11.682 -12.552,16.722 -19.5,43.98 z"
           fill="#4b3c4f"
           id="path1260" />
        <path
           d="m 175.459,111.253 c 0,0.096 0,0.192 0,0.192 l -0.102,2.691 c -0.103,2.307 -2.145,4.038 -4.597,3.942 -2.451,-0.097 -4.29,-2.115 -4.085,-4.326 l 0.102,-2.691 c 0,-0.481 0.204,-1.058 0.408,-1.442 l 8.172,0.384 c 0,0.385 0.102,0.769 0.102,1.25 z"
           fill="#423232"
           id="path1257" />
        <path
           d="m 218.152,113.367 -0.102,2.5 c -0.102,2.114 -2.043,3.749 -4.29,3.652 -2.247,-0.096 -3.983,-1.922 -3.881,-4.037 l 0.102,-2.499 c 0,-0.481 0.102,-0.961 0.306,-1.346 l 7.661,0.289 c 0.204,0.48 0.204,0.961 0.204,1.441 z"
           fill="#423232"
           id="path1254" />
        <path
           d="m 185.672,98.0837 c 2.247,0.2883 3.983,-1.9225 3.166,-4.0372 -0.408,-1.1535 -1.123,-2.2109 -2.247,-2.8838 -3.473,-2.0186 -16.444,-2.2108 -23.288,2.4031 -6.026,4.2295 12.155,3.1721 22.369,4.5179 z"
           fill="#423232"
           id="path1251" />
        <path
           d="m 213.964,99.1411 c -1.838,0 -2.962,-2.2109 -2.042,-4.0372 0.51,-0.9613 1.225,-1.8264 2.247,-2.307 3.166,-1.4419 11.644,-0.5767 15.423,4.3256 3.37,4.3255 -7.15,1.9224 -15.628,2.0186 z"
           fill="#423232"
           id="path1248" />
        <path
           style="color:#000000;fill:#423232;stroke-linecap:round;stroke-linejoin:round;stroke-miterlimit:10;-inkscape-stroke:none"
           d="m 165.32227,108.02344 a 1.5,1.5 0 0 0 -1.57618,1.41992 1.5,1.5 0 0 0 1.41797,1.57617 l 1.83985,0.0977 a 1.50015,1.50015 0 0 0 0.0254,0 l 8.16601,0.28906 6.83789,0.28711 a 1.5,1.5 0 0 0 1.5625,-1.43555 1.5,1.5 0 0 0 -1.43554,-1.56054 l -6.84375,-0.28907 a 1.50015,1.50015 0 0 0 -0.01,0 l -8.1582,-0.28711 z"
           id="path1245" />
        <path
           style="color:#000000;fill:#423232;stroke-linecap:round;stroke-linejoin:round;stroke-miterlimit:10;-inkscape-stroke:none"
           d="m 209.98047,110.13672 a 1.5,1.5 0 0 0 -1.5,1.5 1.5,1.5 0 0 0 1.5,1.5 h 0.2793 l 7.6289,0.28711 4.49024,0.19336 a 1.5,1.5 0 0 0 1.5625,-1.43555 1.5,1.5 0 0 0 -1.43555,-1.5625 l -4.49414,-0.19141 a 1.50015,1.50015 0 0 0 -0.008,0 l -7.66016,-0.28906 a 1.50015,1.50015 0 0 0 -0.0566,-0.002 z"
           id="path1242" />
        <path
           style="color:#000000;fill:#423232;stroke-linecap:round;stroke-linejoin:round;stroke-miterlimit:10;-inkscape-stroke:none"
           d="m 180.14453,156.50781 a 1.5,1.5 0 0 0 -1.09961,0.33399 1.5,1.5 0 0 0 -0.20312,2.11328 c 2.58416,3.13399 6.48851,5.58972 10.58007,6.88672 4.09157,1.297 8.45537,1.46957 11.84571,-0.55274 a 1.5,1.5 0 0 0 0.52148,-2.05664 1.5,1.5 0 0 0 -2.05664,-0.52148 c -2.30965,1.37769 -5.84587,1.39948 -9.4043,0.27148 -3.55842,-1.128 -7.05409,-3.37149 -9.16992,-5.9375 a 1.5,1.5 0 0 0 -1.01367,-0.53711 z"
           id="path1239" />
        <path
           d="m 243.39,54.305 c -7.923,26.992 -30.913,22.4758 -52.452,15.1239 -28.681,-9.8726 -53.902,-1.8905 -54.014,22.4759 -0.223,35.7092 -9.709,24.8912 -10.714,23.5262 -2.455,-4.411 -7.7,-9.873 -17.632,-8.717 -13.0576,1.575 -18.1912,28.672 6.138,39.805 4.24,20.27 -7.366,18.38 -7.366,18.38 -3.906,-14.914 -36.7164,-46.632 -36.828,-67.5328 0,-28.1473 15.066,-36.1294 15.066,-36.1294 0.4464,-19.6401 22.208,-41.2758 58.813,-40.5406 36.605,0.6302 59.037,-0.3151 66.179,-8.4022 7.142,-8.29712 40.734,15.0189 32.81,42.011 z"
           fill="#423232"
           id="path1236" />
        <path
           d="m 244.284,86.7584 c -1.116,6.8268 -4.241,12.0782 -8.594,15.9646 1.674,-11.4484 0.782,-16.9098 -0.669,-23.3165 C 231.896,66.2781 225.2,54.9352 214.04,46.533 c 5.58,-0.4201 11.272,0.7352 16.405,3.781 0,-0.1051 18.414,6.9318 13.839,36.4444 z"
           fill="#423232"
           id="path1233" />
      </g>
    </g>
  </g>
</svg>
