<?xml version="1.0" encoding="UTF-8" standalone="no"?>
<!-- Created with Inkscape (http://www.inkscape.org/) -->

<svg
   width="79.375mm"
   height="79.375mm"
   viewBox="0 0 79.375 79.375"
   version="1.1"
   id="svg5"
   sodipodi:docname="avatar-21.svg"
   inkscape:version="1.1.1 (3bf5ae0d25, 2021-09-20)"
   xmlns:inkscape="http://www.inkscape.org/namespaces/inkscape"
   xmlns:sodipodi="http://sodipodi.sourceforge.net/DTD/sodipodi-0.dtd"
   xmlns="http://www.w3.org/2000/svg"
   xmlns:svg="http://www.w3.org/2000/svg">
  <sodipodi:namedview
     id="namedview7"
     pagecolor="#ffffff"
     bordercolor="#999999"
     borderopacity="1"
     inkscape:pageshadow="0"
     inkscape:pageopacity="0"
     inkscape:pagecheckerboard="0"
     inkscape:document-units="mm"
     showgrid="false"
     inkscape:zoom="1.4467452"
     inkscape:cx="-24.537838"
     inkscape:cy="134.4397"
     inkscape:window-width="1920"
     inkscape:window-height="1001"
     inkscape:window-x="-9"
     inkscape:window-y="-9"
     inkscape:window-maximized="1"
     inkscape:current-layer="layer1" />
  <defs
     id="defs2">
    <clipPath
       id="clip0_421_1274">
      <rect
         width="300"
         height="300"
         fill="#ffffff"
         id="rect903"
         x="0"
         y="0" />
    </clipPath>
    <clipPath
       id="clip0_421_1274-3">
      <rect
         width="300"
         height="300"
         fill="#ffffff"
         id="rect1539"
         x="0"
         y="0" />
    </clipPath>
    <clipPath
       id="clip0_421_1274-35">
      <rect
         width="300"
         height="300"
         fill="#ffffff"
         id="rect1928"
         x="0"
         y="0" />
    </clipPath>
    <clipPath
       id="clip0_421_1274-8">
      <rect
         width="300"
         height="300"
         fill="#ffffff"
         id="rect2361"
         x="0"
         y="0" />
    </clipPath>
    <linearGradient
       id="paint0_linear_421_1274"
       x1="121.039"
       y1="222.77901"
       x2="121.039"
       y2="132.015"
       gradientUnits="userSpaceOnUse">
      <stop
         stop-color="#FF7300"
         id="stop2716" />
      <stop
         offset="0.1086"
         stop-color="#FF8D08"
         id="stop2718" />
      <stop
         offset="0.2899"
         stop-color="#FFB214"
         id="stop2720" />
      <stop
         offset="0.4716"
         stop-color="#FFCF1E"
         id="stop2722" />
      <stop
         offset="0.6514"
         stop-color="#FFE325"
         id="stop2724" />
      <stop
         offset="0.8286"
         stop-color="#FFF029"
         id="stop2726" />
      <stop
         offset="1"
         stop-color="#FFF42A"
         id="stop2728" />
    </linearGradient>
    <linearGradient
       id="paint1_linear_421_1274"
       x1="121.04"
       y1="129.14799"
       x2="121.04"
       y2="139.46899"
       gradientUnits="userSpaceOnUse">
      <stop
         stop-color="#FF7300"
         id="stop2731" />
      <stop
         offset="0.1086"
         stop-color="#FF8D08"
         id="stop2733" />
      <stop
         offset="0.2899"
         stop-color="#FFB214"
         id="stop2735" />
      <stop
         offset="0.4716"
         stop-color="#FFCF1E"
         id="stop2737" />
      <stop
         offset="0.6514"
         stop-color="#FFE325"
         id="stop2739" />
      <stop
         offset="0.8286"
         stop-color="#FFF029"
         id="stop2741" />
      <stop
         offset="1"
         stop-color="#FFF42A"
         id="stop2743" />
    </linearGradient>
    <linearGradient
       id="paint2_linear_421_1274"
       x1="226.423"
       y1="222.77901"
       x2="226.423"
       y2="132.015"
       gradientUnits="userSpaceOnUse">
      <stop
         stop-color="#FF7300"
         id="stop2746" />
      <stop
         offset="0.1086"
         stop-color="#FF8D08"
         id="stop2748" />
      <stop
         offset="0.2899"
         stop-color="#FFB214"
         id="stop2750" />
      <stop
         offset="0.4716"
         stop-color="#FFCF1E"
         id="stop2752" />
      <stop
         offset="0.6514"
         stop-color="#FFE325"
         id="stop2754" />
      <stop
         offset="0.8286"
         stop-color="#FFF029"
         id="stop2756" />
      <stop
         offset="1"
         stop-color="#FFF42A"
         id="stop2758" />
    </linearGradient>
    <clipPath
       id="clip0_421_1274-6">
      <rect
         width="300"
         height="300"
         fill="#ffffff"
         id="rect2761"
         x="0"
         y="0" />
    </clipPath>
    <clipPath
       id="clip0_421_1274-9">
      <rect
         width="300"
         height="300"
         fill="#ffffff"
         id="rect3154"
         x="0"
         y="0" />
    </clipPath>
    <clipPath
       id="clip0_421_1274-61">
      <rect
         width="300"
         height="300"
         fill="#ffffff"
         id="rect3560"
         x="0"
         y="0" />
    </clipPath>
    <linearGradient
       id="paint0_linear_421_1274-3"
       x1="118.039"
       y1="225.166"
       x2="118.039"
       y2="137.532"
       gradientUnits="userSpaceOnUse">
      <stop
         stop-color="#FF7300"
         id="stop4079" />
      <stop
         offset="0.1086"
         stop-color="#FF8D08"
         id="stop4081" />
      <stop
         offset="0.2899"
         stop-color="#FFB214"
         id="stop4083" />
      <stop
         offset="0.4716"
         stop-color="#FFCF1E"
         id="stop4085" />
      <stop
         offset="0.6514"
         stop-color="#FFE325"
         id="stop4087" />
      <stop
         offset="0.8286"
         stop-color="#FFF029"
         id="stop4089" />
      <stop
         offset="1"
         stop-color="#FFF42A"
         id="stop4091" />
    </linearGradient>
    <linearGradient
       id="paint1_linear_421_1274-7"
       x1="118.04"
       y1="134.76401"
       x2="118.04"
       y2="144.729"
       gradientUnits="userSpaceOnUse">
      <stop
         stop-color="#FF7300"
         id="stop4094" />
      <stop
         offset="0.1086"
         stop-color="#FF8D08"
         id="stop4096" />
      <stop
         offset="0.2899"
         stop-color="#FFB214"
         id="stop4098" />
      <stop
         offset="0.4716"
         stop-color="#FFCF1E"
         id="stop4100" />
      <stop
         offset="0.6514"
         stop-color="#FFE325"
         id="stop4102" />
      <stop
         offset="0.8286"
         stop-color="#FFF029"
         id="stop4104" />
      <stop
         offset="1"
         stop-color="#FFF42A"
         id="stop4106" />
    </linearGradient>
    <linearGradient
       id="paint2_linear_421_1274-8"
       x1="223.423"
       y1="225.166"
       x2="223.423"
       y2="137.532"
       gradientUnits="userSpaceOnUse">
      <stop
         stop-color="#FF7300"
         id="stop4109" />
      <stop
         offset="0.1086"
         stop-color="#FF8D08"
         id="stop4111" />
      <stop
         offset="0.2899"
         stop-color="#FFB214"
         id="stop4113" />
      <stop
         offset="0.4716"
         stop-color="#FFCF1E"
         id="stop4115" />
      <stop
         offset="0.6514"
         stop-color="#FFE325"
         id="stop4117" />
      <stop
         offset="0.8286"
         stop-color="#FFF029"
         id="stop4119" />
      <stop
         offset="1"
         stop-color="#FFF42A"
         id="stop4121" />
    </linearGradient>
    <clipPath
       id="clip0_421_1274-4">
      <rect
         width="300"
         height="300"
         fill="#ffffff"
         id="rect4124"
         x="0"
         y="0" />
    </clipPath>
    <clipPath
       id="clip0_421_1274-2">
      <rect
         width="300"
         height="300"
         fill="#ffffff"
         id="rect4458"
         x="0"
         y="0" />
    </clipPath>
    <clipPath
       id="clip0_421_1274-1">
      <rect
         width="300"
         height="300"
         fill="#ffffff"
         id="rect4979"
         x="0"
         y="0" />
    </clipPath>
    <clipPath
       id="clip0_421_1274-24">
      <rect
         width="300"
         height="300"
         fill="#ffffff"
         id="rect5434"
         x="0"
         y="0" />
    </clipPath>
    <clipPath
       id="clip0_421_1274-46">
      <rect
         width="300"
         height="300"
         fill="#ffffff"
         id="rect5850"
         x="0"
         y="0" />
    </clipPath>
    <clipPath
       id="clip0_421_1274-5">
      <rect
         width="300"
         height="300"
         fill="#ffffff"
         id="rect6329"
         x="0"
         y="0" />
    </clipPath>
    <clipPath
       id="clip0_421_1274-38">
      <rect
         width="300"
         height="300"
         fill="#ffffff"
         id="rect6804"
         x="0"
         y="0" />
    </clipPath>
    <clipPath
       id="clip0_421_1274-44">
      <rect
         width="300"
         height="300"
         fill="#ffffff"
         id="rect7152"
         x="0"
         y="0" />
    </clipPath>
    <clipPath
       id="clip0_421_1274-94">
      <rect
         width="300"
         height="300"
         fill="#ffffff"
         id="rect7595"
         x="0"
         y="0" />
    </clipPath>
    <clipPath
       id="clip0_421_1274-10">
      <rect
         width="300"
         height="300"
         fill="#ffffff"
         id="rect8065"
         x="0"
         y="0" />
    </clipPath>
    <clipPath
       id="clip0_421_1274-87">
      <rect
         width="300"
         height="300"
         fill="#ffffff"
         id="rect8554"
         x="0"
         y="0" />
    </clipPath>
    <clipPath
       id="clip0_421_1274-19">
      <rect
         width="300"
         height="300"
         fill="#ffffff"
         id="rect9033"
         x="0"
         y="0" />
    </clipPath>
    <clipPath
       id="clip0_421_1274-49">
      <rect
         width="300"
         height="300"
         fill="#ffffff"
         id="rect9515"
         x="0"
         y="0" />
    </clipPath>
    <clipPath
       id="clip0_421_1274-69">
      <rect
         width="300"
         height="300"
         fill="#ffffff"
         id="rect10033"
         x="0"
         y="0" />
    </clipPath>
  </defs>
  <g
     inkscape:label="Layer 1"
     inkscape:groupmode="layer"
     id="layer1"
     transform="translate(-277.57144,-61.770943)">
    <g
       style="fill:none"
       id="g10085"
       transform="matrix(0.26458333,0,0,0.26458333,277.57144,61.770943)">
      <g
         clip-path="url(#clip0_421_1274-69)"
         id="g10031">
        <path
           id="rect9952"
           style="fill:#f7c0b5;fill-opacity:0.968627"
           d="M 0,0 H 300 V 300 H 0 Z" />
        <path
           d="m 251.148,257.099 c -0.775,0.553 -1.66,1.107 -2.434,1.66 -0.885,0.553 -1.66,1.106 -2.545,1.549 -0.775,0.443 -1.439,0.885 -2.213,1.328 -0.111,0.11 -0.221,0.11 -0.332,0.221 -2.545,1.549 -5.2,2.987 -7.856,4.315 -0.774,0.443 -1.66,0.885 -2.434,1.217 0,0 -0.111,0.111 -0.221,0.111 -0.886,0.443 -1.771,0.885 -2.656,1.328 -1.77,0.885 -3.651,1.659 -5.422,2.434 -0.885,0.443 -1.881,0.774 -2.766,1.106 -0.885,0.332 -1.881,0.775 -2.766,1.107 -0.885,0.332 -1.881,0.774 -2.766,1.106 0,0 0,0 -0.111,0 -0.885,0.332 -1.881,0.664 -2.766,0.996 -1.992,0.664 -4.094,1.328 -6.086,1.992 -0.663,0.221 -1.438,0.442 -2.102,0.664 -2.102,0.664 -4.204,1.217 -6.307,1.659 -0.774,0.222 -1.549,0.332 -2.434,0.554 -1.992,0.442 -4.094,0.885 -6.085,1.327 -0.443,0.111 -0.775,0.111 -1.218,0.222 -0.663,0.11 -1.438,0.221 -2.102,0.332 -0.996,0.11 -1.881,0.332 -2.877,0.442 -0.442,0.111 -0.885,0.111 -1.327,0.222 -0.554,0.11 -1.218,0.221 -1.881,0.221 -1.771,0.221 -3.652,0.442 -5.422,0.664 -0.553,0.11 -1.217,0.11 -1.77,0.221 h -0.111 c -0.775,0.111 -1.549,0.111 -2.324,0.221 -0.774,0.111 -1.549,0.111 -2.323,0.111 -0.443,0 -0.996,0.111 -1.439,0.111 -0.885,0 -1.659,0.11 -2.434,0.11 -1.106,0 -2.102,0.111 -3.209,0.111 -1.106,0 -2.102,0 -3.208,0 -0.775,0 -1.55,0 -2.324,0 -46.582,-0.664 -88.6281,-20.47 -118.5027,-51.893 0,0 0,-0.111 -0.1106,-0.111 3.43,-6.75 16.1544,-18.921 29.432,-28.99 16.8183,-12.724 40.6073,-20.58 40.6073,-20.58 0,0 15.601,-2.545 73.469,9.516 44.149,9.294 62.958,47.025 69.376,64.396 z"
           fill="#f5d4b8"
           id="path9954" />
        <path
           d="m 194.054,223.352 c -2.324,11.397 -17.371,18.146 -42.71,7.966 -31.091,-12.613 -43.041,-48.131 -43.041,-48.131 -1.66,-25.449 -5.532,-47.246 -5.532,-47.246 35.96,-3.098 78.448,38.948 78.448,38.948 l 4.869,20.801 c 0.442,1.771 1.327,3.32 2.655,4.426 2.324,3.983 6.86,15.933 5.311,23.236 z"
           fill="#f5d4b8"
           id="path9956" />
        <path
           d="m 188.743,200.227 c -21.133,-1.107 -36.735,-4.205 -53.442,-34.19 14.163,12.503 30.87,17.261 48.463,19.474 l 2.324,10.179 c 0.442,1.881 1.327,3.43 2.655,4.537 z"
           fill="#efbda5"
           id="path9958" />
        <path
           d="m 232.449,66.8974 c 1.991,9.2944 2.987,16.8183 -2.435,41.6036 -5.421,24.784 4.979,49.569 -21.133,72.252 -17.593,15.269 -48.353,18.146 -72.916,1.438 -8.299,-5.643 -15.934,-13.499 -22.13,-23.789 C 108.967,150.325 103.324,142.69 97.0169,135.72 88.2758,126.204 77.7644,107.062 82.9648,73.2043 91.3739,18.1022 145.923,11.7954 178.121,17.8809 c 32.198,6.0856 48.906,24.453 54.328,49.0165 z"
           fill="#f5d4b8"
           id="path9960" />
        <path
           d="m 126.56,110.16 c 0,0 -3.43,-16.5967 -19.585,-14.6051 -13.9411,1.7704 -18.8096,35.1861 12.835,44.4801"
           fill="#f5d4b8"
           id="path9962" />
        <path
           style="color:#000000;fill:#423232;stroke-linecap:round;stroke-linejoin:round;stroke-miterlimit:10;-inkscape-stroke:none"
           d="m 110.88672,106.47656 c -0.79876,-0.0615 -1.54581,0.026 -2.22266,0.25 -1.3537,0.44791 -2.33004,1.3892 -2.98047,2.36914 -0.65042,0.97995 -1.01635,2.01625 -1.22656,2.90039 -0.1051,0.44208 -0.16984,0.84509 -0.20117,1.20313 -0.0313,0.35804 -0.0757,0.59147 0.0488,1.08789 a 1.5,1.5 0 0 0 1.81836,1.08984 1.5,1.5 0 0 0 1.09179,-1.82031 c 0.069,0.27517 0.0128,0.093 0.0293,-0.0957 0.0165,-0.18866 0.058,-0.46307 0.13086,-0.76953 0.14573,-0.61292 0.42177,-1.3547 0.80859,-1.9375 0.38683,-0.5828 0.84265,-0.98804 1.42188,-1.17969 0.57923,-0.19166 1.37958,-0.22332 2.65625,0.31055 a 1.50015,1.50015 0 0 0 0.01,0.004 c 0.73841,0.30186 1.17666,0.8189 1.49024,2.09571 0.31358,1.2768 0.34257,3.23267 0.0234,5.73242 a 1.50015,1.50015 0 0 0 -0.004,0.041 c -0.53623,5.3684 4.22656,8.38281 4.22656,8.38282 a 1.5,1.5 0 0 0 2.07032,-0.45704 1.5,1.5 0 0 0 -0.45508,-2.07226 c 0,0 -3.20519,-2.07505 -2.85742,-5.55664 0.33949,-2.68138 0.36852,-4.92077 -0.0898,-6.78711 -0.46068,-1.87573 -1.57151,-3.45864 -3.26562,-4.15235 -0.88024,-0.36719 -1.72715,-0.57737 -2.52344,-0.63867 z"
           id="path9964" />
        <path
           d="m 203.238,135.609 c 0,0 4.205,0.221 8.188,-4.536 2.213,-2.656 4.094,-5.975 2.877,-6.971 -1.217,-1.107 -21.244,1.991 -22.572,4.647 -1.328,2.655 6.417,6.86 11.507,6.86 z"
           fill="#efbda5"
           id="path9966" />
        <path
           style="color:#000000;fill:#423232;stroke-linecap:round;stroke-linejoin:round;stroke-miterlimit:10;-inkscape-stroke:none"
           d="m 206.52734,96.931641 a 1.5,1.5 0 0 0 -1.46875,1.53125 c 0,0 0.23478,10.904529 7.16993,22.957029 h -0.002 c 1.15429,2.0088 0.91411,4.81516 -0.82812,7.4043 -1.74224,2.58913 -4.94547,4.85893 -9.48242,5.52148 a 1.5,1.5 0 0 0 -1.26758,1.70117 1.5,1.5 0 0 0 1.70117,1.26758 c 5.31004,-0.77545 9.2961,-3.48409 11.53711,-6.81445 2.24101,-3.33036 2.77512,-7.38497 0.9414,-10.57617 -6.56283,-11.40548 -6.76953,-21.523439 -6.76953,-21.523439 a 1.5,1.5 0 0 0 -1.53125,-1.46875 z"
           id="path9968" />
        <path
           opacity="0.42"
           d="m 146.587,141.252 c 6.294,0 11.397,-4.211 11.397,-9.405 0,-5.194 -5.103,-9.405 -11.397,-9.405 -6.294,0 -11.397,4.211 -11.397,9.405 0,5.194 5.103,9.405 11.397,9.405 z"
           fill="#ed938a"
           id="path9970" />
        <path
           opacity="0.42"
           d="m 228.244,122.663 c -0.332,6.197 -0.221,12.282 -0.664,18.368 -4.868,-1.107 -8.409,-4.758 -8.409,-9.073 0,-4.647 3.873,-8.409 9.073,-9.295 z"
           fill="#ed938a"
           id="path9972" />
        <path
           d="m 189.721,191.1 c 0,0 -15,4.4 -35.8,-2.4 -20.8,-6.8 -41.1,-24.7 -41.1,-24.7 0,0 -6.6,0.1 -9.1,5.1 -2.4,5 -2.3,15.3 -6.1005,18.1 -0.9,0.6 -3.4,1.3 -7.1,2.3 -6,1.7 -14.9,4.3 -23.9,9.4 -6.7,3.8 -13.5,8.9 -19.2,15.9 -2.6,3.2 -4.9,6.8 -6.9,10.9 -15.8,32.1 -9,77.1 -9,77.1 H 275.921 c 0,0 -7.1,-55.6 -22.4,-73.9 -15.3,-18.3 -44.5,-33.1 -53.1,-37 v -5.8 c 0.1,0 -5.2,3.5 -10.7,5 z"
           fill="#48d89e"
           id="path9974" />
        <mask
           id="mask0_421_1274"
           maskUnits="userSpaceOnUse"
           x="30"
           y="164"
           width="246"
           height="139">
          <path
             d="m 189.721,191.1 c 0,0 -15,4.4 -35.8,-2.4 -20.8,-6.8 -41.1,-24.7 -41.1,-24.7 0,0 -6.6,0.1 -9.1,5.1 -2.4,5 -2.3,15.3 -6.1005,18.1 -0.9,0.6 -3.4,1.3 -7.1,2.3 -6,1.7 -14.9,4.3 -23.9,9.4 -6.7,3.8 -13.5,8.9 -19.2,15.9 -2.6,3.2 -4.9,6.8 -6.9,10.9 -15.8,32.1 -9,77.1 -9,77.1 H 275.921 c 0,0 -7.1,-55.6 -22.4,-73.9 -15.3,-18.3 -44.5,-33.1 -53.1,-37 v -5.8 c 0.1,0 -5.2,3.5 -10.7,5 z"
             fill="#48d89e"
             id="path9976" />
        </mask>
        <g
           mask="url(#mask0_421_1274)"
           id="g9993">
          <path
             d="m 70.9203,229.3 c 5.8542,0 10.6,-4.746 10.6,-10.6 0,-5.854 -4.7458,-10.6 -10.6,-10.6 -5.8542,0 -10.6,4.746 -10.6,10.6 0,5.854 4.7458,10.6 10.6,10.6 z"
             fill="#fced7e"
             id="path9979" />
          <path
             d="m 131.22,224.4 c 5.854,0 10.6,-4.746 10.6,-10.6 0,-5.854 -4.746,-10.6 -10.6,-10.6 -5.854,0 -10.6,4.746 -10.6,10.6 0,5.854 4.746,10.6 10.6,10.6 z"
             fill="#fced7e"
             id="path9981" />
          <path
             d="m 176.821,201.9 c 5.854,0 10.6,-4.746 10.6,-10.6 0,-5.854 -4.746,-10.6 -10.6,-10.6 -5.855,0 -10.6,4.746 -10.6,10.6 0,5.854 4.745,10.6 10.6,10.6 z"
             fill="#fced7e"
             id="path9983" />
          <path
             d="m 112.42,276.3 c 5.855,0 10.6,-4.746 10.6,-10.6 0,-5.854 -4.745,-10.6 -10.6,-10.6 -5.854,0 -10.6,4.746 -10.6,10.6 0,5.854 4.746,10.6 10.6,10.6 z"
             fill="#fced7e"
             id="path9985" />
          <path
             d="m 235.821,270.9 c 5.854,0 10.6,-4.746 10.6,-10.6 0,-5.854 -4.746,-10.6 -10.6,-10.6 -5.855,0 -10.6,4.746 -10.6,10.6 0,5.854 4.745,10.6 10.6,10.6 z"
             fill="#fced7e"
             id="path9987" />
          <path
             d="m 177.42,262.3 c 5.855,0 10.6,-4.746 10.6,-10.6 0,-5.854 -4.745,-10.6 -10.6,-10.6 -5.854,0 -10.6,4.746 -10.6,10.6 0,5.854 4.746,10.6 10.6,10.6 z"
             fill="#fced7e"
             id="path9989" />
          <path
             d="m 227.621,219.3 c 5.854,0 10.6,-4.746 10.6,-10.6 0,-5.854 -4.746,-10.6 -10.6,-10.6 -5.855,0 -10.6,4.746 -10.6,10.6 0,5.854 4.745,10.6 10.6,10.6 z"
             fill="#fced7e"
             id="path9991" />
        </g>
        <path
           style="color:#000000;fill:#329369;stroke-linecap:round;stroke-linejoin:round;stroke-miterlimit:10;-inkscape-stroke:none"
           d="m 101.68555,188.21875 a 1.5,1.5 0 0 0 -1.24805,1.71484 c 0.13919,0.88155 0.48999,1.23433 0.95703,1.84766 0.46704,0.61333 1.09912,1.32536 1.91602,2.14062 1.63379,1.63053 4.00044,3.66615 7.13281,5.91993 6.26475,4.50756 15.58453,9.87092 28.06836,14.36914 15.80245,5.69091 30.26656,6.11364 41.31445,4.01172 5.52395,-1.05096 10.19578,-2.7292 13.78516,-4.73243 3.58661,-2.00168 6.13531,-4.29157 7.27734,-6.8789 1.32725,-2.94703 1.53295,-6.60571 1.49414,-9.59375 -0.0388,-2.98991 -0.3789,-5.33203 -0.3789,-5.33203 a 1.5,1.5 0 0 0 -1.69922,-1.26953 1.5,1.5 0 0 0 -1.26953,1.69921 c 0,0 0.31148,2.15632 0.34765,4.94141 0.0362,2.78509 -0.25995,6.17416 -1.23047,8.32617 a 1.50015,1.50015 0 0 0 -0.006,0.0117 c -0.70926,1.61022 -2.75618,3.66729 -5.99804,5.47656 -3.24186,1.80928 -7.63372,3.40722 -12.88477,4.40625 -10.50166,1.998 -24.43758,1.61977 -39.73437,-3.88867 h -0.002 c -12.21524,-4.40163 -21.29708,-9.63825 -27.33203,-13.98047 -3.01762,-2.17121 -5.27442,-4.1231 -6.76562,-5.61133 -0.74561,-0.74411 -1.29986,-1.37426 -1.64844,-1.83203 -0.34858,-0.45776 -0.4431,-0.90459 -0.37891,-0.49804 a 1.5,1.5 0 0 0 -1.71679,-1.24805 z"
           id="path9995" />
        <path
           style="color:#000000;fill:#329369;stroke-linecap:round;stroke-linejoin:round;stroke-miterlimit:10;-inkscape-stroke:none"
           d="m 120.48438,172.70703 a 1.5,1.5 0 0 0 -1.01758,0.5332 c -0.60495,0.72594 -1.18105,1.65867 -1.63867,2.80274 -0.81754,1.99206 -1.2403,4.64695 -1.52149,6.89648 -0.28176,2.25413 -0.38476,4.07618 -0.38476,4.07617 a 1.5,1.5 0 0 0 1.41406,1.58204 1.5,1.5 0 0 0 1.58203,-1.41407 c 0,0 0.097,-1.72717 0.36523,-3.87304 0.26824,-2.14588 0.74504,-4.73208 1.32422,-6.13868 a 1.50015,1.50015 0 0 0 0.006,-0.0156 c 0.34237,-0.85593 0.76315,-1.52203 1.1582,-1.99609 a 1.5,1.5 0 0 0 -0.1914,-2.11329 1.5,1.5 0 0 0 -1.0957,-0.33984 z"
           id="path9997" />
        <path
           style="color:#000000;fill:#329369;stroke-linecap:round;stroke-linejoin:round;stroke-miterlimit:10;-inkscape-stroke:none"
           d="m 138.19141,183.1582 a 1.5,1.5 0 0 0 -2.01368,0.67188 c -0.42236,0.84472 -0.88742,1.86874 -1.1289,3.07617 a 1.50015,1.50015 0 0 0 -0.002,0.01 c -0.56842,2.95581 -1.12304,10.9746 -1.12304,10.9746 a 1.5,1.5 0 0 0 1.38672,1.60547 1.5,1.5 0 0 0 1.60547,-1.38672 c 0,0 0.64265,-8.35995 1.07421,-10.61523 1.6e-4,-8e-4 0.002,-0.001 0.002,-0.002 0.15871,-0.79173 0.49188,-1.56776 0.86914,-2.32227 a 1.5,1.5 0 0 0 -0.66992,-2.01172 z"
           id="path9999" />
        <path
           style="color:#000000;fill:#329369;stroke-linecap:round;stroke-linejoin:round;stroke-miterlimit:10;-inkscape-stroke:none"
           d="m 154.88477,190.04492 a 1.5,1.5 0 0 0 -1.81836,1.0918 c -0.21117,0.84466 -0.42366,1.91995 -0.53321,3.1914 -0.0787,0.57293 -0.0926,1.28898 -0.11133,2.28125 -0.0191,1.01012 -0.0254,2.20981 -0.0254,3.36524 0,2.31087 0.0254,4.44336 0.0254,4.44336 a 1.5,1.5 0 0 0 1.51758,1.48242 1.5,1.5 0 0 0 1.48047,-1.51758 c 0,0 -0.0234,-2.11907 -0.0234,-4.4082 0,-1.14456 0.005,-2.33121 0.0234,-3.30859 0.0184,-0.97739 0.0685,-1.83082 0.0859,-1.95313 a 1.50015,1.50015 0 0 0 0.01,-0.0879 c 0.092,-1.10378 0.27521,-2.01879 0.46094,-2.76172 a 1.5,1.5 0 0 0 -1.09179,-1.81836 z"
           id="path10001" />
        <path
           style="color:#000000;fill:#329369;stroke-linecap:round;stroke-linejoin:round;stroke-miterlimit:10;-inkscape-stroke:none"
           d="m 172.5918,194.00586 a 1.5,1.5 0 0 0 -1.36524,1.625 c 0.19334,2.22336 0.29128,5.34228 -0.002,9.1543 a 1.5,1.5 0 0 0 1.38086,1.61132 1.5,1.5 0 0 0 1.61133,-1.38086 c 0.30676,-3.98797 0.20471,-7.26985 -0.002,-9.64648 a 1.5,1.5 0 0 0 -1.62304,-1.36328 z"
           id="path10003" />
        <path
           style="color:#000000;fill:#329369;stroke-linecap:round;stroke-linejoin:round;stroke-miterlimit:10;-inkscape-stroke:none"
           d="m 187.78711,193.21875 a 1.5,1.5 0 0 0 -1.24805,1.71484 c 0.29115,1.84394 0.58562,4.37828 0.6836,7.61133 a 1.5,1.5 0 0 0 1.54296,1.45508 1.5,1.5 0 0 0 1.45508,-1.54492 c -0.10203,-3.36694 -0.4099,-6.03222 -0.71875,-7.98828 a 1.5,1.5 0 0 0 -1.71484,-1.24805 z"
           id="path10005" />
        <path
           style="color:#000000;fill:#329369;stroke-linecap:round;stroke-linejoin:round;stroke-miterlimit:10;-inkscape-stroke:none"
           d="m 109.19336,162.99609 c -2.81044,1.05392 -6.48657,4.06975 -7.75195,11.45118 a 1.5,1.5 0 0 0 1.22461,1.73046 1.5,1.5 0 0 0 1.73242,-1.22461 c 1.13461,-6.61856 3.8581,-8.40235 5.84765,-9.14843 a 1.5,1.5 0 0 0 0.87891,-1.93164 1.5,1.5 0 0 0 -1.93164,-0.87696 z"
           id="path10007" />
        <path
           style="color:#000000;fill:#329369;stroke-linecap:round;stroke-linejoin:round;stroke-miterlimit:10;-inkscape-stroke:none"
           d="m 200.52148,184.59961 a 1.5,1.5 0 0 0 -1.5,1.5 v 5.80078 a 1.50015,1.50015 0 0 0 0.89454,1.37305 c 2.45337,1.07948 6.62399,3.06398 11.68359,5.84179 a 1.5,1.5 0 0 0 2.03711,-0.59375 1.5,1.5 0 0 0 -0.59375,-2.03711 c -4.75387,-2.60996 -8.43618,-4.3495 -11.02149,-5.50976 v -4.875 a 1.5,1.5 0 0 0 -1.5,-1.5 z"
           id="path10009" />
        <path
           d="m 188.427,190.686 c 8.176,-2.128 15.456,-5.824 21.392,-10.976 26.432,-22.848 15.904,-48.048 21.392,-73.136 1.792,-8.0637 2.8,-14.3357 3.472,-19.3757 -0.896,-0.112 -1.904,-0.224 -2.912,-0.448 -4.032,-0.56 -6.72,-4.256 -6.272,-8.288 0.224,-1.68 0.336,-3.36 0.448,-5.152 -0.448,-0.112 -0.336,-0.112 -0.784,-0.112 -0.672,2.128 -1.456,4.368 -2.016,6.496 -1.008,3.36 -4.256,5.488 -7.616,5.264 h -0.112 c -3.92,-0.336 -6.832,-3.584 -6.832,-7.504 0.112,-2.8 0.112,-5.6 0.224,-8.4 -0.448,-0.112 -0.224,0 -0.672,-0.112 -0.56,2.912 -1.12,5.824 -1.68,8.848 -0.672,3.696 -3.92,6.272 -7.616,6.048 -9.632,-0.448 -19.152,-0.56 -27.776,-0.56 -3.808,0 -6.944,-2.8 -7.28,-6.608 -0.56,-4.928 -1.344,-9.856 -2.688,-14.896 -1.456,4.48 -1.456,9.184 -1.232,14 0.224,4.144 -3.024,7.616 -7.168,7.728 -9.968,0.224 -16.688,0.56 -17.808,0.672 0.336,15.344 -3.136,32.3677 -9.296,20.8317 -0.448,-0.784 -0.784,-1.568 -1.232,-2.576 -2.576,-4.5917 -7.728,-10.0797 -17.472,-8.8477 -13.6645,1.792 -18.7045,33.4877 9.968,44.0157 0.112,2.352 0.672,4.704 1.68,7.168 4.368,10.64 6.272,19.488 6.272,26.768 0,42.224 -69.1045,24.64 -88.5925,-13.664 -7.504,-14.896 -7.616,-32.816 6.608,-51.632 34.832,-42.6717 24.416,-26.4317 32.144,-51.7437 12.656,-41.44 41.5525,-54.656035 79.8565,-54.320035 0,0 63.728,-5e-6 80.64,15.456035 16.912,15.456 11.088,63.728 9.632,68.096 -0.448,1.344 -1.568,2.128 -2.8,2.688 -0.672,22.0637 1.568,29.7917 9.408,47.5997 17.136,39.2 -15.232,76.496 -63.28,56.672 z"
           fill="#040404"
           id="path10011" />
        <path
           d="m 125.594,105.118 c -0.448,-0.784 -0.784,-1.568 -1.232,-2.576 0.448,0.896 0.896,1.792 1.232,2.576 z"
           fill="#fee4bf"
           id="path10013" />
        <path
           d="m 176.072,100.311 c 0,0.1 0,0.2 0,0.2 l -0.1,2.8 c -0.1,2.4 -2.1,4.2 -4.5,4.1 -2.4,-0.1 -4.2,-2.2 -4,-4.5 l 0.1,-2.8 c 0,-0.4997 0.2,-1.0997 0.4,-1.4997 l 8,0.4 c 0,0.4 0.1,0.8 0.1,1.2997 z"
           fill="#5350f2"
           id="path10015" />
        <path
           d="m 217.871,102.511 -0.1,2.6 c -0.1,2.2 -2,3.9 -4.2,3.8 -2.2,-0.1 -3.9,-2 -3.8,-4.2 l 0.1,-2.6 c 0,-0.5 0.1,-1 0.3,-1.4 l 7.5,0.3 c 0.2,0.5 0.2,1 0.2,1.5 z"
           fill="#5350f2"
           id="path10017" />
        <path
           d="m 186.071,86.6113 c 2.2,0.3 3.9,-2 3.1,-4.2 -0.4,-1.2 -1.1,-2.3 -2.2,-3 -3.4,-2.1 -16.1,-2.3 -22.8,2.5 -5.9,4.4 11.9,3.3 21.9,4.7 z"
           fill="#000000"
           id="path10019" />
        <path
           d="m 213.771,87.7113 c -1.8,0 -2.9,-2.3 -2,-4.2 0.5,-1 1.2,-1.9 2.2,-2.4 3.1,-1.5 11.4,-0.6 15.1,4.5 3.3,4.5 -7,2 -15.3,2.1 z"
           fill="#000000"
           id="path10021" />
        <path
           style="color:#000000;fill:#423232;stroke-linecap:round;stroke-linejoin:round;stroke-miterlimit:10;-inkscape-stroke:none"
           d="m 166.1543,97.013672 a 1.5,1.5 0 0 0 -1.58008,1.414062 1.5,1.5 0 0 0 1.41406,1.582036 l 1.79883,0.0996 a 1.50015,1.50015 0 0 0 0.0273,0 l 7.99414,0.30078 6.69532,0.29882 a 1.5,1.5 0 0 0 1.5664,-1.431636 1.5,1.5 0 0 0 -1.43164,-1.564453 l -6.70117,-0.300782 a 1.50015,1.50015 0 0 0 -0.01,0 l -7.98632,-0.298828 z"
           id="path10023" />
        <path
           style="color:#000000;fill:#423232;stroke-linecap:round;stroke-linejoin:round;stroke-miterlimit:10;-inkscape-stroke:none"
           d="m 209.87109,99.210937 a 1.5,1.5 0 0 0 -1.5,1.500003 1.5,1.5 0 0 0 1.5,1.5 h 0.26953 l 7.4668,0.29883 4.39453,0.19921 a 1.5,1.5 0 0 0 1.56836,-1.42968 1.5,1.5 0 0 0 -1.43164,-1.566409 l -4.40039,-0.201172 a 1.50015,1.50015 0 0 0 -0.008,0 l -7.5,-0.298828 a 1.50015,1.50015 0 0 0 -0.0586,-0.002 z"
           id="path10025" />
        <path
           style="color:#000000;fill:#423232;stroke-linecap:round;stroke-linejoin:round;stroke-miterlimit:10;-inkscape-stroke:none"
           d="m 186.05859,145.15234 a 1.5,1.5 0 0 0 -2.00586,0.68946 1.5,1.5 0 0 0 0.6875,2.00586 c 4.81295,2.35299 10.46441,3.12786 14.71485,0.64843 a 1.5,1.5 0 0 0 0.54101,-2.05273 1.5,1.5 0 0 0 -2.05273,-0.53906 c -2.94955,1.72057 -7.69772,1.29504 -11.88477,-0.75196 z"
           id="path10027" />
        <path
           style="color:#000000;fill:#423232;stroke-linecap:round;stroke-linejoin:round;stroke-miterlimit:10;-inkscape-stroke:none"
           d="m 185.90039,141.5 a 1.5,1.5 0 0 0 -1.5,1.5 c 0,0 0.005,0.75694 -0.47461,1.79492 -0.47982,1.03798 -1.36469,2.23446 -3.44336,2.99805 a 1.5,1.5 0 0 0 -0.89062,1.92383 1.5,1.5 0 0 0 1.92578,0.89062 c 2.82133,-1.03641 4.38568,-2.94072 5.13086,-4.55273 C 187.39361,144.44267 187.40039,143 187.40039,143 a 1.5,1.5 0 0 0 -1.5,-1.5 z"
           id="path10029" />
      </g>
    </g>
  </g>
</svg>
