<?xml version="1.0" encoding="UTF-8" standalone="no"?>
<!-- Created with Inkscape (http://www.inkscape.org/) -->

<svg
   width="79.375mm"
   height="79.375mm"
   viewBox="0 0 79.375 79.375"
   version="1.1"
   id="svg5"
   xmlns="http://www.w3.org/2000/svg"
   xmlns:svg="http://www.w3.org/2000/svg">
  <defs
     id="defs2">
    <clipPath
       id="clip0_421_1274">
      <rect
         width="300"
         height="300"
         fill="#ffffff"
         id="rect903"
         x="0"
         y="0" />
    </clipPath>
    <clipPath
       id="clip0_421_1274-3">
      <rect
         width="300"
         height="300"
         fill="#ffffff"
         id="rect1539"
         x="0"
         y="0" />
    </clipPath>
    <clipPath
       id="clip0_421_1274-35">
      <rect
         width="300"
         height="300"
         fill="#ffffff"
         id="rect1928"
         x="0"
         y="0" />
    </clipPath>
    <clipPath
       id="clip0_421_1274-8">
      <rect
         width="300"
         height="300"
         fill="#ffffff"
         id="rect2361"
         x="0"
         y="0" />
    </clipPath>
    <linearGradient
       id="paint0_linear_421_1274"
       x1="121.039"
       y1="222.77901"
       x2="121.039"
       y2="132.015"
       gradientUnits="userSpaceOnUse">
      <stop
         stop-color="#FF7300"
         id="stop2716" />
      <stop
         offset="0.1086"
         stop-color="#FF8D08"
         id="stop2718" />
      <stop
         offset="0.2899"
         stop-color="#FFB214"
         id="stop2720" />
      <stop
         offset="0.4716"
         stop-color="#FFCF1E"
         id="stop2722" />
      <stop
         offset="0.6514"
         stop-color="#FFE325"
         id="stop2724" />
      <stop
         offset="0.8286"
         stop-color="#FFF029"
         id="stop2726" />
      <stop
         offset="1"
         stop-color="#FFF42A"
         id="stop2728" />
    </linearGradient>
    <linearGradient
       id="paint1_linear_421_1274"
       x1="121.04"
       y1="129.14799"
       x2="121.04"
       y2="139.46899"
       gradientUnits="userSpaceOnUse">
      <stop
         stop-color="#FF7300"
         id="stop2731" />
      <stop
         offset="0.1086"
         stop-color="#FF8D08"
         id="stop2733" />
      <stop
         offset="0.2899"
         stop-color="#FFB214"
         id="stop2735" />
      <stop
         offset="0.4716"
         stop-color="#FFCF1E"
         id="stop2737" />
      <stop
         offset="0.6514"
         stop-color="#FFE325"
         id="stop2739" />
      <stop
         offset="0.8286"
         stop-color="#FFF029"
         id="stop2741" />
      <stop
         offset="1"
         stop-color="#FFF42A"
         id="stop2743" />
    </linearGradient>
    <linearGradient
       id="paint2_linear_421_1274"
       x1="226.423"
       y1="222.77901"
       x2="226.423"
       y2="132.015"
       gradientUnits="userSpaceOnUse">
      <stop
         stop-color="#FF7300"
         id="stop2746" />
      <stop
         offset="0.1086"
         stop-color="#FF8D08"
         id="stop2748" />
      <stop
         offset="0.2899"
         stop-color="#FFB214"
         id="stop2750" />
      <stop
         offset="0.4716"
         stop-color="#FFCF1E"
         id="stop2752" />
      <stop
         offset="0.6514"
         stop-color="#FFE325"
         id="stop2754" />
      <stop
         offset="0.8286"
         stop-color="#FFF029"
         id="stop2756" />
      <stop
         offset="1"
         stop-color="#FFF42A"
         id="stop2758" />
    </linearGradient>
    <clipPath
       id="clip0_421_1274-6">
      <rect
         width="300"
         height="300"
         fill="#ffffff"
         id="rect2761"
         x="0"
         y="0" />
    </clipPath>
    <clipPath
       id="clip0_421_1274-9">
      <rect
         width="300"
         height="300"
         fill="#ffffff"
         id="rect3154"
         x="0"
         y="0" />
    </clipPath>
    <clipPath
       id="clip0_421_1274-61">
      <rect
         width="300"
         height="300"
         fill="#ffffff"
         id="rect3560"
         x="0"
         y="0" />
    </clipPath>
  </defs>
  <g
     id="layer1"
     transform="translate(-71.310977,-66.9218)">
    <g
       style="fill:none"
       id="g3622"
       transform="matrix(0.26458333,0,0,0.26458333,71.310977,66.9218)">
      <g
         clip-path="url(#clip0_421_1274-61)"
         id="g3558">
        <path
           id="rect3459"
           style="fill:#b5e2dc;fill-opacity:0.968627"
           d="M 0,0 H 300 V 300 H 0 Z" />
        <path
           d="m 253.592,257.177 c -0.774,0.514 -1.659,1.029 -2.434,1.543 -0.885,0.515 -1.66,1.029 -2.545,1.44 -0.774,0.412 -1.438,0.823 -2.213,1.235 -0.11,0.103 -0.221,0.103 -0.332,0.206 -2.545,1.44 -5.2,2.778 -7.856,4.012 -0.774,0.412 -1.659,0.823 -2.434,1.132 0,0 -0.111,0.103 -0.221,0.103 -0.885,0.411 -1.771,0.823 -2.656,1.234 -1.77,0.823 -3.651,1.543 -5.422,2.264 -0.885,0.411 -1.881,0.72 -2.766,1.028 -0.885,0.309 -1.881,0.721 -2.766,1.029 -0.885,0.309 -1.881,0.72 -2.766,1.029 0,0 0,0 -0.111,0 -0.885,0.309 -1.881,0.617 -2.766,0.926 -1.992,0.617 -4.094,1.235 -6.086,1.852 -0.664,0.206 -1.438,0.411 -2.102,0.617 -2.102,0.617 -4.205,1.132 -6.307,1.543 -0.775,0.206 -1.549,0.309 -2.434,0.515 -1.992,0.411 -4.094,0.823 -6.086,1.234 -0.443,0.103 -0.774,0.103 -1.217,0.206 -0.664,0.103 -1.439,0.206 -2.102,0.309 -0.996,0.103 -1.881,0.308 -2.877,0.411 -0.443,0.103 -0.885,0.103 -1.328,0.206 -0.553,0.103 -1.217,0.206 -1.881,0.206 -1.77,0.206 -3.651,0.411 -5.422,0.617 -0.553,0.103 -1.217,0.103 -1.77,0.206 h -0.111 c -0.774,0.103 -1.549,0.103 -2.323,0.206 -0.775,0.102 -1.55,0.102 -2.324,0.102 -0.443,0 -0.996,0.103 -1.438,0.103 -0.886,0 -1.66,0.103 -2.435,0.103 -1.106,0 -2.102,0.103 -3.209,0.103 -1.106,0 -2.102,0 -3.208,0 -0.775,0 -1.549,0 -2.324,0 -46.583,-0.617 -88.6292,-19.033 -118.5043,-48.251 0,0 0,-0.103 -0.1106,-0.103 3.4301,-6.276 16.1546,-17.592 29.4324,-26.955 16.8186,-11.831 40.6075,-19.135 40.6075,-19.135 0,0 15.602,-2.367 73.471,8.847 44.149,8.642 62.959,43.725 69.376,59.877 z"
           fill="#fee4bf"
           id="path3461" />
        <path
           d="m 196.498,225.798 c -2.324,10.597 -17.372,16.873 -42.711,7.408 -31.092,-11.729 -43.042,-44.753 -43.042,-44.753 -1.659,-23.663 -5.532,-43.93 -5.532,-43.93 35.961,-2.881 78.45,36.214 78.45,36.214 l 4.868,19.341 c 0.443,1.646 1.328,3.087 2.656,4.115 2.323,3.704 6.86,14.815 5.311,21.605 z"
           fill="#fee4bf"
           id="path3463" />
        <path
           d="m 191.186,204.296 c -21.134,-1.029 -36.735,-3.909 -53.443,-31.79 14.163,11.626 30.871,16.049 48.464,18.107 l 2.324,9.465 c 0.442,1.749 1.328,3.189 2.655,4.218 z"
           fill="#efbda5"
           id="path3465" />
        <path
           d="m 234.893,80.325 c 1.992,8.642 2.987,15.6379 -2.434,38.683 -5.422,23.045 4.979,46.091 -21.134,67.181 -17.593,14.198 -48.353,16.873 -72.917,1.338 -8.299,-5.247 -15.934,-12.552 -22.13,-22.12 -4.868,-7.51 -10.512,-14.609 -16.8185,-21.09 -8.7412,-8.848 -19.2528,-26.646 -14.0523,-58.1278 8.4092,-51.2345 62.9588,-57.0987 95.1578,-51.4403 32.198,5.6584 48.906,22.7366 54.328,45.5761 z"
           fill="#fee4bf"
           id="path3467" />
        <path
           d="m 129.003,120.551 c 0,0 -3.43,-15.432 -19.585,-13.58 -13.9418,1.646 -18.8103,32.716 12.835,41.358"
           fill="#fee4bf"
           id="path3469" />
        <path
           style="color:#000000;fill:#423232;stroke-linecap:round;stroke-linejoin:round;stroke-miterlimit:10;-inkscape-stroke:none"
           d="m 113.32227,117.01953 c -0.78613,-0.0564 -1.51868,0.0233 -2.18555,0.22852 -1.33375,0.41046 -2.31977,1.28729 -2.98047,2.21289 -0.6607,0.92559 -1.03509,1.90813 -1.25,2.74804 -0.10746,0.41996 -0.17445,0.80351 -0.20703,1.14844 -0.0326,0.34494 -0.0846,0.5688 0.0527,1.08008 a 1.5,1.5 0 0 0 1.83789,1.06055 1.5,1.5 0 0 0 1.06055,-1.83789 c 0.082,0.30553 0.0197,0.14388 0.0352,-0.0195 0.0154,-0.16342 0.0563,-0.41145 0.12695,-0.6875 0.14127,-0.55212 0.4086,-1.22248 0.78516,-1.75 0.37655,-0.52753 0.82293,-0.90357 1.42187,-1.0879 0.59894,-0.18432 1.43225,-0.20921 2.71875,0.29102 a 1.50015,1.50015 0 0 0 0.01,0.004 c 0.75948,0.28882 1.15963,0.73895 1.46289,1.88672 0.30326,1.14776 0.3367,2.94243 0.0195,5.25195 a 1.50015,1.50015 0 0 0 -0.004,0.043 c -0.55197,5.12719 4.26367,7.93359 4.26367,7.93359 a 1.5,1.5 0 0 0 2.05665,-0.52344 1.5,1.5 0 0 0 -0.52344,-2.05664 c 0,0 -3.14849,-1.92845 -2.81446,-5.03125 l -0.006,0.043 c 0.34682,-2.52547 0.37969,-4.6413 -0.0918,-6.42578 -0.47125,-1.78355 -1.62084,-3.28608 -3.29492,-3.92383 -0.8743,-0.33892 -1.71106,-0.53169 -2.49414,-0.58789 z"
           id="path3471" />
        <path
           d="m 205.682,144.214 c 0,0 4.204,0.206 8.188,-4.218 2.212,-2.469 4.094,-5.556 2.876,-6.482 -1.217,-1.028 -21.244,1.852 -22.572,4.321 -1.328,2.469 6.418,6.379 11.508,6.379 z"
           fill="#efbda5"
           id="path3473" />
        <path
           style="color:#000000;fill:#423232;stroke-linecap:round;stroke-linejoin:round;stroke-miterlimit:10;-inkscape-stroke:none"
           d="m 208.9668,108.14648 a 1.5,1.5 0 0 0 -1.46485,1.53321 c 0,0 0.24193,10.20196 7.19532,21.43554 1.12101,1.81685 0.89623,4.30935 -0.82618,6.68946 -1.72309,2.38106 -4.93493,4.50894 -9.49804,5.1289 a 1.5,1.5 0 0 0 -1.28516,1.6875 1.5,1.5 0 0 0 1.68945,1.28516 c 5.28488,-0.71803 9.26525,-3.22057 11.52539,-6.34375 2.26015,-3.12318 2.80977,-7.00743 0.94532,-10.02539 a 1.50015,1.50015 0 0 0 0,-0.002 C 210.70145,118.95876 210.5,109.61133 210.5,109.61133 a 1.5,1.5 0 0 0 -1.5332,-1.46485 z"
           id="path3475" />
        <path
           opacity="0.42"
           d="m 149.03,149.461 c 6.294,0 11.396,-3.915 11.396,-8.745 0,-4.83 -5.102,-8.745 -11.396,-8.745 -6.295,0 -11.397,3.915 -11.397,8.745 0,4.83 5.102,8.745 11.397,8.745 z"
           fill="#f2a5b2"
           id="path3477" />
        <path
           opacity="0.42"
           d="m 230.688,132.177 c -0.332,5.761 -0.221,11.42 -0.663,17.078 -4.869,-1.029 -8.41,-4.424 -8.41,-8.436 0,-4.321 3.873,-7.819 9.073,-8.642 z"
           fill="#f2a5b2"
           id="path3479" />
        <path
           d="m 91.6914,186.828 c 0,0 16.3616,-6.5 19.3876,-6.725 l 0.224,2.578 c 0,0 -12.9995,5.603 -13.784,6.5 -0.6724,0.785 -5.8276,-2.353 -5.8276,-2.353 z"
           fill="#7e5d6d"
           id="path3481" />
        <path
           d="M 293.528,332.181 H 10.2178 c 0,0 1.681,-52 18.7155,-89.095 12.8879,-28.017 43.819,-46.508 66.3448,-54.577 6.3879,-2.242 11.3189,-4.707 15.9139,-5.94 0,0.56 0.336,4.707 0.336,5.155 0,0 17.707,17.371 57.604,19.5 18.491,1.009 20.284,-10.534 20.284,-10.534 2.129,-0.449 4.147,-1.009 6.164,-1.681 0.672,-0.225 5.379,-2.13 5.939,-2.354 14.457,3.811 32.164,14.569 57.828,36.086 29.026,24.543 34.181,103.44 34.181,103.44 z"
           fill="#423232"
           id="path3483" />
        <mask
           id="mask0_421_1274"
           maskUnits="userSpaceOnUse"
           x="10"
           y="182"
           width="284"
           height="151">
          <path
             d="M 293.527,332.181 H 10.2168 c 0,0 1.681,-52 18.7155,-89.095 12.8879,-28.017 43.819,-46.508 66.3448,-54.577 6.3879,-2.242 11.3189,-4.707 15.9139,-5.94 0,0.56 0.336,4.707 0.336,5.155 0,0 17.707,17.371 57.604,19.5 18.491,1.009 20.284,-10.534 20.284,-10.534 2.129,-0.449 4.147,-1.009 6.164,-1.681 0.672,-0.225 5.379,-2.13 5.94,-2.354 14.456,3.811 32.163,14.569 57.827,36.086 29.026,24.543 34.181,103.44 34.181,103.44 z"
             fill="#423232"
             id="path3485" />
        </mask>
        <g
           mask="url(#mask0_421_1274)"
           id="g3490">
          <path
             style="color:#000000;fill:#ffff8d;stroke-miterlimit:10;-inkscape-stroke:none"
             d="m 128.19531,175.5625 c -6.96513,0.32104 -12.2434,0.94361 -15.60937,3.26367 -6.07527,4.05997 -8.10595,9.29106 -7.67969,13.75781 0.42591,4.46305 2.8224,8.01975 4.35742,10.14649 9.7e-4,0.001 0.003,0.003 0.004,0.004 12.28863,17.31791 43.49966,42.68666 69.81445,47.73829 h 0.006 l 0.006,0.002 c 4.46108,0.83403 8.46078,-2.14991 11.77734,-6.28125 3.31657,-4.13134 6.18478,-9.80743 8.1836,-16.0957 3.99735,-12.57565 4.68861,-27.88516 -4.11719,-37.26368 l -0.002,-0.002 c -3.90165,-4.16287 -10.26093,-7.07326 -17.80078,-9.38672 -7.54103,-2.31381 -16.28669,-3.93111 -24.89649,-4.90429 -8.6098,-0.97319 -17.0698,-1.29993 -24.04297,-0.97852 z m 0.23047,4.99414 c 6.62932,-0.30556 14.88132,0.007 23.25,0.95313 8.36869,0.94593 16.86623,2.52838 23.99219,4.71484 7.12596,2.18646 12.85459,5.07476 15.62109,8.02734 l 0.002,0.002 c 6.76917,7.20764 6.67714,20.75565 2.99804,32.33007 -1.83955,5.78722 -4.53213,11.01024 -7.3164,14.47852 -2.78226,3.46577 -5.42163,4.78249 -6.95704,4.49805 -23.88819,-4.58982 -55.42564,-29.86835 -66.67382,-45.72266 l -0.006,-0.01 -0.006,-0.008 c -1.37841,-1.90885 -3.17359,-4.84305 -3.44727,-7.71094 -0.27368,-2.86788 0.49496,-5.80683 5.4961,-9.14062 l 0.0176,-0.0117 0.0176,-0.0117 c 1.17357,-0.81133 6.3824,-2.08311 13.01172,-2.38867 z"
             id="path3488" />
        </g>
        <path
           d="m 238.95,218.207 c 7.242,0 13.112,-5.871 13.112,-13.112 0,-7.242 -5.87,-13.112 -13.112,-13.112 -7.242,0 -13.112,5.87 -13.112,13.112 0,7.241 5.87,13.112 13.112,13.112 z"
           fill="#ffff8d"
           id="path3492" />
        <path
           style="color:#000000;fill:#544d4d;stroke-linecap:round;stroke-linejoin:round;stroke-miterlimit:10;-inkscape-stroke:none"
           d="m 60.466797,289.22656 a 1.5,1.5 0 0 0 -1.306641,1.66992 l 5.042969,41.46485 a 1.5,1.5 0 0 0 1.669922,1.30859 A 1.5,1.5 0 0 0 67.179687,332 l -5.042968,-41.46484 a 1.5,1.5 0 0 0 -1.669922,-1.3086 z"
           id="path3494" />
        <path
           style="color:#000000;fill:#544d4d;stroke-linecap:round;stroke-linejoin:round;stroke-miterlimit:10;-inkscape-stroke:none"
           d="m 261.93359,275.0957 a 1.5,1.5 0 0 0 -1.95703,0.81641 c 0,0 -3.52742,8.41397 -2.45508,17.11719 1.03015,8.35248 3.88775,19.93839 -0.20117,38.83398 a 1.5,1.5 0 0 0 1.14844,1.7832 1.5,1.5 0 0 0 1.7832,-1.14843 c 4.20508,-19.43237 1.23395,-31.82644 0.2461,-39.83594 -0.94366,-7.65877 2.2539,-15.60938 2.2539,-15.60938 a 1.5,1.5 0 0 0 -0.81836,-1.95703 z"
           id="path3496" />
        <path
           d="m 91.6916,186.828 c 2.1294,-0.673 5.8276,0 6.9483,1.905 4.3711,7.172 14.9051,28.129 19.2761,69.707 3.474,32.5 -1.793,91 -1.793,91 L 7.30371,344.284 c 0,0 3.24999,-55.25 12.77589,-92.344 9.3017,-35.974 33.7327,-52.112 71.612,-65.112 z"
           fill="#ffffff"
           id="path3498" />
        <path
           d="m 204.321,193.664 c 0,0 34.63,65.112 24.543,152.077 h 74.75 c 0,0 -0.336,-69.034 -17.146,-106.577 -16.81,-37.431 -75.647,-48.414 -75.647,-48.414 0,0 -3.698,1.793 -6.5,2.914 z"
           fill="#ffffff"
           id="path3500" />
        <path
           d="m 204.321,193.664 -2.69,-0.785 c 0,0 3.922,-1.905 5.603,-3.026 l 1.009,-0.56 c 0,0 5.379,2.466 7.284,3.362 1.906,0.897 -6.612,5.043 -6.612,5.043 0,0 -4.258,-4.034 -4.594,-4.034 z"
           fill="#7e5d6d"
           id="path3502" />
        <path
           d="m 82.3896,225.267 c 0,0 -15.4655,10.871 -14.0086,22.414 1.4569,11.543 49.086,83.828 49.086,83.828 0,0 5.604,-39.225 -0.784,-83.604 0,0 -4.595,-6.164 -13,-12.327 -5.6037,-3.923 -12.7761,-8.069 -21.2934,-10.311 z"
           fill="#ad7e5a"
           id="path3504" />
        <path
           d="m 263.269,247.681 c 0.448,-7.172 -16.138,-18.828 -16.138,-18.828 -6.612,1.906 -11.319,4.931 -14.681,8.181 -7.509,7.061 -8.517,15.018 -8.517,15.018 l 0.448,2.017 c 7.957,34.629 5.603,79.681 5.603,79.681 0,0 32.837,-78.897 33.285,-86.069 z"
           fill="#ad7e5a"
           id="path3506" />
        <path
           d="m 116.571,247.905 c 0,0 -7.845,-8.293 -17.259,-14.121 -20.8448,-12.887 -51.4396,-18.827 -51.7758,-28.801 -0.2242,-11.207 36.9827,-34.63 61.6378,-42.586 0,0.112 0,0.224 0,0.336 0,0.112 0,0.224 0,0.448 0,0.224 0,0.448 0.112,0.672 0,0.337 0.112,0.673 0.112,1.009 0,0.224 0,0.336 0.112,0.56 0.785,6.725 1.457,14.233 2.018,22.19 v 0.112 c 0,0 -5.156,1.681 -1.457,27.345 1.008,6.276 4.819,17.259 6.5,32.836 z"
           fill="#ad7e5a"
           id="path3508" />
        <path
           d="m 223.933,251.491 c 0,0 -7.509,-29.138 -11.207,-38.439 -3.698,-9.19 -10.647,-19.612 -10.983,-20.173 4.371,-2.017 8.293,-4.595 11.767,-7.62 3.475,-3.026 6.276,-6.052 8.63,-9.078 12.551,6.612 48.526,27.457 50.319,37.879 2.017,11.319 -41.578,10.647 -48.526,37.431 z"
           fill="#ad7e5a"
           id="path3510" />
        <path
           d="m 183.476,267.853 c 7.242,0 13.112,-5.87 13.112,-13.112 0,-7.241 -5.87,-13.112 -13.112,-13.112 -7.241,0 -13.112,5.871 -13.112,13.112 0,7.242 5.871,13.112 13.112,13.112 z"
           fill="#ffff8d"
           id="path3512" />
        <path
           d="m 183.476,261.466 c 3.714,0 6.724,-3.011 6.724,-6.725 0,-3.713 -3.01,-6.724 -6.724,-6.724 -3.714,0 -6.724,3.011 -6.724,6.724 0,3.714 3.01,6.725 6.724,6.725 z"
           fill="#ffbe71"
           id="path3514" />
        <path
           style="color:#000000;fill:#894b33;stroke-linecap:round;stroke-linejoin:round;stroke-miterlimit:10;-inkscape-stroke:none"
           d="m 246.71484,227.41211 c -6.83148,1.96927 -11.76867,5.1266 -15.29882,8.53711 -7.86278,7.39864 -8.97071,15.91406 -8.97071,15.91406 a 1.5,1.5 0 0 0 1.29883,1.67774 1.5,1.5 0 0 0 1.67773,-1.30079 c 0,0 0.90855,-7.39165 8.05665,-14.11328 a 1.50015,1.50015 0 0 0 0.0137,-0.0137 c 3.19339,-3.087 7.66651,-5.97688 14.05468,-7.81836 a 1.5,1.5 0 0 0 1.0254,-1.85742 1.5,1.5 0 0 0 -1.85743,-1.02539 z"
           id="path3516" />
        <path
           style="color:#000000;fill:#894b33;stroke-linecap:round;stroke-linejoin:round;stroke-miterlimit:10;-inkscape-stroke:none"
           d="m 82.673828,223.70703 a 1.5,1.5 0 0 0 -1.841797,1.05274 1.5,1.5 0 0 0 1.050781,1.84179 c 8.413123,2.29503 15.427626,6.23715 20.800778,10.18555 8.23154,6.03509 12.68555,12.01367 12.68555,12.01367 a 1.5,1.5 0 0 0 2.09766,0.30664 1.5,1.5 0 0 0 0.30664,-2.09961 c 0,0 -4.73485,-6.34809 -13.31446,-12.63867 h -0.002 c -5.608672,-4.12128 -12.938396,-8.24932 -21.783202,-10.66211 z"
           id="path3518" />
        <path
           d="m 235.907,80.8079 c -0.336,-1.68 -0.784,-3.472 -1.344,-5.152 -0.56,-1.68 -1.904,-3.136 -3.696,-3.472 -5.824,-1.008 -11.424,1.904 -19.488,0.784 -25.648,-3.472 -42.784,-14.336 -66.864,-4.928 -24.864,9.632 -10.752,49.7281 -16.016,55.8881 -0.896,-3.136 -5.264,-15.904 -19.6,-14.112 -13.5516,1.68 -18.7036,33.04 9.296,43.792 -0.224,6.16 -11.312,11.984 -20.2716,1.232 -8.96,-10.752 -26.88,-38.64 -14.784,-79.4081 12.096,-40.768 66.8636,-62.048 117.8236,-41.328 8.736,3.584 14.336,11.312 21.616,13.888 14.896,5.488 15.008,40.88 13.328,32.816 z"
           fill="#423232"
           id="path3520" />
        <path
           d="m 118.307,153.72 c 0,0 -0.224,9.184 -9.632,26.208 0,0 -2.24,-9.408 -7.168,-18.032 -4.8157,-8.624 -14.3357,-26.656 -20.1597,-44.688 -5.824,-18.0321 4.928,4.368 10.416,11.872 5.376,7.392 8.9597,25.76 26.5437,24.64 z"
           fill="#423232"
           id="path3522" />
        <path
           d="m 102.515,144.648 c 0,0 -3.1364,20.944 16.912,47.376 20.048,26.432 21.168,53.536 13.776,82.208 0,0 -11.648,-8.624 -46.9284,-33.936 -35.28,-25.312 -43.792,-68.544 2.576,-109.312 0.112,0 13.2164,2.464 13.6644,13.664 z"
           fill="#423232"
           id="path3524" />
        <path
           d="m 182.819,54.264 c 4.144,2.576 8.624,4.256 13.44,4.592 5.936,0.448 14.784,4.48 27.776,16.24 15.344,13.888 7.728,-76.94403 -87.808,-55.44 -32.704,7.28 -56.0003,36.176 -60.0322,68.544 -0.224,2.24 -0.448,4.48 -0.56,6.72 -0.896,29.792 23.1839,55.776 23.1839,55.776 0,0 -9.8559,-41.44 12.6563,-58.576 20.384,-15.568 34.608,-33.824 52.416,-33.824 10.752,-0.112 16.464,-5.488 18.928,-4.032 z"
           fill="#423232"
           id="path3526" />
        <path
           d="m 185.955,30.1839 c 0,0 33.936,64.624 50.736,64.064 16.8,-0.56 34.272,-53.2 -1.344,-73.136 -24.864,-13.99995 -49.392,9.072 -49.392,9.072 z"
           fill="#423232"
           id="path3528" />
        <path
           d="m 201.075,48.44 c 0,0 27.776,29.68 14.672,38.192 -7.504,4.816 -14.672,-9.744 -14.672,-9.744 0,0 -8.848,14.448 -22.96,7.168 -14.112,-7.168 -4.704,-27.888 -4.704,-27.888 0,0 19.152,-19.264 27.664,-7.728 z"
           fill="#423232"
           id="path3530" />
        <path
           d="m 176.211,58.52 c 0,0 -5.04,30.576 -28.784,35.056 -23.744,4.48 -26.544,-19.936 -26.544,-19.936 0,0 35.168,-38.64 55.328,-15.12 z"
           fill="#423232"
           id="path3532" />
        <path
           d="m 235.459,112.84 c 0,0 14,-7.952 13.216,-27.776 -0.784,-19.824 -11.2,-6.3841 -11.2,-6.3841 0,0 1.12,17.36 -2.016,34.1601 z"
           fill="#423232"
           id="path3534" />
        <path
           style="color:#000000;fill:#423232;stroke-linecap:round;stroke-linejoin:round;stroke-miterlimit:10;-inkscape-stroke:none"
           d="m 168.43945,104.10547 a 1.5,1.5 0 0 0 -2.09765,0.30469 1.5,1.5 0 0 0 0.30468,2.09961 c 7.48597,5.58811 15.01758,5.49804 15.01758,5.49804 a 1.5,1.5 0 0 0 1.47852,-1.52148 1.5,1.5 0 0 0 -1.52149,-1.47852 c 0,0 -6.46762,0.10953 -13.18164,-4.90234 z"
           id="path3536" />
        <path
           style="color:#000000;fill:#423232;stroke-linecap:round;stroke-linejoin:round;stroke-miterlimit:10;-inkscape-stroke:none"
           d="m 221.54297,106.80664 a 1.5,1.5 0 0 0 -2.09961,0.30078 c -0.62314,0.83086 -2.7525,1.93519 -4.70508,2.57422 -1.95258,0.63903 -3.66211,0.94922 -3.66211,0.94922 a 1.5,1.5 0 0 0 -1.20898,1.74219 1.5,1.5 0 0 0 1.74218,1.21093 c 0,0 1.89009,-0.3398 4.0625,-1.05078 2.17242,-0.71097 4.69502,-1.65781 6.17188,-3.62695 a 1.5,1.5 0 0 0 -0.30078,-2.09961 z"
           id="path3538" />
        <path
           d="m 186.443,102.807 c 1.9,1.1 4.3,-0.4 4.4,-2.7 0,-1.2 -0.2,-2.5 -1,-3.6 -2.4,-3.2 -14.1,-8.1001 -22.2,-6 -7,1.8 10.1,7.3 18.8,12.3 z"
           fill="#423232"
           id="path3540" />
        <path
           d="m 217.143,104.007 c -1.4,1.1 -3.7,-0.2 -4,-2.3 -0.2,-1.1 -0.1,-2.3 0.4,-3.3 1.6,-3 9,-7.1 15,-5.1 5.2,1.9 -4.7,5.8 -11.4,10.7 z"
           fill="#423232"
           id="path3542" />
        <path
           d="m 170.343,107.107 c -0.8,0.7 -1.3,1.8 -1.4,2.9 l -0.1,2.8 c -0.1,2.4 1.7,4.4 4,4.5 2.4,0.1 4.4,-1.7 4.5,-4 l 0.1,-2.8 c 0,-0.1 0,-0.2 0,-0.3 -2.6,-0.2 -4.9,-1.3 -7.1,-3.1 z"
           fill="#423232"
           id="path3544" />
        <path
           d="m 211.343,111.907 c 0,0.1 0,0.1 0,0.2 l -0.1,2.6 c -0.1,2.2 1.6,4.1 3.8,4.2 2.2,0.1 4.1,-1.6 4.2,-3.8 l 0.1,-2.6 c 0.1,-1 -0.3,-1.9 -0.8,-2.6 -2.2,1.3 -4.6,1.6 -7.2,2 z"
           fill="#423232"
           id="path3546" />
        <path
           style="color:#000000;fill:#423232;stroke-linecap:round;stroke-linejoin:round;stroke-miterlimit:10;-inkscape-stroke:none"
           d="m 192.04492,150.60937 c -2.811,0.22964 -6.25138,0.8397 -10.45508,2.03711 a 1.5,1.5 0 0 0 -1.0332,1.85352 1.5,1.5 0 0 0 1.85352,1.03125 c 8.09258,-2.30516 12.98573,-2.26159 15.74414,-1.73242 1.3792,0.26458 2.23016,0.64681 2.71093,0.92578 0.48078,0.27897 0.49219,0.33594 0.49219,0.33594 a 1.5,1.5 0 0 0 2.11524,0.16992 1.5,1.5 0 0 0 0.16992,-2.11328 c 0,0 -0.48859,-0.53092 -1.27344,-0.98633 -0.78485,-0.45541 -1.96514,-0.95443 -3.64844,-1.27734 -1.68329,-0.32292 -3.86477,-0.47378 -6.67578,-0.24415 z"
           id="path3548" />
        <path
           style="color:#000000;fill:#423232;stroke-linecap:round;stroke-linejoin:round;stroke-miterlimit:10;-inkscape-stroke:none"
           d="m 161.34961,95.822266 c -7.12119,0 -12.89258,5.771324 -12.89258,12.892574 v 9.83985 c 0,7.12038 5.77133,12.89062 12.89258,12.89062 h 24.13281 c 7.0307,0 12.89258,-5.75378 12.89258,-12.89062 v -9.83985 c 0,-7.12125 -5.77139,-12.892574 -12.89258,-12.892574 z m 0,3 h 24.13281 c 5.5148,0 9.89258,4.377844 9.89258,9.892574 v 9.83985 c 0,5.49714 -4.49529,9.89062 -9.89258,9.89062 h -24.13281 c -5.51473,0 -9.89258,-4.37702 -9.89258,-9.89062 v -9.83985 c 0,-5.51473 4.37778,-9.892574 9.89258,-9.892574 z"
           id="path3550" />
        <path
           style="color:#000000;fill:#423232;stroke-linecap:round;stroke-linejoin:round;stroke-miterlimit:10;-inkscape-stroke:none"
           d="m 215.20703,95.822266 c -4.9679,0 -9.06055,4.092545 -9.06055,9.060544 v 9.00977 a 1.50015,1.50015 0 0 0 0.0547,0.4043 c 1.48282,5.2952 3.61601,10.43058 6.84375,15.05664 a 1.50015,1.50015 0 0 0 1.23047,0.64257 c -0.0234,0 0.28624,0.10352 0.93164,0.10352 h 11.91016 c 4.968,0 9.0625,-4.09255 9.0625,-9.06055 v -16.15625 l -0.002,0.0352 c 0.12297,-5.069199 -4.03391,-9.095704 -9.06054,-9.095704 z m 0,3 h 11.91016 c 3.46535,0 6.14553,2.600644 6.0625,6.023434 a 1.50015,1.50015 0 0 0 0,0.0371 v 16.15625 c 0,3.31799 -2.74451,6.06055 -6.0625,6.06055 h -11.91016 c 5e-5,0 -0.002,0 -0.002,0 -2.76278,-4.10328 -4.70064,-8.65103 -6.0586,-13.45117 v -8.76563 c 0,-3.31799 2.74246,-6.060544 6.06055,-6.060544 z"
           id="path3552" />
        <path
           style="color:#000000;fill:#423232;stroke-linecap:round;stroke-linejoin:round;stroke-miterlimit:10;-inkscape-stroke:none"
           d="m 202.58789,104.7793 c -2.07107,0.08 -4.09858,0.26608 -5.88867,0.47656 a 1.5,1.5 0 0 0 -1.31445,1.66602 1.5,1.5 0 0 0 1.66601,1.31445 c 3.46182,-0.40704 7.84666,-0.69996 11.36328,-0.3086 a 1.5,1.5 0 0 0 1.65625,-1.32617 1.5,1.5 0 0 0 -1.32617,-1.65625 c -1.97068,-0.21931 -4.08518,-0.24599 -6.15625,-0.16601 z"
           id="path3554" />
        <path
           style="color:#000000;fill:#423232;stroke-linecap:round;stroke-linejoin:round;stroke-miterlimit:10;-inkscape-stroke:none"
           d="m 149.90625,105.97266 -24.0293,0.82812 a 1.5,1.5 0 0 0 -1.44726,1.55078 1.5,1.5 0 0 0 1.55078,1.44727 l 24.02734,-0.82813 a 1.5,1.5 0 0 0 1.44922,-1.55078 1.5,1.5 0 0 0 -1.55078,-1.44726 z"
           id="path3556" />
      </g>
    </g>
  </g>
</svg>
