<?xml version="1.0" encoding="UTF-8" standalone="no"?>
<!-- Created with Inkscape (http://www.inkscape.org/) -->

<svg
   width="79.375mm"
   height="79.375mm"
   viewBox="0 0 79.375 79.375"
   version="1.1"
   id="svg5"
   xmlns="http://www.w3.org/2000/svg"
   xmlns:svg="http://www.w3.org/2000/svg">
  <defs
     id="defs2">
    <clipPath
       id="clip0_421_1274">
      <rect
         width="300"
         height="300"
         fill="#ffffff"
         id="rect903"
         x="0"
         y="0" />
    </clipPath>
    <clipPath
       id="clip0_421_1274-3">
      <rect
         width="300"
         height="300"
         fill="#ffffff"
         id="rect1539"
         x="0"
         y="0" />
    </clipPath>
    <clipPath
       id="clip0_421_1274-35">
      <rect
         width="300"
         height="300"
         fill="#ffffff"
         id="rect1928"
         x="0"
         y="0" />
    </clipPath>
    <clipPath
       id="clip0_421_1274-8">
      <rect
         width="300"
         height="300"
         fill="#ffffff"
         id="rect2361"
         x="0"
         y="0" />
    </clipPath>
    <linearGradient
       id="paint0_linear_421_1274"
       x1="121.039"
       y1="222.77901"
       x2="121.039"
       y2="132.015"
       gradientUnits="userSpaceOnUse">
      <stop
         stop-color="#FF7300"
         id="stop2716" />
      <stop
         offset="0.1086"
         stop-color="#FF8D08"
         id="stop2718" />
      <stop
         offset="0.2899"
         stop-color="#FFB214"
         id="stop2720" />
      <stop
         offset="0.4716"
         stop-color="#FFCF1E"
         id="stop2722" />
      <stop
         offset="0.6514"
         stop-color="#FFE325"
         id="stop2724" />
      <stop
         offset="0.8286"
         stop-color="#FFF029"
         id="stop2726" />
      <stop
         offset="1"
         stop-color="#FFF42A"
         id="stop2728" />
    </linearGradient>
    <linearGradient
       id="paint1_linear_421_1274"
       x1="121.04"
       y1="129.14799"
       x2="121.04"
       y2="139.46899"
       gradientUnits="userSpaceOnUse">
      <stop
         stop-color="#FF7300"
         id="stop2731" />
      <stop
         offset="0.1086"
         stop-color="#FF8D08"
         id="stop2733" />
      <stop
         offset="0.2899"
         stop-color="#FFB214"
         id="stop2735" />
      <stop
         offset="0.4716"
         stop-color="#FFCF1E"
         id="stop2737" />
      <stop
         offset="0.6514"
         stop-color="#FFE325"
         id="stop2739" />
      <stop
         offset="0.8286"
         stop-color="#FFF029"
         id="stop2741" />
      <stop
         offset="1"
         stop-color="#FFF42A"
         id="stop2743" />
    </linearGradient>
    <linearGradient
       id="paint2_linear_421_1274"
       x1="226.423"
       y1="222.77901"
       x2="226.423"
       y2="132.015"
       gradientUnits="userSpaceOnUse">
      <stop
         stop-color="#FF7300"
         id="stop2746" />
      <stop
         offset="0.1086"
         stop-color="#FF8D08"
         id="stop2748" />
      <stop
         offset="0.2899"
         stop-color="#FFB214"
         id="stop2750" />
      <stop
         offset="0.4716"
         stop-color="#FFCF1E"
         id="stop2752" />
      <stop
         offset="0.6514"
         stop-color="#FFE325"
         id="stop2754" />
      <stop
         offset="0.8286"
         stop-color="#FFF029"
         id="stop2756" />
      <stop
         offset="1"
         stop-color="#FFF42A"
         id="stop2758" />
    </linearGradient>
    <clipPath
       id="clip0_421_1274-6">
      <rect
         width="300"
         height="300"
         fill="#ffffff"
         id="rect2761"
         x="0"
         y="0" />
    </clipPath>
    <clipPath
       id="clip0_421_1274-9">
      <rect
         width="300"
         height="300"
         fill="#ffffff"
         id="rect3154"
         x="0"
         y="0" />
    </clipPath>
    <clipPath
       id="clip0_421_1274-61">
      <rect
         width="300"
         height="300"
         fill="#ffffff"
         id="rect3560"
         x="0"
         y="0" />
    </clipPath>
    <linearGradient
       id="paint0_linear_421_1274-3"
       x1="118.039"
       y1="225.166"
       x2="118.039"
       y2="137.532"
       gradientUnits="userSpaceOnUse">
      <stop
         stop-color="#FF7300"
         id="stop4079" />
      <stop
         offset="0.1086"
         stop-color="#FF8D08"
         id="stop4081" />
      <stop
         offset="0.2899"
         stop-color="#FFB214"
         id="stop4083" />
      <stop
         offset="0.4716"
         stop-color="#FFCF1E"
         id="stop4085" />
      <stop
         offset="0.6514"
         stop-color="#FFE325"
         id="stop4087" />
      <stop
         offset="0.8286"
         stop-color="#FFF029"
         id="stop4089" />
      <stop
         offset="1"
         stop-color="#FFF42A"
         id="stop4091" />
    </linearGradient>
    <linearGradient
       id="paint1_linear_421_1274-7"
       x1="118.04"
       y1="134.76401"
       x2="118.04"
       y2="144.729"
       gradientUnits="userSpaceOnUse">
      <stop
         stop-color="#FF7300"
         id="stop4094" />
      <stop
         offset="0.1086"
         stop-color="#FF8D08"
         id="stop4096" />
      <stop
         offset="0.2899"
         stop-color="#FFB214"
         id="stop4098" />
      <stop
         offset="0.4716"
         stop-color="#FFCF1E"
         id="stop4100" />
      <stop
         offset="0.6514"
         stop-color="#FFE325"
         id="stop4102" />
      <stop
         offset="0.8286"
         stop-color="#FFF029"
         id="stop4104" />
      <stop
         offset="1"
         stop-color="#FFF42A"
         id="stop4106" />
    </linearGradient>
    <linearGradient
       id="paint2_linear_421_1274-8"
       x1="223.423"
       y1="225.166"
       x2="223.423"
       y2="137.532"
       gradientUnits="userSpaceOnUse">
      <stop
         stop-color="#FF7300"
         id="stop4109" />
      <stop
         offset="0.1086"
         stop-color="#FF8D08"
         id="stop4111" />
      <stop
         offset="0.2899"
         stop-color="#FFB214"
         id="stop4113" />
      <stop
         offset="0.4716"
         stop-color="#FFCF1E"
         id="stop4115" />
      <stop
         offset="0.6514"
         stop-color="#FFE325"
         id="stop4117" />
      <stop
         offset="0.8286"
         stop-color="#FFF029"
         id="stop4119" />
      <stop
         offset="1"
         stop-color="#FFF42A"
         id="stop4121" />
    </linearGradient>
    <clipPath
       id="clip0_421_1274-4">
      <rect
         width="300"
         height="300"
         fill="#ffffff"
         id="rect4124"
         x="0"
         y="0" />
    </clipPath>
    <clipPath
       id="clip0_421_1274-2">
      <rect
         width="300"
         height="300"
         fill="#ffffff"
         id="rect4458"
         x="0"
         y="0" />
    </clipPath>
    <clipPath
       id="clip0_421_1274-1">
      <rect
         width="300"
         height="300"
         fill="#ffffff"
         id="rect4979"
         x="0"
         y="0" />
    </clipPath>
    <clipPath
       id="clip0_421_1274-24">
      <rect
         width="300"
         height="300"
         fill="#ffffff"
         id="rect5434"
         x="0"
         y="0" />
    </clipPath>
    <clipPath
       id="clip0_421_1274-46">
      <rect
         width="300"
         height="300"
         fill="#ffffff"
         id="rect5850"
         x="0"
         y="0" />
    </clipPath>
    <clipPath
       id="clip0_421_1274-5">
      <rect
         width="300"
         height="300"
         fill="#ffffff"
         id="rect6329"
         x="0"
         y="0" />
    </clipPath>
    <clipPath
       id="clip0_421_1274-38">
      <rect
         width="300"
         height="300"
         fill="#ffffff"
         id="rect6804"
         x="0"
         y="0" />
    </clipPath>
    <clipPath
       id="clip0_421_1274-44">
      <rect
         width="300"
         height="300"
         fill="#ffffff"
         id="rect7152"
         x="0"
         y="0" />
    </clipPath>
    <clipPath
       id="clip0_421_1274-94">
      <rect
         width="300"
         height="300"
         fill="#ffffff"
         id="rect7595"
         x="0"
         y="0" />
    </clipPath>
  </defs>
  <g
     id="layer1"
     transform="translate(-204.24663,-45.139475)">
    <g
       style="fill:none"
       id="g7646"
       transform="matrix(0.26458333,0,0,0.26458333,204.24663,45.139475)">
      <g
         clip-path="url(#clip0_421_1274-94)"
         id="g7593">
        <path
           id="rect7515"
           style="fill:#b5e2c9;fill-opacity:0.968627"
           d="M 0,0 H 300 V 300 H 0 Z" />
        <path
           d="m 250.926,257.095 c -0.774,0.554 -1.659,1.107 -2.434,1.66 -0.885,0.553 -1.66,1.107 -2.545,1.549 -0.774,0.443 -1.438,0.885 -2.213,1.328 -0.11,0.111 -0.221,0.111 -0.332,0.221 -2.545,1.549 -5.2,2.988 -7.856,4.315 -0.774,0.443 -1.659,0.886 -2.434,1.218 0,0 -0.11,0.11 -0.221,0.11 -0.885,0.443 -1.77,0.885 -2.656,1.328 -1.77,0.885 -3.651,1.66 -5.421,2.434 -0.885,0.443 -1.881,0.775 -2.766,1.107 -0.886,0.332 -1.881,0.774 -2.767,1.106 -0.885,0.332 -1.881,0.775 -2.766,1.107 0,0 0,0 -0.11,0 -0.886,0.332 -1.881,0.663 -2.767,0.995 -1.991,0.664 -4.094,1.328 -6.085,1.992 -0.664,0.221 -1.439,0.443 -2.102,0.664 -2.103,0.664 -4.205,1.217 -6.307,1.66 -0.775,0.221 -1.549,0.332 -2.435,0.553 -1.991,0.442 -4.094,0.885 -6.085,1.328 -0.443,0.11 -0.775,0.11 -1.217,0.221 -0.664,0.111 -1.439,0.221 -2.103,0.332 -0.995,0.11 -1.881,0.332 -2.876,0.442 -0.443,0.111 -0.886,0.111 -1.328,0.222 -0.553,0.11 -1.217,0.221 -1.881,0.221 -1.77,0.221 -3.651,0.443 -5.422,0.664 -0.553,0.111 -1.217,0.111 -1.77,0.221 h -0.111 c -0.774,0.111 -1.549,0.111 -2.323,0.221 -0.775,0.111 -1.549,0.111 -2.324,0.111 -0.443,0 -0.996,0.111 -1.438,0.111 -0.886,0 -1.66,0.11 -2.435,0.11 -1.106,0 -2.102,0.111 -3.208,0.111 -1.107,0 -2.103,0 -3.209,0 -0.775,0 -1.549,0 -2.324,0 -46.582,-0.664 -88.6277,-20.47 -118.5024,-51.893 0,0 0,-0.111 -0.1106,-0.111 3.43,-6.749 16.1544,-18.92 29.432,-28.989 16.8183,-12.725 40.607,-20.581 40.607,-20.581 0,0 15.602,-2.544 73.47,9.516 44.148,9.294 62.958,47.025 69.375,64.396 z"
           fill="#fee4bf"
           id="path7517" />
        <path
           d="m 193.832,223.348 c -2.323,11.397 -17.371,18.146 -42.709,7.967 -31.092,-12.614 -43.042,-48.132 -43.042,-48.132 -1.66,-25.448 -5.532,-47.246 -5.532,-47.246 35.96,-3.098 78.448,38.948 78.448,38.948 l 4.869,20.801 c 0.442,1.771 1.328,3.32 2.655,4.426 2.324,3.984 6.86,15.933 5.311,23.236 z"
           fill="#fee4bf"
           id="path7519" />
        <path
           d="m 188.521,200.223 c -21.133,-1.106 -36.734,-4.205 -53.442,-34.19 14.163,12.503 30.871,17.261 48.463,19.474 l 2.324,10.179 c 0.443,1.881 1.328,3.431 2.655,4.537 z"
           fill="#efbd9c"
           id="path7521" />
        <path
           d="m 232.227,66.8936 c 1.991,9.2944 2.987,16.8184 -2.434,41.6034 -5.422,24.785 4.979,49.57 -21.134,72.252 -17.593,15.269 -48.353,18.146 -72.916,1.439 -8.299,-5.643 -15.933,-13.499 -22.129,-23.789 -4.869,-8.078 -10.512,-15.712 -16.8188,-22.683 C 88.0541,126.2 77.5427,107.058 82.7431,73.2005 91.1522,18.0984 145.701,11.7916 177.899,17.8771 c 32.198,6.0856 48.906,24.453 54.328,49.0165 z"
           fill="#fee4bf"
           id="path7523" />
        <path
           d="m 126.338,110.157 c 0,0 -3.43,-16.5975 -19.584,-14.6059 -13.9418,1.7704 -18.8103,35.1859 12.835,44.4799"
           fill="#fee4bf"
           id="path7525" />
        <path
           style="color:#000000;fill:#423232;stroke-linecap:round;stroke-linejoin:round;stroke-miterlimit:10;-inkscape-stroke:none"
           d="m 110.66406,106.47266 c -0.79869,-0.0615 -1.54585,0.026 -2.22265,0.25 -1.35362,0.44796 -2.32813,1.38916 -2.97852,2.36914 -0.65039,0.97997 -1.01819,2.01623 -1.22851,2.90039 -0.10517,0.44208 -0.16974,0.84515 -0.20118,1.20312 -0.0314,0.35797 -0.0747,0.59074 0.0488,1.08594 a 1.5,1.5 0 0 0 1.81836,1.09375 1.5,1.5 0 0 0 1.0918,-1.81836 c 0.0683,0.27371 0.0147,0.0913 0.0312,-0.0977 0.0166,-0.18891 0.0579,-0.46489 0.13086,-0.77148 0.14586,-0.61318 0.42173,-1.3546 0.80859,-1.9375 0.38686,-0.5829 0.84281,-0.98805 1.42188,-1.17969 0.57906,-0.19163 1.3779,-0.22329 2.65429,0.31055 a 1.50015,1.50015 0 0 0 0.0117,0.004 c 0.73882,0.30232 1.17666,0.81903 1.49024,2.0957 0.31357,1.27667 0.34257,3.23266 0.0234,5.73242 a 1.50015,1.50015 0 0 0 -0.006,0.041 c -0.53619,5.36918 4.22657,8.38281 4.22657,8.38281 a 1.5,1.5 0 0 0 2.07226,-0.45703 1.5,1.5 0 0 0 -0.45703,-2.07031 c 0,0 -3.20328,-2.07579 -2.85547,-5.5586 l -0.006,0.041 c 0.34486,-2.70123 0.37499,-4.9496 -0.0859,-6.82617 -0.46069,-1.87562 -1.57193,-3.46007 -3.26563,-4.1543 -0.87944,-0.36671 -1.72778,-0.57742 -2.52344,-0.63867 z"
           id="path7527" />
        <path
           d="m 203.016,135.605 c 0,0 4.205,0.222 8.188,-4.536 2.213,-2.656 4.094,-5.975 2.877,-6.971 -1.217,-1.106 -21.244,1.992 -22.572,4.647 -1.328,2.656 6.418,6.86 11.507,6.86 z"
           fill="#efbd9c"
           id="path7529" />
        <path
           style="color:#000000;fill:#423232;stroke-linecap:round;stroke-linejoin:round;stroke-miterlimit:10;-inkscape-stroke:none"
           d="m 206.30469,96.927734 a 1.5,1.5 0 0 0 -1.46875,1.53125 c 0,0 0.2357,10.904526 7.17187,22.957036 h -0.002 c 1.15391,2.00881 0.91413,4.81501 -0.82813,7.40429 -1.74226,2.58928 -4.94685,4.85846 -9.48437,5.52149 a 1.5,1.5 0 0 0 -1.26758,1.70117 1.5,1.5 0 0 0 1.70117,1.26758 c 5.31048,-0.77598 9.29808,-3.48399 11.53907,-6.81446 2.24098,-3.33046 2.77449,-7.38499 0.9414,-10.57617 -6.56381,-11.40547 -6.77148,-21.523436 -6.77148,-21.523436 a 1.5,1.5 0 0 0 -1.53125,-1.46875 z"
           id="path7531" />
        <path
           d="m 223.707,159.837 c 0,0.111 0,0.111 0,0 -0.111,0.111 -0.111,0.111 0,0 -2.766,7.192 -7.303,14.052 -15.048,20.801 -17.593,15.27 -48.352,18.147 -72.916,1.439 -2.766,-1.881 -5.422,-3.983 -7.967,-6.307 -1.77,-2.213 -3.319,-4.536 -4.647,-6.971 -7.966,-14.937 -4.536,-28.879 -4.536,-28.879 0,0 4.536,0.111 9.958,10.733 4.536,8.852 22.019,8.52 29.211,-8.077 7.966,-18.478 27.883,-10.401 32.419,-8.63 4.537,1.77 11.618,1.77 11.618,1.77 17.925,-0.221 12.503,11.839 14.384,18.478 2.766,9.073 7.524,5.643 7.524,5.643 z"
           fill="#423232"
           id="path7533" />
        <path
           d="m 223.769,215.578 c 0,0 -17.371,-16.25 -34.518,-20.173 0,0 2.018,28.914 -18.379,26.785 -32.948,-3.474 -63.991,-38.44 -63.991,-38.44 0,0 -21.6297,6.052 -39.1124,19.388 0,0 2.3534,34.405 41.6894,51.44 39.336,17.034 94.138,8.629 107.138,-2.354 13,-10.983 10.423,-33.06 7.173,-36.646 z"
           fill="#ffffff"
           id="path7535" />
        <path
           d="m 58.1306,210.534 c 0,0 -21.7414,11.992 -33.6207,46.173 -11.8793,34.181 -11.5431,85.06 -11.5431,85.06 H 268.708 c 0,0 -7.172,-83.939 -32.5,-111.957 0,0 1.681,25.104 -47.965,27.681 C 138.596,260.069 78.8633,244.267 77.4064,235.078 76.0616,225.664 58.1306,210.534 58.1306,210.534 Z"
           fill="#ffffff"
           id="path7537" />
        <path
           d="m 246.631,343.784 c -70.379,32.5 -186.2588,3.138 -186.2588,3.138 0,0 -2.3534,-28.577 6.1638,-80.017 0.3362,-2.353 0.6724,-4.707 0.8966,-6.836 2.4655,-23.31 -3.25,-39.336 -9.3017,-49.422 0,-2.578 2.6896,-4.371 5.7155,-6.949 1.2327,-1.008 23.3103,-14.681 24.2069,-14.008 1.5689,2.241 3.0258,4.482 4.2586,6.836 12.5521,23.198 16.9221,48.077 43.0341,51.664 25.776,3.586 50.656,3.026 68.475,-0.897 17.146,-3.81 5.715,-32.276 -1.906,-46.284 -0.336,-0.561 -0.336,-0.785 -0.672,-1.009 2.578,-1.681 32.5,21.293 34.853,29.81 4.931,12.328 6.276,21.518 7.733,33.509 4.819,39.336 2.802,80.465 2.802,80.465 z"
           fill="#77a0e0"
           id="path7539" />
        <path
           d="m 92.7603,247.405 c 3.9612,0 7.1724,-3.211 7.1724,-7.172 0,-3.961 -3.2112,-7.173 -7.1724,-7.173 -3.9612,0 -7.1724,3.212 -7.1724,7.173 0,3.961 3.2112,7.172 7.1724,7.172 z"
           fill="#647184"
           id="path7541" />
        <path
           d="m 226.458,250.431 c 3.59,0 6.5,-2.91 6.5,-6.5 0,-3.59 -2.91,-6.5 -6.5,-6.5 -3.59,0 -6.5,2.91 -6.5,6.5 0,3.59 2.91,6.5 6.5,6.5 z"
           fill="#647184"
           id="path7543" />
        <path
           style="color:#000000;fill:#647184;stroke-miterlimit:10;-inkscape-stroke:none"
           d="m 203.53125,257.75195 c -1.54903,-0.11268 -3.13435,-0.0647 -4.73828,0.16016 h -0.004 -0.002 c -17.63317,2.55012 -38.8628,2.22455 -55.84375,1.21875 h -0.002 -0.002 c -16.58114,-0.94695 -30.1391,13.20295 -28.36132,29.67773 0.89176,8.25376 1.67702,18.32508 2.57226,30.75391 0.22894,3.51566 2.23716,6.566 5.2832,9.02734 3.04604,2.46135 7.16286,4.43293 12.00391,6.01368 9.6821,3.16148 22.29546,4.73463 34.99609,4.69921 12.70064,-0.0354 25.46705,-1.67852 35.44922,-5.10156 4.99109,-1.71152 9.29426,-3.86655 12.54883,-6.5664 3.25458,-2.69985 5.47476,-6.00858 6.02734,-9.86133 1.93226,-12.85241 1.5841,-27.38374 0.79688,-39.3125 v -0.006 -0.008 c -0.84014,-11.23085 -9.88141,-19.90652 -20.72461,-20.69532 z m -0.20703,2.98828 c 9.40893,0.67585 17.20984,8.17827 17.93945,17.93164 0.77998,11.8259 1.104,26.19728 -0.77148,38.66407 l -0.002,0.006 v 0.006 c -0.42791,2.98348 -2.1219,5.61204 -4.97461,7.97851 -2.8527,2.36648 -6.84829,4.40581 -11.60546,6.03711 -9.51434,3.26261 -22.04137,4.90475 -34.48633,4.93945 -12.44497,0.0347 -24.83048,-1.53817 -34.05664,-4.55078 -4.61308,-1.5063 -8.42878,-3.37896 -11.04883,-5.49609 -2.62005,-2.11713 -4.01052,-4.37889 -4.17383,-6.88672 l -0.002,-0.006 v -0.006 c -0.89634,-12.44466 -1.68213,-22.54199 -2.58203,-30.87109 -1.58416,-14.68053 10.40917,-27.20318 25.20507,-26.35938 h 0.002 c 17.0887,1.01212 38.44312,1.35769 56.44726,-1.24609 l -0.006,0.002 c 1.39382,-0.19539 2.77111,-0.23913 4.11524,-0.14258 z"
           id="path7545" />
        <path
           d="m 175.466,222.078 c 0,0 -20.508,24.879 -26.784,22.974 -6.276,-1.905 -45.276,-22.638 -51.4398,-58.052 0,0 4.8188,-7.845 9.0778,-10.31 0,0 11.767,20.732 33.06,33.172 20.285,11.767 36.086,12.216 36.086,12.216 z"
           fill="#ffffff"
           id="path7547" />
        <path
           style="color:#000000;fill:#d0d6dd;stroke-linecap:round;stroke-linejoin:round;stroke-miterlimit:10;-inkscape-stroke:none"
           d="m 96.984375,185.52148 a 1.5,1.5 0 0 0 -1.220703,1.73633 c 3.165059,18.18479 14.707608,32.47796 26.171878,42.46485 5.73213,4.99344 11.4563,8.9167 16.16015,11.72265 4.70386,2.80595 8.27095,4.47249 10.15039,5.04297 1.32729,0.40288 2.65106,0.072 3.98047,-0.49805 1.32941,-0.57 2.71819,-1.44145 4.17774,-2.51562 2.91909,-2.14834 6.10378,-5.11914 9.08984,-8.14063 5.97212,-6.04296 11.12891,-12.30273 11.12891,-12.30273 a 1.5,1.5 0 0 0 -0.20313,-2.11133 1.5,1.5 0 0 0 -2.11133,0.20313 c 0,0 -5.0964,6.18129 -10.94726,12.10156 -2.92543,2.96013 -6.04505,5.8533 -8.73633,7.83398 -1.34564,0.99035 -2.58865,1.7479 -3.58203,2.17383 -0.99339,0.42593 -1.68407,0.45814 -1.92578,0.38477 -1.25855,-0.38202 -4.918,-2.0241 -9.48438,-4.74805 -4.56638,-2.72395 -10.15373,-6.55353 -15.72656,-11.4082 -11.14566,-9.70935 -22.18681,-23.48958 -25.185547,-40.71875 a 1.5,1.5 0 0 0 -1.736328,-1.22071 z"
           id="path7549" />
        <path
           d="m 175.467,222.078 c 0,0 15.914,18.603 21.181,18.827 5.267,0.224 7.508,-32.5 -8.293,-49.086 0,0 -2.466,0.672 -3.474,0.897 -0.112,-0.113 7.844,23.758 -9.414,29.362 z"
           fill="#ffffff"
           id="path7551" />
        <path
           style="color:#000000;fill:#d0d6dd;stroke-linecap:round;stroke-linejoin:round;stroke-miterlimit:10;-inkscape-stroke:none"
           d="m 188.39062,190.32031 a 1.5,1.5 0 0 0 -1.07031,0.41211 1.5,1.5 0 0 0 -0.0508,2.1211 c 7.53624,7.91064 10.898,19.93793 11.63672,29.92382 0.36936,4.99295 0.0853,9.47533 -0.57617,12.57227 -0.33073,1.54847 -0.77021,2.75036 -1.16992,3.42773 -0.39972,0.67737 -0.56763,0.62387 -0.44922,0.62891 -0.46818,-0.0199 -2.50737,-0.99889 -4.66016,-2.71094 -2.15279,-1.71205 -4.60784,-4.02852 -6.90234,-6.34375 -4.58901,-4.63045 -8.54102,-9.24804 -8.54102,-9.24804 a 1.5,1.5 0 0 0 -2.11523,-0.16602 1.5,1.5 0 0 0 -0.16407,2.11523 c 0,0 4.00472,4.68312 8.68946,9.41016 2.34237,2.36352 4.85359,4.74107 7.16601,6.58008 2.31243,1.83901 4.23508,3.26924 6.40039,3.36133 1.43516,0.061 2.49091,-0.96743 3.16016,-2.10157 0.66925,-1.13413 1.14639,-2.58106 1.51953,-4.32812 0.74629,-3.49412 1.02191,-8.18663 0.63477,-13.41992 -0.77428,-10.46659 -4.19229,-23.09419 -12.45703,-31.76953 a 1.5,1.5 0 0 0 -1.05079,-0.46485 z"
           id="path7553" />
        <path
           style="color:#000000;fill:#d0d6dd;stroke-linecap:round;stroke-linejoin:round;stroke-miterlimit:10;-inkscape-stroke:none"
           d="m 174.9043,222.75781 a 1.5,1.5 0 0 0 -2.11914,0.10742 c 0,0 -1.00842,1.15465 -1.73047,3.19532 -0.72206,2.04066 -1.25281,5.08071 -0.65821,9.12304 a 1.50015,1.50015 0 0 0 0,0.004 c 1.09416,7.33478 0.88086,14.75 0.88086,14.75 a 1.5,1.5 0 0 0 1.45508,1.54492 1.5,1.5 0 0 0 1.54297,-1.45508 c 0,0 0.23496,-7.59953 -0.91016,-15.27929 v -0.004 c -0.52532,-3.57622 -0.0489,-6.08269 0.51758,-7.68359 0.5667,-1.60159 1.12891,-2.1836 1.12891,-2.1836 a 1.5,1.5 0 0 0 -0.10742,-2.11914 z"
           id="path7555" />
        <path
           d="m 179.614,240.681 c 1.423,0 2.577,-1.154 2.577,-2.578 0,-1.423 -1.154,-2.577 -2.577,-2.577 -1.424,0 -2.578,1.154 -2.578,2.577 0,1.424 1.154,2.578 2.578,2.578 z"
           fill="#d0d6dd"
           id="path7557" />
        <path
           style="color:#000000;fill:#423232;stroke-linecap:round;stroke-linejoin:round;stroke-miterlimit:10;-inkscape-stroke:none"
           d="m 166.43945,93.105469 a 1.5,1.5 0 0 0 -2.09765,0.304687 1.5,1.5 0 0 0 0.30468,2.09961 c 7.48597,5.588114 15.01758,5.498044 15.01758,5.498044 a 1.5,1.5 0 0 0 1.47852,-1.521482 1.5,1.5 0 0 0 -1.52149,-1.478516 c 0,0 -6.46762,0.109529 -13.18164,-4.902343 z"
           id="path7559" />
        <path
           style="color:#000000;fill:#423232;stroke-linecap:round;stroke-linejoin:round;stroke-miterlimit:10;-inkscape-stroke:none"
           d="m 219.54297,95.806641 a 1.5,1.5 0 0 0 -2.09961,0.300781 c -0.62314,0.830856 -2.7525,1.935193 -4.70508,2.574219 -1.95258,0.639025 -3.66211,0.949218 -3.66211,0.949218 a 1.5,1.5 0 0 0 -1.20898,1.742191 1.5,1.5 0 0 0 1.74218,1.21093 c 0,0 1.89009,-0.3398 4.0625,-1.05078 2.17242,-0.71097 4.69502,-1.657809 6.17188,-3.62695 a 1.5,1.5 0 0 0 -0.30078,-2.099609 z"
           id="path7561" />
        <path
           d="m 184.443,91.807 c 1.9,1.1 4.3,-0.4 4.4,-2.7 0,-1.2 -0.2,-2.5 -1,-3.6 -2.4,-3.2 -14.1,-8.1001 -22.2,-6 -7,1.8 10.1,7.3 18.8,12.3 z"
           fill="#423232"
           id="path7563" />
        <path
           d="m 215.143,93.007 c -1.4,1.1 -3.7,-0.2 -4,-2.3 -0.2,-1.1 -0.1,-2.3 0.4,-3.3 1.6,-3 9,-7.1 15,-5.1 5.2,1.9 -4.7,5.8 -11.4,10.7 z"
           fill="#423232"
           id="path7565" />
        <path
           d="m 168.343,96.1069 c -0.8,0.7 -1.3,1.8 -1.4,2.9 l -0.1,2.8001 c -0.1,2.4 1.7,4.4 4,4.5 2.4,0.1 4.4,-1.7 4.5,-4 l 0.1,-2.8001 c 0,-0.1 0,-0.2 0,-0.3 -2.6,-0.2 -4.9,-1.3 -7.1,-3.1 z"
           fill="#423232"
           id="path7567" />
        <path
           d="m 209.343,100.907 c 0,0.1 0,0.1 0,0.2 l -0.1,2.6 c -0.1,2.2 1.6,4.1 3.8,4.2 2.2,0.1 4.1,-1.6 4.2,-3.8 l 0.1,-2.6 c 0.1,-1 -0.3,-1.9 -0.8,-2.6 -2.2,1.3 -4.6,1.6 -7.2,2 z"
           fill="#423232"
           id="path7569" />
        <path
           d="m 136.397,81.6752 c 0,0 -42.3658,2.8392 -55.8706,-0.5258 0,0 2.1782,-46.6887 17.7523,-65.932 C 113.853,-4.02589 185.298,-4.13105 209.367,4.49164 231.149,12.3782 233.981,58.6463 233.981,58.6463 Z"
           fill="#3f3c3c"
           id="path7571" />
        <path
           d="M 233.981,58.6463 140.536,80.7288 C 139.992,68.636 138.685,31.4112 145.11,17.3205 152.843,0.390588 197.823,0.495744 216.664,9.11843 231.694,23.3143 233.981,58.6463 233.981,58.6463 Z"
           fill="#ffffff"
           id="path7573" />
        <path
           d="m 255,78.0999 c 0,12.7237 -21.347,7.0454 -21.347,7.0454 0.981,-8.9382 0.109,-13.8804 -1.198,-19.4536 -0.435,-1.6825 -0.871,-3.365 -1.307,-5.0475 6.971,-0.736 12.198,1.1568 15.901,3.8908 5.555,4.2062 7.951,10.5154 7.951,13.5649 z"
           fill="#baaea6"
           id="path7575" />
        <path
           d="m 188.239,37.8257 c 7.157,0 12.96,-5.6025 12.96,-12.5134 0,-6.911 -5.803,-12.5134 -12.96,-12.5134 -7.158,0 -12.961,5.6024 -12.961,12.5134 0,6.9109 5.803,12.5134 12.961,12.5134 z"
           fill="#ffffff"
           id="path7577" />
        <path
           d="m 201.2,25.3123 c 0,5.7835 -4.029,10.5154 -9.475,12.0928 -5.445,-1.4722 -9.475,-6.3093 -9.475,-12.0928 0,-5.7835 4.03,-10.6207 9.475,-12.0928 5.446,1.5773 9.475,6.4144 9.475,12.0928 z"
           fill="#6bd5e1"
           id="path7579" />
        <path
           d="m 208.17,25.3123 c 0,6.9402 -5.772,12.5134 -12.96,12.5134 -0.327,0 -0.654,0 -0.98,0 -0.218,0 -0.545,0 -0.763,-0.1052 -0.218,0 -0.544,-0.1051 -0.871,-0.1051 -0.327,-0.1052 -0.545,-0.1052 -0.871,-0.2103 5.445,-1.4722 9.475,-6.3093 9.475,-12.0928 0,-5.7835 -4.03,-10.5155 -9.475,-12.0928 0.217,-0.1052 0.544,-0.1052 0.871,-0.2103 0.218,0 0.436,-0.1052 0.653,-0.1052 0.109,0 0.218,0 0.436,0 0.218,0 0.327,0 0.545,0 0.326,0 0.653,0 1.089,0 7.079,-0.1051 12.851,5.4681 12.851,12.4083 z"
           fill="#ffd98e"
           id="path7581" />
        <path
           d="m 188.239,13.8504 c 6.534,0 11.871,5.1526 11.871,11.4619 0,6.3093 -5.337,11.4618 -11.871,11.4618 -6.535,0 -11.872,-5.1525 -11.872,-11.4618 0,-6.3093 5.337,-11.4619 11.872,-11.4619 z m 0,-1.0515 c -7.188,0 -12.961,5.5732 -12.961,12.5134 0,6.9402 5.773,12.5134 12.961,12.5134 7.188,0 12.96,-5.5732 12.96,-12.5134 0,-6.9402 -5.881,-12.5134 -12.96,-12.5134 z"
           fill="#4c4c4c"
           id="path7583" />
        <path
           d="m 140.753,71.2649 c 0,0 -38.989,2.1031 -58.1577,1.0515 -1.0891,-0.1051 -1.0891,-0.9464 -1.0891,-1.9979 l 0.1089,-1.8928 c 0,0 -2.0692,0.5258 -2.9405,3.2598 -0.4357,1.4722 -0.7624,5.0474 -0.6535,7.2557 0.1089,1.367 1.0891,2.5237 2.5049,2.734 6.3168,1.0515 27.554,3.5753 55.871,0.1052 0,-0.1052 3.703,-6.099 4.356,-10.5155 z"
           fill="#332e2e"
           id="path7585" />
        <path
           d="m 246.941,64.535 c -4.574,-3.365 -11.435,-5.3629 -20.802,-3.0495 -5.336,1.367 -11.653,4.101 -18.841,8.7278 -35.178,23.0289 -70.901,11.4619 -70.901,11.4619 0,0 1.09,-5.1526 5.01,-11.4619 5.773,-9.2536 17.753,-21.0309 41.822,-22.5031 21.128,-1.2618 36.703,2.6289 47.267,7.0454 10.455,4.4165 15.901,9.2536 16.445,9.7794 z"
           fill="#ffffff"
           id="path7587" />
        <path
           style="color:#000000;fill:#e8e7e6;stroke-linecap:round;stroke-linejoin:round;stroke-miterlimit:10;-inkscape-stroke:none"
           d="m 198.125,46.160156 c -4.65438,-0.259953 -9.64759,-0.266104 -14.98633,0.05273 a 1.50015,1.50015 0 0 0 -0.002,0 c -24.52528,1.500108 -37.03913,13.647501 -43.00195,23.207031 a 1.5,1.5 0 0 0 0.47851,2.066406 1.5,1.5 0 0 0 2.06641,-0.478516 c 5.581,-8.947392 17.02739,-20.355956 40.63867,-21.800781 20.90102,-1.248244 36.23045,2.596599 46.59961,6.931641 a 1.5,1.5 0 0 0 1.96289,-0.804688 1.5,1.5 0 0 0 -0.80664,-1.96289 C 223.0051,49.997632 212.08815,46.940016 198.125,46.160156 Z"
           id="path7589" />
        <path
           style="color:#000000;fill:#fee4bf;stroke-linecap:round;stroke-linejoin:round;stroke-miterlimit:10;-inkscape-stroke:none"
           d="m 180.77344,146.78711 a 1.23405,1.23405 0 0 0 -0.79102,0.51367 1.23405,1.23405 0 0 0 0.31836,1.7168 c 5.38969,3.69881 12.74176,5.54935 17.82617,2.54492 a 1.23405,1.23405 0 0 0 0.43555,-1.68945 1.23405,1.23405 0 0 0 -1.68945,-0.43555 c -3.71558,2.19557 -10.36353,0.84611 -15.17383,-2.45508 a 1.23405,1.23405 0 0 0 -0.92578,-0.19531 z"
           id="path7591" />
      </g>
    </g>
  </g>
</svg>
