<?xml version="1.0" encoding="UTF-8" standalone="no"?>
<!-- Created with Inkscape (http://www.inkscape.org/) -->

<svg
   width="79.375mm"
   height="79.375mm"
   viewBox="0 0 79.375 79.375"
   version="1.1"
   id="svg5"
   xmlns="http://www.w3.org/2000/svg"
   xmlns:svg="http://www.w3.org/2000/svg">
  <defs
     id="defs2">
    <clipPath
       id="clip0_421_1274">
      <rect
         width="300"
         height="300"
         fill="#ffffff"
         id="rect903"
         x="0"
         y="0" />
    </clipPath>
    <clipPath
       id="clip0_421_1274-3">
      <rect
         width="300"
         height="300"
         fill="#ffffff"
         id="rect1539"
         x="0"
         y="0" />
    </clipPath>
    <clipPath
       id="clip0_421_1274-35">
      <rect
         width="300"
         height="300"
         fill="#ffffff"
         id="rect1928"
         x="0"
         y="0" />
    </clipPath>
    <clipPath
       id="clip0_421_1274-8">
      <rect
         width="300"
         height="300"
         fill="#ffffff"
         id="rect2361"
         x="0"
         y="0" />
    </clipPath>
    <linearGradient
       id="paint0_linear_421_1274"
       x1="121.039"
       y1="222.77901"
       x2="121.039"
       y2="132.015"
       gradientUnits="userSpaceOnUse">
      <stop
         stop-color="#FF7300"
         id="stop2716" />
      <stop
         offset="0.1086"
         stop-color="#FF8D08"
         id="stop2718" />
      <stop
         offset="0.2899"
         stop-color="#FFB214"
         id="stop2720" />
      <stop
         offset="0.4716"
         stop-color="#FFCF1E"
         id="stop2722" />
      <stop
         offset="0.6514"
         stop-color="#FFE325"
         id="stop2724" />
      <stop
         offset="0.8286"
         stop-color="#FFF029"
         id="stop2726" />
      <stop
         offset="1"
         stop-color="#FFF42A"
         id="stop2728" />
    </linearGradient>
    <linearGradient
       id="paint1_linear_421_1274"
       x1="121.04"
       y1="129.14799"
       x2="121.04"
       y2="139.46899"
       gradientUnits="userSpaceOnUse">
      <stop
         stop-color="#FF7300"
         id="stop2731" />
      <stop
         offset="0.1086"
         stop-color="#FF8D08"
         id="stop2733" />
      <stop
         offset="0.2899"
         stop-color="#FFB214"
         id="stop2735" />
      <stop
         offset="0.4716"
         stop-color="#FFCF1E"
         id="stop2737" />
      <stop
         offset="0.6514"
         stop-color="#FFE325"
         id="stop2739" />
      <stop
         offset="0.8286"
         stop-color="#FFF029"
         id="stop2741" />
      <stop
         offset="1"
         stop-color="#FFF42A"
         id="stop2743" />
    </linearGradient>
    <linearGradient
       id="paint2_linear_421_1274"
       x1="226.423"
       y1="222.77901"
       x2="226.423"
       y2="132.015"
       gradientUnits="userSpaceOnUse">
      <stop
         stop-color="#FF7300"
         id="stop2746" />
      <stop
         offset="0.1086"
         stop-color="#FF8D08"
         id="stop2748" />
      <stop
         offset="0.2899"
         stop-color="#FFB214"
         id="stop2750" />
      <stop
         offset="0.4716"
         stop-color="#FFCF1E"
         id="stop2752" />
      <stop
         offset="0.6514"
         stop-color="#FFE325"
         id="stop2754" />
      <stop
         offset="0.8286"
         stop-color="#FFF029"
         id="stop2756" />
      <stop
         offset="1"
         stop-color="#FFF42A"
         id="stop2758" />
    </linearGradient>
    <clipPath
       id="clip0_421_1274-6">
      <rect
         width="300"
         height="300"
         fill="#ffffff"
         id="rect2761"
         x="0"
         y="0" />
    </clipPath>
    <clipPath
       id="clip0_421_1274-9">
      <rect
         width="300"
         height="300"
         fill="#ffffff"
         id="rect3154"
         x="0"
         y="0" />
    </clipPath>
    <clipPath
       id="clip0_421_1274-61">
      <rect
         width="300"
         height="300"
         fill="#ffffff"
         id="rect3560"
         x="0"
         y="0" />
    </clipPath>
    <linearGradient
       id="paint0_linear_421_1274-3"
       x1="118.039"
       y1="225.166"
       x2="118.039"
       y2="137.532"
       gradientUnits="userSpaceOnUse">
      <stop
         stop-color="#FF7300"
         id="stop4079" />
      <stop
         offset="0.1086"
         stop-color="#FF8D08"
         id="stop4081" />
      <stop
         offset="0.2899"
         stop-color="#FFB214"
         id="stop4083" />
      <stop
         offset="0.4716"
         stop-color="#FFCF1E"
         id="stop4085" />
      <stop
         offset="0.6514"
         stop-color="#FFE325"
         id="stop4087" />
      <stop
         offset="0.8286"
         stop-color="#FFF029"
         id="stop4089" />
      <stop
         offset="1"
         stop-color="#FFF42A"
         id="stop4091" />
    </linearGradient>
    <linearGradient
       id="paint1_linear_421_1274-7"
       x1="118.04"
       y1="134.76401"
       x2="118.04"
       y2="144.729"
       gradientUnits="userSpaceOnUse">
      <stop
         stop-color="#FF7300"
         id="stop4094" />
      <stop
         offset="0.1086"
         stop-color="#FF8D08"
         id="stop4096" />
      <stop
         offset="0.2899"
         stop-color="#FFB214"
         id="stop4098" />
      <stop
         offset="0.4716"
         stop-color="#FFCF1E"
         id="stop4100" />
      <stop
         offset="0.6514"
         stop-color="#FFE325"
         id="stop4102" />
      <stop
         offset="0.8286"
         stop-color="#FFF029"
         id="stop4104" />
      <stop
         offset="1"
         stop-color="#FFF42A"
         id="stop4106" />
    </linearGradient>
    <linearGradient
       id="paint2_linear_421_1274-8"
       x1="223.423"
       y1="225.166"
       x2="223.423"
       y2="137.532"
       gradientUnits="userSpaceOnUse">
      <stop
         stop-color="#FF7300"
         id="stop4109" />
      <stop
         offset="0.1086"
         stop-color="#FF8D08"
         id="stop4111" />
      <stop
         offset="0.2899"
         stop-color="#FFB214"
         id="stop4113" />
      <stop
         offset="0.4716"
         stop-color="#FFCF1E"
         id="stop4115" />
      <stop
         offset="0.6514"
         stop-color="#FFE325"
         id="stop4117" />
      <stop
         offset="0.8286"
         stop-color="#FFF029"
         id="stop4119" />
      <stop
         offset="1"
         stop-color="#FFF42A"
         id="stop4121" />
    </linearGradient>
    <clipPath
       id="clip0_421_1274-4">
      <rect
         width="300"
         height="300"
         fill="#ffffff"
         id="rect4124"
         x="0"
         y="0" />
    </clipPath>
    <clipPath
       id="clip0_421_1274-2">
      <rect
         width="300"
         height="300"
         fill="#ffffff"
         id="rect4458"
         x="0"
         y="0" />
    </clipPath>
    <clipPath
       id="clip0_421_1274-1">
      <rect
         width="300"
         height="300"
         fill="#ffffff"
         id="rect4979"
         x="0"
         y="0" />
    </clipPath>
    <clipPath
       id="clip0_421_1274-24">
      <rect
         width="300"
         height="300"
         fill="#ffffff"
         id="rect5434"
         x="0"
         y="0" />
    </clipPath>
    <clipPath
       id="clip0_421_1274-46">
      <rect
         width="300"
         height="300"
         fill="#ffffff"
         id="rect5850"
         x="0"
         y="0" />
    </clipPath>
  </defs>
  <g
     id="layer1"
     transform="translate(-209.01017,-42.953513)">
    <g
       style="fill:none"
       id="g5910"
       transform="matrix(0.26458333,0,0,0.26458333,209.01017,42.953513)">
      <g
         clip-path="url(#clip0_421_1274-46)"
         id="g5848">
        <path
           id="rect5753"
           style="fill:#b5e2dc;fill-opacity:0.968627"
           d="M 0,0 H 300 V 300 H 0 Z" />
        <path
           d="m 251.148,266.099 c -0.775,0.553 -1.66,1.107 -2.434,1.66 -0.885,0.553 -1.66,1.106 -2.545,1.549 -0.775,0.443 -1.439,0.885 -2.213,1.328 -0.111,0.11 -0.221,0.11 -0.332,0.221 -2.545,1.549 -5.2,2.987 -7.856,4.315 -0.774,0.443 -1.66,0.885 -2.434,1.217 0,0 -0.111,0.111 -0.221,0.111 -0.886,0.443 -1.771,0.885 -2.656,1.328 -1.77,0.885 -3.651,1.659 -5.422,2.434 -0.885,0.443 -1.881,0.774 -2.766,1.106 -0.885,0.332 -1.881,0.775 -2.766,1.107 -0.885,0.332 -1.881,0.774 -2.766,1.106 0,0 0,0 -0.111,0 -0.885,0.332 -1.881,0.664 -2.766,0.996 -1.992,0.664 -4.094,1.328 -6.086,1.992 -0.663,0.221 -1.438,0.442 -2.102,0.664 -2.102,0.664 -4.204,1.217 -6.307,1.659 -0.774,0.222 -1.549,0.332 -2.434,0.554 -1.992,0.442 -4.094,0.885 -6.085,1.327 -0.443,0.111 -0.775,0.111 -1.218,0.222 -0.663,0.11 -1.438,0.221 -2.102,0.332 -0.996,0.11 -1.881,0.332 -2.877,0.442 -0.442,0.111 -0.885,0.111 -1.327,0.222 -0.554,0.11 -1.218,0.221 -1.881,0.221 -1.771,0.221 -3.652,0.442 -5.422,0.664 -0.553,0.11 -1.217,0.11 -1.77,0.221 h -0.111 c -0.775,0.111 -1.549,0.111 -2.324,0.221 -0.774,0.111 -1.549,0.111 -2.323,0.111 -0.443,0 -0.996,0.111 -1.439,0.111 -0.885,0 -1.659,0.11 -2.434,0.11 -1.106,0 -2.102,0.111 -3.209,0.111 -1.106,0 -2.102,0 -3.208,0 -0.775,0 -1.55,0 -2.324,0 -46.582,-0.664 -88.6281,-20.47 -118.5027,-51.893 0,0 0,-0.111 -0.1106,-0.111 3.43,-6.75 16.1544,-18.921 29.432,-28.99 16.8183,-12.724 40.6073,-20.58 40.6073,-20.58 0,0 15.601,-2.545 73.469,9.516 44.149,9.294 62.958,47.025 69.376,64.396 z"
           fill="#f7d3b5"
           id="path5755" />
        <path
           d="m 194.054,232.352 c -2.324,11.397 -17.371,18.146 -42.71,7.966 -31.091,-12.613 -43.041,-48.131 -43.041,-48.131 -1.66,-25.449 -5.532,-47.246 -5.532,-47.246 35.96,-3.098 78.448,38.948 78.448,38.948 l 4.869,20.801 c 0.442,1.771 1.327,3.32 2.655,4.426 2.324,3.983 6.86,15.933 5.311,23.236 z"
           fill="#f7d3b5"
           id="path5757" />
        <path
           d="m 188.743,209.227 c -21.133,-1.107 -36.735,-4.205 -53.442,-34.19 14.163,12.503 30.87,17.261 48.463,19.474 l 2.324,10.179 c 0.442,1.881 1.327,3.43 2.655,4.537 z"
           fill="#efbda5"
           id="path5759" />
        <path
           d="m 232.449,75.8974 c 1.991,9.2944 2.987,16.8183 -2.435,41.6036 -5.421,24.784 4.979,49.569 -21.133,72.252 -17.593,15.269 -48.353,18.146 -72.916,1.438 -8.299,-5.643 -15.934,-13.499 -22.13,-23.789 C 108.967,159.325 103.324,151.69 97.0169,144.72 88.2758,135.204 77.7644,116.062 82.9648,82.2043 91.3739,27.1022 145.923,20.7954 178.121,26.8809 c 32.198,6.0856 48.906,24.453 54.328,49.0165 z"
           fill="#f7d3b5"
           id="path5761" />
        <path
           d="m 126.56,119.16 c 0,0 -3.43,-16.597 -19.585,-14.605 -13.9411,1.77 -18.8096,35.186 12.835,44.48"
           fill="#f7d3b5"
           id="path5763" />
        <path
           style="color:#000000;fill:#423232;stroke-linecap:round;stroke-linejoin:round;stroke-miterlimit:10;-inkscape-stroke:none"
           d="m 110.88672,115.47656 c -0.79876,-0.0615 -1.54581,0.026 -2.22266,0.25 -1.3537,0.44791 -2.33004,1.3892 -2.98047,2.36914 -0.65042,0.97995 -1.01635,2.01625 -1.22656,2.90039 -0.1051,0.44208 -0.16984,0.84509 -0.20117,1.20313 -0.0313,0.35804 -0.0757,0.59147 0.0488,1.08789 a 1.5,1.5 0 0 0 1.81836,1.08984 1.5,1.5 0 0 0 1.09179,-1.82031 c 0.069,0.27517 0.0128,0.093 0.0293,-0.0957 0.0165,-0.18866 0.058,-0.46307 0.13086,-0.76953 0.14573,-0.61292 0.42177,-1.3547 0.80859,-1.9375 0.38683,-0.5828 0.84265,-0.98804 1.42188,-1.17969 0.57923,-0.19166 1.37958,-0.22332 2.65625,0.31055 a 1.50015,1.50015 0 0 0 0.01,0.004 c 0.73841,0.30186 1.17666,0.8189 1.49024,2.09571 0.31358,1.2768 0.34257,3.23267 0.0234,5.73242 a 1.50015,1.50015 0 0 0 -0.004,0.041 c -0.53623,5.3684 4.22656,8.38281 4.22656,8.38281 a 1.5,1.5 0 0 0 2.07032,-0.45703 1.5,1.5 0 0 0 -0.45508,-2.07226 c 0,0 -3.20519,-2.07505 -2.85742,-5.55664 0.33949,-2.68138 0.36852,-4.92077 -0.0898,-6.78711 -0.46068,-1.87573 -1.57151,-3.45864 -3.26562,-4.15235 -0.88024,-0.36719 -1.72715,-0.57737 -2.52344,-0.63867 z"
           id="path5765" />
        <path
           d="m 203.238,144.609 c 0,0 4.205,0.221 8.188,-4.536 2.213,-2.656 4.094,-5.975 2.877,-6.971 -1.217,-1.107 -21.244,1.991 -22.572,4.647 -1.328,2.655 6.417,6.86 11.507,6.86 z"
           fill="#efbda5"
           id="path5767" />
        <path
           style="color:#000000;fill:#423232;stroke-linecap:round;stroke-linejoin:round;stroke-miterlimit:10;-inkscape-stroke:none"
           d="m 206.52734,105.93164 a 1.5,1.5 0 0 0 -1.46875,1.53125 c 0,0 0.23478,10.90454 7.16993,22.95703 h -0.002 c 1.15429,2.0088 0.91411,4.81516 -0.82812,7.4043 -1.74224,2.58913 -4.94547,4.85893 -9.48242,5.52148 a 1.5,1.5 0 0 0 -1.26758,1.70117 1.5,1.5 0 0 0 1.70117,1.26758 c 5.31004,-0.77545 9.2961,-3.48409 11.53711,-6.81445 2.24101,-3.33036 2.77512,-7.38497 0.9414,-10.57617 -6.56284,-11.40549 -6.76953,-21.52344 -6.76953,-21.52344 a 1.5,1.5 0 0 0 -1.53125,-1.46875 z"
           id="path5769" />
        <path
           opacity="0.42"
           d="m 146.587,150.252 c 6.294,0 11.397,-4.211 11.397,-9.405 0,-5.194 -5.103,-9.405 -11.397,-9.405 -6.294,0 -11.397,4.211 -11.397,9.405 0,5.194 5.103,9.405 11.397,9.405 z"
           fill="#ed938a"
           id="path5771" />
        <path
           opacity="0.42"
           d="m 228.244,131.663 c -0.332,6.197 -0.221,12.282 -0.664,18.368 -4.868,-1.107 -8.409,-4.758 -8.409,-9.073 0,-4.647 3.873,-8.409 9.073,-9.295 z"
           fill="#ed938a"
           id="path5773" />
        <path
           d="m 234.078,80.4335 c -0.336,-1.68 -0.784,-3.472 -1.344,-5.152 -0.56,-1.68 -1.904,-3.136 -3.696,-3.472 -5.824,-1.008 -13.44,4.928 -21.504,3.808 -25.648,-3.472 -40.768,-17.248 -64.848,-7.952 -24.864,9.632 -10.752,49.7275 -16.016,55.8875 -0.896,-3.136 -5.264,-15.904 -19.6,-14.112 -13.5517,1.68 -18.7037,33.04 9.296,43.792 -0.224,6.16 -11.312,11.984 -20.2717,1.232 -8.96,-10.752 -26.88,-38.64 -14.784,-79.4075 12.096,-40.768 66.8637,-62.048 117.8237,-41.328 8.736,3.584 14,12.432 21.616,13.888 70.784,13.44 21.952,80.4155 19.824,98.4475 -0.56,6.16 -4.816,-57.5675 -6.496,-65.6315 z"
           fill="#423232"
           id="path5775" />
        <path
           d="m 116.478,153.345 c 0,0 -0.224,9.184 -9.632,26.208 0,0 -2.24,-9.407 -7.1678,-18.031 -4.816,-8.624 -10.192,-12.32 -16.128,-30.352 -5.936,-18.032 0.896,-9.968 6.272,-2.576 5.488,7.504 9.072,25.871 26.6558,24.751 z"
           fill="#423232"
           id="path5777" />
        <path
           d="m 215.486,68.7856 c 0,0 11.2,-21.952 -29.344,-41.776 -40.544,-19.82404 -82.096,-5.936 -107.0717,-8.624 0,0 28.2237,19.04 57.0077,23.968 28.784,4.928 79.408,26.432 79.408,26.432 z"
           fill="#423232"
           id="path5779" />
        <path
           d="m 135.518,29.4735 c 0,0 -54.5438,-0.56 -76.9438,57.904 0,0 22.176,-13.888 53.9838,-16.8 31.808,-2.912 36.848,-38.192 22.96,-41.104 z"
           fill="#423232"
           id="path5781" />
        <path
           d="m 221.311,71.3615 c 0,0 34.384,-12.096 12.992,-41.104 C 209.551,-3.11851 129.807,9.8735 129.807,9.8735 c 0,0 28.784,7.616 40.768,24.304 11.872,16.8 41.552,44.352 50.736,37.184 z"
           fill="#423232"
           id="path5783" />
        <path
           d="m 196.446,73.4895 c 0,0 -22.624,-12.096 -36.4,-0.336 -17.248,14.784 -12.768,87.3605 -12.768,87.3605 0,0 -20.272,-36.624 -19.936,-71.0085 0.336,-34.384 16.128,-43.008 32.704,-41.552 16.576,1.456 34.272,20.16 36.4,25.536 z"
           fill="#423232"
           id="path5785" />
        <path
           d="m 209.551,75.8415 c 0,0 -40.656,-35.056 -42.784,26.8795 0,0 -12.88,-12.9915 -2.464,-42.4475 10.416,-29.456 43.008,-5.936 45.248,15.568 z"
           fill="#423232"
           id="path5787" />
        <path
           d="m 89.0049,191.577 c 0,0 16.0601,-6.38 19.0301,-6.6 l 0.22,2.53 c 0,0 -12.7601,5.5 -13.5301,6.38 -0.77,0.88 -5.72,-2.31 -5.72,-2.31 z"
           fill="#7e5d6d"
           id="path5789" />
        <path
           d="M 287.225,334.357 H 9.14453 c 0,0 1.64997,-51.04 18.36997,-87.45 12.65,-27.5 43.01,-45.65 65.12,-53.57 6.27,-2.2 11.1105,-4.62 15.6205,-5.83 0,0.55 0.33,4.62 0.33,5.06 0,0 18.26,25.19 58.96,24.86 24.42,-0.11 17.6,-15.95 17.6,-15.95 2.09,-0.44 4.07,-0.99 6.05,-1.65 0.66,-0.22 5.28,-2.09 5.83,-2.31 14.19,3.74 31.57,14.3 56.76,35.42 28.38,23.87 33.44,101.42 33.44,101.42 z"
           fill="#e89d6b"
           id="path5791" />
        <mask
           id="mask0_421_1274"
           maskUnits="userSpaceOnUse"
           x="9"
           y="187"
           width="279"
           height="148">
          <path
             d="M 287.225,334.357 H 9.14453 c 0,0 1.64997,-51.04 18.36997,-87.45 12.65,-27.5 43.01,-45.65 65.12,-53.57 6.27,-2.2 11.1105,-4.62 15.6205,-5.83 0,0.55 0.33,4.62 0.33,5.06 0,0 18.26,25.19 58.96,24.86 24.42,-0.11 17.6,-15.95 17.6,-15.95 2.09,-0.44 4.07,-0.99 6.05,-1.65 0.66,-0.22 5.28,-2.09 5.83,-2.31 14.19,3.74 31.57,14.3 56.76,35.42 28.38,23.87 33.44,101.42 33.44,101.42 z"
             fill="#e89d6b"
             id="path5793" />
        </mask>
        <g
           mask="url(#mask0_421_1274)"
           id="g5810">
          <path
             d="m 66.2344,185.087 c 6.05,0.22 9.13,0.33 15.18,0.22 5.39,3.19 8.03,4.73 13.53,7.7 5.6096,-0.33 8.4696,-0.55 14.0796,-1.21 5.61,2.64 8.36,3.96 13.97,6.49 5.72,-0.88 8.58,-1.43 14.19,-2.53 5.72,2.2 8.69,3.19 14.41,5.06 5.72,-1.43 8.58,-2.31 14.3,-3.96 5.94,1.54 8.91,2.31 14.85,3.63 5.72,-2.09 8.58,-3.08 14.3,-5.39 6.05,0.99 9.13,1.43 15.18,2.2 5.61,-2.64 8.47,-3.96 14.08,-6.82 6.16,0.33 9.24,0.44 15.4,0.55 5.5,-3.3 8.25,-4.95 13.75,-8.36 6.93,-0.55 10.34,-0.88 17.27,-1.65 -0.55,2.64 -0.77,3.96 -1.21,6.6 -5.72,0.66 -8.69,0.99 -14.41,1.43 -5.61,3.52 -8.36,5.28 -14.08,8.58 -6.27,0 -9.35,-0.11 -15.62,-0.44 -5.72,2.86 -8.58,4.29 -14.3,6.93 -6.16,-0.77 -9.24,-1.21 -15.4,-2.09 -5.72,2.31 -8.69,3.41 -14.41,5.39 -6.05,-1.32 -9.02,-2.09 -14.96,-3.63 -5.72,1.65 -8.69,2.53 -14.41,3.96 -5.83,-1.98 -8.8,-2.97 -14.63,-5.17 -5.72,1.1 -8.58,1.65 -14.41,2.53 -5.72,-2.53 -8.47,-3.74 -14.19,-6.49 -5.72,0.55 -8.58,0.77 -14.1896,1.1 -5.5,-2.97 -8.25,-4.51 -13.64,-7.81 -5.06,0 -7.59,0 -12.65,-0.22 -0.77,-2.53 -1.1,-3.85 -1.98,-6.6 z"
             fill="#ffff8d"
             id="path5796" />
          <path
             d="m 64.6943,213.027 c 6.05,0.11 9.02,0.11 15.18,-0.11 5.5,3.08 8.25,4.51 13.75,7.37 5.61,-0.44 8.3597,-0.77 13.9697,-1.54 5.61,2.53 8.47,3.74 14.19,6.05 5.61,-0.99 8.36,-1.65 14.08,-2.86 5.83,1.98 8.8,2.97 14.63,4.73 5.61,-1.65 8.47,-2.42 14.08,-4.29 5.94,1.43 9.02,2.09 14.96,3.3 5.61,-2.2 8.36,-3.3 13.97,-5.72 6.16,0.88 9.13,1.21 15.29,1.76 5.5,-2.75 8.25,-4.18 13.75,-7.15 6.16,0.22 9.35,0.22 15.51,0.11 5.39,-3.3 8.03,-5.06 13.42,-8.58 6.93,-0.66 10.45,-0.99 17.38,-1.98 -0.44,2.64 -0.55,3.96 -0.99,6.49 -5.83,0.77 -8.69,1.1 -14.41,1.65 -5.5,3.63 -8.14,5.39 -13.64,8.8 -6.27,0.11 -9.46,0.11 -15.73,-0.11 -5.61,2.97 -8.36,4.4 -13.97,7.26 -6.16,-0.55 -9.35,-0.88 -15.51,-1.76 -5.61,2.42 -8.47,3.52 -14.19,5.72 -6.05,-1.21 -9.13,-1.87 -15.18,-3.3 -5.72,1.87 -8.47,2.64 -14.19,4.29 -5.94,-1.76 -8.91,-2.75 -14.74,-4.73 -5.72,1.21 -8.47,1.87 -14.19,2.86 -5.72,-2.31 -8.69,-3.52 -14.41,-6.16 -5.61,0.66 -8.4697,0.99 -14.0797,1.54 -5.61,-2.86 -8.36,-4.4 -13.86,-7.48 -5.06,0.11 -7.59,0.22 -12.54,0.11 -1.1,-2.42 -1.54,-3.74 -2.53,-6.27 z"
             fill="#ffff8d"
             id="path5798" />
          <path
             d="m 63.1543,240.527 c 5.94,-0.11 9.02,-0.22 15.07,-0.44 5.5,2.97 8.36,4.4 13.97,7.04 5.5,-0.66 8.2497,-0.99 13.7497,-1.87 5.72,2.42 8.58,3.52 14.41,5.72 5.5,-1.21 8.25,-1.76 13.86,-3.19 5.94,1.87 8.91,2.75 14.85,4.4 5.5,-1.76 8.25,-2.64 13.75,-4.51 6.05,1.32 9.13,1.87 15.18,2.97 5.5,-2.31 8.25,-3.41 13.64,-5.94 6.16,0.66 9.24,0.99 15.4,1.43 5.39,-2.86 8.14,-4.29 13.42,-7.37 6.27,0 9.35,0 15.62,-0.22 5.28,-3.41 7.92,-5.17 13.09,-8.69 6.93,-0.77 10.45,-1.21 17.38,-2.31 -0.33,2.53 -0.44,3.85 -0.66,6.49 -5.83,0.88 -8.69,1.32 -14.52,1.98 -5.28,3.63 -8.03,5.5 -13.31,8.91 -6.38,0.22 -9.57,0.33 -15.84,0.22 -5.5,3.08 -8.14,4.51 -13.64,7.48 -6.27,-0.44 -9.35,-0.66 -15.62,-1.43 -5.5,2.53 -8.25,3.74 -13.86,6.05 -6.16,-0.99 -9.24,-1.65 -15.29,-2.97 -5.61,1.98 -8.36,2.86 -13.97,4.62 -6.05,-1.65 -9.02,-2.53 -14.96,-4.4 -5.61,1.43 -8.36,2.09 -13.97,3.19 -5.83,-2.2 -8.8,-3.41 -14.52,-5.83 -5.61,0.88 -8.3597,1.21 -13.9697,1.87 -5.72,-2.75 -8.47,-4.18 -14.08,-7.15 -4.95,0.22 -7.48,0.33 -12.43,0.44 -1.1,-2.53 -1.65,-3.85 -2.75,-6.49 z"
             fill="#ffff8d"
             id="path5800" />
          <path
             d="m 61.5049,267.917 c 5.94,-0.22 8.91,-0.44 14.85,-0.88 5.61,2.86 8.47,4.18 14.19,6.71 5.39,-0.77 8.14,-1.21 13.6401,-2.2 5.83,2.31 8.8,3.41 14.63,5.39 5.39,-1.32 8.14,-1.98 13.64,-3.52 5.94,1.76 9.02,2.53 14.96,3.96 5.39,-1.87 8.14,-2.86 13.53,-4.84 6.16,1.1 9.13,1.65 15.29,2.53 5.39,-2.42 8.03,-3.63 13.42,-6.16 6.27,0.55 9.35,0.77 15.62,1.1 5.28,-2.86 7.92,-4.4 13.2,-7.48 6.27,-0.11 9.46,-0.22 15.73,-0.55 5.17,-3.41 7.7,-5.17 12.76,-8.8 7.04,-0.88 10.56,-1.43 17.49,-2.64 -0.22,2.53 -0.22,3.85 -0.44,6.38 -5.83,0.99 -8.69,1.43 -14.52,2.2 -5.17,3.74 -7.81,5.5 -12.98,9.02 -6.38,0.33 -9.57,0.44 -15.95,0.55 -5.28,3.19 -8.03,4.73 -13.31,7.59 -6.27,-0.33 -9.46,-0.44 -15.73,-0.99 -5.39,2.64 -8.14,3.85 -13.53,6.27 -6.27,-0.88 -9.35,-1.43 -15.51,-2.53 -5.5,2.09 -8.25,3.08 -13.75,4.95 -6.05,-1.43 -9.13,-2.31 -15.18,-3.96 -5.5,1.54 -8.25,2.2 -13.75,3.52 -5.94,-2.09 -8.91,-3.08 -14.85,-5.39 -5.5001,0.99 -8.2501,1.43 -13.7501,2.2 -5.83,-2.64 -8.69,-3.96 -14.3,-6.82 -4.95,0.44 -7.37,0.55 -12.32,0.77 -1.21,-2.53 -1.87,-3.85 -3.08,-6.38 z"
             fill="#ffff8d"
             id="path5802" />
          <path
             d="m 59.9648,294.977 c 5.83,-0.44 8.8001,-0.66 14.7401,-1.32 5.72,2.64 8.5799,3.96 14.4099,6.38 5.39,-0.88 8.03,-1.43 13.4202,-2.53 5.94,2.09 8.91,3.19 14.85,5.06 5.39,-1.43 8.03,-2.2 13.31,-3.85 6.05,1.54 9.13,2.31 15.18,3.63 5.28,-1.98 7.92,-2.97 13.31,-5.17 6.16,0.99 9.24,1.43 15.51,2.2 5.28,-2.53 7.81,-3.74 13.09,-6.38 6.27,0.44 9.46,0.55 15.73,0.77 5.17,-2.97 7.7,-4.51 12.87,-7.7 6.38,-0.22 9.46,-0.33 15.84,-0.77 4.95,-3.52 7.48,-5.28 12.43,-8.91 7.04,-0.99 10.56,-1.54 17.6,-2.86 -0.11,2.53 -0.11,3.74 -0.22,6.27 -5.83,1.1 -8.69,1.54 -14.52,2.42 -5.06,3.74 -7.59,5.61 -12.65,9.13 -6.38,0.55 -9.68,0.66 -16.06,0.88 -5.17,3.19 -7.81,4.84 -12.98,7.81 -6.38,-0.11 -9.57,-0.22 -15.95,-0.66 -5.28,2.75 -7.92,3.96 -13.2,6.49 -6.27,-0.77 -9.46,-1.21 -15.73,-2.2 -5.39,2.2 -8.03,3.19 -13.42,5.17 -6.16,-1.32 -9.24,-2.09 -15.4,-3.63 -5.39,1.65 -8.14,2.42 -13.53,3.85 -6.05,-1.87 -9.02,-2.86 -15.07,-5.06 -5.3901,1.1 -8.1402,1.65 -13.5302,2.53 -5.83,-2.42 -8.8,-3.74 -14.63,-6.38 -4.84,0.55 -7.26,0.77 -12.1,1.1 -1.32,-2.42 -1.98,-3.74 -3.3,-6.27 z"
             fill="#ffff8d"
             id="path5804" />
          <path
             d="m 58.3145,321.817 c 5.83,-0.55 8.6899,-0.88 14.52,-1.65 5.83,2.53 8.8,3.74 14.63,6.05 5.28,-1.1 7.92,-1.65 13.1995,-2.86 6.05,1.98 9.02,2.97 15.07,4.73 5.28,-1.54 7.81,-2.42 13.09,-4.18 6.16,1.43 9.24,2.09 15.4,3.3 5.17,-2.09 7.81,-3.19 12.98,-5.39 6.27,0.88 9.35,1.21 15.62,1.87 5.17,-2.53 7.7,-3.85 12.76,-6.6 6.38,0.33 9.46,0.33 15.84,0.44 5.06,-3.08 7.48,-4.62 12.54,-7.81 6.38,-0.33 9.57,-0.55 15.95,-1.1 4.84,-3.52 7.26,-5.39 12.1,-9.02 7.04,-1.1 10.67,-1.65 17.71,-3.08 0,2.42 0,3.74 0.11,6.16 -5.83,1.1 -8.69,1.65 -14.52,2.53 -4.95,3.74 -7.37,5.61 -12.32,9.24 -6.49,0.66 -9.68,0.88 -16.17,1.21 -5.06,3.3 -7.59,4.84 -12.65,8.03 -6.38,0 -9.68,-0.11 -16.06,-0.33 -5.17,2.75 -7.7,4.18 -12.98,6.71 -6.38,-0.55 -9.57,-0.99 -15.84,-1.76 -5.28,2.31 -7.92,3.41 -13.09,5.5 -6.27,-1.21 -9.35,-1.87 -15.62,-3.3 -5.28,1.76 -7.92,2.64 -13.2,4.18 -6.16,-1.76 -9.13,-2.64 -15.29,-4.62 -5.2795,1.32 -8.0295,1.87 -13.3095,2.97 -5.94,-2.31 -8.91,-3.52 -14.85,-6.05 -4.8401,0.66 -7.15,0.99 -11.99,1.43 -1.43,-2.75 -2.2,-4.07 -3.63,-6.6 z"
             fill="#ffff8d"
             id="path5806" />
          <path
             d="m 104.074,202.797 c 0,0 5.94,21.89 51.81,27.39 45.98,5.39 46.42,-23.54 36.3,-39.82 -10.12,-16.28 -79.97,-12.32 -87.45,-4.51 -7.4799,7.81 -0.66,16.94 -0.66,16.94 z"
             fill="#ffffff"
             id="path5808" />
        </g>
        <path
           style="color:#000000;fill:#544d4d;stroke-linecap:round;stroke-linejoin:round;stroke-miterlimit:10;-inkscape-stroke:none"
           d="m 58.464844,292.05859 a 1.5,1.5 0 0 0 -1.308594,1.66993 l 4.949219,40.80859 a 1.5,1.5 0 0 0 1.669922,1.30859 1.5,1.5 0 0 0 1.308593,-1.66992 l -4.951172,-40.80859 a 1.5,1.5 0 0 0 -1.667968,-1.3086 z"
           id="path5812" />
        <path
           style="color:#000000;fill:#544d4d;stroke-linecap:round;stroke-linejoin:round;stroke-miterlimit:10;-inkscape-stroke:none"
           d="m 256.22461,278.29883 a 1.5,1.5 0 0 0 -1.95703,0.81836 c 0,0 -3.4665,8.26021 -2.41211,16.8125 1.01115,8.20152 3.81466,19.56776 -0.19727,38.10937 a 1.5,1.5 0 0 0 1.15039,1.78321 1.5,1.5 0 0 0 1.78321,-1.14844 c 4.12806,-19.07836 1.21104,-31.25287 0.24218,-39.11133 -0.9256,-7.5077 2.20899,-15.30469 2.20899,-15.30469 a 1.5,1.5 0 0 0 -0.81836,-1.95898 z"
           id="path5814" />
        <path
           d="m 89.0052,191.577 c 2.09,-0.66 5.72,0 6.82,1.87 4.2898,7.04 14.6298,27.61 18.9198,68.42 3.41,31.9 -1.76,89.32 -1.76,89.32 L 6.28516,346.127 c 0,0 3.19,-54.23 12.54004,-90.64 9.13,-35.31 33.11,-51.15 70.18,-63.91 z"
           fill="#755b7a"
           id="path5816" />
        <path
           d="m 199.665,198.287 c 0,0 33.99,63.91 24.09,149.27 h 73.48 c 0,0 -0.44,-57.97 -16.94,-94.71 -16.5,-36.74 -74.25,-57.31 -74.25,-57.31 0,0 -3.63,1.76 -6.38,2.75 z"
           fill="#755b7a"
           id="path5818" />
        <path
           d="m 199.664,198.287 -2.64,-0.77 c 0,0 3.85,-1.87 5.5,-2.97 l 0.99,-0.55 c 0,0 5.28,2.42 7.15,3.3 1.87,0.88 -6.49,4.95 -6.49,4.95 0,0 -4.18,-3.85 -4.51,-3.96 z"
           fill="#7e5d6d"
           id="path5820" />
        <path
           d="m 113.535,251.637 c 0,0 -3.74,-10.67 -12.21,-20.13 -7.8105,-8.8 -22.1105,-22.44 -23.1005,-25.52 -1.87,-6.27 9.79,-29.92 28.0505,-38.17 0,0.11 0,0.22 0,0.33 0,0.11 0,0.22 0,0.44 0,0.22 0,0.44 0.11,0.66 0,0.33 0.11,0.66 0.11,0.99 0,0.22 0,0.33 0.11,0.55 0.77,6.6 1.43,13.97 1.98,21.78 v 0.11 c 0,0 -5.06,1.65 -1.43,26.84 0.99,6.05 4.73,16.83 6.38,32.12 z"
           fill="#4b3c4f"
           id="path5822" />
        <path
           d="m 218.915,255.047 c 0,0 -7.37,-28.6 -11,-37.73 -3.63,-9.02 -10.45,-19.25 -10.78,-19.8 4.29,-1.98 8.14,-4.51 11.55,-7.48 3.41,-2.97 6.16,-5.94 8.47,-8.91 2.75,3.08 19.14,21.56 20.9,31.68 1.98,11.22 -12.32,16.06 -19.14,42.24 z"
           fill="#4b3c4f"
           id="path5824" />
        <path
           d="m 174.072,110.311 c 0,0.1 0,0.2 0,0.2 l -0.1,2.8 c -0.1,2.4 -2.1,4.2 -4.5,4.1 -2.4,-0.1 -4.2,-2.2 -4,-4.5 l 0.1,-2.8 c 0,-0.5 0.2,-1.1 0.4,-1.5 l 8,0.4 c 0,0.4 0.1,0.8 0.1,1.3 z"
           fill="#423232"
           id="path5826" />
        <path
           d="m 215.871,112.511 -0.1,2.6 c -0.1,2.2 -2,3.9 -4.2,3.8 -2.2,-0.1 -3.9,-2 -3.8,-4.2 l 0.1,-2.6 c 0,-0.5 0.1,-1 0.3,-1.4 l 7.5,0.3 c 0.2,0.5 0.2,1 0.2,1.5 z"
           fill="#423232"
           id="path5828" />
        <path
           d="m 184.071,96.6113 c 2.2,0.3 3.9,-2 3.1,-4.2 -0.4,-1.2 -1.1,-2.3 -2.2,-3 -3.4,-2.1 -16.1,-2.3 -22.8,2.5 -5.9,4.4 11.9,3.3 21.9,4.7 z"
           fill="#423232"
           id="path5830" />
        <path
           d="m 211.771,97.7113 c -1.8,0 -2.9,-2.3 -2,-4.2 0.5,-1 1.2,-1.9 2.2,-2.4 3.1,-1.5 11.4,-0.6 15.1,4.5 3.3,4.4997 -7,2 -15.3,2.1 z"
           fill="#423232"
           id="path5832" />
        <path
           style="color:#000000;fill:#423232;stroke-linecap:round;stroke-linejoin:round;stroke-miterlimit:10;-inkscape-stroke:none"
           d="m 164.1543,107.01367 a 1.5,1.5 0 0 0 -1.58008,1.41406 1.5,1.5 0 0 0 1.41406,1.58008 l 1.79883,0.10157 a 1.50015,1.50015 0 0 0 0.0273,0 l 7.99414,0.30078 6.69532,0.29882 a 1.5,1.5 0 0 0 1.5664,-1.43164 1.5,1.5 0 0 0 -1.43164,-1.56445 l -6.70117,-0.30078 a 1.50015,1.50015 0 0 0 -0.01,0 l -7.98632,-0.29883 z"
           id="path5834" />
        <path
           style="color:#000000;fill:#423232;stroke-linecap:round;stroke-linejoin:round;stroke-miterlimit:10;-inkscape-stroke:none"
           d="m 207.87109,109.21094 a 1.5,1.5 0 0 0 -1.5,1.5 1.5,1.5 0 0 0 1.5,1.5 h 0.26953 l 7.4668,0.29883 4.39453,0.19921 a 1.5,1.5 0 0 0 1.56836,-1.42968 1.5,1.5 0 0 0 -1.43164,-1.56641 l -4.40039,-0.20117 a 1.50015,1.50015 0 0 0 -0.008,0 l -7.5,-0.29883 a 1.50015,1.50015 0 0 0 -0.0586,-0.002 z"
           id="path5836" />
        <path
           style="color:#000000;fill:#423232;stroke-linecap:round;stroke-linejoin:round;stroke-miterlimit:10;-inkscape-stroke:none"
           d="m 187.57617,154.48047 c -2.21469,-0.1156 -4.39091,0.15502 -6.27344,1.14258 a 1.5,1.5 0 0 0 -0.63086,2.02539 1.5,1.5 0 0 0 2.0254,0.63086 c 2.33493,-1.22489 6.79687,-0.76761 10.5957,0.26953 3.79883,1.03714 6.875,2.46289 6.875,2.46289 a 1.5,1.5 0 0 0 1.99219,-0.72852 1.5,1.5 0 0 0 -0.72852,-1.99218 c 0,0 -3.27345,-1.52387 -7.34961,-2.63672 -2.03808,-0.55643 -4.29117,-1.05823 -6.50586,-1.17383 z"
           id="path5838" />
        <path
           d="m 113.673,122.232 c 0,0 -9.143,-1.282 -8.458,10.682 0.343,6.089 0.343,9.4 0.229,11.109 -0.114,1.175 0.686,2.243 1.829,2.671 1.371,0.534 2.857,0 3.542,-1.282 1.029,-1.709 2.172,-4.059 2.172,-5.982 0,-3.205 3.657,-6.089 3.657,-6.089 0,0 -3.314,-2.67 -2.971,-11.109 z"
           fill="#ffffff"
           id="path5840" />
        <path
           d="m 141.33,328.178 c -0.914,-0.962 -36.8,-58.323 -31.428,-79.9 3.657,-14.848 -1.143,-31.939 -5.372,-47 -1.714,-6.196 -3.314,-11.964 -4.228,-17.091 -1.6004,-8.866 -0.4576,-17.305 3.428,-25.102 4.229,-8.76 3.543,-16.344 3.543,-16.45 l 2.286,-0.214 c 0,0.32 0.685,8.332 -3.772,17.518 -3.657,7.371 -4.685,15.489 -3.2,23.927 0.915,5.021 2.515,10.789 4.229,16.984 4.343,15.275 9.143,32.687 5.371,48.069 -5.028,20.509 30.743,77.87 30.972,78.084 z"
           fill="#ffffff"
           id="path5842" />
        <path
           d="m 105.559,139.109 c 0.114,2.35 0,3.953 0,4.914 -0.115,1.175 0.685,2.243 1.828,2.671 1.372,0.534 2.857,0 3.543,-1.282 1.029,-1.709 2.172,-4.059 2.172,-5.982 0,-0.107 0,-0.321 0,-0.427 -2.4,0.854 -5.143,1.495 -7.543,0.106 z"
           fill="#e5e5e5"
           id="path5844" />
        <path
           d="m 213.102,210.144 c -0.8,4.913 -0.915,12.711 -1.143,21.79 -0.343,17.519 -11.429,85.775 -16.8,96.564 l -2.057,-0.854 c 5.142,-10.469 16.228,-78.405 16.571,-95.71 0.229,-9.079 0.343,-16.984 1.143,-22.111 1.714,-10.789 0.457,-18.907 -0.229,-22.325 0.343,-0.32 0.686,-0.534 1.029,-0.854 0.343,-0.214 0.571,-0.535 0.914,-0.748 0.686,2.777 2.629,11.643 0.572,24.248 z"
           fill="#ffffff"
           id="path5846" />
      </g>
    </g>
  </g>
</svg>
