<?xml version="1.0" encoding="UTF-8" standalone="no"?>
<!-- Created with Inkscape (http://www.inkscape.org/) -->

<svg
   width="79.375mm"
   height="79.375mm"
   viewBox="0 0 79.375 79.375"
   version="1.1"
   id="svg5"
   xmlns="http://www.w3.org/2000/svg"
   xmlns:svg="http://www.w3.org/2000/svg">
  <defs
     id="defs2">
    <clipPath
       id="clip0_421_1274">
      <rect
         width="300"
         height="300"
         fill="#ffffff"
         id="rect903"
         x="0"
         y="0" />
    </clipPath>
    <clipPath
       id="clip0_421_1274-3">
      <rect
         width="300"
         height="300"
         fill="#ffffff"
         id="rect1539"
         x="0"
         y="0" />
    </clipPath>
    <clipPath
       id="clip0_421_1274-35">
      <rect
         width="300"
         height="300"
         fill="#ffffff"
         id="rect1928"
         x="0"
         y="0" />
    </clipPath>
    <clipPath
       id="clip0_421_1274-8">
      <rect
         width="300"
         height="300"
         fill="#ffffff"
         id="rect2361"
         x="0"
         y="0" />
    </clipPath>
    <linearGradient
       id="paint0_linear_421_1274"
       x1="121.039"
       y1="222.77901"
       x2="121.039"
       y2="132.015"
       gradientUnits="userSpaceOnUse">
      <stop
         stop-color="#FF7300"
         id="stop2716" />
      <stop
         offset="0.1086"
         stop-color="#FF8D08"
         id="stop2718" />
      <stop
         offset="0.2899"
         stop-color="#FFB214"
         id="stop2720" />
      <stop
         offset="0.4716"
         stop-color="#FFCF1E"
         id="stop2722" />
      <stop
         offset="0.6514"
         stop-color="#FFE325"
         id="stop2724" />
      <stop
         offset="0.8286"
         stop-color="#FFF029"
         id="stop2726" />
      <stop
         offset="1"
         stop-color="#FFF42A"
         id="stop2728" />
    </linearGradient>
    <linearGradient
       id="paint1_linear_421_1274"
       x1="121.04"
       y1="129.14799"
       x2="121.04"
       y2="139.46899"
       gradientUnits="userSpaceOnUse">
      <stop
         stop-color="#FF7300"
         id="stop2731" />
      <stop
         offset="0.1086"
         stop-color="#FF8D08"
         id="stop2733" />
      <stop
         offset="0.2899"
         stop-color="#FFB214"
         id="stop2735" />
      <stop
         offset="0.4716"
         stop-color="#FFCF1E"
         id="stop2737" />
      <stop
         offset="0.6514"
         stop-color="#FFE325"
         id="stop2739" />
      <stop
         offset="0.8286"
         stop-color="#FFF029"
         id="stop2741" />
      <stop
         offset="1"
         stop-color="#FFF42A"
         id="stop2743" />
    </linearGradient>
    <linearGradient
       id="paint2_linear_421_1274"
       x1="226.423"
       y1="222.77901"
       x2="226.423"
       y2="132.015"
       gradientUnits="userSpaceOnUse">
      <stop
         stop-color="#FF7300"
         id="stop2746" />
      <stop
         offset="0.1086"
         stop-color="#FF8D08"
         id="stop2748" />
      <stop
         offset="0.2899"
         stop-color="#FFB214"
         id="stop2750" />
      <stop
         offset="0.4716"
         stop-color="#FFCF1E"
         id="stop2752" />
      <stop
         offset="0.6514"
         stop-color="#FFE325"
         id="stop2754" />
      <stop
         offset="0.8286"
         stop-color="#FFF029"
         id="stop2756" />
      <stop
         offset="1"
         stop-color="#FFF42A"
         id="stop2758" />
    </linearGradient>
    <clipPath
       id="clip0_421_1274-6">
      <rect
         width="300"
         height="300"
         fill="#ffffff"
         id="rect2761"
         x="0"
         y="0" />
    </clipPath>
    <clipPath
       id="clip0_421_1274-9">
      <rect
         width="300"
         height="300"
         fill="#ffffff"
         id="rect3154"
         x="0"
         y="0" />
    </clipPath>
    <clipPath
       id="clip0_421_1274-61">
      <rect
         width="300"
         height="300"
         fill="#ffffff"
         id="rect3560"
         x="0"
         y="0" />
    </clipPath>
    <linearGradient
       id="paint0_linear_421_1274-3"
       x1="118.039"
       y1="225.166"
       x2="118.039"
       y2="137.532"
       gradientUnits="userSpaceOnUse">
      <stop
         stop-color="#FF7300"
         id="stop4079" />
      <stop
         offset="0.1086"
         stop-color="#FF8D08"
         id="stop4081" />
      <stop
         offset="0.2899"
         stop-color="#FFB214"
         id="stop4083" />
      <stop
         offset="0.4716"
         stop-color="#FFCF1E"
         id="stop4085" />
      <stop
         offset="0.6514"
         stop-color="#FFE325"
         id="stop4087" />
      <stop
         offset="0.8286"
         stop-color="#FFF029"
         id="stop4089" />
      <stop
         offset="1"
         stop-color="#FFF42A"
         id="stop4091" />
    </linearGradient>
    <linearGradient
       id="paint1_linear_421_1274-7"
       x1="118.04"
       y1="134.76401"
       x2="118.04"
       y2="144.729"
       gradientUnits="userSpaceOnUse">
      <stop
         stop-color="#FF7300"
         id="stop4094" />
      <stop
         offset="0.1086"
         stop-color="#FF8D08"
         id="stop4096" />
      <stop
         offset="0.2899"
         stop-color="#FFB214"
         id="stop4098" />
      <stop
         offset="0.4716"
         stop-color="#FFCF1E"
         id="stop4100" />
      <stop
         offset="0.6514"
         stop-color="#FFE325"
         id="stop4102" />
      <stop
         offset="0.8286"
         stop-color="#FFF029"
         id="stop4104" />
      <stop
         offset="1"
         stop-color="#FFF42A"
         id="stop4106" />
    </linearGradient>
    <linearGradient
       id="paint2_linear_421_1274-8"
       x1="223.423"
       y1="225.166"
       x2="223.423"
       y2="137.532"
       gradientUnits="userSpaceOnUse">
      <stop
         stop-color="#FF7300"
         id="stop4109" />
      <stop
         offset="0.1086"
         stop-color="#FF8D08"
         id="stop4111" />
      <stop
         offset="0.2899"
         stop-color="#FFB214"
         id="stop4113" />
      <stop
         offset="0.4716"
         stop-color="#FFCF1E"
         id="stop4115" />
      <stop
         offset="0.6514"
         stop-color="#FFE325"
         id="stop4117" />
      <stop
         offset="0.8286"
         stop-color="#FFF029"
         id="stop4119" />
      <stop
         offset="1"
         stop-color="#FFF42A"
         id="stop4121" />
    </linearGradient>
    <clipPath
       id="clip0_421_1274-4">
      <rect
         width="300"
         height="300"
         fill="#ffffff"
         id="rect4124"
         x="0"
         y="0" />
    </clipPath>
    <clipPath
       id="clip0_421_1274-2">
      <rect
         width="300"
         height="300"
         fill="#ffffff"
         id="rect4458"
         x="0"
         y="0" />
    </clipPath>
    <clipPath
       id="clip0_421_1274-1">
      <rect
         width="300"
         height="300"
         fill="#ffffff"
         id="rect4979"
         x="0"
         y="0" />
    </clipPath>
    <clipPath
       id="clip0_421_1274-24">
      <rect
         width="300"
         height="300"
         fill="#ffffff"
         id="rect5434"
         x="0"
         y="0" />
    </clipPath>
    <clipPath
       id="clip0_421_1274-46">
      <rect
         width="300"
         height="300"
         fill="#ffffff"
         id="rect5850"
         x="0"
         y="0" />
    </clipPath>
    <clipPath
       id="clip0_421_1274-5">
      <rect
         width="300"
         height="300"
         fill="#ffffff"
         id="rect6329"
         x="0"
         y="0" />
    </clipPath>
  </defs>
  <g
     id="layer1"
     transform="translate(-193.82883,-46.791876)">
    <g
       style="fill:none"
       id="g6384"
       transform="matrix(0.26458333,0,0,0.26458333,193.82883,46.791876)">
      <g
         clip-path="url(#clip0_421_1274-5)"
         id="g6327">
        <path
           id="rect6241"
           style="fill:#b5e2dc;fill-opacity:0.968627"
           d="M 0,0 H 300 V 300 H 0 Z" />
        <path
           d="m 250.705,257.099 c -0.775,0.553 -1.66,1.107 -2.435,1.66 -0.885,0.553 -1.659,1.106 -2.544,1.549 -0.775,0.443 -1.439,0.885 -2.213,1.328 -0.111,0.11 -0.222,0.11 -0.332,0.221 -2.545,1.549 -5.201,2.987 -7.856,4.315 -0.775,0.443 -1.66,0.885 -2.434,1.217 0,0 -0.111,0.111 -0.222,0.111 -0.885,0.443 -1.77,0.885 -2.655,1.328 -1.771,0.885 -3.652,1.659 -5.422,2.434 -0.885,0.443 -1.881,0.774 -2.766,1.106 -0.885,0.332 -1.881,0.775 -2.766,1.107 -0.886,0.332 -1.881,0.774 -2.766,1.106 0,0 -0.001,0 -0.111,0 -0.885,0.332 -1.881,0.664 -2.766,0.996 -1.992,0.664 -4.094,1.328 -6.086,1.992 -0.664,0.221 -1.438,0.442 -2.102,0.664 -2.102,0.664 -4.205,1.217 -6.307,1.659 -0.775,0.222 -1.549,0.332 -2.434,0.554 -1.992,0.442 -4.094,0.885 -6.086,1.327 -0.442,0.111 -0.774,0.111 -1.217,0.222 -0.664,0.11 -1.438,0.221 -2.102,0.332 -0.996,0.11 -1.881,0.332 -2.877,0.442 -0.443,0.111 -0.885,0.111 -1.328,0.222 -0.553,0.11 -1.217,0.221 -1.881,0.221 -1.77,0.221 -3.651,0.442 -5.422,0.664 -0.553,0.11 -1.217,0.11 -1.77,0.221 h -0.11 c -0.775,0.111 -1.55,0.111 -2.324,0.221 -0.775,0.111 -1.549,0.111 -2.324,0.111 -0.442,0 -0.995,0.111 -1.438,0.111 -0.885,0 -1.66,0.11 -2.434,0.11 -1.107,0 -2.103,0.111 -3.209,0.111 -1.107,0 -2.102,0 -3.209,0 -0.774,0 -1.549,0 -2.323,0 -46.583,-0.664 -88.6284,-20.47 -118.503,-51.893 0,0 0,-0.111 -0.1107,-0.111 3.4301,-6.75 16.1544,-18.921 29.432,-28.99 16.8183,-12.724 40.6077,-20.58 40.6077,-20.58 0,0 15.601,-2.545 73.469,9.516 44.148,9.294 62.958,47.025 69.376,64.396 z"
           fill="#c99589"
           id="path6243" />
        <path
           d="m 193.611,223.352 c -2.324,11.397 -17.372,18.146 -42.71,7.966 -31.092,-12.613 -43.042,-48.131 -43.042,-48.131 -1.659,-25.449 -5.532,-47.246 -5.532,-47.246 35.96,-3.098 78.449,38.948 78.449,38.948 l 4.868,20.801 c 0.443,1.771 1.328,3.32 2.656,4.426 2.323,3.983 6.86,15.933 5.311,23.236 z"
           fill="#c99589"
           id="path6245" />
        <path
           d="m 188.3,200.227 c -21.134,-1.107 -36.735,-4.205 -53.443,-34.19 14.163,12.503 30.871,17.261 48.464,19.474 l 2.323,10.179 c 0.443,1.881 1.328,3.43 2.656,4.537 z"
           fill="#a56663"
           id="path6247" />
        <path
           d="m 232.005,66.8974 c 1.992,9.2944 2.988,16.8183 -2.434,41.6036 -5.422,24.784 4.979,49.569 -21.134,72.252 -17.592,15.269 -48.352,18.146 -72.916,1.438 -8.298,-5.643 -15.933,-13.499 -22.129,-23.789 C 108.523,150.325 102.88,142.69 96.5735,135.72 87.8324,126.204 77.321,107.062 82.5214,73.2043 90.9306,18.1022 145.479,11.7954 177.678,17.8809 c 32.198,6.0856 48.905,24.453 54.327,49.0165 z"
           fill="#c99589"
           id="path6249" />
        <path
           d="m 126.116,110.16 c 0,0 -3.43,-16.5967 -19.584,-14.6051 -13.9415,1.7704 -18.81,35.1861 12.835,44.4801"
           fill="#c99589"
           id="path6251" />
        <path
           style="color:#000000;fill:#423232;stroke-linecap:round;stroke-linejoin:round;stroke-miterlimit:10;-inkscape-stroke:none"
           d="m 110.44336,106.47656 c -0.79876,-0.0615 -1.5458,0.026 -2.22266,0.25 -1.35371,0.4479 -2.32999,1.38923 -2.98047,2.36914 -0.65047,0.97991 -1.01621,2.01636 -1.22656,2.90039 -0.10517,0.44202 -0.16973,0.84523 -0.20117,1.20313 -0.0314,0.3579 -0.0769,0.59024 0.0469,1.08594 a 1.5,1.5 0 0 0 1.81835,1.09179 1.5,1.5 0 0 0 1.0918,-1.81836 c 0.0685,0.27445 0.0147,0.0911 0.0312,-0.0977 0.0166,-0.1888 0.0579,-0.46302 0.13086,-0.76953 0.14587,-0.61303 0.4217,-1.35466 0.80859,-1.9375 0.3869,-0.58284 0.84262,-0.98803 1.42188,-1.17969 0.57926,-0.19166 1.37958,-0.22332 2.65625,0.31055 a 1.50015,1.50015 0 0 0 0.0117,0.004 c 0.7384,0.30186 1.1747,0.8189 1.48828,2.09571 0.31358,1.2768 0.34453,3.23267 0.0254,5.73242 a 1.50015,1.50015 0 0 0 -0.006,0.0391 c -0.53745,5.36847 4.22461,8.38477 4.22461,8.38477 a 1.5,1.5 0 0 0 2.07227,-0.45704 1.5,1.5 0 0 0 -0.45704,-2.07226 c 0,0 -3.20206,-2.07512 -2.85351,-5.55664 l -0.006,0.041 c 0.34486,-2.70124 0.37498,-4.95143 -0.0859,-6.82812 -0.46068,-1.87573 -1.57151,-3.45864 -3.26562,-4.15235 -0.87956,-0.3667 -1.72772,-0.57742 -2.52344,-0.63867 z"
           id="path6253" />
        <path
           d="m 202.795,135.609 c 0,0 4.204,0.221 8.188,-4.536 2.212,-2.656 4.093,-5.975 2.876,-6.971 -1.217,-1.107 -21.244,1.991 -22.572,4.647 -1.327,2.655 6.418,6.86 11.508,6.86 z"
           fill="#a56663"
           id="path6255" />
        <path
           style="color:#000000;fill:#423232;stroke-linecap:round;stroke-linejoin:round;stroke-miterlimit:10;-inkscape-stroke:none"
           d="m 206.08203,96.931641 a 1.5,1.5 0 0 0 -1.4668,1.53125 c 0,0 0.23481,10.904589 7.16993,22.957029 1.15428,2.0088 0.91226,4.81517 -0.83008,7.4043 -1.74234,2.58913 -4.94689,4.85892 -9.48438,5.52148 a 1.5,1.5 0 0 0 -1.26758,1.70117 1.5,1.5 0 0 0 1.70118,1.26758 c 5.3105,-0.77543 9.29986,-3.48408 11.54101,-6.81445 2.24116,-3.33037 2.77317,-7.38497 0.93946,-10.57617 -6.56288,-11.40553 -6.77149,-21.523439 -6.77149,-21.523439 a 1.5,1.5 0 0 0 -1.53125,-1.46875 z"
           id="path6257" />
        <path
           d="m 211.207,205.026 c 2.578,1.793 3.922,4.931 3.138,8.069 -1.905,7.844 -11.095,22.974 -27.121,30.819 -26.448,12.887 63.543,5.715 63.543,5.715 0,0 -5.267,-13.112 -15.577,-24.879 -15.354,-17.483 -23.983,-19.724 -23.983,-19.724 z"
           fill="#ffffff"
           id="path6259" />
        <path
           d="m 241.129,232.482 c -6.724,8.182 -14.793,14.233 -23.87,18.94 16.81,-0.448 33.396,-1.793 33.396,-1.793 0,0 -3.25,-8.069 -9.526,-17.147 z"
           fill="#efefea"
           id="path6261" />
        <path
           d="M 270.716,337.379 H 13.9658 c 0.1121,-7.957 0.7845,-25.664 3.3621,-44.715 1.681,-12.216 4.2586,-24.88 8.069,-35.975 4.931,-14.232 11.6551,-24.655 17.8189,-31.939 0.1121,-0.112 0.1121,-0.112 0.1121,-0.112 3.0259,-3.587 5.8276,-6.388 8.181,-8.518 12.1035,-10.87 20.7328,-17.594 24.8793,-20.508 1.4569,-1.009 3.6983,-1.345 4.7069,0.112 17.819,24.767 49.6469,37.319 81.0259,43.931 44.043,9.302 87.078,6.836 88.422,9.974 6.725,15.241 11.431,34.293 14.569,51.104 3.25,15.913 4.931,29.922 5.604,36.646 z"
           fill="#fff573"
           id="path6263" />
        <path
           style="color:#000000;fill:#ffad76;stroke-linecap:round;stroke-linejoin:round;stroke-miterlimit:10;-inkscape-stroke:none"
           d="m 80.330078,194.50586 a 1.5,1.5 0 0 0 -0.339844,2.09375 c 18.1732,25.25931 50.380096,37.87467 81.933596,44.52344 22.14434,4.67694 43.98708,6.38801 60.44726,7.32812 8.2301,0.47006 15.1193,0.74741 19.98633,1.09961 2.43352,0.1761 4.36831,0.3738 5.65235,0.60547 0.64201,0.11584 1.12392,0.24653 1.36718,0.3418 0.24327,0.0953 0.10664,0.20841 -0.10156,-0.27735 a 1.5,1.5 0 0 0 1.9707,0.78711 1.5,1.5 0 0 0 0.78711,-1.9707 c -0.37632,-0.878 -1.00611,-1.11413 -1.5625,-1.33203 -0.55638,-0.2179 -1.1783,-0.36478 -1.92773,-0.5 -1.49887,-0.27044 -3.49052,-0.46715 -5.96875,-0.64649 -4.95646,-0.35867 -11.83131,-0.63507 -20.0332,-1.10351 -16.40379,-0.93689 -38.09944,-2.64253 -59.99805,-7.26758 -31.20444,-6.57522 -62.654377,-19.0652 -80.119142,-43.33984 a 1.5,1.5 0 0 0 -2.09375,-0.3418 z"
           id="path6265" />
        <path
           d="m 251.327,277.982 c -2.577,-1.681 -5.155,-3.25 -7.732,-4.931 2.465,-1.793 4.931,-3.586 7.396,-5.379 l 7.733,4.931 z"
           fill="#606060"
           id="path6267" />
        <path
           d="m 170.189,272.603 c -2.241,-2.129 -4.37,-4.37 -6.5,-6.612 2.802,-1.233 5.604,-2.353 8.294,-3.586 2.129,2.129 4.258,4.259 6.5,6.388 -2.69,1.233 -5.492,2.577 -8.294,3.81 z"
           fill="#606060"
           id="path6269" />
        <path
           d="m 210.646,277.422 c -2.465,-1.905 -4.819,-3.698 -7.172,-5.715 2.689,-1.457 5.267,-3.138 7.844,-4.707 2.354,1.905 4.819,3.81 7.173,5.603 -2.578,1.793 -5.155,3.25 -7.845,4.819 z"
           fill="#ffffff"
           id="path6271" />
        <path
           d="m 130.517,262.181 c -1.793,-2.578 -3.586,-5.043 -5.267,-7.509 2.914,-0.672 5.94,-1.457 8.853,-2.241 1.681,2.465 3.587,4.819 5.38,7.284 -3.026,0.785 -6.052,1.681 -8.966,2.466 z"
           fill="#ffffff"
           id="path6273" />
        <path
           d="m 61.9309,216.457 c -0.2241,-3.138 -0.3362,-6.388 0,-9.414 2.6897,1.345 5.4914,2.353 8.2931,3.138 0,2.914 0.2242,5.939 0.6725,8.965 -2.9138,-0.784 -5.9397,-1.569 -8.9656,-2.689 z"
           fill="#ffffff"
           id="path6275" />
        <path
           d="m 93.3101,244.25 c -0.6724,-1.345 -1.2328,-2.914 -1.7931,-4.259 -0.5604,-1.457 -1.1207,-2.802 -1.6811,-4.258 1.569,0 3.0259,0 4.5949,0 1.4569,0 3.0258,0 4.4827,-0.113 1.1205,2.69 2.3535,5.604 3.6985,8.294 -3.1381,0.112 -6.164,0.224 -9.3019,0.336 z"
           fill="#606060"
           id="path6277" />
        <path
           d="M 270.716,337.379 H 87.4829 C 49.7157,323.146 23.1553,305.327 17.3277,292.664 c -1.0086,-2.242 -1.4568,-4.259 -1.1206,-6.164 5.4913,-38.552 25.2155,-59.845 27.0086,-61.75 0.112,-0.112 0.1121,-0.112 0.1121,-0.112 0,0 42.9224,77.776 221.8962,76.095 3.138,15.913 4.819,29.922 5.492,36.646 z"
           fill="#ffad76"
           id="path6279" />
        <path
           d="m 79.3019,235.172 c 4.3325,0 7.8448,-3.512 7.8448,-7.845 0,-4.332 -3.5123,-7.845 -7.8448,-7.845 -4.3326,0 -7.8449,3.513 -7.8449,7.845 0,4.333 3.5123,7.845 7.8449,7.845 z"
           fill="#ff6b57"
           id="path6281" />
        <path
           d="m 113.819,258.146 c 4.333,0 7.845,-3.512 7.845,-7.845 0,-4.332 -3.512,-7.844 -7.845,-7.844 -4.332,0 -7.844,3.512 -7.844,7.844 0,4.333 3.512,7.845 7.844,7.845 z"
           fill="#ff6b57"
           id="path6283" />
        <path
           d="m 151.475,271.37 c 4.332,0 7.845,-3.512 7.845,-7.844 0,-4.333 -3.513,-7.845 -7.845,-7.845 -4.333,0 -7.845,3.512 -7.845,7.845 0,4.332 3.512,7.844 7.845,7.844 z"
           fill="#ff6b57"
           id="path6285" />
        <path
           d="m 191.371,277.87 c 4.333,0 7.845,-3.512 7.845,-7.844 0,-4.333 -3.512,-7.845 -7.845,-7.845 -4.332,0 -7.845,3.512 -7.845,7.845 0,4.332 3.513,7.844 7.845,7.844 z"
           fill="#ff6b57"
           id="path6287" />
        <path
           d="m 232.164,280.336 c 4.333,0 7.845,-3.512 7.845,-7.845 0,-4.332 -3.512,-7.845 -7.845,-7.845 -4.332,0 -7.845,3.513 -7.845,7.845 0,4.333 3.513,7.845 7.845,7.845 z"
           fill="#ff6b57"
           id="path6289" />
        <path
           style="color:#000000;fill:#423232;stroke-linecap:round;stroke-linejoin:round;stroke-miterlimit:10;-inkscape-stroke:none"
           d="m 176.14453,142.50781 a 1.5,1.5 0 0 0 -1.09961,0.33399 1.5,1.5 0 0 0 -0.20312,2.11328 c 2.58416,3.13399 6.48851,5.58972 10.58007,6.88672 4.09157,1.297 8.45537,1.46957 11.84571,-0.55274 a 1.5,1.5 0 0 0 0.52148,-2.05664 1.5,1.5 0 0 0 -2.05664,-0.52148 c -2.30965,1.37769 -5.84587,1.39948 -9.4043,0.27148 -3.55842,-1.128 -7.05409,-3.37149 -9.16992,-5.9375 a 1.5,1.5 0 0 0 -1.01367,-0.53711 z"
           id="path6291" />
        <path
           d="m 168.828,108.678 c -2.4,-0.1 -4.2,-2.1 -4,-4.5 l 0.1,-2.8 c 0.1,-2.3995 2.1,-4.1995 4.5,-3.9995 2.4,0.1 4.2,2.1 4,4.4995 l -0.1,2.8 c -0.1,2.3 -2.1,4.1 -4.5,4 z"
           fill="#423232"
           id="path6293" />
        <path
           d="m 210.928,110.178 c -2.2,-0.1 -3.9,-2 -3.8,-4.2 l 0.1,-2.6 c 0.1,-2.2 2,-3.8996 4.2,-3.7996 2.2,0.1 3.9,1.9996 3.8,4.1996 l -0.1,2.6 c -0.1,2.2 -2,3.9 -4.2,3.8 z"
           fill="#423232"
           id="path6295" />
        <path
           style="color:#000000;fill:#423232;stroke-linecap:round;stroke-linejoin:round;stroke-miterlimit:10;-inkscape-stroke:none"
           d="m 168.44922,96.953125 c -1.04423,0.133785 -2.04405,0.403361 -2.95117,0.773437 -1.81425,0.740154 -3.39521,1.829844 -3.91211,3.638668 a 1.5,1.5 0 0 0 1.02929,1.85547 1.5,1.5 0 0 0 1.85547,-1.03125 c 0.0831,-0.29077 0.85136,-1.1508 2.16211,-1.68554 1.31075,-0.534749 3.02506,-0.792973 4.55469,-0.544926 a 1.50015,1.50015 0 0 0 0.01,0.002 c 3.79353,0.590106 6.10351,3.779296 6.10351,3.779296 a 1.5,1.5 0 0 0 2.08984,0.36524 1.5,1.5 0 0 0 0.36524,-2.08984 c 0,0 -2.88811,-4.203633 -8.08789,-5.017586 -0.001,-2.14e-4 -0.003,2.13e-4 -0.004,0 -1.08387,-0.175343 -2.17188,-0.178545 -3.21484,-0.04492 z"
           id="path6297" />
        <path
           style="color:#000000;fill:#423232;stroke-linecap:round;stroke-linejoin:round;stroke-miterlimit:10;-inkscape-stroke:none"
           d="m 212.62891,99.078125 c -2.64783,0 -4.39255,1.039775 -5.24414,2.224605 -0.8516,1.18483 -0.85743,2.47461 -0.85743,2.47461 a 1.5,1.5 0 0 0 1.5,1.5 1.5,1.5 0 0 0 1.5,-1.5 c 0,0 -0.005,-0.30944 0.29297,-0.72461 0.2984,-0.41516 0.85642,-0.9746 2.8086,-0.9746 2.87894,0 4.03515,2.62304 4.03515,2.62304 a 1.5,1.5 0 0 0 1.98828,0.74024 1.5,1.5 0 0 0 0.74024,-1.98633 c 0,0 -2.04263,-4.376955 -6.76367,-4.376955 z"
           id="path6299" />
        <path
           d="m 184.228,85.4784 c 2.2,-0.2 3.3,-2.8 2.1,-4.8 -0.7,-1 -1.6,-1.9 -2.9,-2.4 -3.8,-1.2 -16.2,1.5 -21.6,7.7 -4.8,5.7 12.4,0.4 22.4,-0.5 z"
           fill="#423232"
           id="path6301" />
        <path
           d="m 210.628,87.0784 c -1.7,-0.5 -2.2,-3 -0.8,-4.6 0.7,-0.8 1.7,-1.5 2.8,-1.7 3.4,-0.6 11.2,2.5 13.4,8.4 2,5.1 -7.3,-0.1 -15.4,-2.1 z"
           fill="#423232"
           id="path6303" />
        <path
           d="m 222.189,50.779 c 3.024,-17.024 10.528,23.52 8.848,15.568 -0.56,-2.464 -1.232,-4.816 -2.016,-7.168 -5.936,-4.704 -12.208,-7.728 -21.728,-9.072 -25.648,-3.472 -45.92,-1.12 -67.536,3.584 -13.552,2.912 -10.752,49.728 -16.016,55.888 -0.896,-3.136 -5.264,-15.904 -19.6,-14.112 -13.5523,1.68 -18.7043,33.04 9.296,43.792 -0.224,6.16 -5.936,17.584 -10.528,20.16 0,0 -0.784,-8.176 -9.7443,-18.928 -8.96,-10.752 -26.88,-38.64 -14.784,-79.408 12.096,-40.768 66.8643,-62.047991 117.8243,-41.328 8.736,3.584 15.904,8.624 21.616,13.888 13.44,12.32 9.856,-5.264 7.728,12.88 -0.784,5.824 0,-0.112 -3.36,4.256 z"
           fill="#423232"
           id="path6305" />
        <path
           d="m 210.877,46.1869 c 0,0 -30.912,51.4081 -92.4,35.7281 0,0 -11.984,-30.128 14.112,-41.664 26.208,-11.424 72.016,-4.1441 78.288,5.9359 z"
           fill="#423232"
           id="path6307" />
        <path
           d="m 200.125,49.211 c 0,0 12.32,2.352 20.944,11.536 8.064,8.512 9.744,-28.56 11.536,-20.384 0,0 4.592,11.2 -15.344,-0.672 -19.936,-11.984 -17.136,9.52 -17.136,9.52 z"
           fill="#423232"
           id="path6309" />
        <path
           d="m 78.2686,111.371 c 0,0 -13.664,-8.736 -33.6,0 -18.032,7.952 -8.624,30.688 2.912,29.008 0,0 -21.728,8.4 -13.664,26.32 6.496,14.448 26.208,6.048 26.208,6.048 0,0 -9.296,14.896 4.368,21.616 13.888,6.832 20.944,-12.432 20.944,-12.432 0,0 3.248,15.792 17.4724,13.328 17.584,-3.024 8.624,-23.968 8.624,-23.968 0,0 9.52,6.272 13.776,-4.592 4.928,-12.432 -16.8,-22.288 -16.8,-22.288 0,0 -22.8484,-26.208 -23.8564,-36.512 -1.12,-10.416 -6.384,3.472 -6.384,3.472 z"
           fill="#423232"
           id="path6311" />
        <path
           d="m 244.813,162.331 c 0,0 15.792,10.752 6.496,24.192 -11.088,16.128 -29.68,-1.456 -29.68,-1.456 3.36,10.864 -8.736,28.784 -25.2,14.672 -3.136,-2.688 -5.6,-5.488 -7.504,-8.176 6.832,-2.24 13.104,-5.6 18.256,-10.08 14.784,-12.768 18.032,-26.32 18.928,-40.096 0.448,-6.16 0.336,-12.32 0.672,-18.592 0.224,-4.256 0.56,-8.4 1.344,-12.656 6.048,-4.368 17.472,-4.592 20.496,2.016 7.168,15.792 -6.16,22.288 -6.944,22.624 0.896,-0.224 21.952,-4.592 22.064,12.544 0.224,18.032 -18.928,15.008 -18.928,15.008 z"
           fill="#423232"
           id="path6313" />
        <path
           d="m 231.148,59.627 c 0,0 24.416,17.136 19.152,-16.464 -4.032,-25.648 -23.408,-40.656 -53.984,-31.584 0,0 -52.08,-19.264 -93.408,4.592 -34.9435,20.16 -36.9596,70.896 -24.5276,95.2 0,0 1.568,-48.72 35.8396,-60.256 34.16,-11.536 54.992,-20.496 85.792,-10.08 30.8,10.416 31.136,18.592 31.136,18.592 z"
           fill="#423232"
           id="path6315" />
        <path
           d="m 205.501,16.507 c 0,0 -3.36,-20.72001 -21.28,-23.40801 -18.032,-2.688 -10.08,18.59201 -10.08,18.59201 0,0 25.2,9.632 31.36,4.816 z"
           fill="#423232"
           id="path6317" />
        <path
           d="m 180.076,8.21905 c 0,0 -9.408,-12.992 -27.328,-10.528 -17.92,2.463999 -6.608,17.13605 -6.608,17.13605 0,0 37.856,10.192 33.936,-6.60805 z"
           fill="#423232"
           id="path6319" />
        <path
           d="m 205.501,50.7789 c 0,0 12.88,5.712 20.832,17.248 7.952,11.536 22.288,8.848 24.304,-12.544 2.128,-21.28 -39.424,-27.328 -45.136,-4.704 z"
           fill="#423232"
           id="path6321" />
        <path
           d="m 119.494,129.644 1.761,3.521 c 0.311,0.622 0.932,1.036 1.554,1.14 l 3.935,0.621 c 1.761,0.207 2.382,2.382 1.14,3.625 l -2.797,2.797 c -0.518,0.517 -0.725,1.139 -0.621,1.864 l 0.621,3.936 c 0.311,1.76 -1.553,3.003 -3.107,2.278 l -3.521,-1.864 c -0.622,-0.311 -1.347,-0.311 -1.968,0 l -3.522,1.864 c -1.553,0.829 -3.418,-0.518 -3.107,-2.278 l 0.622,-3.936 c 0.103,-0.725 -0.104,-1.347 -0.622,-1.864 l -2.796,-2.797 c -1.243,-1.243 -0.518,-3.314 1.139,-3.625 l 3.936,-0.621 c 0.725,-0.104 1.243,-0.518 1.553,-1.14 l 1.761,-3.521 c 1.036,-1.657 3.314,-1.657 4.039,0 z"
           fill="#ffde55"
           id="path6323" />
        <path
           d="m 230.834,141.244 c -0.518,0.518 -0.725,1.243 -0.622,1.864 l 0.622,3.936 c 0.311,1.761 -1.554,3.107 -3.107,2.278 l -2.072,-1.139 c 0.725,-5.075 0.932,-10.253 1.036,-15.432 l 0.207,0.414 c 0.311,0.622 0.932,1.036 1.554,1.14 l 3.935,0.517 c 1.761,0.208 2.486,2.383 1.14,3.625 z"
           fill="#ffde55"
           id="path6325" />
      </g>
    </g>
  </g>
</svg>
