<?xml version="1.0" encoding="UTF-8" standalone="no"?>
<!-- Created with Inkscape (http://www.inkscape.org/) -->

<svg
   width="79.375mm"
   height="79.375mm"
   viewBox="0 0 79.375 79.375"
   version="1.1"
   id="svg5"
   sodipodi:docname="avatar-17.svg"
   inkscape:version="1.1.1 (3bf5ae0d25, 2021-09-20)"
   xmlns:inkscape="http://www.inkscape.org/namespaces/inkscape"
   xmlns:sodipodi="http://sodipodi.sourceforge.net/DTD/sodipodi-0.dtd"
   xmlns="http://www.w3.org/2000/svg"
   xmlns:svg="http://www.w3.org/2000/svg">
  <sodipodi:namedview
     id="namedview7"
     pagecolor="#ffffff"
     bordercolor="#999999"
     borderopacity="1"
     inkscape:pageshadow="0"
     inkscape:pageopacity="0"
     inkscape:pagecheckerboard="0"
     inkscape:document-units="mm"
     showgrid="false"
     inkscape:zoom="0.72337262"
     inkscape:cx="-260.58493"
     inkscape:cy="138.93255"
     inkscape:window-width="1920"
     inkscape:window-height="1001"
     inkscape:window-x="-9"
     inkscape:window-y="-9"
     inkscape:window-maximized="1"
     inkscape:current-layer="layer1" />
  <defs
     id="defs2">
    <clipPath
       id="clip0_421_1274">
      <rect
         width="300"
         height="300"
         fill="#ffffff"
         id="rect903"
         x="0"
         y="0" />
    </clipPath>
    <clipPath
       id="clip0_421_1274-3">
      <rect
         width="300"
         height="300"
         fill="#ffffff"
         id="rect1539"
         x="0"
         y="0" />
    </clipPath>
    <clipPath
       id="clip0_421_1274-35">
      <rect
         width="300"
         height="300"
         fill="#ffffff"
         id="rect1928"
         x="0"
         y="0" />
    </clipPath>
    <clipPath
       id="clip0_421_1274-8">
      <rect
         width="300"
         height="300"
         fill="#ffffff"
         id="rect2361"
         x="0"
         y="0" />
    </clipPath>
    <linearGradient
       id="paint0_linear_421_1274"
       x1="121.039"
       y1="222.77901"
       x2="121.039"
       y2="132.015"
       gradientUnits="userSpaceOnUse">
      <stop
         stop-color="#FF7300"
         id="stop2716" />
      <stop
         offset="0.1086"
         stop-color="#FF8D08"
         id="stop2718" />
      <stop
         offset="0.2899"
         stop-color="#FFB214"
         id="stop2720" />
      <stop
         offset="0.4716"
         stop-color="#FFCF1E"
         id="stop2722" />
      <stop
         offset="0.6514"
         stop-color="#FFE325"
         id="stop2724" />
      <stop
         offset="0.8286"
         stop-color="#FFF029"
         id="stop2726" />
      <stop
         offset="1"
         stop-color="#FFF42A"
         id="stop2728" />
    </linearGradient>
    <linearGradient
       id="paint1_linear_421_1274"
       x1="121.04"
       y1="129.14799"
       x2="121.04"
       y2="139.46899"
       gradientUnits="userSpaceOnUse">
      <stop
         stop-color="#FF7300"
         id="stop2731" />
      <stop
         offset="0.1086"
         stop-color="#FF8D08"
         id="stop2733" />
      <stop
         offset="0.2899"
         stop-color="#FFB214"
         id="stop2735" />
      <stop
         offset="0.4716"
         stop-color="#FFCF1E"
         id="stop2737" />
      <stop
         offset="0.6514"
         stop-color="#FFE325"
         id="stop2739" />
      <stop
         offset="0.8286"
         stop-color="#FFF029"
         id="stop2741" />
      <stop
         offset="1"
         stop-color="#FFF42A"
         id="stop2743" />
    </linearGradient>
    <linearGradient
       id="paint2_linear_421_1274"
       x1="226.423"
       y1="222.77901"
       x2="226.423"
       y2="132.015"
       gradientUnits="userSpaceOnUse">
      <stop
         stop-color="#FF7300"
         id="stop2746" />
      <stop
         offset="0.1086"
         stop-color="#FF8D08"
         id="stop2748" />
      <stop
         offset="0.2899"
         stop-color="#FFB214"
         id="stop2750" />
      <stop
         offset="0.4716"
         stop-color="#FFCF1E"
         id="stop2752" />
      <stop
         offset="0.6514"
         stop-color="#FFE325"
         id="stop2754" />
      <stop
         offset="0.8286"
         stop-color="#FFF029"
         id="stop2756" />
      <stop
         offset="1"
         stop-color="#FFF42A"
         id="stop2758" />
    </linearGradient>
    <clipPath
       id="clip0_421_1274-6">
      <rect
         width="300"
         height="300"
         fill="#ffffff"
         id="rect2761"
         x="0"
         y="0" />
    </clipPath>
    <clipPath
       id="clip0_421_1274-9">
      <rect
         width="300"
         height="300"
         fill="#ffffff"
         id="rect3154"
         x="0"
         y="0" />
    </clipPath>
    <clipPath
       id="clip0_421_1274-61">
      <rect
         width="300"
         height="300"
         fill="#ffffff"
         id="rect3560"
         x="0"
         y="0" />
    </clipPath>
    <linearGradient
       id="paint0_linear_421_1274-3"
       x1="118.039"
       y1="225.166"
       x2="118.039"
       y2="137.532"
       gradientUnits="userSpaceOnUse">
      <stop
         stop-color="#FF7300"
         id="stop4079" />
      <stop
         offset="0.1086"
         stop-color="#FF8D08"
         id="stop4081" />
      <stop
         offset="0.2899"
         stop-color="#FFB214"
         id="stop4083" />
      <stop
         offset="0.4716"
         stop-color="#FFCF1E"
         id="stop4085" />
      <stop
         offset="0.6514"
         stop-color="#FFE325"
         id="stop4087" />
      <stop
         offset="0.8286"
         stop-color="#FFF029"
         id="stop4089" />
      <stop
         offset="1"
         stop-color="#FFF42A"
         id="stop4091" />
    </linearGradient>
    <linearGradient
       id="paint1_linear_421_1274-7"
       x1="118.04"
       y1="134.76401"
       x2="118.04"
       y2="144.729"
       gradientUnits="userSpaceOnUse">
      <stop
         stop-color="#FF7300"
         id="stop4094" />
      <stop
         offset="0.1086"
         stop-color="#FF8D08"
         id="stop4096" />
      <stop
         offset="0.2899"
         stop-color="#FFB214"
         id="stop4098" />
      <stop
         offset="0.4716"
         stop-color="#FFCF1E"
         id="stop4100" />
      <stop
         offset="0.6514"
         stop-color="#FFE325"
         id="stop4102" />
      <stop
         offset="0.8286"
         stop-color="#FFF029"
         id="stop4104" />
      <stop
         offset="1"
         stop-color="#FFF42A"
         id="stop4106" />
    </linearGradient>
    <linearGradient
       id="paint2_linear_421_1274-8"
       x1="223.423"
       y1="225.166"
       x2="223.423"
       y2="137.532"
       gradientUnits="userSpaceOnUse">
      <stop
         stop-color="#FF7300"
         id="stop4109" />
      <stop
         offset="0.1086"
         stop-color="#FF8D08"
         id="stop4111" />
      <stop
         offset="0.2899"
         stop-color="#FFB214"
         id="stop4113" />
      <stop
         offset="0.4716"
         stop-color="#FFCF1E"
         id="stop4115" />
      <stop
         offset="0.6514"
         stop-color="#FFE325"
         id="stop4117" />
      <stop
         offset="0.8286"
         stop-color="#FFF029"
         id="stop4119" />
      <stop
         offset="1"
         stop-color="#FFF42A"
         id="stop4121" />
    </linearGradient>
    <clipPath
       id="clip0_421_1274-4">
      <rect
         width="300"
         height="300"
         fill="#ffffff"
         id="rect4124"
         x="0"
         y="0" />
    </clipPath>
    <clipPath
       id="clip0_421_1274-2">
      <rect
         width="300"
         height="300"
         fill="#ffffff"
         id="rect4458"
         x="0"
         y="0" />
    </clipPath>
    <clipPath
       id="clip0_421_1274-1">
      <rect
         width="300"
         height="300"
         fill="#ffffff"
         id="rect4979"
         x="0"
         y="0" />
    </clipPath>
    <clipPath
       id="clip0_421_1274-24">
      <rect
         width="300"
         height="300"
         fill="#ffffff"
         id="rect5434"
         x="0"
         y="0" />
    </clipPath>
  </defs>
  <g
     inkscape:label="Layer 1"
     inkscape:groupmode="layer"
     id="layer1"
     transform="translate(-208.09792,-42.041259)">
    <g
       style="fill:none"
       id="g5473"
       transform="matrix(0.26458333,0,0,0.26458333,208.09792,42.041259)">
      <g
         clip-path="url(#clip0_421_1274-24)"
         id="g5432">
        <path
           id="rect5378"
           style="fill:#f7c0b5;fill-opacity:0.968627"
           d="M 0,0 H 300 V 300 H 0 Z" />
        <path
           d="m 251.148,266.099 c -0.775,0.553 -1.66,1.107 -2.434,1.66 -0.885,0.553 -1.66,1.106 -2.545,1.549 -0.775,0.443 -1.439,0.885 -2.213,1.328 -0.111,0.11 -0.221,0.11 -0.332,0.221 -2.545,1.549 -5.2,2.987 -7.856,4.315 -0.774,0.443 -1.66,0.885 -2.434,1.217 0,0 -0.111,0.111 -0.221,0.111 -0.886,0.443 -1.771,0.885 -2.656,1.328 -1.77,0.885 -3.651,1.659 -5.422,2.434 -0.885,0.443 -1.881,0.774 -2.766,1.106 -0.885,0.332 -1.881,0.775 -2.766,1.107 -0.885,0.332 -1.881,0.774 -2.766,1.106 0,0 0,0 -0.111,0 -0.885,0.332 -1.881,0.664 -2.766,0.996 -1.992,0.664 -4.094,1.328 -6.086,1.992 -0.663,0.221 -1.438,0.442 -2.102,0.664 -2.102,0.664 -4.204,1.217 -6.307,1.659 -0.774,0.222 -1.549,0.332 -2.434,0.554 -1.992,0.442 -4.094,0.885 -6.085,1.327 -0.443,0.111 -0.775,0.111 -1.218,0.222 -0.663,0.11 -1.438,0.221 -2.102,0.332 -0.996,0.11 -1.881,0.332 -2.877,0.442 -0.442,0.111 -0.885,0.111 -1.327,0.222 -0.554,0.11 -1.218,0.221 -1.881,0.221 -1.771,0.221 -3.652,0.442 -5.422,0.664 -0.553,0.11 -1.217,0.11 -1.77,0.221 h -0.111 c -0.775,0.111 -1.549,0.111 -2.324,0.221 -0.774,0.111 -1.549,0.111 -2.323,0.111 -0.443,0 -0.996,0.111 -1.439,0.111 -0.885,0 -1.659,0.11 -2.434,0.11 -1.106,0 -2.102,0.111 -3.209,0.111 -1.106,0 -2.102,0 -3.208,0 -0.775,0 -1.55,0 -2.324,0 -46.582,-0.664 -88.6281,-20.47 -118.5027,-51.893 0,0 0,-0.111 -0.1106,-0.111 3.43,-6.75 16.1544,-18.921 29.432,-28.99 16.8183,-12.724 40.6073,-20.58 40.6073,-20.58 0,0 15.601,-2.545 73.469,9.516 44.149,9.294 62.958,47.025 69.376,64.396 z"
           fill="#f7d3b5"
           id="path5380" />
        <path
           d="m 194.054,232.352 c -2.324,11.397 -17.371,18.146 -42.71,7.966 -31.091,-12.613 -43.041,-48.131 -43.041,-48.131 -1.66,-25.449 -5.532,-47.246 -5.532,-47.246 35.96,-3.098 78.448,38.948 78.448,38.948 l 4.869,20.801 c 0.442,1.771 1.327,3.32 2.655,4.426 2.324,3.983 6.86,15.933 5.311,23.236 z"
           fill="#f7d3b5"
           id="path5382" />
        <path
           d="m 188.743,209.227 c -21.133,-1.107 -36.735,-4.205 -53.442,-34.19 14.163,12.503 30.87,17.261 48.463,19.474 l 2.324,10.179 c 0.442,1.881 1.327,3.43 2.655,4.537 z"
           fill="#efbda5"
           id="path5384" />
        <path
           d="m 232.449,75.8974 c 1.991,9.2944 2.987,16.8183 -2.435,41.6036 -5.421,24.784 4.979,49.569 -21.133,72.252 -17.593,15.269 -48.353,18.146 -72.916,1.438 -8.299,-5.643 -15.934,-13.499 -22.13,-23.789 C 108.967,159.325 103.324,151.69 97.0169,144.72 88.2758,135.204 77.7644,116.062 82.9648,82.2043 91.3739,27.1022 145.923,20.7954 178.121,26.8809 c 32.198,6.0856 48.906,24.453 54.328,49.0165 z"
           fill="#f7d3b5"
           id="path5386" />
        <path
           d="m 126.56,119.16 c 0,0 -3.43,-16.597 -19.585,-14.605 -13.9411,1.77 -18.8096,35.186 12.835,44.48"
           fill="#f7d3b5"
           id="path5388" />
        <path
           style="color:#000000;fill:#423232;stroke-linecap:round;stroke-linejoin:round;stroke-miterlimit:10;-inkscape-stroke:none"
           d="m 110.88672,115.47656 c -0.79876,-0.0615 -1.54581,0.026 -2.22266,0.25 -1.3537,0.44791 -2.33004,1.3892 -2.98047,2.36914 -0.65042,0.97995 -1.01635,2.01625 -1.22656,2.90039 -0.1051,0.44208 -0.16984,0.84509 -0.20117,1.20313 -0.0313,0.35804 -0.0757,0.59147 0.0488,1.08789 a 1.5,1.5 0 0 0 1.81836,1.08984 1.5,1.5 0 0 0 1.09179,-1.82031 c 0.069,0.27517 0.0128,0.093 0.0293,-0.0957 0.0165,-0.18866 0.058,-0.46307 0.13086,-0.76953 0.14573,-0.61292 0.42177,-1.3547 0.80859,-1.9375 0.38683,-0.5828 0.84265,-0.98804 1.42188,-1.17969 0.57923,-0.19166 1.37958,-0.22332 2.65625,0.31055 a 1.50015,1.50015 0 0 0 0.01,0.004 c 0.73841,0.30186 1.17666,0.8189 1.49024,2.09571 0.31358,1.2768 0.34257,3.23267 0.0234,5.73242 a 1.50015,1.50015 0 0 0 -0.004,0.041 c -0.53623,5.3684 4.22656,8.38281 4.22656,8.38281 a 1.5,1.5 0 0 0 2.07032,-0.45703 1.5,1.5 0 0 0 -0.45508,-2.07226 c 0,0 -3.20519,-2.07505 -2.85742,-5.55664 0.33949,-2.68138 0.36852,-4.92077 -0.0898,-6.78711 -0.46068,-1.87573 -1.57151,-3.45864 -3.26562,-4.15235 -0.88024,-0.36719 -1.72715,-0.57737 -2.52344,-0.63867 z"
           id="path5390" />
        <path
           d="m 203.238,144.609 c 0,0 4.205,0.221 8.188,-4.536 2.213,-2.656 4.094,-5.975 2.877,-6.971 -1.217,-1.107 -21.244,1.991 -22.572,4.647 -1.328,2.655 6.417,6.86 11.507,6.86 z"
           fill="#efbda5"
           id="path5392" />
        <path
           style="color:#000000;fill:#423232;stroke-linecap:round;stroke-linejoin:round;stroke-miterlimit:10;-inkscape-stroke:none"
           d="m 206.52734,105.93164 a 1.5,1.5 0 0 0 -1.46875,1.53125 c 0,0 0.23478,10.90454 7.16993,22.95703 h -0.002 c 1.15429,2.0088 0.91411,4.81516 -0.82812,7.4043 -1.74224,2.58913 -4.94547,4.85893 -9.48242,5.52148 a 1.5,1.5 0 0 0 -1.26758,1.70117 1.5,1.5 0 0 0 1.70117,1.26758 c 5.31004,-0.77545 9.2961,-3.48409 11.53711,-6.81445 2.24101,-3.33036 2.77512,-7.38497 0.9414,-10.57617 -6.56284,-11.40549 -6.76953,-21.52344 -6.76953,-21.52344 a 1.5,1.5 0 0 0 -1.53125,-1.46875 z"
           id="path5394" />
        <path
           opacity="0.42"
           d="m 146.587,150.252 c 6.294,0 11.397,-4.211 11.397,-9.405 0,-5.194 -5.103,-9.405 -11.397,-9.405 -6.294,0 -11.397,4.211 -11.397,9.405 0,5.194 5.103,9.405 11.397,9.405 z"
           fill="#ed938a"
           id="path5396" />
        <path
           opacity="0.42"
           d="m 228.244,131.663 c -0.332,6.197 -0.221,12.282 -0.664,18.368 -4.868,-1.107 -8.409,-4.758 -8.409,-9.073 0,-4.647 3.873,-8.409 9.073,-9.295 z"
           fill="#ed938a"
           id="path5398" />
        <path
           d="m 111.156,147.667 -4.48,28.56 c 0,0 -1.12,-14.672 -5.824,-22.624 -3.5842,-6.16 -14.1122,-12.656 -18.9282,-32.704 l 9.072,0.784 c 0,0 3.024,-9.52 3.024,-8.848 0,0.56 0,9.744 0,9.744 l 2.8,0.224 c -0.336,8.4 3.5842,18.48 14.3362,24.864 z"
           fill="#99807f"
           id="path5400" />
        <path
           d="m 252.948,106.563 -8.512,1.792 c -0.224,11.312 -0.672,19.488 -0.672,19.488 h -12.88 c 0,0 1.904,-7.952 3.808,-26.096 1.792,-16.3516 -2.688,-29.6796 -7.168,-36.1756 -5.264,-4.704 -14.784,2.016 -15.232,2.352 l 1.008,-2.352 c -2.8,1.792 -4.816,3.584 -4.816,3.584 0,0 -1.232,-2.576 -3.584,-5.936 0.112,1.12 0.224,2.24 0.112,3.136 0,0 -1.68,-2.912 -4.48,-6.16 1.12,3.584 0.784,6.608 0.784,6.608 -9.744,-14.112 -18.144,-12.096 -22.4,-9.52 -12.096,13.664 -12.768,49.2796 -12.768,49.2796 l -12.096,-1.232 c 0,0 -0.112,-4.032 0.224,-10.3036 -2.576,17.3596 -3.024,32.8156 -3.024,32.8156 l -22.624,-1.68 -1.008,-4.704 c 0,0 -3.472,-16.8 -19.824,-14.784 -6.16,0.784 -10.64,7.728 -10.976,16.016 l -2.8,-0.224 c 0,0 0,-9.184 0,-9.744 0,-0.56 -3.024,8.848 -3.024,8.848 l -9.072,-0.784 -16.8,-1.568 c 0,0 5.712,-68.0956 27.104,-85.3436 12.096,-9.744 20.72,-11.872 25.872,-11.872 4.032,0 6.048,1.232 6.048,1.232 3.92,-4.032 12.096,-11.2 22.288,-11.984 14.448,-1.12 83.552,16.24 92.176,34.16 0.336,0.672 0.672,1.456 0.896,2.24 2.912,6.944 10.64,28.672 13.44,58.9116 z"
           fill="#423232"
           id="path5402" />
        <path
           d="m 263.547,246.079 c -15.913,-20.508 -40.569,-29.026 -54.129,-34.069 -1.121,-5.603 -3.25,-11.767 -6.612,-17.707 -5.155,3.138 -11.095,5.492 -17.259,6.724 l 0.897,3.699 c 0.448,1.793 2.69,10.086 -0.785,20.732 -2.913,8.966 -14.681,13 -34.629,3.923 -38.888,-17.595 -43.371,-37.431 -43.371,-37.431 -0.672,-10.759 -1.793,-20.845 -2.801,-29.026 -12.1037,2.69 -26.1123,8.181 -33.733,19.724 -9.4138,14.121 -12.888,28.466 -11.9914,39.897 C 42.7715,232.967 17.4439,248.769 9.15083,277.01 -1.60779,313.769 0.185311,336.295 0.185311,336.295 H 289.772 c -0.337,0.112 -4.595,-62.311 -26.225,-90.216 z"
           fill="#6060d8"
           id="path5404" />
        <path
           style="color:#000000;fill:#423232;stroke-linecap:round;stroke-linejoin:round;stroke-miterlimit:10;-inkscape-stroke:none"
           d="m 90.027344,207.86914 a 1.5,1.5 0 0 0 -1.078125,1.82617 c 0,0 7.041065,27.18079 37.425781,45.84375 a 1.5,1.5 0 0 0 2.0625,-0.49414 1.5,1.5 0 0 0 -0.49219,-2.0625 C 98.485289,234.88742 91.853516,208.94727 91.853516,208.94727 a 1.5,1.5 0 0 0 -1.826172,-1.07813 z"
           id="path5406" />
        <path
           style="color:#000000;fill:#423232;stroke-linecap:round;stroke-linejoin:round;stroke-miterlimit:10;-inkscape-stroke:none"
           d="m 208.96875,210.54883 a 1.5,1.5 0 0 0 -1.125,1.79883 c 0,0 1.94806,8.43995 1.76953,18.81445 -0.17852,10.3745 -2.53065,22.48569 -10.73047,29.94531 a 1.5,1.5 0 0 0 -0.0996,2.11914 1.5,1.5 0 0 0 2.11914,0.0996 c 9.17017,-8.34236 11.52547,-21.3348 11.71094,-32.11328 0.18548,-10.77848 -1.8457,-19.54102 -1.8457,-19.54102 a 1.5,1.5 0 0 0 -1.79883,-1.12304 z"
           id="path5408" />
        <path
           style="color:#000000;fill:#423232;stroke-linecap:round;stroke-linejoin:round;stroke-miterlimit:10;-inkscape-stroke:none"
           d="m 155.77539,255.53125 a 1.5,1.5 0 0 0 -1.90625,0.93359 c 0,0 -1.4842,4.33638 -2.76367,10.15039 -1.27947,5.81402 -2.39168,13.11681 -1.5625,19.33594 a 1.5,1.5 0 0 0 1.68555,1.28711 1.5,1.5 0 0 0 1.28906,-1.68359 c -0.73982,-5.54886 0.2753,-12.64995 1.51758,-18.29492 1.24227,-5.64498 2.67382,-9.82422 2.67382,-9.82422 a 1.5,1.5 0 0 0 -0.93359,-1.9043 z"
           id="path5410" />
        <path
           style="color:#000000;fill:#423232;stroke-linecap:round;stroke-linejoin:round;stroke-miterlimit:10;-inkscape-stroke:none"
           d="m 190.41406,254.57812 a 1.5,1.5 0 0 0 -0.73828,1.98829 c 0,0 4.29713,9.35362 7.4043,24.33398 a 1.5,1.5 0 0 0 1.77344,1.16406 1.5,1.5 0 0 0 1.16406,-1.77343 c -3.16883,-15.27761 -7.61524,-24.97461 -7.61524,-24.97461 a 1.5,1.5 0 0 0 -1.98828,-0.73829 z"
           id="path5412" />
        <path
           style="color:#000000;fill:#423232;stroke-linecap:round;stroke-linejoin:round;stroke-miterlimit:10;-inkscape-stroke:none"
           d="m 58.552734,221.20117 a 1.5,1.5 0 0 0 -1.099609,1.8125 c 0,0 2.414035,9.73928 11.746094,20.70313 9.332059,10.96384 25.643741,23.27115 53.294921,28.82422 a 1.5,1.5 0 0 0 1.76563,-1.17383 1.5,1.5 0 0 0 -1.17579,-1.76758 C 96.04602,264.16969 80.419398,252.27082 71.484375,241.77344 62.549352,231.27605 60.367187,222.29883 60.367187,222.29883 a 1.5,1.5 0 0 0 -1.814453,-1.09766 z"
           id="path5414" />
        <path
           d="m 152.039,288.329 -4.931,-0.448 c -1.793,-0.224 -3.138,-1.905 -2.801,-3.698 l 1.681,-8.405 c 0.448,-2.354 2.689,-4.035 5.043,-3.699 2.353,0.224 4.258,2.242 4.258,4.707 l 0.112,8.629 c 0,1.681 -1.569,3.138 -3.362,2.914 z"
           fill="#ffffff"
           id="path5416" />
        <path
           d="m 203.479,283.174 -4.707,1.681 c -1.793,0.672 -3.699,-0.448 -4.035,-2.241 l -2.017,-8.294 c -0.56,-2.353 0.672,-4.706 3.026,-5.603 2.241,-0.784 4.819,0.224 5.827,2.354 l 3.699,7.732 c 0.784,1.681 0,3.699 -1.793,4.371 z"
           fill="#ffffff"
           id="path5418" />
        <path
           style="color:#000000;fill:#544d4d;stroke-linecap:round;stroke-linejoin:round;stroke-miterlimit:10;-inkscape-stroke:none"
           d="m 252.63672,279.11914 a 1.5,1.5 0 0 0 -1.21289,1.74023 c 0,0 6.20434,35.2458 3.79883,55.36915 a 1.5,1.5 0 0 0 1.31054,1.66796 1.5,1.5 0 0 0 1.66797,-1.31054 c 2.52449,-21.11862 -3.82422,-56.25391 -3.82422,-56.25391 a 1.5,1.5 0 0 0 -1.74023,-1.21289 z"
           id="path5420" />
        <path
           d="m 186.709,96.6113 c 2.172,0.3 3.851,-2 3.061,-4.2 -0.395,-1.2 -1.086,-2.3 -2.172,-3 -3.358,-2.1 -15.899,-2.3 -22.515,2.5 -5.827,4.4 11.751,3.3 21.626,4.7 z"
           fill="#423232"
           id="path5422" />
        <path
           d="m 214.062,97.7113 c -1.778,0 -2.864,-2.3 -1.975,-4.2 0.494,-1 1.185,-1.9 2.172,-2.4 3.062,-1.5 11.258,-0.6 14.912,4.5 3.258,4.4997 -6.913,2 -15.109,2.1 z"
           fill="#423232"
           id="path5424" />
        <path
           style="color:#000000;fill:#423232;stroke-linecap:round;stroke-linejoin:round;stroke-miterlimit:10;-inkscape-stroke:none"
           d="m 172.64453,106.11328 c -3.41922,0.20827 -6.03711,0.83985 -6.03711,0.83985 a 1.5,1.5 0 0 0 -1.10742,1.80859 1.5,1.5 0 0 0 1.80859,1.10742 c 0,0 2.36981,-0.56999 5.51758,-0.76172 3.14778,-0.19173 7.0066,0.0533 9.74805,1.44141 a 1.5,1.5 0 0 0 2.01562,-0.66016 1.5,1.5 0 0 0 -0.66015,-2.01562 c -3.57854,-1.81192 -7.86594,-1.96804 -11.28516,-1.75977 z"
           id="path5426" />
        <path
           style="color:#000000;fill:#423232;stroke-linecap:round;stroke-linejoin:round;stroke-miterlimit:10;-inkscape-stroke:none"
           d="m 216.05078,108.27734 c -1.68802,0.0501 -3.72692,0.30384 -6.17969,0.87305 a 1.5,1.5 0 0 0 -1.12109,1.79883 1.5,1.5 0 0 0 1.80078,1.12305 c 4.57445,-1.06159 7.35023,-0.88559 8.89844,-0.52539 0.7741,0.18009 1.24466,0.40486 1.5,0.55468 0.25534,0.14983 0.20312,0.12305 0.20312,0.12305 a 1.5,1.5 0 0 0 2.11914,0.0918 1.5,1.5 0 0 0 0.0918,-2.11914 c 0,0 -0.37231,-0.37717 -0.89453,-0.6836 -0.52222,-0.30642 -1.2872,-0.64377 -2.33984,-0.88867 -1.05265,-0.2449 -2.39011,-0.39778 -4.07813,-0.34766 z"
           id="path5428" />
        <path
           style="color:#000000;fill:#423232;stroke-linecap:round;stroke-linejoin:round;stroke-miterlimit:10;-inkscape-stroke:none"
           d="m 176.14453,153.50781 a 1.5,1.5 0 0 0 -1.09961,0.33399 1.5,1.5 0 0 0 -0.20312,2.11328 c 2.58416,3.13399 6.48851,5.58972 10.58007,6.88672 4.09157,1.297 8.45537,1.46957 11.84571,-0.55274 a 1.5,1.5 0 0 0 0.52148,-2.05664 1.5,1.5 0 0 0 -2.05664,-0.52148 c -2.30965,1.37769 -5.84587,1.39948 -9.4043,0.27148 -3.55842,-1.128 -7.05409,-3.37149 -9.16992,-5.9375 a 1.5,1.5 0 0 0 -1.01367,-0.53711 z"
           id="path5430" />
      </g>
    </g>
  </g>
</svg>
