<?xml version="1.0" encoding="UTF-8" standalone="no"?>
<!-- Created with Inkscape (http://www.inkscape.org/) -->

<svg
   width="79.375mm"
   height="79.375mm"
   viewBox="0 0 79.375 79.375"
   version="1.1"
   id="svg5"
   sodipodi:docname="avatar-4.svg"
   inkscape:version="1.1.1 (3bf5ae0d25, 2021-09-20)"
   xmlns:inkscape="http://www.inkscape.org/namespaces/inkscape"
   xmlns:sodipodi="http://sodipodi.sourceforge.net/DTD/sodipodi-0.dtd"
   xmlns="http://www.w3.org/2000/svg"
   xmlns:svg="http://www.w3.org/2000/svg">
  <sodipodi:namedview
     id="namedview7"
     pagecolor="#ffffff"
     bordercolor="#999999"
     borderopacity="1"
     inkscape:pageshadow="0"
     inkscape:pageopacity="0"
     inkscape:pagecheckerboard="0"
     inkscape:document-units="mm"
     showgrid="false"
     inkscape:zoom="0.72337262"
     inkscape:cx="249.52562"
     inkscape:cy="43.546022"
     inkscape:window-width="1920"
     inkscape:window-height="1001"
     inkscape:window-x="-9"
     inkscape:window-y="-9"
     inkscape:window-maximized="1"
     inkscape:current-layer="layer1" />
  <defs
     id="defs2">
    <clipPath
       id="clip0_421_1274">
      <rect
         width="300"
         height="300"
         fill="#ffffff"
         id="rect903"
         x="0"
         y="0" />
    </clipPath>
    <clipPath
       id="clip0_421_1274-3">
      <rect
         width="300"
         height="300"
         fill="#ffffff"
         id="rect1539"
         x="0"
         y="0" />
    </clipPath>
    <clipPath
       id="clip0_421_1274-35">
      <rect
         width="300"
         height="300"
         fill="#ffffff"
         id="rect1928"
         x="0"
         y="0" />
    </clipPath>
    <clipPath
       id="clip0_421_1274-8">
      <rect
         width="300"
         height="300"
         fill="#ffffff"
         id="rect2361"
         x="0"
         y="0" />
    </clipPath>
    <linearGradient
       id="paint0_linear_421_1274"
       x1="121.039"
       y1="222.77901"
       x2="121.039"
       y2="132.015"
       gradientUnits="userSpaceOnUse">
      <stop
         stop-color="#FF7300"
         id="stop2716" />
      <stop
         offset="0.1086"
         stop-color="#FF8D08"
         id="stop2718" />
      <stop
         offset="0.2899"
         stop-color="#FFB214"
         id="stop2720" />
      <stop
         offset="0.4716"
         stop-color="#FFCF1E"
         id="stop2722" />
      <stop
         offset="0.6514"
         stop-color="#FFE325"
         id="stop2724" />
      <stop
         offset="0.8286"
         stop-color="#FFF029"
         id="stop2726" />
      <stop
         offset="1"
         stop-color="#FFF42A"
         id="stop2728" />
    </linearGradient>
    <linearGradient
       id="paint1_linear_421_1274"
       x1="121.04"
       y1="129.14799"
       x2="121.04"
       y2="139.46899"
       gradientUnits="userSpaceOnUse">
      <stop
         stop-color="#FF7300"
         id="stop2731" />
      <stop
         offset="0.1086"
         stop-color="#FF8D08"
         id="stop2733" />
      <stop
         offset="0.2899"
         stop-color="#FFB214"
         id="stop2735" />
      <stop
         offset="0.4716"
         stop-color="#FFCF1E"
         id="stop2737" />
      <stop
         offset="0.6514"
         stop-color="#FFE325"
         id="stop2739" />
      <stop
         offset="0.8286"
         stop-color="#FFF029"
         id="stop2741" />
      <stop
         offset="1"
         stop-color="#FFF42A"
         id="stop2743" />
    </linearGradient>
    <linearGradient
       id="paint2_linear_421_1274"
       x1="226.423"
       y1="222.77901"
       x2="226.423"
       y2="132.015"
       gradientUnits="userSpaceOnUse">
      <stop
         stop-color="#FF7300"
         id="stop2746" />
      <stop
         offset="0.1086"
         stop-color="#FF8D08"
         id="stop2748" />
      <stop
         offset="0.2899"
         stop-color="#FFB214"
         id="stop2750" />
      <stop
         offset="0.4716"
         stop-color="#FFCF1E"
         id="stop2752" />
      <stop
         offset="0.6514"
         stop-color="#FFE325"
         id="stop2754" />
      <stop
         offset="0.8286"
         stop-color="#FFF029"
         id="stop2756" />
      <stop
         offset="1"
         stop-color="#FFF42A"
         id="stop2758" />
    </linearGradient>
    <clipPath
       id="clip0_421_1274-6">
      <rect
         width="300"
         height="300"
         fill="#ffffff"
         id="rect2761"
         x="0"
         y="0" />
    </clipPath>
    <clipPath
       id="clip0_421_1274-9">
      <rect
         width="300"
         height="300"
         fill="#ffffff"
         id="rect3154"
         x="0"
         y="0" />
    </clipPath>
    <clipPath
       id="clip0_421_1274-61">
      <rect
         width="300"
         height="300"
         fill="#ffffff"
         id="rect3560"
         x="0"
         y="0" />
    </clipPath>
    <linearGradient
       id="paint0_linear_421_1274-3"
       x1="118.039"
       y1="225.166"
       x2="118.039"
       y2="137.532"
       gradientUnits="userSpaceOnUse">
      <stop
         stop-color="#FF7300"
         id="stop4079" />
      <stop
         offset="0.1086"
         stop-color="#FF8D08"
         id="stop4081" />
      <stop
         offset="0.2899"
         stop-color="#FFB214"
         id="stop4083" />
      <stop
         offset="0.4716"
         stop-color="#FFCF1E"
         id="stop4085" />
      <stop
         offset="0.6514"
         stop-color="#FFE325"
         id="stop4087" />
      <stop
         offset="0.8286"
         stop-color="#FFF029"
         id="stop4089" />
      <stop
         offset="1"
         stop-color="#FFF42A"
         id="stop4091" />
    </linearGradient>
    <linearGradient
       id="paint1_linear_421_1274-7"
       x1="118.04"
       y1="134.76401"
       x2="118.04"
       y2="144.729"
       gradientUnits="userSpaceOnUse">
      <stop
         stop-color="#FF7300"
         id="stop4094" />
      <stop
         offset="0.1086"
         stop-color="#FF8D08"
         id="stop4096" />
      <stop
         offset="0.2899"
         stop-color="#FFB214"
         id="stop4098" />
      <stop
         offset="0.4716"
         stop-color="#FFCF1E"
         id="stop4100" />
      <stop
         offset="0.6514"
         stop-color="#FFE325"
         id="stop4102" />
      <stop
         offset="0.8286"
         stop-color="#FFF029"
         id="stop4104" />
      <stop
         offset="1"
         stop-color="#FFF42A"
         id="stop4106" />
    </linearGradient>
    <linearGradient
       id="paint2_linear_421_1274-8"
       x1="223.423"
       y1="225.166"
       x2="223.423"
       y2="137.532"
       gradientUnits="userSpaceOnUse">
      <stop
         stop-color="#FF7300"
         id="stop4109" />
      <stop
         offset="0.1086"
         stop-color="#FF8D08"
         id="stop4111" />
      <stop
         offset="0.2899"
         stop-color="#FFB214"
         id="stop4113" />
      <stop
         offset="0.4716"
         stop-color="#FFCF1E"
         id="stop4115" />
      <stop
         offset="0.6514"
         stop-color="#FFE325"
         id="stop4117" />
      <stop
         offset="0.8286"
         stop-color="#FFF029"
         id="stop4119" />
      <stop
         offset="1"
         stop-color="#FFF42A"
         id="stop4121" />
    </linearGradient>
    <clipPath
       id="clip0_421_1274-4">
      <rect
         width="300"
         height="300"
         fill="#ffffff"
         id="rect4124"
         x="0"
         y="0" />
    </clipPath>
    <clipPath
       id="clip0_421_1274-2">
      <rect
         width="300"
         height="300"
         fill="#ffffff"
         id="rect4458"
         x="0"
         y="0" />
    </clipPath>
  </defs>
  <g
     inkscape:label="Layer 1"
     inkscape:groupmode="layer"
     id="layer1"
     transform="translate(-72.769719,-66.91749)">
    <g
       style="fill:none"
       id="g4509"
       transform="matrix(0.26458333,0,0,0.26458333,72.769719,66.91749)">
      <g
         clip-path="url(#clip0_421_1274-2)"
         id="g4456">
        <path
           id="rect4379"
           style="fill:#b5e2c9;fill-opacity:0.968627"
           d="M 0,0 H 300 V 300 H 0 Z" />
        <path
           d="m 251.148,266.099 c -0.775,0.553 -1.66,1.107 -2.434,1.66 -0.885,0.553 -1.66,1.106 -2.545,1.549 -0.775,0.443 -1.439,0.885 -2.213,1.328 -0.111,0.11 -0.221,0.11 -0.332,0.221 -2.545,1.549 -5.2,2.987 -7.856,4.315 -0.774,0.443 -1.66,0.885 -2.434,1.217 0,0 -0.111,0.111 -0.221,0.111 -0.886,0.443 -1.771,0.885 -2.656,1.328 -1.77,0.885 -3.651,1.659 -5.422,2.434 -0.885,0.443 -1.881,0.774 -2.766,1.106 -0.885,0.332 -1.881,0.775 -2.766,1.107 -0.885,0.332 -1.881,0.774 -2.766,1.106 0,0 0,0 -0.111,0 -0.885,0.332 -1.881,0.664 -2.766,0.996 -1.992,0.664 -4.094,1.328 -6.086,1.992 -0.663,0.221 -1.438,0.442 -2.102,0.664 -2.102,0.664 -4.204,1.217 -6.307,1.659 -0.774,0.222 -1.549,0.332 -2.434,0.554 -1.992,0.442 -4.094,0.885 -6.085,1.327 -0.443,0.111 -0.775,0.111 -1.218,0.222 -0.663,0.11 -1.438,0.221 -2.102,0.332 -0.996,0.11 -1.881,0.332 -2.877,0.442 -0.442,0.111 -0.885,0.111 -1.327,0.222 -0.554,0.11 -1.218,0.221 -1.881,0.221 -1.771,0.221 -3.652,0.442 -5.422,0.664 -0.553,0.11 -1.217,0.11 -1.77,0.221 h -0.111 c -0.775,0.111 -1.549,0.111 -2.324,0.221 -0.774,0.111 -1.549,0.111 -2.323,0.111 -0.443,0 -0.996,0.111 -1.439,0.111 -0.885,0 -1.659,0.11 -2.434,0.11 -1.106,0 -2.102,0.111 -3.209,0.111 -1.106,0 -2.102,0 -3.208,0 -0.775,0 -1.55,0 -2.324,0 -46.582,-0.664 -88.6281,-20.47 -118.5027,-51.893 0,0 0,-0.111 -0.1106,-0.111 3.43,-6.75 16.1544,-18.921 29.432,-28.99 16.8183,-12.724 40.6073,-20.58 40.6073,-20.58 0,0 15.601,-2.545 73.469,9.516 44.149,9.294 62.958,47.025 69.376,64.396 z"
           fill="#f7d3b5"
           id="path4381" />
        <path
           d="m 194.054,232.352 c -2.324,11.397 -17.371,18.146 -42.71,7.966 -31.091,-12.613 -43.041,-48.131 -43.041,-48.131 -1.66,-25.449 -5.532,-47.246 -5.532,-47.246 35.96,-3.098 78.448,38.948 78.448,38.948 l 4.869,20.801 c 0.442,1.771 1.327,3.32 2.655,4.426 2.324,3.983 6.86,15.933 5.311,23.236 z"
           fill="#f7d3b5"
           id="path4383" />
        <path
           d="m 188.743,209.227 c -21.133,-1.107 -36.735,-4.205 -53.442,-34.19 14.163,12.503 30.87,17.261 48.463,19.474 l 2.324,10.179 c 0.442,1.881 1.327,3.43 2.655,4.537 z"
           fill="#efbda5"
           id="path4385" />
        <path
           d="m 232.449,75.8974 c 1.991,9.2944 2.987,16.8183 -2.435,41.6036 -5.421,24.784 4.979,49.569 -21.133,72.252 -17.593,15.269 -48.353,18.146 -72.916,1.438 -8.299,-5.643 -15.934,-13.499 -22.13,-23.789 C 108.967,159.325 103.324,151.69 97.0169,144.72 88.2758,135.204 77.7644,116.062 82.9648,82.2043 91.3739,27.1022 145.923,20.7954 178.121,26.8809 c 32.198,6.0856 48.906,24.453 54.328,49.0165 z"
           fill="#f7d3b5"
           id="path4387" />
        <path
           d="m 126.56,119.16 c 0,0 -3.43,-16.597 -19.585,-14.605 -13.9411,1.77 -18.8096,35.186 12.835,44.48"
           fill="#f7d3b5"
           id="path4389" />
        <path
           style="color:#000000;fill:#423232;stroke-linecap:round;stroke-linejoin:round;stroke-miterlimit:10;-inkscape-stroke:none"
           d="m 110.88672,115.47656 c -0.79876,-0.0615 -1.54581,0.026 -2.22266,0.25 -1.3537,0.44791 -2.33004,1.3892 -2.98047,2.36914 -0.65042,0.97995 -1.01635,2.01625 -1.22656,2.90039 -0.1051,0.44208 -0.16984,0.84509 -0.20117,1.20313 -0.0313,0.35804 -0.0757,0.59147 0.0488,1.08789 a 1.5,1.5 0 0 0 1.81836,1.08984 1.5,1.5 0 0 0 1.09179,-1.82031 c 0.069,0.27517 0.0128,0.093 0.0293,-0.0957 0.0165,-0.18866 0.058,-0.46307 0.13086,-0.76953 0.14573,-0.61292 0.42177,-1.3547 0.80859,-1.9375 0.38683,-0.5828 0.84265,-0.98804 1.42188,-1.17969 0.57923,-0.19166 1.37958,-0.22332 2.65625,0.31055 a 1.50015,1.50015 0 0 0 0.01,0.004 c 0.73841,0.30186 1.17666,0.8189 1.49024,2.09571 0.31358,1.2768 0.34257,3.23267 0.0234,5.73242 a 1.50015,1.50015 0 0 0 -0.004,0.041 c -0.53623,5.3684 4.22656,8.38281 4.22656,8.38281 a 1.5,1.5 0 0 0 2.07032,-0.45703 1.5,1.5 0 0 0 -0.45508,-2.07226 c 0,0 -3.20519,-2.07505 -2.85742,-5.55664 0.33949,-2.68138 0.36852,-4.92077 -0.0898,-6.78711 -0.46068,-1.87573 -1.57151,-3.45864 -3.26562,-4.15235 -0.88024,-0.36719 -1.72715,-0.57737 -2.52344,-0.63867 z"
           id="path4391" />
        <path
           d="m 203.238,144.609 c 0,0 4.205,0.221 8.188,-4.536 2.213,-2.656 4.094,-5.975 2.877,-6.971 -1.217,-1.107 -21.244,1.991 -22.572,4.647 -1.328,2.655 6.417,6.86 11.507,6.86 z"
           fill="#efbda5"
           id="path4393" />
        <path
           style="color:#000000;fill:#423232;stroke-linecap:round;stroke-linejoin:round;stroke-miterlimit:10;-inkscape-stroke:none"
           d="m 206.52734,105.93164 a 1.5,1.5 0 0 0 -1.46875,1.53125 c 0,0 0.23478,10.90454 7.16993,22.95703 h -0.002 c 1.15429,2.0088 0.91411,4.81516 -0.82812,7.4043 -1.74224,2.58913 -4.94547,4.85893 -9.48242,5.52148 a 1.5,1.5 0 0 0 -1.26758,1.70117 1.5,1.5 0 0 0 1.70117,1.26758 c 5.31004,-0.77545 9.2961,-3.48409 11.53711,-6.81445 2.24101,-3.33036 2.77512,-7.38497 0.9414,-10.57617 -6.56284,-11.40549 -6.76953,-21.52344 -6.76953,-21.52344 a 1.5,1.5 0 0 0 -1.53125,-1.46875 z"
           id="path4395" />
        <path
           opacity="0.42"
           d="m 146.587,150.252 c 6.294,0 11.397,-4.211 11.397,-9.405 0,-5.194 -5.103,-9.405 -11.397,-9.405 -6.294,0 -11.397,4.211 -11.397,9.405 0,5.194 5.103,9.405 11.397,9.405 z"
           fill="#ed938a"
           id="path4397" />
        <path
           opacity="0.42"
           d="m 228.244,131.663 c -0.332,6.197 -0.221,12.282 -0.664,18.368 -4.868,-1.107 -8.409,-4.758 -8.409,-9.073 0,-4.647 3.873,-8.409 9.073,-9.295 z"
           fill="#ed938a"
           id="path4399" />
        <path
           d="M 290.028,336.257 H 6.71777 c 0,0 1.68104,-52 18.71553,-89.095 12.8879,-28.017 43.2586,-43.595 65.8965,-51.664 6.388,-2.241 12.2152,-3.922 16.6982,-5.155 0,0.56 0.112,1.009 0.112,1.569 0,0 12.104,35.974 43.595,48.75 25.664,10.422 40.905,3.474 43.259,-8.069 1.457,-7.397 -3.138,-19.5 -5.492,-23.422 -1.345,-1.121 -2.241,-2.802 -2.689,-4.483 l -0.897,-3.698 c 2.129,-0.449 4.147,-1.009 6.164,-1.682 0.672,-0.224 1.233,-0.448 1.905,-0.672 14.457,3.81 36.198,12.888 61.862,34.405 29.026,24.319 34.181,103.216 34.181,103.216 z"
           fill="#ce3e3e"
           id="path4401" />
        <mask
           id="mask0_421_1274"
           maskUnits="userSpaceOnUse"
           x="6"
           y="190"
           width="285"
           height="147">
          <path
             d="M 290.028,336.257 H 6.71777 c 0,0 1.68104,-52 18.71553,-89.095 12.8879,-28.017 43.2586,-43.595 65.8965,-51.664 6.388,-2.241 12.2152,-3.922 16.6982,-5.155 0,0.56 0.112,1.009 0.112,1.569 0,0 12.104,35.974 43.595,48.75 25.664,10.422 40.905,3.474 43.259,-8.069 1.457,-7.397 -3.138,-19.5 -5.492,-23.422 -1.345,-1.121 -2.241,-2.802 -2.689,-4.483 l -0.897,-3.698 c 2.129,-0.449 4.147,-1.009 6.164,-1.682 0.672,-0.224 1.233,-0.448 1.905,-0.672 14.457,3.81 36.198,12.888 61.862,34.405 29.026,24.319 34.181,103.216 34.181,103.216 z"
             fill="#ce3e3e"
             id="path4403" />
        </mask>
        <g
           mask="url(#mask0_421_1274)"
           id="g4420">
          <path
             d="m 123.005,210.335 -15.057,15.057 15.057,15.056 15.056,-15.056 z"
             fill="#ffffff"
             id="path4406" />
          <path
             d="m 181.971,210.38 -15.056,15.056 15.056,15.057 15.057,-15.057 z"
             fill="#ffffff"
             id="path4408" />
          <path
             d="M 63.9597,210.37 48.9033,225.426 63.9597,240.483 79.016,225.426 Z"
             fill="#ffffff"
             id="path4410" />
          <path
             d="m 240.228,210.335 -15.056,15.056 15.056,15.057 15.057,-15.057 z"
             fill="#ffffff"
             id="path4412" />
          <path
             d="m 95.7331,268.658 -15.0563,15.057 15.0563,15.056 15.0559,-15.056 z"
             fill="#ffffff"
             id="path4414" />
          <path
             d="m 154.778,268.624 -15.056,15.056 15.056,15.057 15.056,-15.057 z"
             fill="#ffffff"
             id="path4416" />
          <path
             d="m 212.956,268.658 -15.057,15.056 15.057,15.057 15.056,-15.057 z"
             fill="#ffffff"
             id="path4418" />
        </g>
        <path
           d="m 176.614,236.067 c 0,0 -7.733,5.828 -6.052,11.319 1.569,5.491 16.587,4.595 19.5,0 2.802,-4.595 -9.75,-12.328 -13.448,-11.319 z"
           fill="#ce3e3e"
           id="path4422" />
        <path
           d="m 176.502,235.955 c 0.112,0.112 0.112,0.112 0.224,0.224 0,-0.112 0,-0.224 0,-0.224 -0.112,-0.112 -0.224,-0.112 -0.224,0 z"
           fill="#ffffff"
           id="path4424" />
        <path
           d="m 146.804,231.472 c -31.491,-12.776 -38.663,-39.56 -38.663,-39.56 0,-0.56 -0.113,-1.009 -0.113,-1.569 -0.112,-1.681 -0.448,-6.5 -0.672,-8.181 -2.017,0.672 -4.483,2.017 -6.724,3.25 -4.0346,2.353 -7.2846,5.715 -9.3018,9.862 0,0.112 -0.1121,0.112 -0.1121,0.224 -0.2241,29.474 28.5779,52 51.1039,60.069 13.672,4.931 29.025,-2.129 33.396,-15.914 0.336,-1.232 0.673,-2.353 0.897,-3.586 -0.112,-0.112 -0.112,-0.112 -0.224,-0.224 -7.285,1.569 -17.259,0.56 -29.587,-4.371 z"
           fill="#ffffff"
           id="path4426" />
        <path
           d="m 204.071,226.765 c -1.905,-15.577 -6.948,-21.629 -11.879,-27.569 -2.017,0.673 -5.379,1.457 -7.509,1.906 0,0 7.285,9.413 5.38,22.189 -0.897,6.052 -5.492,10.647 -13.337,12.44 0,0.112 0,0.112 -0.112,0.224 2.914,3.362 6.164,6.276 9.75,8.629 5.828,3.923 13.897,1.345 16.25,-5.267 1.457,-3.81 2.017,-8.181 1.457,-12.552 z"
           fill="#ffffff"
           id="path4428" />
        <path
           style="color:#000000;fill:#544d4d;stroke-linecap:round;stroke-linejoin:round;stroke-miterlimit:10;-inkscape-stroke:none"
           d="m 56.966797,293.30273 a 1.5,1.5 0 0 0 -1.306641,1.66993 l 5.042969,41.46484 a 1.5,1.5 0 0 0 1.669922,1.30859 1.5,1.5 0 0 0 1.30664,-1.66992 l -5.042968,-41.4668 a 1.5,1.5 0 0 0 -1.669922,-1.30664 z"
           id="path4430" />
        <path
           style="color:#000000;fill:#544d4d;stroke-linecap:round;stroke-linejoin:round;stroke-miterlimit:10;-inkscape-stroke:none"
           d="m 258.43555,279.16992 a 1.5,1.5 0 0 0 -1.95703,0.81836 c 0,0 -3.52936,8.41109 -2.45704,17.11524 a 1.50015,1.50015 0 0 0 0,0.002 c 1.03015,8.35248 3.88775,19.93839 -0.20117,38.83398 a 1.5,1.5 0 0 0 1.15039,1.78321 1.5,1.5 0 0 0 1.78321,-1.14844 c 4.20507,-19.43237 1.23394,-31.82644 0.24609,-39.83594 -0.94367,-7.65984 2.25195,-15.60937 2.25195,-15.60937 a 1.5,1.5 0 0 0 -0.8164,-1.95899 z"
           id="path4432" />
        <path
           d="m 187.427,199.686 c 8.176,-2.128 15.456,-5.824 21.392,-10.976 26.432,-22.848 15.904,-48.048 21.392,-73.136 1.792,-8.064 2.8,-14.336 3.472,-19.3757 -0.896,-0.112 -1.904,-0.224 -2.912,-0.448 -4.032,-0.56 -6.72,-4.256 -6.272,-8.288 0.224,-1.68 0.336,-3.36 0.448,-5.152 -0.448,-0.112 -0.336,-0.112 -0.784,-0.112 -0.672,2.128 -1.456,4.368 -2.016,6.496 -1.008,3.36 -4.256,5.488 -7.616,5.264 h -0.112 c -3.92,-0.336 -6.832,-3.584 -6.832,-7.504 0.112,-2.8 0.112,-5.6 0.224,-8.4 -0.448,-0.112 -0.224,0 -0.672,-0.112 -0.56,2.912 -1.12,5.824 -1.68,8.848 -0.672,3.696 -3.92,6.272 -7.616,6.048 -9.632,-0.448 -19.152,-0.56 -27.776,-0.56 -3.808,0 -6.944,-2.8 -7.28,-6.608 -0.56,-4.928 -1.344,-9.856 -2.688,-14.896 -1.456,4.48 -1.456,9.184 -1.232,14 0.224,4.144 -3.024,7.616 -7.168,7.728 -9.968,0.224 -16.688,0.56 -17.808,0.672 0.336,15.3437 -3.136,32.3677 -9.296,20.8317 -0.448,-0.784 -0.784,-1.568 -1.232,-2.576 -2.576,-4.592 -7.728,-10.08 -17.472,-8.848 -13.6645,1.792 -18.7045,33.488 9.968,44.016 0.112,2.352 0.672,4.704 1.68,7.168 4.368,10.64 6.272,19.488 6.272,26.768 0,42.224 -69.1045,24.64 -88.5925,-13.664 -7.504,-14.896 -7.616,-32.816 6.608,-51.632 34.832,-42.6717 24.416,-26.4317 32.144,-51.7437 12.656,-41.44 41.5525,-54.65603 79.8565,-54.32003 0,0 63.728,-10e-6 80.64,15.45603 16.912,15.456 11.088,63.728 9.632,68.096 -0.448,1.344 -1.568,2.128 -2.8,2.688 -0.672,22.0637 1.568,29.7917 9.408,47.5997 17.136,39.2 -15.232,76.496 -63.28,56.672 z"
           fill="#423232"
           id="path4434" />
        <path
           d="m 124.594,114.118 c -0.448,-0.784 -0.784,-1.568 -1.232,-2.576 0.448,0.896 0.896,1.792 1.232,2.576 z"
           fill="#fee4bf"
           id="path4436" />
        <path
           d="m 186.071,98.6113 c 2.2,0.3 3.9,-2 3.1,-4.2 -0.4,-1.2 -1.1,-2.3 -2.2,-3 -3.4,-2.1 -16.1,-2.3 -22.8,2.5 -5.9,4.4 11.9,3.3 21.9,4.7 z"
           fill="#423232"
           id="path4438" />
        <path
           d="m 213.771,99.7113 c -1.8,0 -2.9,-2.3 -2,-4.2 0.5,-1 1.2,-1.9 2.2,-2.4 3.1,-1.5 11.4,-0.6 15.1,4.5 3.3,4.4997 -7,2 -15.3,2.1 z"
           fill="#423232"
           id="path4440" />
        <path
           style="color:#000000;fill:#423232;stroke-linecap:round;stroke-linejoin:round;stroke-miterlimit:10;-inkscape-stroke:none"
           d="m 166.71094,109.05469 a 1.5,1.5 0 0 0 -1.9961,0.71679 1.5,1.5 0 0 0 0.7168,1.9961 c 0,0 9.1454,4.45388 17.72461,0.82422 a 1.5,1.5 0 0 0 0.79687,-1.96485 1.5,1.5 0 0 0 -1.96679,-0.79687 c -7.02077,2.97032 -15.27539,-0.77539 -15.27539,-0.77539 z"
           id="path4442" />
        <path
           style="color:#000000;fill:#423232;stroke-linecap:round;stroke-linejoin:round;stroke-miterlimit:10;-inkscape-stroke:none"
           d="m 209.47852,111.16406 a 1.5,1.5 0 0 0 -0.90821,0.70117 1.5,1.5 0 0 0 0.55469,2.04688 c 7.41406,4.25218 13.72852,0.57812 13.72852,0.57812 a 1.5,1.5 0 0 0 0.49804,-2.06054 1.5,1.5 0 0 0 -2.0625,-0.49805 c 0,0 -4.48595,2.92672 -10.67187,-0.62109 a 1.5,1.5 0 0 0 -1.13867,-0.14649 z"
           id="path4444" />
        <path
           style="color:#000000;fill:#423232;stroke-linecap:round;stroke-linejoin:round;stroke-miterlimit:10;-inkscape-stroke:none"
           d="m 178.14453,151.50781 a 1.5,1.5 0 0 0 -1.09961,0.33399 1.5,1.5 0 0 0 -0.20312,2.11328 c 2.58416,3.13399 6.48851,5.58972 10.58007,6.88672 4.09157,1.297 8.45537,1.46957 11.84571,-0.55274 a 1.5,1.5 0 0 0 0.52148,-2.05664 1.5,1.5 0 0 0 -2.05664,-0.52148 c -2.30965,1.37769 -5.84587,1.39948 -9.4043,0.27148 -3.55842,-1.128 -7.05409,-3.37149 -9.16992,-5.9375 a 1.5,1.5 0 0 0 -1.01367,-0.53711 z"
           id="path4446" />
        <path
           d="m 114.673,124.01 c 0,0 -9.143,-1.228 -8.458,10.227 0.343,5.829 0.343,9 0.229,10.636 -0.114,1.125 0.686,2.148 1.829,2.557 1.371,0.511 2.857,0 3.542,-1.227 1.029,-1.637 2.172,-3.887 2.172,-5.728 0,-3.068 3.657,-5.829 3.657,-5.829 0,0 -3.314,-2.557 -2.971,-10.636 z"
           fill="#ffffff"
           id="path4448" />
        <path
           d="m 142.33,321.191 c -0.914,-0.92 -36.8,-55.841 -31.428,-76.5 3.657,-14.216 -1.143,-30.579 -5.372,-45 -1.714,-5.931 -3.314,-11.454 -4.228,-16.363 -1.6004,-8.489 -0.458,-16.568 3.428,-24.034 4.229,-8.387 3.543,-15.648 3.543,-15.75 l 2.286,-0.205 c 0,0.307 0.685,7.977 -3.772,16.773 -3.657,7.057 -4.685,14.829 -3.2,22.909 0.915,4.807 2.515,10.33 4.229,16.261 4.343,14.625 9.143,31.296 5.371,46.023 -5.028,19.636 30.743,74.557 30.972,74.761 z"
           fill="#ffffff"
           id="path4450" />
        <path
           d="m 106.559,140.169 c 0.114,2.25 0,3.784 0,4.704 -0.115,1.125 0.685,2.148 1.828,2.557 1.372,0.511 2.857,0 3.543,-1.227 1.029,-1.637 2.172,-3.887 2.172,-5.728 0,-0.102 0,-0.306 0,-0.409 -2.4,0.819 -5.143,1.432 -7.543,0.103 z"
           fill="#e5e5e5"
           id="path4452" />
        <path
           d="m 214.102,208.18 c -0.8,4.705 -0.915,12.17 -1.143,20.864 -0.343,16.772 -11.429,82.125 -16.8,92.454 l -2.057,-0.818 c 5.142,-10.023 16.228,-75.068 16.571,-91.636 0.229,-8.694 0.343,-16.262 1.143,-21.171 1.714,-10.329 0.457,-18.102 -0.229,-21.375 0.343,-0.307 0.686,-0.511 1.029,-0.818 0.343,-0.205 0.571,-0.511 0.914,-0.716 0.686,2.659 2.629,11.148 0.572,23.216 z"
           fill="#ffffff"
           id="path4454" />
      </g>
    </g>
  </g>
</svg>
