<?xml version="1.0" encoding="UTF-8" standalone="no"?>
<!-- Created with Inkscape (http://www.inkscape.org/) -->

<svg
   width="79.375mm"
   height="79.375mm"
   viewBox="0 0 79.375 79.375"
   version="1.1"
   id="svg5"
   xmlns="http://www.w3.org/2000/svg"
   xmlns:svg="http://www.w3.org/2000/svg">
  <defs
     id="defs2">
    <clipPath
       id="clip0_421_1274">
      <rect
         width="300"
         height="300"
         fill="#ffffff"
         id="rect903"
         x="0"
         y="0" />
    </clipPath>
    <clipPath
       id="clip0_421_1274-3">
      <rect
         width="300"
         height="300"
         fill="#ffffff"
         id="rect1539"
         x="0"
         y="0" />
    </clipPath>
    <clipPath
       id="clip0_421_1274-35">
      <rect
         width="300"
         height="300"
         fill="#ffffff"
         id="rect1928"
         x="0"
         y="0" />
    </clipPath>
    <clipPath
       id="clip0_421_1274-8">
      <rect
         width="300"
         height="300"
         fill="#ffffff"
         id="rect2361"
         x="0"
         y="0" />
    </clipPath>
    <linearGradient
       id="paint0_linear_421_1274"
       x1="121.039"
       y1="222.77901"
       x2="121.039"
       y2="132.015"
       gradientUnits="userSpaceOnUse">
      <stop
         stop-color="#FF7300"
         id="stop2716" />
      <stop
         offset="0.1086"
         stop-color="#FF8D08"
         id="stop2718" />
      <stop
         offset="0.2899"
         stop-color="#FFB214"
         id="stop2720" />
      <stop
         offset="0.4716"
         stop-color="#FFCF1E"
         id="stop2722" />
      <stop
         offset="0.6514"
         stop-color="#FFE325"
         id="stop2724" />
      <stop
         offset="0.8286"
         stop-color="#FFF029"
         id="stop2726" />
      <stop
         offset="1"
         stop-color="#FFF42A"
         id="stop2728" />
    </linearGradient>
    <linearGradient
       id="paint1_linear_421_1274"
       x1="121.04"
       y1="129.14799"
       x2="121.04"
       y2="139.46899"
       gradientUnits="userSpaceOnUse">
      <stop
         stop-color="#FF7300"
         id="stop2731" />
      <stop
         offset="0.1086"
         stop-color="#FF8D08"
         id="stop2733" />
      <stop
         offset="0.2899"
         stop-color="#FFB214"
         id="stop2735" />
      <stop
         offset="0.4716"
         stop-color="#FFCF1E"
         id="stop2737" />
      <stop
         offset="0.6514"
         stop-color="#FFE325"
         id="stop2739" />
      <stop
         offset="0.8286"
         stop-color="#FFF029"
         id="stop2741" />
      <stop
         offset="1"
         stop-color="#FFF42A"
         id="stop2743" />
    </linearGradient>
    <linearGradient
       id="paint2_linear_421_1274"
       x1="226.423"
       y1="222.77901"
       x2="226.423"
       y2="132.015"
       gradientUnits="userSpaceOnUse">
      <stop
         stop-color="#FF7300"
         id="stop2746" />
      <stop
         offset="0.1086"
         stop-color="#FF8D08"
         id="stop2748" />
      <stop
         offset="0.2899"
         stop-color="#FFB214"
         id="stop2750" />
      <stop
         offset="0.4716"
         stop-color="#FFCF1E"
         id="stop2752" />
      <stop
         offset="0.6514"
         stop-color="#FFE325"
         id="stop2754" />
      <stop
         offset="0.8286"
         stop-color="#FFF029"
         id="stop2756" />
      <stop
         offset="1"
         stop-color="#FFF42A"
         id="stop2758" />
    </linearGradient>
    <clipPath
       id="clip0_421_1274-6">
      <rect
         width="300"
         height="300"
         fill="#ffffff"
         id="rect2761"
         x="0"
         y="0" />
    </clipPath>
    <clipPath
       id="clip0_421_1274-9">
      <rect
         width="300"
         height="300"
         fill="#ffffff"
         id="rect3154"
         x="0"
         y="0" />
    </clipPath>
  </defs>
  <g
     id="layer1"
     transform="translate(-71.130245,-66.741073)">
    <g
       style="fill:none"
       id="g3201"
       transform="matrix(0.26458333,0,0,0.26458333,71.130245,66.741073)">
      <g
         clip-path="url(#clip0_421_1274-9)"
         id="g3152">
        <path
           id="rect3082"
           style="fill:#b5e2dc;fill-opacity:0.968627"
           d="M 0,0 H 300 V 300 H 0 Z" />
        <path
           d="m 253.592,257.177 c -0.774,0.514 -1.659,1.029 -2.434,1.543 -0.885,0.515 -1.66,1.029 -2.545,1.44 -0.774,0.412 -1.438,0.823 -2.213,1.235 -0.11,0.103 -0.221,0.103 -0.332,0.206 -2.545,1.44 -5.2,2.778 -7.856,4.012 -0.774,0.412 -1.659,0.823 -2.434,1.132 0,0 -0.111,0.103 -0.221,0.103 -0.885,0.411 -1.771,0.823 -2.656,1.234 -1.77,0.823 -3.651,1.543 -5.422,2.264 -0.885,0.411 -1.881,0.72 -2.766,1.028 -0.885,0.309 -1.881,0.721 -2.766,1.029 -0.885,0.309 -1.881,0.72 -2.766,1.029 0,0 0,0 -0.111,0 -0.885,0.309 -1.881,0.617 -2.766,0.926 -1.992,0.617 -4.094,1.235 -6.086,1.852 -0.664,0.206 -1.438,0.411 -2.102,0.617 -2.102,0.617 -4.205,1.132 -6.307,1.543 -0.775,0.206 -1.549,0.309 -2.434,0.515 -1.992,0.411 -4.094,0.823 -6.086,1.234 -0.443,0.103 -0.774,0.103 -1.217,0.206 -0.664,0.103 -1.439,0.206 -2.102,0.309 -0.996,0.103 -1.881,0.308 -2.877,0.411 -0.443,0.103 -0.885,0.103 -1.328,0.206 -0.553,0.103 -1.217,0.206 -1.881,0.206 -1.77,0.206 -3.651,0.411 -5.422,0.617 -0.553,0.103 -1.217,0.103 -1.77,0.206 h -0.111 c -0.774,0.103 -1.549,0.103 -2.323,0.206 -0.775,0.102 -1.55,0.102 -2.324,0.102 -0.443,0 -0.996,0.103 -1.438,0.103 -0.886,0 -1.66,0.103 -2.435,0.103 -1.106,0 -2.102,0.103 -3.209,0.103 -1.106,0 -2.102,0 -3.208,0 -0.775,0 -1.549,0 -2.324,0 -46.583,-0.617 -88.6292,-19.033 -118.5043,-48.251 0,0 0,-0.103 -0.1106,-0.103 3.4301,-6.276 16.1546,-17.592 29.4324,-26.955 16.8186,-11.831 40.6075,-19.135 40.6075,-19.135 0,0 15.602,-2.367 73.471,8.847 44.149,8.642 62.959,43.725 69.376,59.877 z"
           fill="#fee4bf"
           id="path3084" />
        <path
           d="m 196.498,225.798 c -2.324,10.597 -17.372,16.873 -42.711,7.408 -31.092,-11.729 -43.042,-44.753 -43.042,-44.753 -1.659,-23.663 -5.532,-43.93 -5.532,-43.93 35.961,-2.881 78.45,36.214 78.45,36.214 l 4.868,19.341 c 0.443,1.646 1.328,3.087 2.656,4.115 2.323,3.704 6.86,14.815 5.311,21.605 z"
           fill="#fee4bf"
           id="path3086" />
        <path
           d="m 191.186,204.296 c -21.134,-1.029 -36.735,-3.909 -53.443,-31.79 14.163,11.626 30.871,16.049 48.464,18.107 l 2.324,9.465 c 0.442,1.749 1.328,3.189 2.655,4.218 z"
           fill="#efbda5"
           id="path3088" />
        <path
           d="m 234.893,80.325 c 1.992,8.642 2.987,15.6379 -2.434,38.683 -5.422,23.045 4.979,46.091 -21.134,67.181 -17.593,14.198 -48.353,16.873 -72.917,1.338 -8.299,-5.247 -15.934,-12.552 -22.13,-22.12 -4.868,-7.51 -10.512,-14.609 -16.8185,-21.09 -8.7412,-8.848 -19.2528,-26.646 -14.0523,-58.1278 8.4092,-51.2345 62.9588,-57.0987 95.1578,-51.4403 32.198,5.6584 48.906,22.7366 54.328,45.5761 z"
           fill="#fee4bf"
           id="path3090" />
        <path
           d="m 129.003,120.551 c 0,0 -3.43,-15.432 -19.585,-13.58 -13.9418,1.646 -18.8103,32.716 12.835,41.358"
           fill="#fee4bf"
           id="path3092" />
        <path
           style="color:#000000;fill:#423232;stroke-linecap:round;stroke-linejoin:round;stroke-miterlimit:10;-inkscape-stroke:none"
           d="m 113.32227,117.01953 c -0.78613,-0.0564 -1.51868,0.0233 -2.18555,0.22852 -1.33375,0.41046 -2.31977,1.28729 -2.98047,2.21289 -0.6607,0.92559 -1.03509,1.90813 -1.25,2.74804 -0.10746,0.41996 -0.17445,0.80351 -0.20703,1.14844 -0.0326,0.34494 -0.0846,0.5688 0.0527,1.08008 a 1.5,1.5 0 0 0 1.83789,1.06055 1.5,1.5 0 0 0 1.06055,-1.83789 c 0.082,0.30553 0.0197,0.14388 0.0352,-0.0195 0.0154,-0.16342 0.0563,-0.41145 0.12695,-0.6875 0.14127,-0.55212 0.4086,-1.22248 0.78516,-1.75 0.37655,-0.52753 0.82293,-0.90357 1.42187,-1.0879 0.59894,-0.18432 1.43225,-0.20921 2.71875,0.29102 a 1.50015,1.50015 0 0 0 0.01,0.004 c 0.75948,0.28882 1.15963,0.73895 1.46289,1.88672 0.30326,1.14776 0.3367,2.94243 0.0195,5.25195 a 1.50015,1.50015 0 0 0 -0.004,0.043 c -0.55197,5.12719 4.26367,7.93359 4.26367,7.93359 a 1.5,1.5 0 0 0 2.05665,-0.52344 1.5,1.5 0 0 0 -0.52344,-2.05664 c 0,0 -3.14849,-1.92845 -2.81446,-5.03125 l -0.006,0.043 c 0.34682,-2.52547 0.37969,-4.6413 -0.0918,-6.42578 -0.47125,-1.78355 -1.62084,-3.28608 -3.29492,-3.92383 -0.8743,-0.33892 -1.71106,-0.53169 -2.49414,-0.58789 z"
           id="path3094" />
        <path
           d="m 205.682,144.214 c 0,0 4.204,0.206 8.188,-4.218 2.212,-2.469 4.094,-5.556 2.876,-6.482 -1.217,-1.028 -21.244,1.852 -22.572,4.321 -1.328,2.469 6.418,6.379 11.508,6.379 z"
           fill="#efbda5"
           id="path3096" />
        <path
           style="color:#000000;fill:#423232;stroke-linecap:round;stroke-linejoin:round;stroke-miterlimit:10;-inkscape-stroke:none"
           d="m 208.9668,108.14648 a 1.5,1.5 0 0 0 -1.46485,1.53321 c 0,0 0.24193,10.20196 7.19532,21.43554 1.12101,1.81685 0.89623,4.30935 -0.82618,6.68946 -1.72309,2.38106 -4.93493,4.50894 -9.49804,5.1289 a 1.5,1.5 0 0 0 -1.28516,1.6875 1.5,1.5 0 0 0 1.68945,1.28516 c 5.28488,-0.71803 9.26525,-3.22057 11.52539,-6.34375 2.26015,-3.12318 2.80977,-7.00743 0.94532,-10.02539 a 1.50015,1.50015 0 0 0 0,-0.002 C 210.70145,118.95876 210.5,109.61133 210.5,109.61133 a 1.5,1.5 0 0 0 -1.5332,-1.46485 z"
           id="path3098" />
        <path
           opacity="0.42"
           d="m 149.03,149.461 c 6.294,0 11.396,-3.915 11.396,-8.745 0,-4.83 -5.102,-8.745 -11.396,-8.745 -6.295,0 -11.397,3.915 -11.397,8.745 0,4.83 5.102,8.745 11.397,8.745 z"
           fill="#f2a5b2"
           id="path3100" />
        <path
           opacity="0.42"
           d="m 230.688,132.177 c -0.332,5.761 -0.221,11.42 -0.663,17.078 -4.869,-1.029 -8.41,-4.424 -8.41,-8.436 0,-4.321 3.873,-7.819 9.073,-8.642 z"
           fill="#f2a5b2"
           id="path3102" />
        <path
           d="m 94.6768,195.275 c 0,0 18.2672,27.233 20.9572,55.698 l 13.896,4.707 c 0,0 -9.414,-42.138 -28.241,-63.767 0.112,0 -3.1381,-0.448 -6.6122,3.362 z"
           fill="#423232"
           id="path3104" />
        <path
           d="m 213.694,251.197 c 0,0 1.905,-28.913 -12.551,-49.31 0,0 0.896,-0.897 5.939,1.569 3.586,1.681 14.121,16.138 15.13,45.388 0.112,0 -7.285,2.465 -8.518,2.353 z"
           fill="#423232"
           id="path3106" />
        <path
           d="m 241.824,234.051 c -2.354,-8.517 -9.414,-14.345 -12.44,-14.233 0.112,0.224 0.112,0.56 0.224,0.897 4.707,16.922 -3.026,27.008 -20.06,30.706 -17.819,3.923 -32.724,4.483 -68.474,0.897 -26.224,-2.578 -50.8797,-14.905 -63.4314,-38.103 -1.2327,-2.354 -2.6896,-4.707 -4.2586,-6.837 -0.8966,-0.672 -2.5776,-0.56 -3.8104,0.449 -3.1379,2.577 -5.7155,4.482 -5.7155,6.948 0,0 -21.7414,11.991 -33.6207,46.172 -9.75,28.242 -11.3189,67.69 -11.5431,80.69 H 273.987 c -1.905,-17.371 -10.198,-83.379 -32.163,-107.586 z"
           fill="#fff573"
           id="path3108" />
        <path
           d="m 47.7202,256.016 c 6.8083,0 12.3276,-5.519 12.3276,-12.327 0,-6.809 -5.5193,-12.328 -12.3276,-12.328 -6.8084,0 -12.3276,5.519 -12.3276,12.328 0,6.808 5.5192,12.327 12.3276,12.327 z"
           fill="#423232"
           id="path3110" />
        <path
           d="m 99.9447,263.637 c 4.7663,0 8.6293,-3.864 8.6293,-8.629 0,-4.766 -3.863,-8.63 -8.6293,-8.63 -4.7658,0 -8.6293,3.864 -8.6293,8.63 0,4.765 3.8635,8.629 8.6293,8.629 z"
           fill="#423232"
           id="path3112" />
        <path
           d="m 141.41,298.827 c 5.756,0 10.422,-4.667 10.422,-10.423 0,-5.756 -4.666,-10.422 -10.422,-10.422 -5.756,0 -10.423,4.666 -10.423,10.422 0,5.756 4.667,10.423 10.423,10.423 z"
           fill="#423232"
           id="path3114" />
        <path
           d="m 193.298,279.551 c 4.394,0 7.957,-3.563 7.957,-7.957 0,-4.395 -3.563,-7.957 -7.957,-7.957 -4.395,0 -7.957,3.562 -7.957,7.957 0,4.394 3.562,7.957 7.957,7.957 z"
           fill="#423232"
           id="path3116" />
        <path
           d="m 229.833,296.025 c 6.746,0 12.215,-5.469 12.215,-12.216 0,-6.746 -5.469,-12.215 -12.215,-12.215 -6.747,0 -12.216,5.469 -12.216,12.215 0,6.747 5.469,12.216 12.216,12.216 z"
           fill="#423232"
           id="path3118" />
        <path
           d="m 258.297,263.637 c 4.766,0 8.63,-3.864 8.63,-8.629 0,-4.766 -3.864,-8.63 -8.63,-8.63 -4.766,0 -8.629,3.864 -8.629,8.63 0,4.765 3.863,8.629 8.629,8.629 z"
           fill="#423232"
           id="path3120" />
        <path
           d="m 216.384,263.637 c -18.379,7.845 -79.457,8.629 -110.948,-6.612 -19.8362,-9.638 -30.931,-22.19 -36.4224,-31.379 -3.6983,-6.164 -5.0431,-10.535 -5.1552,-10.871 0,-2.466 2.5776,-4.371 5.7155,-6.948 1.2328,-1.009 2.9138,-1.121 3.8104,-0.449 1.5689,2.242 3.0258,4.483 4.2586,6.837 12.5517,23.198 37.2071,35.525 63.4311,38.103 35.75,3.586 50.655,3.026 68.474,-0.897 17.147,-3.81 24.879,-13.896 20.06,-30.706 -0.112,-0.225 -0.112,-0.561 -0.224,-0.897 3.026,-0.224 10.086,5.603 12.44,14.233 0,0 3.362,17.37 -25.44,29.586 z"
           fill="#ffffff"
           id="path3122" />
        <path
           d="m 249.846,36.2574 c 0,-16.464 -13.328,-29.79201 -29.792,-29.79201 -14.672,0 -26.88,10.64001 -29.344,24.52801 3.024,1.008 5.936,2.352 8.624,4.256 -1.008,2.016 2.016,2.016 1.008,4.032 12.096,5.6 20.72,14.672 28.336,25.536 12.208,-3.696 21.168,-15.12 21.168,-28.56 z"
           fill="#423232"
           id="path3124" />
        <path
           d="m 235.51,103.009 c 3.024,-17.0235 2.128,-23.7435 0.336,-31.6955 -0.56,-2.464 -1.232,-4.8161 -2.016,-7.1681 -5.936,-4.704 -12.208,-7.7279 -21.728,-9.0719 -25.648,-3.472 -45.92,-1.1201 -67.536,3.5839 -13.552,2.912 -10.752,49.7276 -16.016,55.8876 -0.896,-3.136 -5.264,-15.9035 -19.6,-14.112 -13.5518,1.68 -18.7038,33.04 9.296,43.792 -0.224,6.16 -5.936,17.584 -10.528,20.16 0,0 -0.784,-8.176 -9.7438,-18.928 -8.96,-10.752 -26.88,-38.64 -14.784,-79.4075 12.096,-40.768 66.8638,-62.04806 117.8238,-41.3281 8.736,3.584 15.904,8.6241 21.616,13.8881 13.44,12.32 20.608,30.2399 18.48,48.2719 -0.56,6.048 -2.24,11.8721 -5.6,16.1276 z"
           fill="#423232"
           id="path3126" />
        <path
           d="m 87.7819,72.7694 c 18.3091,0 33.1521,-14.8427 33.1521,-33.152 0,-18.3094 -14.843,-33.15201 -33.1521,-33.15201 -18.3094,0 -33.152,14.84261 -33.152,33.15201 0,18.3093 14.8426,33.152 33.152,33.152 z"
           fill="#423232"
           id="path3128" />
        <path
           d="m 243.574,105.697 c -3.136,-1.344 -7.84,-2.464 -13.328,-3.248 0.784,-8.8476 -1.12,-15.5676 -1.12,-15.5676 -0.224,4.592 -1.456,12.208 -1.904,15.1196 -7.84,-0.896 -16.688,-1.456 -24.304,-1.68 -0.448,-6.7196 -1.904,-14.5596 -1.904,-14.5596 0,3.248 -0.56,10.528 -1.008,14.4476 -1.904,0 -3.808,-0.112 -5.488,-0.112 -1.12,0 -2.128,0 -3.248,0 -1.008,-8.3996 -3.36,-18.3676 -3.36,-18.3676 0.224,4.368 -0.56,13.664 -0.896,18.3676 -27.776,0.224 -52.528,3.024 -52.528,3.024 l -2.464,-44.4636 c 10.64,-22.512 96.768,-32.592 105.28,-14.896 15.456,31.808 6.272,61.9356 6.272,61.9356 z"
           fill="#423232"
           id="path3130" />
        <path
           d="m 243.574,105.697 c 0,0 -4.592,2.576 -8.96,2.016 0,0 0.672,-3.472 0.784,-4.368 0.112,0 6.496,1.232 8.176,2.352 z"
           fill="#423232"
           id="path3132" />
        <path
           d="m 171.828,116.678 c -2.4,-0.1 -4.2,-2.1 -4,-4.5 l 0.1,-2.8 c 0.1,-2.4 2.1,-4.2 4.5,-4 2.4,0.1 4.2,2.1 4,4.5 l -0.1,2.8 c -0.1,2.3 -2.1,4.1 -4.5,4 z"
           fill="#423232"
           id="path3134" />
        <path
           d="m 213.928,118.178 c -2.2,-0.1 -3.9,-2 -3.8,-4.2 l 0.1,-2.6 c 0.1,-2.2 2,-3.9 4.2,-3.8 2.2,0.1 3.9,2 3.8,4.2 l -0.1,2.6 c -0.1,2.2 -2,3.9 -4.2,3.8 z"
           fill="#423232"
           id="path3136" />
        <path
           style="color:#000000;fill:#423232;stroke-linecap:round;stroke-linejoin:round;stroke-miterlimit:10;-inkscape-stroke:none"
           d="m 171.44922,104.95313 c -1.04423,0.13379 -2.04404,0.40332 -2.95117,0.77343 -1.81427,0.74022 -3.39527,1.82974 -3.91211,3.63867 a 1.5,1.5 0 0 0 1.02929,1.85547 1.5,1.5 0 0 0 1.85547,-1.03125 c 0.0832,-0.29106 0.85138,-1.15077 2.16211,-1.68554 1.31073,-0.53478 3.02506,-0.79297 4.55469,-0.54493 a 1.50015,1.50015 0 0 0 0.01,0.002 c 3.79345,0.59009 6.10351,3.77929 6.10351,3.77929 a 1.5,1.5 0 0 0 2.08984,0.36524 1.5,1.5 0 0 0 0.36524,-2.08984 c 0,0 -2.88803,-4.20362 -8.08789,-5.01758 -0.001,-2.2e-4 -0.003,2.1e-4 -0.004,0 -1.08387,-0.17535 -2.17187,-0.17856 -3.21484,-0.0449 z"
           id="path3138" />
        <path
           style="color:#000000;fill:#423232;stroke-linecap:round;stroke-linejoin:round;stroke-miterlimit:10;-inkscape-stroke:none"
           d="m 215.62891,107.07813 c -2.64783,-1e-5 -4.39255,1.03977 -5.24414,2.2246 -0.8516,1.18483 -0.85743,2.47461 -0.85743,2.47461 a 1.5,1.5 0 0 0 1.5,1.5 1.5,1.5 0 0 0 1.5,-1.5 c 0,0 -0.005,-0.30944 0.29297,-0.72461 0.2984,-0.41516 0.85642,-0.9746 2.8086,-0.9746 2.87894,0 4.03515,2.62304 4.03515,2.62304 a 1.5,1.5 0 0 0 1.98828,0.74024 1.5,1.5 0 0 0 0.74024,-1.98633 c 0,0 -2.04263,-4.37696 -6.76367,-4.37695 z"
           id="path3140" />
        <path
           d="m 187.228,93.4784 c 2.2,-0.2 3.3,-2.8 2.1,-4.8 -0.7,-1 -1.6,-1.9 -2.9,-2.4 -3.8,-1.2 -16.2,1.5 -21.6,7.7 -4.8,5.7 12.4,0.4 22.4,-0.5 z"
           fill="#423232"
           id="path3142" />
        <path
           d="m 213.628,95.0784 c -1.7,-0.5 -2.2,-3 -0.8,-4.6 0.7,-0.8 1.7,-1.5 2.8,-1.7 3.4,-0.6 11.2,2.5 13.4,8.4 2,5.0996 -7.3,-0.1 -15.4,-2.1 z"
           fill="#423232"
           id="path3144" />
        <path
           style="color:#000000;fill:#423232;stroke-linecap:round;stroke-linejoin:round;stroke-miterlimit:10;-inkscape-stroke:none"
           d="m 178.27734,152.52539 a 1.5,1.5 0 0 0 -1.125,0.23633 1.5,1.5 0 0 0 -0.39062,2.08594 c 1.50589,2.20092 3.46192,2.96599 4.96289,3.14257 1.50097,0.17659 2.37814,0.0975 2.9707,0.47461 a 1.50015,1.50015 0 0 0 0.0449,0.0273 c 1.82076,1.07103 3.34223,1.61211 4.85157,1.5957 1.50934,-0.0164 2.80074,-0.55822 4.24023,-1.22656 a 1.50015,1.50015 0 0 0 0.0254,-0.0137 c 1.69062,-0.82364 2.44359,-0.7236 3.43164,-0.56641 0.98806,0.15719 2.44684,0.52511 4.11524,-0.20898 a 1.5,1.5 0 0 0 0.76953,-1.97657 1.5,1.5 0 0 0 -1.97852,-0.76953 c -0.8316,0.36591 -1.2236,0.185 -2.43554,-0.008 -1.21195,-0.19281 -3.00742,-0.24238 -5.2168,0.83398 l 0.0254,-0.0137 c -1.3605,0.63166 -2.21911,0.94063 -3.00977,0.94922 -0.79065,0.009 -1.71959,-0.25268 -3.29882,-1.18164 l 0.0449,0.0273 c -1.60744,-1.02291 -3.17949,-0.80041 -4.22852,-0.92382 -1.04902,-0.12342 -1.74379,-0.25835 -2.83789,-1.85743 a 1.5,1.5 0 0 0 -0.96094,-0.62695 z"
           id="path3146" />
        <path
           d="m 122.994,137.644 1.761,3.521 c 0.311,0.622 0.932,1.036 1.554,1.14 l 3.935,0.621 c 1.761,0.207 2.382,2.382 1.14,3.625 l -2.797,2.797 c -0.518,0.517 -0.725,1.139 -0.621,1.864 l 0.621,3.936 c 0.311,1.76 -1.553,3.003 -3.107,2.278 l -3.521,-1.864 c -0.622,-0.311 -1.347,-0.311 -1.968,0 l -3.522,1.864 c -1.553,0.829 -3.418,-0.518 -3.107,-2.278 l 0.622,-3.936 c 0.103,-0.725 -0.104,-1.347 -0.622,-1.864 l -2.796,-2.797 c -1.243,-1.243 -0.518,-3.314 1.139,-3.625 l 3.936,-0.621 c 0.725,-0.104 1.243,-0.518 1.553,-1.14 l 1.761,-3.521 c 1.036,-1.657 3.314,-1.657 4.039,0 z"
           fill="#ffde55"
           id="path3148" />
        <path
           d="m 234.334,149.244 c -0.518,0.518 -0.725,1.243 -0.622,1.864 l 0.622,3.936 c 0.311,1.761 -1.554,3.107 -3.107,2.278 l -2.072,-1.139 c 0.725,-5.075 0.932,-10.253 1.036,-15.432 l 0.207,0.414 c 0.311,0.622 0.932,1.036 1.554,1.14 l 3.935,0.517 c 1.761,0.208 2.486,2.383 1.14,3.625 z"
           fill="#ffde55"
           id="path3150" />
      </g>
    </g>
  </g>
</svg>
