<?xml version="1.0" encoding="UTF-8" standalone="no"?>
<!-- Created with Inkscape (http://www.inkscape.org/) -->

<svg
   width="79.375mm"
   height="79.375mm"
   viewBox="0 0 79.375 79.375"
   version="1.1"
   id="svg5"
   xmlns="http://www.w3.org/2000/svg"
   xmlns:svg="http://www.w3.org/2000/svg">
  <defs
     id="defs2">
    <clipPath
       id="clip0_421_1274">
      <rect
         width="300"
         height="300"
         fill="#ffffff"
         id="rect903"
         x="0"
         y="0" />
    </clipPath>
    <clipPath
       id="clip0_421_1274-3">
      <rect
         width="300"
         height="300"
         fill="#ffffff"
         id="rect1539"
         x="0"
         y="0" />
    </clipPath>
    <clipPath
       id="clip0_421_1274-35">
      <rect
         width="300"
         height="300"
         fill="#ffffff"
         id="rect1928"
         x="0"
         y="0" />
    </clipPath>
    <clipPath
       id="clip0_421_1274-8">
      <rect
         width="300"
         height="300"
         fill="#ffffff"
         id="rect2361"
         x="0"
         y="0" />
    </clipPath>
    <linearGradient
       id="paint0_linear_421_1274"
       x1="121.039"
       y1="222.77901"
       x2="121.039"
       y2="132.015"
       gradientUnits="userSpaceOnUse">
      <stop
         stop-color="#FF7300"
         id="stop2716" />
      <stop
         offset="0.1086"
         stop-color="#FF8D08"
         id="stop2718" />
      <stop
         offset="0.2899"
         stop-color="#FFB214"
         id="stop2720" />
      <stop
         offset="0.4716"
         stop-color="#FFCF1E"
         id="stop2722" />
      <stop
         offset="0.6514"
         stop-color="#FFE325"
         id="stop2724" />
      <stop
         offset="0.8286"
         stop-color="#FFF029"
         id="stop2726" />
      <stop
         offset="1"
         stop-color="#FFF42A"
         id="stop2728" />
    </linearGradient>
    <linearGradient
       id="paint1_linear_421_1274"
       x1="121.04"
       y1="129.14799"
       x2="121.04"
       y2="139.46899"
       gradientUnits="userSpaceOnUse">
      <stop
         stop-color="#FF7300"
         id="stop2731" />
      <stop
         offset="0.1086"
         stop-color="#FF8D08"
         id="stop2733" />
      <stop
         offset="0.2899"
         stop-color="#FFB214"
         id="stop2735" />
      <stop
         offset="0.4716"
         stop-color="#FFCF1E"
         id="stop2737" />
      <stop
         offset="0.6514"
         stop-color="#FFE325"
         id="stop2739" />
      <stop
         offset="0.8286"
         stop-color="#FFF029"
         id="stop2741" />
      <stop
         offset="1"
         stop-color="#FFF42A"
         id="stop2743" />
    </linearGradient>
    <linearGradient
       id="paint2_linear_421_1274"
       x1="226.423"
       y1="222.77901"
       x2="226.423"
       y2="132.015"
       gradientUnits="userSpaceOnUse">
      <stop
         stop-color="#FF7300"
         id="stop2746" />
      <stop
         offset="0.1086"
         stop-color="#FF8D08"
         id="stop2748" />
      <stop
         offset="0.2899"
         stop-color="#FFB214"
         id="stop2750" />
      <stop
         offset="0.4716"
         stop-color="#FFCF1E"
         id="stop2752" />
      <stop
         offset="0.6514"
         stop-color="#FFE325"
         id="stop2754" />
      <stop
         offset="0.8286"
         stop-color="#FFF029"
         id="stop2756" />
      <stop
         offset="1"
         stop-color="#FFF42A"
         id="stop2758" />
    </linearGradient>
    <clipPath
       id="clip0_421_1274-6">
      <rect
         width="300"
         height="300"
         fill="#ffffff"
         id="rect2761"
         x="0"
         y="0" />
    </clipPath>
    <clipPath
       id="clip0_421_1274-9">
      <rect
         width="300"
         height="300"
         fill="#ffffff"
         id="rect3154"
         x="0"
         y="0" />
    </clipPath>
    <clipPath
       id="clip0_421_1274-61">
      <rect
         width="300"
         height="300"
         fill="#ffffff"
         id="rect3560"
         x="0"
         y="0" />
    </clipPath>
    <linearGradient
       id="paint0_linear_421_1274-3"
       x1="118.039"
       y1="225.166"
       x2="118.039"
       y2="137.532"
       gradientUnits="userSpaceOnUse">
      <stop
         stop-color="#FF7300"
         id="stop4079" />
      <stop
         offset="0.1086"
         stop-color="#FF8D08"
         id="stop4081" />
      <stop
         offset="0.2899"
         stop-color="#FFB214"
         id="stop4083" />
      <stop
         offset="0.4716"
         stop-color="#FFCF1E"
         id="stop4085" />
      <stop
         offset="0.6514"
         stop-color="#FFE325"
         id="stop4087" />
      <stop
         offset="0.8286"
         stop-color="#FFF029"
         id="stop4089" />
      <stop
         offset="1"
         stop-color="#FFF42A"
         id="stop4091" />
    </linearGradient>
    <linearGradient
       id="paint1_linear_421_1274-7"
       x1="118.04"
       y1="134.76401"
       x2="118.04"
       y2="144.729"
       gradientUnits="userSpaceOnUse">
      <stop
         stop-color="#FF7300"
         id="stop4094" />
      <stop
         offset="0.1086"
         stop-color="#FF8D08"
         id="stop4096" />
      <stop
         offset="0.2899"
         stop-color="#FFB214"
         id="stop4098" />
      <stop
         offset="0.4716"
         stop-color="#FFCF1E"
         id="stop4100" />
      <stop
         offset="0.6514"
         stop-color="#FFE325"
         id="stop4102" />
      <stop
         offset="0.8286"
         stop-color="#FFF029"
         id="stop4104" />
      <stop
         offset="1"
         stop-color="#FFF42A"
         id="stop4106" />
    </linearGradient>
    <linearGradient
       id="paint2_linear_421_1274-8"
       x1="223.423"
       y1="225.166"
       x2="223.423"
       y2="137.532"
       gradientUnits="userSpaceOnUse">
      <stop
         stop-color="#FF7300"
         id="stop4109" />
      <stop
         offset="0.1086"
         stop-color="#FF8D08"
         id="stop4111" />
      <stop
         offset="0.2899"
         stop-color="#FFB214"
         id="stop4113" />
      <stop
         offset="0.4716"
         stop-color="#FFCF1E"
         id="stop4115" />
      <stop
         offset="0.6514"
         stop-color="#FFE325"
         id="stop4117" />
      <stop
         offset="0.8286"
         stop-color="#FFF029"
         id="stop4119" />
      <stop
         offset="1"
         stop-color="#FFF42A"
         id="stop4121" />
    </linearGradient>
    <clipPath
       id="clip0_421_1274-4">
      <rect
         width="300"
         height="300"
         fill="#ffffff"
         id="rect4124"
         x="0"
         y="0" />
    </clipPath>
    <clipPath
       id="clip0_421_1274-2">
      <rect
         width="300"
         height="300"
         fill="#ffffff"
         id="rect4458"
         x="0"
         y="0" />
    </clipPath>
    <clipPath
       id="clip0_421_1274-1">
      <rect
         width="300"
         height="300"
         fill="#ffffff"
         id="rect4979"
         x="0"
         y="0" />
    </clipPath>
    <clipPath
       id="clip0_421_1274-24">
      <rect
         width="300"
         height="300"
         fill="#ffffff"
         id="rect5434"
         x="0"
         y="0" />
    </clipPath>
    <clipPath
       id="clip0_421_1274-46">
      <rect
         width="300"
         height="300"
         fill="#ffffff"
         id="rect5850"
         x="0"
         y="0" />
    </clipPath>
    <clipPath
       id="clip0_421_1274-5">
      <rect
         width="300"
         height="300"
         fill="#ffffff"
         id="rect6329"
         x="0"
         y="0" />
    </clipPath>
    <clipPath
       id="clip0_421_1274-38">
      <rect
         width="300"
         height="300"
         fill="#ffffff"
         id="rect6804"
         x="0"
         y="0" />
    </clipPath>
    <clipPath
       id="clip0_421_1274-44">
      <rect
         width="300"
         height="300"
         fill="#ffffff"
         id="rect7152"
         x="0"
         y="0" />
    </clipPath>
  </defs>
  <g
     id="layer1"
     transform="translate(-197.1164,-46.056039)">
    <g
       style="fill:none"
       id="g7201"
       transform="matrix(0.26458333,0,0,0.26458333,197.1164,46.056039)">
      <g
         clip-path="url(#clip0_421_1274-44)"
         id="g7150">
        <path
           id="rect7076"
           style="fill:#f4da92;fill-opacity:0.968627"
           d="M 0,0 H 300 V 300 H 0 Z" />
        <path
           d="m 250.705,265.099 c -0.775,0.553 -1.66,1.107 -2.435,1.66 -0.885,0.553 -1.659,1.106 -2.544,1.549 -0.775,0.443 -1.439,0.885 -2.213,1.328 -0.111,0.11 -0.222,0.11 -0.332,0.221 -2.545,1.549 -5.201,2.987 -7.856,4.315 -0.775,0.443 -1.66,0.885 -2.434,1.217 0,0 -0.111,0.111 -0.222,0.111 -0.885,0.443 -1.77,0.885 -2.655,1.328 -1.771,0.885 -3.652,1.659 -5.422,2.434 -0.885,0.443 -1.881,0.774 -2.766,1.106 -0.885,0.332 -1.881,0.775 -2.766,1.107 -0.886,0.332 -1.881,0.774 -2.766,1.106 0,0 -0.001,0 -0.111,0 -0.885,0.332 -1.881,0.664 -2.766,0.996 -1.992,0.664 -4.094,1.328 -6.086,1.992 -0.664,0.221 -1.438,0.442 -2.102,0.664 -2.102,0.664 -4.205,1.217 -6.307,1.659 -0.775,0.222 -1.549,0.332 -2.434,0.554 -1.992,0.442 -4.094,0.885 -6.086,1.327 -0.442,0.111 -0.774,0.111 -1.217,0.222 -0.664,0.11 -1.438,0.221 -2.102,0.332 -0.996,0.11 -1.881,0.332 -2.877,0.442 -0.443,0.111 -0.885,0.111 -1.328,0.222 -0.553,0.11 -1.217,0.221 -1.881,0.221 -1.77,0.221 -3.651,0.442 -5.422,0.664 -0.553,0.11 -1.217,0.11 -1.77,0.221 h -0.11 c -0.775,0.111 -1.55,0.111 -2.324,0.221 -0.775,0.111 -1.549,0.111 -2.324,0.111 -0.442,0 -0.995,0.111 -1.438,0.111 -0.885,0 -1.66,0.11 -2.434,0.11 -1.107,0 -2.103,0.111 -3.209,0.111 -1.107,0 -2.102,0 -3.209,0 -0.774,0 -1.549,0 -2.323,0 -46.583,-0.664 -88.6284,-20.47 -118.503,-51.893 0,0 0,-0.111 -0.1107,-0.111 3.4301,-6.75 16.1544,-18.921 29.432,-28.99 16.8183,-12.724 40.6077,-20.58 40.6077,-20.58 0,0 15.601,-2.545 73.469,9.516 44.148,9.294 62.958,47.025 69.376,64.396 z"
           fill="#c99589"
           id="path7078" />
        <path
           d="m 193.611,231.352 c -2.324,11.397 -17.372,18.146 -42.71,7.966 -31.092,-12.613 -43.042,-48.131 -43.042,-48.131 -1.659,-25.449 -5.532,-47.246 -5.532,-47.246 35.96,-3.098 78.449,38.948 78.449,38.948 l 4.868,20.801 c 0.443,1.771 1.328,3.32 2.656,4.426 2.323,3.983 6.86,15.933 5.311,23.236 z"
           fill="#c99589"
           id="path7080" />
        <path
           d="m 188.3,208.227 c -21.134,-1.107 -36.735,-4.205 -53.443,-34.19 14.163,12.503 30.871,17.261 48.464,19.474 l 2.323,10.179 c 0.443,1.881 1.328,3.43 2.656,4.537 z"
           fill="#a56663"
           id="path7082" />
        <path
           d="m 232.005,74.8974 c 1.992,9.2944 2.988,16.8183 -2.434,41.6036 -5.422,24.784 4.979,49.569 -21.134,72.252 -17.592,15.269 -48.352,18.146 -72.916,1.438 -8.298,-5.643 -15.933,-13.499 -22.129,-23.789 C 108.523,158.325 102.88,150.69 96.5735,143.72 87.8324,134.204 77.321,115.062 82.5214,81.2043 90.9306,26.1022 145.479,19.7954 177.678,25.8809 c 32.198,6.0856 48.905,24.453 54.327,49.0165 z"
           fill="#c99589"
           id="path7084" />
        <path
           d="m 126.116,118.16 c 0,0 -3.43,-16.597 -19.584,-14.605 -13.9415,1.77 -18.81,35.186 12.835,44.48"
           fill="#c99589"
           id="path7086" />
        <path
           style="color:#000000;fill:#423232;stroke-linecap:round;stroke-linejoin:round;stroke-miterlimit:10;-inkscape-stroke:none"
           d="m 110.44336,114.47656 c -0.79876,-0.0615 -1.5458,0.026 -2.22266,0.25 -1.35371,0.4479 -2.32999,1.38923 -2.98047,2.36914 -0.65047,0.97991 -1.01621,2.01636 -1.22656,2.90039 -0.10517,0.44202 -0.16973,0.84523 -0.20117,1.20313 -0.0314,0.3579 -0.0769,0.59024 0.0469,1.08594 a 1.5,1.5 0 0 0 1.81835,1.09179 1.5,1.5 0 0 0 1.0918,-1.81836 c 0.0685,0.27445 0.0147,0.0911 0.0312,-0.0977 0.0166,-0.1888 0.0579,-0.46302 0.13086,-0.76953 0.14587,-0.61303 0.4217,-1.35466 0.80859,-1.9375 0.3869,-0.58284 0.84262,-0.98803 1.42188,-1.17969 0.57926,-0.19166 1.37958,-0.22332 2.65625,0.31055 a 1.50015,1.50015 0 0 0 0.0117,0.004 c 0.7384,0.30186 1.1747,0.8189 1.48828,2.09571 0.31358,1.2768 0.34453,3.23267 0.0254,5.73242 a 1.50015,1.50015 0 0 0 -0.006,0.0391 c -0.53745,5.36847 4.22461,8.38476 4.22461,8.38476 a 1.5,1.5 0 0 0 2.07227,-0.45703 1.5,1.5 0 0 0 -0.45704,-2.07226 c 0,0 -3.20206,-2.07512 -2.85351,-5.55664 l -0.006,0.041 c 0.34486,-2.70124 0.37498,-4.95143 -0.0859,-6.82812 -0.46068,-1.87573 -1.57151,-3.45864 -3.26562,-4.15235 -0.87956,-0.3667 -1.72772,-0.57742 -2.52344,-0.63867 z"
           id="path7088" />
        <path
           d="m 202.795,143.609 c 0,0 4.204,0.221 8.188,-4.536 2.212,-2.656 4.093,-5.975 2.876,-6.971 -1.217,-1.107 -21.244,1.991 -22.572,4.647 -1.327,2.655 6.418,6.86 11.508,6.86 z"
           fill="#a56663"
           id="path7090" />
        <path
           style="color:#000000;fill:#423232;stroke-linecap:round;stroke-linejoin:round;stroke-miterlimit:10;-inkscape-stroke:none"
           d="m 206.08203,104.93164 a 1.5,1.5 0 0 0 -1.4668,1.53125 c 0,0 0.23482,10.9046 7.16993,22.95703 1.15428,2.0088 0.91226,4.81517 -0.83008,7.4043 -1.74234,2.58913 -4.94689,4.85892 -9.48438,5.52148 a 1.5,1.5 0 0 0 -1.26758,1.70117 1.5,1.5 0 0 0 1.70118,1.26758 c 5.3105,-0.77543 9.29986,-3.48408 11.54101,-6.81445 2.24116,-3.33037 2.77317,-7.38497 0.93946,-10.57617 -6.56288,-11.40554 -6.77149,-21.52344 -6.77149,-21.52344 a 1.5,1.5 0 0 0 -1.53125,-1.46875 z"
           id="path7092" />
        <path
           d="m 223.769,222.578 c 0,0 -17.371,-16.25 -34.518,-20.173 0,0 2.018,28.914 -18.379,26.785 -32.948,-3.474 -63.991,-38.44 -63.991,-38.44 0,0 -21.6297,6.052 -39.1124,19.388 0,0 2.3534,34.405 41.6894,51.44 39.336,17.034 94.138,8.629 107.138,-2.354 13,-10.983 10.423,-33.06 7.173,-36.646 z"
           fill="#ffffff"
           id="path7094" />
        <path
           d="m 58.1306,217.534 c 0,0 -21.7414,11.992 -33.6207,46.173 -11.8793,34.181 -11.5431,85.06 -11.5431,85.06 H 268.708 c 0,0 -7.172,-83.939 -32.5,-111.957 0,0 1.681,25.104 -47.965,27.681 C 138.596,267.069 78.8633,251.267 77.4064,242.078 76.0616,232.664 58.1306,217.534 58.1306,217.534 Z"
           fill="#ffffff"
           id="path7096" />
        <path
           d="m 246.631,350.784 c -70.379,32.5 -186.2588,3.138 -186.2588,3.138 0,0 -2.3534,-28.577 6.1638,-80.017 0.3362,-2.353 0.6724,-4.707 0.8966,-6.836 2.4655,-23.31 -3.25,-39.336 -9.3017,-49.422 0,-2.578 2.6896,-4.371 5.7155,-6.949 1.2327,-1.008 23.3103,-14.681 24.2069,-14.008 1.5689,2.241 3.0258,4.482 4.2586,6.836 12.5521,23.198 16.9221,48.077 43.0341,51.664 25.776,3.586 50.656,3.026 68.475,-0.897 17.146,-3.81 5.715,-32.276 -1.906,-46.284 -0.336,-0.561 -0.336,-0.785 -0.672,-1.009 2.578,-1.681 32.5,21.293 34.853,29.81 4.931,12.328 6.276,21.518 7.733,33.509 4.819,39.336 2.802,80.465 2.802,80.465 z"
           fill="#77a0e0"
           id="path7098" />
        <path
           d="m 92.7603,254.405 c 3.9612,0 7.1724,-3.211 7.1724,-7.172 0,-3.961 -3.2112,-7.173 -7.1724,-7.173 -3.9612,0 -7.1724,3.212 -7.1724,7.173 0,3.961 3.2112,7.172 7.1724,7.172 z"
           fill="#647184"
           id="path7100" />
        <path
           d="m 226.458,257.431 c 3.59,0 6.5,-2.91 6.5,-6.5 0,-3.59 -2.91,-6.5 -6.5,-6.5 -3.59,0 -6.5,2.91 -6.5,6.5 0,3.59 2.91,6.5 6.5,6.5 z"
           fill="#647184"
           id="path7102" />
        <path
           style="color:#000000;fill:#647184;stroke-miterlimit:10;-inkscape-stroke:none"
           d="m 203.53125,264.75195 c -1.54903,-0.11268 -3.13435,-0.0647 -4.73828,0.16016 h -0.004 -0.002 c -17.63317,2.55012 -38.8628,2.22455 -55.84375,1.21875 h -0.002 -0.002 c -16.58114,-0.94695 -30.1391,13.20295 -28.36132,29.67773 0.89176,8.25376 1.67702,18.32508 2.57226,30.75391 0.22894,3.51566 2.23716,6.566 5.2832,9.02734 3.04604,2.46135 7.16286,4.43293 12.00391,6.01368 9.6821,3.16148 22.29546,4.73463 34.99609,4.69921 12.70064,-0.0354 25.46705,-1.67852 35.44922,-5.10156 4.99109,-1.71152 9.29426,-3.86655 12.54883,-6.5664 3.25458,-2.69985 5.47476,-6.00858 6.02734,-9.86133 1.93226,-12.85241 1.5841,-27.38374 0.79688,-39.3125 v -0.006 -0.008 c -0.84014,-11.23085 -9.88141,-19.90652 -20.72461,-20.69532 z m -0.20703,2.98828 c 9.40893,0.67585 17.20984,8.17827 17.93945,17.93164 0.77998,11.8259 1.104,26.19728 -0.77148,38.66407 l -0.002,0.006 v 0.006 c -0.42791,2.98348 -2.1219,5.61204 -4.97461,7.97851 -2.8527,2.36648 -6.84829,4.40581 -11.60546,6.03711 -9.51434,3.26261 -22.04137,4.90475 -34.48633,4.93945 -12.44497,0.0347 -24.83048,-1.53817 -34.05664,-4.55078 -4.61308,-1.5063 -8.42878,-3.37896 -11.04883,-5.49609 -2.62005,-2.11713 -4.01052,-4.37889 -4.17383,-6.88672 l -0.002,-0.006 v -0.006 c -0.89634,-12.44466 -1.68213,-22.54199 -2.58203,-30.87109 -1.58416,-14.68053 10.40917,-27.20318 25.20507,-26.35938 h 0.002 c 17.0887,1.01212 38.44312,1.35769 56.44726,-1.24609 l -0.006,0.002 c 1.39382,-0.19539 2.77111,-0.23913 4.11524,-0.14258 z"
           id="path7104" />
        <path
           d="m 175.466,229.078 c 0,0 -20.508,24.879 -26.784,22.974 -6.276,-1.905 -45.276,-22.638 -51.4398,-58.052 0,0 4.8188,-7.845 9.0778,-10.31 0,0 11.767,20.732 33.06,33.172 20.285,11.767 36.086,12.216 36.086,12.216 z"
           fill="#ffffff"
           id="path7106" />
        <path
           style="color:#000000;fill:#d0d6dd;stroke-linecap:round;stroke-linejoin:round;stroke-miterlimit:10;-inkscape-stroke:none"
           d="m 96.984375,192.52148 a 1.5,1.5 0 0 0 -1.220703,1.73633 c 3.165059,18.18479 14.707608,32.47796 26.171878,42.46485 5.73213,4.99344 11.4563,8.9167 16.16015,11.72265 4.70386,2.80595 8.27095,4.47249 10.15039,5.04297 1.32729,0.40288 2.65106,0.072 3.98047,-0.49805 1.32941,-0.57 2.71819,-1.44145 4.17774,-2.51562 2.91909,-2.14834 6.10378,-5.11914 9.08984,-8.14063 5.97212,-6.04296 11.12891,-12.30273 11.12891,-12.30273 a 1.5,1.5 0 0 0 -0.20313,-2.11133 1.5,1.5 0 0 0 -2.11133,0.20313 c 0,0 -5.0964,6.18129 -10.94726,12.10156 -2.92543,2.96013 -6.04505,5.8533 -8.73633,7.83398 -1.34564,0.99035 -2.58865,1.7479 -3.58203,2.17383 -0.99339,0.42593 -1.68407,0.45814 -1.92578,0.38477 -1.25855,-0.38202 -4.918,-2.0241 -9.48438,-4.74805 -4.56638,-2.72395 -10.15373,-6.55353 -15.72656,-11.4082 -11.14566,-9.70935 -22.18681,-23.48958 -25.185547,-40.71875 a 1.5,1.5 0 0 0 -1.736328,-1.22071 z"
           id="path7108" />
        <path
           d="m 175.467,229.078 c 0,0 15.914,18.603 21.181,18.827 5.267,0.224 7.508,-32.5 -8.293,-49.086 0,0 -2.466,0.672 -3.474,0.897 -0.112,-0.113 7.844,23.758 -9.414,29.362 z"
           fill="#ffffff"
           id="path7110" />
        <path
           style="color:#000000;fill:#d0d6dd;stroke-linecap:round;stroke-linejoin:round;stroke-miterlimit:10;-inkscape-stroke:none"
           d="m 188.39062,197.32031 a 1.5,1.5 0 0 0 -1.07031,0.41211 1.5,1.5 0 0 0 -0.0508,2.1211 c 7.53624,7.91064 10.898,19.93793 11.63672,29.92382 0.36936,4.99295 0.0853,9.47533 -0.57617,12.57227 -0.33073,1.54847 -0.77021,2.75036 -1.16992,3.42773 -0.39972,0.67737 -0.56763,0.62387 -0.44922,0.62891 -0.46818,-0.0199 -2.50737,-0.99889 -4.66016,-2.71094 -2.15279,-1.71205 -4.60784,-4.02852 -6.90234,-6.34375 -4.58901,-4.63045 -8.54102,-9.24804 -8.54102,-9.24804 a 1.5,1.5 0 0 0 -2.11523,-0.16602 1.5,1.5 0 0 0 -0.16407,2.11523 c 0,0 4.00472,4.68312 8.68946,9.41016 2.34237,2.36352 4.85359,4.74107 7.16601,6.58008 2.31243,1.83901 4.23508,3.26924 6.40039,3.36133 1.43516,0.061 2.49091,-0.96743 3.16016,-2.10157 0.66925,-1.13413 1.14639,-2.58106 1.51953,-4.32812 0.74629,-3.49412 1.02191,-8.18663 0.63477,-13.41992 -0.77428,-10.46659 -4.19229,-23.09419 -12.45703,-31.76953 a 1.5,1.5 0 0 0 -1.05079,-0.46485 z"
           id="path7112" />
        <path
           style="color:#000000;fill:#d0d6dd;stroke-linecap:round;stroke-linejoin:round;stroke-miterlimit:10;-inkscape-stroke:none"
           d="m 174.9043,229.75781 a 1.5,1.5 0 0 0 -2.11914,0.10742 c 0,0 -1.00842,1.15465 -1.73047,3.19532 -0.72206,2.04066 -1.25281,5.08071 -0.65821,9.12304 a 1.50015,1.50015 0 0 0 0,0.004 c 1.09416,7.33478 0.88086,14.75 0.88086,14.75 a 1.5,1.5 0 0 0 1.45508,1.54492 1.5,1.5 0 0 0 1.54297,-1.45508 c 0,0 0.23496,-7.59953 -0.91016,-15.27929 v -0.004 c -0.52532,-3.57622 -0.0489,-6.08269 0.51758,-7.68359 0.5667,-1.60159 1.12891,-2.1836 1.12891,-2.1836 a 1.5,1.5 0 0 0 -0.10742,-2.11914 z"
           id="path7114" />
        <path
           d="m 179.614,247.681 c 1.423,0 2.577,-1.154 2.577,-2.578 0,-1.423 -1.154,-2.577 -2.577,-2.577 -1.424,0 -2.578,1.154 -2.578,2.577 0,1.424 1.154,2.578 2.578,2.578 z"
           fill="#d0d6dd"
           id="path7116" />
        <path
           d="m 220.189,57.779 c 3.024,-17.024 10.528,23.52 8.848,15.568 -0.56,-2.464 -1.232,-4.816 -2.016,-7.168 -5.936,-4.704 -12.208,-7.728 -21.728,-9.072 -25.648,-3.472 -45.92,-1.12 -67.536,3.584 -13.552,2.912 -10.752,49.728 -16.016,55.888 -0.896,-3.136 -5.264,-15.904 -19.6,-14.112 -13.5523,1.68 -18.7043,33.04 9.296,43.792 -0.224,6.16 -5.936,17.584 -10.528,20.16 0,0 -0.784,-8.176 -9.7443,-18.928 -8.96,-10.752 -26.88,-38.64 -14.784,-79.408 12.096,-40.768 66.8643,-62.04799 117.8243,-41.328 8.736,3.584 15.904,8.624 21.616,13.888 13.44,12.32 9.856,-5.264 7.728,12.88 -0.784,5.824 0,-0.112 -3.36,4.256 z"
           fill="#423232"
           id="path7118" />
        <path
           d="m 208.877,53.1869 c 0,0 -30.912,51.4081 -92.4,35.7281 0,0 -11.984,-30.128 14.112,-41.664 26.208,-11.424 72.016,-4.1441 78.288,5.9359 z"
           fill="#423232"
           id="path7120" />
        <path
           d="m 198.125,56.211 c 0,0 12.32,2.352 20.944,11.536 8.064,8.512 9.744,-28.56 11.536,-20.384 0,0 4.592,11.2 -15.344,-0.672 -19.936,-11.984 -17.136,9.52 -17.136,9.52 z"
           fill="#423232"
           id="path7122" />
        <path
           d="m 76.2686,118.371 c 0,0 -13.664,-8.736 -33.6,0 -18.032,7.952 -8.624,30.688 2.912,29.008 0,0 -21.728,8.4 -13.664,26.32 6.496,14.448 26.208,6.048 26.208,6.048 0,0 -9.296,14.896 4.368,21.616 13.888,6.832 20.944,-12.432 20.944,-12.432 0,0 3.248,15.792 17.4724,13.328 17.584,-3.024 8.624,-23.968 8.624,-23.968 0,0 9.52,6.272 13.776,-4.592 4.928,-12.432 -16.8,-22.288 -16.8,-22.288 0,0 -22.8484,-26.208 -23.8564,-36.512 -1.12,-10.416 -6.384,3.472 -6.384,3.472 z"
           fill="#423232"
           id="path7124" />
        <path
           d="m 242.813,169.331 c 0,0 15.792,10.752 6.496,24.192 -11.088,16.128 -29.68,-1.456 -29.68,-1.456 3.36,10.864 -8.736,28.784 -25.2,14.672 -3.136,-2.688 -5.6,-5.488 -7.504,-8.176 6.832,-2.24 13.104,-5.6 18.256,-10.08 14.784,-12.768 18.032,-26.32 18.928,-40.096 0.448,-6.16 0.336,-12.32 0.672,-18.592 0.224,-4.256 0.56,-8.4 1.344,-12.656 6.048,-4.368 17.472,-4.592 20.496,2.016 7.168,15.792 -6.16,22.288 -6.944,22.624 0.896,-0.224 21.952,-4.592 22.064,12.544 0.224,18.032 -18.928,15.008 -18.928,15.008 z"
           fill="#423232"
           id="path7126" />
        <path
           d="m 229.148,66.627 c 0,0 24.416,17.136 19.152,-16.464 -4.032,-25.648 -23.408,-40.656 -53.984,-31.584 0,0 -52.08,-19.263996 -93.408,4.592 -34.9435,20.16 -36.9596,70.896 -24.5276,95.2 0,0 1.568,-48.72 35.8396,-60.256 34.16,-11.536 54.992,-20.496 85.792,-10.08 30.8,10.416 31.136,18.592 31.136,18.592 z"
           fill="#423232"
           id="path7128" />
        <path
           d="m 203.501,23.507 c 0,0 -3.36,-20.72001 -21.28,-23.4080139 C 164.189,-2.58901 172.141,18.691 172.141,18.691 c 0,0 25.2,9.632 31.36,4.816 z"
           fill="#423232"
           id="path7130" />
        <path
           d="m 178.076,15.2191 c 0,0 -9.408,-12.99205 -27.328,-10.52805 -17.92,2.464 -6.608,17.13605 -6.608,17.13605 0,0 37.856,10.192 33.936,-6.608 z"
           fill="#423232"
           id="path7132" />
        <path
           d="m 203.501,57.7789 c 0,0 12.88,5.712 20.832,17.248 7.952,11.536 22.288,8.848 24.304,-12.544 2.128,-21.28 -39.424,-27.328 -45.136,-4.704 z"
           fill="#423232"
           id="path7134" />
        <path
           d="m 185.709,95.6113 c 2.172,0.3 3.851,-2 3.061,-4.2 -0.395,-1.2 -1.086,-2.3 -2.172,-3 -3.358,-2.1 -15.899,-2.3 -22.515,2.5 -5.827,4.4 11.751,3.3 21.626,4.7 z"
           fill="#423232"
           id="path7136" />
        <path
           d="m 213.062,96.7113 c -1.778,0 -2.864,-2.3 -1.975,-4.2 0.494,-1 1.185,-1.9 2.172,-2.4 3.062,-1.5 11.258,-0.6 14.912,4.5 3.258,4.5 -6.913,2 -15.109,2.1 z"
           fill="#423232"
           id="path7138" />
        <path
           style="color:#000000;fill:#423232;stroke-linecap:round;stroke-linejoin:round;stroke-miterlimit:10;-inkscape-stroke:none"
           d="m 171.64453,105.11328 c -3.41922,0.20827 -6.03711,0.83985 -6.03711,0.83985 a 1.5,1.5 0 0 0 -1.10742,1.80859 1.5,1.5 0 0 0 1.80859,1.10742 c 0,0 2.36981,-0.56999 5.51758,-0.76172 3.14778,-0.19173 7.0066,0.0533 9.74805,1.44141 a 1.5,1.5 0 0 0 2.01562,-0.66016 1.5,1.5 0 0 0 -0.66015,-2.01562 c -3.57854,-1.81192 -7.86594,-1.96804 -11.28516,-1.75977 z"
           id="path7140" />
        <path
           style="color:#000000;fill:#423232;stroke-linecap:round;stroke-linejoin:round;stroke-miterlimit:10;-inkscape-stroke:none"
           d="m 215.05078,107.27734 c -1.68802,0.0501 -3.72692,0.30384 -6.17969,0.87305 a 1.5,1.5 0 0 0 -1.12109,1.79883 1.5,1.5 0 0 0 1.80078,1.12305 c 4.57445,-1.06159 7.35023,-0.88559 8.89844,-0.52539 0.7741,0.18009 1.24466,0.40486 1.5,0.55468 0.25534,0.14983 0.20312,0.12305 0.20312,0.12305 a 1.5,1.5 0 0 0 2.11914,0.0918 1.5,1.5 0 0 0 0.0918,-2.11914 c 0,0 -0.37231,-0.37717 -0.89453,-0.6836 -0.52222,-0.30642 -1.2872,-0.64377 -2.33984,-0.88867 -1.05265,-0.2449 -2.39011,-0.39778 -4.07813,-0.34766 z"
           id="path7142" />
        <path
           style="color:#000000;fill:#423232;stroke-linecap:round;stroke-linejoin:round;stroke-miterlimit:10;-inkscape-stroke:none"
           d="m 177.14453,155.50781 a 1.5,1.5 0 0 0 -1.09961,0.33399 1.5,1.5 0 0 0 -0.20312,2.11328 c 2.58416,3.13399 6.48851,5.58972 10.58007,6.88672 4.09157,1.297 8.45537,1.46957 11.84571,-0.55274 a 1.5,1.5 0 0 0 0.52148,-2.05664 1.5,1.5 0 0 0 -2.05664,-0.52148 c -2.30965,1.37769 -5.84587,1.39948 -9.4043,0.27148 -3.55842,-1.128 -7.05409,-3.37149 -9.16992,-5.9375 a 1.5,1.5 0 0 0 -1.01367,-0.53711 z"
           id="path7144" />
        <path
           d="m 116.994,137.644 1.761,3.521 c 0.311,0.622 0.932,1.036 1.554,1.14 l 3.935,0.621 c 1.761,0.207 2.382,2.382 1.14,3.625 l -2.797,2.797 c -0.518,0.517 -0.725,1.139 -0.621,1.864 l 0.621,3.936 c 0.311,1.76 -1.553,3.003 -3.107,2.278 l -3.521,-1.864 c -0.622,-0.311 -1.347,-0.311 -1.968,0 l -3.522,1.864 c -1.553,0.829 -3.418,-0.518 -3.107,-2.278 l 0.622,-3.936 c 0.103,-0.725 -0.104,-1.347 -0.622,-1.864 l -2.796,-2.797 c -1.243,-1.243 -0.518,-3.314 1.139,-3.625 l 3.936,-0.621 c 0.725,-0.104 1.243,-0.518 1.553,-1.14 l 1.761,-3.521 c 1.036,-1.657 3.314,-1.657 4.039,0 z"
           fill="#ffde55"
           id="path7146" />
        <path
           d="m 228.334,149.244 c -0.518,0.518 -0.725,1.243 -0.622,1.864 l 0.622,3.936 c 0.311,1.761 -1.554,3.107 -3.107,2.278 l -2.072,-1.139 c 0.725,-5.075 0.932,-10.253 1.036,-15.432 l 0.207,0.414 c 0.311,0.622 0.932,1.036 1.554,1.14 l 3.935,0.517 c 1.761,0.208 2.486,2.383 1.14,3.625 z"
           fill="#ffde55"
           id="path7148" />
      </g>
    </g>
  </g>
</svg>
