<?xml version="1.0" encoding="UTF-8" standalone="no"?>
<!-- Created with Inkscape (http://www.inkscape.org/) -->

<svg
   width="79.375mm"
   height="79.375mm"
   viewBox="0 0 79.375 79.375"
   version="1.1"
   id="svg5"
   sodipodi:docname="avatar-20.svg"
   inkscape:version="1.1.1 (3bf5ae0d25, 2021-09-20)"
   xmlns:inkscape="http://www.inkscape.org/namespaces/inkscape"
   xmlns:sodipodi="http://sodipodi.sourceforge.net/DTD/sodipodi-0.dtd"
   xmlns="http://www.w3.org/2000/svg"
   xmlns:svg="http://www.w3.org/2000/svg">
  <sodipodi:namedview
     id="namedview7"
     pagecolor="#ffffff"
     bordercolor="#999999"
     borderopacity="1"
     inkscape:pageshadow="0"
     inkscape:pageopacity="0"
     inkscape:pagecheckerboard="0"
     inkscape:document-units="mm"
     showgrid="false"
     inkscape:zoom="0.36168631"
     inkscape:cx="662.17602"
     inkscape:cy="-12.441721"
     inkscape:window-width="1920"
     inkscape:window-height="1001"
     inkscape:window-x="-9"
     inkscape:window-y="-9"
     inkscape:window-maximized="1"
     inkscape:current-layer="layer1" />
  <defs
     id="defs2">
    <clipPath
       id="clip0_421_1274">
      <rect
         width="300"
         height="300"
         fill="#ffffff"
         id="rect903"
         x="0"
         y="0" />
    </clipPath>
    <clipPath
       id="clip0_421_1274-3">
      <rect
         width="300"
         height="300"
         fill="#ffffff"
         id="rect1539"
         x="0"
         y="0" />
    </clipPath>
    <clipPath
       id="clip0_421_1274-35">
      <rect
         width="300"
         height="300"
         fill="#ffffff"
         id="rect1928"
         x="0"
         y="0" />
    </clipPath>
    <clipPath
       id="clip0_421_1274-8">
      <rect
         width="300"
         height="300"
         fill="white"
         id="rect2361" />
    </clipPath>
  </defs>
  <g
     inkscape:label="Layer 1"
     inkscape:groupmode="layer"
     id="layer1"
     transform="translate(-70.037264,-69.305728)">
    <g
       style="fill:none"
       id="g2408"
       transform="matrix(0.26458333,0,0,0.26458333,69.852228,69.120692)">
      <g
         clip-path="url(#clip0_421_1274-8)"
         id="g2359">
        <path
           id="rect2289"
           style="fill:#f7c0b5;fill-opacity:0.968627"
           d="M 0,0 H 300 V 300 H 0 Z" />
        <path
           d="m 253.592,257.177 c -0.774,0.514 -1.659,1.029 -2.434,1.543 -0.885,0.515 -1.66,1.029 -2.545,1.44 -0.774,0.412 -1.438,0.823 -2.213,1.235 -0.11,0.103 -0.221,0.103 -0.332,0.206 -2.545,1.44 -5.2,2.778 -7.856,4.012 -0.774,0.412 -1.659,0.823 -2.434,1.132 0,0 -0.111,0.103 -0.221,0.103 -0.885,0.411 -1.771,0.823 -2.656,1.234 -1.77,0.823 -3.651,1.543 -5.422,2.264 -0.885,0.411 -1.881,0.72 -2.766,1.028 -0.885,0.309 -1.881,0.721 -2.766,1.029 -0.885,0.309 -1.881,0.72 -2.766,1.029 0,0 0,0 -0.111,0 -0.885,0.309 -1.881,0.617 -2.766,0.926 -1.992,0.617 -4.094,1.235 -6.086,1.852 -0.664,0.206 -1.438,0.411 -2.102,0.617 -2.102,0.617 -4.205,1.132 -6.307,1.543 -0.775,0.206 -1.549,0.309 -2.434,0.515 -1.992,0.411 -4.094,0.823 -6.086,1.234 -0.443,0.103 -0.774,0.103 -1.217,0.206 -0.664,0.103 -1.439,0.206 -2.102,0.309 -0.996,0.103 -1.881,0.308 -2.877,0.411 -0.443,0.103 -0.885,0.103 -1.328,0.206 -0.553,0.103 -1.217,0.206 -1.881,0.206 -1.77,0.206 -3.651,0.411 -5.422,0.617 -0.553,0.103 -1.217,0.103 -1.77,0.206 h -0.111 c -0.774,0.103 -1.549,0.103 -2.323,0.206 -0.775,0.102 -1.55,0.102 -2.324,0.102 -0.443,0 -0.996,0.103 -1.438,0.103 -0.886,0 -1.66,0.103 -2.435,0.103 -1.106,0 -2.102,0.103 -3.209,0.103 -1.106,0 -2.102,0 -3.208,0 -0.775,0 -1.549,0 -2.324,0 -46.583,-0.617 -88.6292,-19.033 -118.5043,-48.251 0,0 0,-0.103 -0.1106,-0.103 3.4301,-6.276 16.1546,-17.592 29.4324,-26.955 16.8186,-11.831 40.6075,-19.135 40.6075,-19.135 0,0 15.602,-2.367 73.471,8.847 44.149,8.642 62.959,43.725 69.376,59.877 z"
           fill="#fee4bf"
           id="path2291" />
        <path
           d="m 196.498,225.798 c -2.324,10.597 -17.372,16.873 -42.711,7.408 -31.092,-11.729 -43.042,-44.753 -43.042,-44.753 -1.659,-23.663 -5.532,-43.93 -5.532,-43.93 35.961,-2.881 78.45,36.214 78.45,36.214 l 4.868,19.341 c 0.443,1.646 1.328,3.087 2.656,4.115 2.323,3.704 6.86,14.815 5.311,21.605 z"
           fill="#fee4bf"
           id="path2293" />
        <path
           d="m 191.186,204.296 c -21.134,-1.029 -36.735,-3.909 -53.443,-31.79 14.163,11.626 30.871,16.049 48.464,18.107 l 2.324,9.465 c 0.442,1.749 1.328,3.189 2.655,4.218 z"
           fill="#efbda5"
           id="path2295" />
        <path
           d="m 234.893,80.325 c 1.992,8.642 2.987,15.6379 -2.434,38.683 -5.422,23.045 4.979,46.091 -21.134,67.181 -17.593,14.198 -48.353,16.873 -72.917,1.338 -8.299,-5.247 -15.934,-12.552 -22.13,-22.12 -4.868,-7.51 -10.512,-14.609 -16.8185,-21.09 -8.7412,-8.848 -19.2528,-26.646 -14.0523,-58.1278 8.4092,-51.2345 62.9588,-57.0987 95.1578,-51.4403 32.198,5.6584 48.906,22.7366 54.328,45.5761 z"
           fill="#fee4bf"
           id="path2297" />
        <path
           d="m 129.003,120.551 c 0,0 -3.43,-15.432 -19.585,-13.58 -13.9418,1.646 -18.8103,32.716 12.835,41.358"
           fill="#fee4bf"
           id="path2299" />
        <path
           style="color:#000000;fill:#423232;stroke-linecap:round;stroke-linejoin:round;stroke-miterlimit:10;-inkscape-stroke:none"
           d="m 113.32227,117.01953 c -0.78613,-0.0564 -1.51868,0.0233 -2.18555,0.22852 -1.33375,0.41046 -2.31977,1.28729 -2.98047,2.21289 -0.6607,0.92559 -1.03509,1.90813 -1.25,2.74804 -0.10746,0.41996 -0.17445,0.80351 -0.20703,1.14844 -0.0326,0.34494 -0.0846,0.5688 0.0527,1.08008 a 1.5,1.5 0 0 0 1.83789,1.06055 1.5,1.5 0 0 0 1.06055,-1.83789 c 0.082,0.30553 0.0197,0.14388 0.0352,-0.0195 0.0154,-0.16342 0.0563,-0.41145 0.12695,-0.6875 0.14127,-0.55212 0.4086,-1.22248 0.78516,-1.75 0.37655,-0.52753 0.82293,-0.90357 1.42187,-1.0879 0.59894,-0.18432 1.43225,-0.20921 2.71875,0.29102 a 1.50015,1.50015 0 0 0 0.01,0.004 c 0.75948,0.28882 1.15963,0.73895 1.46289,1.88672 0.30326,1.14776 0.3367,2.94243 0.0195,5.25195 a 1.50015,1.50015 0 0 0 -0.004,0.043 c -0.55197,5.12719 4.26367,7.93359 4.26367,7.93359 a 1.5,1.5 0 0 0 2.05665,-0.52344 1.5,1.5 0 0 0 -0.52344,-2.05664 c 0,0 -3.14849,-1.92845 -2.81446,-5.03125 l -0.006,0.043 c 0.34682,-2.52547 0.37969,-4.6413 -0.0918,-6.42578 -0.47125,-1.78355 -1.62084,-3.28608 -3.29492,-3.92383 -0.8743,-0.33892 -1.71106,-0.53169 -2.49414,-0.58789 z"
           id="path2301" />
        <path
           d="m 205.682,144.214 c 0,0 4.204,0.206 8.188,-4.218 2.212,-2.469 4.094,-5.556 2.876,-6.482 -1.217,-1.028 -21.244,1.852 -22.572,4.321 -1.328,2.469 6.418,6.379 11.508,6.379 z"
           fill="#efbda5"
           id="path2303" />
        <path
           style="color:#000000;fill:#423232;stroke-linecap:round;stroke-linejoin:round;stroke-miterlimit:10;-inkscape-stroke:none"
           d="m 208.9668,108.14648 a 1.5,1.5 0 0 0 -1.46485,1.53321 c 0,0 0.24193,10.20196 7.19532,21.43554 1.12101,1.81685 0.89623,4.30935 -0.82618,6.68946 -1.72309,2.38106 -4.93493,4.50894 -9.49804,5.1289 a 1.5,1.5 0 0 0 -1.28516,1.6875 1.5,1.5 0 0 0 1.68945,1.28516 c 5.28488,-0.71803 9.26525,-3.22057 11.52539,-6.34375 2.26015,-3.12318 2.80977,-7.00743 0.94532,-10.02539 a 1.50015,1.50015 0 0 0 0,-0.002 C 210.70145,118.95876 210.5,109.61133 210.5,109.61133 a 1.5,1.5 0 0 0 -1.5332,-1.46485 z"
           id="path2305" />
        <path
           opacity="0.42"
           d="m 149.03,149.461 c 6.294,0 11.396,-3.915 11.396,-8.745 0,-4.83 -5.102,-8.745 -11.396,-8.745 -6.295,0 -11.397,3.915 -11.397,8.745 0,4.83 5.102,8.745 11.397,8.745 z"
           fill="#f2a5b2"
           id="path2307" />
        <path
           opacity="0.42"
           d="m 230.688,132.177 c -0.332,5.761 -0.221,11.42 -0.663,17.078 -4.869,-1.029 -8.41,-4.424 -8.41,-8.436 0,-4.321 3.873,-7.819 9.073,-8.642 z"
           fill="#f2a5b2"
           id="path2309" />
        <path
           style="color:#000000;fill:#423232;stroke-linecap:round;stroke-linejoin:round;stroke-miterlimit:10;-inkscape-stroke:none"
           d="m 180.14453,152.50781 a 1.5,1.5 0 0 0 -1.09961,0.33399 1.5,1.5 0 0 0 -0.20312,2.11328 c 2.58416,3.13399 6.48851,5.58972 10.58007,6.88672 4.09157,1.297 8.45537,1.46957 11.84571,-0.55274 a 1.5,1.5 0 0 0 0.52148,-2.05664 1.5,1.5 0 0 0 -2.05664,-0.52148 c -2.30965,1.37769 -5.84587,1.39948 -9.4043,0.27148 -3.55842,-1.128 -7.05409,-3.37149 -9.16992,-5.9375 a 1.5,1.5 0 0 0 -1.01367,-0.53711 z"
           id="path2311" />
        <path
           d="m 160.309,25.8681 c -63.7196,-2.7 -82.5116,52.38 -77.1116,83.9159 5.292,30.456 24.6236,44.496 24.6236,44.496 l 13.068,-4.536 c 0,0 -5.076,-1.728 -9.936,-5.292 -16.7396,-12.744 -11.5556,-35.856 -0.108,-37.368 11.448,-1.404 16.308,6.804 18.144,11.34 6.048,-19.9799 -2.484,-24.9479 6.048,-39.0959 26.676,-28.836 45.684,-10.584 58.32,-5.616 11.556,4.536 19.008,-1.08 25.38,-7.02 3.78,-3.564 9.18,-2.592 9.18,-2.592 0,0 -7.344,-35.64 -67.608,-38.232 z"
           fill="#99807f"
           id="path2313" />
        <path
           d="m 170.433,119.047 c -2.4,-0.1 -4.2,-2.1 -4,-4.5 l 0.1,-2.8 c 0.1,-2.4 2.1,-4.2 4.5,-4 2.4,0.1 4.2,2.1 4,4.5 l -0.1,2.8 c -0.1,2.3 -2.1,4.1 -4.5,4 z"
           fill="#423232"
           id="path2315" />
        <path
           d="m 212.533,120.547 c -2.2,-0.1 -3.9,-2 -3.8,-4.2 l 0.1,-2.6 c 0.1,-2.2 2,-3.9 4.2,-3.8 2.2,0.1 3.9,2 3.8,4.2 l -0.1,2.6 c -0.1,2.2 -2,3.9 -4.2,3.8 z"
           fill="#423232"
           id="path2317" />
        <path
           style="color:#000000;fill:#423232;stroke-linecap:round;stroke-linejoin:round;stroke-miterlimit:10;-inkscape-stroke:none"
           d="m 170.05469,107.32227 c -1.04424,0.13379 -2.04404,0.40332 -2.95117,0.77343 -1.81427,0.74022 -3.39527,1.82974 -3.91211,3.63868 a 1.5,1.5 0 0 0 1.02929,1.85546 1.5,1.5 0 0 0 1.85547,-1.03125 c 0.0832,-0.29106 0.84943,-1.15077 2.16016,-1.68554 1.31073,-0.53478 3.02701,-0.79297 4.55664,-0.54492 a 1.50015,1.50015 0 0 0 0.01,0.002 c 3.79345,0.59009 6.10352,3.77929 6.10352,3.7793 a 1.5,1.5 0 0 0 2.08984,0.36523 1.5,1.5 0 0 0 0.36328,-2.08984 c 0,0 -2.88608,-4.20361 -8.08593,-5.01758 -0.001,-2.2e-4 -0.003,2.1e-4 -0.004,0 -1.08387,-0.17534 -2.17188,-0.17855 -3.21484,-0.0449 z"
           id="path2319" />
        <path
           style="color:#000000;fill:#423232;stroke-linecap:round;stroke-linejoin:round;stroke-miterlimit:10;-inkscape-stroke:none"
           d="m 214.23242,109.44727 c -2.64782,0 -4.39059,1.03977 -5.24219,2.22461 -0.85159,1.18483 -0.85742,2.47656 -0.85742,2.47656 a 1.5,1.5 0 0 0 1.5,1.5 1.5,1.5 0 0 0 1.5,-1.5 c 0,0 -0.005,-0.30944 0.29297,-0.72461 0.2984,-0.41517 0.85447,-0.97656 2.80664,-0.97656 2.87895,0 4.03711,2.625 4.03711,2.625 a 1.5,1.5 0 0 0 1.98633,0.74023 1.5,1.5 0 0 0 0.74219,-1.98828 c 0,0 -2.04458,-4.37695 -6.76563,-4.37695 z"
           id="path2321" />
        <path
           d="m 184.233,97.1474 c 2.1,0.7 4.2,-1.2 3.8,-3.5 -0.2,-1.2 -0.7,-2.4 -1.7,-3.3 -3,-2.7 -15.4,-5.1 -22.9,-1.6 -6.6,3.2 11.2,5.2 20.8,8.4 z"
           fill="#423232"
           id="path2323" />
        <path
           d="m 214.132,98.7475 c -1.7,0.6 -3.5,-1.2 -3.2,-3.3 0.1,-1.1 0.5,-2.2 1.3,-3 2.4,-2.4 10.6,-4.3 15.8,-0.6 4.5,3.1 -6.1,4 -13.9,6.9 z"
           fill="#423232"
           id="path2325" />
        <path
           d="m 93.8145,167.802 c 0,0 10.4225,-2.466 14.7935,-2.802 l 1.344,12.216 c 0.112,-0.113 -16.0255,-6.276 -16.1375,-9.414 z"
           fill="#544646"
           id="path2327" />
        <path
           d="M 292.625,332.207 H 9.31445 c 0,0 1.68105,-52 18.71555,-89.095 16.5862,-35.862 61.75,-51.44 82.595,-56.819 0,0.56 0.112,1.009 0.112,1.569 0,0 12.103,35.974 43.595,48.75 25.663,10.422 40.905,3.474 43.258,-8.069 1.457,-7.396 -3.138,-19.5 -5.491,-23.422 -1.345,-1.121 -2.241,-2.802 -2.69,-4.483 l -0.896,-3.698 c 2.801,-0.561 5.491,-1.345 8.069,-2.354 14.457,3.811 36.198,12.888 61.862,34.405 29.026,24.207 34.181,103.216 34.181,103.216 z"
           fill="#544646"
           id="path2329" />
        <path
           style="color:#000000;fill:#ffffff;stroke-linecap:round;stroke-linejoin:round;stroke-miterlimit:10;-inkscape-stroke:none"
           d="m 59.564453,289.14062 a 1.5,1.5 0 0 0 -1.308594,1.66993 l 5.042969,41.57617 a 1.5,1.5 0 0 0 1.669922,1.30859 1.5,1.5 0 0 0 1.308594,-1.66797 l -5.042969,-41.57812 a 1.5,1.5 0 0 0 -1.669922,-1.3086 z"
           id="path2331" />
        <path
           style="color:#000000;fill:#ffffff;stroke-linecap:round;stroke-linejoin:round;stroke-miterlimit:10;-inkscape-stroke:none"
           d="m 261.03125,275.12109 a 1.5,1.5 0 0 0 -1.95703,0.81836 c 0,0 -3.5285,8.41192 -2.45508,17.11524 1.03014,8.35236 3.88678,19.94027 -0.20117,38.83593 a 1.5,1.5 0 0 0 1.14844,1.78321 1.5,1.5 0 0 0 1.7832,-1.15039 c 4.20404,-19.4323 1.23591,-31.82632 0.24805,-39.83594 -0.94458,-7.65867 2.25,-15.60742 2.25,-15.60742 a 1.5,1.5 0 0 0 -0.81641,-1.95899 z"
           id="path2333" />
        <path
           d="M 145.702,257.457 C 83.728,239.526 68.1504,203.104 68.1504,203.104 c 0,0 9.75,-6.052 14.3448,-12.328 2.8017,-3.81 28.0168,-8.181 28.0168,-8.181 0.449,4.819 0,0 0.337,5.267 0,0 12.103,35.974 43.594,48.75 25.664,10.423 40.906,3.474 43.259,-8.069 1.457,-7.396 -3.138,-19.5 -5.491,-23.422 -1.345,-1.121 -2.242,-2.802 -2.69,-4.483 l -0.896,-3.698 c 6.387,-1.345 12.439,-3.811 17.706,-7.061 0.225,0.337 0.337,0.673 0.449,1.009 2.353,5.716 9.526,10.871 9.526,10.871 15.017,35.414 -7.509,73.965 -70.604,55.698 z"
           fill="#544646"
           id="path2335" />
        <path
           d="m 234.125,211.397 c 0,0 5.155,-2.466 10.31,-1.906 5.155,0.561 29.699,20.397 32.052,24.544 2.466,4.146 2.354,17.37 -0.56,19.051 -2.802,1.569 -4.595,-2.017 -4.595,-2.017 0,0 2.129,-12.103 -0.224,-14.345 -2.354,-2.241 -25.104,-21.293 -25.888,-21.405 -0.785,-0.112 -5.043,3.474 -5.043,3.474 z"
           fill="#544646"
           id="path2337" />
        <path
           d="m 64.7887,208.595 c 0,0 -10.0862,-4.259 -14.4569,-3.586 -4.3707,0.672 -27.0086,20.172 -29.1379,28.801 -2.1293,8.63 5.0431,24.207 5.0431,24.207 l 5.0431,-7.957 c 0,0 -3.5862,-11.879 -2.4655,-16.586 1.1206,-4.707 19.0517,-20.845 20.8448,-20.845 1.7931,0 12.5517,4.819 12.5517,4.819 z"
           fill="#544646"
           id="path2339" />
        <path
           d="m 111.409,214.983 c 10.759,20.62 32.276,48.077 68.25,60.965 32.388,11.655 30.371,-27.457 25.664,-50.879 -32.276,7.06 -64.664,7.621 -93.914,-10.086 z"
           fill="#443f3f"
           id="path2341" />
        <path
           d="m 205.323,225.181 c -1.233,-6.164 -2.689,-11.207 -3.698,-14.009 -2.241,-6.051 -5.604,-11.431 -8.629,-15.465 -1.457,0.448 -2.914,0.784 -4.371,1.121 l 0.896,3.698 c 0.449,1.793 1.345,3.362 2.69,4.483 0.224,0.448 0.56,1.008 0.897,1.681 -25.44,9.862 -55.474,-3.138 -55.474,-3.138 -9.078,-0.449 -8.406,8.517 -4.147,19.163 -16.138,-15.353 -22.638,-34.853 -22.638,-34.853 -0.224,-3.362 -0.448,-6.612 -0.784,-9.862 0,0 -8.294,4.595 -6.837,14.905 0.673,4.371 3.25,12.552 8.293,22.078 29.138,17.707 61.526,17.146 93.802,10.198 z"
           fill="#e26076"
           id="path2343" />
        <path
           d="m 93.8145,167.802 c 0,0 26.1125,12.103 47.1805,17.707 2.018,0.56 3.587,2.353 3.811,4.482 0.784,7.621 2.914,25.44 4.707,32.276 2.353,8.854 47.965,53.905 48.414,59.621 0.448,5.715 -46.061,4.371 -73.742,-28.802 -27.793,-33.172 -25.6636,-39.224 -25.6636,-39.224 0,0 -4.7069,-31.828 -4.7069,-46.06 z"
           fill="#544646"
           id="path2345" />
        <path
           d="m 218.099,179.793 7.173,3.026 c 2.241,0.897 3.362,3.474 2.577,5.828 -3.25,9.862 -11.319,34.405 -11.655,42.922 -0.448,10.759 -22.638,79.905 -22.638,79.905 0,0 -13.56,-17.819 -3.586,-35.414 7.845,-13.896 8.293,-43.594 7.508,-47.517 -1.008,-5.155 -5.267,-17.258 -7.62,-24.879 -1.233,-4.147 -1.457,-6.724 -1.457,-6.724 0,0 15.465,-2.578 29.698,-17.147 z"
           fill="#544646"
           id="path2347" />
        <path
           d="m 134.72,198.172 c 1.795,0 3.25,-1.655 3.25,-3.698 0,-2.042 -1.455,-3.698 -3.25,-3.698 -1.795,0 -3.25,1.656 -3.25,3.698 0,2.043 1.455,3.698 3.25,3.698 z"
           fill="#ffffff"
           id="path2349" />
        <path
           style="color:#000000;fill:#443f3f;stroke-linecap:round;stroke-linejoin:round;stroke-miterlimit:10;-inkscape-stroke:none"
           d="m 95.4375,189.28516 a 1.5,1.5 0 0 0 -1.320313,1.66211 l 1.232422,10.75781 a 1.50015,1.50015 0 0 0 0.216797,0.61914 c 0,0 2.555229,4.08513 8.718754,9.2168 6.16352,5.13166 16.00731,11.42186 30.75781,16.1875 a 1.50015,1.50015 0 0 0 0.008,0.004 c 4.47599,1.41927 8.71395,3.37667 12.62109,5.98047 a 1.50015,1.50015 0 0 0 0.004,0.004 c 3.23958,2.14247 10.77127,8.50998 18.35742,15.34179 7.58615,6.83181 15.34873,14.20647 19.36719,18.5 a 1.5,1.5 0 0 0 2.11914,0.0703 1.5,1.5 0 0 0 0.0703,-2.11914 c -4.16253,-4.44747 -11.92174,-11.81102 -19.54882,-18.67969 -7.625,-6.8668 -14.99568,-13.15932 -18.70508,-15.61328 -4.1606,-2.7727 -8.65987,-4.84725 -13.3711,-6.3418 l -0.008,-0.002 c -14.3829,-4.64802 -23.8692,-10.74078 -29.75195,-15.63868 -5.61187,-4.67236 -7.722358,-7.9554 -7.919924,-8.26757 l -1.1875,-10.36133 A 1.5,1.5 0 0 0 95.4375,189.28516 Z"
           id="path2351" />
        <path
           style="color:#000000;fill:#443f3f;stroke-linecap:round;stroke-linejoin:round;stroke-miterlimit:10;-inkscape-stroke:none"
           d="m 192.06055,271.22852 a 1.5,1.5 0 0 0 -1.76758,1.17382 c 0,0 -0.6829,3.38192 -1.22266,7.58594 -0.53976,4.20402 -0.97736,9.18345 -0.35351,12.80078 1.05885,6.13963 1.99609,25.70313 1.99609,25.70313 a 1.5,1.5 0 0 0 1.56641,1.42773 1.5,1.5 0 0 0 1.42968,-1.5664 c 0,0 -0.85396,-19.21386 -2.03711,-26.07422 -0.49714,-2.88267 -0.14998,-7.82119 0.375,-11.91016 0.52499,-4.08897 1.18555,-7.375 1.18555,-7.375 a 1.5,1.5 0 0 0 -1.17187,-1.76562 z"
           id="path2353" />
        <path
           style="color:#000000;fill:#443f3f;stroke-linecap:round;stroke-linejoin:round;stroke-miterlimit:10;-inkscape-stroke:none"
           d="m 223.10547,203.67773 a 1.5,1.5 0 0 0 -1.85352,1.03321 c 0,0 -5.50539,19.30495 -8.04492,26.8164 -1.2149,3.43527 -4.90877,9.19534 -8.70898,14.85352 -3.8029,5.66218 -7.70004,11.24555 -9.50391,15.1543 a 1.5,1.5 0 0 0 0.73438,1.99023 1.5,1.5 0 0 0 1.99023,-0.73242 c 1.55813,-3.37625 5.45144,-9.05543 9.26953,-14.74024 3.8181,-5.6848 7.57303,-11.35052 9.05078,-15.53711 a 1.50015,1.50015 0 0 0 0.008,-0.0176 c 2.61575,-7.73456 8.08985,-26.9668 8.08985,-26.9668 a 1.5,1.5 0 0 0 -1.03125,-1.85352 z"
           id="path2355" />
        <path
           d="m 208.013,271.129 c 2.042,0 3.698,-1.656 3.698,-3.698 0,-2.043 -1.656,-3.698 -3.698,-3.698 -2.043,0 -3.699,1.655 -3.699,3.698 0,2.042 1.656,3.698 3.699,3.698 z"
           fill="#ffffff"
           id="path2357" />
      </g>
    </g>
  </g>
</svg>
