<?xml version="1.0" encoding="UTF-8" standalone="no"?>
<!-- Created with Inkscape (http://www.inkscape.org/) -->

<svg
   width="79.375mm"
   height="79.375mm"
   viewBox="0 0 79.375 79.375"
   version="1.1"
   id="svg5"
   xmlns="http://www.w3.org/2000/svg"
   xmlns:svg="http://www.w3.org/2000/svg">
  <defs
     id="defs2">
    <clipPath
       id="clip0_421_1274">
      <rect
         width="300"
         height="300"
         fill="#ffffff"
         id="rect903"
         x="0"
         y="0" />
    </clipPath>
    <clipPath
       id="clip0_421_1274-3">
      <rect
         width="300"
         height="300"
         fill="#ffffff"
         id="rect1539"
         x="0"
         y="0" />
    </clipPath>
    <clipPath
       id="clip0_421_1274-35">
      <rect
         width="300"
         height="300"
         fill="#ffffff"
         id="rect1928"
         x="0"
         y="0" />
    </clipPath>
    <clipPath
       id="clip0_421_1274-8">
      <rect
         width="300"
         height="300"
         fill="#ffffff"
         id="rect2361"
         x="0"
         y="0" />
    </clipPath>
    <linearGradient
       id="paint0_linear_421_1274"
       x1="121.039"
       y1="222.77901"
       x2="121.039"
       y2="132.015"
       gradientUnits="userSpaceOnUse">
      <stop
         stop-color="#FF7300"
         id="stop2716" />
      <stop
         offset="0.1086"
         stop-color="#FF8D08"
         id="stop2718" />
      <stop
         offset="0.2899"
         stop-color="#FFB214"
         id="stop2720" />
      <stop
         offset="0.4716"
         stop-color="#FFCF1E"
         id="stop2722" />
      <stop
         offset="0.6514"
         stop-color="#FFE325"
         id="stop2724" />
      <stop
         offset="0.8286"
         stop-color="#FFF029"
         id="stop2726" />
      <stop
         offset="1"
         stop-color="#FFF42A"
         id="stop2728" />
    </linearGradient>
    <linearGradient
       id="paint1_linear_421_1274"
       x1="121.04"
       y1="129.14799"
       x2="121.04"
       y2="139.46899"
       gradientUnits="userSpaceOnUse">
      <stop
         stop-color="#FF7300"
         id="stop2731" />
      <stop
         offset="0.1086"
         stop-color="#FF8D08"
         id="stop2733" />
      <stop
         offset="0.2899"
         stop-color="#FFB214"
         id="stop2735" />
      <stop
         offset="0.4716"
         stop-color="#FFCF1E"
         id="stop2737" />
      <stop
         offset="0.6514"
         stop-color="#FFE325"
         id="stop2739" />
      <stop
         offset="0.8286"
         stop-color="#FFF029"
         id="stop2741" />
      <stop
         offset="1"
         stop-color="#FFF42A"
         id="stop2743" />
    </linearGradient>
    <linearGradient
       id="paint2_linear_421_1274"
       x1="226.423"
       y1="222.77901"
       x2="226.423"
       y2="132.015"
       gradientUnits="userSpaceOnUse">
      <stop
         stop-color="#FF7300"
         id="stop2746" />
      <stop
         offset="0.1086"
         stop-color="#FF8D08"
         id="stop2748" />
      <stop
         offset="0.2899"
         stop-color="#FFB214"
         id="stop2750" />
      <stop
         offset="0.4716"
         stop-color="#FFCF1E"
         id="stop2752" />
      <stop
         offset="0.6514"
         stop-color="#FFE325"
         id="stop2754" />
      <stop
         offset="0.8286"
         stop-color="#FFF029"
         id="stop2756" />
      <stop
         offset="1"
         stop-color="#FFF42A"
         id="stop2758" />
    </linearGradient>
    <clipPath
       id="clip0_421_1274-6">
      <rect
         width="300"
         height="300"
         fill="#ffffff"
         id="rect2761"
         x="0"
         y="0" />
    </clipPath>
    <clipPath
       id="clip0_421_1274-9">
      <rect
         width="300"
         height="300"
         fill="#ffffff"
         id="rect3154"
         x="0"
         y="0" />
    </clipPath>
    <clipPath
       id="clip0_421_1274-61">
      <rect
         width="300"
         height="300"
         fill="#ffffff"
         id="rect3560"
         x="0"
         y="0" />
    </clipPath>
    <linearGradient
       id="paint0_linear_421_1274-3"
       x1="118.039"
       y1="225.166"
       x2="118.039"
       y2="137.532"
       gradientUnits="userSpaceOnUse">
      <stop
         stop-color="#FF7300"
         id="stop4079" />
      <stop
         offset="0.1086"
         stop-color="#FF8D08"
         id="stop4081" />
      <stop
         offset="0.2899"
         stop-color="#FFB214"
         id="stop4083" />
      <stop
         offset="0.4716"
         stop-color="#FFCF1E"
         id="stop4085" />
      <stop
         offset="0.6514"
         stop-color="#FFE325"
         id="stop4087" />
      <stop
         offset="0.8286"
         stop-color="#FFF029"
         id="stop4089" />
      <stop
         offset="1"
         stop-color="#FFF42A"
         id="stop4091" />
    </linearGradient>
    <linearGradient
       id="paint1_linear_421_1274-7"
       x1="118.04"
       y1="134.76401"
       x2="118.04"
       y2="144.729"
       gradientUnits="userSpaceOnUse">
      <stop
         stop-color="#FF7300"
         id="stop4094" />
      <stop
         offset="0.1086"
         stop-color="#FF8D08"
         id="stop4096" />
      <stop
         offset="0.2899"
         stop-color="#FFB214"
         id="stop4098" />
      <stop
         offset="0.4716"
         stop-color="#FFCF1E"
         id="stop4100" />
      <stop
         offset="0.6514"
         stop-color="#FFE325"
         id="stop4102" />
      <stop
         offset="0.8286"
         stop-color="#FFF029"
         id="stop4104" />
      <stop
         offset="1"
         stop-color="#FFF42A"
         id="stop4106" />
    </linearGradient>
    <linearGradient
       id="paint2_linear_421_1274-8"
       x1="223.423"
       y1="225.166"
       x2="223.423"
       y2="137.532"
       gradientUnits="userSpaceOnUse">
      <stop
         stop-color="#FF7300"
         id="stop4109" />
      <stop
         offset="0.1086"
         stop-color="#FF8D08"
         id="stop4111" />
      <stop
         offset="0.2899"
         stop-color="#FFB214"
         id="stop4113" />
      <stop
         offset="0.4716"
         stop-color="#FFCF1E"
         id="stop4115" />
      <stop
         offset="0.6514"
         stop-color="#FFE325"
         id="stop4117" />
      <stop
         offset="0.8286"
         stop-color="#FFF029"
         id="stop4119" />
      <stop
         offset="1"
         stop-color="#FFF42A"
         id="stop4121" />
    </linearGradient>
    <clipPath
       id="clip0_421_1274-4">
      <rect
         width="300"
         height="300"
         fill="#ffffff"
         id="rect4124"
         x="0"
         y="0" />
    </clipPath>
    <clipPath
       id="clip0_421_1274-2">
      <rect
         width="300"
         height="300"
         fill="#ffffff"
         id="rect4458"
         x="0"
         y="0" />
    </clipPath>
    <clipPath
       id="clip0_421_1274-1">
      <rect
         width="300"
         height="300"
         fill="#ffffff"
         id="rect4979"
         x="0"
         y="0" />
    </clipPath>
    <clipPath
       id="clip0_421_1274-24">
      <rect
         width="300"
         height="300"
         fill="#ffffff"
         id="rect5434"
         x="0"
         y="0" />
    </clipPath>
    <clipPath
       id="clip0_421_1274-46">
      <rect
         width="300"
         height="300"
         fill="#ffffff"
         id="rect5850"
         x="0"
         y="0" />
    </clipPath>
    <clipPath
       id="clip0_421_1274-5">
      <rect
         width="300"
         height="300"
         fill="#ffffff"
         id="rect6329"
         x="0"
         y="0" />
    </clipPath>
    <clipPath
       id="clip0_421_1274-38">
      <rect
         width="300"
         height="300"
         fill="#ffffff"
         id="rect6804"
         x="0"
         y="0" />
    </clipPath>
    <clipPath
       id="clip0_421_1274-44">
      <rect
         width="300"
         height="300"
         fill="#ffffff"
         id="rect7152"
         x="0"
         y="0" />
    </clipPath>
    <clipPath
       id="clip0_421_1274-94">
      <rect
         width="300"
         height="300"
         fill="#ffffff"
         id="rect7595"
         x="0"
         y="0" />
    </clipPath>
    <clipPath
       id="clip0_421_1274-10">
      <rect
         width="300"
         height="300"
         fill="#ffffff"
         id="rect8065"
         x="0"
         y="0" />
    </clipPath>
    <clipPath
       id="clip0_421_1274-87">
      <rect
         width="300"
         height="300"
         fill="#ffffff"
         id="rect8554"
         x="0"
         y="0" />
    </clipPath>
    <clipPath
       id="clip0_421_1274-19">
      <rect
         width="300"
         height="300"
         fill="#ffffff"
         id="rect9033"
         x="0"
         y="0" />
    </clipPath>
    <clipPath
       id="clip0_421_1274-49">
      <rect
         width="300"
         height="300"
         fill="#ffffff"
         id="rect9515"
         x="0"
         y="0" />
    </clipPath>
    <clipPath
       id="clip0_421_1274-69">
      <rect
         width="300"
         height="300"
         fill="#ffffff"
         id="rect10033"
         x="0"
         y="0" />
    </clipPath>
    <clipPath
       id="clip0_421_1274-40">
      <rect
         width="300"
         height="300"
         fill="#ffffff"
         id="rect10502"
         x="0"
         y="0" />
    </clipPath>
    <clipPath
       id="clip0_421_1274-242">
      <rect
         width="300"
         height="300"
         fill="#ffffff"
         id="rect10955"
         x="0"
         y="0" />
    </clipPath>
    <linearGradient
       id="paint0_linear_421_1274-36"
       x1="120.777"
       y1="221.77"
       x2="120.777"
       y2="135.345"
       gradientUnits="userSpaceOnUse">
      <stop
         stop-color="#FF7300"
         id="stop11413" />
      <stop
         offset="0.1086"
         stop-color="#FF8D08"
         id="stop11415" />
      <stop
         offset="0.2899"
         stop-color="#FFB214"
         id="stop11417" />
      <stop
         offset="0.4716"
         stop-color="#FFCF1E"
         id="stop11419" />
      <stop
         offset="0.6514"
         stop-color="#FFE325"
         id="stop11421" />
      <stop
         offset="0.8286"
         stop-color="#FFF029"
         id="stop11423" />
      <stop
         offset="1"
         stop-color="#FFF42A"
         id="stop11425" />
    </linearGradient>
    <linearGradient
       id="paint1_linear_421_1274-4"
       x1="120.776"
       y1="132.616"
       x2="120.776"
       y2="142.44299"
       gradientUnits="userSpaceOnUse">
      <stop
         stop-color="#FF7300"
         id="stop11428" />
      <stop
         offset="0.1086"
         stop-color="#FF8D08"
         id="stop11430" />
      <stop
         offset="0.2899"
         stop-color="#FFB214"
         id="stop11432" />
      <stop
         offset="0.4716"
         stop-color="#FFCF1E"
         id="stop11434" />
      <stop
         offset="0.6514"
         stop-color="#FFE325"
         id="stop11436" />
      <stop
         offset="0.8286"
         stop-color="#FFF029"
         id="stop11438" />
      <stop
         offset="1"
         stop-color="#FFF42A"
         id="stop11440" />
    </linearGradient>
    <linearGradient
       id="paint2_linear_421_1274-4"
       x1="224.707"
       y1="221.77"
       x2="224.707"
       y2="135.345"
       gradientUnits="userSpaceOnUse">
      <stop
         stop-color="#FF7300"
         id="stop11443" />
      <stop
         offset="0.1086"
         stop-color="#FF8D08"
         id="stop11445" />
      <stop
         offset="0.2899"
         stop-color="#FFB214"
         id="stop11447" />
      <stop
         offset="0.4716"
         stop-color="#FFCF1E"
         id="stop11449" />
      <stop
         offset="0.6514"
         stop-color="#FFE325"
         id="stop11451" />
      <stop
         offset="0.8286"
         stop-color="#FFF029"
         id="stop11453" />
      <stop
         offset="1"
         stop-color="#FFF42A"
         id="stop11455" />
    </linearGradient>
    <clipPath
       id="clip0_421_1274-0">
      <rect
         width="300"
         height="300"
         fill="#ffffff"
         id="rect11458"
         x="0"
         y="0" />
    </clipPath>
  </defs>
  <g
     id="layer1"
     transform="translate(-292.3784,-61.398716)">
    <g
       style="fill:none"
       id="g11555"
       transform="matrix(0.26458333,0,0,0.26458333,292.3784,61.398716)">
      <g
         clip-path="url(#clip0_421_1274-0)"
         id="g11411">
        <path
           id="rect11290"
           style="fill:#b5e2dc;fill-opacity:0.968627"
           d="M 0,0 H 300 V 300 H 0 Z" />
        <path
           d="m 251.589,264.099 c -0.774,0.553 -1.659,1.107 -2.434,1.66 -0.885,0.553 -1.66,1.106 -2.545,1.549 -0.774,0.443 -1.438,0.885 -2.213,1.328 -0.11,0.11 -0.221,0.11 -0.332,0.221 -2.544,1.549 -5.2,2.987 -7.855,4.315 -0.775,0.443 -1.66,0.885 -2.435,1.217 0,0 -0.11,0.111 -0.221,0.111 -0.885,0.443 -1.77,0.885 -2.656,1.328 -1.77,0.885 -3.651,1.659 -5.421,2.434 -0.885,0.443 -1.881,0.774 -2.766,1.106 -0.886,0.332 -1.881,0.775 -2.767,1.107 -0.885,0.332 -1.881,0.774 -2.766,1.106 0,0 0,0 -0.11,0 -0.886,0.332 -1.881,0.664 -2.767,0.996 -1.991,0.664 -4.093,1.328 -6.085,1.992 -0.664,0.221 -1.439,0.442 -2.102,0.664 -2.103,0.664 -4.205,1.217 -6.307,1.659 -0.775,0.222 -1.549,0.332 -2.435,0.554 -1.991,0.442 -4.093,0.885 -6.085,1.327 -0.443,0.111 -0.775,0.111 -1.217,0.222 -0.664,0.11 -1.439,0.221 -2.102,0.332 -0.996,0.11 -1.881,0.332 -2.877,0.442 -0.443,0.111 -0.885,0.111 -1.328,0.222 -0.553,0.11 -1.217,0.221 -1.881,0.221 -1.77,0.221 -3.651,0.442 -5.422,0.664 -0.553,0.11 -1.217,0.11 -1.77,0.221 h -0.111 c -0.774,0.111 -1.549,0.111 -2.323,0.221 -0.775,0.111 -1.549,0.111 -2.324,0.111 -0.442,0 -0.996,0.111 -1.438,0.111 -0.885,0 -1.66,0.11 -2.435,0.11 -1.106,0 -2.102,0.111 -3.208,0.111 -1.107,0 -2.103,0 -3.209,0 -0.775,0 -1.549,0 -2.324,0 -46.582,-0.664 -88.6277,-20.47 -118.5023,-51.893 0,0 0,-0.111 -0.1106,-0.111 3.43,-6.75 16.1544,-18.921 29.432,-28.99 16.8183,-12.724 40.6069,-20.58 40.6069,-20.58 0,0 15.602,-2.545 73.47,9.516 44.148,9.294 62.958,47.025 69.375,64.396 z"
           fill="#fee4bf"
           id="path11292" />
        <path
           d="m 194.495,230.352 c -2.323,11.397 -17.371,18.146 -42.709,7.966 -31.092,-12.613 -43.042,-48.131 -43.042,-48.131 -1.659,-25.449 -5.532,-47.246 -5.532,-47.246 35.96,-3.098 78.448,38.948 78.448,38.948 l 4.869,20.801 c 0.442,1.771 1.328,3.32 2.655,4.426 2.324,3.983 6.861,15.933 5.311,23.236 z"
           fill="#fee4bf"
           id="path11294" />
        <path
           d="m 189.185,207.227 c -21.134,-1.107 -36.735,-4.205 -53.443,-34.19 14.163,12.503 30.871,17.261 48.463,19.474 l 2.324,10.179 c 0.443,1.881 1.328,3.43 2.656,4.537 z"
           fill="#efbda5"
           id="path11296" />
        <path
           d="m 232.89,73.8974 c 1.992,9.2944 2.987,16.8183 -2.434,41.6036 -5.422,24.784 4.979,49.569 -21.134,72.252 -17.593,15.269 -48.352,18.146 -72.916,1.438 -8.299,-5.643 -15.933,-13.499 -22.129,-23.789 C 109.408,157.325 103.765,149.69 97.4583,142.72 88.7172,133.204 78.2058,114.062 83.4062,80.2043 91.8153,25.1022 146.364,18.7954 178.562,24.8809 c 32.199,6.0856 48.906,24.453 54.328,49.0165 z"
           fill="#fee4bf"
           id="path11298" />
        <path
           d="m 127.001,117.16 c 0,0 -3.43,-16.597 -19.584,-14.605 -13.9417,1.77 -18.8102,35.186 12.835,44.48"
           fill="#fee4bf"
           id="path11300" />
        <path
           style="color:#000000;fill:#423232;stroke-linecap:round;stroke-linejoin:round;stroke-miterlimit:10;-inkscape-stroke:none"
           d="m 111.32813,113.47656 c -0.7987,-0.0615 -1.54586,0.026 -2.22266,0.25 -1.35361,0.44794 -2.32812,1.38924 -2.97852,2.36914 -0.65039,0.9799 -1.01818,2.01637 -1.22851,2.90039 -0.10517,0.44201 -0.16974,0.84524 -0.20117,1.20313 -0.0314,0.35789 -0.0769,0.59024 0.0469,1.08594 a 1.5,1.5 0 0 0 1.81836,1.09179 1.5,1.5 0 0 0 1.09375,-1.81836 c 0.0685,0.27445 0.0127,0.0911 0.0293,-0.0977 0.0166,-0.1888 0.0579,-0.46301 0.13086,-0.76953 0.14585,-0.61304 0.42173,-1.35466 0.80859,-1.9375 0.38686,-0.58285 0.84279,-0.98806 1.42188,-1.17969 0.57908,-0.19163 1.37985,-0.2233 2.65625,0.31055 a 1.50015,1.50015 0 0 0 0.01,0.004 c 0.73893,0.30195 1.17665,0.8189 1.49024,2.09571 0.31358,1.2768 0.34406,3.23252 0.0254,5.73242 a 1.50015,1.50015 0 0 0 -0.006,0.0391 c -0.53746,5.36847 4.22656,8.38477 4.22656,8.38476 a 1.5,1.5 0 0 0 2.07031,-0.45703 1.5,1.5 0 0 0 -0.45508,-2.07226 c 0,0 -3.20401,-2.07512 -2.85547,-5.55664 l -0.006,0.041 c 0.34432,-2.7011 0.37497,-4.95143 -0.0859,-6.82812 -0.46068,-1.87573 -1.57299,-3.45873 -3.26758,-4.15235 -0.87944,-0.36671 -1.72584,-0.57742 -2.52148,-0.63867 z"
           id="path11302" />
        <path
           d="m 203.679,142.609 c 0,0 4.205,0.221 8.188,-4.536 2.213,-2.656 4.094,-5.975 2.877,-6.971 -1.217,-1.107 -21.244,1.991 -22.572,4.647 -1.328,2.655 6.418,6.86 11.507,6.86 z"
           fill="#efbda5"
           id="path11304" />
        <path
           style="color:#000000;fill:#423232;stroke-linecap:round;stroke-linejoin:round;stroke-miterlimit:10;-inkscape-stroke:none"
           d="m 206.9668,103.93164 a 1.5,1.5 0 0 0 -1.4668,1.53125 c 0,0 0.23375,10.90453 7.16992,22.95703 1.15391,2.00881 0.91216,4.81516 -0.83008,7.4043 -1.74223,2.58913 -4.9469,4.85892 -9.48437,5.52148 a 1.5,1.5 0 0 0 -1.26758,1.70117 1.5,1.5 0 0 0 1.70117,1.26758 c 5.31052,-0.77544 9.30001,-3.48409 11.54102,-6.81445 2.24101,-3.33036 2.77449,-7.38304 0.9414,-10.57422 a 1.50015,1.50015 0 0 0 -0.002,-0.002 C 208.70567,115.51831 208.498,105.40034 208.498,105.40034 a 1.5,1.5 0 0 0 -1.53125,-1.46875 z"
           id="path11306" />
        <path
           opacity="0.42"
           d="m 147.028,148.252 c 6.295,0 11.397,-4.211 11.397,-9.405 0,-5.194 -5.102,-9.405 -11.397,-9.405 -6.294,0 -11.396,4.211 -11.396,9.405 0,5.194 5.102,9.405 11.396,9.405 z"
           fill="#f2a5b2"
           id="path11308" />
        <path
           opacity="0.42"
           d="m 228.685,129.663 c -0.332,6.197 -0.221,12.282 -0.664,18.368 -4.868,-1.107 -8.409,-4.758 -8.409,-9.073 0,-4.647 3.873,-8.409 9.073,-9.295 z"
           fill="#f2a5b2"
           id="path11310" />
        <path
           d="M 290.528,334.095 H 7.21777 c 0,0 1.68104,-52 18.71553,-89.095 12.8879,-28.017 43.2586,-43.595 65.8965,-51.664 6.388,-2.241 12.2152,-3.922 16.6982,-5.155 0,0.56 0.112,1.009 0.112,1.569 0,0 10.198,22.862 41.69,35.526 25.664,10.422 34.629,6.276 36.983,-5.267 1.456,-7.397 5.155,-9.078 2.801,-13 -1.345,-1.121 -2.241,-2.802 -2.689,-4.483 l -0.897,-3.698 c 2.129,-0.449 4.147,-1.009 6.164,-1.681 0.672,-0.225 1.233,-0.449 1.905,-0.673 14.457,3.81 36.198,12.888 61.862,34.405 28.914,24.319 34.069,103.216 34.069,103.216 z"
           fill="#cc5292"
           id="path11312" />
        <mask
           id="mask0_421_1274"
           maskUnits="userSpaceOnUse"
           x="7"
           y="188"
           width="284"
           height="147">
          <path
             d="M 290.528,334.095 H 7.21777 c 0,0 1.68104,-52 18.71553,-89.095 12.8879,-28.017 43.2586,-43.595 65.8965,-51.664 6.388,-2.241 12.2152,-3.922 16.6982,-5.155 0,0.56 0.112,1.009 0.112,1.569 0,0 10.198,22.862 41.69,35.526 25.664,10.422 34.629,6.276 36.983,-5.267 1.456,-7.397 5.155,-9.078 2.801,-13 -1.345,-1.121 -2.241,-2.802 -2.689,-4.483 l -0.897,-3.698 c 2.129,-0.449 4.147,-1.009 6.164,-1.681 0.672,-0.225 1.233,-0.449 1.905,-0.673 14.457,3.81 36.198,12.888 61.862,34.405 28.914,24.319 34.069,103.216 34.069,103.216 z"
             fill="#cc5292"
             id="path11314" />
        </mask>
        <g
           mask="url(#mask0_421_1274)"
           id="g11357">
          <path
             style="color:#000000;fill:#6f2696;stroke-linecap:round;stroke-linejoin:round;stroke-miterlimit:10;-inkscape-stroke:none"
             d="m 21.787109,247.98242 c -2.743156,0 -5.391108,0.48128 -7.908203,1.4375 -5.8682528,2.04214 -10.5494839,6.36806 -13.175781,11.97852 -2.6236305,5.60583 -2.9876933,11.9648 -0.83984375,17.83008 1.9936e-4,5.6e-4 -1.994e-4,10e-4 0,0.002 3.23976355,9.23665 12.10064775,15.45898 21.92382775,15.45898 2.747575,0 5.398114,-0.48173 7.917969,-1.43945 12.077468,-4.31685 18.303849,-17.7352 14.005859,-29.80664 -3.239186,-9.23861 -12.100058,-15.46094 -21.923828,-15.46094 z m 0,3 c 8.555612,0 16.27939,5.43175 19.091797,13.45313 a 1.50015,1.50015 0 0 0 0.0039,0.008 c 3.763384,10.55837 -1.657552,22.22896 -12.203125,25.98828 a 1.50015,1.50015 0 0 0 -0.03125,0.0117 c -2.183678,0.83135 -4.457923,1.24609 -6.861328,1.24609 -8.555396,0 -16.2813067,-5.43273 -19.0937496,-13.45312 a 1.50015,1.50015 0 0 0 -0.00781,-0.0195 c -1.87797758,-5.11284 -1.5679105,-10.62348 0.7363281,-15.54688 2.3016202,-4.91687 6.3542204,-8.65296 11.4589845,-10.42383 a 1.50015,1.50015 0 0 0 0.04297,-0.0156 c 2.182922,-0.83202 4.459489,-1.24805 6.863281,-1.24805 z"
             id="path11317" />
          <path
             d="m 31.8732,267.75 c 2.0172,5.491 -0.8966,11.655 -6.388,13.56 -5.4913,2.018 -11.6551,-0.896 -13.5603,-6.388 -2.01726,-5.491 0.8965,-11.655 6.3879,-13.56 5.4914,-2.017 11.5431,0.897 13.5604,6.388 z"
             fill="#ffffff"
             id="path11319" />
          <path
             style="color:#000000;fill:#6f2696;stroke-linecap:round;stroke-linejoin:round;stroke-miterlimit:10;-inkscape-stroke:none"
             d="m 47.001953,194.63867 c -2.744345,0 -5.391993,0.48038 -7.910156,1.4375 -5.867445,2.04238 -10.545873,6.36757 -13.171875,11.97852 -2.626278,5.61046 -2.990819,11.97652 -0.835938,17.8457 4.98e-4,0.001 0.0015,0.003 0.002,0.004 3.245102,9.22652 12.099348,15.4414 21.916016,15.4414 2.643303,0 5.285668,-0.4825 7.898438,-1.43164 5.873477,-2.04063 10.557681,-6.37051 13.185546,-11.98437 2.623721,-5.60501 2.987727,-11.96565 0.839844,-17.83008 v -0.002 c -3.23985,-9.23669 -12.100601,-15.45903 -21.923875,-15.45903 z m 0,3 c 8.555503,0 16.281267,5.43273 19.09375,13.45313 a 1.50015,1.50015 0 0 0 0.0078,0.0195 c 1.877852,5.11168 1.567782,10.62269 -0.736329,15.54492 -2.30163,4.91693 -6.354383,8.65496 -11.458984,10.42578 a 1.50015,1.50015 0 0 0 -0.02148,0.008 c -2.314364,0.84202 -4.600868,1.25586 -6.884766,1.25586 -8.555396,0 -16.279313,-5.43273 -19.091797,-13.45312 a 1.50015,1.50015 0 0 0 -0.0078,-0.0215 c -1.877853,-5.11168 -1.569736,-10.62269 0.734375,-15.54492 2.301621,-4.91784 6.356183,-8.65491 11.460937,-10.42578 a 1.50015,1.50015 0 0 0 0.04297,-0.0156 c 2.182909,-0.83202 4.457642,-1.2461 6.861328,-1.2461 z"
             id="path11321" />
          <path
             d="m 56.9757,214.405 c 2.0172,5.492 -0.8966,11.655 -6.3879,13.561 -5.4914,2.017 -11.6552,-0.897 -13.5604,-6.388 -2.0172,-5.492 0.8966,-11.656 6.388,-13.561 5.4913,-2.017 11.5431,0.785 13.5603,6.388 z"
             fill="#ffffff"
             id="path11323" />
          <path
             style="color:#000000;fill:#6f2696;stroke-linecap:round;stroke-linejoin:round;stroke-miterlimit:10;-inkscape-stroke:none"
             d="m 71.769531,141.9668 c -2.745905,0 -5.396869,0.48055 -7.916015,1.4375 -12.079267,4.31644 -18.307288,17.73609 -14.007813,29.80859 2.88e-4,8.2e-4 0.0017,0.001 0.002,0.002 4.33e-4,0.001 -4.33e-4,0.003 0,0.004 3.240916,9.2344 12.100187,15.45313 21.921875,15.45312 2.743794,1e-5 5.390793,-0.48006 7.908203,-1.43554 12.084174,-4.31301 18.314821,-17.73572 14.015625,-29.81055 -3.23922,-9.23763 -12.100058,-15.45898 -21.923828,-15.45898 z m 0,3 c 8.555612,0 16.279423,5.43082 19.091797,13.45117 a 1.50015,1.50015 0 0 0 0.0039,0.008 c 3.763375,10.55834 -1.657626,22.23094 -12.203125,25.99024 a 1.50015,1.50015 0 0 0 -0.0293,0.01 c -2.183331,0.83122 -4.459488,1.2461 -6.863281,1.24609 -8.555612,0 -16.281376,-5.43277 -19.09375,-13.45312 a 1.50015,1.50015 0 0 0 -0.002,-0.006 c -3.763374,-10.55834 1.657627,-22.23094 12.203125,-25.99023 a 1.50015,1.50015 0 0 0 0.0293,-0.0117 c 2.183331,-0.83122 4.459489,-1.24414 6.863281,-1.24414 z"
             id="path11325" />
          <path
             style="color:#000000;fill:#6f2696;stroke-linecap:round;stroke-linejoin:round;stroke-miterlimit:10;-inkscape-stroke:none"
             d="m 86.113281,248.20703 c -2.744437,0 -5.391926,0.4804 -7.910156,1.4375 -5.867445,2.04238 -10.545873,6.36757 -13.171875,11.97852 -2.625471,5.60874 -2.988611,11.97411 -0.835938,17.84179 3.242918,9.2307 12.098522,15.44922 21.917969,15.44922 2.639356,0 5.375828,-0.47565 7.908203,-1.4375 5.868411,-2.04219 10.549066,-6.36825 13.175786,-11.97851 2.62486,-5.60859 2.98758,-11.97392 0.83398,-17.8418 -3.24298,-9.23166 -12.098723,-15.44922 -21.917969,-15.44922 z m 0,3 c 8.555505,0 16.281139,5.43169 19.093749,13.45313 a 1.50015,1.50015 0 0 0 0.008,0.0215 c 1.87853,5.11149 1.56739,10.62254 -0.73632,15.54492 h 0.002 c -2.30216,4.91706 -6.356354,8.65497 -11.460939,10.42578 a 1.50015,1.50015 0 0 0 -0.04297,0.0156 c -2.168108,0.82637 -4.579491,1.24609 -6.863281,1.24609 -8.555503,0 -16.281266,-5.43273 -19.09375,-13.45312 a 1.50015,1.50015 0 0 0 -0.0059,-0.0215 c -1.877853,-5.11168 -1.569736,-10.62269 0.734375,-15.54492 2.301621,-4.91784 6.356183,-8.65491 11.460937,-10.42578 a 1.50015,1.50015 0 0 0 0.04297,-0.0156 c 2.18304,-0.83203 4.457536,-1.24609 6.861328,-1.24609 z"
             id="path11327" />
          <path
             d="m 96.088,267.974 c 2.0172,5.492 -0.8965,11.655 -6.3879,13.56 -5.4914,2.018 -11.6552,-0.896 -13.5604,-6.387 -2.0172,-5.492 0.8966,-11.656 6.388,-13.561 5.4913,-2.017 11.5431,0.785 13.5603,6.388 z"
             fill="#ffffff"
             id="path11329" />
          <path
             style="color:#000000;fill:#6f2696;stroke-linecap:round;stroke-linejoin:round;stroke-miterlimit:10;-inkscape-stroke:none"
             d="m 111.2168,194.75 c -2.7426,0 -5.38942,0.48122 -7.90625,1.4375 -5.868543,2.04213 -10.54943,6.36705 -13.175784,11.97852 -2.625472,5.60874 -2.988721,11.9741 -0.835938,17.84179 3.242833,9.23076 12.099172,15.44922 21.917972,15.44922 2.74352,0 5.39069,-0.48136 7.9082,-1.4375 5.86798,-2.04219 10.54805,-6.36798 13.17383,-11.97851 2.62428,-5.60508 2.98945,-11.9657 0.84179,-17.83008 v -0.002 C 129.90072,200.97236 121.04035,194.75 111.2168,194.75 Z m 0,3 c 8.55582,0 16.28116,5.43271 19.09375,13.45312 a 1.50015,1.50015 0 0 0 0.008,0.0215 c 1.87768,5.11173 1.56822,10.62276 -0.73633,15.54492 -2.3011,4.91679 -6.35477,8.65497 -11.45898,10.42578 a 1.50015,1.50015 0 0 0 -0.043,0.0156 c -2.1837,0.8321 -4.45906,1.24609 -6.86328,1.24609 -8.55476,0 -16.279431,-5.43279 -19.0918,-13.45312 a 1.50015,1.50015 0 0 0 -0.0078,-0.0215 c -1.877942,-5.11167 -1.569735,-10.62269 0.734375,-15.54492 2.301723,-4.91786 6.355882,-8.6549 11.460935,-10.42578 a 1.50015,1.50015 0 0 0 0.043,-0.0156 c 2.18238,-0.83195 4.45817,-1.24609 6.86133,-1.24609 z"
             id="path11331" />
          <path
             d="m 121.304,214.517 c 2.017,5.492 -0.897,11.655 -6.388,13.561 -5.491,2.017 -11.655,-0.897 -13.56,-6.388 -2.0177,-5.492 0.896,-11.656 6.387,-13.561 5.492,-2.017 11.544,0.897 13.561,6.388 z"
             fill="#ffffff"
             id="path11333" />
          <path
             style="color:#000000;fill:#6f2696;stroke-linecap:round;stroke-linejoin:round;stroke-miterlimit:10;-inkscape-stroke:none"
             d="m 136.09766,142.07812 c -2.74142,0 -5.38572,0.48001 -7.90039,1.4336 -5.87256,2.04191 -10.55654,6.36915 -13.1836,11.98242 -2.62521,5.60923 -2.98808,11.97391 -0.83594,17.8418 3.24303,9.23071 12.10031,15.44726 21.91993,15.44726 2.59338,0 5.26465,-0.35971 7.9375,-1.44726 12.06446,-4.32515 18.28255,-17.73395 13.98632,-29.79883 l -0.002,-0.002 c -3.24013,-9.23625 -12.0987,-15.45704 -21.92187,-15.45704 z m 0,3 c 8.55593,0 16.28117,5.43274 19.09375,13.45313 a 1.50015,1.50015 0 0 0 0.002,0.006 c 3.76293,10.5584 -1.65754,22.23094 -12.20313,25.99023 a 1.50015,1.50015 0 0 0 -0.0644,0.0234 c -2.24999,0.91971 -4.49838,1.23242 -6.82812,1.23242 -8.55594,0 -16.28118,-5.43078 -19.09375,-13.45117 a 1.50015,1.50015 0 0 0 -0.008,-0.0215 c -1.87776,-5.1129 -1.56832,-10.6216 0.73633,-15.54493 2.30107,-4.91672 6.35538,-8.65389 11.46094,-10.42578 a 1.50015,1.50015 0 0 0 0.041,-0.0156 c 2.18281,-0.83119 4.45907,-1.2461 6.86329,-1.2461 z"
             id="path11335" />
          <path
             style="color:#000000;fill:#6f2696;stroke-linecap:round;stroke-linejoin:round;stroke-miterlimit:10;-inkscape-stroke:none"
             d="m 127.13086,297.62891 c -2.74298,0 -5.39005,0.48251 -7.90625,1.4375 -5.86903,2.04218 -10.54909,6.3683 -13.17578,11.97851 -2.62487,5.60859 -2.98954,11.97392 -0.83594,17.8418 3.24201,9.23191 12.09928,15.44922 21.91797,15.44922 2.74353,0 5.39069,-0.48136 7.9082,-1.4375 5.86783,-2.04214 10.54804,-6.3669 13.17383,-11.97852 2.62425,-5.60501 2.98937,-11.96486 0.8418,-17.83008 v -0.002 c -3.2399,-9.23662 -12.10028,-15.45898 -21.92383,-15.45898 z m 0,3 c 8.55582,0 16.28117,5.4327 19.09375,13.45312 a 1.50015,1.50015 0 0 0 0.008,0.0215 c 1.87777,5.11289 1.56825,10.62269 -0.73633,15.54492 -2.30109,4.9177 -6.35461,8.65491 -11.45898,10.42578 a 1.50015,1.50015 0 0 0 -0.043,0.0156 c -2.1837,0.83211 -4.45906,1.2461 -6.86328,1.2461 -8.55486,0 -16.2802,-5.43195 -19.0918,-13.45313 a 1.50015,1.50015 0 0 0 -0.008,-0.0215 c -1.87853,-5.11149 -1.56934,-10.62254 0.73438,-15.54492 2.30218,-4.91712 6.35577,-8.65497 11.46093,-10.42579 a 1.50015,1.50015 0 0 0 0.043,-0.0156 c 2.18302,-0.83127 4.45857,-1.24609 6.86133,-1.24609 z"
             id="path11337" />
          <path
             style="color:#000000;fill:#6f2696;stroke-linecap:round;stroke-linejoin:round;stroke-miterlimit:10;-inkscape-stroke:none"
             d="m 152.34766,244.28516 c -2.74324,0 -5.39113,0.47999 -7.90821,1.43554 -12.08426,4.313 -18.31541,17.73465 -14.01562,29.8086 3.2384,9.2388 12.10071,15.46093 21.92383,15.46093 2.64567,0 5.28756,-0.4823 7.90234,-1.43164 5.87077,-2.04218 10.55288,-6.36969 13.17969,-11.98242 2.62673,-5.61136 2.9905,-11.97768 0.83593,-17.84765 -3.24401,-9.22884 -12.09956,-15.44336 -21.91796,-15.44336 z m 0,3 c 8.55593,0 16.28117,5.43274 19.09375,13.45312 a 1.50015,1.50015 0 0 0 0.006,0.0195 c 1.87776,5.1129 1.57028,10.62355 -0.73438,15.54688 -2.30107,4.91672 -6.35638,8.65392 -11.46094,10.42578 a 1.50015,1.50015 0 0 0 -0.0195,0.006 c -2.31528,0.84124 -4.60044,1.2539 -6.88476,1.2539 -8.55487,0 -16.28216,-5.43194 -19.09375,-13.45312 a 1.50015,1.50015 0 0 0 -0.002,-0.006 c -3.76377,-10.55723 1.65752,-22.23093 12.20313,-25.99023 a 1.50015,1.50015 0 0 0 0.0293,-0.01 c 2.18268,-0.83114 4.46013,-1.24609 6.86329,-1.24609 z"
             id="path11339" />
          <path
             d="m 162.321,264.052 c 2.018,5.491 -0.896,11.655 -6.388,13.56 -5.491,2.017 -11.655,-0.897 -13.56,-6.388 -2.017,-5.491 0.897,-11.655 6.388,-13.56 5.491,-2.017 11.543,0.784 13.56,6.388 z"
             fill="#ffffff"
             id="path11341" />
          <path
             style="color:#000000;fill:#6f2696;stroke-linecap:round;stroke-linejoin:round;stroke-miterlimit:10;-inkscape-stroke:none"
             d="m 177.11328,191.61133 c -2.74417,0 -5.39016,0.48091 -7.9082,1.4375 -12.08439,4.31197 -18.31427,17.73382 -14.01563,29.80859 3.23941,9.23756 12.09967,15.46094 21.92383,15.46094 2.64151,0 5.3818,-0.47562 7.91602,-1.43945 12.07884,-4.3152 18.30656,-17.73458 14.00781,-29.80664 -3.23842,-9.2378 -12.1006,-15.46094 -21.92383,-15.46094 z m 0,3 c 8.55476,0 16.28218,5.43293 19.09375,13.45312 a 1.50015,1.50015 0 0 0 0.002,0.008 c 3.76383,10.5583 -1.65761,22.22994 -12.20312,25.98828 a 1.50015,1.50015 0 0 0 -0.0293,0.0117 c -2.16758,0.82631 -4.58003,1.24609 -6.86328,1.24609 -8.55582,0 -16.28116,-5.43271 -19.09375,-13.45313 a 1.50015,1.50015 0 0 0 -0.002,-0.006 c -3.76293,-10.55839 1.65764,-22.2319 12.20312,-25.99023 a 1.50015,1.50015 0 0 0 0.0312,-0.01 c 2.1837,-0.8321 4.45711,-1.24804 6.86133,-1.24804 z"
             id="path11343" />
          <path
             d="m 187.088,211.379 c 2.017,5.492 -0.897,11.655 -6.388,13.561 -5.491,2.017 -11.655,-0.897 -13.56,-6.388 -2.018,-5.492 0.896,-11.655 6.388,-13.561 5.491,-2.017 11.655,0.785 13.56,6.388 z"
             fill="#ffffff"
             id="path11345" />
          <path
             style="color:#000000;fill:#6f2696;stroke-linecap:round;stroke-linejoin:round;stroke-miterlimit:10;-inkscape-stroke:none"
             d="m 191.45898,297.74023 c -2.74098,0 -5.38659,0.48064 -7.90039,1.4336 -0.002,7e-4 -0.004,10e-4 -0.006,0.002 -12.08644,4.31223 -18.31888,17.73635 -14.01757,29.8125 2.8e-4,8.2e-4 0.002,10e-4 0.002,0.002 4.3e-4,0.001 -4.3e-4,0.003 0,0.004 3.24108,9.23534 12.09991,15.45313 21.92187,15.45313 2.59245,0 5.2651,-0.36034 7.9375,-1.44922 12.06394,-4.3239 18.28238,-17.73238 13.98633,-29.79688 -3.23941,-9.23756 -12.1006,-15.46094 -21.92383,-15.46094 z m 0,3 c 8.55476,0 16.27922,5.43466 19.0918,13.45508 a 1.50015,1.50015 0 0 0 0.004,0.006 c 3.76382,10.55831 -1.65762,22.22995 -12.20313,25.98828 a 1.50015,1.50015 0 0 0 -0.0644,0.0254 c -2.24845,0.92036 -4.49944,1.23243 -6.82813,1.23243 -8.55593,0 -16.28114,-5.43172 -19.09375,-13.45313 a 1.50015,1.50015 0 0 0 -0.002,-0.006 c -3.76383,-10.55833 1.65744,-22.2309 12.20313,-25.99023 a 1.50015,1.50015 0 0 0 0.0293,-0.01 c 2.18302,-0.83127 4.45945,-1.24805 6.86328,-1.24805 z"
             id="path11347" />
          <path
             style="color:#000000;fill:#6f2696;stroke-linecap:round;stroke-linejoin:round;stroke-miterlimit:10;-inkscape-stroke:none"
             d="m 216.5625,244.39648 c -2.74756,0 -5.39824,0.48159 -7.91797,1.43946 -12.08021,4.31779 -18.3068,17.74096 -14.00391,29.81445 3.24183,9.23301 12.10078,15.45313 21.92188,15.45313 2.74481,0 5.39188,-0.48165 7.91016,-1.4375 5.86685,-2.04339 10.54632,-6.36846 13.17187,-11.97852 2.62593,-5.60964 2.9883,-11.97333 0.83594,-17.8418 -3.24303,-9.23071 -12.09835,-15.44922 -21.91797,-15.44922 z m 0,3 c 8.55593,0 16.28118,5.43274 19.09375,13.45313 a 1.50015,1.50015 0 0 0 0.006,0.0215 c 1.87777,5.1129 1.57028,10.6216 -0.73438,15.54493 -2.30107,4.91672 -6.35638,8.65392 -11.46093,10.42578 a 1.50015,1.50015 0 0 0 -0.041,0.0156 c -2.18399,0.83129 -4.45906,1.2461 -6.86328,1.2461 -8.55593,0 -16.28118,-5.43274 -19.09375,-13.45313 a 1.50015,1.50015 0 0 0 -0.002,-0.008 c -3.7629,-10.55832 1.65751,-22.22898 12.20312,-25.98828 a 1.50015,1.50015 0 0 0 0.0293,-0.0117 c 2.1828,-0.83119 4.45906,-1.2461 6.86328,-1.2461 z"
             id="path11349" />
          <path
             d="m 226.536,264.164 c 2.017,5.491 -0.896,11.655 -6.388,13.56 -5.491,2.017 -11.655,-0.896 -13.56,-6.388 -2.017,-5.491 0.897,-11.655 6.388,-13.56 5.491,-2.017 11.655,0.896 13.56,6.388 z"
             fill="#ffffff"
             id="path11351" />
          <path
             style="color:#000000;fill:#6f2696;stroke-linecap:round;stroke-linejoin:round;stroke-miterlimit:10;-inkscape-stroke:none"
             d="m 241.32812,191.72461 c -2.74259,0 -5.3894,0.48121 -7.90625,1.4375 -5.86798,2.04219 -10.54902,6.36816 -13.17578,11.97851 -2.62345,5.60557 -2.98823,11.9652 -0.83984,17.83008 4.9e-4,0.001 0.001,0.003 0.002,0.004 3.24062,9.23527 12.09818,15.45703 21.91992,15.45703 2.73974,0 5.38577,-0.47789 7.81055,-1.44336 12.18313,-4.31598 18.41432,-17.73978 14.11133,-29.81055 -3.24181,-9.23297 -12.10067,-15.45312 -21.92188,-15.45312 z m 0,3 c 8.55583,0 16.28117,5.4327 19.09375,13.45312 a 1.50015,1.50015 0 0 0 0.004,0.008 c 3.76383,10.5583 -1.64948,22.22404 -12.31055,25.98632 a 1.50015,1.50015 0 0 0 -0.0586,0.0215 c -2.04852,0.81995 -4.3243,1.23828 -6.72852,1.23828 -8.55475,0 -16.27921,-5.4327 -19.09179,-13.45312 a 1.50015,1.50015 0 0 0 -0.008,-0.0215 c -1.87769,-5.11173 -1.56928,-10.62268 0.73437,-15.54492 2.30212,-4.91698 6.35672,-8.65497 11.46094,-10.42578 a 1.50015,1.50015 0 0 0 0.043,-0.0156 c 2.18238,-0.83195 4.45817,-1.24609 6.86132,-1.24609 z"
             id="path11353" />
          <path
             d="m 251.416,211.491 c 2.017,5.492 -0.896,11.656 -6.388,13.561 -5.491,2.017 -11.655,-0.897 -13.56,-6.388 -2.017,-5.492 0.896,-11.655 6.388,-13.561 5.491,-2.017 11.543,0.897 13.56,6.388 z"
             fill="#ffffff"
             id="path11355" />
        </g>
        <path
           d="m 177.002,233.793 c 0.112,0.112 0.112,0.112 0.224,0.224 0,-0.112 0,-0.224 0,-0.224 -0.112,-0.112 -0.224,-0.112 -0.224,0 z"
           fill="#ffffff"
           id="path11359" />
        <path
           style="color:#000000;fill:#544d4d;stroke-linecap:round;stroke-linejoin:round;stroke-miterlimit:10;-inkscape-stroke:none"
           d="m 57.466797,291.14062 a 1.5,1.5 0 0 0 -1.306641,1.66993 l 5.042969,41.46484 a 1.5,1.5 0 0 0 1.669922,1.30859 1.5,1.5 0 0 0 1.30664,-1.66992 l -5.042968,-41.46679 a 1.5,1.5 0 0 0 -1.669922,-1.30665 z"
           id="path11361" />
        <path
           style="color:#000000;fill:#544d4d;stroke-linecap:round;stroke-linejoin:round;stroke-miterlimit:10;-inkscape-stroke:none"
           d="m 258.93555,277.00977 a 1.5,1.5 0 0 0 -1.95703,0.8164 c 0,0 -3.52938,8.41397 -2.45704,17.11719 1.03015,8.35248 3.88775,19.93839 -0.20117,38.83398 a 1.5,1.5 0 0 0 1.15039,1.78321 1.5,1.5 0 0 0 1.78321,-1.14844 c 4.20507,-19.43237 1.23394,-31.82644 0.24609,-39.83594 -0.94365,-7.65876 2.25195,-15.60937 2.25195,-15.60937 a 1.5,1.5 0 0 0 -0.8164,-1.95703 z"
           id="path11363" />
        <path
           d="m 203.674,192.103 c 0,0 -15.353,10.871 -44.939,6.276 -24.992,-3.922 -42.138,-13 -48.302,-16.698 -1.569,-1.009 -2.69,-2.69 -2.802,-4.595 l -0.112,-1.681 c 0,0 -5.267,0.448 -6.164,7.845 -0.448,3.586 -0.448,9.302 -0.336,14.345 0.112,6.724 2.802,13.224 7.509,18.043 7.509,7.733 23.086,17.819 40.905,20.845 42.923,7.172 54.578,-11.543 54.241,-21.517 -0.336,-11.656 0,-22.863 0,-22.863 z"
           fill="#cc5292"
           id="path11365" />
        <path
           style="color:#000000;fill:#993665;stroke-linecap:round;stroke-linejoin:round;stroke-miterlimit:10;-inkscape-stroke:none"
           d="m 100.99414,195.98242 a 1.5,1.5 0 0 0 -1.474609,1.52539 c 0.11836,7.1058 2.955459,13.96587 7.931639,19.0625 5.6e-4,5.8e-4 10e-4,0.001 0.002,0.002 6.4e-4,6.6e-4 0.001,0.001 0.002,0.002 7.77831,8.00861 23.51006,18.18189 41.72656,21.27539 a 1.50015,1.50015 0 0 0 0.004,0 c 21.69243,3.62459 35.72495,0.75269 44.37304,-4.52734 8.64809,-5.28004 11.80395,-12.91728 11.61524,-18.51954 a 1.5,1.5 0 0 0 -1.54883,-1.44921 1.5,1.5 0 0 0 -1.44922,1.55078 c 0.14729,4.37273 -2.3555,11.07922 -10.18164,15.85742 -7.82614,4.7782 -21.08393,7.67631 -42.31445,4.1289 -17.41712,-2.95894 -32.83591,-12.95391 -40.07617,-20.41015 a 1.50015,1.50015 0 0 0 -0.002,-0.002 c -4.43541,-4.54096 -6.97642,-10.67919 -7.08203,-17.01954 a 1.5,1.5 0 0 0 -1.52539,-1.47656 z"
           id="path11367" />
        <path
           style="color:#000000;fill:#993665;stroke-linecap:round;stroke-linejoin:round;stroke-miterlimit:10;-inkscape-stroke:none"
           d="m 174.37695,198.00977 a 1.5,1.5 0 0 0 -1.66601,1.3125 1.5,1.5 0 0 0 1.3125,1.66796 c 0,0 2.0073,0.24885 4.01172,1.61329 2.00441,1.36443 3.95774,3.64969 3.85546,8.4082 -0.22556,10.49573 0.22461,24.95703 0.22461,24.95703 a 1.5,1.5 0 0 0 1.54493,1.45312 1.5,1.5 0 0 0 1.45312,-1.54687 c 0,0 -0.44509,-14.44858 -0.22266,-24.79883 0.12173,-5.66348 -2.52138,-9.15156 -5.16796,-10.95312 -2.64659,-1.80157 -5.34571,-2.11328 -5.34571,-2.11328 z"
           id="path11369" />
        <path
           d="m 168.373,217.431 c 2.414,0 4.37,-1.957 4.37,-4.371 0,-2.414 -1.956,-4.37 -4.37,-4.37 -2.414,0 -4.371,1.956 -4.371,4.37 0,2.414 1.957,4.371 4.371,4.371 z"
           fill="#ffffff"
           id="path11371" />
        <path
           d="m 168.373,231.552 c 2.414,0 4.37,-1.957 4.37,-4.371 0,-2.414 -1.956,-4.371 -4.37,-4.371 -2.414,0 -4.371,1.957 -4.371,4.371 0,2.414 1.957,4.371 4.371,4.371 z"
           fill="#ffffff"
           id="path11373" />
        <path
           d="m 232.907,73.8079 c -0.336,-1.68 -0.784,-3.472 -1.344,-5.152 -0.56,-1.68 -1.904,-3.136 -3.696,-3.472 -5.824,-1.008 -11.424,1.904 -19.488,0.784 -25.648,-3.472 -42.784,-14.336 -66.864,-4.928 -24.864,9.632 -10.752,49.7281 -16.016,55.8881 -0.896,-3.136 -5.264,-15.904 -19.6,-14.112 -13.5516,1.68 -18.7036,33.04 9.296,43.792 -0.224,6.16 -11.312,11.984 -20.2716,1.232 -8.96,-10.752 -26.88,-38.64 -14.784,-79.4081 12.096,-40.768 66.8636,-62.04798 117.8236,-41.328 8.736,3.584 14.336,11.312 21.616,13.888 14.896,5.488 15.008,40.88 13.328,32.816 z"
           fill="#000000"
           id="path11375" />
        <path
           d="m 115.307,146.72 c 0,0 -0.224,9.184 -9.632,26.208 0,0 -2.24,-9.408 -7.1677,-18.032 -4.816,-8.624 -14.336,-26.656 -20.16,-44.688 -5.824,-18.0321 4.928,4.368 10.416,11.872 5.376,7.392 8.96,25.76 26.5437,24.64 z"
           fill="#000000"
           id="path11377" />
        <path
           d="m 99.5146,137.648 c 0,0 -3.136,20.944 16.9124,47.376 20.048,26.432 21.168,53.536 13.776,82.208 0,0 -11.648,-8.624 -46.9284,-33.936 -35.28,-25.312 -43.792,-68.544 2.576,-109.312 0.112,0 13.216,2.464 13.664,13.664 z"
           fill="#000000"
           id="path11379" />
        <path
           d="m 179.819,47.264 c 4.144,2.576 8.624,4.256 13.44,4.592 5.936,0.448 14.784,4.48 27.776,16.24 15.344,13.888 7.728,-76.94403 -87.808,-55.44 -32.704,7.28 -56.0003,36.176 -60.0322,68.544 -0.224,2.24 -0.448,4.48 -0.56,6.72 -0.896,29.792 23.1839,55.776 23.1839,55.776 0,0 -9.8559,-41.44 12.6563,-58.576 20.384,-15.568 34.608,-33.824 52.416,-33.824 10.752,-0.112 16.464,-5.488 18.928,-4.032 z"
           fill="#000000"
           id="path11381" />
        <path
           d="m 182.955,23.1839 c 0,0 33.936,64.624 50.736,64.064 16.8,-0.56 34.272,-53.2 -1.344,-73.136 -24.864,-13.999954 -49.392,9.072 -49.392,9.072 z"
           fill="#000000"
           id="path11383" />
        <path
           d="m 198.075,41.44 c 0,0 27.776,29.68 14.672,38.192 -7.504,4.816 -14.672,-9.744 -14.672,-9.744 0,0 -8.848,14.448 -22.96,7.168 -14.112,-7.168 -4.704,-27.888 -4.704,-27.888 0,0 19.152,-19.264 27.664,-7.728 z"
           fill="#000000"
           id="path11385" />
        <path
           d="m 173.211,51.52 c 0,0 -5.04,30.576 -28.784,35.056 -23.744,4.48 -26.544,-19.936 -26.544,-19.936 0,0 35.168,-38.64 55.328,-15.12 z"
           fill="#000000"
           id="path11387" />
        <path
           d="m 232.459,105.84 c 0,0 14,-7.952 13.216,-27.776 -0.784,-19.824 -11.2,-6.3841 -11.2,-6.3841 0,0 1.12,17.36 -2.016,34.1601 z"
           fill="#000000"
           id="path11389" />
        <path
           d="m 170.433,114.047 c -2.4,-0.1 -4.2,-2.1 -4,-4.5 l 0.1,-2.8 c 0.1,-2.4 2.1,-4.2 4.5,-4 2.4,0.1 4.2,2.1 4,4.5 l -0.1,2.8 c -0.1,2.3 -2.1,4.1 -4.5,4 z"
           fill="#423232"
           id="path11391" />
        <path
           d="m 212.533,115.547 c -2.2,-0.1 -3.9,-2 -3.8,-4.2 l 0.1,-2.6 c 0.1,-2.2 2,-3.9 4.2,-3.8 2.2,0.1 3.9,2 3.8,4.2 l -0.1,2.6 c -0.1,2.2 -2,3.9 -4.2,3.8 z"
           fill="#423232"
           id="path11393" />
        <path
           style="color:#000000;fill:#423232;stroke-linecap:round;stroke-linejoin:round;stroke-miterlimit:10;-inkscape-stroke:none"
           d="m 170.05469,102.32227 c -1.04424,0.13379 -2.04404,0.40332 -2.95117,0.77343 -1.81427,0.74022 -3.39527,1.82974 -3.91211,3.63868 a 1.5,1.5 0 0 0 1.02929,1.85546 1.5,1.5 0 0 0 1.85547,-1.03125 c 0.0832,-0.29106 0.84943,-1.15077 2.16016,-1.68554 1.31073,-0.53478 3.02701,-0.79297 4.55664,-0.54492 a 1.50015,1.50015 0 0 0 0.01,0.002 c 3.79345,0.59009 6.10352,3.77929 6.10352,3.7793 a 1.5,1.5 0 0 0 2.08984,0.36523 1.5,1.5 0 0 0 0.36328,-2.08984 c 0,0 -2.88608,-4.20361 -8.08593,-5.01758 -0.001,-2.2e-4 -0.003,2.1e-4 -0.004,0 -1.08387,-0.17534 -2.17188,-0.17855 -3.21484,-0.0449 z"
           id="path11395" />
        <path
           style="color:#000000;fill:#423232;stroke-linecap:round;stroke-linejoin:round;stroke-miterlimit:10;-inkscape-stroke:none"
           d="m 214.23242,104.44727 c -2.64782,0 -4.39059,1.03977 -5.24219,2.22461 -0.85159,1.18483 -0.85742,2.47656 -0.85742,2.47656 a 1.5,1.5 0 0 0 1.5,1.5 1.5,1.5 0 0 0 1.5,-1.5 c 0,0 -0.005,-0.30944 0.29297,-0.72461 0.2984,-0.41517 0.85447,-0.97656 2.80664,-0.97656 2.87895,0 4.03711,2.625 4.03711,2.625 a 1.5,1.5 0 0 0 1.98633,0.74023 1.5,1.5 0 0 0 0.74219,-1.98828 c 0,0 -2.04458,-4.37695 -6.76563,-4.37695 z"
           id="path11397" />
        <path
           d="m 184.233,92.1474 c 2.1,0.7 4.2,-1.2 3.8,-3.5 -0.2,-1.2 -0.7,-2.4 -1.7,-3.3 -3,-2.7 -15.4,-5.1 -22.9,-1.6 -6.6,3.2 11.2,5.2 20.8,8.4 z"
           fill="#000000"
           id="path11399" />
        <path
           d="m 214.132,93.7475 c -1.7,0.6 -3.5,-1.2 -3.2,-3.3 0.1,-1.1 0.5,-2.2 1.3,-3 2.4,-2.4 10.6,-4.3 15.8,-0.6 4.5,3.1 -6.1,4 -13.9,6.9 z"
           fill="#000000"
           id="path11401" />
        <path
           style="color:#000000;fill:#423232;stroke-linecap:round;stroke-linejoin:round;stroke-miterlimit:10;-inkscape-stroke:none"
           d="m 181.14453,155.50781 a 1.5,1.5 0 0 0 -1.09961,0.33399 1.5,1.5 0 0 0 -0.20312,2.11328 c 2.58416,3.13399 6.48851,5.58972 10.58007,6.88672 4.09157,1.297 8.45537,1.46957 11.84571,-0.55274 a 1.5,1.5 0 0 0 0.52148,-2.05664 1.5,1.5 0 0 0 -2.05664,-0.52148 c -2.30965,1.37769 -5.84587,1.39948 -9.4043,0.27148 -3.55842,-1.128 -7.05409,-3.37149 -9.16992,-5.9375 a 1.5,1.5 0 0 0 -1.01367,-0.53711 z"
           id="path11403" />
        <path
           d="m 144.9,164.506 c 0,6.114 -2.554,12.229 -7.048,16.469 -4.494,4.34 -10.725,6.805 -17.058,6.805 -6.333,0 -12.666,-2.465 -17.058,-6.805 -4.494,-4.339 -7.0475,-10.355 -7.0475,-16.469 0,-6.115 2.5535,-12.229 7.0475,-16.47 4.495,-4.339 10.725,-6.805 17.058,-6.805 6.333,0 12.666,2.466 17.058,6.805 4.494,4.339 7.15,10.355 7.048,16.47 z m -3.064,0 c 0.306,-5.326 -1.737,-10.849 -5.618,-14.991 -1.941,-2.071 -4.392,-3.649 -7.048,-4.832 -2.656,-1.085 -5.516,-1.677 -8.478,-1.677 -2.86,0 -5.822,0.592 -8.478,1.677 -2.656,1.183 -5.107,2.761 -7.048,4.832 -3.881,4.142 -5.924,9.566 -5.6175,14.991 0.1021,0.69 0.3064,1.282 0.5105,1.972 0.307,0.592 0.817,1.183 1.328,1.775 0.306,0.296 0.613,0.493 1.021,0.691 0.409,0.197 0.715,0.394 1.124,0.591 0.409,0.197 0.817,0.296 1.328,0.395 0.511,0.098 0.919,0.197 1.43,0.296 0.511,0.098 1.021,0.098 1.634,0.098 0.511,0 1.124,0 1.737,-0.098 0.612,-0.099 1.225,-0.198 1.838,-0.395 0.613,-0.197 1.226,-0.296 1.737,-0.592 0.612,-0.197 1.225,-0.493 1.838,-0.789 0.613,-0.295 1.226,-0.591 1.737,-0.986 1.123,-0.69 2.247,-1.578 3.166,-2.465 1.021,-0.888 1.839,-1.874 2.656,-2.959 0.408,-0.592 0.715,-1.085 1.123,-1.677 0.307,-0.591 0.613,-1.183 0.817,-1.676 0.205,-0.592 0.409,-1.085 0.613,-1.677 0.102,-0.295 0.205,-0.591 0.205,-0.887 l 0.204,-0.789 c 0.102,-0.592 0.204,-1.085 0.204,-1.578 0,-0.493 0,-0.986 0,-1.479 0,-0.494 -0.102,-0.987 -0.204,-1.381 -0.102,-0.493 -0.204,-0.789 -0.409,-1.184 -0.306,-0.887 -0.715,-1.479 -1.225,-1.972 -0.511,-0.592 -1.022,-0.986 -1.635,-1.183 -0.613,-0.296 -1.225,-0.395 -1.838,-0.395 -0.613,0 -1.226,0.099 -1.839,0.395 -0.613,0.197 -1.123,0.591 -1.634,1.183 -0.511,0.493 -0.919,1.184 -1.226,1.972 -0.204,0.395 -0.306,0.789 -0.408,1.184 -0.103,0.394 -0.205,0.887 -0.205,1.381 0,0.493 -0.102,0.986 0,1.479 0,0.493 0.102,1.085 0.205,1.578 l 0.204,0.789 c 0.102,0.296 0.204,0.592 0.204,0.887 0.204,0.592 0.409,1.085 0.613,1.677 0.204,0.493 0.511,1.085 0.817,1.676 0.307,0.592 0.715,1.085 1.124,1.677 0.715,1.085 1.634,2.071 2.655,2.959 0.92,0.887 2.043,1.676 3.167,2.465 0.511,0.296 1.123,0.691 1.736,0.986 0.613,0.296 1.226,0.592 1.839,0.789 0.613,0.198 1.123,0.395 1.736,0.592 0.613,0.197 1.226,0.296 1.839,0.395 0.613,0.098 1.123,0.098 1.736,0.098 0.613,0 1.124,0 1.635,-0.098 0.51,-0.099 1.021,-0.198 1.43,-0.296 0.51,-0.099 0.919,-0.296 1.327,-0.395 0.409,-0.197 0.818,-0.394 1.124,-0.591 0.409,-0.198 0.715,-0.494 1.021,-0.691 0.511,-0.493 1.022,-1.085 1.328,-1.775 0.715,-0.592 0.92,-1.282 0.92,-1.972 z"
           fill="url(#paint0_linear_421_1274)"
           id="path11405"
           style="fill:url(#paint0_linear_421_1274-36)" />
        <path
           d="m 120.794,144.19 c -0.817,0 -1.532,-0.691 -1.532,-1.48 v -3.155 c 0,-0.789 0.715,-1.48 1.532,-1.48 0.817,0 1.532,0.691 1.532,1.48 v 3.155 c 0,0.789 -0.715,1.48 -1.532,1.48 z"
           fill="url(#paint1_linear_421_1274)"
           id="path11407"
           style="fill:url(#paint1_linear_421_1274-4)" />
        <path
           d="m 239.688,164.506 c 0,6.114 -2.553,12.229 -7.048,16.469 -4.494,4.34 -10.725,6.904 -17.058,6.805 -1.94,0 -3.983,-0.197 -5.924,-0.69 0.307,-0.296 0.715,-0.592 1.022,-0.888 6.537,-5.424 10.622,-11.045 13.176,-16.765 0.204,0.098 0.511,0.098 0.715,0.197 0.613,0.197 1.226,0.296 1.839,0.394 0.612,0.099 1.123,0.099 1.736,0.099 0.613,0 1.124,0 1.634,-0.099 0.511,0 1.022,-0.197 1.43,-0.296 0.511,-0.098 0.92,-0.197 1.328,-0.394 0.409,-0.197 0.817,-0.395 1.124,-0.592 0.408,-0.197 0.715,-0.493 1.021,-0.69 0.511,-0.493 1.022,-1.085 1.328,-1.775 0.306,-0.592 0.511,-1.282 0.511,-1.973 0.306,-5.325 -1.737,-10.848 -5.618,-14.99 -0.817,-0.888 -1.839,-1.677 -2.86,-2.466 0,-0.789 0.102,-1.577 0.102,-2.465 1.532,0.986 3.064,2.071 4.29,3.353 4.699,4.635 7.354,10.651 7.252,16.766 z"
           fill="url(#paint2_linear_421_1274)"
           id="path11409"
           style="fill:url(#paint2_linear_421_1274-4)" />
      </g>
    </g>
  </g>
</svg>
