<?xml version="1.0" encoding="UTF-8" standalone="no"?>
<!-- Created with Inkscape (http://www.inkscape.org/) -->

<svg
   width="79.375mm"
   height="79.375mm"
   viewBox="0 0 79.375 79.375"
   version="1.1"
   id="svg5"
   xmlns="http://www.w3.org/2000/svg"
   xmlns:svg="http://www.w3.org/2000/svg">
  <defs
     id="defs2">
    <clipPath
       id="clip0_421_1274">
      <rect
         width="300"
         height="300"
         fill="#ffffff"
         id="rect903"
         x="0"
         y="0" />
    </clipPath>
    <clipPath
       id="clip0_421_1274-3">
      <rect
         width="300"
         height="300"
         fill="#ffffff"
         id="rect1539"
         x="0"
         y="0" />
    </clipPath>
    <clipPath
       id="clip0_421_1274-35">
      <rect
         width="300"
         height="300"
         fill="#ffffff"
         id="rect1928"
         x="0"
         y="0" />
    </clipPath>
    <clipPath
       id="clip0_421_1274-8">
      <rect
         width="300"
         height="300"
         fill="#ffffff"
         id="rect2361"
         x="0"
         y="0" />
    </clipPath>
    <linearGradient
       id="paint0_linear_421_1274"
       x1="121.039"
       y1="222.77901"
       x2="121.039"
       y2="132.015"
       gradientUnits="userSpaceOnUse">
      <stop
         stop-color="#FF7300"
         id="stop2716" />
      <stop
         offset="0.1086"
         stop-color="#FF8D08"
         id="stop2718" />
      <stop
         offset="0.2899"
         stop-color="#FFB214"
         id="stop2720" />
      <stop
         offset="0.4716"
         stop-color="#FFCF1E"
         id="stop2722" />
      <stop
         offset="0.6514"
         stop-color="#FFE325"
         id="stop2724" />
      <stop
         offset="0.8286"
         stop-color="#FFF029"
         id="stop2726" />
      <stop
         offset="1"
         stop-color="#FFF42A"
         id="stop2728" />
    </linearGradient>
    <linearGradient
       id="paint1_linear_421_1274"
       x1="121.04"
       y1="129.14799"
       x2="121.04"
       y2="139.46899"
       gradientUnits="userSpaceOnUse">
      <stop
         stop-color="#FF7300"
         id="stop2731" />
      <stop
         offset="0.1086"
         stop-color="#FF8D08"
         id="stop2733" />
      <stop
         offset="0.2899"
         stop-color="#FFB214"
         id="stop2735" />
      <stop
         offset="0.4716"
         stop-color="#FFCF1E"
         id="stop2737" />
      <stop
         offset="0.6514"
         stop-color="#FFE325"
         id="stop2739" />
      <stop
         offset="0.8286"
         stop-color="#FFF029"
         id="stop2741" />
      <stop
         offset="1"
         stop-color="#FFF42A"
         id="stop2743" />
    </linearGradient>
    <linearGradient
       id="paint2_linear_421_1274"
       x1="226.423"
       y1="222.77901"
       x2="226.423"
       y2="132.015"
       gradientUnits="userSpaceOnUse">
      <stop
         stop-color="#FF7300"
         id="stop2746" />
      <stop
         offset="0.1086"
         stop-color="#FF8D08"
         id="stop2748" />
      <stop
         offset="0.2899"
         stop-color="#FFB214"
         id="stop2750" />
      <stop
         offset="0.4716"
         stop-color="#FFCF1E"
         id="stop2752" />
      <stop
         offset="0.6514"
         stop-color="#FFE325"
         id="stop2754" />
      <stop
         offset="0.8286"
         stop-color="#FFF029"
         id="stop2756" />
      <stop
         offset="1"
         stop-color="#FFF42A"
         id="stop2758" />
    </linearGradient>
    <clipPath
       id="clip0_421_1274-6">
      <rect
         width="300"
         height="300"
         fill="#ffffff"
         id="rect2761"
         x="0"
         y="0" />
    </clipPath>
    <clipPath
       id="clip0_421_1274-9">
      <rect
         width="300"
         height="300"
         fill="#ffffff"
         id="rect3154"
         x="0"
         y="0" />
    </clipPath>
    <clipPath
       id="clip0_421_1274-61">
      <rect
         width="300"
         height="300"
         fill="#ffffff"
         id="rect3560"
         x="0"
         y="0" />
    </clipPath>
    <linearGradient
       id="paint0_linear_421_1274-3"
       x1="118.039"
       y1="225.166"
       x2="118.039"
       y2="137.532"
       gradientUnits="userSpaceOnUse">
      <stop
         stop-color="#FF7300"
         id="stop4079" />
      <stop
         offset="0.1086"
         stop-color="#FF8D08"
         id="stop4081" />
      <stop
         offset="0.2899"
         stop-color="#FFB214"
         id="stop4083" />
      <stop
         offset="0.4716"
         stop-color="#FFCF1E"
         id="stop4085" />
      <stop
         offset="0.6514"
         stop-color="#FFE325"
         id="stop4087" />
      <stop
         offset="0.8286"
         stop-color="#FFF029"
         id="stop4089" />
      <stop
         offset="1"
         stop-color="#FFF42A"
         id="stop4091" />
    </linearGradient>
    <linearGradient
       id="paint1_linear_421_1274-7"
       x1="118.04"
       y1="134.76401"
       x2="118.04"
       y2="144.729"
       gradientUnits="userSpaceOnUse">
      <stop
         stop-color="#FF7300"
         id="stop4094" />
      <stop
         offset="0.1086"
         stop-color="#FF8D08"
         id="stop4096" />
      <stop
         offset="0.2899"
         stop-color="#FFB214"
         id="stop4098" />
      <stop
         offset="0.4716"
         stop-color="#FFCF1E"
         id="stop4100" />
      <stop
         offset="0.6514"
         stop-color="#FFE325"
         id="stop4102" />
      <stop
         offset="0.8286"
         stop-color="#FFF029"
         id="stop4104" />
      <stop
         offset="1"
         stop-color="#FFF42A"
         id="stop4106" />
    </linearGradient>
    <linearGradient
       id="paint2_linear_421_1274-8"
       x1="223.423"
       y1="225.166"
       x2="223.423"
       y2="137.532"
       gradientUnits="userSpaceOnUse">
      <stop
         stop-color="#FF7300"
         id="stop4109" />
      <stop
         offset="0.1086"
         stop-color="#FF8D08"
         id="stop4111" />
      <stop
         offset="0.2899"
         stop-color="#FFB214"
         id="stop4113" />
      <stop
         offset="0.4716"
         stop-color="#FFCF1E"
         id="stop4115" />
      <stop
         offset="0.6514"
         stop-color="#FFE325"
         id="stop4117" />
      <stop
         offset="0.8286"
         stop-color="#FFF029"
         id="stop4119" />
      <stop
         offset="1"
         stop-color="#FFF42A"
         id="stop4121" />
    </linearGradient>
    <clipPath
       id="clip0_421_1274-4">
      <rect
         width="300"
         height="300"
         fill="#ffffff"
         id="rect4124"
         x="0"
         y="0" />
    </clipPath>
    <clipPath
       id="clip0_421_1274-2">
      <rect
         width="300"
         height="300"
         fill="#ffffff"
         id="rect4458"
         x="0"
         y="0" />
    </clipPath>
    <clipPath
       id="clip0_421_1274-1">
      <rect
         width="300"
         height="300"
         fill="#ffffff"
         id="rect4979"
         x="0"
         y="0" />
    </clipPath>
    <clipPath
       id="clip0_421_1274-24">
      <rect
         width="300"
         height="300"
         fill="#ffffff"
         id="rect5434"
         x="0"
         y="0" />
    </clipPath>
    <clipPath
       id="clip0_421_1274-46">
      <rect
         width="300"
         height="300"
         fill="#ffffff"
         id="rect5850"
         x="0"
         y="0" />
    </clipPath>
    <clipPath
       id="clip0_421_1274-5">
      <rect
         width="300"
         height="300"
         fill="#ffffff"
         id="rect6329"
         x="0"
         y="0" />
    </clipPath>
    <clipPath
       id="clip0_421_1274-38">
      <rect
         width="300"
         height="300"
         fill="#ffffff"
         id="rect6804"
         x="0"
         y="0" />
    </clipPath>
    <clipPath
       id="clip0_421_1274-44">
      <rect
         width="300"
         height="300"
         fill="#ffffff"
         id="rect7152"
         x="0"
         y="0" />
    </clipPath>
    <clipPath
       id="clip0_421_1274-94">
      <rect
         width="300"
         height="300"
         fill="#ffffff"
         id="rect7595"
         x="0"
         y="0" />
    </clipPath>
    <clipPath
       id="clip0_421_1274-10">
      <rect
         width="300"
         height="300"
         fill="#ffffff"
         id="rect8065"
         x="0"
         y="0" />
    </clipPath>
    <clipPath
       id="clip0_421_1274-87">
      <rect
         width="300"
         height="300"
         fill="#ffffff"
         id="rect8554"
         x="0"
         y="0" />
    </clipPath>
    <clipPath
       id="clip0_421_1274-19">
      <rect
         width="300"
         height="300"
         fill="#ffffff"
         id="rect9033"
         x="0"
         y="0" />
    </clipPath>
    <clipPath
       id="clip0_421_1274-49">
      <rect
         width="300"
         height="300"
         fill="#ffffff"
         id="rect9515"
         x="0"
         y="0" />
    </clipPath>
    <clipPath
       id="clip0_421_1274-69">
      <rect
         width="300"
         height="300"
         fill="#ffffff"
         id="rect10033"
         x="0"
         y="0" />
    </clipPath>
    <clipPath
       id="clip0_421_1274-40">
      <rect
         width="300"
         height="300"
         fill="#ffffff"
         id="rect10502"
         x="0"
         y="0" />
    </clipPath>
  </defs>
  <g
     id="layer1"
     transform="translate(-286.16473,-59.208444)">
    <g
       style="fill:none"
       id="g10552"
       transform="matrix(0.26458333,0,0,0.26458333,286.16473,59.208444)">
      <g
         clip-path="url(#clip0_421_1274-40)"
         id="g10500">
        <path
           id="rect10424"
           style="fill:#f4da92;fill-opacity:0.968627"
           d="M 0,0 H 300 V 300 H 0 Z" />
        <path
           d="m 251.369,265.099 c -0.775,0.553 -1.66,1.107 -2.435,1.66 -0.885,0.553 -1.659,1.106 -2.544,1.549 -0.775,0.443 -1.439,0.885 -2.213,1.328 -0.111,0.11 -0.222,0.11 -0.332,0.221 -2.545,1.549 -5.201,2.987 -7.856,4.315 -0.775,0.443 -1.66,0.885 -2.434,1.217 0,0 -0.111,0.111 -0.222,0.111 -0.885,0.443 -1.77,0.885 -2.655,1.328 -1.771,0.885 -3.652,1.659 -5.422,2.434 -0.885,0.443 -1.881,0.774 -2.766,1.106 -0.885,0.332 -1.881,0.775 -2.766,1.107 -0.885,0.332 -1.881,0.774 -2.766,1.106 0,0 0,0 -0.111,0 -0.885,0.332 -1.881,0.664 -2.766,0.996 -1.992,0.664 -4.094,1.328 -6.086,1.992 -0.664,0.221 -1.438,0.442 -2.102,0.664 -2.102,0.664 -4.205,1.217 -6.307,1.659 -0.774,0.222 -1.549,0.332 -2.434,0.554 -1.992,0.442 -4.094,0.885 -6.086,1.327 -0.442,0.111 -0.774,0.111 -1.217,0.222 -0.664,0.11 -1.438,0.221 -2.102,0.332 -0.996,0.11 -1.881,0.332 -2.877,0.442 -0.443,0.111 -0.885,0.111 -1.328,0.222 -0.553,0.11 -1.217,0.221 -1.881,0.221 -1.77,0.221 -3.651,0.442 -5.421,0.664 -0.554,0.11 -1.218,0.11 -1.771,0.221 h -0.11 c -0.775,0.111 -1.549,0.111 -2.324,0.221 -0.775,0.111 -1.549,0.111 -2.324,0.111 -0.442,0 -0.995,0.111 -1.438,0.111 -0.885,0 -1.66,0.11 -2.434,0.11 -1.107,0 -2.103,0.111 -3.209,0.111 -1.106,0 -2.102,0 -3.209,0 -0.774,0 -1.549,0 -2.323,0 -46.583,-0.664 -88.6284,-20.47 -118.503,-51.893 0,0 0,-0.111 -0.1106,-0.111 3.43,-6.75 16.1544,-18.921 29.432,-28.99 16.8183,-12.724 40.6076,-20.58 40.6076,-20.58 0,0 15.601,-2.545 73.469,9.516 44.148,9.294 62.958,47.025 69.376,64.396 z"
           fill="#ad827b"
           id="path10426" />
        <path
           d="m 194.275,231.352 c -2.324,11.397 -17.372,18.146 -42.71,7.966 -31.092,-12.613 -43.041,-48.131 -43.041,-48.131 -1.66,-25.449 -5.533,-47.246 -5.533,-47.246 35.96,-3.098 78.449,38.948 78.449,38.948 l 4.868,20.801 c 0.443,1.771 1.328,3.32 2.656,4.426 2.323,3.983 6.86,15.933 5.311,23.236 z"
           fill="#ad827b"
           id="path10428" />
        <path
           d="m 188.964,208.227 c -21.134,-1.107 -36.735,-4.205 -53.443,-34.19 14.163,12.503 30.871,17.261 48.464,19.474 l 2.323,10.179 c 0.443,1.881 1.328,3.43 2.656,4.537 z"
           fill="#8e5650"
           id="path10430" />
        <path
           d="m 232.669,74.8974 c 1.992,9.2944 2.988,16.8183 -2.434,41.6036 -5.422,24.784 4.979,49.569 -21.134,72.252 -17.592,15.269 -48.352,18.146 -72.916,1.438 -8.298,-5.643 -15.933,-13.499 -22.129,-23.789 C 109.187,158.325 103.544,150.69 97.2376,143.72 88.4965,134.204 77.9851,115.062 83.1855,81.2043 91.5946,26.1022 146.143,19.7954 178.342,25.8809 c 32.198,6.0856 48.906,24.453 54.327,49.0165 z"
           fill="#ad827b"
           id="path10432" />
        <path
           d="m 126.781,118.16 c 0,0 -3.431,-16.597 -19.585,-14.605 -13.9414,1.77 -18.8099,35.186 12.835,44.48"
           fill="#ad827b"
           id="path10434" />
        <path
           style="color:#000000;fill:#423232;stroke-linecap:round;stroke-linejoin:round;stroke-miterlimit:10;-inkscape-stroke:none"
           d="m 111.10742,114.47656 c -0.79876,-0.0615 -1.5458,0.026 -2.22265,0.25 -1.35371,0.4479 -2.33,1.38923 -2.98047,2.36914 -0.65048,0.97991 -1.01621,2.01636 -1.22657,2.90039 -0.10517,0.44202 -0.16973,0.84523 -0.20117,1.20313 -0.0314,0.3579 -0.0769,0.59024 0.0469,1.08594 a 1.5,1.5 0 0 0 1.81836,1.09179 1.5,1.5 0 0 0 1.09179,-1.81836 c 0.0685,0.27445 0.0147,0.0911 0.0312,-0.0977 0.0166,-0.1888 0.0579,-0.46302 0.13086,-0.76953 0.14587,-0.61303 0.4217,-1.35466 0.8086,-1.9375 0.38689,-0.58284 0.84261,-0.98803 1.42187,-1.17969 0.57926,-0.19166 1.37958,-0.22332 2.65625,0.31055 a 1.50015,1.50015 0 0 0 0.0117,0.004 c 0.7384,0.30186 1.1747,0.8189 1.48828,2.09571 0.31358,1.2768 0.34453,3.23267 0.0254,5.73242 a 1.50015,1.50015 0 0 0 -0.006,0.0391 c -0.53747,5.36869 4.22657,8.38476 4.22657,8.38476 a 1.5,1.5 0 0 0 2.07226,-0.45703 1.5,1.5 0 0 0 -0.45703,-2.07226 c 0,0 -3.20399,-2.07534 -2.85547,-5.55664 l -0.006,0.041 c 0.34486,-2.70124 0.37498,-4.95143 -0.0859,-6.82812 -0.46067,-1.87573 -1.5715,-3.45864 -3.26562,-4.15235 -0.87955,-0.3667 -1.72772,-0.57742 -2.52344,-0.63867 z"
           id="path10436" />
        <path
           d="m 203.459,143.609 c 0,0 4.204,0.221 8.188,-4.536 2.213,-2.656 4.094,-5.975 2.876,-6.971 -1.217,-1.107 -21.244,1.991 -22.572,4.647 -1.327,2.655 6.418,6.86 11.508,6.86 z"
           fill="#8e605c"
           id="path10438" />
        <path
           style="color:#000000;fill:#423232;stroke-linecap:round;stroke-linejoin:round;stroke-miterlimit:10;-inkscape-stroke:none"
           d="m 206.74609,104.93164 a 1.5,1.5 0 0 0 -1.46679,1.53125 c 0,0 0.23481,10.9046 7.16992,22.95703 1.15428,2.0088 0.91216,4.81516 -0.83008,7.4043 -1.74224,2.58913 -4.94547,4.85893 -9.48242,5.52148 a 1.5,1.5 0 0 0 -1.26758,1.70117 1.5,1.5 0 0 0 1.70117,1.26758 c 5.31004,-0.77545 9.29806,-3.48409 11.53906,-6.81445 2.24101,-3.33036 2.77317,-7.38497 0.93946,-10.57617 -6.56288,-11.40554 -6.77149,-21.52344 -6.77149,-21.52344 a 1.5,1.5 0 0 0 -1.53125,-1.46875 z"
           id="path10440" />
        <path
           d="m 262.57,243.893 c -15.669,-20.193 -39.945,-28.579 -53.296,-33.545 -1.104,-5.517 -3.2,-11.586 -6.511,-17.434 -5.076,3.09 -10.924,5.407 -16.993,6.621 l 0.883,3.641 c 0.441,1.766 2.648,9.931 -0.773,20.414 -2.869,8.827 -14.455,12.8 -34.096,3.862 -38.29,-17.324 -42.704,-36.855 -42.704,-36.855 -0.662,-10.593 -1.765,-20.524 -2.758,-28.58 -11.9174,2.649 -25.7105,8.056 -33.214,19.421 -9.2689,13.904 -12.6896,28.028 -11.8069,39.283 -16.1103,10.262 -41.0482,25.821 -49.2138,53.627 -10.59306,36.194 -8.82754,58.373 -8.82754,58.373 H 288.391 c -0.331,0.11 -4.524,-61.352 -25.821,-88.828 z"
           fill="#ffffff"
           id="path10442" />
        <path
           style="color:#000000;fill:#423232;stroke-linecap:round;stroke-linejoin:round;stroke-miterlimit:10;-inkscape-stroke:none"
           d="m 91.712891,206.24805 a 1.5,1.5 0 0 0 -1.078125,1.82617 c 0,0 6.935065,26.77137 36.859374,45.15234 a 1.5,1.5 0 0 0 2.06445,-0.49219 1.5,1.5 0 0 0 -0.49414,-2.06445 C 100.06482,232.85693 93.539063,207.32617 93.539062,207.32617 a 1.5,1.5 0 0 0 -1.826171,-1.07812 z"
           id="path10444" />
        <path
           style="color:#000000;fill:#423232;stroke-linecap:round;stroke-linejoin:round;stroke-miterlimit:10;-inkscape-stroke:none"
           d="m 208.82422,208.88672 a 1.5,1.5 0 0 0 -1.12305,1.80078 c 0,0 1.91784,8.30596 1.74219,18.51758 -0.17565,10.21162 -2.49227,22.13062 -10.55859,29.46875 a 1.5,1.5 0 0 0 -0.0996,2.11914 1.5,1.5 0 0 0 2.11914,0.0996 c 9.03665,-8.22086 11.35646,-21.01916 11.53906,-31.63477 0.1826,-10.61561 -1.81836,-19.24609 -1.81836,-19.24609 a 1.5,1.5 0 0 0 -1.80078,-1.125 z"
           id="path10446" />
        <path
           style="color:#000000;fill:#423232;stroke-linecap:round;stroke-linejoin:round;stroke-miterlimit:10;-inkscape-stroke:none"
           d="m 156.46289,253.17773 a 1.5,1.5 0 0 0 -1.9043,0.9336 c 0,0 -1.46268,4.27229 -2.72265,9.99804 -1.25997,5.72576 -2.35626,12.91481 -1.53907,19.04297 a 1.5,1.5 0 0 0 1.68555,1.28907 1.5,1.5 0 0 0 1.28906,-1.68555 c -0.7278,-5.45783 0.27137,-12.44522 1.49414,-18.00195 1.22278,-5.55673 2.63086,-9.67188 2.63086,-9.67188 a 1.5,1.5 0 0 0 -0.93359,-1.9043 z"
           id="path10448" />
        <path
           style="color:#000000;fill:#423232;stroke-linecap:round;stroke-linejoin:round;stroke-miterlimit:10;-inkscape-stroke:none"
           d="m 191.69922,252.19727 a 1.5,1.5 0 0 0 -1.14844,0.043 1.5,1.5 0 0 0 -0.73633,1.99024 c 0,0 4.22793,9.20666 7.28711,23.95508 a 1.5,1.5 0 0 0 1.77344,1.16406 1.5,1.5 0 0 0 1.16406,-1.77344 c -3.12081,-15.04555 -7.49804,-24.59765 -7.49804,-24.59765 a 1.5,1.5 0 0 0 -0.8418,-0.78125 z"
           id="path10450" />
        <path
           style="color:#000000;fill:#423232;stroke-linecap:round;stroke-linejoin:round;stroke-miterlimit:10;-inkscape-stroke:none"
           d="m 60.722656,219.375 a 1.5,1.5 0 0 0 -1.099609,1.81445 c 0,0 2.378648,9.59373 11.570312,20.39258 9.191665,10.79885 25.257392,22.92061 52.488281,28.38867 a 1.5,1.5 0 0 0 1.76563,-1.17578 1.5,1.5 0 0 0 -1.17579,-1.76562 C 97.653828,261.68437 82.273133,249.97105 73.478516,239.63867 64.683898,229.30629 62.537109,220.47266 62.537109,220.47266 A 1.5,1.5 0 0 0 60.722656,219.375 Z"
           id="path10452" />
        <path
           d="m 152.777,285.493 -4.855,-0.441 c -1.766,-0.221 -3.09,-1.876 -2.759,-3.641 l 1.655,-8.276 c 0.442,-2.317 2.649,-3.973 4.966,-3.642 2.317,0.221 4.193,2.207 4.193,4.635 l 0.11,8.496 c 0,1.656 -1.544,3.09 -3.31,2.869 z"
           fill="#000000"
           id="path10454" />
        <path
           d="m 203.425,280.417 -4.634,1.656 c -1.766,0.662 -3.642,-0.442 -3.973,-2.207 l -1.986,-8.166 c -0.552,-2.317 0.662,-4.634 2.979,-5.517 2.207,-0.772 4.745,0.221 5.738,2.317 l 3.642,7.614 c 0.772,1.655 0,3.641 -1.766,4.303 z"
           fill="#000000"
           id="path10456" />
        <path
           style="color:#000000;fill:#544d4d;stroke-linecap:round;stroke-linejoin:round;stroke-miterlimit:10;-inkscape-stroke:none"
           d="m 53.5,300.18164 a 1.5,1.5 0 0 0 -1.144531,0.0801 1.5,1.5 0 0 0 -0.671875,2.01367 c 0.674739,1.34936 1.383392,4.0781 1.93164,7.25586 0.548249,3.17776 0.981765,6.84463 1.310547,10.31055 0.657566,6.93184 0.904297,13.04882 0.904297,13.04882 a 1.5,1.5 0 0 0 1.558594,1.43946 1.5,1.5 0 0 0 1.439453,-1.5586 c 0,0 -0.249457,-6.18624 -0.916016,-13.21289 -0.333279,-3.51332 -0.770865,-7.23919 -1.339843,-10.53711 -0.568979,-3.29791 -1.224669,-6.12725 -2.205079,-8.08789 A 1.5,1.5 0 0 0 53.5,300.18164 Z"
           id="path10458" />
        <path
           style="color:#000000;fill:#544d4d;stroke-linecap:round;stroke-linejoin:round;stroke-miterlimit:10;-inkscape-stroke:none"
           d="m 251.82422,276.40234 a 1.5,1.5 0 0 0 -1.21485,1.74024 c 0,0 6.10775,34.70442 3.74024,54.50976 a 1.5,1.5 0 0 0 1.31055,1.66797 1.5,1.5 0 0 0 1.66796,-1.31054 c 2.48649,-20.80062 -3.76367,-55.39258 -3.76367,-55.39258 a 1.5,1.5 0 0 0 -1.74023,-1.21485 z"
           id="path10460" />
        <path
           d="m 231.194,102.179 c 2.981,-16.7812 2.098,-23.4052 0.331,-31.2436 -0.552,-2.4288 -1.214,-4.7472 -1.987,-7.0656 -6.955,-3.0912 -12.696,5.52 -22.19,4.1952 -25.282,-3.4224 -44.602,-14.2416 -65.909,-9.6048 -13.358,2.8704 -15.566,14.904 -11.702,37.0944 1.104,6.0724 1.104,11.9234 -4.085,17.9954 -0.883,-3.091 -5.189,-15.677 -19.32,-13.9106 -13.3586,1.6556 -18.437,32.5676 9.163,43.1666 -0.221,6.072 -5.851,17.333 -10.378,19.872 0,0 -0.772,-8.059 -9.6044,-18.658 C 86.6806,133.422 69.0166,105.932 80.9398,65.7466 92.863,25.561 146.849,4.585 197.081,25.009 c 8.611,3.5328 15.676,8.5008 21.307,13.6896 13.248,12.144 20.313,29.808 18.216,47.5824 -0.442,5.9616 -2.098,11.7024 -5.41,15.898 z"
           fill="#423232"
           id="path10462" />
        <path
           d="m 118.255,32.6265 c 0,0 3.202,-35.43842 -16.008,-39.74402 -19.2092,-4.30558 -12.5852,16.6704 -6.6236,29.80802 0,0 -22.9632,-20.53442 -33.0096,-6.624 -9.6048,13.3584 14.4624,27.9312 14.4624,27.9312 0,0 -35.6592,2.8704 -28.152,23.184 7.6176,20.3136 46.6992,-6.1824 46.6992,-6.1824 0,0 22.5216,-20.7552 22.6316,-28.3728 z"
           fill="#423232"
           id="path10464" />
        <path
           d="m 195.997,159.218 c 0.1,3.3 -4.8,11.7 -14.3,7.8 -9.1,-3.7 -11.8,-21.1 1.2,-12.8 6.8,4.3 10.9,5 13.1,5 z"
           fill="#ffffff"
           id="path10466" />
        <path
           style="color:#000000;fill:#423232;stroke-linecap:round;stroke-linejoin:round;stroke-miterlimit:10;-inkscape-stroke:none"
           d="m 177.19922,150.48242 c -0.60811,0.005 -1.18195,0.10567 -1.72656,0.30469 -1.08924,0.39803 -1.92748,1.24869 -2.38282,2.22266 -0.45534,0.97396 -0.59296,2.05704 -0.54101,3.17773 0.20779,4.48232 3.31917,10.07999 8.58203,12.2207 5.18607,2.12732 9.53599,0.85121 12.28711,-1.48437 1.37594,-1.16812 2.38653,-2.56391 3.06445,-3.91797 0.42823,-0.85533 0.67937,-1.66784 0.83789,-2.46289 0.008,-0.001 0.0255,0.001 0.0332,0 0.71986,-0.13797 1.26367,-0.41016 1.26367,-0.41016 a 1.5,1.5 0 0 0 0.5957,-2.03515 1.5,1.5 0 0 0 -2.03711,-0.59571 c 0,0 0.0184,0.0161 -0.38672,0.0937 -0.40514,0.0777 -1.10697,0.14616 -2.16406,0.0195 -2.11418,-0.25326 -5.65799,-1.30032 -10.91992,-4.66211 l 0.004,0.004 c -2.5547,-1.64372 -4.68543,-2.4901 -6.50976,-2.47461 z m -0.69727,3.12305 c 0.67778,-0.24768 2.54026,-0.0853 5.58399,1.87305 a 1.50015,1.50015 0 0 0 0.004,0.004 c 5.45633,3.48599 9.34809,4.72986 12.03125,5.07422 -0.1131,0.40104 -0.087,0.63754 -0.32226,1.10742 -0.50958,1.01781 -1.29821,2.10328 -2.32227,2.97266 -2.04811,1.73876 -4.89697,2.76434 -9.20898,0.99414 a 1.50015,1.50015 0 0 0 -0.006,-0.002 c -3.83618,-1.55977 -6.57461,-6.51286 -6.7168,-9.58008 -0.0356,-0.76681 0.0839,-1.38491 0.26367,-1.76953 0.17982,-0.38463 0.35447,-0.54999 0.69336,-0.67383 z"
           id="path10468" />
        <path
           style="color:#000000;fill:#423232;stroke-linecap:round;stroke-linejoin:round;stroke-miterlimit:10;-inkscape-stroke:none"
           d="m 173.79687,155.24805 a 1.5,1.5 0 0 0 -0.95117,0.64257 1.5,1.5 0 0 0 0.42383,2.07813 c 0,0 1.73922,1.15301 3.75391,2.26367 1.00734,0.55533 2.08298,1.10324 3.09961,1.50781 1.01663,0.40458 1.87771,0.78696 3.06836,0.54883 l -0.082,0.0137 c 0.19502,-0.0279 0.0891,-0.0514 0.36719,0.10547 0.27814,0.15685 0.80433,0.54367 1.59571,0.96094 1.58275,0.83454 4.17522,1.69283 9.07812,1.84766 a 1.5,1.5 0 0 0 1.54492,-1.45118 1.5,1.5 0 0 0 -1.45117,-1.54687 c -4.59709,-0.14517 -6.6062,-0.8865 -7.77344,-1.50195 -0.58362,-0.30773 -0.96837,-0.60997 -1.52148,-0.92188 -0.55312,-0.31191 -1.40869,-0.58308 -2.26367,-0.46094 a 1.50015,1.50015 0 0 0 -0.082,0.0137 c 0.19064,-0.0381 -0.55023,-0.0679 -1.3711,-0.39454 -0.82087,-0.32667 -1.81906,-0.82994 -2.76172,-1.3496 -1.88531,-1.03934 -3.54687,-2.13672 -3.54687,-2.13672 a 1.5,1.5 0 0 0 -1.12696,-0.21875 z"
           id="path10470" />
        <path
           d="m 186.709,97.6113 c 2.172,0.3 3.851,-2 3.061,-4.2 -0.395,-1.2 -1.086,-2.3 -2.172,-3 -3.358,-2.1 -15.899,-2.3 -22.515,2.5 -5.827,4.4 11.751,3.3 21.626,4.7 z"
           fill="#423232"
           id="path10472" />
        <path
           d="m 214.062,98.7113 c -1.778,0 -2.864,-2.3 -1.975,-4.2 0.494,-1 1.185,-1.9 2.172,-2.4 3.062,-1.5 11.258,-0.6 14.912,4.5 3.258,4.4997 -6.913,2 -15.109,2.1 z"
           fill="#423232"
           id="path10474" />
        <path
           style="color:#000000;fill:#423232;stroke-linecap:round;stroke-linejoin:round;stroke-miterlimit:10;-inkscape-stroke:none"
           d="m 172.64453,107.11328 c -3.41922,0.20827 -6.03711,0.83985 -6.03711,0.83985 a 1.5,1.5 0 0 0 -1.10742,1.80859 1.5,1.5 0 0 0 1.80859,1.10742 c 0,0 2.36981,-0.56999 5.51758,-0.76172 3.14778,-0.19173 7.0066,0.0533 9.74805,1.44141 a 1.5,1.5 0 0 0 2.01562,-0.66016 1.5,1.5 0 0 0 -0.66015,-2.01562 c -3.57854,-1.81192 -7.86594,-1.96804 -11.28516,-1.75977 z"
           id="path10476" />
        <path
           style="color:#000000;fill:#423232;stroke-linecap:round;stroke-linejoin:round;stroke-miterlimit:10;-inkscape-stroke:none"
           d="m 216.05078,109.27734 c -1.68802,0.0501 -3.72692,0.30384 -6.17969,0.87305 a 1.5,1.5 0 0 0 -1.12109,1.79883 1.5,1.5 0 0 0 1.80078,1.12305 c 4.57445,-1.06159 7.35023,-0.88559 8.89844,-0.52539 0.7741,0.18009 1.24466,0.40486 1.5,0.55468 0.25534,0.14983 0.20312,0.12305 0.20312,0.12305 a 1.5,1.5 0 0 0 2.11914,0.0918 1.5,1.5 0 0 0 0.0918,-2.11914 c 0,0 -0.37231,-0.37717 -0.89453,-0.6836 -0.52222,-0.30642 -1.2872,-0.64377 -2.33984,-0.88867 -1.05265,-0.2449 -2.39011,-0.39778 -4.07813,-0.34766 z"
           id="path10478" />
        <path
           opacity="0.6"
           d="m 184.171,124.387 c 0,0 -9.736,6.111 -20.714,6.008 -10.979,-0.104 -12.325,-8.7 -12.429,-13.361 0,0 1.45,6.732 8.079,9.218 6.525,2.485 25.064,-1.865 25.064,-1.865 z"
           fill="#b7aea9"
           id="path10480" />
        <path
           opacity="0.6"
           d="m 215.45,123.248 c 0,0 2.382,2.9 5.593,4.972 2.175,1.45 5.075,-0.104 5.075,-2.693 0.104,0 -6.007,0.31 -10.668,-2.279 z"
           fill="#b7aea9"
           id="path10482" />
        <path
           opacity="0.43"
           d="m 188.004,95.0768 -30.45,30.4502 c 2.382,1.45 5.282,2.175 8.182,1.76 l 14.5,-1.864 c 4.35,-0.621 8.389,-2.796 11.496,-6.421 1.243,-1.347 1.968,-3.211 2.072,-5.179 l 0.518,-10.253 c 0.207,-4.4539 -2.59,-8.1825 -6.318,-8.4932 z"
           fill="#fe9dab"
           id="path10484" />
        <path
           opacity="0.3"
           d="M 188.004,95.0767 158.9,92.3839 c -4.867,-0.4143 -9.01,4.0393 -9.01,9.6321 v 8.804 c 0,6.421 3.107,11.91 7.664,14.707 z"
           fill="#fe9dab"
           id="path10486" />
        <path
           opacity="0.3"
           d="m 230.468,94.041 -18.229,2.3821 c -2.382,0.3107 -4.142,3.7289 -3.935,7.6639 l 0.31,9.218 c 0.104,1.761 0.518,3.418 1.243,4.661 1.243,2.071 2.797,3.625 4.454,4.661 l 21.646,-21.647 c -0.414,-4.1426 -2.796,-7.2497 -5.489,-6.939 z"
           fill="#fe9dab"
           id="path10488" />
        <path
           opacity="0.43"
           d="m 214.414,122.73 c 0.932,0.518 1.761,0.933 2.797,1.14 l 9.01,1.76 c 5.282,1.036 9.943,-5.903 9.943,-14.914 v -7.871 c 0,-0.622 0,-1.14 -0.104,-1.657 z"
           fill="#fe9dab"
           id="path10490" />
        <path
           style="color:#000000;fill:#ffffff;stroke-linecap:round;stroke-linejoin:round;stroke-miterlimit:10;-inkscape-stroke:none"
           d="m 159.03711,90.771484 c -5.92122,-0.504039 -10.76563,4.851929 -10.76563,11.244146 v 8.80468 c 0,10.75142 8.20649,19.35791 17.68164,18.07031 l 14.49024,-1.86132 a 1.6189119,1.6189119 0 0 0 0.0215,-0.004 c 4.72217,-0.67413 9.12018,-3.05338 12.4668,-6.94336 1.52629,-1.66176 2.36657,-3.87062 2.48828,-6.17383 a 1.6189119,1.6189119 0 0 0 0,-0.004 l 0.51953,-10.25196 a 1.6189119,1.6189119 0 0 0 0,-0.008 c 0.24028,-5.16993 -3.06959,-9.78516 -7.79687,-10.181639 h -0.004 l -29.08984,-2.691407 a 1.6189119,1.6189119 0 0 0 -0.0117,0 z m -0.2793,3.22461 29.09766,2.693359 a 1.6189119,1.6189119 0 0 0 0.0137,0 c 2.72665,0.227318 5.0096,3.06804 4.83594,6.804687 l -0.51758,10.24805 c -0.0867,1.62438 -0.6943,3.13237 -1.64453,4.16211 a 1.6189119,1.6189119 0 0 0 -0.041,0.0449 c -2.8641,3.3416 -6.52886,5.30501 -10.49414,5.87109 l -14.47851,1.86133 a 1.6189119,1.6189119 0 0 0 -0.0117,0.002 c -7.30283,0.9924 -14.00977,-5.73072 -14.00977,-14.86328 v -8.80468 c 0,-4.790886 3.4396,-8.339895 7.25,-8.019536 z"
           id="path10492" />
        <path
           style="color:#000000;fill:#ffffff;stroke-linecap:round;stroke-linejoin:round;stroke-miterlimit:10;-inkscape-stroke:none"
           d="m 230.34961,92.541016 -18.2168,2.380859 c -1.89509,0.24719 -3.30483,1.649056 -4.16211,3.347656 -0.85728,1.698601 -1.25151,3.804989 -1.07422,6.048829 l -0.004,-0.0723 0.31054,9.2168 v -0.0547 c 0,2.07844 0.59152,3.98261 1.4629,5.47657 2.03889,3.50998 4.94874,5.94147 8.23828,6.57421 l 9.00586,1.75977 a 1.6189119,1.6189119 0 0 0 0.0293,0.006 c 3.39823,0.59961 6.52968,-1.39473 8.58008,-4.46289 2.0504,-3.06816 3.26367,-7.30907 3.26367,-12.04492 v -7.8711 c 0,-2.81309 -0.69326,-5.363245 -1.92773,-7.285153 -1.23448,-1.921908 -3.2364,-3.332631 -5.50586,-3.019531 z m 0.44336,3.207031 c 0.73354,-0.1012 1.52662,0.299461 2.33789,1.5625 0.81127,1.263039 1.41406,3.272753 1.41406,5.535153 v 7.8711 c 0,4.17113 -1.1162,7.85101 -2.7168,10.24609 -1.60059,2.39508 -3.4424,3.40465 -5.32617,3.07227 l -8.98242,-1.75391 a 1.6189119,1.6189119 0 0 0 -0.004,0 c -2.0957,-0.40311 -4.36369,-2.11474 -6.05273,-5.02344 a 1.6189119,1.6189119 0 0 0 0,-0.004 c -0.57862,-0.99205 -1.02344,-2.40215 -1.02344,-3.84571 a 1.6189119,1.6189119 0 0 0 0,-0.0547 l -0.3125,-9.2168 a 1.6189119,1.6189119 0 0 0 -0.004,-0.0723 c -0.13371,-1.69215 0.19731,-3.26406 0.73828,-4.335934 0.54097,-1.071872 1.20255,-1.532193 1.68945,-1.595704 a 1.6189119,1.6189119 0 0 0 0,-0.002 L 230.78125,95.75 a 1.6189119,1.6189119 0 0 0 0.0117,-0.002 z"
           id="path10494" />
        <path
           style="color:#000000;fill:#ffffff;stroke-linecap:round;stroke-linejoin:round;stroke-miterlimit:10;-inkscape-stroke:none"
           d="m 125.99609,101.03516 a 1.5,1.5 0 0 0 -1.53125,1.46679 1.5,1.5 0 0 0 1.4668,1.53125 l 23.92578,0.51758 a 1.5,1.5 0 0 0 1.53125,-1.4668 1.5,1.5 0 0 0 -1.4668,-1.53125 z"
           id="path10496" />
        <path
           style="color:#000000;fill:#ffffff;stroke-linecap:round;stroke-linejoin:round;stroke-miterlimit:10;-inkscape-stroke:none"
           d="m 205.68555,101.11523 c -1.56269,-0.13068 -3.33842,-0.0431 -5.05469,0.11719 -3.43254,0.32059 -6.625,0.95703 -6.625,0.95703 a 1.61875,1.61875 0 0 0 -1.27344,1.90235 1.61875,1.61875 0 0 0 1.9043,1.27343 c 0,0 3.07297,-0.60728 6.29492,-0.9082 1.61098,-0.15046 3.26026,-0.21761 4.48438,-0.11523 0.61205,0.0512 1.1163,0.15033 1.41015,0.25195 0.29385,0.10162 0.30605,0.19629 0.20899,0.041 a 1.61875,1.61875 0 0 0 2.23046,0.51562 1.61875,1.61875 0 0 0 0.51368,-2.23047 c -0.48557,-0.77677 -1.20559,-1.14846 -1.89453,-1.38672 -0.68894,-0.23826 -1.41788,-0.35262 -2.19922,-0.41797 z"
           id="path10498" />
      </g>
    </g>
  </g>
</svg>
