<?xml version="1.0" encoding="UTF-8" standalone="no"?>
<!-- Created with Inkscape (http://www.inkscape.org/) -->

<svg
   width="8.111372mm"
   height="7.8795099mm"
   viewBox="0 0 8.111372 7.8795098"
   version="1.1"
   id="svg5"
   inkscape:version="1.1.1 (3bf5ae0d25, 2021-09-20)"
   sodipodi:docname="attachment-icon.svg"
   xmlns:inkscape="http://www.inkscape.org/namespaces/inkscape"
   xmlns:sodipodi="http://sodipodi.sourceforge.net/DTD/sodipodi-0.dtd"
   xmlns="http://www.w3.org/2000/svg"
   xmlns:svg="http://www.w3.org/2000/svg">
  <sodipodi:namedview
     id="namedview7"
     pagecolor="#ffffff"
     bordercolor="#999999"
     borderopacity="1"
     inkscape:pageshadow="0"
     inkscape:pageopacity="0"
     inkscape:pagecheckerboard="0"
     inkscape:document-units="mm"
     showgrid="false"
     inkscape:zoom="11.313709"
     inkscape:cx="7.1152617"
     inkscape:cy="24.881319"
     inkscape:window-width="1920"
     inkscape:window-height="1001"
     inkscape:window-x="-9"
     inkscape:window-y="-9"
     inkscape:window-maximized="1"
     inkscape:current-layer="layer1" />
  <defs
     id="defs2">
    <inkscape:path-effect
       effect="spiro"
       id="path-effect11301"
       is_visible="true"
       lpeversion="1" />
    <inkscape:path-effect
       effect="spiro"
       id="path-effect11297"
       is_visible="true"
       lpeversion="1" />
    <inkscape:path-effect
       effect="spiro"
       id="path-effect11013"
       is_visible="true"
       lpeversion="1" />
    <inkscape:path-effect
       effect="spiro"
       id="path-effect10976"
       is_visible="true"
       lpeversion="1" />
    <inkscape:path-effect
       effect="spiro"
       id="path-effect10972"
       is_visible="true"
       lpeversion="1" />
    <inkscape:path-effect
       effect="spiro"
       id="path-effect10968"
       is_visible="true"
       lpeversion="1" />
    <inkscape:path-effect
       effect="spiro"
       id="path-effect10960"
       is_visible="true"
       lpeversion="1" />
    <inkscape:path-effect
       effect="spiro"
       id="path-effect9558"
       is_visible="true"
       lpeversion="1" />
    <inkscape:path-effect
       effect="spiro"
       id="path-effect5511"
       is_visible="true"
       lpeversion="1" />
    <inkscape:path-effect
       effect="spiro"
       id="path-effect5394"
       is_visible="true"
       lpeversion="1" />
    <inkscape:path-effect
       effect="spiro"
       id="path-effect4608"
       is_visible="true"
       lpeversion="1" />
    <inkscape:path-effect
       effect="spiro"
       id="path-effect3123"
       is_visible="true"
       lpeversion="1" />
    <inkscape:path-effect
       effect="spiro"
       id="path-effect3086"
       is_visible="true"
       lpeversion="1" />
    <inkscape:path-effect
       effect="spiro"
       id="path-effect3082"
       is_visible="true"
       lpeversion="1" />
    <inkscape:path-effect
       effect="spiro"
       id="path-effect3078"
       is_visible="true"
       lpeversion="1" />
    <inkscape:path-effect
       effect="spiro"
       id="path-effect3066"
       is_visible="true"
       lpeversion="1" />
    <inkscape:path-effect
       effect="spiro"
       id="path-effect971"
       is_visible="true"
       lpeversion="1" />
  </defs>
  <g
     inkscape:label="Layer 1"
     inkscape:groupmode="layer"
     id="layer1"
     style="opacity:1"
     transform="translate(-138.21409,-135.47054)">
    <path
       style="color:#000000;fill:#054472;stroke-linecap:round;stroke-linejoin:round;-inkscape-stroke:none;fill-opacity:1"
       d="m 144.62212,135.47076 c -0.47141,-0.007 -0.99023,0.153 -1.49024,0.5332 a 0.2645835,0.2645835 0 0 0 -0.0508,0.37109 0.2645835,0.2645835 0 0 0 0.3711,0.0508 c 0.8409,-0.63941 1.58564,-0.49803 2.00586,-0.0996 0.42021,0.39842 0.54509,1.05665 -0.043,1.71289 a 0.2645835,0.2645835 0 0 0 0.0195,0.37304 0.2645835,0.2645835 0 0 0 0.375,-0.0195 c 0.74309,-0.82923 0.62619,-1.87041 0.0137,-2.45117 -0.30626,-0.29038 -0.72977,-0.46394 -1.20117,-0.4707 z"
       id="path11295" />
    <path
       style="color:#000000;fill:#054472;-inkscape-stroke:none;fill-opacity:1"
       d="m 139.98931,140.13873 c -0.45218,0.43291 -0.41056,1.10526 -0.0527,1.50585 0.17891,0.2003 0.4446,0.33819 0.74805,0.34375 0.30345,0.006 0.63098,-0.1193 0.94922,-0.38476 l -0.33789,-0.40625 c -0.24509,0.20444 -0.448,0.26454 -0.60157,0.26172 -0.15356,-0.003 -0.27262,-0.0665 -0.36328,-0.16797 -0.1813,-0.20298 -0.22193,-0.53656 0.0234,-0.77149 z"
       id="path11299" />
  </g>
  <g
     inkscape:groupmode="layer"
     id="layer2"
     inkscape:label="Layer 2"
     transform="translate(-138.21409,-135.47054)">
    <path
       style="color:#000000;fill:#054472;stroke-linecap:round;-inkscape-stroke:none;fill-opacity:1"
       d="m 145.02837,139.94927 -3.31446,2.48828 a 0.2645835,0.2645835 0 0 0 -0.0527,0.3711 0.2645835,0.2645835 0 0 0 0.36914,0.0527 l 3.31641,-2.48828 a 0.2645835,0.2645835 0 0 0 0.0527,-0.37109 0.2645835,0.2645835 0 0 0 -0.37109,-0.0527 z"
       id="path10958" />
    <path
       style="color:#000000;fill:#054472;stroke-linecap:round;stroke-linejoin:round;-inkscape-stroke:none;fill-opacity:1"
       d="m 143.12602,136.00787 -4.04492,3.22461 a 0.2645835,0.2645835 0 0 0 -0.043,0.37109 0.2645835,0.2645835 0 0 0 0.3711,0.043 l 4.04687,-3.22461 a 0.2645835,0.2645835 0 0 0 0.043,-0.3711 0.2645835,0.2645835 0 0 0 -0.37305,-0.043 z"
       id="path10966" />
    <path
       style="color:#000000;fill:#054472;stroke-linecap:round;stroke-linejoin:round;-inkscape-stroke:none;fill-opacity:1"
       d="m 145.64556,137.95318 a 0.2645835,0.2645835 0 0 0 -0.19532,0.0527 l -4.14648,3.18555 a 0.2645835,0.2645835 0 0 0 -0.0488,0.37109 0.2645835,0.2645835 0 0 0 0.37109,0.0469 l 4.14649,-3.1836 a 0.2645835,0.2645835 0 0 0 0.0488,-0.37109 0.2645835,0.2645835 0 0 0 -0.17578,-0.10156 z"
       id="path10970" />
    <path
       style="color:#000000;fill:#054472;stroke-linecap:round;-inkscape-stroke:none;fill-opacity:1"
       d="m 143.40337,137.57037 -3.39063,2.54687 a 0.2645835,0.2645835 0 0 0 -0.0527,0.37109 0.2645835,0.2645835 0 0 0 0.37109,0.0527 l 3.39063,-2.54688 a 0.2645835,0.2645835 0 0 0 0.0527,-0.37109 0.2645835,0.2645835 0 0 0 -0.37109,-0.0527 z"
       id="path10974" />
    <path
       style="color:#000000;fill:#054472;stroke-linecap:round;stroke-linejoin:round;-inkscape-stroke:none;fill-opacity:1"
       d="m 139.08501,139.22857 c -0.9596,0.73361 -1.09649,2.09269 -0.55664,3.05469 0.26992,0.481 0.72304,0.87023 1.32226,1.00976 0.59922,0.13954 1.32646,0.0305 2.14649,-0.41015 a 0.2645835,0.2645835 0 0 0 0.10937,-0.35938 0.2645835,0.2645835 0 0 0 -0.35937,-0.10742 c -0.73801,0.39656 -1.32705,0.46573 -1.77539,0.36133 -0.44835,-0.1044 -0.77479,-0.38195 -0.98242,-0.75196 -0.41528,-0.74001 -0.30643,-1.82464 0.41601,-2.37695 a 0.2645835,0.2645835 0 0 0 0.0508,-0.36914 0.2645835,0.2645835 0 0 0 -0.37109,-0.0508 z"
       id="path11011" />
  </g>
</svg>
