<?xml version="1.0" encoding="UTF-8" standalone="no"?>
<!-- Created with Inkscape (http://www.inkscape.org/) -->

<svg
   width="11.51075mm"
   height="11.77533mm"
   viewBox="0 0 11.51075 11.77533"
   version="1.1"
   id="svg5"
   inkscape:version="1.1.1 (3bf5ae0d25, 2021-09-20)"
   sodipodi:docname="search-icon.svg"
   xmlns:inkscape="http://www.inkscape.org/namespaces/inkscape"
   xmlns:sodipodi="http://sodipodi.sourceforge.net/DTD/sodipodi-0.dtd"
   xmlns="http://www.w3.org/2000/svg"
   xmlns:svg="http://www.w3.org/2000/svg">
  <sodipodi:namedview
     id="namedview7"
     pagecolor="#ffffff"
     bordercolor="#999999"
     borderopacity="1"
     inkscape:pageshadow="0"
     inkscape:pageopacity="0"
     inkscape:pagecheckerboard="0"
     inkscape:document-units="mm"
     showgrid="false"
     inkscape:zoom="5.7869809"
     inkscape:cx="40.17639"
     inkscape:cy="23.241825"
     inkscape:window-width="1920"
     inkscape:window-height="1001"
     inkscape:window-x="-9"
     inkscape:window-y="-9"
     inkscape:window-maximized="1"
     inkscape:current-layer="layer1" />
  <defs
     id="defs2">
    <inkscape:path-effect
       effect="spiro"
       id="path-effect894"
       is_visible="true"
       lpeversion="1" />
  </defs>
  <g
     inkscape:label="Layer 1"
     inkscape:groupmode="layer"
     id="layer1"
     transform="translate(-127.499,-147.84947)">
    <path
       d="m 131.99692,147.84947 c -2.48668,0 -4.49792,2.01124 -4.49792,4.49791 0,2.48667 2.01124,4.49792 4.49792,4.49792 0.8878,0 1.70945,-0.26045 2.40605,-0.7028 l 3.24941,3.24941 1.12448,-1.12448 -3.20807,-3.1998 c 0.57671,-0.75654 0.92604,-1.69395 0.92604,-2.72025 0,-2.48667 -2.01124,-4.49791 -4.49791,-4.49791 z m 0,1.05833 c 1.90479,0 3.43958,1.53479 3.43958,3.43958 0,1.9048 -1.53479,3.43959 -3.43958,3.43959 -1.9048,0 -3.43959,-1.53479 -3.43959,-3.43959 0,-1.90479 1.53479,-3.43958 3.43959,-3.43958 z"
       id="path824"
       style="font-family:none;mix-blend-mode:normal;fill:#0a578f;fill-rule:nonzero;stroke:none;stroke-width:0.264583;stroke-linecap:butt;stroke-linejoin:miter;stroke-miterlimit:10;stroke-dasharray:none;stroke-dashoffset:0" />
    <path
       style="fill:#0a578f;fill-opacity:1;stroke:none;stroke-width:0.265;stroke-linecap:butt;stroke-linejoin:miter;stroke-miterlimit:4;stroke-dasharray:none;stroke-opacity:1"
       d="m 138.77686,158.26743 c -0.14719,-0.14719 -0.35408,-0.23289 -0.56224,-0.23289 -0.20816,0 -0.41505,0.0857 -0.56224,0.23289 -0.14719,0.14719 -0.23289,0.35408 -0.23289,0.56224 0,0.20816 0.0857,0.41505 0.23289,0.56224 0.14719,0.14719 0.35408,0.23289 0.56224,0.23289 0.20816,0 0.41505,-0.0857 0.56224,-0.23289 0.14719,-0.14719 0.23289,-0.35408 0.23289,-0.56224 0,-0.20816 -0.0857,-0.41505 -0.23289,-0.56224 z"
       id="path892"
       inkscape:path-effect="#path-effect894"
       inkscape:original-d="m 138.77686,158.26743 c 0.37456,-0.37509 -0.74939,0.74992 -1.12448,1.12448 -0.37509,0.37456 0.74992,-0.74939 1.12448,-1.12448 z" />
  </g>
</svg>
